<?xml version="1.0" encoding="utf-8"?>
<!-- Generator: Adobe Illustrator 17.0.0, SVG Export Plug-In . SVG Version: 6.00 Build 0)  -->
<!DOCTYPE svg PUBLIC "-//W3C//DTD SVG 1.1//EN" "http://www.w3.org/Graphics/SVG/1.1/DTD/svg11.dtd">
<svg version="1.1" id="Layer_1" xmlns="http://www.w3.org/2000/svg" xmlns:xlink="http://www.w3.org/1999/xlink" x="0px" y="0px"
	 width="65px" height="65px" viewBox="273.5 363.5 65 65" enable-background="new 273.5 363.5 65 65" xml:space="preserve">
<g>
	<path fill="#223235" d="M274.001,411.124c0.328-0.529,0.801-0.582,1.404-0.651c1.249-0.144,2.491-0.451,3.702-0.807
		c1.853-0.544,3.642-1.346,5.519-1.756c4.77-1.044,9.304-0.326,13.479,2.281c1.218,0.76,2.379,1.609,3.584,2.391
		c1.996,1.295,4.084,1.839,6.517,1.295c2.343-0.523,4.764-0.509,7.113,0.158c0.644,0.183,1.285,0.502,1.826,0.898
		c0.729,0.533,0.773,1.318,0.116,1.932c-0.523,0.488-1.129,0.97-1.788,1.216c-1.454,0.543-2.963,0.937-4.451,1.39
		c-0.059,0.018-0.127,0.009-0.185,0.03c-2.068,0.753-4.122,0.658-6.246,0.128c-2.332-0.582-4.732-0.665-7.137-0.425
		c-0.671,0.067-1.354,0.01-2.032,0.01c-0.005,0.077-0.011,0.155-0.017,0.232c0.894,0.095,1.787,0.237,2.684,0.275
		c2.633,0.111,5.206,0.586,7.75,1.23c1.243,0.314,2.465,0.327,3.692-0.053c1.746-0.541,3.52-1.009,5.232-1.641
		c0.94-0.347,1.81-0.921,2.65-1.485c0.395-0.265,0.754-0.703,0.931-1.142c0.192-0.478,0.468-0.661,0.922-0.759
		c3.35-0.723,6.678-1.573,10.054-2.141c1.717-0.289,3.521-0.143,5.28-0.065c0.878,0.039,1.672,0.48,2.2,1.267
		c0.701,1.044,0.613,2.067-0.439,2.768c-0.817,0.544-1.744,0.987-2.683,1.277c-8.44,2.605-16.894,5.165-25.343,7.742
		c-1.365,0.417-2.724,0.854-4.086,1.282c-0.625,0-1.25,0-1.875,0c-0.709-0.139-1.424-0.253-2.126-0.421
		c-4.721-1.135-9.447-2.255-14.158-3.434c-3.319-0.83-6.592-0.57-9.858,0.24c-1.13,0.28-1.55,0.107-2.233-1.01
		C274.001,419.291,274.001,415.208,274.001,411.124z"/>
	<path fill="#223235" d="M338,380.874c-0.33,0.528-0.802,0.594-1.409,0.648c-1.086,0.097-2.172,0.357-3.222,0.667
		c-1.593,0.47-3.141,1.098-4.736,1.56c-5.335,1.548-10.368,0.838-15.06-2.152c-1.053-0.671-2.069-1.4-3.108-2.093
		c-2.058-1.373-4.22-1.935-6.74-1.383c-2.323,0.509-4.725,0.484-7.054-0.165c-0.626-0.175-1.25-0.48-1.777-0.862
		c-0.787-0.57-0.838-1.375-0.112-2.017c0.583-0.515,1.253-1.008,1.971-1.277c1.376-0.514,2.844-0.782,4.22-1.297
		c2.498-0.934,4.937-0.483,7.417,0.041c1.942,0.411,3.922,0.442,5.906,0.266c0.754-0.067,1.52-0.011,2.28-0.011
		c0.005-0.079,0.011-0.157,0.017-0.236c-0.832-0.095-1.662-0.243-2.497-0.276c-2.78-0.112-5.493-0.619-8.181-1.297
		c-1.136-0.286-2.267-0.248-3.388,0.093c-1.67,0.507-3.369,0.937-5.001,1.546c-1.037,0.387-2.003,0.994-2.943,1.594
		c-0.398,0.254-0.764,0.7-0.931,1.139c-0.197,0.517-0.52,0.653-0.981,0.78c-3.651,1.008-7.322,1.94-11.107,2.259
		c-1.379,0.116-2.785,0.047-4.167-0.069c-0.927-0.078-1.739-0.525-2.269-1.375c-0.582-0.932-0.531-1.889,0.364-2.544
		c0.725-0.531,1.557-0.988,2.412-1.258c5.25-1.664,10.518-3.273,15.785-4.885c3.438-1.052,6.886-2.073,10.327-3.113
		c1.247-0.377,2.49-0.772,3.734-1.159c0.625,0,1.25,0,1.875,0c0.729,0.145,1.465,0.265,2.187,0.439
		c4.479,1.08,8.966,2.126,13.427,3.275c3.579,0.922,7.11,0.794,10.65-0.132c1.019-0.267,1.453-0.038,2.111,1.043
		C338,372.708,338,376.791,338,380.874z"/>
	<path fill="#223235" d="M316.978,396.033c-0.028,6.04-4.982,10.962-11.014,10.944c-6.063-0.019-10.958-4.976-10.939-11.076
		c0.019-5.975,5.017-10.912,11.01-10.877C312.089,385.06,317.005,390.006,316.978,396.033z M305.99,386.572
		c-5.161-0.022-9.396,4.178-9.417,9.341c-0.022,5.265,4.127,9.477,9.372,9.513c5.229,0.036,9.47-4.171,9.482-9.405
		C315.438,390.782,311.255,386.594,305.99,386.572z"/>
	<path fill="#223235" d="M306.019,387.681c4.612,0.01,8.36,3.773,8.289,8.446c-0.07,4.584-3.729,8.145-8.238,8.182
		c-4.763,0.039-8.478-3.735-8.365-8.599C297.809,391.196,301.477,387.716,306.019,387.681z M307.146,390.607
		c-0.33-0.054-0.596-0.103-0.863-0.139c-0.39-0.053-0.621,0.113-0.576,0.518c0.062,0.561-0.182,0.786-0.718,0.939
		c-0.901,0.257-1.512,0.877-1.656,1.838c-0.155,1.033,0.239,1.837,1.147,2.361c0.413,0.238,0.851,0.431,1.276,0.648
		c0.24,0.123,0.532,0.204,0.697,0.394c0.181,0.209,0.382,0.564,0.318,0.778c-0.066,0.217-0.45,0.485-0.686,0.476
		c-0.631-0.023-1.261-0.165-1.884-0.295c-0.252-0.053-0.486-0.196-0.722-0.296c-0.774,1.429-0.732,1.759,0.397,2.061
		c0.809,0.216,1.504,0.395,1.176,1.488c0.341,0.058,0.603,0.107,0.866,0.146c0.45,0.066,0.687-0.121,0.632-0.587
		c-0.066-0.558,0.168-0.784,0.717-0.939c0.959-0.272,1.634-0.91,1.782-1.955c0.163-1.153-0.241-2.042-1.301-2.588
		c-0.406-0.209-0.823-0.399-1.227-0.612c-0.256-0.135-0.528-0.263-0.74-0.453c-0.392-0.353-0.295-0.793,0.205-0.955
		c0.227-0.073,0.496-0.11,0.726-0.065c0.602,0.119,1.193,0.293,1.788,0.444c0.801-1.724,0.729-1.591-0.782-1.99
		c-0.388-0.103-0.586-0.26-0.543-0.676C307.194,390.988,307.16,390.823,307.146,390.607z"/>
</g>
</svg>
