<?xml version="1.0" encoding="utf-8"?>
<!-- Generator: Adobe Illustrator 17.0.0, SVG Export Plug-In . SVG Version: 6.00 Build 0)  -->
<!DOCTYPE svg PUBLIC "-//W3C//DTD SVG 1.1//EN" "http://www.w3.org/Graphics/SVG/1.1/DTD/svg11.dtd">
<svg version="1.1" id="Layer_1" xmlns="http://www.w3.org/2000/svg" xmlns:xlink="http://www.w3.org/1999/xlink" x="0px" y="0px"
	 width="49px" height="65px" viewBox="281.5 363.5 49 65" enable-background="new 281.5 363.5 49 65" xml:space="preserve">
<g>
	<path fill="#223235" d="M286.609,364c16.301,0,22.363,0,38.664,0c0.069,0.044,0.132,0.104,0.207,0.129
		c1.411,0.458,2.015,1.284,2.018,2.775c0.002,1.48-0.001,2.959,0.003,4.439c0.001,0.22,0.024,0.439,0.041,0.719
		c0.896,0,1.721,0,2.587,0c0.016,0.288,0.039,0.512,0.039,0.737c0.001,17.442,0.002,34.885-0.001,52.327
		c0,1.801-1.077,2.873-2.879,2.874c-16.734,0.001-23.228,0.003-39.962-0.007c-0.514,0-1.038-0.08-1.541-0.193
		c-1.933-0.436-3.962-2.377-3.953-5.333c0.036-12.962,0.012-25.924,0.011-38.886c0-4.73-0.006-9.461,0.011-14.191
		c0.009-2.526,1.597-4.563,3.986-5.178C286.095,364.144,286.351,364.07,286.609,364z M287.478,400.024c-0.001,0-0.003,0-0.004,0
		c0,8.17,0,16.341,0,24.511c0,0.9,0.001,0.902,0.87,0.902c12.798,0,25.595,0,38.393,0c0.894,0,0.899-0.002,0.899-0.885
		c0.001-4.877-0.001-9.755-0.002-14.632c-0.001-11.526-0.005-23.052,0.006-34.578c0.001-0.553-0.133-0.751-0.729-0.75
		c-12.902,0.018-25.804,0.019-38.706,0.005c-0.566-0.001-0.743,0.14-0.742,0.728C287.484,383.558,287.478,391.791,287.478,400.024z
		 M324.895,366.631c-0.245-0.013-0.41-0.028-0.575-0.028c-15.753-0.001-21.267-0.003-37.02,0.001c-1.682,0-2.952,1.218-2.921,2.768
		c0.032,1.559,1.247,2.671,2.928,2.671c15.712,0.001,21.183,0,36.895,0c0.222,0,0.445,0,0.733,0c0-1.655,0.001-3.233-0.002-4.811
		C324.934,367.05,324.911,366.868,324.895,366.631z"/>
	<path fill="#223235" d="M303.621,414.186c0-1.605-0.011-3.21,0.007-4.815c0.005-0.436-0.118-0.641-0.574-0.786
		c-6.187-1.971-10.069-6.14-11.198-12.522c-1.575-8.903,4.314-16.545,12.168-18.261c8.626-1.884,16.8,3.147,18.995,11.694
		c2.038,7.936-2.345,16.427-10.661,18.986c-0.679,0.209-0.899,0.479-0.889,1.193c0.045,3.001,0.023,6.003,0.02,9.005
		c-0.002,1.999-1.464,3.689-3.399,3.94c-1.997,0.259-3.867-0.974-4.338-2.945c-0.152-0.636-0.111-1.322-0.12-1.987
		c-0.017-1.167-0.005-2.335-0.005-3.502C303.625,414.186,303.623,414.186,303.621,414.186z M319.614,393.378
		c0.007-6.65-5.434-12.107-12.069-12.105c-6.6,0.002-12.052,5.448-12.065,12.052c-0.014,6.632,5.434,12.09,12.075,12.096
		C314.157,405.427,319.607,399.985,319.614,393.378z"/>
</g>
</svg>
