<?xml version="1.0" encoding="utf-8"?>
<!-- Generator: Adobe Illustrator 17.0.0, SVG Export Plug-In . SVG Version: 6.00 Build 0)  -->
<!DOCTYPE svg PUBLIC "-//W3C//DTD SVG 1.1//EN" "http://www.w3.org/Graphics/SVG/1.1/DTD/svg11.dtd">
<svg version="1.1" id="Layer_1" xmlns="http://www.w3.org/2000/svg" xmlns:xlink="http://www.w3.org/1999/xlink" x="0px" y="0px"
	 width="64px" height="65px" viewBox="-7.5 0 64 65" enable-background="new -7.5 0 64 65" xml:space="preserve">
<g>
	<path fill="#223235" d="M40.232,48.886c-12.963,0-25.858,0-38.79,0c0-16.117,0-32.199,0-48.356c0.222-0.01,0.444-0.029,0.666-0.029
		C14.293,0.5,26.478,0.5,38.663,0.5c1.201,0,1.598,0.389,1.6,1.59c0.004,2.935,0.001,5.871,0.001,8.806c0,0.16,0,0.32,0,0.481
		c-0.055,0.03-0.111,0.06-0.166,0.09c-0.074-0.12-0.132-0.255-0.225-0.358c-4.157-4.645-9.337-6.432-15.361-4.923
		C18.51,7.69,14.818,11.745,13.49,17.769c-1.825,8.274,3.954,16.54,12.32,17.862c2.853,0.451,5.594,0.122,8.243-0.99
		c0.402-0.169,0.624-0.108,0.917,0.196c1.628,1.687,3.286,3.344,4.915,5.029c0.186,0.192,0.363,0.493,0.366,0.746
		c0.026,2.639,0.015,5.279,0.013,7.919C40.263,48.634,40.246,48.736,40.232,48.886z"/>
	<path fill="#223235" d="M39.813,30.025c0.388-0.467,0.724-0.872,1.122-1.352c1.049,1.067,2.015,2.061,2.994,3.042
		c3.82,3.826,7.643,7.648,11.47,11.466c0.271,0.27,0.488,0.501,0.27,0.92c-0.915,1.75-2.166,3.16-4.012,3.949
		c-0.186,0.08-0.558,0.008-0.702-0.136c-4.854-4.822-9.691-9.66-14.651-14.618c0.467-0.325,0.914-0.635,1.332-0.925
		c-0.558-0.555-0.938-0.933-1.353-1.346c-3.228,2.387-6.892,3.129-10.851,2.281c-3.119-0.668-5.601-2.389-7.506-4.933
		c-3.857-5.151-3.294-12.462,1.296-17.02c4.556-4.525,11.81-5.009,16.928-1.22c5.475,4.054,7.193,12.41,2.538,18.564
		C39.017,29.086,39.355,29.485,39.813,30.025z M37.46,20.75c0.003-5.045-4.134-9.179-9.189-9.181
		c-5.027-0.002-9.157,4.113-9.166,9.133c-0.01,5.16,4.072,9.236,9.239,9.229C33.358,29.923,37.456,25.796,37.46,20.75z"/>
	<path fill="#223235" d="M37.747,58.777c0.107,0.631,0.199,1.17,0.304,1.785c-12.81,0-25.573,0-38.385,0c0,0.752,0,1.436,0,2.189
		c0.215,0.01,0.437,0.031,0.66,0.031c12.525,0.002,25.051,0.008,37.576-0.012c0.619-0.001,0.991,0.112,1.131,0.753
		c0.066,0.301,0.232,0.58,0.38,0.934c-0.22,0.016-0.395,0.039-0.571,0.039c-12.906,0.001-25.812,0.013-38.717-0.009
		c-2.772-0.005-4.902-1.257-6.128-3.758c-1.18-2.408-0.904-4.782,0.723-6.912c1.442-1.889,3.449-2.714,5.804-2.715
		c9.885-0.003,19.77-0.002,29.656-0.002c2.83,0,5.661,0.001,8.491,0.001c0.225,0,0.45,0,0.758,0
		c-0.269,0.575-0.467,1.084-0.747,1.543c-0.082,0.134-0.399,0.172-0.609,0.172c-4.33,0.009-8.66,0.006-12.99,0.006
		c-8.195,0-16.391-0.001-24.586-0.001c-0.269,0-0.539,0-0.843,0c0,0.708,0,1.351,0,2.064c12.785,0,25.552,0,38.351,0
		c-0.107,0.627-0.202,1.181-0.31,1.813c-12.925,0-25.86,0-38.828,0c0,0.724,0,1.371,0,2.08
		C11.816,58.777,24.754,58.777,37.747,58.777z"/>
	<path fill="#223235" d="M-0.798,48.878c-2.318,0.477-2.481,0.384-5.907,3.108c-0.02-0.222-0.05-0.392-0.05-0.563
		c-0.002-14.59-0.008-29.179,0.003-43.769c0.003-3.455,2.176-6.2,5.43-6.948c0.161-0.037,0.327-0.053,0.524-0.084
		C-0.798,16.723-0.798,32.784-0.798,48.878z"/>
	<path fill="#223235" d="M35.356,20.633c-0.013,3.944-3.208,7.131-7.136,7.118c-3.906-0.014-7.068-3.219-7.044-7.14
		c0.024-3.913,3.223-7.067,7.144-7.043C32.251,13.593,35.369,16.724,35.356,20.633z"/>
</g>
</svg>
