<?xml version="1.0" encoding="utf-8"?>
<!-- Generator: Adobe Illustrator 17.0.0, SVG Export Plug-In . SVG Version: 6.00 Build 0)  -->
<!DOCTYPE svg PUBLIC "-//W3C//DTD SVG 1.1//EN" "http://www.w3.org/Graphics/SVG/1.1/DTD/svg11.dtd">
<svg version="1.1" id="Layer_1" xmlns="http://www.w3.org/2000/svg" xmlns:xlink="http://www.w3.org/1999/xlink" x="0px" y="0px"
	 width="61px" height="65px" viewBox="275.5 363.5 61 65" enable-background="new 275.5 363.5 61 65" xml:space="preserve">
<g>
	<g>
		<path fill="#223235" d="M305.579,364.026c3.213-0.142,6.292,0.465,9.137,1.935c3.64,1.881,5.341,5.642,4.549,9.662
			c-0.189,0.958-0.374,1.918-0.544,2.879c-0.14,0.792,0.048,1.38,0.66,2.038c0.578,0.621,1.021,1.626,1.025,2.465
			c0.006,1.423-0.305,2.865-0.632,4.264c-0.157,0.673-0.507,1.46-1.027,1.856c-1.251,0.95-1.742,2.229-2.328,3.613
			c-1.828,4.325-5.031,7.193-9.803,7.779c-2.642,0.324-5.012-0.83-7.041-2.468c-2.204-1.779-3.655-4.11-4.557-6.809
			c-0.227-0.68-0.686-1.35-1.205-1.853c-1.775-1.72-2.792-5.82-1.873-8.087c0.169-0.417,0.447-0.909,0.814-1.104
			c0.996-0.531,0.76-1.305,0.738-2.177c-0.058-2.285-0.067-4.581,0.105-6.858c0.097-1.29,0.988-2.207,2.199-2.78
			c0.442-0.209,0.955-0.523,1.165-0.93c1.369-2.653,3.854-3.137,6.447-3.415C304.124,363.961,304.855,364.026,305.579,364.026z
			 M306.065,398.65c0.586-0.149,1.35-0.254,2.043-0.534c3.308-1.332,5.522-3.709,6.71-7.082c0.291-0.826,0.624-1.813,1.262-2.307
			c1.678-1.301,1.981-3.125,2.207-4.969c0.062-0.507-0.386-1.362-0.836-1.588c-1.096-0.551-1.322-1.188-1.261-2.418
			c0.152-3.056-0.639-4.417-3.789-4.405c-1.083,0.004-2.241,0.174-3.232,0.586c-2.158,0.897-3.959,0.321-5.76-0.881
			c-0.57-0.381-1.292-0.709-1.96-0.742c-3.184-0.157-5.957,2.5-6.06,5.712c-0.03,0.939-0.211,1.65-1.384,1.752
			c-0.328,0.029-0.902,0.672-0.859,0.957c0.234,1.537,0.584,3.061,0.995,4.561c0.095,0.346,0.535,0.719,0.898,0.846
			c1.025,0.359,1.402,1.139,1.667,2.083c0.195,0.693,0.438,1.384,0.748,2.033C299.159,395.821,301.806,398.151,306.065,398.65z"/>
		<path fill="#223235" d="M305.993,410.147c-0.511,0-1.031-0.064-1.53,0.013c-1.254,0.193-1.525-0.743-2.005-1.555
			c-0.477-0.806-0.368-1.475,0.243-2.057c0.301-0.287,0.765-0.538,1.168-0.559c1.358-0.072,2.724,0.005,4.083-0.047
			c1.292-0.05,1.571,0.863,1.724,1.794c0.159,0.972-0.831,2.33-1.641,2.38c-0.678,0.042-1.361,0.009-2.042,0.009
			C305.993,410.131,305.993,410.139,305.993,410.147z"/>
	</g>
	<g>
		<path fill="#223235" d="M322.333,409.651c-2.717-0.003-4.961,2.227-4.967,4.937c-0.006,2.739,2.222,4.981,4.954,4.984
			c2.717,0.003,4.961-2.228,4.967-4.937C327.293,411.896,325.064,409.654,322.333,409.651z M322.34,418.469
			c-2.168-0.003-3.879-1.729-3.872-3.905c0.007-2.095,1.754-3.82,3.862-3.811c2.15,0.008,3.856,1.729,3.855,3.888
			C326.184,416.74,324.444,418.473,322.34,418.469z"/>
		<path fill="#223235" d="M334.612,411.842c-1.188-0.993-2.509-1.966-3.939-2.501c-4.422-1.653-8.93-3.076-13.389-4.632
			c-0.931-0.325-1.348-0.163-1.645,0.833c-1.604,5.378-3.275,10.735-4.931,16.098c-0.101,0.328-0.274,0.634-0.414,0.95
			c-0.386-0.478-0.529-0.91-0.58-1.353c-0.284-2.447-0.543-4.897-0.817-7.345c-0.099-0.884-0.486-1.324-1.495-1.285
			c-3.972,0.155-3.043-0.678-3.611,3.396c-0.303,2.176-0.537,4.361-0.802,6.542c-0.123,0.011-0.246,0.023-0.368,0.034
			c-0.145-0.237-0.348-0.456-0.427-0.713c-1.625-5.282-3.255-10.562-4.837-15.857c-0.516-1.728-0.471-1.799-2.24-1.228
			c-4.533,1.466-9.059,2.955-13.566,4.501c-1.033,0.354-2.032,0.888-2.948,1.49c-1.798,1.18-2.695,2.893-2.678,5.073
			c0.018,2.216-0.002,4.432-0.001,6.649c0.002,3.585,1.94,5.508,5.536,5.507c16.536-0.004,33.072-0.007,49.608-0.01
			c2.978-0.001,4.952-1.938,4.98-4.935c0.023-2.514-0.04-5.03,0.026-7.543C336.113,414.042,335.68,412.735,334.612,411.842z
			 M325.083,426.463c-0.102-0.082-0.172-0.129-0.23-0.187c-0.659-0.656-1.316-1.315-1.974-1.972
			c-0.439-0.439-0.666-0.442-1.096-0.01c-0.713,0.715-1.424,1.433-2.174,2.187c-0.018-0.121-0.038-0.191-0.038-0.262
			c-0.002-1.561,0.001-3.123-0.006-4.684c-0.001-0.195,0.043-0.315,0.239-0.39c0.287-0.11,0.562-0.253,0.876-0.397
			c0.265,0.374,0.506,0.722,0.754,1.065c0.497,0.687,1.278,0.692,1.774,0.011c0.249-0.343,0.49-0.692,0.759-1.074
			c0.342,0.157,0.684,0.307,1.017,0.474c0.052,0.026,0.094,0.126,0.094,0.193C325.084,423.081,325.083,424.744,325.083,426.463z
			 M327.505,416.815c0.156,0.341,0.315,0.682,0.494,1.069c-0.402,0.038-0.761,0.078-1.121,0.103
			c-0.785,0.053-1.126,0.398-1.177,1.191c-0.023,0.352-0.063,0.702-0.1,1.106c-0.375-0.174-0.714-0.331-1.053-0.487
			c-0.681-0.314-1.113-0.2-1.542,0.406c-0.217,0.306-0.435,0.61-0.681,0.955c-0.244-0.343-0.461-0.648-0.678-0.953
			c-0.429-0.605-0.865-0.721-1.543-0.407c-0.332,0.153-0.663,0.307-1.052,0.487c-0.037-0.394-0.078-0.733-0.099-1.073
			c-0.053-0.84-0.385-1.175-1.214-1.228c-0.342-0.022-0.683-0.061-1.087-0.099c0.169-0.366,0.325-0.703,0.481-1.041
			c0.325-0.701,0.213-1.121-0.415-1.566c-0.298-0.211-0.595-0.423-0.94-0.669c0.307-0.219,0.582-0.415,0.858-0.61
			c0.745-0.526,0.838-0.882,0.452-1.72c-0.138-0.299-0.275-0.599-0.432-0.94c0.366-0.037,0.691-0.079,1.017-0.1
			c0.919-0.06,1.224-0.361,1.283-1.267c0.021-0.328,0.062-0.655,0.099-1.035c0.374,0.173,0.713,0.33,1.052,0.487
			c0.682,0.314,1.111,0.2,1.541-0.407c0.216-0.306,0.435-0.61,0.682-0.956c0.257,0.364,0.484,0.69,0.716,1.013
			c0.384,0.535,0.832,0.652,1.439,0.377c0.361-0.164,0.721-0.329,1.117-0.51c0.037,0.389,0.078,0.727,0.1,1.067
			c0.054,0.854,0.38,1.176,1.246,1.231c0.331,0.021,0.661,0.061,1.054,0.098c-0.168,0.363-0.323,0.701-0.479,1.038
			c-0.325,0.703-0.215,1.123,0.412,1.567c0.298,0.211,0.595,0.423,0.944,0.671c-0.345,0.244-0.658,0.465-0.971,0.687
			C327.317,415.717,327.202,416.153,327.505,416.815z"/>
	</g>
</g>
</svg>
