<?xml version="1.0" encoding="utf-8"?>
<!-- Generator: Adobe Illustrator 17.0.0, SVG Export Plug-In . SVG Version: 6.00 Build 0)  -->
<!DOCTYPE svg PUBLIC "-//W3C//DTD SVG 1.1//EN" "http://www.w3.org/Graphics/SVG/1.1/DTD/svg11.dtd">
<svg version="1.1" id="Layer_1" xmlns="http://www.w3.org/2000/svg" xmlns:xlink="http://www.w3.org/1999/xlink" x="0px" y="0px"
	 width="65px" height="65px" viewBox="13 0 65 65" enable-background="new 13 0 65 65" xml:space="preserve">
<g>
	<path fill="#223235" d="M43.999,19.102c3.638-3.642,7.172-7.178,10.766-10.775c-0.159-0.172-0.353-0.395-0.561-0.604
		c-1.768-1.772-3.535-3.544-5.311-5.307c-0.376-0.373-0.77-0.826-0.425-1.291c0.245-0.331,0.809-0.595,1.232-0.598
		C56.402,0.491,63.104,0.5,69.806,0.504c1.044,0.001,1.368,0.318,1.368,1.314c0.002,6.702-0.001,13.404,0.003,20.106
		c0,0.541,0.031,1.099-0.595,1.328c-0.59,0.216-0.984-0.134-1.375-0.532c-1.91-1.939-3.836-3.863-5.819-5.854
		c-0.288,0.271-0.529,0.486-0.758,0.714c-4.662,4.659-9.321,9.321-13.983,13.98c-2.811,2.809-6.308,2.807-9.122-0.017
		c-1.078-1.082-2.128-2.191-3.422-3.526c-0.255,0.403-0.391,0.731-0.622,0.966c-5.252,5.327-10.515,10.644-15.773,15.965
		c-0.379,0.384-0.736,0.793-1.357,0.551c-0.66-0.256-0.642-0.832-0.642-1.397c0-4.45,0.009-8.899-0.009-13.349
		c-0.003-0.659,0.198-1.154,0.669-1.623c4.496-4.471,8.969-8.965,13.46-13.44c2.613-2.604,6.222-2.578,8.83,0.041
		C41.777,16.854,42.888,17.98,43.999,19.102z"/>
	<path fill="#223235" d="M77.695,44.773c0,6.087,0.001,12.174-0.001,18.261c0,1.234-0.225,1.46-1.446,1.461
		c-3.141,0.002-6.282,0.003-9.423,0c-1.129-0.001-1.42-0.294-1.42-1.432c-0.002-12.146-0.002-24.293,0-36.439
		c0-1.302,0.248-1.552,1.562-1.554c3.057-0.005,6.115-0.003,9.172,0c1.349,0.001,1.555,0.205,1.555,1.526
		C77.696,32.654,77.695,38.714,77.695,44.773z"/>
	<path fill="#223235" d="M60.326,51.603c0,3.835,0.002,7.67-0.001,11.505c-0.001,1.106-0.274,1.385-1.364,1.386
		c-3.196,0.004-6.392,0.004-9.587,0c-1.04-0.001-1.333-0.294-1.333-1.335c-0.003-7.726-0.003-15.451,0-23.177
		c0-1.074,0.24-1.315,1.327-1.317c3.196-0.006,6.392-0.005,9.587-0.001c1.163,0.002,1.369,0.208,1.37,1.35
		C60.327,43.878,60.326,47.741,60.326,51.603z"/>
	<path fill="#223235" d="M30.668,54.126c0-2.945-0.002-5.891,0.001-8.836c0.001-1.218,0.202-1.43,1.378-1.431
		c3.223-0.003,6.447-0.002,9.67,0.004c0.939,0.002,1.241,0.297,1.242,1.244c0.006,6.03,0.008,12.059,0.004,18.089
		c-0.001,0.955-0.341,1.291-1.314,1.294c-3.251,0.007-6.502,0.007-9.753-0.002c-0.923-0.003-1.218-0.318-1.22-1.275
		c-0.006-3.029-0.002-6.057-0.002-9.086C30.672,54.126,30.67,54.126,30.668,54.126z"/>
	<path fill="#223235" d="M13.307,58.177c0-1.694-0.004-3.387,0.001-5.081c0.003-0.989,0.243-1.235,1.224-1.236
		c3.248-0.005,6.496-0.006,9.745-0.001c1.044,0.002,1.322,0.28,1.324,1.339c0.007,3.332,0.006,6.663,0,9.995
		c-0.002,0.968-0.336,1.301-1.295,1.303c-3.22,0.005-6.441,0.006-9.661,0.002c-1.063-0.001-1.328-0.263-1.334-1.323
		C13.3,61.508,13.307,59.843,13.307,58.177z"/>
</g>
</svg>
