<?xml version="1.0" encoding="utf-8"?>
<!-- Generator: Adobe Illustrator 17.0.0, SVG Export Plug-In . SVG Version: 6.00 Build 0)  -->
<!DOCTYPE svg PUBLIC "-//W3C//DTD SVG 1.1//EN" "http://www.w3.org/Graphics/SVG/1.1/DTD/svg11.dtd">
<svg version="1.1" id="Layer_1" xmlns="http://www.w3.org/2000/svg" xmlns:xlink="http://www.w3.org/1999/xlink" x="0px" y="0px"
	 width="51px" height="65px" viewBox="280.5 363.5 51 65" enable-background="new 280.5 363.5 51 65" xml:space="preserve">
<g>
	<path fill="#223235" d="M282.395,427.999c-1.302-0.521-1.642-1.485-1.563-2.845c0.295-5.08,0.699-10.144,1.737-15.134
		c0.272-1.307,0.673-2.59,1.06-3.87c0.704-2.327,2.226-3.963,4.452-4.871c1.68-0.685,3.423-1.218,5.144-1.8
		c0.882-0.298,1.778-0.557,2.764-0.863c1.717,6.436,3.343,12.869,6.315,18.907c0.201-1.222,0.409-2.444,0.6-3.667
		c0.38-2.422,0.69-4.858,1.15-7.264c0.234-1.225-0.153-2.303-0.443-3.413c-0.15-0.573-0.04-0.885,0.464-1.163
		c0.661-0.364,1.29-1.103,1.93-1.1c0.642,0.003,1.269,0.74,1.925,1.116c0.453,0.26,0.681,0.539,0.439,1.082
		c-0.937,2.105-0.306,4.218,0.012,6.323c0.393,2.599,0.812,5.194,1.223,7.791c0.011,0.069,0.055,0.132,0.281,0.272
		c0.615-1.513,1.269-3.011,1.835-4.543c0.578-1.563,1.094-3.15,1.592-4.741c0.49-1.567,0.94-3.147,1.378-4.729
		c0.444-1.601,0.853-3.211,1.332-5.024c2.94,1.086,5.84,2.033,8.634,3.229c2.158,0.924,3.366,2.835,3.886,5.064
		c0.694,2.972,1.358,5.965,1.778,8.984c0.435,3.126,0.536,6.297,0.837,9.444c0.126,1.32-0.294,2.261-1.513,2.815
		C313.896,427.999,298.146,427.999,282.395,427.999z"/>
	<path fill="#223235" d="M294.148,380.146c-0.197-1.312-0.49-2.552-0.541-3.803c-0.054-1.326-0.01-2.688,0.246-3.983
		c0.178-0.905,0.615-1.883,1.233-2.553c1.838-1.992,3.857-3.834,6.417-4.862c4.251-1.708,8.222-1.075,11.856,1.694
		c0.664,0.506,1.275,1.081,1.945,1.577c2.265,1.675,3.256,3.964,3.129,6.716c-0.072,1.559-0.359,3.107-0.551,4.66
		c-0.021,0.167-0.05,0.334-0.075,0.502c1.485,0.096,1.497,0.301,1.613,1.834c0.071,0.938-0.214,1.808-0.984,2.439
		c-0.67,0.549-1.149,1.358-2.143,1.477c-0.167,0.02-0.321,0.415-0.426,0.661c-1.073,2.51-2.425,4.836-4.413,6.745
		c-2.586,2.484-5.672,3.107-8.544,1.7c-1.505-0.737-2.792-1.803-3.706-3.182c-1.14-1.719-2.083-3.568-3.143-5.341
		c-0.167-0.279-0.47-0.57-0.769-0.661c-1.822-0.549-3.198-3.194-2.577-4.983C292.966,380.064,293.535,380.153,294.148,380.146z"/>
</g>
</svg>
