<?xml version="1.0" encoding="utf-8"?>
<!-- Generator: Adobe Illustrator 17.0.0, SVG Export Plug-In . SVG Version: 6.00 Build 0)  -->
<!DOCTYPE svg PUBLIC "-//W3C//DTD SVG 1.1//EN" "http://www.w3.org/Graphics/SVG/1.1/DTD/svg11.dtd">
<svg version="1.1" id="Layer_1" xmlns="http://www.w3.org/2000/svg" xmlns:xlink="http://www.w3.org/1999/xlink" x="0px" y="0px"
	 width="53px" height="65px" viewBox="279.5 363.5 53 65" enable-background="new 279.5 363.5 53 65" xml:space="preserve">
<path fill="#223235" d="M332.285,386.73c0,3.701-0.045,7.402,0.009,11.102c0.108,7.393-2.778,13.516-7.84,18.731
	c-4.737,4.88-10.401,8.375-16.614,11.032c-1.163,0.497-2.389,0.562-3.558,0.057c-6.311-2.726-12.113-6.221-16.899-11.247
	c-3.727-3.914-6.411-8.385-7.279-13.786c-0.273-1.697-0.366-3.438-0.374-5.159c-0.038-7.793-0.036-15.586,0.011-23.378
	c0.005-0.916,0.242-1.89,0.615-2.73c0.506-1.141,1.621-1.631,2.79-1.922c7.029-1.748,14.062-3.479,21.088-5.241
	c1.759-0.441,3.421-0.029,5.102,0.391c6.485,1.619,12.974,3.224,19.46,4.84c2.399,0.597,3.495,2.035,3.491,4.524
	C332.281,378.207,332.285,382.469,332.285,386.73z M329.567,386.853c-0.004,0-0.008,0-0.013,0c0-4.31,0.001-8.62-0.001-12.93
	c-0.001-1.276-0.231-1.577-1.455-1.881c-6.863-1.708-13.72-3.441-20.597-5.089c-0.953-0.228-2.055-0.226-3.008,0.003
	c-6.759,1.62-13.497,3.328-20.243,5.004c-1.672,0.415-1.809,0.575-1.81,2.266c-0.004,8.035-0.017,16.071,0,24.106
	c0.002,1.14,0.081,2.29,0.246,3.418c0.692,4.735,2.923,8.708,6.118,12.202c4.574,5.002,10.198,8.457,16.358,11.111
	c0.478,0.206,1.14,0.098,1.688-0.009c0.488-0.095,0.941-0.384,1.405-0.598c5.764-2.652,10.98-6.081,15.239-10.842
	c3.909-4.37,6.132-9.414,6.078-15.367C329.539,394.45,329.567,390.651,329.567,386.853z"/>
<g>
	<path fill="#223235" d="M324.631,377.643c0.002-0.55-0.123-0.8-0.704-0.942c-5.737-1.402-11.463-2.849-17.2-4.255
		c-0.453-0.111-0.98-0.105-1.434,0.005c-5.667,1.383-11.323,2.811-16.993,4.181c-0.757,0.183-0.924,0.513-0.917,1.24
		c0.039,3.628,0.018,7.256,0.018,10.885c-0.009,0-0.018,0-0.027,0c0,2.995,0.022,5.99-0.005,8.985
		c-0.038,4.307,1.284,8.128,3.997,11.471c3.837,4.728,8.797,7.911,14.286,10.358c0.225,0.1,0.579,0.073,0.813-0.03
		c3.849-1.704,7.443-3.821,10.613-6.615c2.599-2.291,4.855-4.848,6.244-8.078c1.15-2.676,1.345-5.471,1.303-8.357
		C324.535,390.209,324.605,383.925,324.631,377.643z M314.987,406.164c-0.315,0.01-0.631,0.002-0.947,0.002
		c-1.494-0.017-1.072,0.171-2.132-0.885c-2.542-2.531-5.077-5.069-7.609-7.611c-0.167-0.167-0.301-0.217-0.542-0.151
		c-3.455,0.959-6.967-1.385-7.407-4.931c-0.389-3.135,1.777-6.068,4.847-6.564c3.181-0.513,6.103,1.474,6.772,4.611
		c0.161,0.757,0.149,1.518,0.024,2.282c-0.017,0.107,0.031,0.279,0.11,0.338c0.599,0.446,0.774,1.011,0.54,1.714
		c-0.024,0.071-0.006,0.157-0.032,0.226c-0.217,0.568-0.052,1.019,0.422,1.367c0.115,0.085,0.254,0.162,0.391,0.188
		c0.375,0.069,0.755,0.124,1.136,0.155c0.308,0.025,0.519,0.186,0.746,0.376c0.649,0.54,1.091,1.205,1.242,2.032
		c0.113,0.619,0.449,0.92,1.064,0.94c0.066,0.002,0.13,0.038,0.196,0.04c0.776,0.027,1.272,0.513,1.709,1.07
		c0.115,0.146,0.19,0.363,0.194,0.55c0.024,1.166,0.026,2.333,0.028,3.5C315.738,405.829,315.413,406.15,314.987,406.164z"/>
	<path fill="#223235" d="M300.843,388.544c-1.063-0.001-1.929,0.868-1.93,1.935c-0.001,1.074,0.856,1.931,1.926,1.929
		c1.071-0.002,1.931-0.859,1.934-1.928C302.776,389.42,301.904,388.545,300.843,388.544z"/>
</g>
</svg>
