<?xml version="1.0" encoding="utf-8"?>
<!-- Generator: Adobe Illustrator 17.0.0, SVG Export Plug-In . SVG Version: 6.00 Build 0)  -->
<!DOCTYPE svg PUBLIC "-//W3C//DTD SVG 1.1//EN" "http://www.w3.org/Graphics/SVG/1.1/DTD/svg11.dtd">
<svg version="1.1" id="Layer_1" xmlns="http://www.w3.org/2000/svg" xmlns:xlink="http://www.w3.org/1999/xlink" x="0px" y="0px"
	 width="210px" height="60px" viewBox="0 0 210 60" enable-background="new 0 0 210 60" xml:space="preserve">
<g id="PWaKVS.tif">
	<g>
		<path fill="#99ACC2" d="M82.477,29.955c0.071-12.563,10.127-22.543,22.625-22.454c12.522,0.089,22.492,10.127,22.42,22.574
			c-0.071,12.568-10.16,22.508-22.757,22.425C92.412,52.416,82.408,42.297,82.477,29.955z M98.201,18.104
			c0,4.188-0.002,8.265,0.005,12.34c0,0.259,0.07,0.519,0.111,0.777c0.567,3.499,3.913,6.138,7.386,5.826
			c3.912-0.352,6.733-3.478,6.609-7.324c-0.116-3.628-3.105-6.634-6.707-6.793c-1.408-0.062-2.581,0.417-3.74,1.598
			c0-2.321,0-4.366,0-6.424C100.591,18.104,99.44,18.104,98.201,18.104z M97.289,36.873c0-2.365,0.02-4.634-0.004-6.901
			c-0.049-4.578-4.132-7.818-8.62-6.86c-2.656,0.567-4.898,2.831-5.346,5.501c-0.505,3.006,0.47,5.467,2.976,7.225
			c2.366,1.661,4.562,1.579,7.255-0.174c0.035,0.41,0.068,0.795,0.104,1.21C94.862,36.873,96.015,36.873,97.289,36.873z
			 M126.851,28.444c-0.999-3.729-4.4-6.027-7.84-5.446c-3.728,0.63-6.38,3.84-6.082,7.362c0.325,3.844,3.255,6.656,6.987,6.705
			c3.3,0.043,6.551-2.551,6.844-5.537c-1.021,0-2.039-0.046-3.048,0.024c-0.371,0.025-0.825,0.238-1.065,0.518
			c-1.321,1.539-3.532,1.729-4.97,0.371c-1.401-1.324-1.396-3.608,0.013-4.917c1.455-1.352,3.657-1.162,4.958,0.417
			c0.158,0.192,0.367,0.474,0.562,0.481C124.391,28.466,125.576,28.444,126.851,28.444z"/>
		<path fill="#99ACC2" d="M105.329,26.622c1.827,0.043,3.323,1.582,3.303,3.397c-0.021,1.857-1.617,3.409-3.442,3.348
			c-1.843-0.062-3.328-1.593-3.3-3.4C101.917,28.094,103.479,26.578,105.329,26.622z"/>
		<path fill="#99ACC2" d="M93.603,29.969c0.015,1.86-1.529,3.409-3.384,3.396c-1.831-0.013-3.324-1.514-3.334-3.352
			c-0.01-1.841,1.458-3.355,3.289-3.393C92.033,26.583,93.588,28.101,93.603,29.969z"/>
	</g>
</g>
</svg>
