<?xml version="1.0" encoding="utf-8"?>
<!-- Generator: Adobe Illustrator 17.0.0, SVG Export Plug-In . SVG Version: 6.00 Build 0)  -->
<!DOCTYPE svg PUBLIC "-//W3C//DTD SVG 1.1//EN" "http://www.w3.org/Graphics/SVG/1.1/DTD/svg11.dtd">
<svg version="1.1" id="Layer_1" xmlns="http://www.w3.org/2000/svg" xmlns:xlink="http://www.w3.org/1999/xlink" x="0px" y="0px"
	 width="612px" height="792px" viewBox="0 0 612 792" enable-background="new 0 0 612 792" xml:space="preserve">
<linearGradient id="SVGID_1_" gradientUnits="userSpaceOnUse" x1="109.9408" y1="625.9408" x2="513.376" y2="222.5055">
	<stop  offset="0" style="stop-color:#FF541B"/>
	<stop  offset="1" style="stop-color:#FF587C"/>
</linearGradient>
<path fill="url(#SVGID_1_)" d="M602.238,449.097c1.945-3.968,0.481-8.097,0.575-12.153l0,0c-0.501-15.52-2.464-30.85-5.969-45.98
	c-4.568-23.502-11.793-46.167-21.454-68.064c-0.505-1.404-0.927-2.845-1.526-4.208c-19.001-43.241-43.796-82.835-75.187-118.155
	c-11.813-13.291-24.276-26.018-38.606-36.72c0,0,0,0,0,0c-15.525-13.282-32.415-24.459-50.985-33.043c0,0,0,0,0,0
	c-11.157-5.952-22.789-10.686-35.085-13.727c-4.976-1.347-9.723-3.573-14.967-3.891c0,0,0,0,0,0c0,0,0,0,0,0
	c-4.011-0.703-8.022-1.407-12.032-2.11c-5.244-1.26-10.568-1.836-15.955-1.867c-2.682-0.067-5.363-0.134-8.045-0.201
	c-3.667-0.411-7.334-0.433-11,0.01l0,0c-2.348,0.061-4.695,0.121-7.043,0.182c-2.119-0.088-4.261-0.381-6.238,0.728
	c-0.005,0.002-0.01,0.003-0.014,0.006c-8.146,0.186-16.112,1.483-23.924,3.733c-0.304,0.04-0.633,0.127-0.998,0.281
	c-7.215,1.018-14.139,3.087-20.887,5.789c0,0,0,0,0,0c-8.766,2.479-17.203,5.779-25.224,10.115c-0.001,0-0.001,0-0.002,0
	c-10.958,4.524-21.249,10.266-30.998,16.995c-6.721,3.769-13.137,7.985-19.013,12.992c-2.989,1.583-5.622,3.637-7.985,6.047
	c-2.835,0.915-4.457,3.365-6.567,5.197l0,0c-5.07,3.544-9.623,7.698-14.092,11.952c-2.087,1.97-4.174,3.941-6.26,5.911
	c-2.463,1.742-4.6,3.829-6.506,6.159h0c-5.209,4.44-10.04,9.255-14.429,14.511c0,0,0,0,0,0
	c-6.042,5.779-11.945,11.688-17.116,18.283c-4.384,3.954-7.974,8.619-11.75,13.118c-1.331,1.64-2.662,3.28-3.993,4.92
	c-2.99,3.109-5.795,6.369-8.135,10.006c-6.103,6.95-11.53,14.407-16.602,22.131c-4.607,5.987-8.811,12.24-12.485,18.845
	c-3.926,5.327-7.017,11.144-9.996,17.027c-1.626,3.011-3.252,6.022-4.878,9.032c-2.158,2.614-3.086,5.812-4.231,8.907c0,0,0,0,0,0
	c-1.711,3.197-3.784,6.259-3.748,10.104c-2.996,2.122-3.306,5.511-4.093,8.676h0c-3.989,8.775-6.621,17.979-8.669,27.369
	c-2.896,10.092-4.811,20.352-5.276,30.86c0.016,0.02,0.031,0.041,0.046,0.061c-1.082,1.909-0.802,3.987-0.731,6.039
	c-0.07,2.676-0.14,5.353-0.21,8.029c-0.014,0.895-0.029,1.789-0.043,2.684c-0.742,2.227-0.727,4.454-0.008,6.68
	c0.001,0.005,0.002,0.009,0.003,0.014c-0.44,2.556-0.218,5.096,0.178,7.632c0.037,1.345,0.075,2.69,0.112,4.035
	c-0.115,1.835-0.268,3.675,0.693,5.368c0.001,0.002,0.001,0.005,0.002,0.007c-0.006,2.966-0.239,5.958,1.033,8.774
	c-0.227,6.82,2.154,13.214,3.248,19.817c1.627,5.694,3.003,11.474,4.919,17.068c15.687,45.81,39.269,86.963,73.345,121.607
	c13.444,13.668,28.975,24.865,46.226,33.483c0,0,0,0,0,0c6.399,4.068,13.145,7.427,20.292,9.973
	c3.779,2.156,7.722,3.914,11.982,4.891c5.441,2.691,11.171,4.55,17.065,5.937c4.854,1.87,9.728,3.668,14.952,4.225l0,0
	c9.374,2.923,18.937,4.933,28.703,5.973c0,0,0,0,0,0c7.54,1.795,15.174,2.855,22.933,2.952c1.688,1.005,3.534,0.815,5.369,0.707
	c0,0,0,0,0,0c2.02,0.094,4.04,0.189,6.059,0.283c3.932,1.121,7.951,0.867,11.961,0.755l0,0c3.341,0.042,6.681,0.085,10.022,0.127
	c3.667-0.007,7.334-0.013,11-0.02c3.675-0.051,7.349-0.102,11.024-0.153c3.692,0.193,7.365,0.13,10.976-0.788
	c1.679-0.069,3.357-0.138,5.036-0.206c1.737,0.075,3.508,0.389,5.08-0.707c0.018,0.025,0.036,0.05,0.054,0.074
	c7.037-0.037,13.964-1.06,20.863-2.329c9.448-1.016,18.782-2.665,27.994-4.999c4.443-0.51,8.748-1.619,12.994-2.988
	c3.799-0.451,7.404-1.627,10.977-2.928c5.875-0.975,11.452-2.952,16.999-5.034c7.547-2.093,15.017-4.399,21.998-8.042
	c7.437-1.914,14.27-5.275,21.04-8.787c5.628-2.056,10.967-4.7,16.038-7.888l0,0c2.642-1.428,5.283-2.856,7.925-4.284v0l0,0
	c3.21-0.807,5.227-3.514,7.997-5.021c6.014-2.201,10.922-6.187,15.995-9.909c6.56-3.967,12.698-8.476,18.006-14.048
	c9.936-6.744,17.782-15.633,25.4-24.755c6.037-6.453,11.246-13.516,15.585-21.216c4.85-6.871,8.958-14.145,11.994-22.005
	c4.026-7.527,7.121-15.411,9.107-23.721c2.572-4.396,2.04-9.65,3.934-14.234c1.294-3.905,2.672-7.797,1.816-12.027
	c2.357-3.263,0.769-7.346,2.244-10.794c0,0,0,0,0,0c1.366-3.21,0.964-6.598,1-9.942c0.407-1.183,0.554-2.263,0.514-3.277
	C603.379,460.347,603.568,454.728,602.238,449.097z M335.645,242.716c0.119,0.027,0.238,0.049,0.356,0.078c0,0,0,0,0,0c0,0,0,0,0,0
	c-0.13,0-0.26,0-0.39,0C335.622,242.769,335.636,242.741,335.645,242.716z M281.985,260c-0.006-0.002-0.012-0.005-0.018-0.008
	c0.006-0.006,0.012-0.009,0.019-0.015C281.985,259.985,281.985,259.992,281.985,260z M258.924,304.029
	c0.02-0.023,0.047-0.046,0.067-0.069c0.002,0.024,0.007,0.046,0.009,0.069C258.975,304.029,258.95,304.029,258.924,304.029z
	 M240.902,564.287c-0.004-0.028-0.006-0.054-0.01-0.083c0.036,0,0.072,0.001,0.108,0.002c0,0,0,0,0,0c0,0,0,0,0,0
	C240.968,564.239,240.934,564.257,240.902,564.287z M383,304.029c0.01-0.059,0.005-0.111,0.013-0.169
	c0.042,0.056,0.083,0.114,0.125,0.17C383.092,304.029,383.046,304.029,383,304.029z M270,304.029
	c0.01-0.055,0.004-0.104,0.012-0.159c0.059,0.056,0.124,0.106,0.184,0.162C270.13,304.031,270.065,304.03,270,304.029z
	 M602.439,436.442c0.124,0.167,0.25,0.334,0.374,0.502C602.66,436.786,602.542,436.617,602.439,436.442z"/>
<g>
	<g>
		<path fill="#4B1322" d="M168.656,501.363c-9.101-11.662-9.022-23.203-0.075-34.728c-9.005-11.557-8.965-23.098,0.071-34.727
			c-5.838-6.852-8.07-14.634-5.948-23.472c2.527-10.523,10.501-16.835,21.32-16.842c23.936-0.013,47.871,0.04,71.806-0.092
			c1.812-0.01,3.972-0.841,5.371-2.009c14.062-11.738,30.048-18.79,48.351-20.449c5.031-0.456,5.028-0.494,9.265-6.171
			c-8.985-11.438-9.297-23.088-0.1-34.762c-8.965-11.541-9.045-23.082,0.063-34.754c-4.153-4.9-6.626-10.467-6.75-17.001
			c-0.203-10.685,7.353-23.772,23.111-23.497c30.662,0.535,61.341,0.297,92.01,0.072c9.221-0.068,16.234,3.107,20.483,11.308
			c4.577,8.836,4.023,17.601-1.409,25.989c-0.651,1.005-1.438,1.921-2.373,3.157c4.086,4.95,6.78,10.58,6.771,17.232
			c-0.01,6.544-2.318,12.199-6.809,17.355c4.109,5,6.796,10.623,6.815,17.272c0.019,6.672-2.481,12.371-6.745,17.389
			c9.081,11.648,9.046,23.191,0.075,34.733c8.991,11.542,8.986,23.085,0,34.627c8.976,11.542,9.002,23.085-0.001,34.642
			c8.964,11.528,9.018,23.07,0.63,33.826c2.054,5.117,4.596,9.575,5.616,14.357c2.525,11.84-5.222,24.04-16.254,26.433
			c-1.97,0.427-4.056,0.441-6.088,0.442c-80.824,0.021-161.648-0.041-242.471,0.098c-9.214,0.016-16.23-3.108-20.484-11.308
			c-4.511-8.695-4.044-17.361,1.205-25.689C166.816,503.682,167.681,502.671,168.656,501.363z M392.88,455.62
			c0.224-41.375-33.232-75.283-74.547-75.555c-41.659-0.275-75.287,32.815-75.561,74.35c-0.275,41.746,32.76,75.477,74.176,75.741
			C358.627,530.42,392.656,497.017,392.88,455.62z M381.419,264.565c-15.858,0-31.716-0.016-47.573,0.008
			c-6.207,0.009-10.178,4.457-10.242,11.358c-0.066,7.094,3.93,11.717,10.25,11.72c31.595,0.019,63.191,0.016,94.786,0.002
			c6.415-0.003,10.435-4.494,10.432-11.55c-0.003-7.064-4.013-11.526-10.441-11.533
			C412.894,264.553,397.156,264.565,381.419,264.565z M381.337,322.304c15.618,0,31.235,0.006,46.853-0.003
			c6.814-0.004,10.849-4.27,10.882-11.464c0.034-7.216-4.007-11.623-10.712-11.625c-31.355-0.008-62.71-0.008-94.065,0
			c-6.715,0.002-10.73,4.394-10.692,11.634c0.038,7.203,4.059,11.451,10.882,11.455C350.102,322.31,365.72,322.304,381.337,322.304z
			 M381.247,356.947c15.738,0,31.475,0.01,47.213-0.005c6.542-0.006,10.543-4.319,10.612-11.372
			c0.071-7.248-3.953-11.712-10.621-11.714c-31.355-0.01-62.71-0.008-94.065-0.001c-6.762,0.002-10.785,4.328-10.782,11.544
			c0.003,7.213,4.031,11.54,10.792,11.545C350.012,356.954,365.63,356.947,381.247,356.947z M273.684,530.164
			c-4.783-3.692-9.265-6.705-13.201-10.314c-4.056-3.718-7.551-8.043-11.372-12.026c-0.484-0.504-1.45-0.77-2.193-0.77
			c-21.392-0.023-42.787-0.116-64.175,0.185c-2.342,0.033-5.276,1.856-6.843,3.751c-3.123,3.776-3.137,8.443-1.405,12.982
			c1.596,4.182,4.61,6.16,9.152,6.186c4.447,0.026,8.894,0.006,13.34,0.006C222.343,530.164,247.698,530.164,273.684,530.164z
			 M331.173,368.495c-0.032,0.313-0.064,0.625-0.097,0.938c0.422,0.152,0.833,0.369,1.269,0.446
			c16,2.824,30.039,9.693,42.315,20.309c0.962,0.832,2.536,1.338,3.829,1.344c16.941,0.088,33.883,0.099,50.823-0.006
			c1.7-0.01,3.618-0.547,5.048-1.451c4.128-2.609,5.747-8.753,4.076-14.249c-1.577-5.186-4.63-7.329-10.482-7.33
			c-30.999-0.003-61.998-0.001-92.997-0.001C333.696,368.495,332.434,368.495,331.173,368.495z M247.47,403.286
			c0.127,0.055-0.076-0.111-0.28-0.111c-21.608-0.017-43.217-0.08-64.824,0.079c-1.819,0.013-3.979,1.131-5.375,2.401
			c-4.727,4.303-4.807,13.534-0.117,17.916c1.451,1.356,3.748,2.521,5.672,2.543c17.164,0.197,34.332,0.149,51.498,0.039
			c0.972-0.006,2.369-0.958,2.836-1.852C240.476,417.421,243.89,410.448,247.47,403.286z M361.351,529.819
			c1.02,0.208,1.342,0.331,1.664,0.331c22.232,0.01,44.464,0.006,66.696,0.017c3.505,0.002,5.969-1.776,7.572-4.672
			c2.511-4.536,2.512-9.229,0.001-13.765c-1.603-2.895-4.061-4.671-7.572-4.666c-13.58,0.018-27.159-0.022-40.738,0.062
			c-1.033,0.006-2.42,0.519-3.035,1.284C379.169,516.837,371.166,523.834,361.351,529.819z M240.462,495.521
			c-2.342-6.839-4.818-13.431-6.79-20.17c-0.684-2.335-1.506-2.989-3.823-2.975c-15.371,0.095-30.743,0.033-46.114,0.057
			c-6.211,0.01-10.183,4.445-10.253,11.342c-0.072,7.091,3.925,11.726,10.227,11.737c15.251,0.027,30.503,0.009,45.754,0.009
			C233.168,495.521,236.873,495.521,240.462,495.521z M230.859,460.877c0.531-7.948,1.026-15.345,1.531-22.896
			c-0.639-0.056-1.458-0.19-2.278-0.19c-15.612-0.012-31.224-0.039-46.835,0.006c-5.851,0.017-9.762,4.666-9.795,11.431
			c-0.034,6.923,3.926,11.6,9.964,11.636c7.806,0.048,15.612,0.012,23.418,0.012C214.885,460.877,222.906,460.877,230.859,460.877z
			 M399.682,426.233c9.354,0,19.318,0.027,29.282-0.01c6.114-0.023,10.099-4.614,10.108-11.518
			c0.008-6.918-3.966-11.539-10.059-11.557c-12.138-0.036-24.277-0.011-36.416-0.011c-1.752,0-3.504,0-5.24,0
			C391.49,410.882,395.467,418.334,399.682,426.233z M395.235,495.512c11.54,0,23.186,0.017,34.831-0.011
			c3.189-0.008,5.495-1.719,7.022-4.338c2.766-4.741,2.77-9.626,0.013-14.371c-1.521-2.619-3.816-4.338-7.012-4.35
			c-8.409-0.031-16.818-0.053-25.226,0.045c-0.835,0.01-2.176,0.686-2.411,1.357C399.977,480.937,397.677,488.091,395.235,495.512z
			 M404.793,460.831c8.624,0,17.374,0.256,26.087-0.186c2.092-0.106,4.679-2.105,5.973-3.971c3.204-4.622,3.227-9.858,0.111-14.531
			c-1.264-1.896-3.823-4.016-5.88-4.11c-9.543-0.434-19.116-0.192-28.566-0.192C403.281,445.55,404.01,452.923,404.793,460.831z"/>
	</g>
	<g>
		<path fill="#4B1322" d="M312.436,506.856c0-5.19,0-10.142,0-15.393c-8.391-0.929-16.011-3.384-22.276-9.685
			c2.355-2.6,4.653-5.137,7.093-7.831c5.992,5.414,12.811,7.821,20.689,6.934c6.686-0.752,10.417-4.962,10.082-11.298
			c-0.182-3.454-1.988-5.868-4.957-7.232c-3.506-1.61-7.213-2.775-10.776-4.269c-3.561-1.494-7.25-2.826-10.535-4.807
			c-12.055-7.269-11.941-24.148,0.226-31.242c3.03-1.766,6.568-2.661,10.368-4.151c0-4.46,0-9.48,0-14.669c3.57,0,6.787,0,10.264,0
			c0,5.1,0,10.035,0,15.178c6.647,1.184,12.518,3.581,17.308,8.545c-2.213,2.488-4.381,4.927-5.979,6.723
			c-4.827-1.805-9.1-3.839-13.603-4.918c-2.535-0.607-5.527,0.041-8.169,0.701c-3.141,0.786-5.001,3.115-5.335,6.454
			c-0.34,3.409,0.815,6.223,3.977,7.643c4.153,1.865,8.478,3.344,12.713,5.031c2.395,0.953,4.811,1.876,7.123,3.007
			c8.797,4.302,12.223,11.554,11.13,21.056c-1.042,9.064-6.566,14.608-14.953,17.004c-3.55,1.014-4.476,2.473-4.227,5.833
			c0.276,3.727,0.063,7.49,0.063,11.386C319.172,506.856,316.03,506.856,312.436,506.856z"/>
	</g>
</g>
</svg>
