<?xml version="1.0" encoding="utf-8"?>
<!-- Generator: Adobe Illustrator 17.0.0, SVG Export Plug-In . SVG Version: 6.00 Build 0)  -->
<!DOCTYPE svg PUBLIC "-//W3C//DTD SVG 1.1//EN" "http://www.w3.org/Graphics/SVG/1.1/DTD/svg11.dtd">
<svg version="1.1" id="Layer_1" xmlns="http://www.w3.org/2000/svg" xmlns:xlink="http://www.w3.org/1999/xlink" x="0px" y="0px"
	 width="143px" height="150px" viewBox="0 0 143 150" enable-background="new 0 0 143 150" xml:space="preserve">
<g>
	<path fill="#70A7D7" d="M136.422,62.097c0.962,0.766,2.006,1.392,3.156,1.836c0.311,0.19,0.621,0.38,0.932,0.57
		c0.476,0.676,1.607,0.549,1.85,1.51c-0.376,0.143-0.777,0.242-1.124,0.436c-6.119,3.434-12.206,6.925-18.29,10.417
		c-8.855,5.082-17.663,10.245-26.566,15.245c-4.868,2.734-9.687,5.563-14.502,8.384c-6.794,3.981-13.716,7.742-20.425,11.868
		c-0.282-0.113-0.583-0.193-0.843-0.342c-8.112-4.667-16.218-9.345-24.329-14.014c-9.347-5.38-18.71-10.734-28.04-16.144
		c-2.445-1.418-4.986-2.696-7.19-4.504c2.904-2.077,6.117-3.639,9.154-5.493c0.522-0.319,1.053-0.623,1.58-0.934
		c0.11,0.003,0.22,0.006,0.331,0.009c0.086,0.095,0.172,0.189,0.258,0.284c-0.015,0.819-0.03,1.638-0.046,2.457
		c0.007,0.204,0.014,0.408,0.02,0.612c-0.005,0.407,0.04,0.822-0.024,1.22c-0.243,1.516,0.381,2.348,1.758,3.085
		c3.539,1.894,6.94,4.043,10.437,6.018c3.624,2.046,7.104,4.348,10.869,6.144c2.024-1.101,4.047-2.201,6.071-3.302
		c0.426,0.488,1.039,0.662,1.588,0.944c0.947,0.66,1.865,1.373,3.023,1.645c0.021,0.406,0.052,0.811,0.062,1.217
		c0.096,3.949,1.561,5.575,5.473,6.352c2.366,0.469,4.639,0.142,6.926-0.376c2.156,1.851,2.722,1.939,4.45,0.694
		c1.34-0.493,2.515-1.278,3.68-2.08c3.662-1.919,7.262-3.944,10.713-6.224c1.366-0.445,2.524-1.26,3.691-2.062
		c3.667-1.906,7.26-3.94,10.714-6.216c1.366-0.447,2.526-1.261,3.691-2.066c3.662-1.914,7.284-3.896,10.714-6.211
		c1.348-0.48,2.558-1.207,3.693-2.069c3.647-1.937,7.259-3.935,10.712-6.208c1.324-0.515,2.527-1.245,3.67-2.079
		c0.492-0.243,0.985-0.487,1.477-0.73c1.795-0.886,3.368-2.192,5.306-2.809c0.607,0.32,1.213,0.64,1.819,0.959
		c0.99,0.597,1.92,1.305,3.041,1.661C136.076,61.897,136.249,61.997,136.422,62.097z"/>
	<path fill="#CAC3E0" d="M139.63,77.07c-0.014,1.226-0.028,2.453-0.042,3.679c-6.529,3.777-13.054,7.56-19.587,11.329
		c-13.641,7.87-27.283,15.738-40.931,23.596c-5.872,3.381-11.759,6.736-17.64,10.103c0-2.24,0.001-4.48,0.001-6.72
		c-0.005-0.414-0.01-0.828-0.015-1.242c-0.002-0.687-0.004-1.375-0.006-2.062c0.12-0.099,0.24-0.199,0.359-0.298
		c20.512-11.796,41.02-23.597,61.537-35.385c5.392-3.098,10.808-6.157,16.213-9.234c0.029,1.664,0.057,3.328,0.086,4.993
		C139.612,76.244,139.621,76.657,139.63,77.07z"/>
	<path fill="#3D6EB3" d="M1.051,77.359c2.204,1.808,4.745,3.086,7.19,4.504c9.33,5.41,18.693,10.764,28.04,16.144
		c8.111,4.669,16.217,9.347,24.329,14.014c0.261,0.15,0.561,0.23,0.843,0.342c-0.011,0.199-0.022,0.398-0.033,0.597
		c-0.407,0.693-0.413,1.385,0.004,2.076c0.014,0.101,0.021,0.203,0.022,0.305c-0.129,0.062-0.259,0.123-0.388,0.185
		c-0.581-0.277-1.162-0.555-1.743-0.832c-0.312-0.186-0.623-0.373-0.935-0.559c-0.844-0.619-1.719-1.186-2.707-1.555
		c-0.431-0.267-0.863-0.534-1.294-0.802c-0.993-0.596-1.935-1.286-3.038-1.683c-0.236-0.31-0.541-0.505-0.929-0.562
		c-0.858-0.624-1.741-1.204-2.748-1.567c-0.313-0.187-0.625-0.373-0.938-0.56c-0.839-0.633-1.74-1.16-2.713-1.561
		c-0.427-0.266-0.855-0.532-1.282-0.798c-0.998-0.588-1.933-1.29-3.042-1.674c-0.31-0.19-0.619-0.38-0.929-0.57
		c-0.857-0.624-1.754-1.179-2.748-1.564c-0.314-0.187-0.627-0.374-0.941-0.561c-0.837-0.643-1.745-1.162-2.719-1.567
		c-0.399-0.235-0.797-0.469-1.196-0.704c-0.984-0.685-1.997-1.319-3.117-1.763c-0.236-0.311-0.564-0.473-0.931-0.572
		c-0.855-0.627-1.755-1.176-2.748-1.561c-0.23-0.134-0.46-0.267-0.69-0.401c-0.918-0.706-1.922-1.264-2.976-1.735
		c-0.398-0.231-0.796-0.462-1.193-0.693c-2.209-1.396-4.442-2.749-6.791-3.902c-0.236-0.135-0.471-0.27-0.707-0.406
		c-0.913-0.71-1.916-1.267-2.971-1.734c-0.876-0.586-1.692-1.281-2.759-1.52c-0.876-0.551-1.752-1.103-2.804-1.764
		c0,3.48,0,6.736,0,9.993c-0.649,0.555-1.605,0.756-2.127,1.752c0.839,0.058,1.488,0.102,2.138,0.147
		c0.118,1.817,0.904,2.588,3.092,3.035l0.016,0.005c0.127,0.455,0.545,0.57,0.893,0.772c7.937,4.584,15.872,9.171,23.809,13.755
		c10.054,5.806,20.109,11.61,30.163,17.415c0.127,1.003-0.35,2.069,0.316,3.015c-0.415,0.53-0.755-0.118-1.139-0.072
		c-0.447-0.269-0.893-0.538-1.34-0.806c-1.008-0.578-2.017-1.156-3.025-1.733c-0.155-0.082-0.309-0.165-0.464-0.248
		c-1.005-0.734-2.073-1.358-3.213-1.858c-0.312-0.18-0.625-0.359-0.937-0.539c-0.83-0.63-1.716-1.162-2.685-1.55
		c-0.441-0.268-0.882-0.535-1.323-0.803c-1.01-0.571-2.02-1.142-3.03-1.713c-0.16-0.09-0.321-0.18-0.481-0.27
		c-1.001-0.727-2.054-1.365-3.196-1.849c-0.313-0.182-0.625-0.364-0.938-0.545c-0.833-0.632-1.727-1.158-2.696-1.554
		c-0.436-0.267-0.871-0.534-1.307-0.801c-1.011-0.567-2.023-1.133-3.034-1.7c-0.166-0.094-0.333-0.188-0.499-0.282
		c-0.987-0.738-2.044-1.357-3.179-1.84c-0.313-0.185-0.625-0.37-0.938-0.554c-0.838-0.631-1.731-1.164-2.706-1.557
		c-0.401-0.246-0.801-0.493-1.202-0.739c-1.043-0.583-2.086-1.166-3.129-1.749c-0.246-0.293-0.558-0.476-0.931-0.557
		c-0.854-0.631-1.753-1.184-2.747-1.57c-0.213-0.128-0.427-0.257-0.64-0.385c-0.943-0.683-1.937-1.28-3.012-1.735
		c-0.399-0.242-0.799-0.485-1.198-0.727c-1-0.655-1.999-1.314-3.124-1.747c-0.239-0.306-0.557-0.483-0.931-0.568
		c-0.858-0.623-1.751-1.185-2.747-1.565c-0.217-0.131-0.435-0.263-0.652-0.394c-1.011-0.776-2.16-1.306-3.298-1.856
		c-0.313-0.175-0.626-0.35-0.938-0.525c-0.9-1.091-0.329-2.416-0.572-3.611c0.074-0.004,0.132-0.036,0.173-0.098
		c0.039-0.006,0.078-0.013,0.116-0.019c-0.033-0.047-0.067-0.095-0.1-0.142c-0.036-0.433-0.072-0.866-0.108-1.299
		c0.161-1.524,0.128-3.049,0.022-4.574c-0.007-0.519-0.014-1.038-0.022-1.556c0.161-1.524,0.128-3.049,0.022-4.574
		c0.075-0.427,0.188-0.857-0.109-1.252C0.843,79.628-0.003,78.34,1.051,77.359z"/>
	<path fill="#086938" d="M50.104,32.533c0.798,0.448,1.595,0.896,2.393,1.345c1.388,0.919,2.805,1.788,4.323,2.481
		c0.246,0.299,0.564,0.475,0.942,0.55c0.835,0.637,1.733,1.165,2.707,1.561c0.428,0.263,0.856,0.527,1.285,0.79
		c1.012,0.565,2.024,1.13,3.037,1.696c2.564,1.529,5.128,3.058,7.692,4.587c-0.054,0.629-0.631,0.785-1.033,1.024
		c-2.183,1.298-4.399,2.538-6.599,3.807c-7.654,4.416-15.294,8.859-22.968,13.241c-2.233,1.275-4.317,2.843-6.804,3.648
		c-5.244-3.032-10.47-6.095-15.739-9.081c-2.293-1.3-4.468-2.821-6.926-3.823c1.32-1.336,3.112-1.933,4.633-2.954
		c0.494-0.332,0.998-0.65,1.497-0.974c1.289-0.57,2.504-1.269,3.655-2.082c3.752-2.045,7.458-4.169,11.085-6.428
		c1.225-0.695,2.45-1.391,3.675-2.086c3.602-2.027,7.223-4.02,10.705-6.252C48.556,33.417,49.142,32.537,50.104,32.533z
		 M63.31,48.027c-1.951-1.781-2.005-2.134-0.436-3.996c0.622-0.738-0.129-0.752-0.408-0.915c-2.635-1.549-5.297-3.051-7.933-4.599
		c-0.683-0.401-1.272-0.421-2.004-0.084c-1.801,0.828-3.664,0.835-5.471,0.015c-0.736-0.334-1.277-0.266-1.976,0.143
		c-5.06,2.953-10.157,5.844-15.233,8.77c-2.625,1.514-5.231,3.06-7.955,4.656c0.947,0.637,1.583,1.199,1.602,2.289
		c0.02,1.107-0.935,1.442-1.56,2.13c3.082,1.788,6.035,3.489,8.972,5.217c0.551,0.325,1.008,0.278,1.563,0.01
		c1.856-0.896,3.787-0.811,5.625-0.049c0.84,0.348,1.379,0.219,2.092-0.203c3.553-2.099,7.138-4.143,10.711-6.207
		C54.993,52.837,59.086,50.47,63.31,48.027z"/>
	<path fill="#5A84C1" d="M61.43,125.777c5.88-3.367,11.768-6.721,17.64-10.102c13.648-7.858,27.29-15.726,40.931-23.596
		c6.533-3.769,13.059-7.553,19.587-11.329c0.272,0.121,0.544,0.241,0.816,0.361c0.448,0.268,0.895,0.537,1.342,0.806
		c0.197,0.223,0.553,0.308,0.587,0.673c-0.614,0.361-1.226,0.726-1.843,1.082c-6.527,3.764-13.057,7.523-19.581,11.291
		c-8.025,4.635-16.044,9.281-24.07,13.915c-8.379,4.838-16.755,9.68-25.147,14.496c-3.263,1.873-6.437,3.908-9.851,5.513
		c-0.821-0.929-0.218-2.037-0.384-3.048L61.43,125.777z"/>
	<path fill="#305BA8" d="M61.446,115.341c-0.001-0.102-0.009-0.204-0.022-0.305c-0.001-0.692-0.003-1.384-0.004-2.076
		c0.011-0.199,0.022-0.398,0.033-0.597c6.709-4.126,13.631-7.887,20.425-11.868c4.815-2.821,9.634-5.65,14.502-8.384
		c8.903-5,17.711-10.163,26.566-15.245c6.084-3.492,12.171-6.983,18.29-10.417c0.347-0.195,0.748-0.293,1.124-0.436
		c0.035,0.206,0.071,0.413,0.106,0.619c0.011,0.517,0.021,1.034,0.032,1.552c0.049,1.026-0.792,1.282-1.458,1.693
		c-0.511,0.315-1.015,0.641-1.522,0.962c-5.405,3.077-10.82,6.135-16.213,9.234c-20.516,11.788-41.025,23.589-61.537,35.384
		C61.662,115.417,61.554,115.379,61.446,115.341z"/>
	<path fill="#305BA8" d="M61.841,128.887c3.413-1.605,6.587-3.64,9.85-5.513c8.392-4.815,16.768-9.658,25.147-14.496
		c8.026-4.634,16.045-9.28,24.07-13.915c6.525-3.768,13.054-7.527,19.581-11.291c0.617-0.356,1.229-0.721,1.843-1.082
		c0.045,0.811,0.091,1.621,0.136,2.432c-0.226,1.493-1.828,1.396-2.604,2.253c-3.576,2.083-7.151,4.166-10.727,6.248
		c-1.225,0.69-2.45,1.38-3.675,2.07c-3.602,2.03-7.23,4.015-10.711,6.251c-1.287,0.554-2.481,1.274-3.644,2.049
		c-3.702,2.143-7.404,4.287-11.106,6.431c-1.22,0.696-2.44,1.391-3.66,2.087c-3.575,2.083-7.15,4.167-10.725,6.25
		c-1.226,0.691-2.453,1.383-3.679,2.074c-3.604,2.023-7.226,4.014-10.707,6.247c-1.287,0.559-2.49,1.269-3.649,2.057
		c-1.939,1.068-3.877,2.137-5.816,3.205c-0.666-0.946-0.189-2.012-0.316-3.015C61.581,129.115,61.711,129.001,61.841,128.887z"/>
	<path fill="#D6E5F4" d="M129.482,44.878c0.816,0.518,1.633,1.035,2.449,1.552c-0.005,0.652-0.53,0.962-0.915,1.351
		c-1.833,1.851-3.656,3.712-5.528,5.522c-1.978,1.913-3.762,4.028-5.933,5.74c-0.153-0.037-0.307-0.074-0.461-0.112
		c-0.735-0.485-1.471-0.97-2.31-1.524c0.622-0.399,1.064-0.743,1.556-0.987c1.082-0.537,1.263-0.893,0.026-1.59
		c-5.138-2.896-10.235-5.865-15.317-8.856c-0.809-0.476-1.407-0.489-2.208-0.001c-1.952,1.19-3.966,2.278-5.956,3.408
		c-0.132-0.789,0.482-1.159,0.917-1.628c1.811-1.951,3.913-3.624,5.525-5.765c6.21,3.578,12.424,7.149,18.627,10.738
		c2.451,1.418,2.441,1.437,4.93-0.427c-0.639-0.437-1.258-0.859-1.876-1.281c2.207-1.896,4.233-3.973,6.168-6.143l0.153,0.001
		L129.482,44.878z"/>
	<path fill="#D6E5F4" d="M106.179,31.399c0.906,0.746,1.826,1.464,3.069,1.539c0.175,0.393,0.48,0.594,0.908,0.614
		c0.558,0.967,1.916,0.843,2.473,1.812c-0.396,0.45-0.785,0.908-1.191,1.35c-1.525,1.663-3.332,3.057-4.668,4.9
		c-3.634-1.958-7.237-3.971-10.705-6.217c1.431-1.487,2.882-2.955,4.283-4.469c0.565-0.611,1.424-1.011,1.542-1.976
		c0.102-0.004,0.204-0.007,0.306-0.009c0.824,0.945,2.001,1.298,3.069,1.834C105.571,30.985,105.875,31.192,106.179,31.399z"/>
	<path fill="#D6E5F4" d="M94.533,24.656c0.928,0.762,1.915,1.423,3.063,1.813c0.311,0.209,0.622,0.417,0.933,0.625
		c0.86,0.442,1.746,0.841,2.453,1.528c-0.396,0.449-0.783,0.906-1.188,1.346c-1.525,1.656-3.316,3.059-4.665,4.884
		c-3.655-1.921-7.195-4.041-10.705-6.211c1.43-1.483,2.881-2.947,4.281-4.459c0.564-0.609,1.421-1.01,1.54-1.972
		c0.102-0.004,0.203-0.007,0.305-0.009c0.822,0.949,2.005,1.294,3.071,1.837C93.924,24.244,94.228,24.45,94.533,24.656z"/>
	<path fill="#D6E5F4" d="M120.589,64.795c-3.453,2.273-7.065,4.271-10.712,6.208c-0.029-0.84,0.714-1.158,1.144-1.686
		c1.191-1.461,2.965-2.406,3.741-4.234c1.696-1.019,3.373-2.073,5.098-3.041c0.873-0.49,1.329-1.072,1.011-2.086
		c0.034-0.761,0.652-1.126,1.105-1.587c3.719-3.784,7.449-7.558,11.176-11.334c0,0,0.151-0.001,0.151-0.001l0.151,0.003
		c0.672,0.811,1.849,0.932,2.471,1.81c-0.366,0.421-0.71,0.866-1.103,1.26c-4.401,4.412-8.813,8.814-13.211,13.228
		C121.191,63.755,120.611,64.086,120.589,64.795z"/>
	<path fill="#D6E5F4" d="M60.468,38.469c-0.974-0.396-1.872-0.924-2.707-1.561c3.65-3.701,7.304-7.399,10.946-11.108
		c0.416-0.424,1.001-0.752,1.005-1.466c0.821-0.995,2.261-1.089,3.067-2.107c2.05-0.685,3.697-2.11,5.604-3.06
		c0.678-0.338,1.281-0.829,2.056-0.958c-0.005,0.712-0.586,1.041-1.004,1.46c-3.517,3.534-7.049,7.052-10.566,10.585
		c-0.417,0.419-1,0.749-0.989,1.466c-0.545,0.379-0.63,0.66,0.068,1.023c0.938,0.488,1.817,1.089,2.721,1.641
		c-0.333,0.882-1.493,1.183-1.575,2.242c-0.889-0.479-1.89-0.824-2.643-1.463c-1.777-1.508-3.264-0.975-4.746,0.407
		c0.164,0.548,0.827,0.542,1.103,0.967C62.029,37.182,61.249,37.826,60.468,38.469z"/>
	<path fill="#55B649" d="M12.411,54.358c2.458,1.002,4.633,2.523,6.926,3.823c5.269,2.987,10.496,6.049,15.739,9.081
		c0.573,0.883,0.154,1.905,0.4,2.834c-0.027,0.076-0.053,0.153-0.079,0.229c-0.241-0.072-0.507-0.101-0.719-0.224
		c-4.829-2.785-9.627-5.624-14.484-8.357c-2.644-1.488-5.11-3.304-7.976-4.39C12.282,56.356,12.347,55.357,12.411,54.358z"/>
	<path fill="#D6E5F4" d="M131.042,59.177c-1.938,0.617-3.51,1.923-5.306,2.809c-0.492,0.243-0.985,0.486-1.477,0.729
		c-0.007-0.713,0.558-1.058,0.978-1.48c3.525-3.537,7.062-7.062,10.584-10.601c0.418-0.42,1-0.749,1.013-1.46
		c0.205,0.101,0.409,0.201,0.614,0.302c0.92,0.507,1.84,1.014,2.759,1.522c0.211,0.36,0.569,0.31,0.905,0.324
		c0.215,0.48,0.667,0.742,1.112,1.085c-2.207,1.483-4.579,2.531-6.613,4.119C133.993,57.246,132.299,57.835,131.042,59.177z"/>
	<path fill="#D6E5F4" d="M82.593,17.9c1.017,0.516,2.033,1.033,3.05,1.549c0.005,0.098,0.009,0.196,0.012,0.294
		c-1.629,1.578-3.264,3.151-4.884,4.739c-0.424,0.415-0.965,0.771-0.962,1.472c-1.653-0.887-2.482,0.624-3.815,1.15
		c0.484,0.37,0.797,0.609,1.111,0.849c-0.5,0.562-1.024,1.105-1.494,1.691c-0.741,0.925-1.978,1.448-2.244,2.758
		c-1.012-0.567-2.023-1.134-3.035-1.7c0.058-0.692,0.64-1.009,1.054-1.431C75.114,25.474,78.855,21.689,82.593,17.9z"/>
	<path fill="#D6E5F4" d="M54.694,32.621c1.021-0.324,2.037-0.655,2.76-1.52c0.252-0.017,0.484-0.072,0.618-0.319
		c0,0-0.003,0.004-0.003,0.004c2.321-1.013,4.376-2.5,6.594-3.698c0.445-0.24,0.845-0.561,1.374-0.599
		c-0.012,0.71-0.6,1.031-1.01,1.461c-2.701,2.835-5.658,5.422-8.207,8.406c-1.518-0.692-2.935-1.562-4.323-2.481
		C53.329,33.633,54.162,33.389,54.694,32.621z"/>
	<path fill="#D6E5F4" d="M6.886,67.865c-0.689-0.963-1.954-1.064-2.763-1.848c1.292-1.34,2.608-2.658,3.87-4.025
		c1.292-1.4,2.885-2.521,3.888-4.188c0.549,0.236,0.238,0.833,0.5,1.19c-0.022,0.493-0.045,0.985-0.067,1.478
		c-0.284,0.335-0.1,0.645,0.051,0.957c-0.041,0.51-0.082,1.02-0.123,1.53c-2.173,1.128-3.726,2.895-5.049,4.899
		C7.09,67.859,6.988,67.862,6.886,67.865z"/>
	<path fill="#D6E5F4" d="M125.187,42.434c0.103-0.002,0.206-0.004,0.308-0.006c0.747,0.872,1.945,1.073,2.756,1.849
		c-1.966,2.174-3.984,4.295-6.238,6.178c-0.956-0.399-1.845-0.913-2.663-1.549c1.259-1.66,2.907-2.949,4.291-4.488
		C124.2,43.797,125.068,43.402,125.187,42.434z"/>
	<path fill="#D6E5F4" d="M117.528,38.135c0.102,0.001,0.204,0.001,0.305,0.001c0.817,0.518,1.633,1.035,2.45,1.553
		c-1.034,2.017-3.001,3.186-4.417,4.857c-0.445,0.525-1.126,0.89-1.139,1.703c-1.006-0.58-2.013-1.16-3.019-1.74
		c0.032-0.642,0.563-0.941,0.941-1.334C114.268,41.487,115.901,39.814,117.528,38.135z"/>
	<path fill="#D6E5F4" d="M121.517,40.585c0.102-0.001,0.204-0.004,0.306-0.009c0.8,0.538,1.855,0.667,2.453,1.53
		c-0.433,0.487-0.861,0.979-1.3,1.461c-1.49,1.634-3.275,2.987-4.565,4.811c-1.073-0.625-2.146-1.25-3.219-1.876
		c0.603-0.218,0.964-0.733,1.4-1.153C118.238,43.766,119.876,42.174,121.517,40.585z"/>
	<path fill="#D6E5F4" d="M113.539,35.693c0.102-0.003,0.204-0.006,0.306-0.008c0.689,0.962,1.953,1.065,2.763,1.847
		c-1.964,2.169-3.981,4.285-6.227,6.17c-0.96-0.399-1.848-0.919-2.673-1.55c1.265-1.651,2.904-2.943,4.288-4.479
		C112.554,37.054,113.42,36.66,113.539,35.693z"/>
	<path fill="#D6E5F4" d="M86.572,20.358c0.103-0.002,0.206-0.005,0.309-0.007c0.857,0.447,1.748,0.84,2.453,1.53
		c-0.366,0.42-0.722,0.849-1.1,1.257c-1.554,1.678-3.358,3.117-4.747,4.954c-0.987-0.405-1.898-0.941-2.746-1.586
		C82.254,24.048,84.538,22.322,86.572,20.358z"/>
	<path fill="#D6E5F4" d="M136.835,49.175c-0.013,0.711-0.595,1.039-1.013,1.46c-3.522,3.54-7.06,7.064-10.584,10.601
		c-0.421,0.422-0.985,0.767-0.978,1.48c-1.144,0.835-2.346,1.565-3.67,2.08c0.022-0.709,0.602-1.04,1.022-1.461
		c4.399-4.414,8.81-8.816,13.211-13.228c0.393-0.394,0.736-0.839,1.103-1.26c0.202,0.002,0.403,0.004,0.605,0.006
		C136.631,48.96,136.733,49.067,136.835,49.175z"/>
	<path fill="#D6E5F4" d="M82.593,17.9c-3.737,3.788-7.478,7.573-11.206,11.371c-0.414,0.422-0.996,0.74-1.054,1.431
		c-0.949,0.021-1.557,0.865-2.45,1.019c-0.012-0.717,0.572-1.047,0.989-1.466c3.517-3.534,7.049-7.052,10.566-10.585
		c0.417-0.419,0.999-0.748,1.004-1.46C81.052,17.37,81.788,17.398,82.593,17.9z"/>
	<path fill="#D6E5F4" d="M132.543,46.436c0.203,0.199,0.406,0.399,0.609,0.598c-3.727,3.777-7.457,7.55-11.176,11.334
		c-0.454,0.462-1.071,0.826-1.105,1.587c-0.438-0.304-0.877-0.608-1.315-0.912c2.171-1.713,3.955-3.827,5.933-5.74
		c1.872-1.811,3.695-3.672,5.528-5.522c0.385-0.388,0.91-0.699,0.915-1.351C132.135,46.433,132.339,46.434,132.543,46.436z"/>
	<path fill="#D6E5F4" d="M56.82,36.358c2.549-2.985,5.505-5.571,8.207-8.406c0.41-0.43,0.998-0.751,1.01-1.461
		c0.914-0.868,2.238-1.149,3.066-2.141c0.203-0.005,0.407-0.009,0.61-0.014c-0.004,0.714-0.588,1.042-1.005,1.466
		c-3.643,3.709-7.296,7.407-10.946,11.108C57.384,36.833,57.066,36.657,56.82,36.358z"/>
	<path fill="#3C9A46" d="M12.381,58.993c-0.262-0.357,0.049-0.954-0.5-1.189c0,0.001,0.001-0.016,0.001-0.016
		c0.112-0.145,0.224-0.289,0.336-0.434c2.866,1.085,5.332,2.902,7.976,4.39c4.858,2.733,9.656,5.572,14.484,8.357
		c0.212,0.122,0.478,0.151,0.719,0.224c-0.014,0.208-0.027,0.416-0.041,0.624c-0.248-0.043-0.535-0.019-0.74-0.137
		c-4.708-2.713-9.405-5.444-14.107-8.165c-2.373-1.373-4.751-2.74-7.135-4.095C12.889,58.276,12.275,57.866,12.381,58.993z"/>
	<path fill="#D6E5F4" d="M12.116,70.94c-0.11-0.003-0.22-0.006-0.331-0.009c-0.884-1.376-2.598-1.638-3.683-2.745
		c1.251-1.339,2.277-2.922,4.034-3.711c0.062,0.02,0.126,0.034,0.191,0.042c-0.021,0.902-0.043,1.804-0.063,2.705
		c0.027,0.213,0.053,0.425,0.079,0.637c-0.013,0.803-0.026,1.606-0.04,2.409C12.241,70.493,12.178,70.716,12.116,70.94z"/>
	<path fill="#CEDCEB" d="M3.817,66.024c-0.205-0.203-0.409-0.405-0.614-0.608c0.797-0.848,1.63-1.665,2.381-2.552
		c0.839-0.989,2.118-1.604,2.528-2.957c1.25-0.716,2.25-1.879,3.769-2.118c0-0.001-0.001,0.016-0.001,0.015
		c-1.003,1.666-2.596,2.788-3.888,4.187c-1.262,1.368-2.578,2.686-3.87,4.025C4.021,66.022,3.919,66.024,3.817,66.024z"/>
	<path fill="#D6E5F4" d="M8.113,59.907c-0.41,1.353-1.69,1.968-2.528,2.957C4.833,63.751,4,64.568,3.203,65.416
		c0,0-0.153-0.001-0.153-0.001s-0.153,0-0.153,0c-0.638-0.398-1.275-0.796-2.121-1.323C3.261,62.585,5.575,61.061,8.113,59.907z"/>
	<path fill="#D6E5F4" d="M110.381,43.703c2.246-1.885,4.263-4.001,6.227-6.17c0.102-0.005,0.204-0.008,0.306-0.009
		c0.205,0.204,0.409,0.407,0.614,0.611c-1.628,1.678-3.26,3.352-4.879,5.039c-0.378,0.394-0.909,0.692-0.941,1.334
		C111.266,44.24,110.824,43.971,110.381,43.703z"/>
	<path fill="#D6E5F4" d="M121.517,40.585c-1.641,1.589-3.279,3.181-4.925,4.765c-0.436,0.419-0.797,0.935-1.4,1.153
		c-0.155-0.085-0.309-0.169-0.464-0.254c0.013-0.813,0.694-1.178,1.139-1.703c1.415-1.671,3.383-2.84,4.417-4.857
		c0.204,0.002,0.408,0.004,0.613,0.006C121.103,39.992,121.31,40.289,121.517,40.585z"/>
	<path fill="#D6E5F4" d="M122.013,50.456c2.254-1.883,4.272-4.004,6.238-6.178c0.103-0.004,0.207-0.009,0.31-0.013
		c0.205,0.204,0.41,0.409,0.615,0.613c-1.934,2.17-3.961,4.247-6.168,6.143C122.61,50.948,122.286,50.747,122.013,50.456z"/>
	<path fill="#D6E5F4" d="M118.411,48.379c1.29-1.824,3.075-3.177,4.565-4.812c0.439-0.482,0.867-0.974,1.3-1.461
		c0.202,0.002,0.404,0.004,0.607,0.005c0.101,0.107,0.203,0.215,0.304,0.323c-0.118,0.968-0.987,1.363-1.545,1.985
		c-1.384,1.539-3.031,2.828-4.291,4.488C119.037,48.731,118.724,48.555,118.411,48.379z"/>
	<path fill="#D6E5F4" d="M101.589,28.635c0.101,0.106,0.202,0.212,0.303,0.318c-0.119,0.964-0.978,1.365-1.542,1.976
		c-1.401,1.514-2.852,2.982-4.283,4.469c-0.312-0.182-0.625-0.363-0.937-0.545c1.348-1.825,3.14-3.228,4.665-4.884
		c0.405-0.44,0.792-0.897,1.188-1.346C101.184,28.627,101.386,28.631,101.589,28.635z"/>
	<path fill="#D6E5F4" d="M113.539,35.693c-0.119,0.966-0.985,1.361-1.544,1.981c-1.383,1.536-3.022,2.828-4.288,4.479
		c-0.313-0.18-0.625-0.359-0.938-0.539c1.336-1.843,3.143-3.237,4.668-4.9c0.405-0.442,0.794-0.899,1.191-1.35
		c0.202,0.003,0.405,0.006,0.607,0.008C113.337,35.48,113.438,35.587,113.539,35.693z"/>
	<path fill="#D6E5F4" d="M83.487,28.092c1.389-1.837,3.193-3.275,4.747-4.954c0.378-0.409,0.734-0.838,1.1-1.257
		c0.203,0.005,0.405,0.01,0.608,0.016c0.101,0.105,0.202,0.209,0.303,0.314c-0.119,0.963-0.976,1.363-1.54,1.972
		c-1.4,1.511-2.851,2.975-4.281,4.459C84.047,28.567,83.737,28.381,83.487,28.092z"/>
	<path fill="#CEDCEB" d="M12.136,64.475c-1.756,0.79-2.783,2.372-4.034,3.711c-0.202-0.003-0.405-0.007-0.607-0.011
		c-0.101-0.106-0.202-0.213-0.303-0.319c1.323-2.004,2.876-3.77,5.049-4.899c-0.044,0.262-0.087,0.524-0.13,0.784
		c0.01,0.05,0.005,0.1-0.017,0.15C12.108,64.086,12.122,64.281,12.136,64.475z"/>
	<path fill="#F3F3F3" d="M131.042,59.177c1.257-1.342,2.951-1.931,4.57-2.651c-0.139,1.007-1.087,1.383-1.623,2.08
		c-0.387,0.502-1.067,0.788-1.127,1.531C132.255,59.817,131.649,59.497,131.042,59.177z"/>
	<path fill="#F5AA1D" d="M58.532,97.238c-2.287,0.518-4.561,0.846-6.926,0.376c-3.912-0.776-5.377-2.403-5.473-6.352
		c-0.01-0.406-0.041-0.811-0.062-1.218c-0.001-1.567-0.001-3.133-0.002-4.7c0.003-0.195,0.006-0.391,0.009-0.586
		c0.003-1.139,0.005-2.277,0.008-3.416c-0.001-0.197-0.002-0.394-0.003-0.591c0.046-0.723,0.093-1.447,0.139-2.17
		c0.639,1.065,1.467,1.933,2.615,2.452c4.786,2.16,9.222,1.763,13.213-1.828c0.045,0.101,0.09,0.203,0.135,0.304
		c-0.008,0.513-0.017,1.026-0.025,1.539c0.033,1.525-0.267,3.06,0.121,4.576c-0.266,0.504-0.262,1.026-0.102,1.559
		c-0.01,1.529-0.021,3.057-0.031,4.586c0.008,0.515,0.016,1.029,0.025,1.544C61.943,95.535,60.133,96.289,58.532,97.238z"/>
	<path fill="#D6E5F4" d="M77.375,89.628c-3.451,2.28-7.051,4.305-10.713,6.223c-0.063-0.726,0.513-1.063,0.925-1.486
		c2.542-2.609,5.095-5.208,7.643-7.81c1.112-0.366,2.297-0.45,3.377-0.952c2.512-1.168,3.233-2.298,3.018-4.841
		c0.056-0.311,0.112-0.622,0.168-0.933c2.907-2.279,5.366-5.014,7.857-7.716c0.295,0.119,0.589,0.239,0.884,0.358
		c0.619,0.415,1.238,0.83,1.857,1.246c-0.026,0.708-0.61,1.034-1.029,1.454c-4.32,4.337-8.654,8.659-12.975,12.995
		C77.97,88.586,77.389,88.917,77.375,89.628z"/>
	<path fill="#55B649" d="M35.39,90.759c-3.765-1.795-7.245-4.098-10.869-6.144c-3.497-1.974-6.899-4.123-10.437-6.018
		c-1.377-0.737-2.001-1.569-1.758-3.085c0.064-0.398,0.019-0.813,0.024-1.22c5.689,3.274,11.352,6.594,17.082,9.795
		c1.938,1.083,3.717,2.492,5.903,3.11c0.022,0.089,0.043,0.178,0.062,0.268C35.394,88.564,35.392,89.661,35.39,90.759z"/>
	<path fill="#55B649" d="M12.328,73.681c0.015-0.819,0.03-1.638,0.046-2.457c0.425,0.162,0.881,0.271,1.271,0.495
		c3.661,2.103,7.303,4.239,10.967,6.337c3.571,2.045,7.162,4.056,10.745,6.082c0.006,0.804,0.011,1.608,0.016,2.412
		c-0.423-0.159-0.878-0.264-1.264-0.487c-4.873-2.81-9.721-5.664-14.608-8.449C17.133,76.265,14.86,74.735,12.328,73.681z"/>
	<path fill="#D6E5F4" d="M58.532,97.238c1.601-0.949,3.411-1.703,3.64-3.924c0.184-0.079,0.414-0.113,0.547-0.245
		c2.105-2.083,4.196-4.179,6.293-6.269c0.267-0.266,0.411-0.578,0.425-0.953c1.403,0.346,2.814,0.65,4.26,0.748
		c-3.247,3.288-6.498,6.573-9.737,9.869c-0.413,0.421-1.003,0.746-0.978,1.467C61.254,99.177,60.688,99.089,58.532,97.238z"/>
	<path fill="#D6E5F4" d="M91.78,81.35c-3.453,2.275-7.046,4.31-10.714,6.215c-0.055-0.727,0.52-1.066,0.937-1.485
		c3.44-3.454,6.893-6.895,10.333-10.349c0.419-0.421,0.981-0.763,0.991-1.468c1.178,0.248,1.982,1.525,3.36,1.222
		c-0.018,0.833-0.753,1.162-1.196,1.694C94.3,78.611,92.591,79.581,91.78,81.35z"/>
	<path fill="#D6E5F4" d="M106.184,73.073c-3.43,2.315-7.052,4.297-10.714,6.211c0.598-1.799,2.355-2.598,3.434-3.982
		c0.421-0.541,1.206-0.848,1.11-1.721c3.624-2.258,7.327-4.38,11.08-6.413c0.011,0.829-0.71,1.162-1.145,1.688
		C108.746,70.307,107.006,71.28,106.184,73.073z"/>
	<path fill="#3C9A46" d="M35.39,90.759c0.002-1.098,0.004-2.195,0.005-3.293c3.564-2.041,7.127-4.082,10.691-6.123
		c-0.003,1.139-0.005,2.277-0.008,3.416c-1.539,0.899-3.079,1.799-4.618,2.698C39.437,88.558,37.413,89.658,35.39,90.759z"/>
	<path fill="#D6E5F4" d="M93.328,74.264c-0.01,0.705-0.572,1.047-0.991,1.468c-3.44,3.454-6.893,6.895-10.333,10.349
		c-0.417,0.419-0.993,0.758-0.937,1.485c-1.167,0.802-2.325,1.617-3.691,2.062c0.014-0.711,0.594-1.041,1.014-1.462
		c4.32-4.336,8.655-8.658,12.975-12.995c0.419-0.42,1.003-0.746,1.029-1.454c0.299,0.106,0.598,0.211,0.897,0.317
		C93.31,74.109,93.323,74.186,93.328,74.264z"/>
	<path fill="#3C9A46" d="M35.357,84.139c-3.582-2.026-7.173-4.037-10.745-6.082c-3.664-2.098-7.306-4.235-10.967-6.337
		c-0.39-0.224-0.845-0.333-1.271-0.495c-0.086-0.095-0.172-0.19-0.258-0.284c0.062-0.224,0.125-0.447,0.188-0.671
		c2.904,1.656,5.812,3.307,8.712,4.97c4.79,2.747,9.575,5.501,14.362,8.253c0.008,0.201,0.016,0.402,0.024,0.603L35.357,84.139z"/>
	<path fill="#3C9A46" d="M12.328,73.681c2.532,1.054,4.804,2.585,7.173,3.934c4.887,2.785,9.735,5.639,14.608,8.449
		c0.386,0.223,0.841,0.327,1.264,0.487c0,0,0.061,0.059,0.061,0.059c-0.034,0.196-0.067,0.392-0.101,0.588
		c-2.186-0.618-3.965-2.027-5.903-3.11c-5.729-3.201-11.392-6.521-17.082-9.795C12.342,74.089,12.335,73.885,12.328,73.681z"/>
	<path fill="#D6E5F4" d="M62.982,97.932c-0.025-0.721,0.564-1.047,0.978-1.467c3.239-3.296,6.49-6.581,9.737-9.869
		c0.511-0.013,1.023-0.027,1.534-0.04c-2.549,2.602-5.101,5.201-7.643,7.81c-0.412,0.423-0.988,0.76-0.925,1.486
		C65.497,96.653,64.322,97.438,62.982,97.932z"/>
	<path fill="#D6E5F4" d="M106.184,73.073c0.822-1.793,2.561-2.766,3.765-4.218c0.436-0.526,1.157-0.858,1.145-1.687
		c1.154-0.815,2.373-1.516,3.667-2.084c-0.775,1.828-2.55,2.773-3.741,4.234c-0.43,0.528-1.173,0.845-1.144,1.686
		C108.743,71.866,107.533,72.593,106.184,73.073z"/>
	<path fill="#D6E5F4" d="M100.014,73.58c0.096,0.874-0.688,1.181-1.11,1.722c-1.079,1.384-2.836,2.183-3.434,3.982
		c-1.165,0.806-2.325,1.62-3.691,2.067c0.812-1.769,2.521-2.739,3.711-4.17c0.443-0.532,1.178-0.861,1.196-1.694
		C97.734,74.742,98.839,74.1,100.014,73.58z"/>
	<path fill="#D6E5F4" d="M46.069,85.345c0.001,1.566,0.001,3.132,0.002,4.7c-1.158-0.27-2.076-0.984-3.023-1.644
		C43.924,87.253,44.971,86.274,46.069,85.345z"/>
	<path fill="#CEDCEB" d="M46.069,85.345c-1.098,0.928-2.145,1.908-3.021,3.056c-0.549-0.282-1.161-0.456-1.588-0.944
		c1.539-0.899,3.079-1.799,4.618-2.698C46.075,84.954,46.072,85.15,46.069,85.345z"/>
	<path fill="#D6E5F4" d="M59.316,114.694c0.581,0.277,1.162,0.555,1.743,0.831c0.117,0.076,0.234,0.152,0.351,0.228
		c0.002,0.687,0.004,1.375,0.006,2.062c-2.104,1.276-3.608,3.18-5.204,4.986c-1.168-0.423-2.22-1.042-3.16-1.851
		C55.308,119.032,57.388,116.94,59.316,114.694z"/>
	<path fill="#D6E5F4" d="M61.43,119.058c0,2.24-0.001,4.48-0.001,6.72c0,0,0.027,0.061,0.027,0.061
		c-1.475-0.761-3.001-1.432-4.321-2.465C58.421,121.789,59.877,120.375,61.43,119.058z"/>
	<path fill="#D6E5F4" d="M61.43,119.058c-1.553,1.317-3.01,2.731-4.295,4.315c-0.394-0.051-0.705-0.236-0.924-0.571
		c1.596-1.807,3.1-3.71,5.204-4.986C61.42,118.23,61.425,118.644,61.43,119.058z"/>
	<path fill="#70A7D7" d="M61.41,115.754c-0.117-0.076-0.234-0.153-0.351-0.228c0.129-0.061,0.258-0.122,0.388-0.184
		c0.108,0.038,0.215,0.076,0.323,0.114C61.649,115.555,61.53,115.654,61.41,115.754z"/>
	<path fill="#70A7D7" d="M56.212,122.802c0.219,0.335,0.53,0.52,0.924,0.571c1.319,1.034,2.846,1.704,4.321,2.465
		c0.166,1.011-0.436,2.119,0.384,3.048c-0.129,0.114-0.26,0.228-0.39,0.342c-10.054-5.805-20.109-11.609-30.163-17.415
		c-7.937-4.584-15.872-9.171-23.809-13.755c-0.348-0.201-0.767-0.316-0.893-0.772c0.907-0.485,1.815-0.971,2.722-1.456
		c1.445,0.779,2.771,1.776,4.318,2.37c0.307,0.202,0.614,0.405,0.921,0.607c0.919,0.514,1.838,1.028,2.757,1.542
		c0.175,0.308,0.497,0.313,0.788,0.383c0.901,0.88,2.021,1.386,3.165,1.853c0.233,0.309,0.53,0.515,0.919,0.573
		c0.96,0.719,1.969,1.354,3.097,1.781c0.307,0.202,0.615,0.405,0.922,0.607c0.919,0.514,1.838,1.028,2.758,1.542
		c0.178,0.307,0.501,0.314,0.794,0.383c0.945,0.801,1.995,1.423,3.159,1.851c0.23,0.316,0.53,0.518,0.921,0.573
		c0.831,0.648,1.708,1.213,2.719,1.542c0.335,0.432,0.817,0.638,1.296,0.849c0.919,0.514,1.839,1.028,2.758,1.542
		c0.178,0.31,0.501,0.319,0.797,0.383c0.944,0.802,1.992,1.424,3.157,1.847c0.226,0.323,0.529,0.522,0.924,0.573
		c0.825,0.657,1.709,1.213,2.72,1.545c0.33,0.436,0.815,0.634,1.292,0.845c1.006,0.561,1.913,1.306,3.044,1.636
		c0.172,0.097,0.345,0.195,0.517,0.292C53.992,121.761,55.044,122.38,56.212,122.802z"/>
	<path fill="#3D2861" d="M9.307,95.832c-0.907,0.485-1.815,0.971-2.722,1.456c0,0-0.016-0.005-0.016-0.005
		c-0.013-0.655-0.08-1.315-0.026-1.965c0.083-0.998-0.336-1.406-1.309-1.305c-0.588,0.061-1.216-0.178-1.757,0.235
		c-0.65-0.045-1.299-0.089-2.138-0.147c0.523-0.996,1.479-1.197,2.128-1.752c1.019-0.363,1.88-1.001,2.775-1.58
		c0.343-0.021,0.622-0.153,0.798-0.462c0.827-0.412,1.654-0.823,2.48-1.235c0.286,0.372,0.674,0.572,1.125,0.665
		c1.394,0.885,2.787,1.77,4.268,2.71C12.95,93.633,11.129,94.732,9.307,95.832z"/>
	<path fill="#D6E5F4" d="M9.307,95.832c1.821-1.099,3.643-2.199,5.606-3.384c-1.481-0.94-2.874-1.825-4.267-2.71
		c0.873-0.457,1.506-1.166,2.062-1.957c2.349,1.152,4.582,2.506,6.791,3.902c-1.254,1.684-2.924,2.971-4.314,4.523
		c-0.562,0.627-1.434,1.026-1.56,1.996C12.078,97.608,10.752,96.611,9.307,95.832z"/>
	<path fill="#D6E5F4" d="M25.272,104.941c-1.128-0.427-2.137-1.061-3.097-1.781c1.352-1.731,3.068-3.112,4.543-4.724
		c0.5-0.546,1.265-0.913,1.32-1.792c1.12,0.445,2.133,1.078,3.117,1.764c-1.18,1.618-2.783,2.834-4.1,4.32
		C26.429,103.435,25.46,103.878,25.272,104.941z"/>
	<path fill="#D6E5F4" d="M48.197,118.179c-1.01-0.332-1.894-0.888-2.719-1.545c1.593-1.648,3.192-3.289,4.774-4.947
		c0.446-0.467,1.078-0.821,1.089-1.591c1.104,0.397,2.045,1.087,3.038,1.683C52.672,114.253,50.369,116.153,48.197,118.179z"/>
	<path fill="#D6E5F4" d="M52.533,120.659c-1.131-0.329-2.038-1.075-3.044-1.635c1.66-2.533,4.012-4.402,6.184-6.443
		c0.988,0.368,1.863,0.936,2.707,1.555c-1.626,1.679-3.256,3.355-4.876,5.04C53.09,119.606,52.528,119.949,52.533,120.659z"/>
	<path fill="#D6E5F4" d="M36.545,111.439c-1.011-0.33-1.888-0.895-2.719-1.542c1.59-1.646,3.187-3.285,4.766-4.941
		c0.444-0.466,1.082-0.813,1.097-1.583c1.11,0.385,2.045,1.087,3.042,1.674C41.01,107.508,38.723,109.421,36.545,111.439z"/>
	<path fill="#D6E5F4" d="M44.554,116.061c-1.165-0.424-2.214-1.046-3.156-1.848c2.262-1.909,4.328-4.014,6.266-6.247
		c1.007,0.363,1.89,0.943,2.748,1.567c-0.012,0.709-0.599,1.03-1.003,1.468C47.825,112.72,45.977,114.187,44.554,116.061z"/>
	<path fill="#D6E5F4" d="M40.599,113.83c-0.919-0.514-1.839-1.028-2.758-1.542c1.645-2.542,4.012-4.393,6.172-6.443
		c0.973,0.401,1.873,0.928,2.713,1.561C44.684,109.548,42.641,111.689,40.599,113.83z"/>
	<path fill="#D6E5F4" d="M21.256,102.588c-1.143-0.467-2.263-0.973-3.163-1.854c2.267-1.896,4.308-4.018,6.267-6.223
		c0.993,0.385,1.893,0.934,2.748,1.561c-0.011,0.711-0.609,1.021-1.01,1.459C24.521,99.252,22.666,100.707,21.256,102.588z"/>
	<path fill="#D6E5F4" d="M28.951,107.09c-0.919-0.514-1.838-1.028-2.758-1.541c1.634-2.546,4.01-4.383,6.158-6.438
		c0.974,0.405,1.882,0.924,2.719,1.567C33.031,102.815,30.991,104.953,28.951,107.09z"/>
	<path fill="#D6E5F4" d="M32.905,109.325c-1.164-0.428-2.214-1.05-3.158-1.852c2.264-1.902,4.316-4.016,6.265-6.234
		c0.994,0.385,1.89,0.94,2.748,1.564c-0.012,0.71-0.604,1.026-1.006,1.464C36.173,105.986,34.322,107.447,32.905,109.325z"/>
	<path fill="#D6E5F4" d="M17.303,100.352c-0.919-0.514-1.838-1.028-2.757-1.542c1.625-2.55,4.008-4.375,6.146-6.434
		c1.055,0.471,2.059,1.029,2.976,1.735C21.31,95.951,19.318,98.163,17.303,100.352z"/>
	<path fill="#5A84C1" d="M6.242,90.769c-0.894,0.58-1.756,1.218-2.774,1.581c0-3.256,0-6.513,0-9.993
		c1.052,0.662,1.928,1.213,2.804,1.764c0.028,1.225,0.057,2.45,0.085,3.676c-0.005,0.812-0.01,1.625-0.015,2.437
		C6.309,90.413,6.275,90.591,6.242,90.769z"/>
	<path fill="#D6E5F4" d="M6.342,90.234c0.005-0.812,0.01-1.625,0.015-2.437c1.191-0.347,1.631-1.626,2.675-2.156
		c1.055,0.468,2.057,1.024,2.97,1.734c-0.987,0.333-1.34,1.589-2.48,1.697c-0.827,0.412-1.654,0.823-2.48,1.235
		C6.808,90.283,6.575,90.259,6.342,90.234z"/>
	<path fill="#D6E5F4" d="M44.013,105.845c-2.16,2.05-4.527,3.901-6.172,6.443c-0.479-0.211-0.961-0.418-1.296-0.849
		c2.178-2.018,4.465-3.931,6.185-6.392C43.158,105.313,43.586,105.579,44.013,105.845z"/>
	<path fill="#D6E5F4" d="M55.673,112.58c-2.172,2.041-4.524,3.91-6.184,6.443c-0.477-0.211-0.962-0.409-1.292-0.845
		c2.172-2.025,4.475-3.925,6.182-6.4C54.811,112.046,55.242,112.313,55.673,112.58z"/>
	<path fill="#D6E5F4" d="M20.693,92.375c-2.139,2.059-4.522,3.884-6.146,6.434c-0.307-0.202-0.614-0.405-0.921-0.607
		c0.127-0.97,0.999-1.369,1.56-1.996c1.39-1.552,3.06-2.839,4.314-4.523C19.897,91.913,20.295,92.144,20.693,92.375z"/>
	<path fill="#D6E5F4" d="M44.554,116.061c1.423-1.874,3.271-3.341,4.855-5.06c0.404-0.438,0.99-0.759,1.003-1.468
		c0.388,0.057,0.694,0.253,0.929,0.562c-0.011,0.77-0.643,1.124-1.089,1.591c-1.582,1.658-3.181,3.299-4.774,4.947
		C45.083,116.583,44.78,116.384,44.554,116.061z"/>
	<path fill="#D6E5F4" d="M32.351,99.111c-2.148,2.055-4.524,3.891-6.158,6.438c-0.307-0.203-0.615-0.405-0.922-0.607
		c0.188-1.063,1.157-1.506,1.784-2.214c1.317-1.485,2.919-2.702,4.1-4.32C31.554,98.642,31.953,98.877,32.351,99.111z"/>
	<path fill="#D6E5F4" d="M40.599,113.83c2.042-2.141,4.084-4.283,6.127-6.424c0.313,0.187,0.625,0.373,0.938,0.56
		c-1.938,2.233-4.004,4.337-6.266,6.246C41.1,114.149,40.777,114.14,40.599,113.83z"/>
	<path fill="#D6E5F4" d="M21.256,102.588c1.41-1.881,3.265-3.336,4.842-5.057c0.401-0.437,0.999-0.748,1.01-1.459
		c0.366,0.099,0.694,0.261,0.931,0.572c-0.055,0.879-0.82,1.246-1.32,1.792c-1.475,1.612-3.191,2.993-4.543,4.724
		C21.785,103.103,21.488,102.897,21.256,102.588z"/>
	<path fill="#D6E5F4" d="M32.905,109.325c1.417-1.877,3.268-3.338,4.849-5.058c0.402-0.438,0.995-0.754,1.006-1.464
		c0.31,0.19,0.619,0.38,0.929,0.57c-0.015,0.769-0.652,1.117-1.097,1.583c-1.578,1.657-3.176,3.296-4.766,4.941
		C33.434,109.842,33.134,109.64,32.905,109.325z"/>
	<path fill="#D6E5F4" d="M36.012,101.239c-1.949,2.218-4.001,4.331-6.265,6.234c-0.294-0.068-0.617-0.076-0.795-0.383
		c2.04-2.137,4.08-4.275,6.119-6.412C35.384,100.865,35.698,101.052,36.012,101.239z"/>
	<path fill="#D6E5F4" d="M17.303,100.352c2.015-2.188,4.007-4.4,6.365-6.241c0.231,0.133,0.461,0.267,0.691,0.401
		c-1.959,2.205-4,4.327-6.267,6.223C17.801,100.664,17.478,100.66,17.303,100.352z"/>
	<path fill="#D6E5F4" d="M52.533,120.659c-0.006-0.709,0.557-1.053,0.971-1.484c1.62-1.685,3.25-3.361,4.876-5.04
		c0.312,0.186,0.623,0.373,0.935,0.559c-1.928,2.246-4.008,4.338-6.264,6.256C52.878,120.854,52.706,120.756,52.533,120.659z"/>
	<path fill="#70A7D7" d="M3.478,94.248c0.541-0.412,1.169-0.174,1.757-0.235c0.973-0.101,1.392,0.307,1.309,1.305
		c-0.054,0.65,0.013,1.31,0.026,1.965C4.382,96.836,3.596,96.065,3.478,94.248z"/>
	<path fill="#D6E5F4" d="M9.031,85.641c-1.044,0.53-1.484,1.809-2.675,2.156c-0.028-1.225-0.056-2.45-0.085-3.676
		C7.339,84.361,8.155,85.055,9.031,85.641z"/>
	<path fill="#D6E5F4" d="M9.521,89.073c1.14-0.108,1.493-1.365,2.48-1.697c0.236,0.135,0.472,0.27,0.708,0.405
		c-0.556,0.791-1.19,1.5-2.062,1.957C10.195,89.645,9.807,89.445,9.521,89.073z"/>
	<path fill="#70A7D7" d="M61.42,112.96c0.001,0.692,0.003,1.384,0.004,2.076C61.007,114.345,61.013,113.653,61.42,112.96z"/>
	<path fill="#70A7D7" d="M0.686,94.143c-0.039-0.059-0.034-0.113,0.016-0.162c0.033,0.048,0.067,0.095,0.1,0.143
		C0.764,94.13,0.725,94.136,0.686,94.143z"/>
	<path fill="#55B649" d="M63.31,48.027c-4.224,2.442-8.317,4.81-12.411,7.176c-3.573,2.065-7.158,4.109-10.711,6.207
		c-0.713,0.421-1.252,0.551-2.092,0.203c-1.839-0.762-3.769-0.847-5.625,0.049c-0.555,0.268-1.011,0.315-1.563-0.01
		c-2.936-1.728-5.889-3.429-8.972-5.217c0.625-0.688,1.58-1.024,1.56-2.13c-0.019-1.091-0.656-1.652-1.602-2.289
		c2.724-1.596,5.33-3.143,7.955-4.656c5.076-2.927,10.173-5.817,15.233-8.77c0.7-0.408,1.241-0.476,1.976-0.143
		c1.807,0.82,3.669,0.813,5.471-0.015c0.732-0.337,1.321-0.317,2.004,0.084c2.636,1.548,5.298,3.05,7.933,4.599
		c0.278,0.164,1.03,0.177,0.408,0.915C61.304,45.893,61.358,46.246,63.31,48.027z M51.335,47.619
		c-0.658-0.999-1.621-1.581-2.714-1.987c-3.529-1.689-7.16-1.712-10.813-0.542c-1.894,0.607-3.697,1.442-4.538,3.475
		c-0.756,1.554-0.419,2.875,0.85,3.998c0.213,0.416,0.534,0.709,0.978,0.863c0.966,0.84,2.084,1.35,3.351,1.533
		c2.527,0.944,5.092,0.806,7.67,0.263c1.672-0.327,3.226-0.939,4.53-2.052c1.219-1.04,2.066-2.266,1.556-3.998
		C52.145,48.526,51.847,48.013,51.335,47.619z M54.625,43.335c0.584-0.206,1.545-0.165,1.537-1.055
		c-0.008-0.876-0.932-0.978-1.619-0.98c-0.69-0.002-1.614,0.117-1.608,0.988C52.941,43.147,53.867,43.178,54.625,43.335z
		 M29.529,57.911c0.687-0.104,1.625-0.085,1.669-0.952c0.045-0.883-0.855-1.017-1.572-1.017c-0.709,0-1.58,0.071-1.591,0.995
		C28.025,57.787,28.884,57.779,29.529,57.911z"/>
	<path fill="#3C9A46" d="M35.477,70.096c-0.246-0.929,0.173-1.951-0.4-2.834c2.488-0.804,4.571-2.372,6.804-3.648
		c7.674-4.382,15.313-8.825,22.968-13.241c2.2-1.269,4.416-2.51,6.599-3.807c0.403-0.239,0.979-0.395,1.033-1.025
		c0.178,0.095,0.357,0.19,0.535,0.285c-0.005,1.017-0.01,2.033-0.014,3.05c-1.783,0.533-3.236,1.683-4.815,2.593
		c-8.282,4.77-16.523,9.61-24.833,14.329C40.755,67.274,38.314,69.055,35.477,70.096z"/>
	<path fill="#D6E5F4" d="M73.017,45.827c-0.179-0.095-0.357-0.19-0.535-0.285c-2.564-1.529-5.128-3.058-7.691-4.587
		c0.031-1.117,1.418-1.37,1.547-2.425c2.911,1.611,5.829,3.209,8.619,5.027C74.724,44.667,73.84,45.222,73.017,45.827z"/>
	<path fill="#D6E5F4" d="M66.336,38.529c-0.129,1.055-1.515,1.308-1.547,2.425c-1.012-0.565-2.024-1.13-3.037-1.696
		c0.145-1.049,1.534-1.306,1.549-2.437C64.314,37.391,65.325,37.96,66.336,38.529z"/>
	<path fill="#D6E5F4" d="M63.302,36.822c-0.015,1.131-1.404,1.388-1.549,2.437c-0.428-0.263-0.856-0.527-1.285-0.79
		c0.78-0.643,1.56-1.287,2.341-1.93C62.973,36.633,63.138,36.728,63.302,36.822z"/>
	<path fill="#3D2861" d="M83.487,28.092c0.25,0.289,0.56,0.475,0.936,0.55c3.511,2.17,7.05,4.29,10.705,6.211
		c0.312,0.182,0.625,0.363,0.937,0.545c3.468,2.245,7.07,4.258,10.705,6.217c0.313,0.18,0.625,0.359,0.938,0.539
		c0.825,0.631,1.714,1.151,2.673,1.55c0.442,0.268,0.885,0.537,1.327,0.805c1.006,0.58,2.013,1.16,3.019,1.74
		c0.155,0.085,0.31,0.17,0.464,0.254c1.073,0.625,2.146,1.25,3.219,1.876c0.313,0.176,0.626,0.352,0.94,0.528
		c0.818,0.636,1.707,1.15,2.663,1.549c0.273,0.292,0.597,0.493,0.995,0.564c0.618,0.422,1.236,0.844,1.876,1.281
		c-2.489,1.864-2.478,1.845-4.93,0.427c-6.203-3.589-12.417-7.16-18.627-10.738c-0.314-0.176-0.629-0.352-0.943-0.528
		c-0.818-0.633-1.704-1.148-2.659-1.545c-0.45-0.27-0.9-0.539-1.35-0.809c-1.007-0.585-2.013-1.17-3.02-1.755
		c-0.147-0.078-0.294-0.157-0.441-0.235c-1.076-0.631-2.152-1.262-3.228-1.893c-0.314-0.171-0.627-0.343-0.941-0.514
		c-0.975-0.691-1.978-1.334-3.094-1.782c-0.233-0.311-0.56-0.47-0.923-0.571c-0.771-0.441-1.542-0.882-2.313-1.323
		c-0.303-0.349-0.705-0.528-1.133-0.664c-0.942-0.674-1.927-1.275-2.995-1.73c-0.326-0.346-0.729-0.559-1.182-0.685
		c-0.314-0.24-0.627-0.479-1.111-0.849c1.333-0.525,2.161-2.036,3.815-1.15c0.247,0.293,0.557,0.477,0.933,0.551
		C81.589,27.151,82.5,27.687,83.487,28.092z"/>
	<path fill="#3D2861" d="M93.289,74.034c-0.299-0.106-0.598-0.211-0.897-0.317c-0.619-0.415-1.238-0.83-1.857-1.246
		c0.172-0.181,0.313-0.415,0.52-0.535c6.072-3.512,12.16-6.996,18.222-10.525c2.362-1.374,4.827-2.58,7.023-4.231
		c0.594-0.661,1.599-0.801,2.199-1.7c-3.031-1.712-5.987-3.382-8.944-5.053c-2.231-1.295-4.461-2.59-6.692-3.884
		c-0.648-0.637-1.288-0.6-1.921,0.023c-3.692,2.133-7.384,4.266-11.075,6.399c-1.093,0.627-2.186,1.253-3.279,1.879
		c-3.347,1.908-6.695,3.817-10.218,5.825c1.266,0.675,2.34,1.247,3.413,1.819c0.19,0.106,0.38,0.212,0.571,0.319
		c0.447,0.293,0.894,0.585,1.34,0.878c-0.116,0.085-0.232,0.171-0.348,0.256c-0.351-0.154-0.702-0.308-1.053-0.462
		c-0.463-0.26-0.926-0.52-1.389-0.779c-1.011-0.556-2.022-1.113-3.033-1.669c-0.103-0.073-0.206-0.146-0.31-0.22
		c0.201-0.619,0.904-0.62,1.271-1.034c1.215-0.698,2.43-1.396,3.645-2.094c3.582-2.068,7.163-4.135,10.745-6.203
		c1.221-0.699,2.441-1.397,3.662-2.096c1.989-1.129,4.003-2.218,5.956-3.408c0.801-0.488,1.399-0.476,2.208,0.001
		c5.083,2.992,10.18,5.96,15.317,8.856c1.237,0.697,1.055,1.053-0.026,1.59c-0.492,0.244-0.934,0.588-1.556,0.987
		c0.84,0.554,1.575,1.039,2.31,1.524c-0.399,0.307-0.769,0.665-1.202,0.915C109.696,64.584,101.492,69.307,93.289,74.034z"/>
	<path fill="#305BA8" d="M93.289,74.034c8.203-4.726,16.407-9.45,24.604-14.186c0.432-0.25,0.803-0.608,1.202-0.915
		c0.154,0.037,0.307,0.074,0.461,0.112c0.438,0.304,0.877,0.608,1.315,0.912c0.318,1.014-0.138,1.596-1.011,2.086
		c-1.725,0.968-3.401,2.022-5.098,3.041c-1.294,0.568-2.513,1.269-3.667,2.084c-3.754,2.033-7.456,4.155-11.08,6.413
		c-1.175,0.52-2.28,1.162-3.327,1.906c-1.378,0.302-2.182-0.974-3.36-1.223C93.323,74.186,93.31,74.109,93.289,74.034z"/>
	<path fill="#D6E5F4" d="M94.885,49.383c-1.221,0.699-2.441,1.397-3.662,2.096c-0.148-0.814,0.515-1.163,0.954-1.623
		c2.703-2.83,5.646-5.425,8.206-8.394c0.314,0.176,0.629,0.352,0.943,0.528c-1.612,2.142-3.714,3.814-5.525,5.765
		C95.367,48.224,94.753,48.594,94.885,49.383z"/>
	<path fill="#3D2861" d="M67.882,31.721c0.894-0.154,1.501-0.998,2.45-1.019c1.012,0.567,2.023,1.134,3.035,1.7
		c0.087,0.224,0.28,0.254,0.483,0.266c0.994,0.743,2.056,1.368,3.198,1.856c0.25,0.291,0.565,0.472,0.94,0.549
		c0.836,0.633,1.731,1.165,2.706,1.558c0.43,0.265,0.859,0.53,1.289,0.795c1.013,0.565,2.026,1.13,3.04,1.695
		c0.246,0.294,0.557,0.48,0.934,0.553c0.854,0.631,1.752,1.184,2.746,1.571c0.21,0.13,0.421,0.259,0.631,0.389
		c0.288,0.228,0.576,0.455,0.951,0.751c-1.111,0.59-1.95,1.352-3.088,1.538c-0.393-0.242-0.786-0.484-1.179-0.726
		c-3.489-1.996-6.977-3.992-10.466-5.988c-0.227-0.138-0.453-0.275-0.68-0.413c-0.949-0.671-1.938-1.272-3.012-1.725
		c-0.328-0.346-0.734-0.558-1.188-0.686c-0.904-0.552-1.783-1.154-2.721-1.641C67.252,32.381,67.337,32.1,67.882,31.721z"/>
	<path fill="#3D2861" d="M63.302,36.822c-0.164-0.094-0.329-0.188-0.493-0.283c-0.276-0.426-0.939-0.419-1.103-0.967
		c1.482-1.383,2.969-1.915,4.746-0.407c0.753,0.639,1.755,0.984,2.643,1.463c0.232,0.314,0.558,0.476,0.927,0.565
		c0.861,0.623,1.754,1.188,2.752,1.571c0.222,0.136,0.444,0.272,0.666,0.408c3.657,2.118,7.313,4.236,10.97,6.354
		c-0.559,0.926-1.735,0.979-2.427,1.716c-1.076,0.018-1.715-0.965-2.691-1.176c-0.436-0.267-0.873-0.534-1.309-0.801
		c-1.009-0.57-2.018-1.139-3.027-1.709c-2.79-1.818-5.708-3.416-8.619-5.027C65.325,37.96,64.314,37.391,63.302,36.822z"/>
	<path fill="#D6E5F4" d="M70.023,37.192c-0.37-0.089-0.695-0.25-0.927-0.565c0.082-1.059,1.242-1.36,1.575-2.242
		c0.454,0.128,0.86,0.34,1.188,0.686C71.122,35.671,70.269,36.169,70.023,37.192z"/>
	<path fill="#086938" d="M35.477,70.096c2.838-1.042,5.279-2.822,7.877-4.298c8.31-4.719,16.552-9.559,24.833-14.329
		c1.579-0.909,3.032-2.06,4.815-2.593c0.095,0.302,0.048,0.585-0.114,0.853c-1.719,0.431-3.056,1.584-4.547,2.437
		c-7.679,4.392-15.322,8.848-23.001,13.239c-3.304,1.889-6.47,4.027-9.974,5.559l-0.01-0.015c0.014-0.208,0.027-0.416,0.041-0.624
		C35.423,70.249,35.45,70.172,35.477,70.096z"/>
	<path fill="#D6E5F4" d="M80.741,26.506c-0.376-0.073-0.686-0.258-0.933-0.551c-0.002-0.701,0.539-1.057,0.962-1.472
		c1.62-1.588,3.255-3.161,4.884-4.739c0.436,0.011,0.746,0.21,0.917,0.615C84.538,22.322,82.254,24.048,80.741,26.506z"/>
	<path fill="#D6E5F4" d="M73.85,32.669c-0.203-0.012-0.396-0.043-0.483-0.266c0.266-1.31,1.503-1.833,2.244-2.758
		c0.47-0.586,0.994-1.129,1.494-1.691c0.453,0.126,0.856,0.339,1.182,0.685C76.641,29.798,75.58,31.602,73.85,32.669z"/>
	<path fill="#FEFEFE" d="M58.072,30.782c-0.134,0.246-0.366,0.302-0.618,0.319C57.581,30.842,57.813,30.786,58.072,30.782z"/>
	<path fill="#55B649" d="M12.381,58.993c-0.106-1.127,0.508-0.717,0.993-0.441c2.384,1.355,4.761,2.722,7.135,4.095
		c4.703,2.721,9.4,5.452,14.107,8.165c0.205,0.118,0.492,0.095,0.74,0.137c0,0,0.01,0.015,0.01,0.015
		c0.03,0.829,0.06,1.658,0.09,2.487c-0.021,0.08-0.045,0.16-0.071,0.238c-2.506-1.432-5.014-2.862-7.519-4.297
		c-5.185-2.972-10.369-5.948-15.553-8.922C12.336,59.978,12.359,59.485,12.381,58.993z"/>
	<path fill="#55B649" d="M12.111,63.743c0.044-0.262,0.087-0.524,0.131-0.785c0.041-0.51,0.082-1.02,0.123-1.53
		c0.242,0.067,0.51,0.088,0.721,0.209c5.05,2.898,10.087,5.82,15.143,8.709c2.367,1.352,4.654,2.849,7.155,3.959
		c0,0,0,0.001,0,0.001c-0.003,0.813-0.006,1.626-0.009,2.44c-0.379-0.136-0.789-0.218-1.134-0.415
		c-4.367-2.499-8.726-5.012-13.085-7.525c-2.945-1.698-5.815-3.528-8.894-4.987C12.222,63.773,12.171,63.748,12.111,63.743z"/>
	<path fill="#3C9A46" d="M35.384,74.304c-2.501-1.109-4.788-2.607-7.155-3.959c-5.056-2.888-10.093-5.81-15.143-8.709
		c-0.211-0.121-0.48-0.142-0.721-0.209c-0.151-0.312-0.335-0.622-0.051-0.957c5.184,2.974,10.368,5.949,15.553,8.922
		c2.504,1.436,5.012,2.865,7.519,4.297C35.385,73.894,35.385,74.099,35.384,74.304z"/>
	<path fill="#55B649" d="M12.263,67.223c0.021-0.902,0.043-1.804,0.064-2.705c5.695,3.262,11.385,6.535,17.089,9.781
		c1.933,1.1,3.737,2.456,5.914,3.092c0.023,0.087,0.046,0.174,0.068,0.261c0.028,0.752,0.056,1.504,0.084,2.256
		c-0.03,0.075-0.057,0.151-0.083,0.228c-5.693-2.937-11.085-6.406-16.702-9.475C16.565,69.496,14.662,67.892,12.263,67.223z"/>
	<path fill="#55B649" d="M35.377,83.492c-4.787-2.751-9.572-5.506-14.362-8.253c-2.9-1.663-5.808-3.314-8.712-4.97
		c0.013-0.803,0.026-1.606,0.04-2.409c4.994,2.532,9.683,5.604,14.599,8.274c2.812,1.527,5.41,3.441,8.403,4.643
		c0.031,0.824,0.062,1.648,0.092,2.472C35.43,83.333,35.409,83.414,35.377,83.492z"/>
	<path fill="#3C9A46" d="M35.33,77.391c-2.177-0.637-3.98-1.992-5.914-3.092c-5.705-3.246-11.394-6.519-17.089-9.781
		c-0.065-0.008-0.129-0.022-0.191-0.042c-0.014-0.195-0.028-0.389-0.042-0.584c0.056-0.025,0.112-0.05,0.169-0.074
		c3.079,1.459,5.949,3.29,8.894,4.987c4.359,2.513,8.717,5.026,13.085,7.525c0.344,0.197,0.754,0.279,1.134,0.415
		c0,0,0.062,0.06,0.061,0.059C35.401,76.999,35.366,77.195,35.33,77.391z"/>
	<path fill="#3C9A46" d="M35.345,80.777c-2.992-1.202-5.59-3.116-8.402-4.643c-4.916-2.67-9.605-5.741-14.599-8.274
		c-0.026-0.212-0.053-0.425-0.08-0.637c2.398,0.669,4.301,2.273,6.435,3.438c5.617,3.069,11.009,6.538,16.702,9.475
		c-0.005,0.201-0.009,0.401-0.013,0.602L35.345,80.777z"/>
	<path fill="#D6E5F4" d="M12.263,63.818c-0.056,0.024-0.113,0.049-0.169,0.074c0.021-0.049,0.027-0.1,0.017-0.15
		C12.171,63.748,12.222,63.773,12.263,63.818z"/>
	<path fill="#F6C843" d="M62.05,79.206c-3.992,3.591-8.427,3.988-13.213,1.828c-1.148-0.518-1.976-1.386-2.615-2.452
		c-0.05-0.103-0.1-0.207-0.149-0.31c0.004-0.297,0.007-0.594,0.011-0.891c0.376-1.613,1.475-2.584,2.892-3.282
		c1.617-0.797,3.348-1.057,5.124-1.117c0.299,0.001,0.598,0.003,0.897,0.004c1.129,0.223,2.258,0.445,3.388,0.668
		c0.08,0.047,0.166,0.073,0.258,0.078c1.022,0.653,2.043,1.306,3.065,1.959C62.054,76.84,62.229,78.006,62.05,79.206z M58.68,75.54
		c-0.067-0.14-0.142-0.233-0.268-0.05c-2.949-1.556-5.89-1.301-8.825,0.041c-0.223,0.049-0.361,0.181-0.405,0.408
		c-0.033,0.103-0.1,0.173-0.201,0.213c-0.941,0.035-1.328,0.583-1.336,1.463c-0.01,1.056,0.537,1.667,1.549,1.89l-0.014-0.007
		c0.126,0.27,0.368,0.312,0.628,0.32c2.941,1.392,5.882,1.158,8.824,0.001c0.119-0.107,0.237-0.213,0.356-0.32l-0.015,0.01
		c1.182,0.059,1.697-0.756,1.786-1.691c0.091-0.958-0.375-1.778-1.482-1.977l0.015,0.008c-0.126-0.267-0.365-0.312-0.623-0.32
		L58.68,75.54z"/>
	<path fill="#D6E5F4" d="M78.905,62.699c0.463,0.26,0.926,0.52,1.389,0.779c-0.172,0.107-0.371,0.186-0.511,0.325
		c-3.706,3.689-7.404,7.385-11.107,11.077c-0.3,0.299-0.529,0.617-0.463,1.069c-0.112,0.064-0.225,0.128-0.337,0.192
		c-0.281,0.017-0.526,0.086-0.595,0.411c-0.411,0.475-0.822,0.95-1.233,1.426c-0.693,0.005-0.987,0.6-1.439,0.966
		c-0.837,0.678-1.351,1.733-2.449,2.107c0.008-0.513,0.017-1.026,0.025-1.539c0.221-0.112,0.488-0.178,0.655-0.344
		c2.663-2.642,5.312-5.298,7.967-7.949c0.261-0.261,0.45-0.547,0.432-0.933c0.54-0.676,1.783-0.635,1.84-1.804
		C75.4,66.935,77.304,64.97,78.905,62.699z"/>
	<path fill="#3C9A46" d="M46.072,78.272c0.05,0.103,0.099,0.207,0.149,0.31c-0.046,0.723-0.092,1.447-0.139,2.17
		c-0.537,0.026-0.932,0.361-1.373,0.612c-3.088,1.756-6.183,3.499-9.276,5.246c0,0-0.061-0.059-0.061-0.059
		c-0.005-0.804-0.011-1.608-0.016-2.412c0,0,0.044-0.043,0.044-0.043c0.982-0.518,1.961-1.042,2.945-1.555
		C40.957,81.183,43.326,79.385,46.072,78.272z"/>
	<path fill="#D6E5F4" d="M62.148,91.77c0.01-1.529,0.021-3.057,0.031-4.586c1.595-1.009,2.821-2.394,3.951-3.876
		c0.623,0.881,1.479,1.499,2.357,2.093C66.703,87.852,64.564,89.949,62.148,91.77z"/>
	<path fill="#D6E5F4" d="M71.239,70.284c0.018,0.386-0.171,0.672-0.432,0.933c-2.655,2.651-5.304,5.307-7.967,7.949
		c-0.167,0.166-0.434,0.232-0.655,0.344c-0.045-0.101-0.09-0.203-0.135-0.304c0.179-1.2,0.004-2.365-0.343-3.514
		C64.884,73.889,68.062,72.087,71.239,70.284z"/>
	<path fill="#D6E5F4" d="M62.16,81.049c1.099-0.373,1.612-1.428,2.449-2.107c0.452-0.366,0.746-0.961,1.439-0.966
		c-0.359,1.006-0.378,2.039-0.245,3.084c-0.003,0.5-0.006,1.001-0.009,1.501c-1.374,0.788-2.103,2.316-3.513,3.063
		C61.893,84.109,62.193,82.575,62.16,81.049z"/>
	<path fill="#D6E5F4" d="M62.148,91.77c2.417-1.82,4.555-3.918,6.339-6.369c0.317,0.149,0.634,0.297,0.951,0.446
		c-0.014,0.374-0.158,0.687-0.425,0.953c-2.097,2.09-4.189,4.186-6.293,6.269c-0.133,0.131-0.362,0.166-0.547,0.245
		C62.164,92.799,62.156,92.284,62.148,91.77z"/>
	<path fill="#086938" d="M35.434,86.61c3.093-1.747,6.188-3.491,9.276-5.246c0.44-0.25,0.835-0.585,1.373-0.612
		c0.001,0.197,0.002,0.394,0.003,0.591c-3.564,2.041-7.128,4.082-10.691,6.123c-0.019-0.09-0.039-0.179-0.061-0.268
		C35.367,87.002,35.401,86.806,35.434,86.61z"/>
	<path fill="#D6E5F4" d="M62.281,85.625c1.41-0.746,2.139-2.275,3.513-3.063c0.112,0.248,0.224,0.497,0.336,0.745
		c-1.13,1.483-2.356,2.868-3.951,3.876C62.019,86.651,62.015,86.129,62.281,85.625z"/>
	<path fill="#305BA8" d="M116.3,57.18c-2.195,1.652-4.661,2.857-7.023,4.231c-6.062,3.528-12.15,7.012-18.222,10.525
		c-0.207,0.12-0.348,0.354-0.52,0.535c-0.295-0.119-0.589-0.239-0.884-0.358c-0.313-0.187-0.625-0.373-0.938-0.56
		c-0.838-0.637-1.739-1.163-2.712-1.566c-0.426-0.265-0.853-0.531-1.279-0.796c-0.993-0.6-1.937-1.287-3.04-1.688
		c-0.31-0.188-0.62-0.376-0.93-0.564c-1.196-1.261-1.185-1.316,0.595-2.998c0.116-0.085,0.232-0.171,0.347-0.256
		c2.656-0.98,4.952-2.606,7.333-4.08c1.298-0.57,2.519-1.275,3.67-2.103c2.739-1.555,5.609-2.923,8.181-4.718
		c2.511-1.751,4.781-2.445,7.302-0.259c0.033,0.028,0.098,0.019,0.149,0.027C110.89,54.261,113.575,55.755,116.3,57.18z
		 M105.018,55.588c0.855-0.171,2.264-0.127,2.299-1.466c0.036-1.368-1.371-1.477-2.403-1.506c-1.096-0.031-2.352,0.047-2.666,1.445
		C102.064,54.877,103.395,55.611,105.018,55.588z"/>
	<path fill="#F6C843" d="M65.803,81.061c-0.133-1.045-0.114-2.078,0.245-3.084c0.411-0.475,0.822-0.95,1.233-1.426
		c0.198-0.137,0.396-0.274,0.595-0.41c0.112-0.064,0.225-0.128,0.337-0.193c1.727-0.854,3.616-1.027,5.479-1.312
		c0.596,0.245,1.217,0.257,1.846,0.202c1.001,0.243,2.002,0.486,3.003,0.728c0.411,0.223,0.822,0.446,1.233,0.669
		c0.759,0.69,1.513,1.383,1.944,2.346c0.026,0.416,0.051,0.831,0.077,1.247c-0.056,0.311-0.112,0.622-0.168,0.933
		c-0.483,0.58-0.918,1.181-1.601,1.591c-3.039,1.822-6.211,2.139-9.631,1.246C68.602,83.13,67.328,81.91,65.803,81.061z
		 M78.894,77.676l0.014,0.013c-0.133-0.106-0.266-0.212-0.398-0.318c-3.038-1.469-6.08-1.689-9.127-0.025
		c-0.122-0.189-0.209-0.126-0.281,0.04l0.015-0.013c-0.262-0.001-0.5,0.046-0.625,0.315l0.01-0.004
		c-0.967,0.106-1.196,0.848-1.214,1.603c-0.019,0.812,0.174,1.61,1.213,1.75l-0.01-0.004c0.126,0.268,0.364,0.315,0.626,0.315
		L69.1,81.337c0.128,0.107,0.255,0.214,0.383,0.32c3.058,1.264,6.07,1.158,9.036-0.306c0.129-0.129,0.258-0.259,0.388-0.388
		c0.073-0.077,0.145-0.155,0.218-0.232c0.871,0.033,1.189-0.619,1.233-1.26c0.048-0.717-0.241-1.405-1.158-1.482l0.013,0.006
		C79.106,77.888,79,77.782,78.894,77.676z"/>
	<path fill="#F5AA1D" d="M65.803,81.061c1.525,0.849,2.799,2.069,4.591,2.537c3.42,0.894,6.593,0.576,9.631-1.246
		c0.683-0.41,1.118-1.011,1.601-1.591c0.215,2.543-0.506,3.673-3.018,4.841c-1.08,0.502-2.266,0.586-3.377,0.952
		c-0.511,0.013-1.023,0.027-1.534,0.04c-1.447-0.098-2.857-0.402-4.26-0.748c-0.317-0.149-0.634-0.297-0.95-0.446
		c-0.878-0.594-1.734-1.213-2.357-2.093c-0.112-0.249-0.224-0.497-0.336-0.745C65.797,82.062,65.8,81.562,65.803,81.061z"/>
	<path fill="#D6E5F4" d="M81.794,79.829c-0.026-0.416-0.051-0.831-0.077-1.247c2.423-2.252,4.791-4.559,6.996-7.029
		c0.313,0.187,0.625,0.373,0.938,0.56C87.16,74.815,84.701,77.55,81.794,79.829z"/>
	<path fill="#086938" d="M46.072,78.272c-2.747,1.113-5.115,2.911-7.726,4.269c-0.985,0.512-1.964,1.036-2.945,1.555
		c-0.008-0.201-0.016-0.402-0.024-0.603c0.032-0.078,0.052-0.159,0.06-0.243c0.507-0.229,1.037-0.42,1.52-0.692
		c3.048-1.715,6.085-3.449,9.126-5.176C46.08,77.678,46.076,77.975,46.072,78.272z"/>
	<path fill="#CEDCEB" d="M6.342,90.234c0.233,0.024,0.466,0.049,0.699,0.073c-0.176,0.309-0.455,0.441-0.798,0.462
		C6.275,90.591,6.309,90.413,6.342,90.234z"/>
	<path fill="#F3F3F3" d="M33.269,48.566c0.841-2.033,2.644-2.869,4.538-3.475c3.653-1.17,7.284-1.147,10.813,0.542
		c-0.578,1.271-2,1.841-2.582,3.109c-1.651-0.407-3.226,0.078-4.832,0.351c-0.837,0.143-2.155,0.61-2.407-0.483
		c-0.227-0.982,1.112-1.052,1.894-1.327c0.096-0.034,0.196-0.057,0.294-0.083c0.692-0.183,0.43-0.529,0.131-0.851
		c-0.494-0.534-1.038-0.204-1.556-0.047c-0.563,0.17-1.085,0.586-1.698,0.078c-0.719-0.595-1.305-0.242-1.831,0.336
		C34.767,46.816,34.496,48.405,33.269,48.566z"/>
	<path fill="#F3F3F3" d="M46.118,55.223c-2.578,0.543-5.143,0.681-7.67-0.263c0.202-1.027,1.181-1.429,1.744-2.166
		c0.622-0.814,1.705-1.254,1.937-2.385c0.905-0.426,1.865-0.435,2.831-0.348c0.42,0.038,0.831,0.196,0.954,0.636
		c0.136,0.487-0.266,0.752-0.614,0.922c-0.54,0.263-1.126,0.43-1.689,0.649c-0.326,0.127-0.938,0.009-0.811,0.586
		c0.097,0.44,0.494,0.78,1.049,0.646c0.49-0.118,1.011-0.192,1.451-0.416c0.704-0.358,1.25-0.245,1.749,0.323
		C46.811,54.049,45.953,54.374,46.118,55.223z"/>
	<path fill="#FEFEFE" d="M42.128,50.409c-0.232,1.131-1.315,1.57-1.937,2.385c-0.563,0.737-1.542,1.138-1.744,2.166
		c-1.267-0.182-2.384-0.693-3.351-1.533c0.761-1.181,2.07-1.875,2.766-3.114C39.273,50.871,40.702,50.567,42.128,50.409z"/>
	<path fill="#FEFEFE" d="M33.269,48.566c1.227-0.161,1.497-1.75,2.764-1.85c0.579,0.443,1.592,0.668,0.75,1.763
		c-0.268,0.349,0.122,0.771,0.214,1.159c-0.781,1.151-1.778,2.089-2.878,2.927C32.851,51.44,32.514,50.119,33.269,48.566z"/>
	<path fill="#FEFEFE" d="M46.118,55.223c-0.164-0.849,0.693-1.174,0.931-1.816c1.372-0.045,1.573-0.255,1.057-1.103
		c0.896-0.426,1.411-1.281,2.139-1.897c0.594-0.503,0.975-1.351,1.961-1.234c0.509,1.732-0.338,2.957-1.556,3.998
		C49.344,54.284,47.79,54.895,46.118,55.223z"/>
	<path fill="#FEFEFE" d="M46.039,48.741c0.582-1.268,2.004-1.838,2.582-3.109c1.093,0.405,2.056,0.988,2.714,1.987
		c-1.014,1.136-1.884,2.428-3.343,3.082C47.815,49.575,46.932,49.153,46.039,48.741z"/>
	<path fill="#F3F3F3" d="M47.992,50.701c1.458-0.654,2.329-1.946,3.343-3.082c0.512,0.394,0.811,0.907,0.87,1.554
		c-0.985-0.117-1.366,0.731-1.961,1.233c-0.728,0.615-1.243,1.47-2.139,1.897C46.774,51.861,48.111,51.229,47.992,50.701z"/>
	<path fill="#F3F3F3" d="M54.625,43.335c-0.759-0.157-1.684-0.188-1.69-1.047c-0.006-0.871,0.918-0.991,1.608-0.988
		c0.687,0.002,1.611,0.104,1.619,0.98C56.17,43.17,55.209,43.129,54.625,43.335z"/>
	<path fill="#F3F3F3" d="M29.529,57.911c-0.645-0.132-1.504-0.124-1.494-0.974c0.011-0.923,0.882-0.995,1.591-0.995
		c0.717,0,1.617,0.134,1.572,1.017C31.154,57.825,30.216,57.807,29.529,57.911z"/>
	<path fill="#F3F3F3" d="M34.119,52.564c1.1-0.837,2.098-1.775,2.878-2.927c0.288,0.225,0.577,0.45,0.865,0.675
		c-0.696,1.239-2.005,1.933-2.766,3.114C34.653,53.272,34.332,52.98,34.119,52.564z"/>
	<path fill="#D6E5F4" d="M72.888,49.729c0.162-0.268,0.209-0.551,0.114-0.853c0.005-1.017,0.01-2.033,0.014-3.05
		c0.824-0.605,1.707-1.16,1.939-2.271c1.009,0.57,2.018,1.139,3.027,1.709c-1.325,1.922-2.88,3.611-4.902,4.826
		C73.016,49.97,72.952,49.85,72.888,49.729z"/>
	<path fill="#D6E5F4" d="M87.195,43.925c1.138-0.186,1.977-0.948,3.088-1.538c-0.375-0.296-0.663-0.524-0.951-0.751
		c1.598-1.186,3.189-2.379,4.022-4.284c1.007,0.585,2.013,1.17,3.02,1.755c-0.039,0.701-0.622,1.024-1.04,1.443
		c-5.854,5.87-11.722,11.728-17.577,17.598c-0.447,0.449-1.105,0.809-0.923,1.628c-0.367,0.414-1.07,0.415-1.271,1.034
		c-1.111,0.029-1.344,1.459-2.432,1.525l-0.121,0.04c0.003-0.108,0.005-0.216,0.008-0.324c0.027-1.433,0.054-2.865,0.081-4.298
		c0.648-0.009,0.96-0.527,1.348-0.911c1.879-1.863,3.767-3.718,5.612-5.615C82.432,48.789,84.989,46.528,87.195,43.925z"/>
	<path fill="#D6E5F4" d="M100.384,41.461c-2.561,2.969-5.504,5.564-8.206,8.394c-0.439,0.46-1.102,0.809-0.954,1.623
		c-3.582,2.068-7.163,4.135-10.745,6.203c-0.137-0.867,0.544-1.268,1.032-1.758c4.972-4.985,9.95-9.963,14.935-14.934
		c0.393-0.391,0.851-0.717,1.279-1.073C98.68,40.313,99.566,40.828,100.384,41.461z"/>
	<path fill="#D6E5F4" d="M97.725,39.916c-0.428,0.356-0.886,0.682-1.279,1.073c-4.985,4.971-9.964,9.949-14.935,14.934
		c-0.488,0.49-1.169,0.891-1.032,1.758c-1.215,0.698-2.43,1.396-3.645,2.094c-0.182-0.819,0.476-1.179,0.923-1.628
		c5.855-5.87,11.723-11.727,17.577-17.598c0.418-0.419,1.001-0.742,1.04-1.443C96.825,39.377,97.275,39.646,97.725,39.916z"/>
	<path fill="#D6E5F4" d="M73.85,32.669c1.73-1.066,2.791-2.87,4.437-4.03c1.069,0.455,2.053,1.057,2.995,1.73
		c-1.642,1.15-2.974,2.617-4.234,4.156C75.906,34.037,74.844,33.412,73.85,32.669z"/>
	<path fill="#D6E5F4" d="M85.022,39.123c-1.013-0.565-2.026-1.13-3.04-1.695c0.197-0.927,1.081-1.297,1.594-1.968
		c0.664-0.867,1.809-1.34,2.075-2.532c1.115,0.448,2.119,1.091,3.094,1.782c-0.498,0.558-1.019,1.097-1.487,1.678
		C86.52,37.305,85.299,37.829,85.022,39.123z"/>
	<path fill="#D6E5F4" d="M88.701,41.247c-0.994-0.387-1.892-0.94-2.746-1.571c-0.002-0.643,0.526-0.939,0.883-1.348
		c0.924-1.058,2.141-1.847,2.847-3.104c1.076,0.631,2.152,1.262,3.228,1.893C91.29,38.27,89.963,39.725,88.701,41.247z"/>
	<path fill="#D6E5F4" d="M80.693,36.632c-0.975-0.393-1.869-0.925-2.706-1.558c1.395-1.435,2.494-3.195,4.428-4.041
		c0.771,0.441,1.542,0.882,2.313,1.323C83.753,34.131,82.168,35.33,80.693,36.632z"/>
	<path fill="#D6E5F4" d="M80.693,36.632c1.475-1.303,3.06-2.501,4.035-4.276c0.363,0.101,0.69,0.26,0.923,0.571
		c-0.266,1.193-1.412,1.665-2.075,2.532c-0.513,0.671-1.397,1.041-1.594,1.968C81.552,37.162,81.123,36.897,80.693,36.632z"/>
	<path fill="#D6E5F4" d="M82.415,31.034c-1.933,0.846-3.032,2.606-4.428,4.041c-0.375-0.077-0.69-0.258-0.94-0.549
		c1.261-1.539,2.593-3.005,4.234-4.156C81.71,30.505,82.112,30.685,82.415,31.034z"/>
	<path fill="#D6E5F4" d="M89.686,35.223c-0.707,1.257-1.924,2.046-2.847,3.104c-0.357,0.409-0.885,0.705-0.883,1.348
		c-0.377-0.073-0.687-0.259-0.934-0.553c0.277-1.293,1.498-1.817,2.236-2.735c0.468-0.582,0.99-1.12,1.487-1.678
		C89.059,34.881,89.372,35.052,89.686,35.223z"/>
	<path fill="#D6E5F4" d="M88.701,41.247c1.262-1.521,2.589-2.977,4.212-4.13c0.147,0.078,0.294,0.157,0.442,0.235
		c-0.833,1.904-2.424,3.097-4.022,4.284C89.122,41.506,88.912,41.376,88.701,41.247z"/>
	<path fill="#D6E5F4" d="M89.028,59.604c-2.381,1.474-4.678,3.1-7.333,4.08c-0.446-0.292-0.893-0.585-1.339-0.877
		c0.268-0.143,0.588-0.232,0.794-0.437c2.79-2.761,5.564-5.539,8.344-8.31c0.309-0.308,0.486-0.65,0.375-1.096
		c3.692-2.133,7.384-4.266,11.075-6.399c0.108,0.735-0.453,1.092-0.874,1.514c-3.346,3.355-6.702,6.7-10.044,10.059
		C89.608,58.559,89.024,58.888,89.028,59.604z"/>
	<path fill="#D6E5F4" d="M108.329,52.552c-0.05-0.008-0.116,0.001-0.149-0.027c-2.521-2.186-4.791-1.493-7.302,0.259
		c-2.572,1.794-5.442,3.163-8.181,4.717c-0.016-0.714,0.552-1.053,0.969-1.474c2.18-2.197,4.393-4.362,6.553-6.58
		c0.912-0.937,2.023-1.702,2.644-2.905c2.231,1.295,4.461,2.59,6.692,3.884C109.546,51.366,108.312,51.598,108.329,52.552z"/>
	<path fill="#D6E5F4" d="M73.692,74.637c-1.863,0.285-3.752,0.457-5.479,1.312c-0.066-0.452,0.163-0.769,0.463-1.068
		c3.703-3.692,7.401-7.388,11.107-11.077c0.14-0.139,0.339-0.218,0.511-0.325c0.351,0.154,0.702,0.308,1.053,0.462
		c-1.78,1.682-1.791,1.737-0.595,2.998c-0.012,0.709-0.598,1.031-1.005,1.464C77.76,70.512,75.54,72.394,73.692,74.637z"/>
	<path fill="#CEDCEB" d="M108.329,52.552c-0.018-0.954,1.217-1.186,1.226-2.125c2.956,1.67,5.913,3.34,8.944,5.053
		c-0.6,0.899-1.606,1.039-2.199,1.7C113.575,55.755,110.89,54.261,108.329,52.552z"/>
	<path fill="#D6E5F4" d="M78.905,62.699c-1.6,2.271-3.505,4.236-5.826,5.782c-0.048-0.831-0.095-1.663-0.143-2.494
		c0.018-0.286,0.036-0.571,0.054-0.857c0.036-0.415,0.071-0.831,0.107-1.246c1.296-0.59,2.251-1.512,2.774-2.854
		C76.883,61.586,77.894,62.142,78.905,62.699z"/>
	<path fill="#D6E5F4" d="M102.864,46.543c-0.622,1.203-1.732,1.968-2.644,2.905c-2.16,2.217-4.373,4.382-6.553,6.58
		c-0.417,0.421-0.986,0.76-0.969,1.474c-1.15,0.828-2.371,1.533-3.67,2.103c-0.003-0.716,0.58-1.045,0.998-1.465
		c3.342-3.359,6.698-6.704,10.044-10.059c0.421-0.422,0.982-0.78,0.874-1.514C101.576,45.943,102.216,45.906,102.864,46.543z"/>
	<path fill="#D6E5F4" d="M79.784,62.488c-1.073-0.572-2.147-1.144-3.413-1.819c3.523-2.009,6.871-3.917,10.218-5.825
		c0.03,0.773-0.585,1.139-1.023,1.614C83.676,58.505,81.466,60.243,79.784,62.488z"/>
	<path fill="#D6E5F4" d="M79.784,62.488c1.682-2.245,3.892-3.983,5.781-6.03c0.438-0.475,1.053-0.841,1.023-1.614
		c1.093-0.627,2.186-1.253,3.279-1.88c0.111,0.446-0.066,0.788-0.375,1.096c-2.781,2.771-5.554,5.549-8.344,8.31
		c-0.206,0.204-0.526,0.294-0.794,0.437C80.164,62.701,79.974,62.595,79.784,62.488z"/>
	<path fill="#D6E5F4" d="M75.872,61.029c-0.523,1.342-1.478,2.264-2.774,2.854c-0.113-0.519-0.103-1.035,0.032-1.548
		c1.088-0.066,1.321-1.496,2.432-1.525C75.666,60.883,75.769,60.956,75.872,61.029z"/>
	<path fill="#D6E5F4" d="M84.41,45.525c-3.657-2.118-7.313-4.236-10.97-6.354c1.045-0.286,1.288-1.435,2.109-1.961
		c3.489,1.996,6.977,3.992,10.466,5.988C85.947,44.296,84.795,44.646,84.41,45.525z"/>
	<path fill="#D6E5F4" d="M84.41,45.525c0.385-0.879,1.537-1.229,1.606-2.326c0.393,0.242,0.786,0.484,1.179,0.726
		c-2.206,2.603-4.763,4.864-7.137,7.304c-1.845,1.896-3.733,3.752-5.612,5.615c-0.387,0.384-0.7,0.902-1.348,0.911
		c-0.002-0.512-0.003-1.025-0.005-1.537c0.39,0.008,0.664-0.208,0.922-0.467c2.481-2.485,4.964-4.968,7.45-7.448
		c0.299-0.298,0.533-0.615,0.518-1.06C82.675,46.504,83.852,46.451,84.41,45.525z"/>
	<path fill="#D6E5F4" d="M70.023,37.192c0.247-1.023,1.1-1.521,1.836-2.12c1.074,0.453,2.063,1.054,3.011,1.725
		c-0.902,0.438-1.532,1.166-2.096,1.965C71.777,38.379,70.883,37.815,70.023,37.192z"/>
	<path fill="#D6E5F4" d="M72.774,38.763c0.563-0.799,1.193-1.527,2.096-1.965c0.227,0.138,0.453,0.275,0.68,0.413
		c-0.822,0.526-1.065,1.675-2.109,1.961C73.218,39.035,72.996,38.899,72.774,38.763z"/>
	<path fill="#D6E5F4" d="M81.983,47.242c0.015,0.445-0.219,0.762-0.518,1.06c-2.486,2.48-4.968,4.964-7.45,7.448
		c-0.259,0.259-0.532,0.475-0.922,0.467c-0.055-0.034-0.109-0.032-0.162,0.006c0.02-0.301,0.04-0.601,0.059-0.902
		c-0.008-0.836-0.016-1.671-0.025-2.507c0.017-0.191,0.034-0.381,0.052-0.572c0.027-0.206,0.054-0.412,0.081-0.618
		c0.649-0.009,0.95-0.539,1.351-0.911c1.64-1.522,3.055-3.278,4.842-4.647C80.268,46.276,80.907,47.26,81.983,47.242z"/>
	<path fill="#D6E5F4" d="M79.292,46.066c-1.787,1.369-3.202,3.125-4.842,4.647c-0.401,0.372-0.703,0.902-1.351,0.911
		c-0.006-0.511-0.012-1.022-0.018-1.533c2.022-1.214,3.577-2.903,4.902-4.826C78.419,45.532,78.855,45.799,79.292,46.066z"/>
	<path fill="#3C9A46" d="M73.08,50.091c0.006,0.511,0.012,1.022,0.018,1.533c-0.027,0.206-0.054,0.412-0.08,0.618
		c-1.075-0.068-1.771,0.727-2.588,1.195c-7.683,4.4-15.33,8.865-23.018,13.258c-3.974,2.271-7.821,4.77-11.956,6.756
		c-0.03-0.829-0.06-1.658-0.09-2.487c3.503-1.531,6.67-3.669,9.973-5.558c7.68-4.391,15.322-8.847,23.001-13.239
		c1.491-0.853,2.829-2.005,4.547-2.437C72.952,49.85,73.016,49.97,73.08,50.091z"/>
	<path fill="#086938" d="M35.456,73.451c4.135-1.986,7.982-4.485,11.956-6.756c7.687-4.393,15.334-8.858,23.018-13.258
		c0.817-0.468,1.513-1.263,2.588-1.195c-0.017,0.191-0.034,0.381-0.052,0.572c-0.757,0.409-1.524,0.8-2.268,1.23
		c-8.147,4.706-16.279,9.437-24.44,14.119c-3.61,2.071-7.125,4.315-10.873,6.142c0,0,0-0.001,0-0.001
		c0-0.205,0.001-0.41,0.001-0.615C35.412,73.611,35.435,73.531,35.456,73.451z"/>
	<path fill="#3C9A46" d="M35.385,74.305c3.749-1.827,7.263-4.07,10.873-6.142c8.161-4.682,16.293-9.413,24.44-14.119
		c0.744-0.43,1.511-0.821,2.268-1.23c0.008,0.836,0.016,1.671,0.025,2.507c-0.587-0.075-1.095,0.029-1.517,0.508
		c-0.617,0.7-1.456,1.102-2.25,1.56c-7.678,4.432-15.351,8.872-23.035,13.295c-3.574,2.057-7.167,4.081-10.752,6.121
		c0,0-0.062-0.06-0.062-0.06C35.378,75.931,35.382,75.118,35.385,74.305z"/>
	<path fill="#3C9A46" d="M73.093,56.217c0.002,0.512,0.003,1.025,0.005,1.537c-0.027,1.433-0.054,2.865-0.081,4.298
		c-0.512-0.019-0.946,0.092-1.422,0.374c-4.534,2.686-9.125,5.277-13.636,8.001c-1.314,0.793-2.895,1.225-3.86,2.556
		c-1.776,0.06-3.507,0.319-5.124,1.117c-1.417,0.699-2.517,1.669-2.892,3.282c-3.041,1.727-6.079,3.461-9.126,5.176
		c-0.483,0.272-1.012,0.463-1.52,0.692c-0.03-0.824-0.061-1.648-0.092-2.472c0,0,0.042-0.039,0.042-0.039
		c0.696-0.037,1.244-0.451,1.808-0.775c5.38-3.098,10.743-6.224,16.116-9.334c6.164-3.568,12.328-7.139,18.511-10.674
		c0.474-0.271,0.813-0.49,0.848-1.286c-1.803,1.032-3.469,1.977-5.127,2.937c-8.369,4.842-16.722,9.71-25.111,14.516
		c-2.287,1.311-4.455,2.853-6.949,3.787c-0.028-0.752-0.056-1.504-0.084-2.256c2.072-1.184,4.148-2.36,6.214-3.555
		c8.223-4.752,16.425-9.54,24.674-14.246c2.19-1.249,4.251-2.747,6.644-3.629C72.984,56.185,73.038,56.183,73.093,56.217z"/>
	<path fill="#086938" d="M72.931,56.223c-2.392,0.882-4.454,2.38-6.644,3.629c-8.249,4.706-16.452,9.493-24.674,14.246
		c-2.066,1.194-4.143,2.37-6.214,3.555c-0.022-0.087-0.045-0.174-0.068-0.261c0.035-0.196,0.07-0.391,0.106-0.587
		c3.585-2.039,7.178-4.063,10.752-6.12c7.683-4.423,15.357-8.863,23.035-13.295c0.794-0.458,1.633-0.86,2.25-1.56
		c0.422-0.479,0.93-0.583,1.517-0.508C72.971,55.622,72.951,55.922,72.931,56.223z"/>
	<path fill="#086938" d="M35.484,79.908c2.494-0.934,4.662-2.477,6.949-3.787c8.389-4.806,16.742-9.674,25.111-14.516
		c1.658-0.959,3.324-1.904,5.127-2.937c-0.035,0.796-0.375,1.015-0.848,1.286c-6.184,3.535-12.347,7.106-18.511,10.674
		c-5.373,3.11-10.737,6.236-16.116,9.334c-0.564,0.325-1.111,0.738-1.808,0.775c0.004-0.201,0.009-0.401,0.013-0.602
		C35.426,80.059,35.454,79.984,35.484,79.908z"/>
	<path fill="#F7D977" d="M48.981,76.152c0.101-0.039,0.168-0.11,0.201-0.214c0.135-0.136,0.27-0.271,0.405-0.407
		c2.936-1.342,5.876-1.597,8.825-0.041c0.089,0.021,0.178,0.037,0.269,0.049c0,0-0.012-0.009-0.012-0.009
		c0.141,0.236,0.355,0.331,0.623,0.32c0,0-0.015-0.008-0.015-0.008c0.772,1.295,1.014,2.546-0.304,3.668c0,0,0.015-0.01,0.015-0.01
		c-0.119,0.107-0.237,0.213-0.356,0.32c-2.941,1.156-5.883,1.39-8.824-0.001c-0.14-0.242-0.358-0.333-0.628-0.32
		c0,0,0.014,0.007,0.014,0.007C48.569,78.423,48.185,77.325,48.981,76.152z"/>
	<path fill="#3C9A46" d="M72.937,65.987c0.048,0.831,0.095,1.663,0.143,2.494c-0.057,1.169-1.3,1.128-1.84,1.804
		c-3.177,1.802-6.355,3.605-9.532,5.407c-1.022-0.653-2.043-1.306-3.065-1.959c0.435-0.127,0.914-0.177,1.298-0.395
		c2.123-1.208,4.192-2.514,6.339-3.678C68.507,68.452,70.55,66.906,72.937,65.987z"/>
	<path fill="#3C9A46" d="M73.13,62.335c-0.136,0.514-0.145,1.03-0.032,1.548c-0.036,0.415-0.071,0.831-0.107,1.246
		c-2.989,1.371-5.725,3.193-8.553,4.846c-2.037,1.191-4.237,2.123-6.054,3.678c-1.129-0.223-2.258-0.445-3.388-0.668
		c1.356-0.801,2.712-1.604,4.07-2.404c4.647-2.737,9.295-5.472,13.943-8.207L73.13,62.335z"/>
	<path fill="#086938" d="M73.01,62.376c-4.648,2.736-9.296,5.471-13.943,8.207c-1.358,0.799-2.713,1.602-4.07,2.404
		c-0.299-0.001-0.598-0.003-0.897-0.004c0.965-1.331,2.546-1.763,3.86-2.556c4.511-2.724,9.102-5.315,13.636-8.001
		c0.476-0.282,0.91-0.393,1.422-0.374C73.015,62.16,73.012,62.268,73.01,62.376z"/>
	<path fill="#086938" d="M58.384,73.654c1.817-1.555,4.017-2.487,6.054-3.678c2.828-1.653,5.564-3.475,8.553-4.846
		c-0.018,0.286-0.036,0.572-0.054,0.857c-2.386,0.919-4.429,2.465-6.658,3.673c-2.147,1.164-4.216,2.469-6.339,3.678
		c-0.383,0.218-0.863,0.267-1.298,0.395C58.55,73.727,58.464,73.701,58.384,73.654z"/>
	<path fill="#F5AA1D" d="M58.972,79.511c1.318-1.122,1.076-2.373,0.304-3.668c1.107,0.199,1.574,1.019,1.482,1.977
		C60.669,78.754,60.155,79.569,58.972,79.511z"/>
	<path fill="#F5AA1D" d="M48.981,76.152c-0.796,1.173-0.412,2.271,0.213,3.354c-1.013-0.224-1.559-0.834-1.549-1.89
		C47.653,76.735,48.04,76.187,48.981,76.152z"/>
	<path fill="#F5AA1D" d="M59.292,75.851c-0.268,0.011-0.482-0.084-0.623-0.32C58.927,75.539,59.166,75.584,59.292,75.851z"/>
	<path fill="#F5AA1D" d="M49.18,79.499c0.27-0.013,0.487,0.078,0.628,0.32C49.548,79.811,49.306,79.769,49.18,79.499z"/>
	<path fill="#F5AA1D" d="M49.587,75.532c-0.135,0.135-0.27,0.27-0.405,0.407C49.226,75.713,49.364,75.58,49.587,75.532z"/>
	<path fill="#F5AA1D" d="M58.632,79.82c0.119-0.107,0.237-0.213,0.356-0.32C58.869,79.607,58.75,79.713,58.632,79.82z"/>
	<path fill="#F5AA1D" d="M58.68,75.54c-0.09-0.012-0.18-0.029-0.269-0.049C58.538,75.307,58.614,75.401,58.68,75.54z"/>
	<path fill="#D6E5F4" d="M67.876,76.141c-0.198,0.137-0.396,0.273-0.595,0.41C67.349,76.227,67.595,76.158,67.876,76.141z"/>
	<path fill="#D6E5F4" d="M78.541,75.568c-1.001-0.243-2.002-0.486-3.002-0.728c-0.101-0.721,0.413-1.104,0.842-1.533
		c1.477-1.477,2.956-2.951,4.428-4.432c0.388-0.391,0.88-0.725,0.873-1.371c1.103,0.401,2.048,1.088,3.04,1.688
		C82.994,71.639,80.726,73.563,78.541,75.568z"/>
	<path fill="#D6E5F4" d="M88.713,71.553c-2.205,2.469-4.573,4.776-6.996,7.029c-0.43-0.962-1.185-1.655-1.944-2.346
		c1.912-2.246,4.013-4.304,6.228-6.249C86.974,70.39,87.876,70.916,88.713,71.553z"/>
	<path fill="#F6C843" d="M105.018,55.588c-1.623,0.023-2.954-0.711-2.77-1.528c0.314-1.397,1.57-1.476,2.666-1.445
		c1.032,0.029,2.439,0.137,2.403,1.506C107.281,55.461,105.873,55.417,105.018,55.588z"/>
	<path fill="#D6E5F4" d="M81.682,67.502c0.006,0.646-0.485,0.98-0.873,1.371c-1.472,1.482-2.952,2.955-4.428,4.432
		c-0.429,0.429-0.943,0.812-0.842,1.533c-0.629,0.054-1.25,0.043-1.846-0.203c1.848-2.243,4.068-4.125,6.054-6.234
		c0.408-0.433,0.993-0.755,1.005-1.464C81.062,67.126,81.372,67.314,81.682,67.502z"/>
	<path fill="#D6E5F4" d="M86.001,69.987c-2.215,1.945-4.316,4.002-6.228,6.249c-0.411-0.223-0.822-0.446-1.233-0.668
		c2.185-2.005,4.453-3.929,6.181-6.377C85.148,69.456,85.575,69.722,86.001,69.987z"/>
	<path fill="#F7D977" d="M79.125,80.731c-0.073,0.077-0.145,0.155-0.218,0.233c-0.129,0.13-0.258,0.259-0.388,0.387
		c-2.966,1.464-5.978,1.57-9.037,0.306c-0.128-0.107-0.255-0.214-0.382-0.32c0,0,0.017,0.011,0.017,0.011
		c-0.139-0.244-0.348-0.346-0.625-0.315c0,0,0.01,0.004,0.01,0.004c-0.439-1.118-0.465-2.236,0-3.353c0,0-0.01,0.004-0.01,0.004
		c0.277,0.032,0.487-0.071,0.625-0.315c0,0-0.015,0.013-0.015,0.013c0.095-0.005,0.189-0.018,0.281-0.04
		c3.047-1.664,6.088-1.444,9.128,0.025c0.133,0.106,0.265,0.212,0.397,0.318c0,0-0.014-0.013-0.014-0.013
		c0.106,0.106,0.212,0.212,0.318,0.318c0,0-0.013-0.006-0.013-0.006C79.553,78.913,79.712,79.832,79.125,80.731z"/>
	<path fill="#F5AA1D" d="M68.501,77.684c-0.465,1.118-0.439,2.235,0,3.353c-1.039-0.14-1.233-0.938-1.213-1.75
		C67.306,78.532,67.534,77.79,68.501,77.684z"/>
	<path fill="#F5AA1D" d="M79.125,80.731c0.587-0.899,0.428-1.818,0.075-2.742c0.917,0.077,1.207,0.765,1.158,1.482
		C80.314,80.111,79.995,80.763,79.125,80.731z"/>
	<path fill="#F5AA1D" d="M69.117,77.373c-0.138,0.244-0.348,0.347-0.625,0.315C68.617,77.418,68.855,77.372,69.117,77.373z"/>
	<path fill="#F5AA1D" d="M68.491,81.033c0.277-0.032,0.487,0.071,0.625,0.315C68.855,81.348,68.617,81.301,68.491,81.033z"/>
	<path fill="#F5AA1D" d="M69.383,77.346c-0.093,0.021-0.186,0.035-0.281,0.04C69.174,77.22,69.26,77.156,69.383,77.346z"/>
	<path fill="#F5AA1D" d="M78.908,77.689c-0.132-0.106-0.264-0.212-0.397-0.318C78.642,77.477,78.775,77.583,78.908,77.689z"/>
	<path fill="#F5AA1D" d="M79.212,77.994c-0.106-0.106-0.212-0.212-0.318-0.318C79,77.782,79.106,77.888,79.212,77.994z"/>
	<path fill="#F5AA1D" d="M78.519,81.351c0.129-0.129,0.258-0.258,0.388-0.387C78.777,81.092,78.648,81.221,78.519,81.351z"/>
	<path fill="#F5AA1D" d="M69.1,81.337c0.127,0.107,0.254,0.213,0.382,0.32C69.355,81.55,69.228,81.444,69.1,81.337z"/>
	<path fill="#086938" d="M37.863,50.313c-0.288-0.225-0.577-0.45-0.865-0.675c-0.091-0.388-0.481-0.81-0.214-1.159
		c0.841-1.095-0.172-1.32-0.75-1.763c0.525-0.578,1.112-0.931,1.831-0.336c0.613,0.508,1.135,0.092,1.698-0.078
		c0.517-0.157,1.062-0.487,1.556,0.047c0.298,0.323,0.561,0.668-0.131,0.851c-0.099,0.026-0.198,0.049-0.294,0.083
		c-0.782,0.275-2.121,0.346-1.894,1.327c0.253,1.093,1.57,0.625,2.407,0.483c1.607-0.274,3.181-0.759,4.832-0.351
		c0.894,0.411,1.777,0.833,1.953,1.959c0.119,0.528-1.218,1.16,0.113,1.603c0.517,0.848,0.315,1.059-1.057,1.103
		c-0.498-0.568-1.045-0.68-1.749-0.323c-0.441,0.224-0.961,0.298-1.451,0.416c-0.555,0.134-0.952-0.207-1.049-0.646
		c-0.127-0.577,0.485-0.458,0.811-0.586c0.562-0.219,1.149-0.386,1.689-0.649c0.349-0.17,0.75-0.434,0.614-0.922
		c-0.123-0.44-0.534-0.598-0.954-0.636c-0.966-0.087-1.926-0.079-2.831,0.348C40.702,50.567,39.273,50.871,37.863,50.313z"/>
</g>
</svg>
