<?xml version="1.0" encoding="utf-8"?>
<!-- Generator: Adobe Illustrator 17.0.0, SVG Export Plug-In . SVG Version: 6.00 Build 0)  -->
<!DOCTYPE svg PUBLIC "-//W3C//DTD SVG 1.1//EN" "http://www.w3.org/Graphics/SVG/1.1/DTD/svg11.dtd">
<svg version="1.1" id="Layer_1" xmlns="http://www.w3.org/2000/svg" xmlns:xlink="http://www.w3.org/1999/xlink" x="0px" y="0px"
	 width="143px" height="150px" viewBox="0 0 143 150" enable-background="new 0 0 143 150" xml:space="preserve">
<g>
	<path fill="#1BB899" d="M33.84,13.134c-0.021-0.2-0.041-0.399-0.062-0.599c0.038-0.098,0.076-0.196,0.114-0.293
		c0,0,0.038,0.012,0.038,0.012c4.723,2.708,9.454,5.403,14.167,8.128c7.434,4.299,14.852,8.626,22.285,12.926
		c6.702,3.877,13.396,7.769,20.144,11.565c1.097,0.617,1.34,1.307,1.338,2.453c-0.029,21.561-0.017,43.121-0.024,64.682
		c-0.003,11.109-0.026,22.218-0.039,33.328c-0.385-0.039-0.541-0.328-0.672-0.632c-1.452-3.368-2.902-6.737-4.353-10.105
		c0.975-0.323,0.815-1.153,0.815-1.884c0.006-13.603-0.009-27.205,0.032-40.808c0.003-1.054-0.387-1.644-1.232-2.126
		c-4.528-2.584-9.052-5.174-13.564-7.786c-4.023-2.329-8.028-4.689-12.04-7.035c0.038-0.648-0.369-1.142-0.585-1.703
		c-1.056-2.74-2.546-5.299-3.38-8.132c2.304,0.31,3.106-0.362,3.134-2.698c0.028-2.298,0-4.596,0.023-6.894
		c0.004-0.399-0.227-1.04,0.614-0.927c0.301,0.041,0.677,0.24,0.753-0.291c0.058-0.401-0.041-0.723-0.432-0.943
		c-1.25-0.703-2.489-1.424-3.754-2.15c-0.325,0.672-0.248,1.177,0.266,1.466c0.841,0.473,0.894,1.196,0.88,2.033
		c-0.038,2.157-0.012,4.315-0.028,6.472c-0.017,2.273-0.882,2.761-2.861,1.63c-0.535-2.433-1.72-4.593-2.843-6.78
		c-0.019-1.677-0.052-3.355-0.044-5.032c0.002-0.329-0.236-0.969,0.562-0.743c0.312,0.089,0.652,0.275,0.762-0.237
		c0.101-0.469-0.073-0.814-0.505-1.035c-0.987-0.505-2.012-0.951-2.944-1.543c-1.042-0.661-0.994-0.076-0.908,0.67
		c-0.143-0.178-0.334-0.334-0.422-0.536c-4.284-9.876-8.534-19.767-12.858-29.626C35.5,16.324,35.196,14.462,33.84,13.134z
		 M67.586,64.108c-0.005,0-0.01,0-0.015,0c0,1.551,0.01,3.102-0.007,4.653c-0.004,0.367,0.187,0.95-0.577,0.775
		c-0.293-0.067-0.64-0.375-0.797,0.148c-0.119,0.399,0.006,0.777,0.37,0.98c2.091,1.159,4.029,2.622,6.294,3.431
		c1.77,0.632,3.336-0.208,3.599-2.063c0.655-4.611,0.129-9.363-5.07-12.6c-1.354-0.843-2.753-1.617-4.145-2.399
		c-0.288-0.161-0.62-0.636-0.96-0.204c-0.309,0.392-0.097,0.9,0.289,1.091c1.126,0.557,1.048,1.523,1.024,2.523
		C67.564,61.664,67.586,62.886,67.586,64.108z M80.274,72.142c1.624,0.908,3.071,1.718,4.537,2.539
		c0.425-1.01,0.049-1.518-0.73-1.924c-1.04-0.543-2.036-1.169-3.058-1.747c-0.421-0.238-0.772-0.457-0.751-1.051
		c0.044-1.203,0.013-2.408,0.013-3.859c1.457,0.833,2.69,1.575,3.958,2.249c0.607,0.322,0.939,0.71,0.872,1.425
		c-0.099,1.06,0.525,1.481,1.557,1.665c0-0.511-0.064-0.941,0.012-1.346c0.254-1.36-0.312-2.148-1.525-2.765
		c-1.84-0.935-3.59-2.045-5.384-3.072c-0.784-0.449-1.582-0.875-2.412-1.332c-0.262,0.818-0.035,1.261,0.506,1.613
		c0.393,0.256,0.741,0.54,0.738,1.109c-0.017,3.422-0.008,6.844-0.008,10.179c-0.5,0.4-1.115-0.597-1.374,0.271
		c-0.185,0.619,0.293,0.924,0.768,1.181c0.247,0.134,0.484,0.29,0.728,0.43c2.077,1.193,4.149,2.395,6.236,3.57
		c0.51,0.287,1.054,0.987,1.583,0.641c0.481-0.315,0.118-1.133,0.19-1.725c0.099-0.817-0.047-1.591-0.957-1.763
		c-0.963-0.183-0.279,1.024-0.963,1.257c-1.287-0.742-2.623-1.521-3.968-2.283c-0.35-0.198-0.584-0.411-0.576-0.864
		C80.288,75.144,80.274,73.749,80.274,72.142z M64.179,46.681c0.072-0.255,0.15-0.388,0.137-0.51
		c-0.131-1.237-0.763-2.579,1.041-3.267c0.503-0.192,0.207-0.799-0.179-1.014c-1.627-0.905-2.46-2.324-2.896-4.08
		c-0.184-0.739-0.676-0.98-1.054-0.103c-0.435,1.011-1.026,1.149-1.95,0.637c-0.275-0.152-0.69-0.553-0.995-0.2
		c-0.344,0.397,0.079,0.792,0.293,1.122c0.753,1.161,1.387,2.298,0.859,3.784c-0.27,0.76,0.147,1.376,1.009,1.212
		c1.18-0.225,1.824,0.359,2.443,1.201C63.209,45.902,63.51,46.404,64.179,46.681z M61.796,53.881
		c-0.372,0.772-0.198,1.255,0.366,1.589c0.591,0.349,0.812,0.852,0.803,1.522c-0.038,3.009-0.055,6.018-0.091,9.027
		c-0.004,0.353,0.065,0.81-0.533,0.775c-0.314-0.019-0.676-0.17-0.754,0.343c-0.076,0.496,0.165,0.781,0.575,1.01
		c1.183,0.662,2.354,1.345,3.547,2.03c0.411-0.763,0.125-1.232-0.439-1.613c-0.5-0.338-0.762-0.763-0.749-1.409
		c0.062-3.055,0.081-6.111,0.131-9.167c0.005-0.325-0.146-0.835,0.512-0.738c0.282,0.042,0.654,0.383,0.75-0.202
		c0.062-0.381,0.047-0.754-0.353-0.985C64.31,55.34,63.061,54.614,61.796,53.881z"/>
	<path fill="#32DD9F" d="M56.822,65.123c0.834,2.832,2.324,5.392,3.38,8.132c0.216,0.561,0.623,1.055,0.585,1.704
		c-2.323-1.322-4.648-2.638-6.967-3.966c-4.751-2.721-9.492-5.456-14.25-8.164c-0.947-0.539-1.81-0.058-1.62,1.03
		c0.233,1.331-0.176,2.611-0.029,3.889c0.343,2.976,0.076,5.971,0.088,8.934c0.01,2.578,0.001,5.212-0.015,7.802
		c-0.018,3.06-0.005,6.154,0.017,9.213c0.017,2.384,0.287,4.825-0.078,7.242c-0.222,1.472,0.16,2.994,0.135,4.474
		c-0.016,0.927,0.187,1.352,0.922,1.768c2.611,1.479,5.196,3.006,7.794,4.509c5.72,3.309,11.441,6.616,17.165,9.919
		c5.436,3.136,10.862,6.289,16.319,9.388c2.155,1.224,4.216,2.625,6.509,3.601c1.451,3.369,2.901,6.738,4.353,10.105
		c0.131,0.305,0.287,0.593,0.673,0.632c-0.014,0.221-0.029,0.443-0.043,0.665c-2.178-0.829-3.989-2.345-6.117-3.268
		c-0.204-0.121-0.409-0.242-0.613-0.364c-0.859-0.639-1.778-1.172-2.76-1.598c-0.368-0.217-0.736-0.435-1.104-0.652
		c-0.917-0.611-1.832-1.226-2.87-1.622c-0.217-0.286-0.516-0.44-0.857-0.525c-0.788-0.581-1.626-1.074-2.534-1.442
		c-0.209-0.123-0.417-0.246-0.626-0.369c-0.865-0.625-1.774-1.173-2.756-1.597c-0.367-0.214-0.734-0.427-1.1-0.641
		c-0.905-0.629-1.831-1.222-2.865-1.624c-0.213-0.292-0.518-0.435-0.854-0.526c-0.79-0.58-1.627-1.076-2.537-1.443
		c-0.212-0.126-0.425-0.251-0.637-0.377c-0.997-0.581-1.994-1.163-2.99-1.743c-0.287-0.161-0.573-0.321-0.86-0.482
		c-0.757-0.576-1.572-1.052-2.454-1.413c-0.419-0.249-0.838-0.497-1.257-0.746c-0.713-0.405-1.426-0.81-2.14-1.214
		c-0.283-0.32-0.649-0.495-1.052-0.608c-0.932-0.68-1.928-1.25-2.976-1.731c-0.288-0.162-0.576-0.324-0.864-0.486
		c-0.765-0.57-1.574-1.064-2.463-1.421c-0.414-0.248-0.827-0.497-1.241-0.745c-0.929-0.532-1.859-1.064-2.788-1.596
		c-0.141-0.076-0.283-0.152-0.424-0.228c-0.927-0.675-1.914-1.247-2.96-1.718c-0.238-0.254-0.516-0.437-0.866-0.494
		c-0.767-0.575-1.579-1.071-2.473-1.425c-0.408-0.247-0.816-0.495-1.224-0.742c-1.305-0.666-0.533-1.928-0.827-2.884
		c-0.005-0.376-0.01-0.751-0.015-1.127c0.005-1.508,0.01-3.015,0.015-4.523c-0.005-0.376-0.01-0.751-0.015-1.127
		c0.005-1.508,0.01-3.015,0.015-4.523c-0.005-0.376-0.01-0.751-0.015-1.127c0.005-1.508,0.01-3.015,0.015-4.523
		c-0.005-0.376-0.01-0.751-0.015-1.127c0.005-1.508,0.01-3.015,0.015-4.523c-0.005-0.376-0.01-0.751-0.015-1.127
		c0.005-1.508,0.01-3.015,0.015-4.523c-0.005-0.376-0.01-0.751-0.015-1.127c0.005-1.508,0.01-3.015,0.015-4.523
		c-0.005-0.376-0.01-0.751-0.015-1.127c0.005-1.508,0.01-3.015,0.015-4.523c-0.005-0.376-0.01-0.751-0.015-1.127
		c0.005-1.508,0.01-3.015,0.015-4.523c-0.005-0.376-0.01-0.751-0.015-1.127c0.005-1.508,0.01-3.015,0.015-4.523
		c-0.005-0.376-0.01-0.751-0.015-1.127c0.005-1.508,0.01-3.015,0.015-4.523c-0.005-0.376-0.01-0.751-0.015-1.127
		c0.005-1.508,0.01-3.015,0.015-4.523c-0.005-0.376-0.01-0.751-0.015-1.127c0.005-1.508,0.01-3.015,0.015-4.523
		c-0.005-0.376-0.01-0.751-0.015-1.127c0.005-1.508,0.01-3.015,0.015-4.523c-0.005-0.376-0.01-0.751-0.015-1.127
		c0.005-1.508,0.01-3.015,0.015-4.523c-0.005-0.376-0.01-0.751-0.015-1.127c0.005-1.508,0.01-3.015,0.015-4.523
		c-0.005-0.376-0.01-0.751-0.015-1.127c0.005-1.508,0.01-3.015,0.015-4.523c-0.005-0.376-0.01-0.751-0.015-1.127
		c0.005-1.508,0.01-3.015,0.015-4.523c-0.005-0.375-0.01-0.749-0.015-1.124c0.063-0.005,0.125,0.003,0.186,0.023
		c1.356,1.328,1.66,3.19,2.377,4.826c4.324,9.858,8.574,19.749,12.858,29.626c0.087,0.202,0.279,0.358,0.422,0.536
		c0,0-0.015-0.007-0.015-0.007c0.045,1.198,0.798,2.097,1.311,3.097c0.015,2.01,0.047,4.02,0.039,6.03
		c-0.007,1.866,0.676,3.454,1.819,4.889C53.762,63.525,55.216,64.425,56.822,65.123z M48.298,50.005
		c0.008-1.018,0.342-2.036-0.336-2.979c-1.142-1.589-2.493-2.926-4.297-3.76c-2.621-1.212-4.581-0.139-4.906,2.751
		c-0.36,3.199,0.336,6.163,2.147,8.843c1.22,1.806,2.831,3.135,4.901,3.85c2.068,0.714,2.741,0.23,2.746-1.905
		c0.001-0.517-0.084-1.05,0.012-1.548c0.25-1.3-0.338-2.064-1.484-2.477c-0.709-0.256-1.588-1.365-2.002-0.786
		c-0.758,1.06,0.643,1.351,1.27,1.874c1.038,0.864,0.689,2.122,0.401,2.987c-0.286,0.858-1.317,0.195-1.944-0.093
		c-4.168-1.915-5.079-7.367-4.096-10.688c0.289-0.977,0.99-1.623,2.098-1.511c1.822,0.184,3.802,2.065,4.165,3.878
		C47.118,49.172,47.204,49.97,48.298,50.005z"/>
	<path fill="#108A89" d="M91.759,146c0.015-0.222,0.029-0.443,0.043-0.665c0.013-11.109,0.036-22.218,0.039-33.327
		c0.006-21.561-0.006-43.121,0.024-64.682c0.002-1.146-0.241-1.836-1.338-2.453c-6.748-3.796-13.442-7.688-20.144-11.565
		c-7.433-4.3-14.851-8.628-22.285-12.926c-4.713-2.725-9.444-5.42-14.167-8.128c0.665-0.457,1.33-0.914,1.996-1.371
		c1.205-0.46,2.272-1.17,3.352-1.855c2.627-1.53,5.265-3.042,7.875-4.602c0.882-0.527,1.598-0.604,2.542-0.007
		c1.933,1.221,3.972,2.274,5.968,3.396c0.183,0.112,0.365,0.223,0.548,0.335c0.892,0.61,1.796,1.199,2.806,1.604
		c0.399,0.245,0.798,0.49,1.196,0.735c0.933,0.521,1.866,1.043,2.799,1.564c0.228,0.272,0.514,0.446,0.864,0.513
		c0.785,0.582,1.614,1.087,2.527,1.446c0.189,0.116,0.378,0.232,0.568,0.348c0.884,0.617,1.794,1.188,2.795,1.6
		c0.369,0.227,0.739,0.453,1.108,0.68c0.959,0.537,1.918,1.073,2.877,1.61c0.224,0.278,0.513,0.446,0.861,0.515
		c0.785,0.585,1.616,1.087,2.53,1.445c0.195,0.12,0.389,0.239,0.584,0.359c0.879,0.621,1.791,1.182,2.787,1.598
		c0.369,0.22,0.738,0.44,1.107,0.66c0.913,0.616,1.834,1.218,2.869,1.619c0.217,0.286,0.511,0.448,0.857,0.521
		c0.79,0.578,1.619,1.087,2.534,1.444c0.2,0.122,0.4,0.245,0.6,0.367c0.878,0.616,1.788,1.177,2.778,1.597
		c0.368,0.215,0.736,0.431,1.104,0.646c0.81,0.467,1.619,0.933,2.429,1.4c0.43,0.248,0.86,0.497,1.29,0.745
		c0.804,0.555,1.605,1.115,2.537,1.444c0.205,0.125,0.41,0.25,0.615,0.376c1.004,0.585,2.007,1.17,3.011,1.754
		c0.287,0.158,0.573,0.317,0.86,0.475c0.756,0.569,1.565,1.045,2.441,1.407c0.303,0.177,0.606,0.354,0.909,0.531
		c0.035,1.306,0.071,2.613,0.106,3.919c0.004,0.473,0.009,0.946,0.013,1.418c-0.004,1.41-0.009,2.821-0.013,4.231
		c0.004,0.473,0.009,0.946,0.013,1.418c-0.004,1.41-0.009,2.821-0.013,4.231c0.004,0.473,0.009,0.946,0.013,1.418
		c-0.004,1.41-0.009,2.821-0.013,4.231c0.004,0.473,0.009,0.946,0.013,1.418c-0.004,1.41-0.009,2.821-0.013,4.231
		c0.004,0.473,0.009,0.946,0.013,1.418c-0.004,1.41-0.009,2.821-0.013,4.231c0.004,0.473,0.009,0.946,0.013,1.418
		c-0.03,1.41-0.06,2.82-0.09,4.23c-0.736-0.409-1.472-0.818-2.208-1.226c0.008-0.908,0.016-1.816,0.024-2.725
		c0.598,0.061,0.975,0.72,1.647,0.633c0-5.217,0-10.407,0-15.598c-0.213-0.879-1.234-0.795-1.673-1.403
		c0.001-5.029-0.019-10.058,0.025-15.087c0.008-0.876-0.298-1.395-1.029-1.795c-1.605-0.879-3.197-1.781-4.783-2.694
		c-7.603-4.377-15.204-8.757-22.801-13.143c-8.49-4.901-16.979-9.804-25.456-14.729c-0.627-0.365-1.034-0.332-1.391,0.286
		c-0.886,0.059-1.513,0.635-2.197,1.098c-0.476,0.28-0.951,0.56-1.427,0.84c-0.711,0.28-1.371,0.649-1.965,1.134
		c-0.429,0.252-0.858,0.504-1.287,0.757c-0.939,0.401-1.845,0.851-2.637,1.612c0.48,0.294,0.874,0.547,1.28,0.781
		c17.296,9.985,34.586,19.979,51.904,29.924c1.09,0.626,1.451,1.296,1.447,2.538c-0.045,13.971-0.022,27.943-0.022,41.915
		c0,18.488-0.005,36.975-0.008,55.463c0,0.744,0.067,1.511-0.688,1.994C92.747,145.695,92.253,145.848,91.759,146z"/>
	<path fill="#E6E9E9" d="M93.241,145.543c0.755-0.483,0.687-1.25,0.688-1.994c0.003-18.488,0.008-36.975,0.008-55.463
		c0-13.972-0.023-27.943,0.022-41.915c0.004-1.242-0.356-1.912-1.447-2.538c-17.318-9.945-34.609-19.94-51.904-29.924
		c-0.406-0.234-0.8-0.488-1.28-0.781c0.792-0.76,1.698-1.211,2.637-1.611c2.696,1.58,5.385,3.17,8.087,4.736
		c4.417,2.56,8.84,5.11,13.266,7.654c5.279,3.035,10.571,6.046,15.843,9.092c5.595,3.233,11.163,6.513,16.772,9.72
		c0.776,0.444,1.15,0.949,0.984,1.783c-0.407,2.048,0.177,4.089,0.004,6.132c-0.302,0.174-0.256,0.474-0.255,0.746
		c0.013,5.01,0.03,10.019,0.046,15.029c0.073,0.187,0.146,0.374,0.219,0.561c-0.284,1.479,0.084,2.977-0.049,4.434
		c-0.271,2.975-0.073,5.964-0.074,8.919c-0.001,2.573,0.001,5.203,0.015,7.787c0.016,3.053-0.001,6.145-0.017,9.197
		c-0.013,2.617,0.009,5.297,0.019,7.927c0.011,3.007-0.007,6.053-0.017,9.056c-0.008,2.522-0.009,5.107,0.018,7.646
		c0.032,3.052-0.031,6.146-0.036,9.196c-0.006,3.522-0.181,7.077,0.143,10.605c0.029,0.317,0.179,0.622,0.273,0.933
		c-0.822,1.159-1.947,2.029-2.916,3.047C93.976,145.849,93.603,146.056,93.241,145.543z"/>
	<path fill="#F0F0F0" d="M100.035,140.208c-0.015,0.572,0.159,1.276-0.885,0.919c-0.526-0.18-0.813,0.55-1.347,0.523
		c-0.003-24.792-0.006-49.583-0.009-74.375c0.812,0.298,1.535,0.756,2.232,1.258c0.067,0.976-0.04,1.94-0.219,2.897
		c0.008,0.56,0.019,1.12,0.023,1.68c0.03,4.666,0.058,9.332,0.086,13.998c-0.061,0.057-0.1,0.127-0.114,0.21
		c0.042,2.279,0.014,4.583,0.103,6.832c0.108,2.741,0.027,5.493,0.029,8.219c0.002,2.82-0.017,5.681-0.021,8.496
		c-0.004,2.813,0.023,5.673,0.027,8.495c0.005,2.915-0.042,5.871-0.028,8.777c0.015,3.148-0.262,6.329,0.109,9.485
		C100.121,138.475,99.404,139.346,100.035,140.208z"/>
	<path fill="#108A89" d="M106.575,132.883c-0.004,1.41-0.008,2.821-0.011,4.231c-0.046,1.097-1.205,0.99-1.715,1.586
		c-0.185,0.024-0.37,0.047-0.555,0.071c-0.003-16.246-0.005-32.492-0.008-48.738c0.75,0.445,1.5,0.89,2.251,1.335
		c0.013,0.656,0.026,1.313,0.038,1.969c-0.004,1.41-0.009,2.821-0.013,4.231c0.004,0.473,0.009,0.946,0.013,1.418
		c-0.004,1.41-0.009,2.821-0.013,4.231c0.004,0.473,0.009,0.946,0.013,1.418c-0.004,1.41-0.009,2.821-0.013,4.231
		c0.004,0.473,0.009,0.946,0.013,1.418c-0.004,1.41-0.009,2.821-0.013,4.231c0.004,0.473,0.009,0.946,0.013,1.418
		c-0.004,1.41-0.009,2.821-0.013,4.231c0.004,0.473,0.009,0.946,0.013,1.418c-0.004,1.41-0.009,2.821-0.013,4.231
		c0.004,0.473,0.009,0.946,0.013,1.418c-0.004,1.41-0.009,2.821-0.013,4.231C106.567,131.938,106.571,132.41,106.575,132.883z"/>
	<path fill="#FB9307" d="M99.916,87.109c-0.029-4.666-0.057-9.332-0.086-13.998c-0.004-0.56-0.015-1.12-0.023-1.68
		c0.438-0.118,0.707,0.281,1.083,0.352c0.709,0.462,1.391,0.971,2.212,1.23c0.309,0.378,0.749,0.544,1.176,0.729
		c0.736,0.409,1.472,0.818,2.208,1.226c0.128,0.237,0.358,0.291,0.595,0.334c0.085,0.23,0.285,0.26,0.49,0.279
		c0.499,0.366,0.999,0.733,1.498,1.099c-2.077,2.865-4.528,5.414-6.849,8.072C101.504,85.574,101.077,86.713,99.916,87.109z"/>
	<path fill="#FAB00D" d="M99.916,87.109c1.161-0.396,1.588-1.535,2.305-2.356c2.32-2.658,4.772-5.208,6.849-8.072
		c0.453,0.398,0.055,0.96,0.272,1.403c0.001,0.47,0.003,0.941,0.004,1.411c-0.001,1.413-0.003,2.826-0.004,4.238
		c0.001,0.47,0.003,0.941,0.004,1.411c-0.001,1.413-0.003,2.826-0.004,4.238c0.001,0.47,0.003,0.941,0.004,1.411
		c-0.038,0.593-0.075,1.186-0.113,1.782c-0.533,0.181-0.826-0.373-1.282-0.385c-0.406-0.386-0.88-0.656-1.413-0.824
		c-0.75-0.445-1.501-0.89-2.251-1.335c-0.374-0.207-0.747-0.414-1.121-0.621c-0.68-0.481-1.334-1.015-2.208-1.113
		c-0.206-0.538-0.832-0.581-1.155-0.98C99.816,87.236,99.855,87.166,99.916,87.109z"/>
	<path fill="#DBD9DA" d="M97.794,67.275c0.003,24.792,0.006,49.583,0.009,74.375c-0.032,0.394,0.002,0.837-0.595,0.82
		c-0.094-0.311-0.244-0.616-0.273-0.933c-0.325-3.529-0.15-7.083-0.143-10.605c0.005-3.05,0.068-6.144,0.036-9.196
		c-0.027-2.539-0.026-5.124-0.018-7.646c0.01-3.003,0.028-6.049,0.017-9.056c-0.009-2.63-0.032-5.31-0.019-7.927
		c0.016-3.052,0.033-6.143,0.017-9.197c-0.014-2.584-0.016-5.214-0.015-7.787c0.001-2.954-0.197-5.944,0.074-8.919
		c0.133-1.457-0.236-2.955,0.049-4.434C97.219,66.939,97.507,67.107,97.794,67.275z"/>
	<path fill="#32DD9F" d="M103.165,89.412c0.374,0.207,0.747,0.414,1.121,0.621c0.003,16.246,0.005,32.492,0.008,48.738
		c-0.275-0.094-0.55-0.188-0.825-0.282c-0.651-0.858-0.139-1.877-0.385-2.792c0.003-1.499,0.006-2.999,0.008-4.498
		c-0.003-0.384-0.005-0.768-0.008-1.152c0.003-1.499,0.005-2.998,0.008-4.497c-0.003-0.384-0.005-0.768-0.008-1.152
		c0.003-1.499,0.005-2.998,0.008-4.497c-0.003-0.384-0.005-0.768-0.008-1.152c0.003-1.499,0.005-2.998,0.008-4.497
		c-0.003-0.384-0.005-0.768-0.008-1.152c0.003-1.499,0.005-2.998,0.008-4.497c-0.003-0.384-0.006-0.768-0.008-1.152
		c0.003-1.499,0.005-2.998,0.008-4.497c-0.003-0.384-0.005-0.768-0.008-1.152c0.003-1.499,0.005-2.998,0.008-4.497
		c-0.003-0.384-0.005-0.768-0.008-1.152c0.003-1.499,0.005-2.998,0.008-4.497c-0.002-0.383-0.004-0.766-0.006-1.149
		C103.113,90.14,103.139,89.776,103.165,89.412z"/>
	<path fill="#DBD9DA" d="M99.801,87.319c0.323,0.399,0.95,0.442,1.154,0.981c-0.023,1.206-0.045,2.411-0.067,3.616
		c0.008,0.384,0.016,0.767,0.024,1.151c-0.007,1.498-0.014,2.997-0.021,4.495c0.007,0.479,0.014,0.957,0.021,1.436
		c-0.007,1.405-0.014,2.809-0.021,4.214c0.007,0.479,0.014,0.957,0.021,1.436c-0.007,1.405-0.014,2.809-0.021,4.214
		c0.007,0.385,0.014,0.77,0.021,1.155c-0.007,1.498-0.014,2.997-0.021,4.495c0.007,0.385,0.014,0.77,0.021,1.154
		c-0.007,1.498-0.014,2.997-0.021,4.495c0.007,0.385,0.014,0.77,0.021,1.155c-0.007,1.498-0.014,2.997-0.021,4.495
		c0.007,0.385,0.014,0.77,0.021,1.154c-0.007,1.498-0.014,2.997-0.021,4.495c0.007,0.479,0.014,0.957,0.021,1.436
		c0.067,1.411-0.292,2.846,0.246,4.23c-0.001,0.464-0.001,0.927-0.001,1.391c-0.185,0.373-0.313,0.763-0.265,1.185
		c0.094,0.821-0.428,0.582-0.858,0.507c-0.63-0.862,0.086-1.733-0.014-2.587c-0.371-3.156-0.095-6.336-0.109-9.485
		c-0.013-2.906,0.033-5.861,0.028-8.777c-0.005-2.821-0.031-5.682-0.027-8.495c0.004-2.814,0.023-5.676,0.021-8.496
		c-0.002-2.726,0.079-5.478-0.029-8.219C99.815,91.902,99.843,89.598,99.801,87.319z"/>
	<path fill="#E6E9E9" d="M101.157,138.516c0-0.464,0.001-0.927,0.002-1.391c0.751-0.329,1.033-1.29,1.925-1.428
		c0.246,0.914-0.266,1.933,0.385,2.792C102.715,139.886,101.927,138.408,101.157,138.516z"/>
	<path fill="#32DD9F" d="M33.893,12.242c-0.038,0.098-0.076,0.196-0.114,0.293C33.676,12.383,33.747,12.298,33.893,12.242z"/>
	<path fill="#51F8B7" d="M86.777,134.598c-2.293-0.976-4.353-2.377-6.509-3.601c-5.457-3.099-10.884-6.251-16.319-9.388
		c-5.724-3.303-11.445-6.61-17.165-9.919c-2.598-1.503-5.183-3.03-7.794-4.509c-0.735-0.417-0.938-0.841-0.922-1.768
		c0.025-1.48-0.357-3.002-0.135-4.474c0.365-2.417,0.094-4.857,0.078-7.242c-0.021-3.06-0.035-6.154-0.017-9.213
		c0.015-2.59,0.025-5.224,0.015-7.802c-0.012-2.963,0.255-5.958-0.088-8.934c-0.147-1.278,0.262-2.558,0.029-3.889
		c-0.191-1.088,0.673-1.569,1.62-1.03c4.758,2.707,9.5,5.443,14.25,8.164c2.319,1.328,4.645,2.645,6.967,3.966
		c4.013,2.346,8.018,4.706,12.04,7.035c4.512,2.612,9.036,5.202,13.564,7.786c0.845,0.482,1.235,1.072,1.232,2.126
		c-0.04,13.603-0.025,27.205-0.032,40.808C87.591,133.445,87.751,134.275,86.777,134.598z M86.672,116.207c0-0.749,0-1.498,0-2.247
		c-0.006-0.477-0.012-0.954-0.017-1.43c0.006-1.406,0.011-2.811,0.017-4.217c-0.006-0.477-0.011-0.955-0.017-1.432
		c0.006-1.406,0.011-2.811,0.017-4.217c-0.006-0.477-0.011-0.955-0.017-1.432c0.006-1.406,0.011-2.811,0.017-4.217
		c-0.006-0.477-0.011-0.955-0.017-1.432c0.006-1.405,0.012-2.811,0.018-4.216c-0.049-0.624-0.551-0.742-1.012-0.906
		c-0.783-0.553-1.582-1.076-2.483-1.423c-0.337-0.365-0.763-0.585-1.223-0.751c-0.931-0.522-1.862-1.044-2.793-1.564
		c-0.204-0.134-0.408-0.268-0.612-0.402c-0.923-0.52-1.847-1.041-2.77-1.561c-0.226-0.272-0.508-0.447-0.859-0.505
		c-1.233-0.722-2.467-1.444-3.7-2.165c-0.896-0.586-1.789-1.177-2.795-1.568c-0.205-0.135-0.409-0.271-0.614-0.406
		c-0.924-0.517-1.848-1.034-2.773-1.551c-0.221-0.281-0.502-0.461-0.861-0.509c-0.78-0.567-1.581-1.098-2.496-1.43
		c-0.399-0.25-0.798-0.499-1.197-0.749c-0.932-0.519-1.864-1.037-2.796-1.556c-0.205-0.137-0.41-0.273-0.615-0.41
		c-0.909-0.543-1.766-1.18-2.776-1.543c-0.287-0.172-0.573-0.344-0.86-0.516c-0.778-0.574-1.61-1.056-2.502-1.433
		c-0.396-0.248-0.792-0.496-1.189-0.744c-0.923-0.533-1.779-1.188-2.801-1.543c-0.16-0.091-0.319-0.183-0.479-0.274
		c-0.883-0.713-1.884-1.224-2.909-1.692c-0.287-0.173-0.574-0.346-0.862-0.519c-0.78-0.575-1.609-1.066-2.507-1.435
		c-0.362-0.364-0.736-0.706-1.318-0.655c-0.122,0.536-0.133,1.041,0.043,1.542c-0.197,1.4-0.165,2.802-0.023,4.205
		c-0.14,0.484-0.152,0.966,0.023,1.445c-0.197,1.401-0.165,2.802-0.023,4.205c-0.14,0.484-0.152,0.966,0.023,1.445
		c-0.197,1.401-0.165,2.802-0.023,4.205c-0.14,0.484-0.152,0.966,0.023,1.445c-0.197,1.4-0.165,2.802-0.025,4.205
		c-0.138,0.484-0.151,0.966,0.025,1.445c-0.16,0.429-0.134,0.864-0.05,1.302c-0.168,3.435-0.16,6.871-0.016,10.307
		c-0.008,1.835,0.046,3.674-0.047,5.505c-0.05,0.996,0.337,1.514,1.165,1.99c15.159,8.723,30.301,17.474,45.453,26.208
		c0.379,0.219,0.719,0.63,1.252,0.458c0-5.661,0-11.306,0-16.951C86.672,116.413,86.672,116.31,86.672,116.207z"/>
	<path fill="#E6E9E9" d="M67.586,64.108c0-1.222-0.022-2.444,0.007-3.666c0.024-1,0.102-1.966-1.024-2.523
		c-0.387-0.191-0.598-0.7-0.289-1.091c0.341-0.432,0.673,0.042,0.96,0.204c1.392,0.781,2.79,1.555,4.145,2.399
		c5.198,3.238,5.724,7.989,5.07,12.6c-0.263,1.854-1.829,2.695-3.599,2.063c-2.265-0.809-4.203-2.271-6.294-3.431
		c-0.365-0.202-0.49-0.581-0.37-0.98c0.156-0.523,0.504-0.215,0.797-0.148c0.764,0.176,0.573-0.408,0.577-0.775
		c0.017-1.551,0.007-3.102,0.007-4.653C67.577,64.108,67.581,64.108,67.586,64.108z M69.25,59.889c0,2.902,0,5.669,0,8.436
		c0,0.516,0.034,1.035-0.003,1.548c-0.042,0.58,0.131,0.973,0.683,1.237c0.675,0.323,1.292,0.771,1.975,1.069
		c1.549,0.675,2.729,0.036,2.958-1.63c0.12-0.878,0.093-1.78,0.088-2.67C74.931,63.938,73.186,61.444,69.25,59.889z"/>
	<path fill="#E6E9E9" d="M80.274,72.142c0,1.607,0.014,3.002-0.008,4.397c-0.007,0.453,0.226,0.666,0.576,0.864
		c1.345,0.762,2.681,1.541,3.968,2.283c0.684-0.233-0.001-1.44,0.963-1.257c0.91,0.173,1.057,0.946,0.957,1.763
		c-0.072,0.591,0.291,1.41-0.19,1.725c-0.529,0.346-1.074-0.354-1.583-0.641c-2.087-1.175-4.159-2.377-6.236-3.57
		c-0.244-0.14-0.48-0.296-0.728-0.43c-0.474-0.257-0.952-0.563-0.768-1.181c0.259-0.868,0.874,0.129,1.374-0.271
		c0-3.334-0.008-6.757,0.008-10.179c0.003-0.569-0.345-0.853-0.738-1.109c-0.541-0.352-0.768-0.795-0.506-1.613
		c0.83,0.457,1.628,0.883,2.412,1.332c1.794,1.026,3.544,2.137,5.384,3.072c1.213,0.617,1.778,1.405,1.525,2.765
		c-0.075,0.404-0.012,0.835-0.012,1.346c-1.032-0.184-1.656-0.605-1.557-1.665c0.066-0.714-0.265-1.102-0.872-1.425
		c-1.269-0.674-2.502-1.416-3.958-2.249c0,1.451,0.031,2.656-0.013,3.859c-0.022,0.594,0.33,0.814,0.751,1.051
		c1.022,0.577,2.019,1.203,3.058,1.747c0.779,0.407,1.155,0.914,0.73,1.924C83.345,73.86,81.897,73.05,80.274,72.142z"/>
	<path fill="#E6E9E9" d="M56.822,65.123c-1.605-0.698-3.06-1.598-4.17-2.993c-1.143-1.436-1.826-3.023-1.819-4.889
		c0.008-2.01-0.024-4.02-0.039-6.03c0.201-1.303,0.189-2.515-1.311-3.097c0,0,0.015,0.007,0.015,0.007
		c-0.086-0.747-0.135-1.332,0.908-0.67c0.932,0.592,1.957,1.038,2.944,1.543c0.432,0.221,0.606,0.567,0.505,1.035
		c-0.11,0.513-0.45,0.326-0.762,0.237c-0.798-0.226-0.56,0.414-0.562,0.743c-0.008,1.677,0.026,3.355,0.044,5.032
		c-0.019,0.603-0.049,1.206-0.055,1.809c-0.022,2.23,0.825,3.959,2.897,4.971c1.979,1.131,2.844,0.643,2.861-1.63
		c0.016-2.157-0.01-4.315,0.028-6.472c0.015-0.837-0.039-1.56-0.88-2.033c-0.514-0.289-0.591-0.795-0.266-1.466
		c1.264,0.726,2.504,1.448,3.754,2.15c0.39,0.219,0.489,0.542,0.432,0.943c-0.076,0.531-0.452,0.331-0.753,0.291
		c-0.84-0.114-0.61,0.528-0.614,0.927c-0.023,2.298,0.005,4.596-0.023,6.894C59.927,64.761,59.126,65.433,56.822,65.123z"/>
	<path fill="#FAB00D" d="M64.179,46.681c-0.669-0.276-0.971-0.779-1.293-1.218c-0.618-0.843-1.262-1.426-2.443-1.201
		c-0.862,0.164-1.279-0.452-1.009-1.212c0.528-1.487-0.106-2.624-0.859-3.784c-0.214-0.33-0.637-0.726-0.293-1.122
		c0.306-0.353,0.721,0.048,0.995,0.2c0.924,0.513,1.515,0.374,1.95-0.637c0.378-0.878,0.87-0.636,1.054,0.103
		c0.437,1.756,1.27,3.175,2.896,4.08c0.386,0.215,0.682,0.822,0.179,1.014c-1.804,0.688-1.172,2.03-1.041,3.267
		C64.33,46.293,64.251,46.425,64.179,46.681z"/>
	<path fill="#E6E9E9" d="M61.796,53.881c1.264,0.733,2.513,1.46,3.765,2.182c0.401,0.231,0.415,0.604,0.353,0.985
		c-0.096,0.585-0.468,0.244-0.75,0.202c-0.658-0.097-0.506,0.412-0.512,0.738c-0.05,3.055-0.069,6.112-0.131,9.167
		c-0.013,0.646,0.249,1.071,0.749,1.409c0.564,0.381,0.85,0.85,0.439,1.613c-1.193-0.685-2.364-1.368-3.547-2.03
		c-0.41-0.23-0.651-0.514-0.575-1.01c0.079-0.513,0.441-0.361,0.754-0.343c0.598,0.035,0.529-0.422,0.533-0.775
		c0.036-3.009,0.053-6.018,0.091-9.027c0.009-0.67-0.212-1.173-0.803-1.522C61.598,55.136,61.424,54.653,61.796,53.881z"/>
	<path fill="#32DD9F" d="M55.417,62.821c-2.073-1.012-2.919-2.741-2.897-4.971c0.006-0.603,0.036-1.206,0.055-1.809
		C53.697,58.228,54.882,60.388,55.417,62.821z"/>
	<path fill="#E6E9E9" d="M48.298,50.005c-1.094-0.035-1.18-0.833-1.326-1.563c-0.363-1.813-2.343-3.694-4.165-3.878
		c-1.109-0.112-1.809,0.534-2.098,1.511c-0.982,3.321-0.071,8.773,4.096,10.688c0.627,0.288,1.658,0.951,1.944,0.093
		c0.288-0.865,0.637-2.124-0.401-2.987c-0.628-0.522-2.028-0.813-1.27-1.874c0.414-0.579,1.293,0.531,2.002,0.786
		c1.146,0.413,1.734,1.177,1.484,2.477c-0.096,0.498-0.011,1.031-0.012,1.548c-0.004,2.134-0.678,2.619-2.746,1.905
		c-2.069-0.715-3.68-2.043-4.901-3.85c-1.811-2.68-2.506-5.644-2.147-8.843c0.325-2.89,2.285-3.963,4.906-2.751
		c1.804,0.834,3.154,2.171,4.297,3.76C48.64,47.969,48.306,48.987,48.298,50.005z"/>
	<path fill="#1BB899" d="M49.482,48.114c1.501,0.582,1.513,1.794,1.311,3.097C50.281,50.211,49.528,49.312,49.482,48.114z"/>
	<path fill="#DBD9DA" d="M45.217,9.426c0.476-0.28,0.951-0.56,1.427-0.84c0.623,0.906,1.801,0.978,2.548,1.697
		c2.281,1.297,4.569,2.581,6.84,3.895c5.069,2.932,10.11,5.912,15.197,8.811c5.565,3.172,11.069,6.448,16.666,9.566
		c3.545,1.975,6.965,4.176,10.564,6.068c2.057,1.082,2.97,2.4,2.624,3.882c-0.175,0.751-0.242,1.489-0.187,2.229
		c0.199,2.658-0.046,5.312-0.035,7.967c-0.284-0.167-0.568-0.335-0.851-0.502c0.077-1.172-0.395-2.428-0.161-3.463
		c0.529-2.343-0.352-4.651,0.164-6.95c0.13-0.577-0.271-0.987-0.759-1.227c-0.668-0.329-1.284-0.786-2.05-0.894
		c-0.785-0.824-1.737-1.368-2.822-1.69c-5.12-3.366-10.56-6.191-15.818-9.323c-3.328-1.982-6.646-3.991-10.051-5.834
		c-2.375-1.285-4.545-2.973-7.174-3.778c-0.672-1.016-1.758-1.342-2.829-1.69c-1.055-1.278-2.672-1.653-3.991-2.501
		C51.494,12.907,48.297,11.269,45.217,9.426z"/>
	<path fill="#32DD9F" d="M48.84,7.488c0.357-0.618,0.763-0.651,1.391-0.286c8.476,4.925,16.966,9.828,25.456,14.729
		c7.598,4.386,15.199,8.766,22.801,13.143c1.586,0.913,3.178,1.816,4.783,2.694c0.731,0.4,1.037,0.919,1.029,1.795
		c-0.044,5.029-0.023,10.058-0.025,15.087c-0.475-0.265-0.951-0.529-1.426-0.794c0.658-1.45,0.037-2.966,0.196-4.471
		c0.319-3.025,0.049-6.109,0.111-9.167c0.019-0.926-0.273-1.414-1.076-1.872c-7.104-4.057-14.166-8.188-21.271-12.243
		c-4.4-2.511-8.834-4.975-13.203-7.531c-5.661-3.312-11.341-6.591-17.033-9.851C49.916,8.422,49.301,8.063,48.84,7.488z"/>
	<path fill="#DBD9DA" d="M96.922,50.435c0.173-2.043-0.411-4.084-0.004-6.132c0.166-0.834-0.209-1.34-0.984-1.783
		c-5.609-3.208-11.177-6.488-16.772-9.72c-5.272-3.046-10.564-6.057-15.843-9.092c-4.426-2.544-8.849-5.094-13.266-7.654
		c-2.703-1.566-5.392-3.157-8.087-4.736c0.429-0.253,0.857-0.505,1.286-0.757c4.6,2.924,9.341,5.603,14.133,8.196
		c0.89,0.573,1.657,1.39,2.821,1.42c1.717,1.8,4.072,2.611,6.132,3.863c4.716,2.867,9.544,5.549,14.346,8.272
		c4.182,2.372,8.212,5.015,12.568,7.077c0.767,0.857,1.834,1.203,2.833,1.666c1.542,0.782,1.837,2.068,1.729,3.694
		c-0.135,2.048-0.029,4.111-0.027,6.168C97.498,50.756,97.21,50.596,96.922,50.435z"/>
	<path fill="#CF166A" d="M96.922,50.435c0.288,0.16,0.576,0.321,0.864,0.481c0.683,0.529,1.421,0.963,2.224,1.285
		c0.284,0.167,0.568,0.335,0.851,0.502c0.634,0.434,1.24,0.916,1.989,1.154c0.475,0.265,0.951,0.529,1.426,0.794
		c0.44,0.609,1.46,0.524,1.673,1.403c-2.155,2.435-4.306,4.873-6.465,7.304c-0.881,0.992-1.638,2.106-2.771,2.853
		c-0.016-5.01-0.033-10.019-0.046-15.029C96.666,50.909,96.62,50.609,96.922,50.435z"/>
	<path fill="#EE1D72" d="M96.713,66.21c1.134-0.747,1.89-1.861,2.771-2.853c2.159-2.431,4.31-4.869,6.465-7.304
		c0,5.191,0,10.381,0,15.598c-0.672,0.087-1.049-0.572-1.648-0.633c-0.313-0.319-0.692-0.525-1.121-0.643
		c-0.589-0.495-1.25-0.861-1.975-1.115l0.003,0.046c-0.109-0.083-0.218-0.166-0.327-0.25c-0.213-0.292-0.524-0.425-0.855-0.523
		c-0.697-0.502-1.42-0.96-2.232-1.258c-0.287-0.168-0.575-0.336-0.863-0.505C96.859,66.584,96.786,66.397,96.713,66.21z"/>
	<path fill="#F0F0F0" d="M57.384,18.756c-4.791-2.593-9.533-5.272-14.133-8.196c0.594-0.484,1.254-0.853,1.965-1.134
		c3.08,1.843,6.278,3.481,9.303,5.424c1.319,0.848,2.936,1.223,3.991,2.5C58.135,17.819,57.76,18.287,57.384,18.756z"/>
	<path fill="#E6E9E9" d="M48.84,7.488c0.461,0.575,1.076,0.935,1.734,1.233c-0.633,0.37-1.267,0.737-1.382,1.562
		c-0.747-0.72-1.925-0.791-2.548-1.697C47.327,8.123,47.954,7.546,48.84,7.488z"/>
	<path fill="#32DD9F" d="M103.181,70.375c0.429,0.117,0.807,0.323,1.121,0.643c-0.008,0.908-0.016,1.817-0.024,2.725
		c-0.428-0.186-0.868-0.352-1.176-0.729C103.128,72.134,103.154,71.254,103.181,70.375z"/>
	<path fill="#DBD9DA" d="M100.026,68.534c0.332,0.098,0.642,0.231,0.855,0.523c0.109,0.083,0.218,0.166,0.327,0.25
		c0,0-0.003-0.046-0.004-0.045c-0.105,0.841-0.21,1.682-0.316,2.522c-0.376-0.071-0.645-0.47-1.083-0.352
		C99.986,70.473,100.093,69.51,100.026,68.534z"/>
	<path fill="#F0F0F0" d="M100.89,71.783c0.105-0.841,0.21-1.681,0.316-2.522c0.726,0.253,1.387,0.619,1.976,1.114
		c-0.026,0.879-0.053,1.759-0.079,2.638C102.28,72.754,101.598,72.245,100.89,71.783z"/>
	<path fill="#F0F0F0" d="M100.889,91.917c0.022-1.205,0.044-2.41,0.067-3.616c0.875,0.096,1.528,0.63,2.209,1.111
		c-0.026,0.364-0.052,0.728-0.078,1.092C102.115,90.602,101.895,91.871,100.889,91.917z"/>
	<path fill="#F3F3F3" d="M100.892,125.81c0.007-1.498,0.014-2.997,0.021-4.495c1.083,0.077,1.404-1.02,2.18-1.415
		c-0.003,1.499-0.005,2.998-0.008,4.497C102.116,124.5,101.897,125.764,100.892,125.81z"/>
	<path fill="#F3F3F3" d="M100.892,97.563c0.007-1.498,0.014-2.997,0.021-4.495c1.083,0.077,1.404-1.02,2.18-1.415
		c-0.003,1.499-0.005,2.998-0.008,4.497C102.116,96.253,101.897,97.517,100.892,97.563z"/>
	<path fill="#F3F3F3" d="M100.892,131.46c0.007-1.498,0.014-2.997,0.021-4.495c1.083,0.077,1.404-1.02,2.18-1.415
		c-0.003,1.499-0.005,2.998-0.008,4.497C102.116,130.149,101.897,131.414,100.892,131.46z"/>
	<path fill="#F3F3F3" d="M100.892,114.511c0.007-1.498,0.014-2.997,0.021-4.495c1.083,0.077,1.404-1.02,2.18-1.415
		c-0.003,1.499-0.005,2.998-0.008,4.497C102.116,113.201,101.897,114.466,100.892,114.511z"/>
	<path fill="#F3F3F3" d="M100.892,120.161c0.007-1.498,0.014-2.997,0.021-4.495c1.083,0.077,1.404-1.02,2.18-1.415
		c-0.003,1.499-0.005,2.998-0.008,4.497C102.116,118.85,101.897,120.115,100.892,120.161z"/>
	<path fill="#F3F3F3" d="M100.892,103.212c0.007-1.405,0.014-2.809,0.021-4.214c1.007-0.205,1.355-1.257,2.18-1.696
		c-0.003,1.499-0.005,2.998-0.008,4.497C102.116,101.902,101.897,103.167,100.892,103.212z"/>
	<path fill="#F3F3F3" d="M100.892,108.862c0.007-1.405,0.014-2.809,0.021-4.214c1.007-0.205,1.355-1.257,2.18-1.696
		c-0.003,1.499-0.005,2.998-0.008,4.497C102.116,107.551,101.897,108.816,100.892,108.862z"/>
	<path fill="#F3F3F3" d="M103.084,135.697c-0.892,0.139-1.174,1.099-1.925,1.428c-0.537-1.383-0.179-2.819-0.246-4.23
		c1.007-0.205,1.355-1.257,2.18-1.696C103.09,132.698,103.087,134.197,103.084,135.697z"/>
	<path fill="#E6E9E9" d="M103.092,97.302c-0.825,0.439-1.172,1.492-2.18,1.696c-0.007-0.478-0.014-0.957-0.021-1.435
		c1.005-0.046,1.224-1.31,2.192-1.413C103.087,96.534,103.09,96.918,103.092,97.302z"/>
	<path fill="#E6E9E9" d="M103.092,131.199c-0.825,0.439-1.172,1.492-2.18,1.696c-0.007-0.478-0.014-0.957-0.021-1.435
		c1.005-0.046,1.224-1.31,2.192-1.413C103.087,130.431,103.09,130.815,103.092,131.199z"/>
	<path fill="#E6E9E9" d="M103.092,102.951c-0.825,0.439-1.172,1.492-2.18,1.696c-0.007-0.478-0.014-0.957-0.021-1.435
		c1.005-0.046,1.224-1.311,2.192-1.413C103.087,102.183,103.09,102.567,103.092,102.951z"/>
	<path fill="#E6E9E9" d="M100.892,120.161c1.005-0.046,1.224-1.31,2.192-1.413c0.003,0.384,0.005,0.768,0.008,1.152
		c-0.776,0.396-1.097,1.493-2.18,1.415C100.906,120.93,100.899,120.546,100.892,120.161z"/>
	<path fill="#E6E9E9" d="M103.092,91.653c-0.776,0.396-1.097,1.493-2.18,1.415c-0.008-0.384-0.016-0.767-0.024-1.151
		c1.006-0.046,1.226-1.315,2.198-1.413C103.089,90.886,103.091,91.27,103.092,91.653z"/>
	<path fill="#E6E9E9" d="M103.092,125.549c-0.776,0.396-1.097,1.493-2.18,1.415c-0.007-0.385-0.014-0.769-0.021-1.154
		c1.005-0.046,1.224-1.311,2.192-1.413C103.087,124.781,103.09,125.165,103.092,125.549z"/>
	<path fill="#E6E9E9" d="M100.892,108.862c1.005-0.046,1.224-1.31,2.192-1.413c0.003,0.384,0.005,0.768,0.008,1.152
		c-0.776,0.396-1.097,1.493-2.18,1.415C100.906,109.632,100.899,109.247,100.892,108.862z"/>
	<path fill="#E6E9E9" d="M103.092,114.25c-0.776,0.396-1.097,1.493-2.18,1.415c-0.007-0.385-0.014-0.769-0.021-1.154
		c1.005-0.046,1.224-1.31,2.192-1.413C103.087,113.482,103.09,113.866,103.092,114.25z"/>
	<path fill="#FDBF23" d="M86.672,116.515c0,5.645,0,11.29,0,16.952c-0.533,0.171-0.872-0.24-1.252-0.458
		c-15.152-8.735-30.295-17.485-45.453-26.208c-0.828-0.476-1.215-0.994-1.165-1.99c0.092-1.831,0.039-3.669,0.046-5.504
		c0.406-0.108,0.808-0.242,1.22-0.319c4.014-0.754,8.03-1.498,12.045-2.244c0.248,0.079,0.497,0.157,0.745,0.236
		c0.791,0.581,1.633,1.072,2.542,1.446c0.218,0.126,0.436,0.252,0.653,0.379c0.86,0.628,1.766,1.175,2.75,1.588
		c0.294,0.329,0.67,0.513,1.089,0.624c0.759,0.587,1.582,1.061,2.468,1.427c0.412,0.245,0.824,0.49,1.236,0.736
		c0.796,0.571,1.631,1.073,2.542,1.442c0.288,0.175,0.575,0.35,0.863,0.525c0.921,0.527,1.842,1.054,2.763,1.58
		c0.239,0.254,0.518,0.437,0.87,0.491c0.758,0.59,1.577,1.073,2.473,1.424c0.34,0.36,0.764,0.582,1.224,0.743
		c0.993,0.563,1.842,1.425,3.075,1.493c0.733,1.135,2.026,1.423,3.099,2.043c0.233,0.265,0.514,0.446,0.87,0.499
		c0.769,0.576,1.58,1.079,2.479,1.43c0.338,0.355,0.756,0.578,1.212,0.738c0.378,0.21,0.756,0.419,1.134,0.629
		C86.358,116.314,86.515,116.415,86.672,116.515z"/>
	<path fill="#F3F3F3" d="M50.936,70.417c0.891,0.378,1.723,0.859,2.502,1.433c-0.73,0.796-1.225,1.888-2.505,1.991
		c-0.131-0.125-0.396-0.306-0.438-0.118c-0.191,0.858-0.336,1.738,0.127,2.59c0.375-0.201,0.246-0.53,0.352-0.768
		c1.373-0.782,2.349-1.979,3.323-3.179c1.009,0.363,1.866,1,2.776,1.543c-1.546,1.662-3.076,3.339-4.848,4.772
		c-1.052-0.585-2.106-1.167-3.155-1.756c-0.511-0.287-1.027-0.555-1.451,0.103c-0.651,1.012-1.531,1.874-1.966,3.026
		c-1.232,0.641-1.964,1.832-2.981,2.71c-1.298,1.121-2.253,2.614-3.78,3.488c-0.141-1.402-0.174-2.804,0.023-4.205
		c1.385-0.97,2.519-2.193,3.553-3.518c0.785,0.368,1.412,1.097,2.464,1.153c-0.37-0.833-1.169-0.903-1.672-1.351
		c0.514-1.267,1.612-1.995,2.606-2.818c0.244,0.026,0.53,0.462,0.65,0.184c0.103-0.237-0.177-0.64-0.287-0.969
		c0.521-0.157,0.816-0.6,1.183-0.948C48.591,72.663,49.762,71.539,50.936,70.417z"/>
	<path fill="#609BE8" d="M52.115,96.742c-4.016,0.747-8.032,1.491-12.046,2.244c-0.413,0.077-0.814,0.212-1.22,0.319
		c-0.143-3.436-0.151-6.872,0.016-10.307c0.803,0.414,1.607,0.828,2.411,1.241c0.285,0.178,0.569,0.356,0.854,0.535
		c0.846,0.479,1.692,0.957,2.538,1.436c0.151,0.259,0.419,0.301,0.675,0.364c0.807,0.699,1.756,1.159,2.71,1.612
		c0.299,0.325,0.684,0.499,1.098,0.622c0.897,0.644,1.826,1.232,2.862,1.633C52.046,96.542,52.08,96.642,52.115,96.742z"/>
	<path fill="#F3F3F3" d="M52.012,96.442c-1.036-0.401-1.965-0.989-2.862-1.633c1.967-2.432,4.394-4.413,6.522-6.687
		c0.376-0.401,0.882-0.72,0.892-1.361c0.745,0.158,1.264,0.954,2.212,0.851c-0.362-0.733-1.116-0.795-1.529-1.276
		c2.774-2.414,5.352-5.024,7.792-7.773c0.924,0.517,1.848,1.034,2.772,1.552c-3.691,3.725-7.383,7.449-11.072,11.175
		c-0.207,0.209-0.445,0.337-0.742,0.349c-0.473-0.473-0.584-1.259-1.389-1.474c0.391,0.764,0.782,1.527,1.174,2.291
		C54.376,93.643,52.888,94.753,52.012,96.442z"/>
	<path fill="#F3F3F3" d="M55.401,98.424c-0.909-0.374-1.751-0.865-2.542-1.446c0.192-0.964,1.099-1.35,1.643-2.031
		c0.544-0.681,1.429-1.104,1.562-2.092c0.317,0.084,0.429-0.081,0.443-0.365c0.542,0.013,0.831-0.388,1.159-0.716
		c3.327-3.323,6.651-6.648,9.975-9.974c0.363-0.363,0.79-0.69,0.783-1.28c1.006,0.39,1.899,0.982,2.795,1.567
		c-0.654,1.434-2.051,2.208-3,3.379c-0.598,0.738-1.587,1.16-1.8,2.21c-0.905-0.017-1.71,0.438-2.534,0.68
		c-2.051,0.604-2.285,1.268-1.735,3.415c0.011,0.045,0.01,0.093,0.014,0.139c-0.211,0.084-0.478,0.113-0.624,0.261
		C59.491,94.253,57.304,96.2,55.401,98.424z"/>
	<path fill="#F3F3F3" d="M73.108,108.639c-0.895-0.351-1.715-0.835-2.473-1.424c0.566-1.108,1.941-1.57,2.285-2.856
		c0.343,0.127,0.698,0.23,1.029,0.385c1.449,0.677,2.012,0.342,2.076-1.279c0.029-0.739,0.006-1.479,0.007-2.219
		c0.652-0.018,0.955-0.553,1.343-0.938c2.698-2.68,5.379-5.378,8.077-8.059c0.356-0.354,0.632-0.842,1.221-0.883
		c-0.006,1.405-0.012,2.811-0.018,4.216c-0.57,0.081-0.854,0.555-1.211,0.911c-2.863,2.848-5.7,5.723-8.578,8.556
		C75.631,106.263,74.53,107.62,73.108,108.639z"/>
	<path fill="#F3F3F3" d="M41.275,90.241c-0.804-0.414-1.608-0.827-2.411-1.241c-0.083-0.438-0.109-0.874,0.05-1.303
		c0.533-0.14,0.816-0.597,1.176-0.949c1.923-1.881,3.835-3.774,5.751-5.662c0.371,0.788,0.742,1.576,1.112,2.364
		c0.435,1.474,0.745,3.021,2.281,3.841c-1.298,1.849-3.219,3.12-4.568,4.921c-0.846-0.479-1.692-0.957-2.538-1.436
		c0.444-1.294,1.688-1.9,2.485-2.891c0.362-0.45,0.993-0.741,0.849-1.48c0.226-0.493,1.496-0.383,0.954-1.14
		c-0.372-0.52-1.023,0.287-1.524,0.556c-0.095,0.051-0.117,0.24-0.172,0.365c-0.457,0.515-0.932,1.015-1.365,1.549
		C42.671,88.578,41.572,89.077,41.275,90.241z"/>
	<path fill="#F3F3F3" d="M77.407,110.875c-1.234-0.068-2.082-0.93-3.075-1.493c0.007-0.482,0.368-0.739,0.663-1.034
		c3.549-3.553,7.1-7.104,10.653-10.652c0.293-0.293,0.542-0.666,1.023-0.682c-0.006,1.406-0.011,2.811-0.017,4.217
		c-0.17,0.073-0.382,0.103-0.503,0.224c-2.764,2.743-5.516,5.499-8.278,8.244c-0.326,0.324-0.481,0.682-0.423,1.134L77.407,110.875z
		"/>
	<path fill="#F3F3F3" d="M38.892,80.603c-0.141-1.402-0.174-2.804,0.023-4.205c0.162-0.087,0.357-0.142,0.482-0.267
		c2.356-2.34,4.702-4.69,7.054-7.034c0.273-0.272,0.497-0.56,0.496-0.967c1.021,0.355,1.877,1.01,2.801,1.543
		c-0.044,0.634-0.597,0.902-0.951,1.31c-0.936,1.076-2.166,1.885-2.886,3.16c-0.335-0.339-0.433-0.902-1.121-1.175
		c0.229,0.67,0.403,1.177,0.576,1.685c-1.131,0.628-1.833,1.724-2.783,2.549C41.319,78.299,40.381,79.749,38.892,80.603z"/>
	<path fill="#F3F3F3" d="M83.178,89.035c0.901,0.347,1.7,0.871,2.482,1.423c-3.161,3.447-6.498,6.717-9.895,9.928
		c-0.156-1.105-1.099-1.807-1.441-2.816c0.648-0.6,1.304-1.192,1.944-1.8C78.6,93.555,80.708,91.11,83.178,89.035z"/>
	<path fill="#F3F3F3" d="M79.162,86.72c0.931,0.522,1.862,1.044,2.793,1.565c-0.03,0.646-0.572,0.936-0.948,1.329
		c-2.384,2.497-4.978,4.788-7.243,7.402c-0.095-0.003-0.19-0.006-0.285-0.009c-0.12-0.23-0.328-0.279-0.562-0.274
		c-0.189-0.008-0.379-0.017-0.568-0.025c-0.284-0.343-0.564-0.347-0.839,0.011c-0.525,0.339-1.111,0.307-1.696,0.276
		c0-0.599,0.478-0.887,0.832-1.242c2.544-2.556,5.098-5.102,7.645-7.655C78.682,87.706,79.168,87.366,79.162,86.72z"/>
	<path fill="#F3F3F3" d="M80.506,112.918c-1.073-0.621-2.365-0.908-3.099-2.043c0,0,0.043-0.042,0.043-0.042
		c0.727,0.13,1.102-0.398,1.529-0.824c2.157-2.155,4.308-4.316,6.473-6.463c0.356-0.353,0.632-0.841,1.219-0.883
		c-0.006,1.406-0.011,2.811-0.017,4.217C84.34,108.623,82.411,110.758,80.506,112.918z"/>
	<path fill="#F3F3F3" d="M61.682,76.624c0.914,0.333,1.715,0.864,2.495,1.431c-2.019,2.36-4.356,4.41-6.498,6.65
		c-0.383,0.401-0.888,0.728-0.893,1.376c-0.16,0.064-0.32,0.128-0.48,0.192c-0.257-0.013-0.514-0.027-0.772-0.04
		c0.257-1.139-0.646-1.999-0.734-3.055c0.453-0.398,0.919-0.783,1.358-1.196C58.027,80.223,59.688,78.252,61.682,76.624z"/>
	<path fill="#F3F3F3" d="M75.779,84.758c0.923,0.52,1.847,1.041,2.77,1.561c-2.685,2.718-5.367,5.44-8.063,8.147
		c-0.147,0.148-0.412,0.178-0.623,0.263c-0.023-1.319-0.016-2.64-0.318-3.936C71.975,89.145,73.843,86.916,75.779,84.758z"/>
	<path fill="#F0F0F0" d="M66.42,87.677c0.213-1.05,1.202-1.472,1.8-2.21c0.948-1.171,2.346-1.944,3-3.379
		c1.233,0.722,2.467,1.444,3.7,2.166c-1.246,1.601-2.8,2.905-4.212,4.346c-0.508,0.518-0.886,1.252-1.737,1.343
		C68.246,89.046,67.424,88.26,66.42,87.677z"/>
	<path fill="#F3F3F3" d="M43.559,66.164c1.026,0.468,2.026,0.978,2.909,1.692c-1.632,1.212-2.879,2.828-4.377,4.178
		c-1.072,0.966-1.881,2.223-3.198,2.919c-0.141-1.402-0.174-2.804,0.023-4.205C40.662,69.423,42.143,67.826,43.559,66.164z"/>
	<path fill="#F3F3F3" d="M69.863,94.729c0.21-0.085,0.475-0.115,0.623-0.262c2.696-2.707,5.378-5.429,8.063-8.147
		c0.204,0.134,0.408,0.268,0.613,0.401c0.006,0.646-0.48,0.986-0.871,1.378c-2.547,2.553-5.101,5.099-7.645,7.655
		c-0.354,0.356-0.832,0.643-0.832,1.242c-0.614,0.618-1.585,0.823-1.972,1.704c-1.512,1.4-3.181,2.651-4.244,4.477
		c-0.412-0.245-0.824-0.49-1.236-0.736c2.163-1.857,4.149-3.892,6.046-6.017C69.628,96.49,69.841,95.691,69.863,94.729z"/>
	<path fill="#F0F0F0" d="M57.689,74.319c0.932,0.519,1.864,1.037,2.796,1.556c-0.989,1.714-2.529,2.902-3.981,4.175
		c-0.038-0.636-0.401-0.69-0.837-0.4c-0.353,0.235-0.984,0.238-0.95,0.841c0.019,0.341,0.346,0.373,0.644,0.251
		c0.052,0.753-0.331,1.156-1.043,1.291c-0.415-0.93-0.83-1.861-1.246-2.791c1.075-0.685,1.862-1.684,2.731-2.583
		C56.497,75.943,57.489,75.44,57.689,74.319z"/>
	<path fill="#F3F3F3" d="M86.672,97.014c-0.481,0.016-0.73,0.389-1.023,0.682c-3.554,3.548-7.104,7.099-10.653,10.652
		c-0.294,0.295-0.656,0.552-0.663,1.034c-0.461-0.161-0.884-0.383-1.224-0.743c1.422-1.019,2.523-2.376,3.757-3.591
		c2.878-2.833,5.715-5.707,8.578-8.556c0.358-0.356,0.641-0.83,1.211-0.911C86.66,96.059,86.666,96.536,86.672,97.014z"/>
	<path fill="#F3F3F3" d="M83.855,114.847c-0.899-0.351-1.711-0.853-2.479-1.43c1.672-1.799,3.224-3.721,5.296-5.104
		c-0.006,1.406-0.011,2.811-0.017,4.217C85.452,112.976,84.96,114.282,83.855,114.847z"/>
	<path fill="#F3F3F3" d="M68.425,80.521c0.007,0.59-0.421,0.917-0.783,1.28c-3.324,3.326-6.648,6.651-9.975,9.974
		c-0.328,0.328-0.618,0.729-1.159,0.716c-0.17-0.284-0.34-0.568-0.51-0.852c0.296-0.012,0.534-0.139,0.741-0.349
		c3.69-3.726,7.381-7.451,11.072-11.175C68.016,80.25,68.221,80.385,68.425,80.521z"/>
	<path fill="#F3F3F3" d="M75.766,100.386c3.397-3.211,6.734-6.481,9.895-9.928c0.461,0.164,0.964,0.282,1.012,0.906
		c-0.589,0.041-0.865,0.529-1.221,0.883c-2.697,2.681-5.379,5.378-8.077,8.059c-0.388,0.385-0.691,0.92-1.343,0.938
		C75.688,101.037,75.759,100.702,75.766,100.386z"/>
	<path fill="#F3F3F3" d="M86.672,102.663c-0.588,0.042-0.863,0.53-1.219,0.883c-2.165,2.147-4.316,4.308-6.473,6.463
		c-0.427,0.426-0.802,0.954-1.529,0.824c-0.057-0.452,0.098-0.811,0.423-1.134c2.762-2.745,5.514-5.501,8.278-8.244
		c0.122-0.121,0.334-0.151,0.503-0.224C86.66,101.708,86.666,102.186,86.672,102.663z"/>
	<path fill="#F3F3F3" d="M73.764,97.016c2.265-2.614,4.859-4.905,7.243-7.402c0.376-0.394,0.917-0.684,0.948-1.329
		c0.46,0.165,0.886,0.386,1.224,0.751c-2.469,2.074-4.578,4.519-6.91,6.735c-0.64,0.608-1.295,1.2-1.944,1.8
		C73.967,97.558,73.779,97.375,73.764,97.016z"/>
	<path fill="#F3F3F3" d="M38.892,69.304c-0.141-1.402-0.174-2.804,0.023-4.205c0.425-0.296,0.85-0.592,1.276-0.888
		c0.898,0.369,1.727,0.86,2.507,1.435C41.519,66.959,40.417,68.351,38.892,69.304z"/>
	<path fill="#F3F3F3" d="M38.892,74.953c1.318-0.696,2.126-1.953,3.198-2.919c1.499-1.35,2.745-2.966,4.377-4.178
		c0.16,0.091,0.319,0.183,0.479,0.274c0.001,0.408-0.223,0.695-0.496,0.967c-2.352,2.344-4.698,4.694-7.054,7.034
		c-0.125,0.125-0.32,0.179-0.482,0.267C38.74,75.919,38.752,75.437,38.892,74.953z"/>
	<path fill="#F3F3F3" d="M56.787,86.08c0.005-0.648,0.51-0.975,0.893-1.376c2.142-2.24,4.479-4.29,6.498-6.65
		c0.359,0.048,0.64,0.228,0.861,0.509c-2.44,2.748-5.018,5.359-7.792,7.772C57.094,86.25,56.94,86.165,56.787,86.08z"/>
	<path fill="#F3F3F3" d="M45.842,81.085c-1.916,1.889-3.828,3.781-5.751,5.663c-0.36,0.352-0.643,0.809-1.176,0.949
		c-0.175-0.479-0.162-0.961-0.023-1.445c1.527-0.874,2.482-2.368,3.78-3.489c1.017-0.878,1.749-2.069,2.981-2.71
		C45.716,80.397,45.779,80.741,45.842,81.085z"/>
	<path fill="#F3F3F3" d="M56.504,80.05c1.452-1.273,2.992-2.461,3.981-4.175c0.399,0.25,0.798,0.5,1.197,0.749
		c-1.994,1.628-3.655,3.599-5.523,5.357c-0.439,0.413-0.904,0.798-1.358,1.196c-0.297-0.324-0.391-0.733-0.483-1.144
		c0.713-0.135,1.095-0.538,1.043-1.291C55.743,80.512,56.123,80.281,56.504,80.05z"/>
	<path fill="#F3F3F3" d="M38.892,80.603c1.489-0.853,2.426-2.304,3.69-3.401c0.95-0.825,1.652-1.921,2.783-2.549
		c0.265,0.23,0.498,0.478,0.501,0.86c-0.994,0.823-2.092,1.551-2.606,2.818c-0.259,0.087-0.723-0.648-0.792,0.198
		c-1.034,1.325-2.168,2.548-3.553,3.518C38.74,81.568,38.752,81.087,38.892,80.603z"/>
	<path fill="#F3F3F3" d="M68.971,89.943c0.851-0.091,1.229-0.825,1.737-1.343c1.412-1.44,2.965-2.745,4.212-4.346
		c0.351,0.058,0.633,0.233,0.859,0.505c-1.936,2.158-3.804,4.387-6.234,6.035C69.353,90.51,69.162,90.226,68.971,89.943z"/>
	<path fill="#F3F3F3" d="M86.672,108.313c-2.072,1.383-3.624,3.306-5.296,5.104c-0.355-0.052-0.636-0.234-0.87-0.499
		c1.905-2.16,3.834-4.295,6.149-6.038C86.66,107.358,86.666,107.835,86.672,108.313z"/>
	<path fill="#F3F3F3" d="M57.689,74.319c-0.2,1.121-1.192,1.624-1.885,2.34c-0.869,0.899-1.656,1.897-2.731,2.583
		c-0.08-0.002-0.159-0.009-0.238-0.022c-0.203-0.18-0.407-0.36-0.61-0.539c1.772-1.432,3.303-3.109,4.848-4.772
		C57.279,74.046,57.484,74.182,57.689,74.319z"/>
	<path fill="#F3F3F3" d="M38.892,69.304c1.525-0.952,2.627-2.344,3.805-3.658c0.287,0.173,0.574,0.346,0.862,0.519
		c-1.416,1.662-2.897,3.258-4.644,4.584C38.74,70.269,38.752,69.788,38.892,69.304z"/>
	<path fill="#F3F3F3" d="M45.911,74.143c0.72-1.275,1.949-2.084,2.886-3.16c0.355-0.408,0.907-0.676,0.951-1.31
		c0.396,0.248,0.792,0.496,1.189,0.744c-1.174,1.122-2.345,2.246-3.524,3.363c-0.367,0.348-0.662,0.791-1.183,0.948
		C46.124,74.533,46.017,74.338,45.911,74.143z"/>
	<path fill="#F3F3F3" d="M54.298,72.366c-0.973,1.2-1.949,2.397-3.323,3.179c-0.014-0.568-0.028-1.136-0.042-1.704
		c1.28-0.103,1.775-1.195,2.505-1.991C53.725,72.022,54.011,72.194,54.298,72.366z"/>
	<path fill="#E6E9E9" d="M83.855,114.847c1.105-0.565,1.597-1.87,2.8-2.317c0.006,0.477,0.011,0.954,0.017,1.43
		c-0.801,0.279-1.346,0.811-1.605,1.625C84.611,115.424,84.193,115.202,83.855,114.847z"/>
	<path fill="#F3F3F3" d="M85.067,115.585c0.259-0.814,0.804-1.346,1.605-1.625c0,0.749,0,1.498,0,2.247
		c-0.157,0.002-0.314,0.004-0.471,0.007C85.823,116.004,85.445,115.794,85.067,115.585z"/>
	<path fill="#F3F3F3" d="M40.191,64.211c-0.425,0.296-0.851,0.592-1.276,0.888c-0.175-0.501-0.165-1.006-0.042-1.542
		C39.455,63.506,39.828,63.847,40.191,64.211z"/>
	<path fill="#E6E9E9" d="M86.201,116.214c0.157-0.002,0.314-0.004,0.471-0.007c0,0.103,0,0.206,0,0.308
		C86.515,116.415,86.358,116.314,86.201,116.214z"/>
	<path fill="#1BB899" d="M69.25,59.889c3.936,1.555,5.681,4.049,5.702,7.99c0.005,0.891,0.032,1.793-0.088,2.67
		c-0.229,1.666-1.408,2.305-2.958,1.63c-0.684-0.298-1.301-0.746-1.975-1.069c-0.552-0.264-0.725-0.658-0.683-1.237
		c0.037-0.513,0.003-1.032,0.003-1.548C69.25,65.558,69.25,62.791,69.25,59.889z"/>
	<path fill="#F0F0F0" d="M49.192,10.283c0.115-0.826,0.749-1.193,1.382-1.562c5.693,3.26,11.372,6.539,17.034,9.851
		c4.369,2.556,8.802,5.02,13.203,7.531c7.105,4.055,14.167,8.186,21.271,12.243c0.802,0.458,1.095,0.946,1.076,1.872
		c-0.062,3.058,0.208,6.142-0.111,9.167c-0.159,1.505,0.462,3.021-0.196,4.471c-0.748-0.237-1.354-0.72-1.988-1.154
		c-0.011-2.655,0.234-5.309,0.035-7.967c-0.055-0.741,0.012-1.478,0.187-2.229c0.346-1.482-0.567-2.801-2.624-3.882
		c-3.598-1.892-7.019-4.093-10.564-6.068c-5.597-3.118-11.101-6.394-16.666-9.566c-5.087-2.899-10.129-5.879-15.197-8.811
		C53.761,12.865,51.472,11.581,49.192,10.283z"/>
	<path fill="#F0F0F0" d="M93.251,39.389c-4.356-2.063-8.386-4.705-12.568-7.077c-4.802-2.723-9.63-5.406-14.346-8.272
		c-2.06-1.252-4.415-2.062-6.132-3.863c0.27-0.486,0.648-0.864,1.134-1.135c2.629,0.805,4.799,2.493,7.174,3.778
		c3.406,1.842,6.723,3.851,10.051,5.834c5.258,3.132,10.698,5.957,15.818,9.322C94.005,38.446,93.628,38.918,93.251,39.389z"/>
	<path fill="#F0F0F0" d="M100.01,52.201c-0.803-0.322-1.541-0.756-2.224-1.285c-0.002-2.057-0.109-4.12,0.027-6.168
		c0.108-1.626-0.187-2.912-1.729-3.694c0.074-0.705,0.605-1.041,1.121-1.389c0.765,0.108,1.381,0.566,2.05,0.894
		c0.488,0.24,0.889,0.65,0.759,1.227c-0.516,2.299,0.365,4.607-0.164,6.95C99.615,49.773,100.087,51.029,100.01,52.201z"/>
	<path fill="#F3F3F3" d="M97.205,39.665c-0.516,0.348-1.047,0.684-1.121,1.389c-0.998-0.463-2.066-0.809-2.833-1.666
		c0.377-0.471,0.755-0.942,1.132-1.413C95.468,38.298,96.42,38.842,97.205,39.665z"/>
	<path fill="#F3F3F3" d="M61.339,19.041c-0.486,0.27-0.864,0.649-1.134,1.135c-1.163-0.03-1.931-0.847-2.821-1.42
		c0.375-0.468,0.751-0.937,1.126-1.405C59.582,17.7,60.667,18.025,61.339,19.041z"/>
	<path fill="#F0F0F0" d="M101.209,69.306c-0.109-0.083-0.218-0.166-0.327-0.25C100.991,69.14,101.1,69.223,101.209,69.306z"/>
	<path fill="#F3F3F3" d="M58.804,100.39c-0.984-0.412-1.89-0.96-2.749-1.588c1.999-1.48,3.537-3.442,5.353-5.112
		c0.401-0.369,0.691-0.912,1.341-0.923c0.678,0.446,1.174,1.144,1.97,1.428c-0.079,0.212-0.1,0.483-0.246,0.628
		C62.594,96.689,60.697,98.537,58.804,100.39z"/>
	<path fill="#F3F3F3" d="M68.408,96.424c-1.897,2.124-3.883,4.159-6.046,6.017c-0.886-0.366-1.71-0.84-2.469-1.427
		c1.854-2.136,3.868-4.113,5.975-5.997C66.846,95.248,67.594,95.897,68.408,96.424z"/>
	<path fill="#F3F3F3" d="M63.598,103.177c1.063-1.826,2.732-3.077,4.244-4.477c-0.122,1.214,0.61,2.121,1.121,3.106
		c-1.057,0.821-1.986,1.771-2.823,2.813C65.229,104.25,64.394,103.747,63.598,103.177z"/>
	<path fill="#F3F3F3" d="M69.765,106.724c-0.921-0.527-1.842-1.054-2.763-1.58c0.842-0.926,1.685-1.852,2.527-2.778
		c0.98,0.507,2.062,0.842,2.832,1.698C71.377,104.835,70.459,105.67,69.765,106.724z"/>
	<path fill="#F3F3F3" d="M62.749,92.767c-0.651,0.011-0.94,0.554-1.341,0.923c-1.816,1.67-3.354,3.632-5.353,5.112
		c-0.218-0.126-0.436-0.252-0.654-0.378c1.903-2.224,4.09-4.171,6.14-6.251c0.146-0.148,0.413-0.177,0.624-0.261
		C62.36,92.197,62.554,92.482,62.749,92.767z"/>
	<path fill="#F3F3F3" d="M65.868,95.017c-2.107,1.884-4.121,3.861-5.975,5.997c-0.419-0.11-0.796-0.295-1.089-0.624
		c1.893-1.853,3.79-3.701,5.669-5.567c0.146-0.145,0.167-0.416,0.246-0.629C65.102,94.468,65.485,94.743,65.868,95.017z"/>
	<path fill="#F3F3F3" d="M56.064,92.855c-0.133,0.988-1.018,1.411-1.562,2.092c-0.544,0.68-1.451,1.067-1.643,2.031
		c-0.249-0.079-0.497-0.157-0.745-0.236c-0.034-0.1-0.068-0.2-0.102-0.301c0.877-1.688,2.364-2.799,3.771-3.986
		C55.876,92.589,55.97,92.722,56.064,92.855z"/>
	<path fill="#F3F3F3" d="M69.529,102.366c-0.842,0.926-1.685,1.852-2.527,2.778c-0.288-0.175-0.575-0.35-0.863-0.525
		c0.837-1.042,1.766-1.992,2.823-2.813C69.152,101.993,69.341,102.179,69.529,102.366z"/>
	<path fill="#F3F3F3" d="M69.765,106.724c0.694-1.054,1.612-1.889,2.596-2.66c0.233,0.01,0.443,0.062,0.56,0.294
		c-0.344,1.286-1.719,1.748-2.285,2.856C70.283,107.161,70.004,106.978,69.765,106.724z"/>
	<path fill="#FDBF23" d="M52.225,78.681c0.203,0.18,0.407,0.36,0.61,0.539c-0.302,0.239-0.168,0.511-0.026,0.75
		c0.829,1.399,0.309,2.562-0.615,3.662c-0.212,0.252-0.479,0.477-0.62,0.764c-0.457,0.932-1.09,0.799-1.88,0.46
		c-0.95-0.407-1.688-1.212-2.739-1.407c-0.371-0.788-0.742-1.576-1.113-2.364c-0.063-0.344-0.126-0.688-0.189-1.032
		c0.435-1.151,1.316-2.014,1.966-3.026c0.424-0.659,0.939-0.39,1.451-0.103C50.12,77.514,51.173,78.096,52.225,78.681z"/>
	<path fill="#FDBF23" d="M45.911,74.143c0.106,0.195,0.213,0.39,0.319,0.585c0.11,0.33,0.389,0.732,0.287,0.969
		c-0.12,0.277-0.407-0.158-0.65-0.184c-0.003-0.383-0.236-0.63-0.501-0.86c-0.173-0.507-0.347-1.015-0.576-1.685
		C45.477,73.241,45.576,73.804,45.911,74.143z"/>
	<path fill="#FDBF23" d="M42.468,78.529c0.069-0.846,0.533-0.112,0.792-0.198c0.503,0.448,1.302,0.517,1.672,1.351
		C43.88,79.626,43.253,78.898,42.468,78.529z"/>
	<path fill="#FDBF23" d="M50.933,73.841c0.014,0.568,0.028,1.136,0.042,1.704c-0.106,0.238,0.023,0.567-0.352,0.768
		c-0.464-0.852-0.318-1.732-0.127-2.59C50.537,73.535,50.802,73.716,50.933,73.841z"/>
	<path fill="#F3F3F3" d="M48.052,94.187c-0.953-0.453-1.903-0.913-2.709-1.612c1.732-1.445,3.439-2.913,4.701-4.815
		c0.866,0.491,1.732,0.981,2.598,1.472c-0.175,1.025-1.033,1.499-1.708,2.121c-0.207-0.525,0.257-1.25-0.569-1.762
		c0,0.96,0,1.777,0,2.593C49.594,92.852,48.823,93.519,48.052,94.187z"/>
	<path fill="#F3F3F3" d="M50.934,91.353c0.675-0.622,1.533-1.096,1.708-2.121c0.644,0.214,0.902-0.27,1.198-0.671
		c0.57-0.773,1.131-1.553,1.695-2.329c0.257,0.013,0.514,0.027,0.772,0.04c0.086,0.163,0.171,0.325,0.257,0.488
		c-0.01,0.642-0.517,0.96-0.892,1.361c-2.128,2.274-4.555,4.256-6.522,6.687c-0.414-0.123-0.798-0.297-1.098-0.622
		c0.771-0.668,1.542-1.335,2.313-2.003C51.129,92.3,50.778,91.653,50.934,91.353z"/>
	<path fill="#F3F3F3" d="M50.044,87.76c-1.263,1.902-2.969,3.37-4.701,4.815c-0.257-0.063-0.525-0.105-0.676-0.364
		c1.349-1.801,3.27-3.072,4.568-4.921C49.505,87.447,49.774,87.603,50.044,87.76z"/>
	<path fill="#F3F3F3" d="M41.275,90.241c0.297-1.164,1.396-1.663,2.08-2.506c0.434-0.534,0.909-1.034,1.365-1.549
		c0.225,0.149,0.433,0.356,0.743,0.218c0.144,0.739-0.488,1.03-0.849,1.48c-0.796,0.991-2.041,1.597-2.485,2.891
		C41.845,90.597,41.56,90.419,41.275,90.241z"/>
	<path fill="#FDBF23" d="M56.064,92.855c-0.094-0.133-0.188-0.266-0.282-0.399c-0.391-0.764-0.782-1.527-1.174-2.291
		c0.805,0.215,0.916,1.001,1.389,1.474c0.17,0.284,0.34,0.568,0.51,0.852C56.493,92.774,56.382,92.94,56.064,92.855z"/>
	<path fill="#FDBF23" d="M56.564,86.76c-0.086-0.163-0.172-0.325-0.257-0.488c0.16-0.064,0.32-0.128,0.48-0.192
		c0.154,0.085,0.307,0.17,0.46,0.255c0.413,0.481,1.166,0.543,1.529,1.276C57.828,87.714,57.309,86.918,56.564,86.76z"/>
	<path fill="#BDE3DF" d="M65.868,95.017c-0.383-0.274-0.766-0.548-1.149-0.822c-0.796-0.283-1.292-0.981-1.97-1.427
		c-0.195-0.285-0.389-0.57-0.584-0.855c-0.005-0.047-0.003-0.095-0.014-0.139c-0.55-2.148-0.316-2.811,1.735-3.415
		c0.824-0.243,1.629-0.697,2.534-0.68c1.004,0.583,1.826,1.369,2.551,2.266c0.191,0.283,0.382,0.567,0.574,0.85
		c0.302,1.296,0.294,2.618,0.318,3.936c-0.022,0.962-0.234,1.761-1.454,1.695C67.594,95.897,66.846,95.248,65.868,95.017z"/>
	<path fill="#BDE3DF" d="M72.921,104.358c-0.116-0.232-0.327-0.284-0.56-0.294c-0.77-0.856-1.852-1.191-2.832-1.698
		c-0.189-0.187-0.378-0.373-0.567-0.56c-0.511-0.986-1.243-1.892-1.121-3.106c0.387-0.881,1.358-1.086,1.972-1.704
		c0.585,0.03,1.171,0.063,1.696-0.276c0.28-0.004,0.559-0.007,0.839-0.011c0.189,0.008,0.379,0.017,0.568,0.025
		c0.122,0.224,0.332,0.27,0.562,0.274c0.095,0.003,0.19,0.006,0.285,0.009c0.015,0.359,0.203,0.542,0.561,0.554
		c0.342,1.009,1.285,1.711,1.441,2.816c-0.007,0.316-0.078,0.651,0.266,0.858c-0.001,0.74,0.022,1.48-0.007,2.219
		c-0.064,1.621-0.627,1.956-2.076,1.279C73.619,104.588,73.264,104.485,72.921,104.358z"/>
	<path fill="#FAB00D" d="M50.044,87.76c-0.27-0.157-0.54-0.313-0.809-0.47c-1.536-0.82-1.846-2.367-2.28-3.841
		c1.051,0.195,1.79,1,2.739,1.407c0.79,0.338,1.423,0.471,1.88-0.46c0.141-0.287,0.408-0.512,0.62-0.764
		c0.925-1.1,1.444-2.263,0.615-3.662c-0.142-0.239-0.276-0.511,0.026-0.75c0.079,0.012,0.158,0.02,0.238,0.022
		c0.415,0.93,0.83,1.861,1.246,2.791c0.092,0.41,0.186,0.82,0.483,1.144c0.087,1.056,0.991,1.916,0.734,3.055
		c-0.565,0.777-1.125,1.557-1.695,2.329c-0.295,0.4-0.554,0.885-1.198,0.671C51.776,88.741,50.91,88.251,50.044,87.76z"/>
	<path fill="#FDBF23" d="M45.464,86.404c-0.309,0.138-0.518-0.069-0.743-0.218c0.056-0.125,0.077-0.314,0.172-0.365
		c0.501-0.27,1.152-1.076,1.524-0.556C46.959,86.021,45.69,85.912,45.464,86.404z"/>
	<path fill="#E6E9E9" d="M72.348,96.708c-0.28,0.004-0.559,0.008-0.839,0.011C71.785,96.361,72.064,96.365,72.348,96.708z"/>
	<path fill="#E6E9E9" d="M73.479,97.007c-0.23-0.004-0.44-0.05-0.562-0.274C73.151,96.728,73.359,96.777,73.479,97.007z"/>
	<path fill="#FDBF23" d="M56.504,80.05c-0.381,0.231-0.762,0.462-1.143,0.692c-0.299,0.122-0.625,0.089-0.644-0.252
		c-0.034-0.603,0.597-0.606,0.95-0.841C56.103,79.36,56.466,79.414,56.504,80.05z"/>
	<path fill="#FDBF23" d="M50.934,91.353c-0.157,0.3,0.195,0.948-0.569,0.831c0-0.816,0-1.633,0-2.593
		C51.191,90.103,50.728,90.828,50.934,91.353z"/>
</g>
</svg>
