<?xml version="1.0" encoding="utf-8"?>
<!-- Generator: Adobe Illustrator 17.0.0, SVG Export Plug-In . SVG Version: 6.00 Build 0)  -->
<!DOCTYPE svg PUBLIC "-//W3C//DTD SVG 1.1//EN" "http://www.w3.org/Graphics/SVG/1.1/DTD/svg11.dtd">
<svg version="1.1" id="Layer_1" xmlns="http://www.w3.org/2000/svg" xmlns:xlink="http://www.w3.org/1999/xlink" x="0px" y="0px"
	 width="143px" height="150px" viewBox="0 0 143 150" enable-background="new 0 0 143 150" xml:space="preserve">
<g>
	<path fill="#4F4B62" d="M119.623,99.14c0.769,0.583,1.599,1.061,2.488,1.438c0.435,0.254,0.87,0.507,1.305,0.761
		c0.724,0.413,1.448,0.827,2.172,1.24c0.288,0.324,0.663,0.498,1.069,0.619c1.02,0.595,2.039,1.19,3.059,1.784
		c0.295,0.161,0.59,0.322,0.885,0.484c0.773,0.591,1.605,1.079,2.506,1.448c0.426,0.253,0.851,0.507,1.277,0.76
		c0.733,0.415,1.466,0.83,2.199,1.245c0.286,0.328,0.659,0.504,1.069,0.618c1.012,0.59,2.023,1.18,3.035,1.77
		c0.3,0.253,0.601,0.505,0.901,0.758c0.656,0.959,0.908,2.019,0.793,3.17c-0.72,0.311-1.012,1.088-1.7,1.479
		c-4.163,2.371-8.293,4.8-12.439,7.202c-9.701,5.62-19.393,11.257-29.119,16.833c-1.897,1.088-4.025,1.216-6.217,1.134
		c-2.776-0.103-4.851-1.695-7.078-2.953c-6.216-3.512-12.384-7.11-18.574-10.668c-5.589-3.213-11.182-6.421-16.776-9.626
		c-3.75-2.148-7.507-4.283-11.259-6.428c-2.721-1.555-5.387-3.205-8.117-4.749c-1.64-0.928-3.323-1.832-4.936-2.84
		c-1.688-1.055-3.484-1.984-5.208-3.006c-1.525-0.904-3.031-1.866-4.57-2.721c-1.662-0.923-3.349-1.813-4.991-2.778
		c-1.536-0.903-3.072-1.823-4.608-2.708c-2.109-1.214-4.368-2.157-6.176-3.852c-0.378-2.533,0.923-3.961,3.062-5.047
		c2.085-1.059,4.04-2.374,6.052-3.576c1.215-0.522,2.347-1.19,3.427-1.949c3.424-1.876,6.823-3.793,10.119-5.888
		c1.22-0.542,2.375-1.198,3.457-1.98c4.225-2.293,8.379-4.709,12.47-7.231c2.457,1.339,4.974,2.576,7.222,4.269
		c-0.029,0.577-0.059,1.154-0.088,1.731c-1.715,0.814-3.335,1.791-4.911,2.844c-1.221,0.536-2.363,1.213-3.464,1.962
		c-3.4,1.891-6.798,3.786-10.079,5.881c-1.213,0.545-2.372,1.187-3.45,1.969c-3.424,1.856-6.807,3.782-10.099,5.866
		c-1.904,1.05-3.808,2.1-5.898,3.253c0.86,0.444,1.488,0.77,2.117,1.095c0.77,0.6,1.607,1.087,2.51,1.459
		c0.423,0.255,0.845,0.509,1.268,0.764c0.731,0.416,1.461,0.832,2.192,1.247c0.281,0.333,0.659,0.5,1.063,0.624
		c1.015,0.596,2.029,1.192,3.044,1.787c0.293,0.163,0.587,0.325,0.88,0.488c0.918,0.654,1.863,1.26,2.917,1.678
		c0.218,0.296,0.526,0.447,0.871,0.539c0.814,0.581,1.652,1.119,2.592,1.48c0.213,0.129,0.425,0.258,0.638,0.387
		c0.886,0.636,1.813,1.202,2.817,1.633c0.373,0.219,0.747,0.437,1.12,0.656c0.927,0.642,1.867,1.26,2.925,1.672
		c0.219,0.296,0.524,0.453,0.873,0.538c0.809,0.587,1.652,1.117,2.588,1.483c0.206,0.125,0.411,0.251,0.617,0.376
		c0.887,0.639,1.816,1.205,2.824,1.635c0.376,0.224,0.751,0.447,1.127,0.671c0.93,0.639,1.876,1.251,2.932,1.669
		c0.225,0.287,0.523,0.455,0.875,0.534c0.807,0.59,1.649,1.117,2.584,1.483c0.228,0.287,0.533,0.446,0.883,0.528
		c0.787,0.598,1.633,1.096,2.547,1.475c0.404,0.25,0.808,0.501,1.211,0.751c0.953,0.535,1.906,1.071,2.859,1.606
		c0.232,0.274,0.523,0.449,0.875,0.522c0.803,0.597,1.649,1.12,2.584,1.489c0.294,0.174,0.588,0.349,0.882,0.523
		c0.786,0.592,1.623,1.096,2.535,1.469c0.41,0.252,0.82,0.504,1.23,0.756c0.951,0.539,1.902,1.079,2.853,1.618
		c0.151,0.086,0.302,0.172,0.453,0.259c0.934,0.699,1.938,1.279,3.004,1.751c0.237,0.271,0.524,0.454,0.883,0.512
		c0.779,0.594,1.612,1.096,2.522,1.464c0.417,0.253,0.833,0.507,1.25,0.76c0.949,0.549,1.898,1.097,2.846,1.646
		c0.143,0.077,0.286,0.153,0.43,0.23c1.009,0.59,2.017,1.18,3.026,1.77c0.294,0.166,0.589,0.331,0.883,0.497
		c0.771,0.596,1.606,1.083,2.505,1.458c1.363,1.026,2.021-0.468,2.994-0.838c3.525-1.942,7.026-3.927,10.422-6.088
		c1.214-0.511,2.321-1.213,3.42-1.93c3.482-2.04,6.964-4.079,10.446-6.119c1.152-0.656,2.305-1.312,3.457-1.967
		c3.39-1.914,6.798-3.797,10.073-5.908c2.425-1.19,4.709-2.617,7.247-4.13c-0.893-0.458-1.553-0.797-2.214-1.136
		c-0.937-0.683-1.923-1.281-2.998-1.725c-0.233-0.28-0.533-0.443-0.885-0.52c-0.79-0.597-1.638-1.092-2.555-1.467
		c-0.377-0.227-0.754-0.453-1.131-0.68c-0.943-0.616-1.88-1.242-2.942-1.646c-0.224-0.29-0.522-0.456-0.875-0.534
		c-0.809-0.586-1.658-1.101-2.59-1.469c-0.208-0.126-0.416-0.252-0.624-0.377c-0.892-0.636-1.827-1.195-2.837-1.626
		c-0.374-0.216-0.749-0.432-1.123-0.648c-0.769-0.593-1.61-1.06-2.503-1.436c-0.322-0.186-0.643-0.373-0.965-0.559
		c-0.001-0.73-0.002-1.461-0.003-2.191c0.564,0.276,1.128,0.551,1.692,0.827c0.219,0.296,0.523,0.454,0.874,0.534
		c0.809,0.588,1.654,1.111,2.592,1.473c0.208,0.126,0.415,0.253,0.623,0.379c0.895,0.633,1.827,1.2,2.838,1.63
		C118.81,98.817,119.195,99.016,119.623,99.14z M114.173,124.455c-0.097,0.095-0.194,0.189-0.291,0.284
		c-0.494-0.024-0.928,0.071-1.156,0.579c-0.095,0.097-0.19,0.193-0.285,0.29c-0.241-0.002-0.455,0.05-0.579,0.286
		c-0.612-0.014-1.113,0.121-1.156,0.867c-1.177,0.584-0.498,1.196,0.088,1.566c0.779,0.492,1.762,0.737,2.627,0.352
		c2.719-1.209,5.25-2.784,7.791-4.321c0.644-0.389,0.94-1.153-0.104-1.634c-0.033-0.32-0.206-0.471-0.521-0.574
		c-2.463-0.806-4.08,0.805-5.84,2.014C114.511,124.172,114.296,124.223,114.173,124.455z M24.299,77.967
		c0.098-0.033,0.244-0.056,0.365-0.125c2.622-1.49,5.241-2.984,7.859-4.482c0.292-0.167,0.629-0.358,0.406-0.776
		c-0.205-0.384-0.535-0.33-0.864-0.147c-2.679,1.488-5.359,2.973-8.034,4.468c-0.253,0.141-0.493,0.339-0.344,0.689
		C23.788,77.835,24.002,77.942,24.299,77.967z"/>
	<path fill="#BF7764" d="M46.41,37.617c-0.034-1.161-0.068-2.323-0.102-3.484c-0.006-0.485-0.012-0.97-0.018-1.455
		c0.017-1.334,0.034-2.669,0.051-4.003c1.321-0.233,1.725-1.103,1.773-2.347c0.029-0.756-0.378-1.607,0.326-2.273
		c-0.367,3.001,0.49,5.549,2.777,7.583c0.73,0.649,1.54,0.969,2.496,0.673c0.941-0.291,1.089-1.186,1.213-1.956
		c0.135-0.837,0.036-1.712,0.039-2.57c0.115,0.046,0.231,0.093,0.346,0.139c-0.005,0.814-0.059,1.63-0.006,2.44
		c0.154,2.357,1.329,4.177,3.221,5.483c1.489,1.029,2.962,0.246,3.118-1.57c0.07-0.809,0.032-1.626,0.043-2.44
		c0.178,0,0.355,0,0.533,0c-0.001,0.091,0,0.182,0.002,0.273c-1.077,2.446,0.97,7.095,3.731,8.198
		c1.135,0.453,1.863-0.033,2.31-1.042c0.485-1.096,0.285-2.267,0.272-3.414c0.099-0.006,0.199-0.012,0.298-0.018
		c0.007,0.527,0.039,1.055,0.017,1.58c-0.107,2.616,1.13,4.576,3.023,6.213c0.659,0.57,1.455,0.838,2.267,0.505
		c0.844-0.347,1.092-1.15,1.091-2.018c-0.001-0.862-0.016-1.724-0.025-2.586c0.105,0.04,0.211,0.079,0.316,0.119
		c0.008,0.096,0.021,0.191,0.038,0.286c-0.272,2.976,0.697,5.478,2.961,7.419c0.624,0.535,1.347,1.129,2.328,0.696
		c0.988-0.436,1.198-1.322,1.269-2.242c0.063-0.81,0.004-1.629-0.001-2.444c0.133,0.014,0.267,0.028,0.4,0.042
		c0.077,0.096,0.154,0.192,0.23,0.288c-0.238,2.606,0.151,5.026,2.003,7.045c0.816,0.889,1.721,1.529,2.998,1.267
		c1.258-0.259,1.252-1.387,1.527-2.313c0.147,2.591,1.141,4.731,3.464,6.037c1.531,0.861,2.643,0.301,2.902-1.426
		c0.14-0.935,0.041-1.906,0.05-2.861c0.461,0.041,0.873-0.054,1.179-0.435c0.528-0.214,1.067-0.405,1.582-0.646
		c2.932-1.371,5.858-2.754,8.787-4.133c0.002,10.661,0.004,21.321,0,31.982c0,0.417,0.126,0.876-0.256,1.219
		c-3.477-2.014-6.954-4.027-10.431-6.041c0.007-2.284,0.016-4.567,0.02-6.851c0.005-2.322-0.34-2.581-2.353-1.775
		c-0.454-0.674-0.891-0.233-1.328,0.023c-1.758,1.029-3.514,2.059-5.272,3.089c-0.077-0.085-0.155-0.169-0.232-0.254
		c-0.036-0.182-0.072-0.364-0.108-0.546c0.007-0.115,0.014-0.231,0.021-0.346l0.023-0.024c0.247,0.035,0.456-0.02,0.593-0.249
		c0.522-0.023,1.018-0.099,1.422-0.778c-0.701,0.099-1.135,0.295-1.424,0.775c-0.172-0.094-0.343-0.187-0.515-0.281
		c-0.023-2.131-0.046-4.262-0.068-6.392c-0.48-1.284-1.237-0.182-1.862-0.216c-0.414-0.686-0.838-0.474-1.417-0.136
		c-1.77,1.033-3.432,2.269-5.38,2.984c-0.123-0.746,0.55-0.807,0.954-1.055c1.655-1.02,3.332-2.005,5.001-3.003
		c-0.066-0.111-0.131-0.222-0.197-0.334c-2.024,1.11-4.047,2.22-6.071,3.33c-0.003-1.846,0.013-3.692-0.023-5.537
		c-0.008-0.429,0.305-1.137-0.611-1.104c0.294-0.488,0.591-0.993-0.395-0.894c-0.317,0.032-0.624,0.173-0.936,0.264
		c-0.586-0.515-1.111-0.248-1.666,0.092c-1.41,0.862-2.824,1.719-4.271,2.517c-0.252,0.139-0.721,0.932-1.012-0.031
		c2.018-1.222,4.036-2.444,6.054-3.666c-0.064-0.105-0.128-0.209-0.191-0.314c-1.953,1.047-3.906,2.094-5.86,3.141
		c-0.012-0.902,0.029-1.808-0.047-2.704c-0.109-1.289,0.337-2.617-0.269-3.87c-0.351-1.165-1.112-0.428-1.726-0.372
		c-0.343-0.747-0.757-0.431-1.25-0.137c-1.889,1.128-3.8,2.219-5.703,3.324c-0.088-0.188-0.176-0.377-0.263-0.565
		c1.428-0.86,2.856-1.721,4.284-2.581c-1.645,0.223-2.846,1.284-4.275,1.886c0.007-1.955,0.028-3.91,0.017-5.864
		c-0.009-1.75-0.41-1.991-2.062-1.29c-0.347-0.965-0.889-0.382-1.332-0.135c-1.774,0.989-3.531,2.008-5.294,3.016
		c0-0.194,0-0.387,0-0.581c0.299-0.279,0.599-0.559,0.898-0.838c0.097-0.094,0.193-0.187,0.29-0.281
		c0.556,0.003,1.021-0.146,1.579-0.96c-0.852,0.315-1.332,0.439-1.6,0.938c-0.096,0.095-0.191,0.189-0.287,0.284
		c-0.33,0.038-0.661,0.075-0.991,0.113c-0.3-2.15-0.033-4.314-0.157-6.468c-0.569-1.676-1.467-0.522-2.262-0.264
		c-0.394-0.536-0.813-0.307-1.243-0.05c-0.443,0.265-0.84,0.633-1.398,0.656c-0.005-0.197-0.011-0.395-0.016-0.592
		c0.523-0.706,1.603-0.635,2.038-1.463c0.033-0.015,0.071-0.025,0.097-0.048c0.016-0.014,0.013-0.049,0.019-0.075
		c-0.04,0.04-0.079,0.08-0.119,0.119C47.627,36.908,47.098,37.522,46.41,37.617z M56.759,42.512c0.252-0.04,0.564,0.07,0.697-0.261
		c0.018-0.045-0.061-0.186-0.108-0.193c-0.329-0.049-0.469,0.199-0.613,0.429c-0.04,0.047-0.08,0.094-0.121,0.14
		C56.663,42.59,56.711,42.551,56.759,42.512z M89.935,65.295c0.541-0.006,1.023-0.114,1.507-0.915
		c-0.769,0.304-1.251,0.412-1.505,0.917c-0.022,0.04-0.045,0.08-0.067,0.12C89.891,65.376,89.913,65.336,89.935,65.295z
		 M93.4,63.278c-0.619,0.154-1.201,0.365-1.532,0.969c0.62-0.153,1.306-0.203,1.528-0.974c0.096-0.072,0.37,0.126,0.301-0.198
		C93.598,63.143,93.499,63.211,93.4,63.278z M66.582,47.542c-0.683,0.028-1.25,0.232-1.84,0.994
		C65.65,48.347,66.175,48.041,66.582,47.542z M56,43.016c-0.585,0.013-1.124,0.146-1.585,0.877
		C55.188,43.765,55.632,43.479,56,43.016z"/>
	<path fill="#DC9881" d="M106.983,79.427c0.382-0.343,0.256-0.802,0.256-1.219c0.004-10.661,0.001-21.321,0-31.982
		c0.001-1.823,0.002-3.646,0.003-5.469c0.009-0.089,0.006-0.177-0.011-0.265c1.006-0.082,1.593-1.101,2.607-1.164
		c0.024,1.342,0.047,2.684,0.071,4.027c0.009,0.391,0.017,0.781,0.026,1.172c-0.009,1.533-0.017,3.067-0.026,4.6
		c0.009,0.391,0.017,0.781,0.026,1.172c-0.009,1.533-0.017,3.067-0.026,4.6c0.009,0.391,0.017,0.781,0.026,1.172
		c-0.009,1.533-0.017,3.067-0.026,4.6c0.009,0.391,0.017,0.781,0.026,1.172c-0.009,1.533-0.017,3.067-0.026,4.6
		c0.009,0.391,0.017,0.781,0.026,1.172c-0.009,1.533-0.017,3.067-0.026,4.6c0.009,0.391,0.017,0.781,0.026,1.172
		c-0.009,1.533-0.017,3.067-0.026,4.6c0.009,0.391,0.017,0.781,0.026,1.172c-0.009,1.533-0.017,3.067-0.026,4.6
		c0.009,0.391,0.017,0.781,0.026,1.172c-0.009,1.533-0.017,3.067-0.026,4.6c0.009,0.391,0.017,0.781,0.026,1.172
		c-0.018,0.981-0.037,1.962-0.055,2.944c0.001,0.73,0.002,1.461,0.003,2.191c0.015,0.309,0.03,0.617,0.045,0.926
		c-0.008,1.437-0.017,2.874-0.025,4.312c0.008,0.487,0.017,0.974,0.025,1.46c-0.008,1.437-0.017,2.874-0.025,4.312
		c0.008,0.487,0.017,0.974,0.025,1.46c-0.008,1.437-0.017,2.874-0.025,4.312c0.008,0.487,0.017,0.974,0.025,1.46
		c0.259,1.668-0.573,2.616-2.003,3.322c-1.239,0.611-2.38,1.42-3.564,2.141c-1.222,0.531-2.377,1.18-3.449,1.973
		c-3.543,1.903-7.057,3.856-10.427,6.057c-0.464,0.102-0.876,0.438-1.391,0.313c-0.777-0.613-1.613-1.124-2.55-1.458
		c-0.332-0.384-0.77-0.601-1.231-0.782c-0.743-0.411-1.392-0.992-2.232-1.226c-0.284-0.361-0.66-0.552-1.113-0.597
		c-0.889-0.756-1.886-1.328-2.972-1.749c-0.218-0.296-0.507-0.478-0.873-0.53c-0.777-0.616-1.613-1.128-2.553-1.459
		c-0.328-0.387-0.764-0.602-1.225-0.779c-0.937-0.551-1.809-1.22-2.862-1.558c-0.206-0.15-0.413-0.3-0.619-0.45
		c-0.924-0.561-1.793-1.223-2.84-1.559c-0.217-0.299-0.502-0.488-0.874-0.535c-0.804-0.571-1.611-1.139-2.557-1.461
		c-0.32-0.394-0.757-0.603-1.217-0.778c-0.938-0.548-1.806-1.227-2.863-1.556c-0.206-0.151-0.413-0.303-0.619-0.454
		c-0.944-0.523-1.795-1.218-2.842-1.553c-0.291-0.18-0.582-0.36-0.873-0.54c-0.805-0.573-1.613-1.142-2.562-1.462
		c-0.403-0.259-0.806-0.518-1.208-0.777c-0.941-0.543-1.799-1.238-2.867-1.546c-0.167-0.095-0.335-0.19-0.502-0.285
		c-0.892-0.738-1.877-1.315-2.957-1.73c-0.292-0.18-0.584-0.36-0.876-0.541c-0.803-0.579-1.612-1.148-2.565-1.465
		c-0.4-0.259-0.801-0.517-1.201-0.776c-0.962-0.503-1.802-1.231-2.868-1.541c-0.169-0.098-0.338-0.195-0.508-0.293
		c-0.897-0.724-1.864-1.328-2.953-1.723c-0.293-0.18-0.586-0.361-0.879-0.542c-0.791-0.602-1.648-1.089-2.565-1.47
		c-0.375-0.215-0.749-0.43-1.124-0.645c-0.579-0.708-1.876-0.682-1.952-1.905c0.146-0.405,0.149-0.806-0.034-1.202
		c0.205-0.385,0.004-0.912,0.427-1.22c0.398,0.268,0.781,0.56,1.196,0.799c9.924,5.733,19.847,11.468,29.779,17.187
		c9.642,5.552,19.295,11.087,28.94,16.635c0.527,0.303,0.994,0.467,1.599,0.113c5.296-3.103,10.607-6.182,15.914-9.265
		c0.309-0.179,0.556-0.383,0.499-0.788c0.412-0.313,0.33-0.769,0.33-1.193c0.003-9.708,0.005-19.416-0.003-29.124
		c-0.001-1.307-0.26-1.422-1.412-0.755c-4.852,2.81-9.77,5.514-14.529,8.472c-1.587,0.987-2.66,0.636-4.013-0.172
		c-3.95-2.357-7.938-4.65-11.921-6.954c-6.554-3.79-13.109-7.578-19.674-11.348c-3.072-1.764-6.058-3.68-9.27-5.194
		c-2.248-1.693-4.765-2.93-7.222-4.269c-1.197-0.824-2.428-1.59-3.774-2.153c-0.229-0.278-0.515-0.459-0.872-0.521
		c-0.908-0.669-1.854-1.271-2.918-1.668c-0.21-0.308-0.533-0.443-0.867-0.561c-0.675-0.396-1.349-0.791-2.024-1.187
		c-0.072-0.49-0.144-0.98-0.216-1.47c0.283-0.477-0.055-1.148,0.485-1.543c1.068,1.058,2.434,1.662,3.712,2.384
		c5.086,2.877,10.222,5.666,15.296,8.566c6.485,3.707,12.919,7.502,19.389,11.234c7.052,4.069,14.13,8.093,21.169,12.183
		c0.915,0.532,1.604,0.508,2.486-0.031c3.106-1.897,6.281-3.682,9.38-5.59C102.634,82.18,104.992,81.093,106.983,79.427z"/>
	<path fill="#36323F" d="M0.613,89.556c1.808,1.695,4.067,2.637,6.176,3.852c1.537,0.885,3.072,1.805,4.608,2.708
		c1.642,0.965,3.329,1.855,4.991,2.778c1.54,0.855,3.046,1.818,4.57,2.721c1.724,1.022,3.52,1.951,5.208,3.006
		c1.612,1.008,3.295,1.912,4.936,2.84c2.73,1.544,5.395,3.194,8.117,4.749c3.752,2.144,7.509,4.28,11.259,6.428
		c5.594,3.204,11.186,6.413,16.776,9.626c6.19,3.558,12.358,7.156,18.574,10.668c2.227,1.258,4.302,2.85,7.078,2.953
		c2.193,0.081,4.32-0.047,6.217-1.134c9.726-5.576,19.418-11.213,29.119-16.833c4.146-2.402,8.276-4.831,12.439-7.202
		c0.688-0.392,0.979-1.168,1.7-1.479c0.463,2.644-0.402,4.51-2.949,5.677c-1.685,0.772-3.208,1.898-4.804,2.865
		c-1.129,0.649-2.259,1.298-3.388,1.948c-3.483,2.057-6.967,4.113-10.45,6.17c-1.21,0.528-2.326,1.221-3.42,1.953
		c-3.509,1.991-7.031,3.961-10.425,6.147c-1.214,0.541-2.356,1.207-3.436,1.982c-1.086,0.608-2.225,1.138-3.247,1.839
		c-3.127,2.143-6.474,2.45-10.025,1.375c-0.294-0.157-0.588-0.314-0.882-0.471c-0.739-0.417-1.478-0.835-2.216-1.252
		c-0.281-0.335-0.66-0.5-1.067-0.616c-0.946-0.693-1.957-1.275-3.03-1.751c-0.242-0.262-0.527-0.449-0.887-0.504
		c-0.779-0.6-1.618-1.094-2.532-1.458c-0.412-0.252-0.824-0.503-1.236-0.755c-0.951-0.536-1.903-1.073-2.854-1.609
		c-0.153-0.087-0.306-0.174-0.459-0.261c-0.944-0.681-1.933-1.281-3.008-1.734c-0.102-0.249-0.338-0.275-0.555-0.333
		c-0.91-0.635-1.84-1.233-2.876-1.647c-0.38-0.234-0.76-0.469-1.139-0.703c-0.979-0.548-1.958-1.095-2.937-1.643
		c-0.23-0.281-0.523-0.458-0.882-0.521c-0.801-0.599-1.65-1.112-2.584-1.479c-0.103-0.267-0.357-0.284-0.581-0.351
		c-0.902-0.638-1.835-1.22-2.86-1.643c-0.379-0.227-0.759-0.454-1.138-0.681c-0.934-0.624-1.872-1.24-2.928-1.649
		c-0.22-0.295-0.52-0.458-0.876-0.529c-0.806-0.592-1.654-1.112-2.589-1.477c-0.116-0.265-0.373-0.296-0.607-0.366
		c-0.897-0.638-1.833-1.209-2.85-1.637c-0.308-0.336-0.7-0.527-1.127-0.658c-0.765-0.581-1.595-1.05-2.476-1.43
		c-0.44-0.254-0.88-0.508-1.32-0.762c-0.665-0.509-1.379-0.932-2.16-1.239c-0.287-0.322-0.66-0.495-1.064-0.617
		c-1.025-0.599-2.051-1.197-3.076-1.796c-0.295-0.16-0.589-0.32-0.884-0.48c-0.768-0.59-1.6-1.069-2.493-1.442
		c-0.43-0.254-0.861-0.508-1.291-0.762c-0.947-0.549-1.895-1.098-2.842-1.648c-0.137-0.071-0.273-0.142-0.41-0.214
		c-1.018-0.59-2.035-1.18-3.053-1.77c-0.296-0.164-0.592-0.329-0.888-0.493c-0.771-0.6-1.61-1.082-2.514-1.451
		c-0.421-0.253-0.841-0.506-1.262-0.759c-0.949-0.543-1.898-1.086-2.847-1.629c-0.146-0.079-0.291-0.158-0.437-0.237
		c-0.947-0.693-1.957-1.275-3.029-1.75c-0.242-0.262-0.527-0.449-0.887-0.504c-0.778-0.6-1.618-1.093-2.532-1.458
		c-0.412-0.252-0.824-0.503-1.236-0.755c-0.951-0.536-1.903-1.073-2.854-1.609C5.826,96.574,5.673,96.487,5.52,96.4
		c-0.944-0.679-1.934-1.279-3.006-1.736c-0.277-0.211-0.555-0.422-0.832-0.633C0.49,92.738,0.348,91.196,0.613,89.556z"/>
	<path fill="#ECC3B0" d="M106.983,79.427c-1.992,1.666-4.349,2.753-6.539,4.101c-3.099,1.908-6.274,3.693-9.38,5.59
		c-0.882,0.539-1.571,0.563-2.486,0.031c-7.04-4.09-14.117-8.115-21.169-12.183c-6.47-3.733-12.904-7.528-19.389-11.234
		c-5.073-2.9-10.209-5.689-15.296-8.566c-1.277-0.723-2.644-1.326-3.712-2.384c0.896-1.203,2.441-1.488,3.49-2.475
		c1.234-0.52,2.402-1.155,3.453-1.992c1.149-0.591,2.298-1.183,3.447-1.774c0.019,2.737,0.082,5.475,0.037,8.211
		c-0.021,1.242,0.638,1.733,1.684,1.926c0.73,0.135,1.398-0.046,2.061-0.431c1.697-0.985,3.332-2.087,5.16-2.834
		c0.006,2.055,0.04,4.11,0.005,6.163c-0.016,0.917,0.082,1.732,0.987,2.192c0.931,0.473,1.793,0.344,2.688-0.217
		c1.816-1.138,3.684-2.195,5.531-3.284c0.019,2.237,0.052,4.472,0.05,6.708c-0.001,0.826-0.067,1.636,0.867,2.065
		c0.943,0.433,1.828,0.468,2.637-0.282c1.886-0.691,3.336-2.165,5.197-2.901c0.027,2.058,0.056,4.117,0.081,6.175
		c0.031,2.495,1.601,3.351,3.795,2.059c1.774-1.045,3.542-2.1,5.312-3.15c0.014,2.291,0.044,4.582,0.036,6.873
		c-0.003,0.945,0.217,1.681,1.233,1.995c0.993,0.307,1.873,0.332,2.483-0.687c1.716-0.945,3.432-1.89,5.149-2.836
		c0.014,2.059,0.029,4.118,0.043,6.178c0.016,2.365,1.487,3.247,3.612,2.091c2.308-1.256,4.549-2.638,6.861-3.886
		c1.043-0.563,1.456-1.241,1.42-2.474c-0.046-1.596-0.319-3.231,0.222-4.81C100.029,75.4,103.506,77.413,106.983,79.427z"/>
	<path fill="#ECC3B0" d="M109.839,39.328c-1.014,0.062-1.602,1.082-2.607,1.164c-1.976-1.109-3.958-2.207-5.924-3.336
		c-0.421-0.242-0.788-0.534-1.268-0.165c-0.015-0.509-0.371-0.717-0.765-0.932c-1.878-1.026-3.745-2.071-5.616-3.109
		c-2.181-1.583-4.542-2.858-6.958-4.037c-0.331-0.192-0.655-0.397-0.994-0.573c-1.949-1.014-3.554-2.589-5.606-3.434
		c-1.596-0.953-3.17-1.945-4.799-2.838c-0.64-0.351-1.177-1.028-2.045-0.867c-1.971-1.69-4.299-2.76-6.639-3.807
		c-1.966-1.692-4.311-2.753-6.584-3.93c-0.091-0.047-0.267,0.071-0.403,0.112c-1.933-1.83-4.284-3.015-6.595-4.261
		c-2.107-1.513-4.407-2.69-6.709-3.864c0.111-0.13,0.222-0.26,0.333-0.39c1.287-0.645,2.567-1.364,3.997-0.344
		c0.397,0.27,0.794,0.541,1.19,0.811c0.989,0.439,1.791,1.238,2.874,1.497c0.177,0.096,0.354,0.192,0.531,0.288
		c0.859,0.776,1.83,1.362,2.93,1.731c0.29,0.186,0.58,0.371,0.87,0.557c0.795,0.599,1.658,1.079,2.576,1.461
		c0.396,0.27,0.791,0.541,1.187,0.811c0.99,0.436,1.789,1.241,2.874,1.493c0.178,0.098,0.355,0.196,0.533,0.294
		c0.829,0.825,1.903,1.233,2.928,1.726c0.285,0.193,0.57,0.387,0.855,0.58c0.834,0.535,1.588,1.213,2.592,1.442
		c0.395,0.269,0.79,0.539,1.186,0.808c0.989,0.436,1.784,1.249,2.874,1.49c0.111,0.224,0.316,0.28,0.54,0.299
		c0.823,0.831,1.898,1.234,2.921,1.725c0.179,0.299,0.487,0.29,0.777,0.326c0.724,0.83,1.696,1.267,2.674,1.696
		c0.302,0.342,0.707,0.494,1.128,0.617c0.856,0.769,1.889,1.227,2.927,1.679c0.289,0.193,0.577,0.385,0.866,0.578
		c0.808,0.586,1.654,1.103,2.597,1.446c0.179,0.304,0.488,0.297,0.782,0.33c0.786,0.916,1.866,1.338,2.952,1.749
		c0.19,0.326,0.484,0.497,0.847,0.565c0.852,0.772,1.888,1.225,2.924,1.677c0.289,0.193,0.578,0.386,0.867,0.579
		c0.838,0.532,1.638,1.131,2.596,1.446c0.18,0.307,0.492,0.299,0.788,0.329c0.78,0.923,1.864,1.335,2.946,1.749
		c0.192,0.327,0.484,0.502,0.853,0.56c0.904,0.679,1.837,1.309,2.918,1.681c0.107,0.099,0.214,0.197,0.321,0.296
		C109.867,39.13,109.853,39.229,109.839,39.328z"/>
	<path fill="#D02B3A" d="M48.345,55.414c-1.828,0.747-3.463,1.849-5.16,2.834c-0.663,0.385-1.331,0.565-2.061,0.431
		c-1.047-0.193-1.705-0.684-1.684-1.926c0.045-2.736-0.018-5.474-0.037-8.211c0.008-0.571,0.017-1.143,0.025-1.714
		c-0.005-0.483-0.01-0.966-0.015-1.449c0.04-0.764,0.08-1.527,0.121-2.29c2.02,1.179,3.726,0.227,5.432-0.789
		c2.073-1.235,4.054-2.633,6.295-3.571c0.124,2.154-0.142,4.318,0.156,6.467c-0.246,0.256-0.492,0.513-0.737,0.769l0.011-0.009
		c-0.1,0.1-0.199,0.2-0.299,0.3l0.012-0.009c-0.244,0.004-0.472,0.042-0.59,0.297l0.013-0.008c-1.085,0.07-1.433,0.678-1.422,1.721
		C48.429,50.64,48.37,53.027,48.345,55.414z"/>
	<path fill="#FCE89F" d="M53.037,9.314c2.311,1.246,4.662,2.431,6.595,4.261c-3.664,3.404-7.329,6.808-10.993,10.212
		c-2.497-0.583-4.476-2.239-6.942-3.463c0,0.987,0,1.782,0,2.578c-0.133-0.015-0.267-0.03-0.4-0.045
		c-0.213-0.943,0.232-1.91-0.1-2.85c0.855-0.058,1.306-0.744,1.845-1.248C46.388,15.626,49.708,12.465,53.037,9.314z"/>
	<path fill="#EFB748" d="M42.843,26.05c-0.18-0.29-0.36-0.58-0.54-0.87c-0.127-0.78-0.626-1.46-0.606-2.279c0-0.795,0-1.59,0-2.578
		c2.466,1.224,4.444,2.88,6.942,3.463c0.004,0.076,0.004,0.152,0.003,0.228c-0.068,0.007-0.135,0.021-0.2,0.039
		c-0.705,0.667-0.298,1.517-0.327,2.273c-0.047,1.244-0.452,2.114-1.773,2.347c-0.277-0.036-0.554-0.073-0.831-0.109
		c-0.293-0.172-0.586-0.343-0.878-0.515C44.036,27.384,43.439,26.717,42.843,26.05z"/>
	<path fill="#D02B3A" d="M35.477,21.245c-0.102-0.233-0.205-0.466-0.307-0.7c-0.367-1.219-0.356-2.479-0.398-3.733
		c0.034-0.088,0.069-0.176,0.107-0.262c2.185,1.008,4.069,2.566,6.318,3.457c0.332,0.94-0.113,1.907,0.1,2.85
		c-0.538,1.892-1.026,2.175-2.931,1.7c-0.28-0.193-0.56-0.386-0.84-0.579C36.842,23.067,36.16,22.156,35.477,21.245z"/>
	<path fill="#E24E56" d="M51.261,38.727c-2.241,0.938-4.222,2.336-6.295,3.571c-1.705,1.016-3.411,1.968-5.432,0.789
		c-0.104-0.57-0.201-1.138,0.475-1.453c0,0-0.016-0.019-0.016-0.019c0.19,0.321-0.233,0.974,0.532,0.984
		c0.732,0.388,1.445,0.095,2.029-0.247c2.166-1.265,4.41-2.405,6.445-3.889C49.793,38.205,50.692,37.051,51.261,38.727z"/>
	<path fill="#F3F3F3" d="M39.413,45.378c0.005,0.483,0.01,0.966,0.015,1.449c-1.502,0.82-2.671,1.971-3.472,3.489
		c-1.051,0.837-2.219,1.472-3.453,1.992c-0.006-0.554,0.416-0.841,0.749-1.175c1.66-1.668,3.324-3.332,4.992-4.992
		C38.578,45.808,38.862,45.384,39.413,45.378z"/>
	<path fill="#E24E56" d="M46.41,37.617c0.688-0.095,1.216-0.709,1.965-0.605l0.003,0.003c-0.435,0.828-1.515,0.757-2.037,1.463
		c-0.662,0.289-1.325,0.578-1.987,0.866c-0.047-0.062-0.095-0.123-0.144-0.184C44.861,38.528,45.876,38.415,46.41,37.617z"/>
	<path fill="#E24E56" d="M40.009,41.634c0.604-0.63,1.396-0.942,2.167-1.291c0.053,0.052,0.106,0.105,0.159,0.157
		c-0.713,0.514-1.34,1.208-2.343,1.115L40.009,41.634z"/>
	<path fill="#E24E56" d="M42.176,40.343c0.679-0.394,1.357-0.788,2.035-1.182c0.048,0.06,0.096,0.121,0.143,0.183
		c-0.572,0.562-1.27,0.904-2.019,1.156C42.282,40.448,42.229,40.396,42.176,40.343z"/>
	<path fill="#BF7764" d="M46.421,68.153c3.212,1.514,6.198,3.431,9.27,5.194c6.565,3.77,13.121,7.557,19.674,11.348
		c3.982,2.303,7.971,4.596,11.921,6.954c1.353,0.808,2.426,1.158,4.013,0.172c4.759-2.959,9.677-5.663,14.529-8.472
		c1.152-0.667,1.411-0.552,1.412,0.755c0.008,9.708,0.006,19.416,0.003,29.124c0,0.424,0.082,0.879-0.33,1.192
		c-0.423-0.215-0.85-0.421-1.268-0.646c-2.764-1.486-5.346-3.294-8.194-4.632c-0.01-0.269-0.021-0.538-0.031-0.808
		c0.953-0.66,0.989-1.184-0.123-1.774c-2.155-1.144-4.333-2.273-6.368-3.609c-1.543-1.013-2.923-1.314-4.451-0.152
		c-2.151-1.622-4.531-2.854-6.924-4.064c-0.115-0.116-0.231-0.232-0.346-0.348c1.365-1.136,1.361-1.129-0.28-2.051
		c-2.159-1.213-4.311-2.437-6.466-3.657c-0.578-0.327-1.133-0.735-1.862-0.521c0.158-0.372,0.172-0.722-0.365-0.569
		c-0.496,0.141-0.952,0.424-1.425,0.645c-2.481-1.381-4.963-2.762-7.444-4.144c-0.024-0.077-0.047-0.155-0.07-0.232
		c1.045-0.54,1.047-1.081,0.014-1.647c-0.916-0.501-1.838-0.993-2.728-1.538c-1.771-1.084-3.722-1.87-5.337-3.212
		c-0.877-0.831-1.483,0.374-2.26,0.301c-1.673-0.528-2.951-1.844-4.647-2.326c-0.008-1.634-0.016-3.267-0.025-4.901
		c-0.006-0.485-0.012-0.97-0.018-1.454c0.012-1.066,0.025-2.131,0.037-3.197C46.362,69.308,46.391,68.73,46.421,68.153z"/>
	<path fill="#EBEBF2" d="M104.362,119.542c1.184-0.721,2.325-1.53,3.564-2.141c1.43-0.705,2.262-1.654,2.003-3.322
		c0.245-0.132,0.54-0.215,0.73-0.404c3.416-3.396,6.819-6.805,10.228-10.209c0.276-0.276,0.523-0.559,0.516-0.98
		c1.062,0.403,1.999,1.03,2.941,1.646c-0.368,0.436-0.706,0.902-1.108,1.305c-7.585,7.596-15.179,15.183-22.761,22.782
		c-0.422,0.423-1.042,0.746-0.99,1.496c-3.397,2.162-6.897,4.147-10.422,6.088c-0.018-0.735,0.574-1.078,1.002-1.507
		c4.447-4.461,8.907-8.91,13.354-13.372C103.813,120.528,104.364,120.217,104.362,119.542z"/>
	<path fill="#EBEBF2" d="M46.332,69.885c-0.012,1.066-0.025,2.131-0.037,3.197c-0.427,0.016-0.679,0.315-0.949,0.585
		c-4.26,4.26-8.521,8.52-12.78,12.781c-0.303,0.303-0.65,0.58-0.64,1.071c-0.856,0.904-2.317,1.007-2.94,2.22
		c-0.423,0.308-0.222,0.835-0.426,1.22c-0.184,0.041-0.43,0.019-0.545,0.132c-2.511,2.468-5.157,4.804-7.39,7.545
		c-1.015-0.596-2.029-1.192-3.044-1.788c0.307-0.223,0.65-0.409,0.915-0.673c7.424-7.411,14.84-14.829,22.256-22.247
		c0.334-0.334,0.745-0.632,0.668-1.199C42.997,71.675,44.618,70.699,46.332,69.885z"/>
	<path fill="#EBEBF2" d="M125.475,104.812c0.917,0.375,1.766,0.87,2.555,1.467c-0.345,0.393-0.67,0.807-1.039,1.177
		c-4.227,4.237-8.464,8.463-12.686,12.705c-0.42,0.422-1.046,0.745-0.954,1.505c-3.482,2.04-6.964,4.079-10.446,6.118
		c-0.023-0.789,0.605-1.161,1.065-1.623c6.767-6.779,13.541-13.552,20.32-20.321C124.658,105.472,125.078,105.153,125.475,104.812z"
		/>
	<path fill="#EBEBF2" d="M27.879,80.571c3.281-2.094,6.679-3.989,10.079-5.88c0.097,0.692-0.437,1.023-0.832,1.419
		c-6.397,6.405-12.798,12.805-19.2,19.204c-0.402,0.402-0.757,0.885-1.406,0.91c-0.731-0.416-1.461-0.832-2.192-1.247
		c0.033-0.66,0.582-0.963,0.974-1.357c3.878-3.895,7.771-7.776,11.65-11.67C27.344,81.556,27.893,81.247,27.879,80.571z"/>
	<path fill="#EBEBF2" d="M90.485,127.571c3.371-2.2,6.884-4.154,10.427-6.056c0.008,0.672-0.523,0.997-0.919,1.394
		c-4.167,4.178-8.34,8.351-12.518,12.518c-0.438,0.437-0.811,0.956-1.407,1.213c-0.899-0.376-1.734-0.862-2.505-1.458
		c1.854-2.233,4.065-4.12,6.051-6.224C89.992,128.558,90.557,128.26,90.485,127.571z"/>
	<path fill="#EBEBF2" d="M128.915,106.799c1.075,0.444,2.061,1.042,2.998,1.725c-1.253,0.8-2.166,1.97-3.189,3.011
		c-0.676,0.687-1.647,1.167-1.844,2.255c-3.275,2.111-6.683,3.994-10.073,5.908c-0.104-0.692,0.424-1.028,0.82-1.426
		c1.961-1.972,3.952-3.915,5.891-5.909C125.32,110.511,127.292,108.824,128.915,106.799z"/>
	<path fill="#EBEBF2" d="M109.904,112.619c0.008-1.437,0.017-2.874,0.025-4.312c2.973-2.297,5.442-5.109,8.008-7.823
		c0.933,0.368,1.782,0.883,2.59,1.469c0.011,0.491-0.339,0.768-0.642,1.07c-3.008,3.01-6.018,6.019-9.027,9.028
		C110.588,112.32,110.337,112.623,109.904,112.619z"/>
	<path fill="#EBEBF2" d="M14.33,88.406c3.291-2.084,6.674-4.01,10.099-5.866c0.027,0.615-0.437,0.931-0.803,1.299
		c-1.624,1.633-3.232,3.283-4.89,4.881c-1.896,1.828-3.596,3.858-5.677,5.493c-0.903-0.372-1.74-0.859-2.51-1.459
		c0.405-0.46,0.825-0.908,1.212-1.382C12.59,90.358,13.853,89.722,14.33,88.406z"/>
	<path fill="#EBEBF2" d="M125.475,104.812c-0.396,0.342-0.816,0.66-1.186,1.029c-6.778,6.769-13.552,13.541-20.32,20.321
		c-0.461,0.461-1.088,0.834-1.065,1.623c-1.098,0.717-2.205,1.419-3.42,1.93c-0.052-0.75,0.567-1.073,0.99-1.496
		c7.582-7.599,15.177-15.185,22.761-22.782c0.402-0.402,0.74-0.868,1.108-1.305C124.721,104.358,125.098,104.585,125.475,104.812z"
		/>
	<path fill="#EBEBF2" d="M16.519,96.224c0.649-0.025,1.004-0.508,1.406-0.91c6.402-6.399,12.804-12.799,19.2-19.204
		c0.395-0.396,0.929-0.727,0.832-1.419c1.101-0.749,2.242-1.426,3.464-1.963c0.077,0.566-0.334,0.865-0.668,1.199
		c-7.416,7.419-14.832,14.837-22.256,22.247c-0.265,0.264-0.608,0.45-0.915,0.673C17.178,96.724,16.8,96.557,16.519,96.224z"/>
	<path fill="#EBEBF2" d="M86.545,126.426c0.937,0.334,1.772,0.846,2.549,1.459c-0.54,0.593-1.078,1.188-1.621,1.778
		c-1.567,1.703-3.414,3.14-4.794,5.022c-1.009-0.59-2.017-1.18-3.026-1.77c0.612-0.231,0.974-0.764,1.423-1.189
		C82.923,129.984,84.57,128.036,86.545,126.426z"/>
	<path fill="#EBEBF2" d="M28.592,92.161c0.076,1.223,1.373,1.197,1.952,1.906c-1.558,1.949-3.483,3.543-5.178,5.358
		c-0.381,0.408-0.935,0.708-0.944,1.376c-1.053-0.419-1.999-1.024-2.917-1.678c1.045-1.432,2.398-2.574,3.656-3.798
		C26.275,94.242,27.171,92.912,28.592,92.161z"/>
	<path fill="#EBEBF2" d="M78.996,122.072c1.086,0.421,2.083,0.993,2.971,1.75c-0.631,0.285-1.015,0.855-1.499,1.307
		c-1.809,1.687-3.386,3.614-5.34,5.15c-0.91-0.368-1.743-0.87-2.522-1.464c0.41-0.462,0.81-0.933,1.231-1.385
		C75.525,125.614,77.466,124.042,78.996,122.072z"/>
	<path fill="#EBEBF2" d="M60.514,111.407c1.057,0.329,1.924,1.008,2.863,1.556c-0.016,0.612-0.517,0.897-0.878,1.262
		c-1.451,1.472-2.921,2.926-4.379,4.391c-0.368,0.37-0.823,0.692-0.814,1.3c-0.953-0.535-1.906-1.071-2.859-1.606
		c0.026-0.547,0.468-0.812,0.796-1.144c1.48-1.495,2.974-2.976,4.458-4.468C60.067,112.331,60.523,112.013,60.514,111.407z"/>
	<path fill="#EBEBF2" d="M71.484,117.745c1.053,0.339,1.925,1.008,2.862,1.559c-0.011,0.605-0.503,0.891-0.86,1.252
		c-1.469,1.488-2.954,2.961-4.432,4.441c-0.367,0.367-0.797,0.699-0.788,1.296c-0.951-0.539-1.902-1.079-2.853-1.618
		c0.019-0.55,0.46-0.819,0.789-1.151c1.485-1.499,2.983-2.985,4.472-4.48C71.041,118.674,71.493,118.352,71.484,117.745z"/>
	<path fill="#EBEBF2" d="M75.57,120.083c0.94,0.331,1.776,0.843,2.553,1.459c-0.411,0.463-0.814,0.934-1.235,1.388
		c-1.689,1.822-3.643,3.389-5.165,5.372c-1.066-0.472-2.07-1.052-3.004-1.751c0.604-0.239,0.962-0.77,1.41-1.193
		C71.966,123.625,73.606,121.687,75.57,120.083z"/>
	<path fill="#EBEBF2" d="M49.542,105.075c1.067,0.309,1.926,1.003,2.867,1.546c-0.018,0.609-0.518,0.892-0.878,1.256
		c-1.446,1.467-2.911,2.914-4.362,4.375c-0.364,0.367-0.831,0.679-0.823,1.288c-1.056-0.418-2.002-1.031-2.932-1.669
		c1.551-1.987,3.506-3.585,5.217-5.418C49.01,106.046,49.545,105.736,49.542,105.075z"/>
	<path fill="#EBEBF2" d="M68.025,115.736c1.047,0.336,1.916,0.999,2.84,1.559c-2.139,2.297-4.304,4.568-6.683,6.624
		c-0.913-0.373-1.75-0.876-2.535-1.469c0.41-0.46,0.811-0.928,1.23-1.378C64.563,119.264,66.491,117.691,68.025,115.736z"/>
	<path fill="#EBEBF2" d="M83.081,124.419c0.84,0.233,1.489,0.815,2.232,1.226c-0.009,0.609-0.503,0.897-0.862,1.261
		c-1.444,1.462-2.904,2.909-4.354,4.364c-0.401,0.402-0.885,0.757-0.873,1.415c-0.949-0.549-1.898-1.097-2.846-1.646
		c0.013-0.303,0.155-0.537,0.366-0.748c1.787-1.782,3.572-3.566,5.352-5.355C82.374,124.657,82.677,124.448,83.081,124.419z"/>
	<path fill="#EBEBF2" d="M64.593,113.741c0.947,0.322,1.753,0.889,2.557,1.461c-0.41,0.461-0.811,0.93-1.232,1.381
		c-1.687,1.811-3.62,3.385-5.154,5.345c-0.935-0.369-1.78-0.892-2.584-1.489c0.08-0.221,0.099-0.504,0.25-0.653
		C60.475,117.76,62.388,115.601,64.593,113.741z"/>
	<path fill="#EBEBF2" d="M57.053,109.4c1.047,0.335,1.898,1.03,2.842,1.553c-2.133,2.289-4.296,4.548-6.659,6.605
		c-0.914-0.379-1.759-0.877-2.547-1.475c0.376-0.423,0.743-0.856,1.13-1.269C53.537,112.984,55.479,111.37,57.053,109.4z"/>
	<path fill="#EBEBF2" d="M38.573,98.738c1.065,0.31,1.906,1.038,2.868,1.541c-0.021,0.606-0.52,0.887-0.878,1.25
		c-1.441,1.462-2.902,2.904-4.348,4.362c-0.362,0.365-0.836,0.668-0.831,1.277c-1.058-0.413-1.998-1.03-2.925-1.672
		c1.547-1.964,3.485-3.551,5.182-5.371C38.024,99.715,38.571,99.407,38.573,98.738z"/>
	<path fill="#EBEBF2" d="M53.617,107.398c0.95,0.32,1.757,0.889,2.562,1.462c-0.376,0.425-0.74,0.86-1.128,1.274
		c-1.722,1.833-3.663,3.454-5.245,5.422c-0.935-0.366-1.778-0.893-2.584-1.483c0.081-0.219,0.101-0.5,0.251-0.649
		C49.513,111.408,51.42,109.254,53.617,107.398z"/>
	<path fill="#EBEBF2" d="M42.642,101.055c0.953,0.316,1.762,0.885,2.565,1.465c-0.375,0.423-0.738,0.857-1.126,1.268
		c-1.72,1.825-3.645,3.449-5.235,5.4c-0.937-0.365-1.779-0.895-2.588-1.483c0.083-0.218,0.107-0.495,0.258-0.644
		C38.553,105.055,40.452,102.906,42.642,101.055z"/>
	<path fill="#EBEBF2" d="M46.083,103.061c1.081,0.415,2.066,0.992,2.957,1.73c-0.467,0.405-0.948,0.796-1.399,1.218
		c-1.812,1.701-3.419,3.615-5.354,5.19c-1.008-0.43-1.937-0.996-2.824-1.635C41.914,107.645,44.004,105.359,46.083,103.061z"/>
	<path fill="#EBEBF2" d="M35.112,96.723c1.089,0.395,2.056,0.999,2.953,1.723c-0.432,0.371-0.882,0.722-1.291,1.116
		c-1.818,1.753-3.624,3.518-5.435,5.278c-1.005-0.431-1.931-0.997-2.817-1.633C30.948,101.278,33.04,99.01,35.112,96.723z"/>
	<path fill="#EBEBF2" d="M31.669,94.711c0.917,0.381,1.774,0.868,2.565,1.47c-0.346,0.394-0.677,0.802-1.041,1.179
		c-1.764,1.825-3.537,3.64-5.307,5.459c-0.94-0.36-1.778-0.899-2.592-1.48c0.085-0.216,0.114-0.49,0.265-0.639
		C27.592,98.702,29.484,96.557,31.669,94.711z"/>
	<path fill="#EBEBF2" d="M109.904,106.847c0.008-1.437,0.017-2.874,0.025-4.312c0.587-0.062,0.868-0.552,1.241-0.904
		c1.109-1.043,2.205-2.1,3.305-3.151c1.009,0.431,1.945,0.99,2.836,1.626c-2.284,1.648-3.998,3.894-6.06,5.773
		C110.842,106.252,110.56,106.813,109.904,106.847z"/>
	<path fill="#EBEBF2" d="M86.068,136.64c0.596-0.257,0.969-0.776,1.407-1.213c4.178-4.167,8.351-8.34,12.518-12.518
		c0.396-0.397,0.928-0.722,0.919-1.394c1.072-0.794,2.227-1.442,3.449-1.974c0.002,0.675-0.549,0.986-0.944,1.382
		c-4.447,4.461-8.907,8.91-13.354,13.372c-0.428,0.43-1.02,0.772-1.002,1.507C88.09,136.173,87.431,137.666,86.068,136.64z"/>
	<path fill="#EBEBF2" d="M128.915,106.799c-1.623,2.025-3.595,3.712-5.396,5.565c-1.939,1.994-3.93,3.936-5.891,5.909
		c-0.396,0.398-0.924,0.734-0.82,1.426c-1.152,0.656-2.305,1.312-3.457,1.968c-0.093-0.76,0.534-1.083,0.954-1.505
		c4.222-4.242,8.46-8.468,12.686-12.705c0.369-0.37,0.694-0.784,1.039-1.177C128.382,106.355,128.683,106.519,128.915,106.799z"/>
	<path fill="#EBEBF2" d="M13.06,94.213c2.082-1.635,3.782-3.665,5.677-5.493c1.658-1.598,3.265-3.248,4.89-4.881
		c0.366-0.368,0.83-0.684,0.803-1.299c1.078-0.782,2.236-1.424,3.45-1.969c0.014,0.675-0.535,0.985-0.926,1.378
		c-3.879,3.894-7.772,7.775-11.65,11.67c-0.392,0.394-0.941,0.697-0.974,1.357C13.905,94.722,13.482,94.467,13.06,94.213z"/>
	<path fill="#EBEBF2" d="M109.904,112.619c0.433,0.004,0.684-0.299,0.954-0.568c3.01-3.009,6.019-6.018,9.027-9.028
		c0.302-0.302,0.652-0.579,0.642-1.07c0.353,0.077,0.652,0.244,0.875,0.534c0.007,0.421-0.24,0.704-0.516,0.98
		c-3.408,3.404-6.811,6.813-10.228,10.209c-0.19,0.189-0.484,0.272-0.73,0.404C109.921,113.592,109.912,113.105,109.904,112.619z"/>
	<path fill="#36323F" d="M24.299,77.967c-0.297-0.026-0.511-0.132-0.613-0.372c-0.149-0.349,0.092-0.548,0.344-0.689
		c2.675-1.494,5.356-2.979,8.034-4.468c0.33-0.183,0.659-0.237,0.864,0.147c0.223,0.418-0.114,0.608-0.406,0.776
		c-2.617,1.498-5.237,2.992-7.859,4.482C24.544,77.911,24.398,77.935,24.299,77.967z"/>
	<path fill="#EBEBF2" d="M28.592,92.161c-1.422,0.751-2.317,2.081-3.431,3.164c-1.258,1.224-2.611,2.366-3.656,3.798
		c-0.293-0.163-0.587-0.325-0.88-0.488c2.232-2.741,4.879-5.077,7.39-7.545c0.114-0.113,0.361-0.091,0.545-0.132
		C28.741,91.355,28.738,91.756,28.592,92.161z"/>
	<path fill="#EBEBF2" d="M109.904,106.847c0.656-0.033,0.938-0.595,1.348-0.967c2.063-1.879,3.776-4.125,6.06-5.773
		c0.208,0.126,0.416,0.251,0.624,0.377c-2.565,2.714-5.035,5.526-8.008,7.823C109.921,107.82,109.912,107.333,109.904,106.847z"/>
	<path fill="#EBEBF2" d="M126.88,113.79c0.197-1.089,1.168-1.568,1.844-2.255c1.023-1.041,1.935-2.211,3.189-3.011
		c0.661,0.339,1.322,0.678,2.214,1.136C131.589,111.174,129.305,112.601,126.88,113.79z"/>
	<path fill="#EBEBF2" d="M82.679,134.685c1.38-1.882,3.227-3.319,4.794-5.022c0.543-0.59,1.081-1.185,1.621-1.778
		c0.515,0.125,0.927-0.212,1.391-0.313c0.072,0.688-0.493,0.986-0.871,1.386c-1.986,2.104-4.197,3.991-6.051,6.224
		C83.268,135.016,82.974,134.851,82.679,134.685z"/>
	<path fill="#EBEBF2" d="M83.081,124.419c-0.404,0.029-0.707,0.238-0.985,0.518c-1.78,1.789-3.565,3.573-5.352,5.355
		c-0.211,0.21-0.353,0.445-0.366,0.748c-0.416-0.253-0.833-0.507-1.25-0.76c1.954-1.536,3.531-3.464,5.34-5.15
		c0.485-0.452,0.868-1.022,1.499-1.307C82.421,123.868,82.797,124.058,83.081,124.419z"/>
	<path fill="#EBEBF2" d="M109.904,101.075c0.008-1.437,0.017-2.875,0.025-4.312c0.307-0.122,0.614-0.245,0.921-0.367
		c0.893,0.376,1.734,0.843,2.503,1.436C112.318,99.035,111.38,100.341,109.904,101.075z"/>
	<path fill="#EBEBF2" d="M64.593,113.741c-2.205,1.86-4.119,4.019-6.163,6.044c-0.151,0.149-0.169,0.432-0.25,0.653
		c-0.352-0.074-0.643-0.249-0.875-0.522c-0.009-0.608,0.446-0.93,0.814-1.3c1.458-1.465,2.928-2.919,4.379-4.391
		c0.361-0.366,0.862-0.651,0.878-1.262C63.836,113.138,64.274,113.347,64.593,113.741z"/>
	<path fill="#EBEBF2" d="M71.722,128.302c1.522-1.983,3.476-3.55,5.165-5.372c0.421-0.454,0.824-0.925,1.235-1.388
		c0.367,0.053,0.655,0.234,0.873,0.53c-1.53,1.969-3.471,3.541-5.16,5.357c-0.42,0.452-0.821,0.923-1.231,1.385
		C72.246,128.757,71.959,128.573,71.722,128.302z"/>
	<path fill="#EBEBF2" d="M42.642,101.055c-2.19,1.851-4.089,4-6.126,6.007c-0.151,0.149-0.175,0.426-0.258,0.644
		c-0.35-0.084-0.654-0.242-0.873-0.538c-0.006-0.609,0.469-0.912,0.831-1.277c1.445-1.458,2.907-2.9,4.348-4.362
		c0.358-0.363,0.857-0.644,0.878-1.25C41.841,100.538,42.242,100.797,42.642,101.055z"/>
	<path fill="#36323F" d="M121.109,122.723c1.044,0.481,0.748,1.245,0.104,1.634c-2.541,1.537-5.071,3.112-7.791,4.321
		c-0.865,0.384-1.847,0.14-2.627-0.352c-0.586-0.37-1.265-0.981-0.088-1.566c0,0,0.013,0.012,0.013,0.012
		c0.403,1.36,1.603,1.834,3.007,1.075c2.218-1.199,4.396-2.473,6.59-3.717c0.541-0.307,0.865-0.74,0.783-1.399L121.109,122.723z"/>
	<path fill="#EBEBF2" d="M79.224,132.685c-0.011-0.658,0.473-1.013,0.873-1.415c1.451-1.456,2.911-2.902,4.354-4.364
		c0.359-0.364,0.853-0.652,0.862-1.261c0.461,0.181,0.899,0.397,1.231,0.782c-1.974,1.61-3.621,3.557-5.468,5.3
		c-0.45,0.424-0.811,0.958-1.423,1.189C79.51,132.838,79.367,132.762,79.224,132.685z"/>
	<path fill="#EBEBF2" d="M53.236,117.559c2.363-2.058,4.526-4.316,6.659-6.605c0.206,0.152,0.413,0.303,0.619,0.455
		c0.009,0.606-0.447,0.923-0.813,1.291c-1.484,1.492-2.978,2.973-4.458,4.468c-0.328,0.331-0.769,0.597-0.796,1.144
		C54.043,118.06,53.64,117.809,53.236,117.559z"/>
	<path fill="#EBEBF2" d="M60.765,121.927c1.534-1.959,3.467-3.533,5.154-5.345c0.42-0.451,0.822-0.92,1.232-1.381
		c0.372,0.046,0.657,0.235,0.874,0.535c-1.534,1.954-3.462,3.528-5.148,5.336c-0.42,0.45-0.821,0.918-1.23,1.378
		C61.353,122.276,61.059,122.102,60.765,121.927z"/>
	<path fill="#EBEBF2" d="M75.57,120.083c-1.964,1.604-3.604,3.542-5.442,5.275c-0.448,0.422-0.806,0.954-1.41,1.193
		c-0.151-0.086-0.302-0.172-0.453-0.258c-0.009-0.597,0.421-0.929,0.788-1.296c1.478-1.48,2.963-2.953,4.432-4.441
		c0.357-0.362,0.849-0.647,0.86-1.252C74.806,119.481,75.242,119.697,75.57,120.083z"/>
	<path fill="#EBEBF2" d="M53.617,107.398c-2.197,1.856-4.104,4.009-6.144,6.026c-0.151,0.149-0.171,0.43-0.251,0.649
		c-0.353-0.078-0.65-0.246-0.875-0.534c-0.007-0.609,0.459-0.92,0.823-1.288c1.451-1.461,2.917-2.908,4.362-4.375
		c0.359-0.364,0.859-0.647,0.878-1.256C52.812,106.88,53.214,107.139,53.617,107.398z"/>
	<path fill="#EBEBF2" d="M64.182,123.919c2.379-2.055,4.544-4.326,6.683-6.624c0.206,0.15,0.412,0.301,0.619,0.45
		c0.01,0.606-0.443,0.928-0.81,1.297c-1.489,1.495-2.987,2.981-4.472,4.48c-0.329,0.333-0.77,0.601-0.789,1.151
		C65.002,124.423,64.592,124.171,64.182,123.919z"/>
	<path fill="#EBEBF2" d="M49.806,115.556c1.582-1.968,3.523-3.589,5.245-5.422c0.388-0.413,0.753-0.848,1.128-1.274
		c0.291,0.18,0.582,0.36,0.873,0.54c-1.573,1.97-3.516,3.584-5.234,5.414c-0.387,0.413-0.754,0.845-1.13,1.269
		C50.338,116.002,50.034,115.843,49.806,115.556z"/>
	<path fill="#EBEBF2" d="M31.669,94.711c-2.184,1.846-4.076,3.991-6.111,5.99c-0.151,0.149-0.18,0.423-0.265,0.639
		c-0.345-0.091-0.652-0.243-0.871-0.539c0.008-0.668,0.562-0.968,0.944-1.376c1.696-1.815,3.62-3.409,5.178-5.358
		C30.919,94.281,31.294,94.496,31.669,94.711z"/>
	<path fill="#EBEBF2" d="M27.885,102.819c1.77-1.819,3.543-3.635,5.307-5.459c0.364-0.377,0.695-0.785,1.041-1.179
		c0.293,0.181,0.586,0.361,0.879,0.542c-2.073,2.287-4.164,4.555-6.589,6.484C28.31,103.077,28.098,102.948,27.885,102.819z"/>
	<path fill="#EBEBF2" d="M31.34,104.84c1.81-1.761,3.616-3.526,5.435-5.278c0.409-0.394,0.859-0.745,1.291-1.116
		c0.17,0.097,0.339,0.195,0.508,0.293c-0.003,0.668-0.549,0.976-0.932,1.387c-1.697,1.82-3.634,3.407-5.182,5.371
		C32.086,105.277,31.713,105.058,31.34,104.84z"/>
	<path fill="#EBEBF2" d="M46.083,103.061c-2.079,2.298-4.169,4.584-6.62,6.504c-0.206-0.125-0.412-0.251-0.617-0.376
		c1.59-1.951,3.515-3.575,5.235-5.4c0.388-0.411,0.751-0.845,1.126-1.268C45.499,102.7,45.791,102.88,46.083,103.061z"/>
	<path fill="#EBEBF2" d="M42.287,111.2c1.935-1.575,3.541-3.489,5.354-5.19c0.45-0.423,0.931-0.813,1.399-1.218
		c0.168,0.095,0.335,0.19,0.503,0.284c0.002,0.661-0.532,0.971-0.911,1.377c-1.711,1.833-3.666,3.431-5.217,5.418
		C43.039,111.647,42.663,111.423,42.287,111.2z"/>
	<path fill="#EBEBF2" d="M14.33,88.406c-0.478,1.316-1.741,1.952-2.569,2.966c-0.388,0.474-0.807,0.922-1.212,1.382
		c-0.629-0.325-1.258-0.65-2.117-1.095C10.522,90.506,12.426,89.456,14.33,88.406z"/>
	<path fill="#EBEBF2" d="M109.904,101.075c1.476-0.734,2.414-2.04,3.449-3.243c0.374,0.216,0.749,0.432,1.123,0.648
		c-1.101,1.051-2.197,2.108-3.305,3.151c-0.374,0.352-0.654,0.842-1.241,0.904C109.921,102.048,109.912,101.561,109.904,101.075z"/>
	<path fill="#36323F" d="M114.747,124.162c1.76-1.208,3.378-2.82,5.841-2.014c0.315,0.103,0.488,0.255,0.521,0.574
		c0,0-0.008,0.008-0.008,0.008c-1.656-0.663-3.146-0.219-4.546,0.713c-0.555,0.369-1.078,0.776-1.794,0.734L114.747,124.162z"/>
	<path fill="#36323F" d="M110.707,126.76c0.043-0.746,0.544-0.88,1.156-0.867c0,0,0.011,0.015,0.011,0.015
		c-0.219,0.509-0.739,0.616-1.154,0.863L110.707,126.76z"/>
	<path fill="#E2E1E7" d="M110.849,96.396c-0.307,0.122-0.614,0.245-0.921,0.367c-0.015-0.309-0.03-0.617-0.045-0.926
		C110.206,96.023,110.528,96.21,110.849,96.396z"/>
	<path fill="#36323F" d="M112.727,125.318c0.228-0.508,0.662-0.603,1.156-0.579c0,0,0.012,0.014,0.012,0.014
		c-0.224,0.511-0.661,0.602-1.153,0.58L112.727,125.318z"/>
	<path fill="#36323F" d="M111.863,125.894c0.123-0.236,0.338-0.288,0.579-0.286l0.008,0.009c-0.123,0.233-0.338,0.284-0.575,0.292
		L111.863,125.894z"/>
	<path fill="#36323F" d="M114.173,124.455c0.123-0.233,0.338-0.283,0.574-0.293c0,0,0.013,0.016,0.013,0.016
		c-0.123,0.237-0.338,0.287-0.579,0.286L114.173,124.455z"/>
	<path fill="#36323F" d="M113.883,124.739c0.097-0.095,0.194-0.189,0.291-0.284c0,0,0.009,0.009,0.008,0.009
		c-0.096,0.096-0.191,0.193-0.287,0.289C113.895,124.753,113.883,124.739,113.883,124.739z"/>
	<path fill="#36323F" d="M112.442,125.608c0.095-0.096,0.19-0.193,0.285-0.29c0,0,0.014,0.015,0.014,0.015
		c-0.097,0.095-0.194,0.189-0.292,0.284C112.45,125.617,112.442,125.608,112.442,125.608z"/>
	<path fill="#B0C38F" d="M96.553,73.386c-0.541,1.579-0.268,3.214-0.222,4.81c0.036,1.233-0.378,1.911-1.42,2.474
		c-2.313,1.248-4.553,2.63-6.861,3.886c-2.125,1.156-3.596,0.274-3.612-2.091c-0.014-2.059-0.029-4.118-0.043-6.178
		c0.244-2.618-0.294-5.283,0.366-7.984c0.437,0.357,0.687,0.76,1.19,0.656c0.525,0.081,1.088,0.183,1.551-0.094
		c2.252-1.347,4.481-2.732,6.717-4.104c2.013-0.806,2.358-0.547,2.353,1.775C96.568,68.819,96.559,71.103,96.553,73.386z"/>
	<path fill="#EFB748" d="M48.345,55.414c0.025-2.387,0.084-4.774,0.06-7.16c-0.011-1.042,0.337-1.651,1.422-1.721
		c-1.103,1.036-1.103,1.036-0.23,1.423c0.667,0.003,1.334,0.065,1.95-0.312c2.198-1.343,4.405-2.671,6.608-4.005
		c1.652-0.701,2.053-0.46,2.062,1.29c0.01,1.955-0.01,3.91-0.018,5.865c-0.287,0.169-0.559,0.375-0.865,0.499
		c-1.348,0.548-1.926,1.425-1.8,2.975c0.162,1.987,0.027,3.998,0.02,5.998c-1.846,1.09-3.714,2.147-5.53,3.285
		c-0.896,0.561-1.757,0.69-2.688,0.217c-0.905-0.46-1.002-1.275-0.987-2.192C48.385,59.524,48.351,57.469,48.345,55.414z"/>
	<path fill="#4F4B62" d="M75.494,70.942c-1.77,1.051-3.538,2.106-5.312,3.15c-2.193,1.292-3.763,0.436-3.795-2.059
		c-0.026-2.058-0.054-4.117-0.081-6.175c0.026-1.428,0.246-2.885,0.036-4.278c-0.408-2.716,0.281-4.692,3.018-5.659
		c0.038-0.013,0.06-0.072,0.089-0.11c1.953-1.047,3.906-2.094,5.86-3.141c0.064,0.105,0.128,0.209,0.191,0.314
		c-2.018,1.222-4.036,2.444-6.054,3.666c-0.799,0.166-1.402,0.714-2.099,1.077c-0.385,0.2-0.594,0.47-0.216,0.872
		c0.692,1.102,1.52,1.199,2.994,0.369c2.532-1.426,5.067-2.844,7.601-4.265c0.916-0.033,0.602,0.675,0.611,1.104
		c0.036,1.845,0.02,3.691,0.023,5.536c-0.352,0.244-0.673,0.565-1.061,0.719c-1.391,0.55-1.899,1.48-1.793,3.006
		C75.641,67.017,75.511,68.984,75.494,70.942z"/>
	<path fill="#E24E56" d="M73.258,21.2c0.868-0.161,1.405,0.516,2.045,0.867c1.629,0.893,3.203,1.885,4.799,2.838
		c-0.352,0.386-0.682,0.795-1.058,1.156c-3.311,3.185-6.63,6.361-9.946,9.54c-0.088,0.078-0.177,0.155-0.265,0.233
		c-0.099,0.006-0.199,0.012-0.298,0.019c-2.104-1.247-4.209-2.495-6.313-3.742c-0.002-0.091-0.003-0.182-0.002-0.273
		C65.899,28.291,69.578,24.746,73.258,21.2z"/>
	<path fill="#E24E56" d="M100.041,36.991c0.48-0.37,0.846-0.077,1.268,0.165c1.965,1.128,3.947,2.227,5.924,3.336
		c0.016,0.088,0.02,0.176,0.011,0.266c-3.766,2.916-6.845,6.549-10.246,9.845c-0.089,0.086-0.086,0.266-0.126,0.403
		c-0.306,0.381-0.717,0.475-1.179,0.435c-2.107-1.243-4.214-2.487-6.321-3.73c-0.015-0.088-0.026-0.177-0.033-0.266
		C92.905,43.959,96.473,40.475,100.041,36.991z"/>
	<path fill="#FCE89F" d="M73.258,21.2c-3.679,3.546-7.359,7.091-11.038,10.637c-0.178,0-0.355,0-0.533,0
		c-1.92-1.558-4.129-2.644-6.264-3.851c0.124-0.2,0.21-0.441,0.377-0.595c3.601-3.338,7.211-6.667,10.82-9.997
		C68.959,18.44,71.286,19.509,73.258,21.2z"/>
	<path fill="#E24E56" d="M66.619,17.393c-3.608,3.33-7.219,6.659-10.82,9.997c-0.166,0.154-0.253,0.395-0.375,0.596
		c0.001,0.001-0.112-0.063-0.112-0.063c-0.115-0.046-0.231-0.093-0.346-0.139c-2.162-1.166-4.346-2.295-6.324-3.77
		c0.002-0.076,0.001-0.153-0.003-0.228c3.664-3.403,7.328-6.807,10.993-10.211c0.136-0.041,0.313-0.159,0.403-0.112
		C62.308,14.64,64.653,15.701,66.619,17.393z"/>
	<path fill="#E24E56" d="M86.702,28.913c2.416,1.179,4.776,2.454,6.958,4.037c-3.714,3.484-7.428,6.968-11.142,10.452
		c-0.133-0.014-0.267-0.028-0.4-0.042c-0.5-0.039-0.874-0.348-1.292-0.577c-1.75-0.96-3.335-2.227-5.266-2.851
		c-0.017-0.095-0.03-0.19-0.038-0.286c3.329-3.115,6.664-6.224,9.979-9.354C85.941,29.877,86.523,29.563,86.702,28.913z"/>
	<path fill="#FCE89F" d="M86.702,28.913c-0.179,0.651-0.761,0.964-1.202,1.38c-3.315,3.13-6.65,6.238-9.979,9.354
		c-0.105-0.039-0.21-0.079-0.315-0.118c-0.512-0.329-1.037-0.641-1.535-0.992c-1.483-1.044-3.34-1.506-4.574-2.937
		c3.317-3.179,6.635-6.355,9.946-9.54c0.376-0.361,0.707-0.77,1.058-1.156c2.052,0.846,3.657,2.421,5.606,3.434
		C86.047,28.516,86.371,28.721,86.702,28.913z"/>
	<path fill="#FCE89F" d="M82.518,43.402c3.714-3.484,7.428-6.968,11.142-10.452c1.871,1.038,3.738,2.083,5.616,3.109
		c0.394,0.215,0.75,0.424,0.765,0.932c-3.568,3.484-7.135,6.968-10.703,10.452c-2.367-0.952-4.37-2.542-6.59-3.753
		C82.671,43.595,82.594,43.498,82.518,43.402z"/>
	<path fill="#98CEEE" d="M85.951,68.959c-0.503,0.103-0.753-0.299-1.19-0.656c-0.66,2.701-0.122,5.366-0.366,7.984
		c-1.717,0.945-3.433,1.891-5.149,2.836c0.172-2.45-0.298-4.879-0.251-7.323c0.03-1.566,0.349-3.117,0.01-4.7
		c-0.371-1.733,0.12-3.092,1.99-3.672c0.265-0.082,0.481-0.313,0.733-0.451c1.888-1.032,3.596-2.38,5.603-3.202
		c0.023,2.131,0.046,4.262,0.068,6.392c-0.025,0.177-0.05,0.355-0.075,0.533c0,0-0.023,0.024-0.023,0.024
		c-0.148,0.023-0.369-0.046-0.352,0.204c0.004,0.055,0.215,0.095,0.331,0.142c0.036,0.182,0.072,0.364,0.108,0.546
		c-0.005,0.109-0.01,0.218-0.015,0.326C86.899,68.282,86.425,68.621,85.951,68.959z"/>
	<path fill="#E2E1E7" d="M69.45,55.812c-0.029,0.038-0.051,0.096-0.089,0.11c-2.737,0.966-3.426,2.942-3.018,5.659
		c0.209,1.393-0.011,2.85-0.036,4.278c-1.861,0.736-3.311,2.209-5.197,2.901c-0.009-4.591-0.004-9.183-0.038-13.774
		c-0.006-0.749,0.193-1.186,0.899-1.576c2.419-1.334,4.78-2.772,7.163-4.171c0.606,1.252,0.16,2.581,0.269,3.87
		C69.479,54.005,69.438,54.911,69.45,55.812z"/>
	<path fill="#749ECE" d="M87.331,59.776c-2.008,0.823-3.715,2.17-5.603,3.202c-0.252,0.138-0.468,0.368-0.733,0.451
		c-1.87,0.579-2.361,1.938-1.99,3.672c0.339,1.583,0.02,3.134-0.01,4.7c-0.047,2.444,0.423,4.873,0.251,7.323
		c-0.61,1.02-1.491,0.994-2.483,0.687c-1.016-0.314-1.236-1.05-1.233-1.995c0.008-2.291-0.021-4.582-0.036-6.873
		c0.016-1.959,0.147-3.925,0.012-5.874c-0.106-1.525,0.402-2.456,1.793-3.006c0.388-0.153,0.709-0.475,1.061-0.719
		c2.023-1.109,4.047-2.219,6.07-3.329c0.066,0.111,0.131,0.222,0.197,0.334c-1.669,0.998-3.346,1.983-5.001,3.003
		c-0.404,0.249-1.077,0.309-0.954,1.055c0,0,0.007-0.006,0.007-0.006c-0.122-0.017-0.243-0.033-0.365-0.05
		c-0.704,0.023-1.251,0.4-1.727,0.854c-0.345,0.329-0.216,0.582,0.273,0.606c0.531,0.504,1.191,0.228,1.603,0
		c2.389-1.324,4.889-2.476,7.005-4.251C86.094,59.593,86.851,58.492,87.331,59.776z"/>
	<path fill="#B0C38F" d="M69.133,49.239c-2.383,1.398-4.745,2.836-7.163,4.171c-0.707,0.39-0.905,0.827-0.899,1.576
		c0.034,4.591,0.03,9.183,0.038,13.774c-0.809,0.75-1.694,0.715-2.637,0.282c-0.934-0.429-0.868-1.239-0.867-2.065
		c0.002-2.235-0.03-4.471-0.05-6.708c0.007-2.002,0.142-4.012-0.02-5.999c-0.126-1.55,0.452-2.427,1.8-2.975
		c0.305-0.124,0.577-0.33,0.865-0.499c1.429-0.602,2.63-1.664,4.275-1.887c-1.428,0.86-2.856,1.721-4.284,2.58
		c-0.577,0.34-1.189,0.633-1.718,1.035c-0.418,0.317-0.216,0.566,0.243,0.637c0.358,0.394,0.79,0.324,1.186,0.125
		c2.599-1.307,5.126-2.737,7.506-4.419C68.021,48.811,68.782,48.074,69.133,49.239z"/>
	<path fill="#D02B3A" d="M62.221,32.11c2.105,1.247,4.209,2.495,6.313,3.742c0.013,1.147,0.212,2.318-0.273,3.414
		c-0.446,1.008-1.175,1.495-2.31,1.042C63.191,39.204,61.144,34.556,62.221,32.11z"/>
	<path fill="#D02B3A" d="M48.641,24.015c1.979,1.474,4.163,2.604,6.324,3.77c-0.004,0.858,0.095,1.733-0.04,2.57
		c-0.124,0.77-0.272,1.665-1.213,1.956c-0.955,0.295-1.766-0.024-2.496-0.673c-2.287-2.034-3.144-4.582-2.777-7.583
		C48.507,24.035,48.574,24.022,48.641,24.015z"/>
	<path fill="#EFB748" d="M82.748,43.691c2.22,1.21,4.223,2.801,6.59,3.753c0.006,0.089,0.017,0.178,0.032,0.266
		c-0.204,0.124-0.218,0.323-0.211,0.53c0.04,0.11,0.08,0.22,0.12,0.33c-0.001,0.373-0.003,0.747-0.004,1.12
		c-0.275,0.927-0.268,2.055-1.527,2.313c-1.276,0.262-2.181-0.377-2.998-1.267C82.899,48.717,82.51,46.296,82.748,43.691z"/>
	<path fill="#EFB748" d="M69.097,35.6c1.234,1.431,3.091,1.892,4.574,2.937c0.498,0.351,1.023,0.663,1.535,0.992
		c0.008,0.861,0.024,1.723,0.024,2.585c0.001,0.868-0.247,1.671-1.091,2.018c-0.811,0.334-1.607,0.066-2.267-0.505
		c-1.893-1.637-3.13-3.597-3.023-6.213c0.021-0.526-0.01-1.053-0.017-1.58C68.921,35.756,69.009,35.678,69.097,35.6z"/>
	<path fill="#D02B3A" d="M75.56,39.932c1.931,0.625,3.516,1.892,5.266,2.851c0.418,0.229,0.792,0.538,1.292,0.577
		c0.005,0.815,0.064,1.634,0.001,2.444c-0.072,0.92-0.281,1.806-1.269,2.242c-0.981,0.433-1.704-0.16-2.328-0.696
		C76.257,45.41,75.288,42.907,75.56,39.932z"/>
	<path fill="#EFB748" d="M55.311,27.923c0,0,0.114,0.064,0.112,0.063c2.134,1.206,4.343,2.292,6.263,3.85
		c-0.011,0.814,0.027,1.631-0.042,2.44c-0.156,1.816-1.629,2.599-3.118,1.57c-1.891-1.307-3.067-3.126-3.221-5.483
		C55.252,29.554,55.306,28.737,55.311,27.923z"/>
	<path fill="#D02B3A" d="M89.16,48.24c-0.008-0.208,0.007-0.407,0.211-0.53c2.107,1.244,4.214,2.487,6.321,3.731
		c-0.009,0.955,0.09,1.926-0.05,2.861c-0.259,1.726-1.371,2.287-2.902,1.426c-2.323-1.306-3.317-3.446-3.464-6.037
		c0.001-0.373,0.002-0.746,0.004-1.12C89.24,48.459,89.2,48.35,89.16,48.24z"/>
	<path fill="#D02B3A" d="M96.87,51.005c0.04-0.136,0.037-0.317,0.126-0.403c3.401-3.296,6.48-6.929,10.246-9.845
		c-0.001,1.823-0.002,3.646-0.003,5.469c-2.928,1.379-5.855,2.762-8.787,4.133C97.937,50.6,97.398,50.791,96.87,51.005z"/>
	<path fill="#36323F" d="M77.726,54.705c-2.534,1.421-5.07,2.839-7.601,4.265c-1.474,0.83-2.301,0.733-2.994-0.369
		c0.664,0.089,1.39,0.253,1.971-0.081c2.468-1.42,5.017-2.71,7.293-4.445c0.312-0.091,0.618-0.232,0.936-0.264
		C78.317,53.711,78.02,54.217,77.726,54.705z"/>
	<path fill="#ECC3B0" d="M76.396,54.074c-2.276,1.735-4.826,3.025-7.293,4.445c-0.581,0.334-1.307,0.17-1.971,0.081
		c-0.378-0.402-0.169-0.672,0.216-0.872c0.698-0.363,1.301-0.911,2.099-1.077c0.291,0.964,0.761,0.17,1.012,0.031
		c1.447-0.797,2.861-1.655,4.271-2.517C75.285,53.827,75.81,53.559,76.396,54.074z"/>
	<path fill="#FCE89F" d="M85.469,59.56c-2.116,1.776-4.616,2.928-7.005,4.251c-0.412,0.228-1.073,0.504-1.603,0
		c0.491-0.391,0.982-0.782,1.474-1.172c0.186,0.024,0.315-0.035,0.345-0.238c0,0-0.007,0.006-0.007,0.006
		c1.947-0.715,3.609-1.95,5.38-2.984C84.632,59.086,85.055,58.874,85.469,59.56z"/>
	<path fill="#FCE89F" d="M67.407,48.866c-2.379,1.681-4.907,3.112-7.506,4.419c-0.395,0.199-0.828,0.269-1.185-0.125
		c0.58-0.369,1.159-0.738,1.738-1.106c1.903-1.105,3.814-2.196,5.703-3.324C66.651,48.435,67.065,48.119,67.407,48.866z"/>
	<path fill="#FCE89F" d="M58.155,43.639c-2.203,1.334-4.41,2.661-6.608,4.005c-0.616,0.377-1.283,0.315-1.95,0.312
		c0.644-0.479,1.288-0.957,1.932-1.436c1.763-1.008,3.52-2.027,5.294-3.016C57.266,43.257,57.808,42.675,58.155,43.639z"/>
	<path fill="#FCE89F" d="M85.951,68.959c0.474-0.338,0.948-0.677,1.421-1.015c0.085-0.015,0.168-0.039,0.248-0.072
		c1.757-1.03,3.514-2.06,5.272-3.089c0.437-0.256,0.874-0.697,1.328-0.023c-2.237,1.372-4.466,2.758-6.718,4.105
		C87.039,69.142,86.476,69.04,85.951,68.959z"/>
	<path fill="#FCE89F" d="M48.999,38.464c-2.034,1.484-4.278,2.624-6.445,3.889c-0.584,0.341-1.297,0.635-2.029,0.246
		c2.039-1.019,4.019-2.137,5.833-3.529c0.558-0.022,0.955-0.39,1.398-0.656C48.186,38.156,48.605,37.928,48.999,38.464z"/>
	<path fill="#F3F3F3" d="M46.358,39.07c-1.814,1.392-3.794,2.51-5.833,3.529c-0.765-0.009-0.342-0.662-0.532-0.984
		c1.002,0.093,1.629-0.601,2.343-1.115c0.749-0.252,1.447-0.594,2.019-1.156c0.663-0.289,1.325-0.578,1.987-0.866
		C46.347,38.675,46.353,38.872,46.358,39.07z"/>
	<path fill="#D02B3A" d="M51.529,46.52c-0.644,0.479-1.288,0.958-1.932,1.436c-0.873-0.387-0.873-0.387,0.23-1.423
		c0,0-0.013,0.008-0.013,0.008c0.197-0.099,0.393-0.198,0.59-0.297c0,0-0.012,0.009-0.012,0.009c0.1-0.1,0.199-0.2,0.299-0.3
		c0,0-0.011,0.009-0.011,0.009c0.283-0.008,0.566-0.017,0.849-0.025C51.529,46.132,51.529,46.326,51.529,46.52z"/>
	<path fill="#EFB748" d="M60.454,52.054c-0.579,0.369-1.158,0.738-1.738,1.106c-0.46-0.071-0.662-0.32-0.244-0.637
		c0.53-0.402,1.142-0.695,1.718-1.035C60.279,51.677,60.367,51.865,60.454,52.054z"/>
	<path fill="#B0C38F" d="M66.582,47.542c-0.407,0.499-0.931,0.805-1.84,0.994C65.332,47.774,65.899,47.57,66.582,47.542z"/>
	<path fill="#EFB748" d="M56,43.016c-0.369,0.463-0.813,0.748-1.585,0.877C54.876,43.162,55.416,43.029,56,43.016z"/>
	<path fill="#B0C38F" d="M93.396,63.273c-0.222,0.771-0.908,0.821-1.528,0.974c0.331-0.604,0.913-0.815,1.532-0.969L93.396,63.273z"
		/>
	<path fill="#EFB748" d="M51.529,45.939c-0.283,0.008-0.566,0.017-0.849,0.025c0.245-0.257,0.49-0.513,0.737-0.769
		c0.332-0.037,0.662-0.074,0.992-0.112c0,0,0.018,0.018,0.018,0.018C52.128,45.38,51.828,45.659,51.529,45.939z"/>
	<path fill="#B0C38F" d="M89.937,65.297c0.254-0.505,0.736-0.613,1.505-0.917c-0.484,0.801-0.966,0.91-1.507,0.915L89.937,65.297z"
		/>
	<path fill="#EFB748" d="M52.696,44.798c0.268-0.499,0.748-0.624,1.6-0.938c-0.557,0.814-1.023,0.963-1.579,0.96L52.696,44.798z"/>
	<path fill="#B0C38F" d="M87.914,66.449c0.289-0.48,0.723-0.676,1.424-0.775c-0.405,0.678-0.9,0.755-1.422,0.778
		C87.916,66.452,87.914,66.449,87.914,66.449z"/>
	<path fill="#EFB748" d="M56.735,42.488c0.145-0.231,0.284-0.478,0.613-0.429c0.047,0.007,0.126,0.147,0.108,0.193
		c-0.133,0.33-0.445,0.22-0.697,0.261L56.735,42.488z"/>
	<path fill="#B0C38F" d="M87.324,66.701c0.025-0.178,0.05-0.356,0.075-0.533c0.172,0.094,0.344,0.188,0.515,0.281
		c0,0,0.002,0.003,0.002,0.003C87.78,66.681,87.571,66.736,87.324,66.701z"/>
	<path fill="#B0C38F" d="M87.28,67.071c-0.116-0.047-0.328-0.088-0.331-0.142c-0.017-0.25,0.204-0.181,0.352-0.204
		C87.293,66.84,87.287,66.956,87.28,67.071z"/>
	<path fill="#B0C38F" d="M93.4,63.278c0.099-0.067,0.198-0.135,0.297-0.202c0.07,0.324-0.204,0.126-0.301,0.198
		C93.396,63.273,93.4,63.278,93.4,63.278z"/>
	<path fill="#B0C38F" d="M89.935,65.295c-0.022,0.041-0.044,0.081-0.066,0.122c0.022-0.04,0.045-0.08,0.067-0.12
		C89.937,65.297,89.935,65.295,89.935,65.295z"/>
	<path fill="#E24E56" d="M48.376,37.011c0.04-0.04,0.079-0.08,0.119-0.119c-0.006,0.026-0.003,0.061-0.019,0.075
		c-0.026,0.023-0.064,0.033-0.097,0.048C48.379,37.015,48.376,37.011,48.376,37.011z"/>
	<path fill="#B0C38F" d="M87.62,67.872c-0.08,0.033-0.163,0.057-0.248,0.072c0.005-0.109,0.01-0.218,0.015-0.326
		C87.465,67.702,87.543,67.787,87.62,67.872z"/>
	<path fill="#EFB748" d="M56.759,42.512c-0.048,0.039-0.096,0.077-0.145,0.116c0.04-0.047,0.08-0.094,0.121-0.14
		C56.735,42.488,56.759,42.512,56.759,42.512z"/>
	<path fill="#EFB748" d="M52.717,44.82c-0.097,0.094-0.193,0.187-0.29,0.281c0,0-0.018-0.018-0.018-0.018
		c0.096-0.095,0.191-0.189,0.287-0.284C52.696,44.798,52.717,44.82,52.717,44.82z"/>
	<path fill="#ECC3B0" d="M28.986,89.739c0.623-1.213,2.084-1.316,2.94-2.22c1.235-0.522,2.4-1.165,3.455-1.997
		c0.92-0.491,1.841-0.981,2.76-1.474c2.763-1.482,5.294-3.376,8.196-4.612c1.696,0.482,2.974,1.798,4.647,2.326
		c-0.158,0.173-0.285,0.4-0.479,0.511c-4.053,2.325-8.101,4.659-12.187,6.926c-0.52,0.288-0.544,0.518-0.393,0.952
		c-0.265,0.22-0.227,0.476-0.113,0.761c0.459,1.152,1.257,1.954,2.419,2.393c0.135,0.278,0.37,0.329,0.647,0.288l-0.019-0.013
		c-0.009,0.215,0.127,0.279,0.307,0.299l-0.017-0.013c0.141,0.213,0.337,0.317,0.594,0.302l-0.018-0.012
		c0.285,0.405,0.658,0.636,1.17,0.591l-0.017-0.013c-0.008,0.213,0.131,0.276,0.308,0.298L43.17,95.02
		c0.148,0.199,0.338,0.317,0.595,0.302l-0.018-0.013c0.198,0.137,0.396,0.275,0.594,0.412c1.13,0.632,2.26,1.264,3.39,1.896
		c0.697,0.715,1.326,0.201,1.931-0.14c1.748-0.985,3.479-1.998,5.217-3c2.234-1.288,4.473-2.569,6.7-3.87
		c0.516-0.302,1.172-0.662,0.07-1.098c-0.094-0.473-0.188-0.946-0.283-1.419c2.481,1.381,4.963,2.762,7.445,4.143
		c-4.126,2.327-8.029,5.056-12.413,6.928c-0.476,0.203-0.78,0.594-0.152,1.039c-0.312,1.305,0.205,2.14,1.354,2.806
		c1.431,0.828,2.918,1.555,4.283,2.515c1.075,0.756,2.321,1.269,3.491,1.89c0.203,0.089,0.406,0.178,0.609,0.268
		c0.366,0.871,0.938,0.602,1.516,0.269c1.159-0.668,2.314-1.345,3.475-2.009c2.82-1.615,5.646-3.219,8.461-4.843
		c0.528-0.305,1.277-0.654,0.126-1.171c-0.003-0.397-0.005-0.794-0.008-1.191c2.393,1.21,4.773,2.442,6.924,4.064
		c-2.978,1.735-5.962,3.459-8.926,5.219c-0.369,0.219-1.05,0.243-0.9,0.976c-0.376-0.075-0.517,0.085-0.452,0.451
		c0.021-0.027,0.063-0.058,0.058-0.079c-0.012-0.053-0.045-0.101-0.069-0.151c-0.919-0.023-1.79,0.06-2.309,1.039
		c1.164-0.577,1.843,0.496,2.751,0.698l-0.013-0.028c0.123,0.177,0.247,0.355,0.37,0.532c-0.675,0.148-1.164-0.297-1.702-0.558
		c-0.467-0.227-0.92-0.312-1.296,0.084c-0.358,0.378,0.086,0.686,0.211,1.004c0.099,0.25,0.315,0.454,0.479,0.678
		c0.085,0.09,0.171,0.181,0.256,0.271l-0.03-0.023c0.308,0.367,0.63,0.705,1.179,0.596l-0.019-0.014
		c-0.04,0.246,0.132,0.275,0.308,0.301l-0.018-0.016c0.118,0.261,0.336,0.324,0.597,0.305l-0.02-0.015
		c0.279,0.418,0.658,0.641,1.173,0.593l-0.019-0.014c-0.028,0.233,0.132,0.275,0.307,0.302l-0.017-0.015
		c0.493,0.473,1.022,0.874,1.749,0.882l-0.018-0.014c-0.02,0.224,0.131,0.274,0.305,0.301l-0.016-0.014
		c0.592,0.541,1.293,0.892,2.037,1.168l-0.016-0.012c1.349,1.205,2.742,1.775,4.297,0.322c0.169-0.158,0.414-0.234,0.621-0.353
		c3.394-1.947,6.792-3.888,10.178-5.848c0.465-0.269,1.383-0.548,0.208-1.153c-0.09-0.358-0.18-0.715-0.271-1.073
		c2.848,1.338,5.43,3.146,8.194,4.632c0.418,0.225,0.845,0.431,1.268,0.646c0.057,0.405-0.191,0.609-0.499,0.788
		c-5.308,3.083-10.618,6.162-15.914,9.265c-0.604,0.354-1.072,0.19-1.599-0.113c-9.645-5.548-19.297-11.083-28.94-16.635
		c-9.932-5.719-19.855-11.454-29.779-17.187C29.767,90.299,29.384,90.006,28.986,89.739z"/>
	<path fill="#FEFEFE" d="M35.956,50.315c0.801-1.517,1.97-2.669,3.472-3.489c-0.008,0.571-0.017,1.143-0.025,1.714
		C38.254,49.133,37.105,49.724,35.956,50.315z"/>
	<path fill="#E24E56" d="M41.196,20.007c-2.249-0.891-4.133-2.448-6.318-3.457c0.025-0.44,0.384-0.648,0.654-0.904
		c3.595-3.402,7.195-6.798,10.795-10.196c2.302,1.174,4.602,2.35,6.709,3.864c-3.329,3.151-6.649,6.312-9.995,9.445
		C42.503,19.263,42.052,19.949,41.196,20.007z"/>
	<path fill="#EFB748" d="M50.404,46.245c-0.197,0.099-0.393,0.198-0.59,0.297C49.932,46.287,50.16,46.249,50.404,46.245z"/>
	<path fill="#EFB748" d="M50.691,45.954c-0.1,0.1-0.199,0.2-0.299,0.3C50.492,46.154,50.592,46.054,50.691,45.954z"/>
	<path fill="#4F4B62" d="M76.19,109.215c0.024,0.05,0.057,0.098,0.069,0.151c0.005,0.021-0.037,0.052-0.058,0.078
		c0.151-0.151,0.301-0.301,0.452-0.451c-0.151-0.733,0.531-0.757,0.9-0.976c2.963-1.759,5.948-3.484,8.926-5.219
		c1.528-1.162,2.908-0.861,4.451,0.152c2.036,1.337,4.213,2.465,6.368,3.609c1.112,0.59,1.075,1.114,0.123,1.774
		c-0.613,0.027-1.056,0.435-1.548,0.716c-3.544,2.028-7.079,4.071-10.614,6.115c-0.494,0.285-0.972,0.592-1.583,0.453
		c-2.046-1.195-4.091-2.391-6.137-3.586c-0.017-0.177-0.035-0.354-0.052-0.532c0.199-0.927-0.511-0.485-0.867-0.576
		c0,0,0.013,0.028,0.013,0.027C76.658,110.328,75.749,109.943,76.19,109.215z"/>
	<path fill="#E24E56" d="M53.244,81.462c1.615,1.342,3.567,2.128,5.338,3.212c0.89,0.545,1.812,1.037,2.728,1.538
		c1.034,0.566,1.031,1.106-0.014,1.646c-1.878,1.062-3.74,2.152-5.638,3.178c-2.432,1.315-4.7,2.934-7.289,3.96
		c-0.233-0.52-0.713-0.742-1.17-1.014c-2.544-1.514-5.078-3.046-7.777-4.669C44.11,86.65,48.677,84.056,53.244,81.462z"/>
	<path fill="#98CEEE" d="M70.6,92.159c0.729-0.215,1.284,0.194,1.862,0.521c2.155,1.219,4.307,2.444,6.466,3.657
		c1.641,0.922,1.645,0.915,0.28,2.052c-0.309,0.122-0.639,0.207-0.924,0.37c-3.487,1.995-6.967,4-10.447,6.006
		c-0.665,0.383-1.32,0.783-2.131,0.432c-0.999-0.595-1.998-1.19-2.997-1.784c0.756-0.089,0.548-0.321,0.095-0.606
		c-1.42-0.893-2.829-1.804-4.259-2.68c-0.623-0.381-0.778-0.626-0.009-1.061C62.569,96.784,66.581,94.465,70.6,92.159z"/>
	<path fill="#FCE89F" d="M83.674,115.618c0.611,0.139,1.09-0.167,1.583-0.453c3.535-2.044,7.07-4.087,10.614-6.115
		c0.491-0.281,0.935-0.689,1.548-0.716c0.01,0.269,0.021,0.539,0.031,0.808c0.09,0.357,0.18,0.715,0.271,1.072
		c-4.284,2.491-8.571,4.977-12.85,7.477c-0.502,0.293-0.897,0.218-1.266-0.194C83.628,116.871,83.651,116.244,83.674,115.618z"/>
	<path fill="#EBEBF2" d="M46.337,79.437c-2.902,1.236-5.433,3.13-8.196,4.612c-0.919,0.493-1.84,0.983-2.76,1.473
		c-0.008-0.487,0.326-0.775,0.631-1.079c3.114-3.114,6.228-6.228,9.343-9.342c0.27-0.27,0.525-0.569,0.958-0.564
		C46.321,76.17,46.329,77.803,46.337,79.437z"/>
	<path fill="#FCE89F" d="M65.706,105.197c0.811,0.35,1.466-0.049,2.131-0.433c3.48-2.007,6.961-4.011,10.447-6.006
		c0.285-0.163,0.615-0.248,0.924-0.37c0.115,0.115,0.23,0.231,0.346,0.347c0.003,0.397,0.005,0.793,0.007,1.19
		c-1.848,1.103-3.662,2.268-5.552,3.294c-2.689,1.462-5.203,3.24-8.026,4.459c-0.203-0.089-0.406-0.178-0.609-0.267
		C65.499,106.675,65.195,105.875,65.706,105.197z"/>
	<path fill="#FCE89F" d="M48.369,94.996c2.589-1.025,4.857-2.645,7.289-3.96c1.898-1.026,3.76-2.116,5.638-3.178
		c0.023,0.078,0.046,0.155,0.07,0.232c0.094,0.473,0.189,0.946,0.283,1.419c-3.14,1.839-6.261,3.713-9.43,5.5
		c-1.442,0.813-2.726,1.953-4.423,2.273c-0.162-0.734-0.427-1.466-0.019-2.205C47.974,95.051,48.171,95.024,48.369,94.996z"/>
	<path fill="#EBEBF2" d="M46.313,74.536c-0.433-0.005-0.687,0.294-0.958,0.564c-3.114,3.114-6.228,6.228-9.343,9.342
		c-0.305,0.305-0.638,0.592-0.631,1.079c-1.056,0.832-2.221,1.475-3.456,1.997c-0.011-0.491,0.337-0.768,0.64-1.071
		c4.26-4.261,8.52-8.521,12.78-12.781c0.27-0.27,0.522-0.569,0.949-0.585C46.301,73.567,46.307,74.051,46.313,74.536z"/>
	<path fill="#749ECE" d="M70.6,92.159c-4.02,2.306-8.031,4.625-12.065,6.906c-0.769,0.435-0.614,0.68,0.009,1.061
		c1.431,0.876,2.839,1.787,4.259,2.68c0.453,0.285,0.661,0.517-0.094,0.606c-1.208-0.539-2.307-1.228-3.395-2.001
		c-0.854-0.607-1.663-1.822-3.068-1.21c-0.628-0.445-0.324-0.835,0.152-1.039c4.383-1.873,8.286-4.601,12.413-6.928
		c0.473-0.22,0.929-0.503,1.425-0.644C70.772,91.437,70.758,91.786,70.6,92.159z"/>
	<path fill="#D02B3A" d="M48.369,94.996c-0.198,0.027-0.395,0.054-0.593,0.081c-2.495-1.7-5.211-3.019-7.81-4.537
		c-0.65-0.38-1.315-0.496-2.04-0.389c-0.151-0.435-0.127-0.664,0.393-0.952c4.086-2.266,8.134-4.6,12.187-6.926
		c0.194-0.111,0.321-0.338,0.479-0.511c0.777,0.073,1.383-1.132,2.26-0.3c-4.567,2.594-9.134,5.188-13.823,7.851
		c2.699,1.623,5.233,3.155,7.777,4.669C47.656,94.254,48.135,94.477,48.369,94.996z"/>
	<path fill="#4F4B62" d="M112.45,125.617c0.097-0.095,0.194-0.189,0.292-0.284c0.493,0.022,0.929-0.068,1.153-0.58
		c0.096-0.096,0.191-0.193,0.287-0.289c0.24,0.001,0.456-0.049,0.579-0.286c0.716,0.042,1.24-0.364,1.794-0.734
		c1.4-0.933,2.89-1.376,4.546-0.713c0.082,0.659-0.242,1.092-0.783,1.399c-2.194,1.245-4.371,2.519-6.59,3.717
		c-1.405,0.759-2.604,0.285-3.007-1.075c0.415-0.247,0.935-0.354,1.154-0.863C112.111,125.901,112.327,125.85,112.45,125.617z"/>
	<path fill="#4F4B62" d="M78.335,62.639c-0.491,0.391-0.982,0.782-1.474,1.172c-0.489-0.024-0.618-0.277-0.273-0.606
		c0.475-0.454,1.023-0.83,1.727-0.853C78.332,62.448,78.338,62.543,78.335,62.639z"/>
	<path fill="#BF7764" d="M78.335,62.639c0.003-0.096-0.003-0.192-0.019-0.287c0.121,0.016,0.243,0.033,0.365,0.049
		C78.65,62.604,78.521,62.663,78.335,62.639z"/>
	<path fill="#BF7764" d="M89.16,48.24c0.04,0.11,0.08,0.22,0.12,0.33C89.24,48.459,89.2,48.349,89.16,48.24z"/>
	<path fill="#EFB748" d="M37.926,90.151c0.725-0.107,1.39,0.01,2.04,0.389c2.6,1.518,5.316,2.838,7.81,4.537
		c-0.408,0.739-0.143,1.471,0.019,2.205c-0.022,0.112-0.043,0.223-0.065,0.335c-1.13-0.632-2.26-1.264-3.39-1.896
		c-0.021-0.392-0.286-0.433-0.594-0.412c0,0,0.018,0.013,0.018,0.013c-0.067-0.359-0.336-0.321-0.595-0.302
		c0,0,0.017,0.013,0.017,0.013c0.016-0.222-0.115-0.292-0.308-0.298c0,0,0.017,0.013,0.017,0.013
		c-0.236-0.502-0.658-0.636-1.17-0.591c0,0,0.018,0.012,0.018,0.012c-0.069-0.356-0.335-0.322-0.594-0.302
		c0,0,0.017,0.013,0.017,0.013c0.016-0.221-0.117-0.29-0.307-0.299c0,0,0.019,0.013,0.019,0.013
		c-0.122-0.307-0.367-0.337-0.647-0.288c-1.161-0.439-1.96-1.241-2.419-2.393C37.699,90.627,37.661,90.371,37.926,90.151z"/>
	<path fill="#EFB748" d="M56.247,100.201c1.405-0.611,2.214,0.603,3.068,1.21c1.088,0.774,2.187,1.462,3.395,2.001
		c0.998,0.595,1.997,1.189,2.996,1.784c-0.511,0.679-0.207,1.479-0.331,2.215c-1.17-0.621-2.416-1.134-3.492-1.89
		c-1.365-0.96-2.852-1.686-4.283-2.515C56.451,102.341,55.934,101.506,56.247,100.201z"/>
	<path fill="#EFB748" d="M83.674,115.618c-0.023,0.626-0.046,1.253-0.069,1.879c-0.4-0.062-0.741-0.406-1.188-0.251
		c0,0,0.016,0.012,0.016,0.012c-0.461-0.77-1.183-1.084-2.037-1.168c0,0,0.016,0.014,0.016,0.014
		c0.041-0.245-0.121-0.285-0.305-0.301c0,0,0.018,0.014,0.018,0.014c-0.443-0.572-1.01-0.896-1.749-0.882
		c0,0,0.017,0.015,0.017,0.015c0.038-0.243-0.122-0.285-0.307-0.302c0,0,0.019,0.014,0.019,0.014
		c-0.272-0.434-0.668-0.62-1.173-0.593c0,0,0.02,0.015,0.02,0.015c-0.063-0.368-0.334-0.329-0.597-0.305
		c0,0,0.018,0.016,0.018,0.016c0.035-0.241-0.119-0.289-0.308-0.301c0,0,0.019,0.014,0.019,0.014
		c-0.26-0.462-0.688-0.591-1.179-0.596c0,0,0.03,0.023,0.03,0.023c-0.085-0.09-0.171-0.181-0.256-0.271
		c-0.164-0.224-0.38-0.428-0.479-0.678c-0.126-0.317-0.57-0.626-0.211-1.004c0.376-0.396,0.828-0.311,1.296-0.084
		c0.538,0.261,1.027,0.706,1.702,0.558c0,0-0.032-0.006-0.032-0.006c0.048,0.34,0.295,0.48,0.581,0.582
		C79.583,113.227,81.628,114.422,83.674,115.618z"/>
	<path fill="#4F4B62" d="M82.417,117.246c0.446-0.155,0.787,0.189,1.188,0.251c0.369,0.412,0.764,0.487,1.266,0.194
		c4.279-2.5,8.565-4.986,12.85-7.477c1.176,0.605,0.257,0.883-0.208,1.152c-3.386,1.961-6.784,3.902-10.178,5.848
		c-0.207,0.119-0.452,0.195-0.621,0.353C85.159,119.021,83.767,118.451,82.417,117.246z"/>
	<path fill="#E24E56" d="M47.731,97.618c0.022-0.111,0.043-0.223,0.065-0.335c1.698-0.32,2.982-1.461,4.423-2.273
		c3.17-1.787,6.29-3.661,9.43-5.5c1.102,0.436,0.446,0.796-0.07,1.098c-2.227,1.301-4.466,2.582-6.7,3.87
		c-1.738,1.002-3.469,2.015-5.217,3C49.056,97.819,48.428,98.333,47.731,97.618z"/>
	<path fill="#98CEEE" d="M65.983,107.678c2.823-1.219,5.337-2.997,8.026-4.459c1.889-1.027,3.704-2.191,5.552-3.294
		c1.151,0.517,0.402,0.866-0.126,1.171c-2.815,1.624-5.641,3.228-8.461,4.843c-1.161,0.665-2.315,1.342-3.475,2.009
		C66.922,108.28,66.35,108.549,65.983,107.678z"/>
	<path fill="#36323F" d="M76.19,109.215c-0.44,0.728,0.469,1.113,0.441,1.736c-0.908-0.201-1.587-1.274-2.751-0.697
		C74.4,109.276,75.27,109.192,76.19,109.215z"/>
	<path fill="#4F4B62" d="M80.397,116.09c0.854,0.085,1.576,0.399,2.037,1.168C81.69,116.982,80.989,116.631,80.397,116.09z"/>
	<path fill="#4F4B62" d="M78.377,114.935c0.738-0.014,1.306,0.31,1.749,0.882C79.398,115.808,78.869,115.408,78.377,114.935z"/>
	<path fill="#4F4B62" d="M74.908,112.912c0.491,0.005,0.919,0.134,1.179,0.596C75.538,113.617,75.215,113.279,74.908,112.912z"/>
	<path fill="#D02B3A" d="M41.726,94.156c0.512-0.045,0.934,0.089,1.17,0.591C42.384,94.791,42.011,94.561,41.726,94.156z"/>
	<path fill="#36323F" d="M76.618,110.924c0.356,0.091,1.066-0.351,0.867,0.576c-0.176-0.017-0.353-0.034-0.529-0.05
		c0,0,0.032,0.006,0.032,0.006C76.865,111.278,76.741,111.101,76.618,110.924z"/>
	<path fill="#4F4B62" d="M76.933,114.069c0.505-0.028,0.901,0.159,1.173,0.593C77.591,114.71,77.213,114.488,76.933,114.069z"/>
	<path fill="#D02B3A" d="M43.17,95.02c0.259-0.018,0.528-0.057,0.595,0.302C43.508,95.337,43.318,95.219,43.17,95.02z"/>
	<path fill="#D02B3A" d="M41.15,93.866c0.259-0.019,0.526-0.053,0.594,0.302C41.487,94.183,41.291,94.079,41.15,93.866z"/>
	<path fill="#D02B3A" d="M43.747,95.309c0.308-0.021,0.573,0.02,0.594,0.412C44.142,95.584,43.944,95.447,43.747,95.309z"/>
	<path fill="#4F4B62" d="M76.356,113.779c0.263-0.024,0.534-0.063,0.597,0.305C76.693,114.103,76.474,114.04,76.356,113.779z"/>
	<path fill="#D02B3A" d="M40.231,93.305c0.28-0.049,0.525-0.019,0.647,0.288C40.601,93.634,40.366,93.583,40.231,93.305z"/>
	<path fill="#4F4B62" d="M80.108,115.803c0.185,0.016,0.346,0.056,0.305,0.301C80.239,116.077,80.087,116.027,80.108,115.803z"/>
	<path fill="#D02B3A" d="M42.88,94.734c0.192,0.007,0.324,0.077,0.308,0.298C43.01,95.01,42.872,94.947,42.88,94.734z"/>
	<path fill="#36323F" d="M76.652,108.993c-0.15,0.15-0.301,0.301-0.452,0.451C76.135,109.078,76.275,108.918,76.652,108.993z"/>
	<path fill="#4F4B62" d="M76.067,113.494c0.189,0.012,0.343,0.061,0.308,0.301C76.199,113.769,76.027,113.739,76.067,113.494z"/>
	<path fill="#4F4B62" d="M78.087,114.648c0.184,0.017,0.345,0.058,0.307,0.302C78.219,114.923,78.059,114.881,78.087,114.648z"/>
	<path fill="#4F4B62" d="M74.681,112.663c0.085,0.09,0.171,0.181,0.256,0.271C74.852,112.844,74.766,112.754,74.681,112.663z"/>
	<path fill="#D02B3A" d="M40.859,93.579c0.191,0.009,0.323,0.078,0.307,0.299C40.987,93.858,40.85,93.794,40.859,93.579z"/>
	<path fill="#ECC3B0" d="M76.956,111.45c0.176,0.017,0.353,0.033,0.529,0.05c0.017,0.177,0.035,0.355,0.052,0.532
		C77.251,111.93,77.003,111.789,76.956,111.45z"/>
</g>
</svg>
