<?xml version="1.0" encoding="utf-8"?>
<!-- Generator: Adobe Illustrator 16.0.4, SVG Export Plug-In . SVG Version: 6.00 Build 0)  -->
<!DOCTYPE svg PUBLIC "-//W3C//DTD SVG 1.1//EN" "http://www.w3.org/Graphics/SVG/1.1/DTD/svg11.dtd">
<svg version="1.1" id="Layer_1" xmlns="http://www.w3.org/2000/svg" xmlns:xlink="http://www.w3.org/1999/xlink" x="0px" y="0px"
	 width="50px" height="50px" viewBox="0 0 50 50" enable-background="new 0 0 50 50" xml:space="preserve">
<g id="JYS0NI.tif">
	<g>
		<path fill-rule="evenodd" clip-rule="evenodd" d="M17.532,25.018c0,7.321,0,14.648,0,21.97c0,1.675-0.849,2.512-2.53,2.512
			c-3.774,0-7.548,0-11.329,0c-1.459,0-2.369-0.915-2.369-2.381c0-14.762-0.006-29.518-0.006-44.28c0-1.394,0.933-2.333,2.321-2.339
			c3.858,0,7.716,0,11.568,0c1.417,0,2.333,0.891,2.333,2.309c0.012,6.329,0.012,12.663,0.012,18.991
			C17.532,22.871,17.532,23.947,17.532,25.018L17.532,25.018z M9.463,12.499c1.28,0,2.566-0.006,3.852,0
			c0.933,0,1.13-0.204,1.125-1.155c0-2.129,0-4.265,0-6.394c0-0.915-0.186-1.112-1.113-1.112c-2.608-0.006-5.209,0-7.812,0
			c-0.742,0-0.963,0.221-0.963,0.957c0,2.243,0,4.486,0,6.735c0,0.73,0.227,0.963,0.957,0.969
			C6.825,12.499,8.141,12.499,9.463,12.499z M9.481,22.979c1.364,0,2.728,0,4.097-0.006c0.604,0,0.861-0.251,0.861-0.855
			c0.006-2.297,0.006-4.588,0-6.879c-0.006-0.646-0.257-0.885-0.891-0.891c-2.68,0-5.366,0-8.045,0
			c-0.724,0.006-0.945,0.215-0.951,0.921c-0.006,2.273-0.006,4.552,0,6.825c0,0.676,0.209,0.879,0.879,0.886
			C6.777,22.979,8.129,22.979,9.481,22.979z M9.487,24.856c-1.352,0-2.698-0.006-4.049,0c-0.676,0.006-0.885,0.215-0.885,0.879
			c-0.006,2.291,0,4.587,0.006,6.878c0,0.646,0.245,0.879,0.879,0.879c2.686,0.006,5.371,0.006,8.051,0
			c0.7,0,0.945-0.233,0.951-0.933c0-2.237,0-4.486,0-6.729c0-0.754-0.228-0.975-0.999-0.975
			C12.119,24.856,10.803,24.856,9.487,24.856z M9.439,44.135c1.136-0.018,2.082-0.981,2.063-2.105
			c-0.018-1.137-0.981-2.082-2.105-2.063c-1.13,0.018-2.076,0.987-2.063,2.105C7.352,43.195,8.326,44.152,9.439,44.135z"/>
		<path fill-rule="evenodd" clip-rule="evenodd" d="M19.314,18.08c0-1.657,0.054-3.332-0.018-5.006
			c-0.048-1.119,0.191-2.082,0.813-3.021c0.771-1.16,1.43-2.398,2.141-3.601c0.766-1.298,2.076-1.645,3.38-0.885
			c3.26,1.902,6.508,3.816,9.755,5.724c1.292,0.76,1.591,2.1,0.796,3.451c-5.306,9.038-10.611,18.076-15.917,27.12
			c-0.275,0.472-0.556,0.951-0.897,1.531c-0.024-0.221-0.048-0.335-0.054-0.449c0-1.807-0.006-3.613,0.006-5.419
			c0-0.228,0.078-0.485,0.191-0.682c0.784-1.364,1.591-2.722,2.387-4.085c0.341-0.58,0.251-0.885-0.335-1.232
			c-0.64-0.383-1.292-0.748-1.92-1.161c-0.155-0.096-0.299-0.329-0.311-0.514c-0.042-0.562-0.018-1.13-0.018-1.777
			c0.179,0.09,0.305,0.144,0.424,0.209c0.939,0.55,1.873,1.107,2.812,1.651c0.556,0.323,0.885,0.233,1.214-0.323
			c1.16-1.962,2.314-3.918,3.469-5.88c0.359-0.616,0.275-0.903-0.353-1.274c-2.285-1.346-4.564-2.692-6.849-4.032
			C19.823,18.301,19.595,18.217,19.314,18.08z M32.833,14.042c-0.186-0.197-0.335-0.449-0.562-0.586
			c-2.327-1.388-4.666-2.764-6.998-4.14c-0.526-0.311-0.879-0.221-1.19,0.299c-1.172,1.98-2.345,3.966-3.511,5.958
			c-0.311,0.526-0.227,0.867,0.299,1.178c2.345,1.394,4.695,2.775,7.052,4.157c0.539,0.311,0.844,0.221,1.167-0.323
			c1.167-1.968,2.327-3.942,3.487-5.916C32.671,14.502,32.725,14.317,32.833,14.042z"/>
		<path fill-rule="evenodd" clip-rule="evenodd" d="M18.542,48.31c0.778-1.328,1.603-2.632,2.321-3.989
			c0.461-0.874,1.083-1.483,1.956-1.932c1.101-0.562,2.147-1.214,3.218-1.831c0.586-0.341,0.67-0.658,0.341-1.238
			c-0.353-0.622-0.7-1.25-1.077-1.854c-0.162-0.263-0.156-0.455,0.006-0.706c0.299-0.455,0.568-0.939,0.891-1.483
			c0.401,0.688,0.76,1.315,1.125,1.938c0.228,0.395,0.449,0.79,0.676,1.185c0.341,0.58,0.652,0.658,1.25,0.317
			c1.663-0.951,3.326-1.908,4.988-2.859c0.293-0.174,0.592-0.341,0.885-0.509c0.61-0.358,0.7-0.67,0.353-1.28
			c-1.059-1.848-2.124-3.69-3.176-5.539c-0.102-0.168-0.197-0.335-0.293-0.509c-0.251-0.448-0.694-0.909-0.688-1.352
			c0.006-0.455,0.455-0.903,0.718-1.352c0.927-1.585,1.854-3.17,2.793-4.749c0.108-0.186,0.275-0.371,0.455-0.479
			c1.358-0.802,2.722-1.591,4.097-2.363c1.227-0.694,2.572-0.335,3.278,0.885c1.902,3.29,3.798,6.585,5.683,9.887
			c0.706,1.232,0.353,2.56-0.879,3.272C37.905,37.28,28.346,42.777,18.788,48.28c-0.06,0.036-0.12,0.06-0.174,0.09
			C18.59,48.352,18.566,48.333,18.542,48.31z M44.843,29.438c-0.102-0.246-0.156-0.413-0.246-0.568
			c-1.346-2.351-2.697-4.702-4.049-7.052c-0.293-0.502-0.64-0.61-1.136-0.329c-2.028,1.161-4.062,2.327-6.083,3.5
			c-0.466,0.269-0.55,0.622-0.281,1.112c0.209,0.383,0.437,0.76,0.652,1.137c1.143,1.985,2.279,3.972,3.421,5.957
			c0.299,0.509,0.634,0.64,1.083,0.383c2.07-1.178,4.145-2.368,6.203-3.577C44.598,29.887,44.706,29.624,44.843,29.438z"/>
	</g>
</g>
</svg>
