<?xml version="1.0" encoding="utf-8"?>
<!-- Generator: Adobe Illustrator 16.0.0, SVG Export Plug-In . SVG Version: 6.00 Build 0)  -->
<!DOCTYPE svg PUBLIC "-//W3C//DTD SVG 1.1//EN" "http://www.w3.org/Graphics/SVG/1.1/DTD/svg11.dtd">
<svg version="1.1" id="Layer_1" xmlns="http://www.w3.org/2000/svg" xmlns:xlink="http://www.w3.org/1999/xlink" x="0px" y="0px"
	 width="250px" height="250px" viewBox="0 0 250 250" enable-background="new 0 0 250 250" xml:space="preserve">
<g id="NXodqh.tif">
	<g>
		<path fill="#F38440" d="M203.281,69.462c-1.133-0.787-2.243-1.606-3.4-2.353c-3.232-2.087-6.556-4.043-9.689-6.269
			c-1.002-0.712-1.521-2.102-2.265-3.181c1.097-0.75,2.104-1.942,3.304-2.182c12.441-2.491,24.914-4.831,37.379-7.207
			c2.953-0.563,5.896-1.168,8.859-1.658c3.662-0.607,6.547,2.779,5.316,6.245c-5.335,15.05-10.67,30.1-16.121,45.108
			c-0.382,1.048-1.613,2.196-2.652,2.445c-0.602,0.144-1.922-1.275-2.384-2.246c-2.181-4.584-4.178-9.26-6.43-14.33
			c-1.386,1.055-2.663,1.916-3.815,2.924c-19.447,17.046-38.873,34.116-58.32,51.164c-4.342,3.805-8.61,7.709-13.155,11.258
			c-5.226,4.084-7.351,4.064-12.912,0.482c-13.011-8.378-25.982-16.821-38.97-25.238c-4.845-3.139-9.75-6.19-14.505-9.46
			c-1.848-1.271-2.926-0.962-4.436,0.536c-14.787,14.686-29.621,29.324-44.519,43.895c-1.82,1.78-3.909,3.508-6.199,4.537
			c-3.785,1.697-7.515,0.349-9.943-2.945c-2.087-2.834-1.993-6.94,0.3-10.049c0.641-0.869,1.409-1.66,2.187-2.416
			c17.886-17.388,35.781-34.768,53.68-52.145c3.034-2.945,6.622-3.374,10.808-0.881c4.814,2.866,9.469,6,14.167,9.059
			c13.526,8.809,27.053,17.617,40.541,26.486c1.763,1.158,3.07,1.095,4.654-0.302c16.948-14.945,33.95-29.828,50.906-44.771
			c5.333-4.699,10.55-9.533,15.861-14.263c0.613-0.547,1.472-0.823,2.215-1.223C203.587,70.146,203.434,69.804,203.281,69.462z"/>
		<path fill="#F38440" d="M210.083,107.931c7.306,8.144,13.046,9.382,24.522,5.184c0,2.244,0,4.38,0,6.516
			c0,40.092,0,80.184,0,120.279c0,0.167,0,0.334,0,0.501c-0.025,5.299-0.399,5.688-5.711,5.688
			c-10.965,0.006-21.93,0.008-32.896-0.021c-4.659-0.013-5.273-0.625-5.273-5.224c-0.011-37.916-0.013-75.832,0.029-113.748
			c0.002-1,0.217-2.349,0.868-2.938C197.71,118.683,203.914,113.326,210.083,107.931z"/>
		<path fill="#F38440" d="M68.479,190.415c-0.001-16.91-0.001-33.817,0-50.729c0.001-1.871,3.199-6.265,4.958-6.605
			c0.541-0.104,1.262,0.277,1.788,0.613c12.115,7.763,24.226,15.527,36.28,23.383c0.727,0.473,1.362,1.699,1.364,2.578
			c0.072,27.373,0.07,54.746,0.046,82.117c-0.003,3.33-0.829,4.252-4.149,4.271c-12.053,0.071-24.107,0.064-36.161-0.001
			c-3.245-0.019-4.115-1.147-4.119-4.901C68.47,224.232,68.479,207.323,68.479,190.415z"/>
		<path fill="#F38440" d="M129.279,166.489c10.521,1.618,17.994-3.685,25.051-10.089c6.188-5.618,12.465-11.14,19.033-17.002
			c0.115,0.963,0.251,1.553,0.251,2.141c0.011,33.138,0.016,66.275,0.007,99.414c-0.002,4.361-0.732,5.124-5.119,5.135
			c-11.546,0.031-23.095,0.023-34.643-0.02c-3.7-0.016-4.676-0.994-4.678-4.594c-0.02-24.353-0.012-48.703-0.007-73.054
			C129.176,167.932,129.229,167.441,129.279,166.489z"/>
		<path fill="#F38440" d="M137.034,109.728c-4.556,0-8.795,0-13.431,0c0-2.272-0.066-4.498,0.024-6.716
			c0.057-1.415-0.509-1.947-1.837-2.454c-4.117-1.575-8.389-2.982-12.14-5.226c-8.16-4.883-11.2-12.467-10.18-21.813
			c0.142-1.304,0.588-1.941,2.005-1.931c5.851,0.049,11.702,0.02,17.846,0.02c0.257,1.546,0.535,2.988,0.732,4.441
			c0.729,5.38,3.818,8.182,9.216,8.305c0.836,0.018,1.672,0.021,2.51,0.009c4.641-0.069,6.686-1.575,7.658-5.624
			c0.975-4.051-0.508-7.706-4.123-9.542c-5.73-2.914-11.532-5.688-17.31-8.509c-7.935-3.876-13.606-9.542-15.141-18.657
			c-1.799-10.69,3.838-21.419,13.834-25.889c2.358-1.054,4.891-1.722,7.231-2.807c0.746-0.347,1.531-1.432,1.607-2.244
			c0.216-2.307,0.075-4.648,0.075-7.199c4.512,0,8.804,0,13.382,0c0,3.097,0,6.154,0,9.094
			c16.892,6.583,23.067,15.066,21.008,28.801c-6.285,0-12.601,0-19.188,0c-0.354-1.786-0.69-3.647-1.092-5.495
			c-1.283-5.94-6.285-8.688-11.996-6.632c-3.128,1.128-3.801,3.844-4.08,6.628c-0.299,2.983,0.407,5.813,3.317,7.295
			c4.532,2.309,9.086,4.632,13.81,6.505c7.436,2.946,13.674,7.086,16.633,14.886c4.727,12.467,2.647,29.951-16.469,35.166
			c-0.726,0.198-1.442,0.454-2.185,0.56c-1.324,0.191-1.802,0.867-1.744,2.211C137.105,105.076,137.034,107.245,137.034,109.728z"/>
		<path fill="#F38440" d="M8.105,178.244c10.514,2.669,19.068-0.271,26.335-7.914c4.842-5.09,10.018-9.864,15.049-14.773
			c0.581-0.566,1.199-1.098,2.095-1.914c0.075,1.074,0.165,1.777,0.165,2.481c0.01,28.373,0.015,56.743,0.011,85.115
			c-0.001,4.101-0.682,4.829-4.807,4.842c-11.466,0.03-22.933,0.024-34.399-0.011c-3.641-0.014-4.625-0.812-4.633-4.064
			c-0.044-20.839-0.02-41.68-0.011-62.52C7.91,179.163,8.009,178.84,8.105,178.244z"/>
	</g>
</g>
</svg>
