<?xml version="1.0" encoding="utf-8"?>
<!-- Generator: Adobe Illustrator 17.0.0, SVG Export Plug-In . SVG Version: 6.00 Build 0)  -->
<!DOCTYPE svg PUBLIC "-//W3C//DTD SVG 1.1//EN" "http://www.w3.org/Graphics/SVG/1.1/DTD/svg11.dtd">
<svg version="1.1" id="Layer_1" xmlns="http://www.w3.org/2000/svg" xmlns:xlink="http://www.w3.org/1999/xlink" x="0px" y="0px"
	 width="143px" height="150px" viewBox="0 0 143 150" enable-background="new 0 0 143 150" xml:space="preserve">
<g>
	<g>
		<path fill="#D37140" d="M104.01,59.723c-0.003,1.421-0.005,2.841-0.008,4.262c0.003,0.362,0.005,0.724,0.008,1.085
			c-0.003,1.421-0.005,2.841-0.008,4.262c0.003,0.362,0.005,0.724,0.008,1.085c-0.003,1.421-0.005,2.841-0.008,4.261
			c0.003,0.362,0.005,0.724,0.008,1.085c-0.003,1.421-0.005,2.841-0.008,4.262c0.003,0.362,0.005,0.724,0.008,1.085
			c-0.008,2.316-0.016,4.632-0.023,6.948c0.003,0.8,0.007,1.6,0.01,2.401c0.003,0.448,0.007,0.896,0.01,1.343
			c-0.003,1.334-0.007,2.669-0.01,4.003c0.003,0.448,0.007,0.896,0.01,1.343c-0.003,1.334-0.007,2.669-0.01,4.003
			c0.003,0.448,0.007,0.896,0.01,1.343c-0.003,1.334-0.007,2.669-0.01,4.003c0.003,0.448,0.007,0.896,0.01,1.343
			c-0.003,1.334-0.007,2.669-0.01,4.003c0.003,0.448,0.007,0.896,0.01,1.343c-0.003,1.334-0.007,2.669-0.01,4.003
			c0,0.525,0.001,1.05,0.001,1.575c-7.78,4.541-15.561,9.083-23.341,13.624c0.014-0.222,0.039-0.444,0.039-0.666
			c0.002-27.226,0.001-54.453,0.004-81.679c0-0.448,0.029-0.893-0.299-1.259c0.103-0.015,0.205-0.029,0.308-0.044
			c0.431,0.03,0.756-0.232,1.097-0.423c5.483-3.07,10.95-6.169,16.448-9.212c1.848-1.023,3.577-2.279,5.61-2.954
			c0.049,0.727,0.098,1.454,0.146,2.18c-0.003,1.421-0.005,2.841-0.008,4.262c0.003,0.362,0.005,0.724,0.008,1.085
			c-0.003,1.421-0.005,2.841-0.008,4.262c0.003,0.362,0.005,0.724,0.008,1.085c-0.003,1.421-0.005,2.841-0.008,4.262
			c0.003,0.362,0.005,0.724,0.008,1.085c-0.003,1.421-0.005,2.841-0.008,4.262C104.005,59,104.007,59.362,104.01,59.723z"/>
		<path fill="#FBE170" d="M80.401,48.789c0.328,0.366,0.299,0.811,0.299,1.259c-0.003,27.226-0.003,54.453-0.004,81.679
			c0,0.222-0.026,0.444-0.039,0.666c-13.591-7.944-27.174-15.904-40.79-23.806c-1.208-0.701-1.946-1.44-1.698-2.884
			c-0.006-0.801-0.012-1.602-0.018-2.403c0.001-1.334,0.002-2.668,0.003-4.002c-0.001-0.448-0.002-0.897-0.003-1.345
			c0.001-1.334,0.002-2.668,0.003-4.001c-0.001-0.448-0.002-0.897-0.003-1.345c0.001-1.334,0.002-2.668,0.003-4.001
			c-0.001-0.448-0.002-0.897-0.003-1.345c0.001-1.334,0.002-2.668,0.003-4.001c-0.001-0.448-0.002-0.897-0.003-1.345
			c0.001-1.334,0.002-2.668,0.003-4.001c-0.001-0.448-0.002-0.897-0.003-1.345c0.001-1.334,0.002-2.668,0.003-4.001
			c-0.001-0.448-0.002-0.897-0.003-1.345c0.001-1.334,0.002-2.668,0.003-4.001c-0.001-0.448-0.002-0.897-0.003-1.345
			c0.001-1.334,0.002-2.668,0.003-4.001c-0.001-0.448-0.002-0.897-0.003-1.345c0.001-1.334,0.002-2.668,0.003-4.001
			c-0.001-0.448-0.002-0.897-0.003-1.345c0.001-1.334,0.002-2.668,0.003-4.001c-0.001-0.448-0.002-0.897-0.003-1.345
			c0.001-1.334,0.002-2.668,0.003-4.001c-0.001-0.448-0.002-0.897-0.003-1.345c0.001-1.334,0.002-2.668,0.003-4.001
			c-0.001-0.448-0.002-0.897-0.003-1.345c0.001-1.334,0.002-2.668,0.003-4.001c-0.001-0.448-0.002-0.897-0.003-1.345
			c0.001-1.334,0.002-2.668,0.003-4.001c-0.001-0.448-0.002-0.897-0.003-1.345c0.028-1.167,0.055-2.333,0.083-3.5
			c0.244,0.1,0.503,0.176,0.73,0.305c4.681,2.661,9.356,5.334,14.038,7.993C62.133,38.428,71.268,43.607,80.401,48.789z
			 M45.744,103.795c-1.298-1.024-2.77-1.732-4.393-2.616c0.233,1.942-0.265,3.652,0.302,5.32c0.278,0.215,0.535,0.468,0.838,0.64
			c2.97,1.687,5.947,3.361,8.923,5.039c1.953,1.101,3.905,2.203,6.03,3.401c0-1.695-0.005-3.155,0.003-4.614
			c0.002-0.434-0.124-0.761-0.532-0.985C53.187,107.923,49.466,105.858,45.744,103.795z M64.749,114.491
			c-1.34-0.962-2.76-1.781-4.4-2.649c0.174,1.963-0.255,3.671,0.282,5.344c3.163,2.206,6.567,4.016,9.865,6
			c2.264,1.363,4.544,2.699,6.995,4.153c0-1.781-0.01-3.324,0.006-4.867c0.005-0.503-0.195-0.816-0.632-1.064
			C72.821,119.111,68.786,116.799,64.749,114.491z M50.268,82.777c-0.599-0.445-1.223-0.847-1.934-1.094
			c-1.668-0.98-3.335-1.96-5.003-2.94c-0.6-0.333-1.09-0.906-1.924-0.89c0,6.433,0,12.832,0.001,19.23
			c0,0.227,0.038,0.442,0.244,0.584c2.601,1.861,5.463,3.288,8.213,4.897c7.313,4.278,14.658,8.5,21.994,12.738
			c1.821,1.052,3.655,2.081,5.55,3.158c0-1.296,0-2.402,0-3.506c0.027-5.05,0.02-10.1,0.108-15.149
			c0.02-1.111-0.324-1.765-1.356-2.084c-1.69-0.978-3.381-1.956-5.071-2.934c-0.631-0.35-1.262-0.7-1.892-1.05
			c-1.681-0.977-3.362-1.955-5.043-2.932c-2.957-1.703-5.914-3.406-8.871-5.109C53.611,84.722,51.939,83.75,50.268,82.777z
			 M50.273,35.435c-0.64-0.364-1.281-0.728-1.921-1.093c-1.639-1.065-3.317-2.064-5.072-2.928c-0.572-0.358-1.07-0.883-1.874-0.906
			c0,6.433,0,12.778,0.001,19.124c0,0.264-0.016,0.539,0.245,0.717c2.461,1.831,5.224,3.164,7.857,4.709
			c7.344,4.308,14.737,8.53,22.112,12.784c1.901,1.096,3.808,2.18,5.851,3.348c0-1.385,0-2.537,0-3.689
			c0.006-5.12-0.011-10.24,0.041-15.359c0.009-0.886-0.361-1.306-1.101-1.565c-1.769-1.027-3.538-2.053-5.307-3.08
			c-2.959-1.703-5.917-3.406-8.876-5.109c-1.67-0.973-3.34-1.945-5.01-2.918c-0.646-0.367-1.292-0.734-1.937-1.1
			C53.612,37.39,51.942,36.413,50.273,35.435z M69.213,70.21c-1.681-0.988-3.361-1.975-5.042-2.963
			c-0.632-0.354-1.264-0.707-1.896-1.061c-1.697-0.996-3.394-1.991-5.09-2.987c-0.628-0.338-1.257-0.676-1.885-1.015
			c-1.668-0.991-3.337-1.981-5.005-2.972c-2.909-1.679-5.818-3.357-8.895-5.133c0,6.681,0,13.093,0.001,19.505
			c0,0.229,0.051,0.44,0.255,0.582c3.528,2.324,7.285,4.258,10.937,6.37c6.158,3.561,12.349,7.064,18.529,10.585
			c2.068,1.178,4.147,2.335,6.367,3.585c0-1.287,0-2.353,0-3.42c0.001-4.999-0.039-9.998,0.034-14.996
			c0.016-1.121-0.33-1.75-1.355-2.062c-1.681-0.981-3.363-1.962-5.045-2.943C70.485,70.927,69.849,70.569,69.213,70.21z"/>
		<path fill="#FB5542" d="M96.891,24.22c0.867,0.63,1.777,1.185,2.775,1.586c0.213,0.265,0.497,0.408,0.822,0.483
			c0.734,0.557,1.526,1.013,2.379,1.361c0.349,0.203,0.698,0.406,1.047,0.609c0.859,0.589,1.734,1.15,2.713,1.525
			c0.091,0.09,0.183,0.179,0.274,0.269c-0.002,0.075-0.02,0.145-0.053,0.212c-0.597,0.288-1.211,0.545-1.788,0.868
			c-8.115,4.544-16.225,9.096-24.337,13.647c-0.129-0.033-0.273-0.039-0.385-0.103c-3.7-2.107-7.422-4.177-11.084-6.349
			c-1.631-0.968-3.405-1.702-4.888-2.919c0.178-0.132,0.375-0.244,0.53-0.398c5.888-5.881,11.773-11.766,17.657-17.651
			c0.25-0.25,0.537-0.479,0.55-0.879c0.179,0.058,0.358,0.116,0.536,0.175c0.749,0.544,1.534,1.027,2.404,1.357
			c0.201,0.12,0.403,0.241,0.604,0.361c0.944,0.542,1.888,1.085,2.831,1.627c0.275,0.152,0.549,0.304,0.824,0.456
			c0.725,0.548,1.499,1.008,2.346,1.342c0.385,0.232,0.769,0.464,1.153,0.696c0.882,0.492,1.765,0.984,2.647,1.475
			C96.597,24.054,96.744,24.137,96.891,24.22z"/>
		<path fill="#FB5542" d="M45.939,11.674c2.99-1.549,5.944-3.162,8.818-4.919c0.965-0.378,1.853-0.898,2.707-1.479
			c2.34-1.987,4.551-1.474,6.727,0.312c0.362,0.297,0.847,0.445,1.275,0.661c0.034,0.072,0.061,0.146,0.082,0.223
			c-0.182,0.125-0.388,0.226-0.542,0.379c-5.919,5.91-11.834,11.825-17.75,17.739c-0.254,0.254-0.512,0.501-0.511,0.899
			c-1.735-0.972-3.462-1.957-5.206-2.913c-2.438-1.337-4.75-2.901-7.3-4.035c0.113-0.59,0.68-0.648,1.076-0.877
			c2.564-1.479,5.143-2.933,7.717-4.395C44.064,12.853,45.026,12.309,45.939,11.674z"/>
		<path fill="#CA3B30" d="M54.513,124.123c-0.713-0.558-1.486-1.014-2.322-1.362c-0.39-0.236-0.779-0.472-1.169-0.709
			c-0.673-0.387-1.345-0.774-2.018-1.161c-0.26-0.304-0.606-0.462-0.976-0.58c-0.819-0.588-1.674-1.116-2.601-1.519
			c-0.346-0.207-0.693-0.413-1.039-0.62c-0.858-0.596-1.729-1.169-2.706-1.558c-0.209-0.267-0.483-0.426-0.812-0.494
			c-0.738-0.563-1.529-1.036-2.388-1.391c-0.217-0.254-0.488-0.419-0.817-0.485c-0.72-0.555-1.493-1.019-2.336-1.365
			c-0.38-0.257-0.761-0.514-1.141-0.772c-0.015-1.065-0.03-2.131-0.045-3.196c0.033-0.272,0.066-0.545,0.098-0.817
			c0.394,0.195,0.802,0.367,1.181,0.589c3.256,1.905,6.504,3.824,9.76,5.729c6.627,3.877,13.255,7.753,19.887,11.622
			c5.213,3.041,10.433,6.072,15.65,9.107c0.122,1.334-0.362,2.71,0.273,4.009c-0.501,0.463-0.795-0.088-1.125-0.268
			c-1.509-0.82-2.994-1.681-4.489-2.527c-0.14-0.081-0.279-0.162-0.419-0.243c-0.863-0.654-1.798-1.185-2.779-1.638
			c-0.225-0.24-0.487-0.416-0.818-0.471c-0.844-0.613-1.72-1.172-2.691-1.567c-0.202-0.273-0.487-0.415-0.806-0.5
			c-0.756-0.537-1.53-1.043-2.399-1.383c-0.192-0.118-0.384-0.236-0.577-0.354c-0.819-0.592-1.673-1.124-2.607-1.52
			c-0.347-0.212-0.695-0.424-1.042-0.637c-0.864-0.586-1.74-1.152-2.71-1.554c-0.145-0.085-0.291-0.17-0.436-0.256
			c-0.862-0.643-1.779-1.193-2.763-1.629C55.058,124.441,54.785,124.282,54.513,124.123z"/>
		<path fill="#CA3B30" d="M34.238,18.54c2.55,1.134,4.862,2.698,7.3,4.035c1.743,0.956,3.471,1.941,5.206,2.913
			c0.27,0.177,0.541,0.354,0.811,0.531c0.886,0.454,1.772,0.908,2.658,1.362c0.112,0.209,0.311,0.253,0.522,0.276
			c0.715,0.597,1.482,1.101,2.397,1.343c0.316,0.489,0.817,0.672,1.345,0.809c0.732,0.576,1.491,1.102,2.414,1.329
			c0.165,0.33,0.438,0.498,0.801,0.529c0.772,0.498,1.479,1.112,2.404,1.335c0.365,0.257,0.729,0.513,1.093,0.77
			c0.706,0.366,1.411,0.732,2.117,1.098c0.284,0.318,0.65,0.471,1.061,0.54c1.483,1.216,3.257,1.951,4.888,2.919
			c3.662,2.172,7.384,4.242,11.084,6.349c0.112,0.063,0.256,0.07,0.384,0.102c-0.005,1.321-0.01,2.643-0.014,3.964
			c-0.103,0.015-0.205,0.029-0.308,0.044c-9.133-5.182-18.268-10.361-27.399-15.547c-4.682-2.659-9.357-5.332-14.038-7.993
			c-0.228-0.129-0.486-0.205-0.73-0.305c-0.185-0.101-0.371-0.202-0.556-0.304c-0.218-0.256-0.494-0.412-0.822-0.476
			c-0.734-0.554-1.525-1.009-2.379-1.354c-0.115-0.264-0.23-0.528-0.344-0.792C34.168,20.859,34.203,19.7,34.238,18.54z"/>
		<path fill="#9D241A" d="M80.993,139.148c-0.636-1.299-0.152-2.674-0.274-4.009c5.418-3.037,10.853-6.046,16.248-9.123
			c3.233-1.844,6.578-3.494,9.678-5.569c0.252,0.072,0.225,0.315,0.303,0.494c0.005,1.078,0.009,2.155,0.014,3.233
			c-1.153,1.12-2.673,1.652-4.007,2.482c-1.528,0.951-3.094,1.839-4.644,2.754c-1.07,0.597-2.14,1.193-3.21,1.79
			c-4.272,2.428-8.543,4.857-12.817,7.28C81.862,138.719,81.423,138.926,80.993,139.148z"/>
		<path fill="#9D241A" d="M80.709,48.744c0.005-1.321,0.01-2.643,0.014-3.964c8.112-4.55,16.222-9.103,24.337-13.647
			c0.577-0.323,1.191-0.58,1.788-0.868c0.03,1.262,0.061,2.524,0.091,3.786c-0.788,1.049-2.214,1.164-3.076,2.104
			c-2.032,0.675-3.762,1.931-5.61,2.954c-5.498,3.043-10.965,6.142-16.448,9.212C81.465,48.512,81.14,48.775,80.709,48.744z"/>
		<path fill="#FB5542" d="M50.213,27.381c-0.886-0.454-1.772-0.908-2.658-1.362c0.027-0.671,0.591-0.969,0.985-1.366
			c5.898-5.942,11.806-11.873,17.712-17.806c0,0,0.125-0.008,0.125-0.008l0.126,0.002c0.677,0.524,1.413,0.946,2.206,1.27
			c0.002,0.051,0.007,0.101,0.016,0.151c-0.195,0.526-0.643,0.845-1.017,1.219c-5.503,5.511-11.014,11.015-16.515,16.53
			C50.796,26.407,50.246,26.716,50.213,27.381z"/>
		<path fill="#FB5542" d="M60.096,33.003c-0.924-0.224-1.632-0.837-2.403-1.335c0.32-0.366,0.621-0.752,0.964-1.095
			c4.839-4.848,9.688-9.686,14.525-14.536c1.097-1.1,2.159-2.234,3.238-3.352c0.09-0.005,0.18-0.011,0.27-0.016
			c0.73,0.556,1.519,1.01,2.369,1.356c0.028,0.075,0.054,0.15,0.079,0.226c-0.399,0.347-0.82,0.672-1.193,1.045
			c-5.588,5.579-11.17,11.165-16.757,16.745C60.844,32.382,60.46,32.682,60.096,33.003z"/>
		<path fill="#FB5542" d="M53.132,29c-0.914-0.242-1.682-0.746-2.397-1.343c0.146-0.101,0.31-0.183,0.434-0.307
			c5.926-5.919,11.849-11.841,17.773-17.763c0.252-0.252,0.528-0.49,0.53-0.89c0.179,0.059,0.359,0.118,0.538,0.177
			c0.714,0.457,1.428,0.914,2.142,1.372c-0.1,0.146-0.179,0.311-0.302,0.434c-5.903,5.911-11.81,11.817-17.715,17.726
			C53.85,28.691,53.573,28.981,53.132,29z"/>
		<path fill="#FB5542" d="M56.891,31.138c-0.923-0.227-1.682-0.754-2.414-1.33c0.04-0.66,0.577-0.978,0.974-1.377
			c5.496-5.508,11.001-11.006,16.498-16.512c0.373-0.374,0.824-0.688,1.027-1.209c0.085,0.013,0.171,0.018,0.257,0.015
			c0.791,0.49,1.582,0.979,2.374,1.469c-0.33,0.358-0.648,0.728-0.992,1.073c-5.588,5.593-11.18,11.181-16.766,16.776
			C57.507,30.385,57.21,30.772,56.891,31.138z"/>
		<path fill="#FB5542" d="M63.306,34.87c-0.706-0.366-1.411-0.732-2.117-1.098c0.011-0.622,0.523-0.906,0.889-1.273
			c5.598-5.611,11.202-11.215,16.813-16.813c0.342-0.341,0.744-0.623,1.118-0.932c0.054-0.014,0.108-0.031,0.161-0.05
			c0.723,0.455,1.445,0.91,2.168,1.365c-0.156,0.214-0.288,0.452-0.473,0.637c-5.85,5.859-11.705,11.712-17.558,17.567
			C64.023,34.557,63.754,34.862,63.306,34.87z"/>
		<path fill="#FB5542" d="M72.977,10.71c-0.203,0.521-0.654,0.835-1.027,1.209c-5.497,5.506-11.002,11.005-16.498,16.512
			c-0.398,0.399-0.934,0.717-0.974,1.377c-0.528-0.137-1.029-0.32-1.345-0.809c0.441-0.018,0.717-0.309,1.002-0.594
			C60.04,22.497,65.947,16.59,71.85,10.679c0.123-0.123,0.202-0.288,0.302-0.434c0.166,0.038,0.332,0.077,0.498,0.115
			C72.759,10.477,72.868,10.594,72.977,10.71z"/>
		<path fill="#FB5542" d="M56.891,31.138c0.318-0.366,0.616-0.753,0.958-1.096c5.586-5.595,11.178-11.183,16.766-16.776
			c0.344-0.344,0.662-0.714,0.992-1.073c0.086-0.009,0.173-0.009,0.259-0.002c0.184,0.164,0.368,0.328,0.552,0.492
			c-1.078,1.118-2.141,2.253-3.238,3.352c-4.837,4.85-9.686,9.688-14.525,14.536c-0.343,0.343-0.644,0.729-0.964,1.095
			C57.329,31.636,57.057,31.468,56.891,31.138z"/>
		<path fill="#FB5542" d="M63.306,34.87c0.448-0.008,0.717-0.314,1.001-0.598c5.854-5.855,11.709-11.708,17.558-17.567
			c0.185-0.185,0.316-0.423,0.473-0.637c0.164,0.033,0.329,0.065,0.493,0.098c0.091,0.105,0.183,0.21,0.274,0.315
			c-0.013,0.4-0.3,0.629-0.55,0.879c-5.884,5.885-11.769,11.77-17.657,17.651c-0.155,0.154-0.352,0.266-0.53,0.398
			C63.956,35.342,63.59,35.188,63.306,34.87z"/>
		<path fill="#FB5542" d="M34.241,108.093c1.069-1.192,2.602-1.622,3.928-2.391c-0.248,1.444,0.49,2.183,1.698,2.884
			c13.616,7.902,27.198,15.862,40.79,23.806c7.78-4.542,15.561-9.083,23.341-13.624c0.077,0.012,0.153,0.012,0.23-0.001
			c0.791,0.461,1.581,0.922,2.372,1.383c0.015,0.099,0.03,0.199,0.046,0.298c-3.1,2.075-6.445,3.725-9.678,5.569
			c-5.395,3.077-10.83,6.085-16.248,9.123c-5.217-3.035-10.437-6.065-15.65-9.107c-6.632-3.869-13.26-7.744-19.887-11.622
			c-3.256-1.905-6.504-3.824-9.76-5.729C35.042,108.46,34.635,108.288,34.241,108.093z"/>
		<path fill="#D37140" d="M41.654,74.168c-0.204-0.142-0.255-0.353-0.255-0.582c-0.001-6.412-0.001-12.824-0.001-19.505
			c3.077,1.775,5.986,3.454,8.895,5.132c-0.038,3.281-0.076,6.562-0.113,9.843C47.256,70.623,44.364,72.244,41.654,74.168z"/>
		<path fill="#FBB031" d="M77.471,67.5c0,1.152,0,2.304,0,3.689c-2.043-1.168-3.95-2.252-5.851-3.348
			c-7.376-4.253-14.769-8.476-22.112-12.784c-2.633-1.544-5.396-2.877-7.857-4.708c0.374-0.593,1.049-0.721,1.603-1.036
			c1.531,1.329,3.36,2.166,5.124,3.112c0.601-0.32,1.203-0.64,1.804-0.96c0.238,0.705-0.376,1.629,0.6,2.153
			c1.519,0.817,3.018,1.672,4.525,2.511c0.609-0.298,1.217-0.597,1.826-0.895c0.254,0.759-0.428,1.764,0.5,2.319
			c1.512,0.905,3.073,1.728,4.613,2.585c2.932-1.72,5.863-3.44,8.795-5.16c0.012,3.11,0.021,6.221,0.039,9.331
			c0.003,0.469-0.129,0.979,0.446,1.282c1.563,0.825,2.999,1.879,4.639,2.564C76.6,67.937,77.036,67.718,77.471,67.5z"/>
		<path fill="#FBB031" d="M77.408,114.953c0,1.106,0,2.212,0,3.507c-1.895-1.078-3.729-2.107-5.55-3.158
			c-7.336-4.238-14.682-8.46-21.994-12.738c-2.751-1.609-5.612-3.036-8.213-4.897c0.362-0.596,1.05-0.698,1.576-1.045
			c1.512,1.339,3.347,2.144,5.099,3.085c0.618-0.299,1.237-0.598,1.855-0.897c0.239,0.698-0.382,1.61,0.602,2.134
			c1.515,0.806,3.001,1.667,4.499,2.505c2.934-1.636,5.869-3.272,8.803-4.908c0.013,3.024,0.023,6.048,0.043,9.073
			c0.003,0.469-0.135,0.982,0.441,1.285c1.565,0.826,3,1.886,4.644,2.569c0.613-0.311,1.226-0.621,1.84-0.932
			c0.219,0.793-0.436,1.81,0.574,2.396c1.509,0.875,3.035,1.722,4.554,2.581C76.59,115.327,76.999,115.14,77.408,114.953z"/>
		<path fill="#6098A0" d="M64.086,98.541c-2.934,1.636-5.869,3.272-8.803,4.908c0-5.918,0-11.836,0.001-17.754
			c2.957,1.703,5.914,3.406,8.871,5.109C64.131,93.383,64.108,95.962,64.086,98.541z"/>
		<path fill="#6098A0" d="M71.04,54.978c-2.932,1.72-5.863,3.44-8.795,5.16c-0.005-5.917-0.011-11.834-0.016-17.752
			c2.959,1.703,5.917,3.406,8.876,5.108C71.083,49.989,71.061,52.484,71.04,54.978z"/>
		<path fill="#FBB031" d="M41.654,74.168c2.71-1.924,5.602-3.544,8.526-5.111c0.014,2.347,0.026,4.694,0.044,7.04
			c0.004,0.473-0.108,0.967,0.462,1.268c1.559,0.82,2.992,1.868,4.624,2.557c0.613-0.306,1.226-0.612,1.839-0.918
			c0.167,0.746-0.379,1.722,0.388,2.232c1.486,0.988,2.965,2.026,4.697,2.579c0.754,0.06,1.203-0.593,1.849-0.787
			c0.247,0.762-0.421,1.769,0.505,2.324c1.513,0.907,3.075,1.731,4.617,2.59c0.613-0.293,1.227-0.587,1.84-0.881
			c0.232,0.76-0.445,1.763,0.5,2.311c1.522,0.883,2.977,1.888,4.609,2.575c0.444-0.22,0.889-0.441,1.333-0.661
			c0,1.066,0,2.132,0,3.419c-2.221-1.25-4.3-2.407-6.367-3.585c-6.181-3.521-12.372-7.024-18.529-10.585
			C48.939,78.425,45.183,76.491,41.654,74.168z"/>
		<path fill="#FB5542" d="M48.377,52.423c-1.764-0.945-3.593-1.782-5.123-3.112c0.009-5.966,0.017-11.932,0.026-17.898
			c1.755,0.865,3.433,1.863,5.072,2.928C48.36,40.369,48.369,46.396,48.377,52.423z"/>
		<path fill="#63CFDF" d="M48.327,99.707c-1.753-0.941-3.588-1.746-5.099-3.085c0.014-0.578,0.039-1.155,0.041-1.733
			c0.023-5.382,0.042-10.765,0.062-16.147c1.668,0.98,3.335,1.96,5.003,2.94C48.331,87.691,48.329,93.699,48.327,99.707z"/>
		<path fill="#FB5542" d="M62.235,83.816c-1.733-0.554-3.212-1.591-4.697-2.58c-0.767-0.51-0.22-1.486-0.387-2.233
			c0.012-5.268,0.023-10.536,0.034-15.804c1.697,0.996,3.394,1.991,5.09,2.987C62.261,72.063,62.248,77.94,62.235,83.816z"/>
		<path fill="#FB5542" d="M76.181,115.514c-1.519-0.859-3.044-1.706-4.554-2.581c-1.01-0.586-0.356-1.603-0.574-2.396
			c0.013-5.25,0.025-10.499,0.037-15.749c1.69,0.978,3.381,1.956,5.071,2.934C76.168,103.652,76.174,109.583,76.181,115.514z"/>
		<path fill="#63CFDF" d="M64.086,98.541c0.023-2.579,0.045-5.158,0.068-7.737c1.681,0.978,3.362,1.955,5.044,2.933
			c0.005,5.91,0.01,11.821,0.015,17.731c-1.644-0.682-3.079-1.743-4.644-2.569c-0.575-0.304-0.437-0.816-0.441-1.285
			C64.108,104.59,64.099,101.565,64.086,98.541z"/>
		<path fill="#63CFDF" d="M55.311,79.922c-1.632-0.689-3.066-1.737-4.624-2.557c-0.571-0.3-0.459-0.795-0.462-1.268
			c-0.018-2.347-0.03-4.693-0.044-7.04c0.038-3.281,0.076-6.562,0.113-9.843c1.669,0.991,3.337,1.981,5.006,2.972
			C55.303,68.097,55.307,74.009,55.311,79.922z"/>
		<path fill="#63CFDF" d="M71.04,54.978c0.021-2.495,0.043-4.989,0.065-7.483c1.769,1.027,3.538,2.054,5.308,3.081
			c-0.369,0.361-0.251,0.827-0.252,1.257c-0.004,5.441,0.001,10.883,0.003,16.324c-1.64-0.685-3.077-1.74-4.639-2.564
			c-0.574-0.303-0.443-0.813-0.446-1.282C71.06,61.199,71.052,58.089,71.04,54.978z"/>
		<path fill="#63CFDF" d="M76.154,91.949c-1.632-0.686-3.087-1.692-4.609-2.575c-0.945-0.548-0.268-1.55-0.5-2.311
			c0.026-5.259,0.052-10.518,0.077-15.776c1.681,0.981,3.363,1.962,5.044,2.942C76.162,80.135,76.158,86.042,76.154,91.949z"/>
		<path fill="#63CFDF" d="M62.229,42.387c0.005,5.917,0.011,11.834,0.016,17.752c-1.54-0.858-3.101-1.68-4.613-2.585
			c-0.927-0.555-0.246-1.561-0.5-2.319c0.029-5.255,0.058-10.51,0.087-15.765C58.889,40.442,60.559,41.414,62.229,42.387z"/>
		<path fill="#84BAC1" d="M69.205,87.944c-1.542-0.859-3.104-1.683-4.617-2.59c-0.926-0.556-0.258-1.563-0.505-2.325
			c0.029-5.261,0.058-10.521,0.087-15.781c1.681,0.988,3.361,1.975,5.042,2.963C69.211,76.121,69.208,82.032,69.205,87.944z"/>
		<path fill="#84BAC1" d="M55.306,56.129c-1.507-0.839-3.005-1.695-4.525-2.511c-0.976-0.525-0.362-1.448-0.6-2.154
			c0.013-0.489,0.037-0.979,0.039-1.468c0.019-4.854,0.035-9.708,0.052-14.561c1.67,0.978,3.339,1.956,5.009,2.933
			C55.29,44.288,55.298,50.209,55.306,56.129z"/>
		<path fill="#63CFDF" d="M55.283,85.695c0,5.918,0,11.836-0.001,17.754c-1.498-0.838-2.984-1.699-4.499-2.505
			c-0.983-0.523-0.363-1.436-0.602-2.133c0.029-5.344,0.057-10.689,0.086-16.034C51.939,83.75,53.611,84.722,55.283,85.695z"/>
		<path fill="#FBB031" d="M64.749,114.491c4.037,2.308,8.072,4.62,12.115,6.917c0.437,0.248,0.637,0.562,0.632,1.064
			c-0.016,1.543-0.006,3.086-0.006,4.867c-2.45-1.454-4.73-2.79-6.995-4.153c-3.298-1.984-6.702-3.794-9.865-6
			C61.852,116.056,63.543,115.645,64.749,114.491z"/>
		<path fill="#FBB031" d="M45.744,103.795c3.723,2.063,7.444,4.129,11.17,6.184c0.408,0.225,0.534,0.551,0.532,0.985
			c-0.008,1.459-0.003,2.919-0.003,4.614c-2.124-1.198-4.077-2.3-6.03-3.401c-2.975-1.678-5.953-3.352-8.923-5.039
			c-0.303-0.172-0.56-0.425-0.838-0.64C43.017,105.597,44.38,104.696,45.744,103.795z"/>
		<path fill="#D37140" d="M43.28,31.414c-0.008,5.966-0.017,11.932-0.026,17.898c-0.554,0.315-1.229,0.443-1.603,1.036
			c-0.261-0.178-0.245-0.453-0.245-0.717c-0.001-6.345-0.001-12.691-0.001-19.124C42.21,30.531,42.707,31.056,43.28,31.414z"/>
		<path fill="#D37140" d="M43.331,78.743c-0.02,5.382-0.039,10.765-0.062,16.147c-0.002,0.578-0.027,1.155-0.041,1.733
			c-0.527,0.346-1.215,0.449-1.576,1.045c-0.206-0.143-0.244-0.358-0.244-0.584c-0.001-6.399-0.001-12.797-0.001-19.23
			C42.241,77.837,42.731,78.41,43.331,78.743z"/>
		<path fill="#CA3B30" d="M50.273,35.435c-0.017,4.854-0.033,9.708-0.052,14.561c-0.002,0.489-0.025,0.978-0.039,1.468
			c-0.602,0.32-1.203,0.64-1.804,0.96c-0.009-6.028-0.017-12.055-0.026-18.082C48.992,34.706,49.632,35.071,50.273,35.435z"/>
		<path fill="#6098A0" d="M50.268,82.777c-0.029,5.345-0.057,10.689-0.086,16.034c-0.618,0.299-1.237,0.598-1.855,0.897
			c0.002-6.008,0.004-12.016,0.006-18.024C49.045,81.93,49.668,82.331,50.268,82.777z"/>
		<path fill="#6098A0" d="M55.306,56.129c-0.008-5.92-0.016-11.841-0.025-17.761c0.645,0.367,1.291,0.734,1.937,1.101
			c-0.029,5.255-0.058,10.51-0.087,15.765C56.524,55.532,55.915,55.831,55.306,56.129z"/>
		<path fill="#2DA5C4" d="M55.311,79.922c-0.004-5.912-0.008-11.825-0.012-17.737c0.628,0.338,1.257,0.676,1.885,1.015
			c-0.011,5.268-0.023,10.536-0.034,15.804C56.537,79.31,55.924,79.616,55.311,79.922z"/>
		<path fill="#6098A0" d="M69.205,87.944c0.003-5.911,0.005-11.823,0.008-17.734c0.636,0.359,1.272,0.718,1.909,1.077
			c-0.025,5.259-0.051,10.518-0.077,15.777C70.432,87.357,69.819,87.65,69.205,87.944z"/>
		<path fill="#2DA5C4" d="M69.213,111.468c-0.005-5.91-0.01-11.821-0.015-17.731c0.631,0.35,1.261,0.7,1.892,1.05
			c-0.012,5.25-0.025,10.499-0.037,15.749C70.439,110.847,69.826,111.157,69.213,111.468z"/>
		<path fill="#CA3B30" d="M64.171,67.247c-0.029,5.26-0.058,10.521-0.087,15.781c-0.645,0.194-1.095,0.848-1.849,0.788
			c0.013-5.876,0.026-11.753,0.04-17.63C62.907,66.54,63.539,66.894,64.171,67.247z"/>
		<path fill="#CA3B30" d="M76.181,115.514c-0.007-5.931-0.013-11.862-0.02-17.793c1.032,0.319,1.376,0.974,1.356,2.084
			c-0.089,5.049-0.081,10.099-0.109,15.148C76.999,115.14,76.59,115.327,76.181,115.514z"/>
		<path fill="#2DA5C4" d="M76.154,91.949c0.004-5.907,0.008-11.813,0.012-17.72c1.026,0.312,1.372,0.942,1.355,2.062
			c-0.073,4.998-0.033,9.997-0.034,14.996C77.043,91.508,76.598,91.728,76.154,91.949z"/>
		<path fill="#2DA5C4" d="M76.164,68.156c-0.003-5.441-0.007-10.883-0.003-16.324c0-0.429-0.117-0.895,0.252-1.257
			c0.74,0.259,1.11,0.678,1.101,1.564c-0.052,5.119-0.035,10.239-0.041,15.359C77.036,67.718,76.6,67.937,76.164,68.156z"/>
		<path fill="#D37140" d="M64.749,114.491c-1.205,1.154-2.897,1.565-4.118,2.695c-0.537-1.673-0.109-3.381-0.282-5.344
			C61.989,112.711,63.408,113.529,64.749,114.491z"/>
		<path fill="#D37140" d="M45.744,103.795c-1.364,0.901-2.727,1.802-4.091,2.703c-0.567-1.668-0.069-3.377-0.302-5.32
			C42.973,102.062,44.446,102.77,45.744,103.795z"/>
		<path fill="#FB5542" d="M65.547,6.471c0.235,0.125,0.47,0.25,0.705,0.375C60.346,12.78,54.438,18.711,48.54,24.653
			c-0.394,0.397-0.958,0.695-0.985,1.366c-0.27-0.177-0.541-0.354-0.811-0.531c-0.001-0.397,0.258-0.645,0.511-0.899
			c5.916-5.914,11.83-11.829,17.75-17.739C65.159,6.697,65.366,6.596,65.547,6.471z"/>
		<path fill="#FB5542" d="M79.137,14.249c0.357,0.054,0.641,0.233,0.872,0.506c-0.374,0.309-0.776,0.59-1.118,0.932
			C73.28,21.285,67.676,26.889,62.078,32.5c-0.365,0.366-0.877,0.651-0.889,1.273c-0.364-0.257-0.729-0.514-1.093-0.77
			c0.365-0.32,0.749-0.621,1.091-0.963c5.588-5.58,11.169-11.166,16.757-16.745C78.318,14.922,78.739,14.597,79.137,14.249z"/>
		<path fill="#FB5542" d="M68.724,8.261c0.249,0.145,0.498,0.291,0.747,0.436c-0.002,0.401-0.278,0.638-0.53,0.89
			c-5.923,5.922-11.846,11.845-17.773,17.763c-0.123,0.123-0.288,0.205-0.434,0.307c-0.211-0.023-0.41-0.067-0.522-0.276
			c0.034-0.665,0.583-0.974,0.98-1.372c5.5-5.514,11.011-11.018,16.515-16.53C68.081,9.105,68.529,8.787,68.724,8.261z"/>
	</g>
	<g>
		<path fill="#DE5A02" d="M103.61,87.152c0.665,0.432,1.329,0.863,1.993,1.295c-3.626,0.985-6.708,2.992-9.706,5.158
			c-1.671,0.469-3.088,1.397-4.435,2.452c-0.317,0.099-0.666,0.143-0.946,0.305c-5.154,2.998-10.303,6.005-15.444,9.026
			c-1.107,0.651-1.944,1.578-2.773,2.575c-2.448,2.943-3.072,6.323-2.761,9.994c-0.431,0.768-0.385,1.596-0.311,2.428
			c0.311,1.88,0.379,3.773,0.311,5.673c-0.431,0.767-0.385,1.596-0.311,2.428c0.311,1.88,0.379,3.773,0.311,5.673
			c-0.431,0.768-0.385,1.596-0.311,2.428c-0.001,1.887-0.003,3.774-0.004,5.662c-0.035,0.721,0.573,1.376,0.216,2.13
			c-0.606,0.261-0.957-0.387-1.482-0.416c-1.337-0.742-2.675-1.484-4.012-2.227c-0.225-0.127-0.45-0.254-0.675-0.382
			c-1.099-0.799-2.332-1.456-2.937-2.778c-0.094-0.536-0.188-1.072-0.282-1.608c0.13-0.793,0.194-1.584-0.061-2.367
			c0.318-5.004,0.24-10.008,0.041-15.013c0.224-2.255,0.237-4.51-0.008-6.764c0.049-0.602,0.129-1.204,0.141-1.807
			c0.101-4.992,2.368-8.731,6.548-11.371c0.01,1.003,0.033,2.007,0.026,3.01c-0.006,0.753,0.032,1.458,0.71,1.98
			c1.22,0.94,4.096,0.948,5.74-0.064c1.564-0.963,1.372-2.476,1.069-3.937c-0.407-1.96-0.245-3.831,0.589-5.647
			c5.543-3.248,11.086-6.496,16.628-9.743c0.935-0.454,1.871-0.908,2.806-1.362c0.01,0.667,0.023,1.333,0.029,2
			c0.023,2.713,1.674,4.019,4.422,3.658c1.839-0.242,2.996-1.212,3.706-2.844C102.828,86.849,103.219,87,103.61,87.152z"/>
		<path fill="#FB832E" d="M102.437,86.698c-0.711,1.632-1.867,2.602-3.706,2.844c-2.748,0.361-4.399-0.945-4.422-3.658
			c-0.006-0.667-0.019-1.333-0.029-2c-0.01-0.261-0.021-0.521-0.031-0.782c0.088-3.952-0.365-7.813-1.948-11.481
			c-0.047-0.63-0.346-1.118-0.845-1.492c-0.503-1.062-1.416-1.305-2.491-1.296c-1.677,0.014-3.104,0.668-4.422,1.634
			c-0.902,0.104-1.329,0.894-1.975,1.366c-0.34,0.118-0.503,0.356-0.48,0.717l0.001-0.031c-0.609,0.022-0.948,0.474-1.281,0.873
			c-2.757,3.294-4.466,7.07-5.139,11.314c-0.065,0.269-0.131,0.539-0.196,0.808c-0.629,1.901-0.806,3.892-0.956,5.859
			c-0.09,1.184-0.595,2.493,0.33,3.617c-0.834,1.816-0.996,3.686-0.589,5.647c0.303,1.461,0.495,2.974-1.069,3.937
			c-1.644,1.012-4.52,1.004-5.74,0.064c-0.678-0.522-0.716-1.227-0.71-1.98c0.007-1.003-0.016-2.007-0.025-3.01
			c-0.036-1.342-0.073-2.684-0.109-4.026c0.06-1.476,0.12-2.952,0.18-4.428c0.371-0.767,0.376-1.582,0.314-2.405
			c0.428-2.442,0.857-4.884,1.285-7.326c0.05-0.082,0.058-0.167,0.025-0.257c0.213-0.481,0.477-0.946,0.633-1.445
			c2.783-8.899,8.011-15.507,17.2-18.422c0.776-0.081,1.551-0.161,2.327-0.242c0.952,0.058,1.903,0.115,2.855,0.173
			c0.81,0.292,1.621,0.583,2.431,0.875c0.408,0.254,0.816,0.508,1.224,0.762c0.929,0.943,1.857,1.885,2.786,2.828
			c0.258,0.405,0.516,0.81,0.774,1.215c0.595,1.467,1.19,2.935,1.784,4.402c-0.056,0.467,0.111,0.865,0.379,1.233
			c0.288,1.882,0.577,3.765,0.865,5.647c-0.042,0.573-0.109,1.15,0.223,1.674c0.057,2.008,0.113,4.017,0.17,6.025
			C102.184,86.186,102.311,86.442,102.437,86.698z"/>
		<path fill="#FD832C" d="M69.538,126.058c0.068-1.901,0-3.794-0.311-5.673c0.77-0.022,1.166-0.62,1.634-1.087
			c8.014-8.006,16.024-16.016,24.03-24.029c0.468-0.468,1.062-0.874,1.006-1.665c2.998-2.165,6.081-4.173,9.707-5.157
			c0.395,0.121,0.79,0.242,1.185,0.363c0.033,0.111,0.061,0.224,0.084,0.338c-0.483,0.557-0.935,1.146-1.454,1.667
			c-4.764,4.78-9.544,9.545-14.305,14.327c-0.552,0.554-1.333,0.996-1.237,1.97c-0.635,0.662-1.271,1.325-1.906,1.987
			c-0.98-0.16-1.428,0.615-1.978,1.163c-4.844,4.825-9.671,9.668-14.515,14.493C70.921,125.307,70.474,126.057,69.538,126.058z"/>
		<path fill="#FB832E" d="M96.631,133.11c-1.451,0.841-2.903,1.682-4.354,2.523c-3.511,1.947-7.022,3.894-10.534,5.84
			c-0.026-0.867,0.654-1.29,1.165-1.802c7.951-7.963,15.909-15.919,23.87-23.873c0.513-0.513,0.95-1.182,1.831-1.086
			c0.069,1.618,0.137,3.235,0.206,4.853c-0.386,0.632-0.332,1.338-0.341,2.034c-1.586,5.023-5.23,8.073-9.794,10.26
			C97.961,132.202,97.312,132.689,96.631,133.11z"/>
		<path fill="#FD832C" d="M76.878,144.29c-0.814,0.522-1.628,1.044-2.442,1.566c-1.378,0.254-2.728,0.202-4.027-0.382
			c-0.274-0.254-0.548-0.508-0.822-0.762c0.131-0.143,0.263-0.286,0.394-0.429c0.552-0.483,1.132-0.936,1.65-1.453
			c4.229-4.212,8.443-8.439,12.669-12.654c0.606-0.605,1.126-1.376,2.148-1.311c-0.111,0.828-0.212,1.605,1.025,0.852
			c1.964-1.196,3.875-2.49,6.013-3.378c0.044,0.953-0.703,1.414-1.26,1.973c-4.668,4.684-9.353,9.352-14.018,14.04
			C77.653,142.908,76.883,143.345,76.878,144.29z"/>
		<path fill="#FD832C" d="M108.606,98.51c0.081,1.621,0.162,3.242,0.244,4.863c-0.08,0.401-0.159,0.801-0.239,1.202
			c-0.962-0.072-1.415,0.685-1.972,1.24c-3.917,3.899-7.816,7.816-11.734,11.714c-0.511,0.509-0.918,1.202-1.774,1.226
			c-0.272-2.181-1.732-4.426,0.353-6.478c0.934-0.015,1.369-0.778,1.922-1.327c3.755-3.731,7.487-7.484,11.24-11.217
			C107.198,99.183,107.641,98.416,108.606,98.51z"/>
		<path fill="#FD832C" d="M108.014,90.412c1.043,1.488,0.579,3.236,0.837,4.86c-0.08,0.401-0.159,0.801-0.239,1.202
			c-0.961-0.072-1.415,0.685-1.972,1.24c-3.487,3.469-6.956,6.958-10.445,10.425c-0.557,0.554-1.002,1.314-1.947,1.307
			c-0.368-1.061-0.246-2.385-1.568-2.937c-0.042-0.567,0.116-1.044,0.536-1.458C98.153,100.174,103.082,95.292,108.014,90.412z"/>
		<path fill="#FD832C" d="M108.606,106.612c0.081,1.621,0.162,3.242,0.244,4.863c-0.08,0.401-0.159,0.801-0.239,1.202
			c-0.96-0.073-1.413,0.684-1.97,1.238c-3.483,3.465-6.946,6.949-10.432,10.411c-0.556,0.552-0.995,1.317-1.936,1.321
			c-0.268-1.756-0.535-3.512-0.803-5.268c0.938-0.006,1.374-0.768,1.928-1.319c3.757-3.733,7.492-7.489,11.247-11.224
			C107.197,107.285,107.641,106.517,108.606,106.612z"/>
		<path fill="#FD832C" d="M108.611,112.676c0.086,0.138,0.171,0.275,0.257,0.413c-0.086,0.541-0.173,1.082-0.259,1.623
			c-0.881-0.096-1.318,0.573-1.831,1.086c-7.961,7.953-15.918,15.91-23.87,23.873c-0.511,0.511-1.191,0.934-1.165,1.802
			c-1.375,0.878-2.75,1.755-4.125,2.632c-0.247,0.061-0.494,0.123-0.741,0.185c0.006-0.944,0.776-1.382,1.33-1.938
			c4.665-4.688,9.35-9.356,14.018-14.04c0.557-0.559,1.304-1.02,1.26-1.972c0.263-0.231,0.525-0.462,0.788-0.694
			c0.941-0.004,1.38-0.769,1.936-1.321c3.486-3.461,6.949-6.946,10.432-10.411C107.198,113.36,107.651,112.604,108.611,112.676z"/>
		<path fill="#FD832C" d="M106.871,89.147c0.386,0.287,0.772,0.573,1.158,0.86c-0.005,0.135-0.01,0.27-0.016,0.405
			c-4.932,4.88-9.861,9.763-14.799,14.637c-0.42,0.415-0.578,0.891-0.536,1.458c-0.997-0.087-1.911,0.208-2.804,0.604
			c-0.096-0.974,0.686-1.416,1.237-1.97c4.762-4.783,9.542-9.547,14.305-14.327C105.937,90.292,106.388,89.704,106.871,89.147z"/>
		<path fill="#FD832C" d="M108.611,104.574c0.086,0.138,0.171,0.275,0.257,0.413c-0.087,0.542-0.174,1.083-0.261,1.625
			c-0.966-0.095-1.409,0.674-1.962,1.223c-3.755,3.735-7.49,7.491-11.247,11.224c-0.554,0.55-0.99,1.313-1.928,1.319
			c-0.32-0.498-0.413-1.043-0.34-1.623c0.856-0.024,1.263-0.717,1.774-1.226c3.918-3.898,7.817-7.815,11.734-11.714
			C107.196,105.26,107.65,104.502,108.611,104.574z"/>
		<path fill="#FD832C" d="M108.611,96.473c0.086,0.138,0.171,0.275,0.257,0.413c-0.087,0.542-0.174,1.083-0.261,1.625
			c-0.965-0.095-1.409,0.673-1.961,1.222c-3.753,3.733-7.485,7.486-11.24,11.217c-0.553,0.55-0.988,1.313-1.922,1.327
			c0.254-0.944,0.509-1.889,0.763-2.833c0.945,0.008,1.39-0.753,1.947-1.307c3.49-3.467,6.958-6.955,10.445-10.425
			C107.197,97.158,107.65,96.4,108.611,96.473z"/>
		<path fill="#FD832C" d="M69.539,117.957c-0.311-3.671,0.313-7.051,2.761-9.994c0.829-0.997,1.666-1.924,2.773-2.575
			c5.141-3.021,10.29-6.028,15.444-9.026c0.28-0.163,0.629-0.206,0.945-0.305c0.012,0.774-0.566,1.182-1.034,1.65
			c-6.407,6.413-12.818,12.823-19.23,19.232C70.728,117.408,70.31,117.974,69.539,117.957z"/>
		<path fill="#FD832C" d="M69.223,142.25c0.001-1.887,0.003-3.774,0.004-5.662c0.923-0.058,1.357-0.821,1.913-1.374
			c4.915-4.892,9.808-9.805,14.723-14.696c0.555-0.553,0.987-1.323,1.922-1.353c-0.507,2.412-0.363,4.919-1.072,7.302
			c-0.961-0.065-1.416,0.693-1.974,1.249c-4.448,4.431-8.883,8.875-13.325,13.312C70.801,141.64,70.266,142.404,69.223,142.25z"/>
		<path fill="#FD832C" d="M69.539,134.16c0.068-1.901,0-3.794-0.312-5.673c0.919-0.057,1.352-0.816,1.907-1.367
			c4.516-4.492,9.009-9.006,13.525-13.498c0.553-0.55,0.984-1.316,1.916-1.343c-0.557,1.628,0.08,2.858,1.298,3.894
			c-0.182,0.279-0.323,0.6-0.553,0.831c-5.462,5.48-10.935,10.95-16.402,16.424C70.529,133.816,70.134,134.171,69.539,134.16z"/>
		<path fill="#FD832C" d="M69.539,117.957c0.771,0.017,1.189-0.549,1.659-1.018c6.412-6.408,12.823-12.818,19.23-19.232
			c0.468-0.468,1.046-0.877,1.034-1.65c1.347-1.055,2.764-1.983,4.435-2.452c0.056,0.79-0.538,1.196-1.006,1.664
			c-8.007,8.013-16.016,16.023-24.03,24.029c-0.468,0.467-0.864,1.065-1.634,1.087C69.154,119.553,69.108,118.724,69.539,117.957z"
			/>
		<path fill="#FD832C" d="M69.539,134.16c0.596,0.011,0.991-0.344,1.379-0.733c5.468-5.474,10.94-10.944,16.402-16.424
			c0.23-0.231,0.371-0.552,0.553-0.83c0.769,1.021,0.001,1.997-0.087,2.992c-0.935,0.03-1.366,0.8-1.922,1.353
			c-4.915,4.891-9.808,9.804-14.723,14.696c-0.556,0.554-0.99,1.317-1.913,1.374C69.154,135.756,69.108,134.927,69.539,134.16z"/>
		<path fill="#FD832C" d="M86.574,112.278c-0.932,0.027-1.363,0.793-1.916,1.343c-4.516,4.492-9.009,9.006-13.525,13.498
			c-0.554,0.551-0.987,1.31-1.907,1.367c-0.073-0.832-0.119-1.661,0.312-2.428c0.936-0.001,1.382-0.751,1.937-1.303
			c4.844-4.825,9.671-9.668,14.515-14.493c0.55-0.548,0.998-1.323,1.978-1.163C87.503,110.158,87.039,111.218,86.574,112.278z"/>
		<path fill="#FD832C" d="M69.223,142.25c1.043,0.154,1.578-0.61,2.191-1.222c4.442-4.437,8.876-8.882,13.325-13.312
			c0.558-0.556,1.013-1.314,1.974-1.249c-0.089,0.799-0.177,1.599-0.265,2.398c-1.021-0.065-1.542,0.706-2.148,1.311
			c-4.226,4.215-8.44,8.442-12.669,12.654c-0.518,0.516-1.099,0.97-1.65,1.453c-0.164,0.023-0.328,0.046-0.491,0.069
			c0,0-0.05,0.028-0.05,0.028C69.797,143.626,69.188,142.971,69.223,142.25z"/>
		<path fill="#A1A3A2" d="M82.567,71.833c-0.028,0.327-0.103,0.623-0.48,0.717C82.065,72.188,82.227,71.951,82.567,71.833z"/>
		<path fill="#353331" d="M86.448,128.865c0.088-0.799,0.176-1.599,0.265-2.398c0.71-2.382,0.566-4.89,1.073-7.302
			c0.088-0.995,0.856-1.971,0.087-2.992c-1.219-1.037-1.855-2.267-1.298-3.895c0.465-1.06,0.929-2.12,1.394-3.18
			c0.636-0.662,1.271-1.325,1.907-1.987c0.893-0.396,1.808-0.69,2.804-0.604c1.322,0.552,1.2,1.875,1.568,2.937
			c-0.255,0.944-0.509,1.889-0.763,2.833c-2.085,2.052-0.625,4.297-0.353,6.478c-0.073,0.58,0.019,1.125,0.34,1.623
			c0.268,1.756,0.535,3.512,0.803,5.268c-0.263,0.231-0.525,0.463-0.788,0.694c-2.138,0.888-4.048,2.182-6.013,3.378
			C86.236,130.47,86.336,129.692,86.448,128.865z"/>
		<path fill="#DE5A02" d="M69.489,144.351c0.164-0.023,0.328-0.046,0.491-0.069c-0.132,0.143-0.263,0.286-0.394,0.429
			c-0.051-0.072-0.114-0.139-0.147-0.218C69.424,144.459,69.47,144.399,69.489,144.351z"/>
	</g>
</g>
</svg>
