<?xml version="1.0" encoding="utf-8"?>
<!-- Generator: Adobe Illustrator 17.0.0, SVG Export Plug-In . SVG Version: 6.00 Build 0)  -->
<!DOCTYPE svg PUBLIC "-//W3C//DTD SVG 1.1//EN" "http://www.w3.org/Graphics/SVG/1.1/DTD/svg11.dtd">
<svg version="1.1" id="Layer_1" xmlns="http://www.w3.org/2000/svg" xmlns:xlink="http://www.w3.org/1999/xlink" x="0px" y="0px"
	 width="43px" height="48px" viewBox="0 0 43 48" enable-background="new 0 0 43 48" xml:space="preserve">
<g>
	<path fill="#FE3401" d="M19.819,41.95c0.348-0.619,0.821-1.107,1.47-1.413c0.182-0.051,0.364-0.102,0.545-0.153
		c0.595-0.006,1.189-0.012,1.784-0.017c0.151,0.001,0.303,0.002,0.454,0.003c0.594,0.002,1.187,0.003,1.781,0.005
		c0.15,0.038,0.3,0.076,0.449,0.114c0.291,0.156,0.583,0.311,0.874,0.467c0.151,0.156,0.301,0.311,0.452,0.467
		c0.073,0.108,0.146,0.217,0.218,0.325c0.217,0.542,0.279,1.107,0.261,1.685c-0.383,1.363-1.284,2.079-2.694,2.161
		c-0.189-0.061-0.38-0.055-0.571-0.011c-0.592-0.04-1.184-0.061-1.775,0.014c-0.151-0.058-0.305-0.055-0.459-0.012
		c-0.482-0.039-0.97-0.043-1.432-0.215c-0.116-0.062-0.231-0.123-0.347-0.185c-0.262-0.258-0.524-0.517-0.786-0.775
		c-0.065-0.115-0.13-0.23-0.195-0.345c-0.119-0.473-0.269-0.941-0.21-1.44C19.701,42.399,19.76,42.175,19.819,41.95z"/>
	<path fill="#FE3401" d="M31.997,7.44c0.112,0.073,0.224,0.146,0.336,0.219c0.041,0.069,0.082,0.139,0.123,0.208
		c-0.636,1.58-1.867,2.417-3.475,2.783c-0.149,0.01-0.298,0.021-0.447,0.031c-0.529,0-1.042-0.12-1.559-0.205
		c-0.15-0.038-0.301-0.075-0.451-0.113c-0.478-0.105-0.955-0.212-1.448-0.22c-0.15-0.009-0.3-0.018-0.45-0.026
		c-0.555-0.067-1.11-0.137-1.669-0.047c-0.189-0.061-0.38-0.055-0.571-0.011c-0.592-0.038-1.184-0.063-1.776,0.015
		c-0.077-0.003-0.155-0.005-0.232-0.008c-0.074-0.002-0.148-0.003-0.223-0.005c-0.597-0.069-1.191-0.027-1.784,0.06
		c-0.187,0.009-0.374,0.018-0.562,0.027c-0.72,0.074-1.435,0.171-2.119,0.421c-0.195-0.022-0.381,0.009-0.557,0.096
		c-0.563,0.026-1.118-0.048-1.671-0.135c-0.109-0.036-0.218-0.072-0.327-0.108c-0.341-0.176-0.683-0.353-1.024-0.529
		c-0.146-0.116-0.292-0.232-0.438-0.347c-0.227-0.256-0.455-0.512-0.682-0.769c-0.073-0.113-0.146-0.225-0.22-0.338
		c-0.077-0.191-0.154-0.382-0.232-0.572c0.477-0.504,1.123-0.735,1.714-1.055c0.175-0.095,0.353-0.183,0.53-0.274
		c0.298-0.113,0.597-0.227,0.895-0.34c0.781-0.227,1.562-0.454,2.344-0.681c0.26-0.06,0.521-0.121,0.781-0.181
		c0.596-0.056,1.192-0.113,1.788-0.169c0.192,0.016,0.389,0.075,0.563-0.067c0.595-0.005,1.19-0.01,1.785-0.014
		c0.149,0.001,0.298,0.003,0.448,0.004c0.596-0.001,1.191-0.002,1.787-0.003c0.149,0.003,0.298,0.007,0.446,0.01
		c0.55,0.17,1.117,0.074,1.675,0.11c0.128,0.138,0.293,0.096,0.45,0.092c1.04,0.236,2.081,0.473,3.121,0.71
		c0.132,0.109,0.28,0.179,0.454,0.189c0.412,0.148,0.784,0.396,1.223,0.477c0.114,0.065,0.227,0.13,0.341,0.194
		C31.254,7.058,31.626,7.249,31.997,7.44z"/>
	<g>
		<path fill="#FF6243" d="M42.946,27.653c0.015-0.076,0.031-0.152,0.046-0.228c-0.015-0.482-0.031-0.965-0.046-1.447
			c0.018-0.11,0.036-0.22,0.054-0.33c-0.018-0.076-0.036-0.153-0.054-0.229c0.015-0.076,0.031-0.152,0.046-0.228
			c-0.015-0.482-0.031-0.965-0.046-1.447c0.018-0.11,0.036-0.22,0.054-0.33c-0.018-0.076-0.036-0.153-0.054-0.229
			c0.015-0.076,0.031-0.152,0.046-0.228c-0.019-0.482-0.037-0.963-0.056-1.445c0,0,0,0,0,0c0.013-0.074,0.025-0.149,0.038-0.223
			c-0.015-0.075-0.031-0.151-0.047-0.226c-0.159,0.011-0.265,0.098-0.36,0.199c0.095-0.101,0.201-0.188,0.36-0.199
			c0.009-0.075,0.018-0.151,0.027-0.226c-0.044-0.437-0.088-0.874-0.133-1.311c-0.029-0.013-0.059-0.024-0.09-0.032c0,0,0,0,0,0
			c-0.012-0.147-0.023-0.294-0.035-0.442c-0.002-0.068-0.005-0.136-0.007-0.204c-0.156-0.364-0.07-0.793-0.301-1.138l0,0
			c0.001-0.111,0.001-0.222,0.002-0.334c-0.043-0.073-0.086-0.147-0.129-0.22c0.007-0.039,0.015-0.078,0.022-0.117
			c-0.189-0.359-0.184-0.791-0.427-1.129c-0.002-0.07-0.005-0.139-0.007-0.209c-0.037-0.041-0.073-0.081-0.11-0.122
			c-0.016-0.104-0.033-0.209-0.05-0.313c-0.155-0.372-0.31-0.744-0.465-1.115c-0.037-0.091-0.073-0.182-0.11-0.272
			c-0.213-0.397-0.426-0.794-0.638-1.191c-0.046-0.089-0.093-0.179-0.139-0.268c-0.292-0.369-0.562-0.753-0.757-1.184
			c-0.041-0.059-0.082-0.119-0.124-0.178c-0.294-0.324-0.568-0.662-0.786-1.043c-0.1-0.116-0.199-0.233-0.299-0.349
			c-0.226-0.258-0.453-0.517-0.679-0.775c-0.138-0.087-0.256-0.192-0.327-0.343c-0.295-0.226-0.56-0.483-0.788-0.777
			c-0.118-0.108-0.236-0.216-0.354-0.324c-0.327-0.232-0.645-0.474-0.913-0.775c-0.137-0.033-0.237-0.117-0.312-0.233
			c-0.316-0.196-0.632-0.392-0.948-0.588c-0.471,0.413-0.964,0.804-1.359,1.288c0.395-0.484,0.888-0.875,1.358-1.288
			c-0.01-0.031-0.017-0.064-0.021-0.096c-0.108-0.043-0.215-0.086-0.323-0.128c-0.007-0.032-0.015-0.063-0.023-0.094
			c-0.362-0.196-0.733-0.377-1.05-0.647c-0.025,0.007-0.051,0.014-0.077,0.019c-0.04-0.04-0.079-0.08-0.119-0.121
			c-0.071-0.011-0.143-0.021-0.214-0.032c-0.303-0.173-0.607-0.347-0.91-0.52c-0.102-0.023-0.204-0.046-0.307-0.069
			c-0.046-0.046-0.093-0.092-0.139-0.138c-0.069-0.01-0.139-0.02-0.208-0.03c-0.298-0.128-0.595-0.257-0.893-0.385
			c-0.214,0.013-0.389-0.086-0.563-0.191c-0.44,0.071-0.792-0.284-1.224-0.254c-0.108-0.042-0.216-0.084-0.324-0.126
			c-0.002,0.04-0.008,0.077-0.018,0.112c0.01-0.035,0.016-0.072,0.018-0.112c-0.095-0.099-0.22-0.081-0.339-0.089
			c-0.005-0.03-0.013-0.06-0.024-0.088c-0.41-0.046-0.82-0.095-1.214-0.229c-0.074,0.007-0.148,0.013-0.223,0.02
			c-0.102,0.289-0.309,0.487-0.523,0.679c0.214-0.192,0.421-0.39,0.523-0.679c-0.075-0.019-0.15-0.038-0.226-0.058
			c-0.108,0.005-0.216,0.009-0.324,0.014c-0.394-0.182-0.829-0.025-1.23-0.152C24,2.474,23.924,2.49,23.849,2.506c0,0,0,0,0,0
			c-0.077-0.031-0.153-0.062-0.23-0.093c-0.148,0.017-0.296,0.035-0.445,0.052c-0.447-0.018-0.895-0.037-1.342-0.056
			c-0.075,0.016-0.149,0.033-0.224,0.049c-0.294,0.52-0.771,0.87-1.18,1.284c0.409-0.414,0.887-0.764,1.18-1.284
			c-0.074-0.018-0.149-0.036-0.223-0.054c-0.148,0.02-0.297,0.04-0.445,0.059c-0.448-0.017-0.895-0.034-1.343-0.052
			c-0.071,0-0.142,0-0.213,0c-0.007,0.026-0.012,0.053-0.013,0.081c-0.184,0.007-0.368,0.015-0.552,0.022
			c-0.562-0.047-1.114,0.069-1.672,0.101c-0.079,0.031-0.157,0.061-0.236,0.092c0,0,0,0,0,0c-0.147,0.007-0.294,0.013-0.441,0.019
			c-0.111,0.041-0.222,0.083-0.333,0.124v0c-0.621-0.003-1.184,0.279-1.788,0.363c-0.149,0.068-0.298,0.136-0.446,0.204
			c-0.074,0-0.147-0.001-0.221-0.001c0.001-0.001,0.001-0.001,0.002-0.002c-0.091-0.005-0.173,0.013-0.226,0.098
			c-0.076,0.045-0.152,0.09-0.228,0.135c-0.052,0.028-0.104,0.057-0.157,0.085c-0.023-0.011-0.044-0.008-0.063,0.009
			c-0.787,0.19-1.471,0.631-2.219,0.918c0,0-0.006-0.012-0.006-0.012c-0.076,0.048-0.151,0.097-0.227,0.145
			c-0.189,0.132-0.378,0.263-0.567,0.395c0,0,0,0,0,0C9.918,5.23,9.845,5.271,9.772,5.312C9.73,5.338,9.688,5.364,9.647,5.391
			c0,0,0,0,0,0C9.577,5.406,9.508,5.422,9.438,5.437c-1.063,0.769-2.13,1.53-3.088,2.437C5.066,9.09,3.976,10.46,2.979,11.912
			c-0.015,0.069-0.03,0.139-0.045,0.208c0,0,0,0,0,0c-0.034,0.064-0.067,0.128-0.101,0.192c-0.034,0.049-0.068,0.099-0.102,0.148
			c-0.168,0.263-0.337,0.526-0.505,0.789c-0.319,0.74-0.718,1.446-0.938,2.228c0,0,0,0,0,0C1.194,15.699,1.1,15.92,1.005,16.141
			c0.005,0.04,0.011,0.079,0.016,0.119c0,0,0,0,0,0c-0.081,0.185-0.162,0.371-0.242,0.556c-0.101,0.602-0.357,1.17-0.378,1.789
			c0,0,0,0,0,0c-0.047,0.148-0.095,0.296-0.142,0.443c0.005,0.112,0.009,0.225,0.014,0.337c-0.035,0.074-0.071,0.148-0.106,0.222
			c0.022,0.562-0.178,1.11-0.102,1.675c0,0,0,0,0,0c-0.017,0.112-0.033,0.223-0.05,0.335c0.014,0.075,0.029,0.149,0.043,0.224
			c-0.016,0.077-0.033,0.153-0.049,0.23c0.014,0.483,0.029,0.965,0.043,1.448C0.034,23.631,0.017,23.742,0,23.853
			c0.017,0.075,0.034,0.15,0.051,0.225c-0.015,0.076-0.031,0.152-0.046,0.228c0.015,0.482,0.031,0.965,0.046,1.447l0,0
			C0.034,25.865,0.017,25.976,0,26.087c0.017,0.075,0.034,0.15,0.051,0.225c-0.015,0.076-0.031,0.152-0.046,0.228
			c0.015,0.482,0.031,0.965,0.046,1.447l0,0C0.034,28.099,0.017,28.21,0,28.321c0.017,0.075,0.034,0.15,0.051,0.225
			c-0.015,0.076-0.031,0.152-0.046,0.228c0.016,0.445,0.032,0.891,0.048,1.336c0.048,0.001,0.09-0.008,0.129-0.022
			c-0.039,0.014-0.081,0.022-0.129,0.022c-0.008,0.075-0.016,0.15-0.023,0.225c0.013,0.148,0.026,0.296,0.038,0.444
			c0.387-0.374,0.78-0.742,1.159-1.123c-0.38,0.381-0.773,0.749-1.159,1.123c-0.012,0.039-0.023,0.078-0.035,0.118
			c0.012,0.518,0.024,1.037,0.036,1.555c-0.012,0.039-0.024,0.078-0.036,0.117c0.016,0.111,0.032,0.222,0.048,0.333
			c0.188-0.019,0.302-0.142,0.411-0.267c-0.11,0.125-0.223,0.248-0.411,0.267c-0.007,0.073-0.014,0.146-0.021,0.22
			c0.155,0.372,0.154,0.799,0.4,1.138c0.127-0.108,0.259-0.209,0.384-0.319c-0.124,0.11-0.257,0.211-0.384,0.319
			c0.008,0.068,0.016,0.136,0.024,0.205c0.075,0.083,0.149,0.167,0.224,0.25c0.014-0.017,0.027-0.035,0.04-0.053
			c-0.013,0.018-0.026,0.036-0.04,0.053c-0.002,0.03-0.006,0.06-0.014,0.089c0.196,0.258,0.392,0.517,0.588,0.775
			c0.033,0.004,0.066,0.008,0.099,0.011c0,0,0,0,0,0c0.075,0.074,0.15,0.147,0.225,0.221c0.005,0.032,0.01,0.065,0.014,0.097
			c0.332,0.198,0.664,0.396,0.997,0.594c0.076,0.022,0.151,0.043,0.227,0.065c0.036-0.072,0.061-0.157,0.102-0.225
			c-0.041,0.068-0.065,0.152-0.102,0.225c0.04,0.035,0.08,0.069,0.12,0.103c0.073,0.004,0.146,0.008,0.219,0.012
			c0.431,0.159,0.884,0.2,1.336,0.244c0.075-0.015,0.15-0.031,0.225-0.046c0.031-0.061,0.051-0.132,0.085-0.189
			c-0.034,0.057-0.055,0.128-0.085,0.189c0.075,0.017,0.149,0.034,0.224,0.051c0.148-0.034,0.297-0.068,0.445-0.103
			c0.601,0.051,1.126-0.207,1.663-0.412c0.783-0.454,1.395-1.081,1.868-1.849c0.221-0.575,0.489-1.138,0.461-1.777h0
			c0.015-0.075,0.031-0.149,0.046-0.224c-0.011-0.148-0.023-0.296-0.034-0.444C7.9,33.626,6.382,35.13,4.868,36.638
			c1.514-1.508,3.032-3.012,4.549-4.517c0.011-0.039,0.023-0.078,0.034-0.117c-0.012-0.52-0.023-1.039-0.035-1.559
			c-1.054,1.024-2.102,2.055-3.141,3.094c1.039-1.039,2.087-2.07,3.141-3.094c0.012-0.038,0.024-0.076,0.035-0.114
			c-0.012-0.148-0.023-0.296-0.035-0.444c-1.071,1.065-2.143,2.13-3.213,3.195c1.071-1.065,2.142-2.13,3.213-3.195
			c0.012-0.039,0.023-0.078,0.035-0.118c-0.012-0.52-0.023-1.039-0.035-1.559c0.012-0.038,0.024-0.075,0.036-0.113
			c-0.012-0.147-0.023-0.293-0.035-0.44c0.012-0.041,0.023-0.081,0.035-0.122c-0.014-0.483-0.029-0.965-0.043-1.448
			c-0.119,0.005-0.203,0.063-0.278,0.134c-0.03,0.029-0.058,0.059-0.087,0.089c0.029-0.03,0.057-0.061,0.087-0.089
			c0.075-0.071,0.159-0.129,0.278-0.134c0.01-0.111,0.019-0.223,0.029-0.334c-0.038-0.075-0.076-0.149-0.114-0.224l0,0
			c0.004-0.075,0.008-0.149,0.012-0.224c-0.129-0.344-0.195-0.714-0.434-1.011c0,0,0,0,0,0c-0.012-0.071-0.025-0.142-0.037-0.214
			c-0.056-0.044-0.112-0.088-0.168-0.132c0,0,0,0,0,0c-0.019-0.066-0.039-0.132-0.058-0.198c-0.224-0.254-0.449-0.508-0.673-0.762
			L7.918,22.98c0,0-0.048,0.002-0.048,0.002c0,0,0,0,0,0c-0.111-0.08-0.223-0.161-0.334-0.241c-0.007-0.034-0.016-0.067-0.025-0.101
			c-0.325-0.159-0.649-0.318-0.974-0.477c-0.073-0.005-0.146-0.009-0.219-0.014c0,0,0,0,0,0c-0.131-0.113-0.295-0.082-0.448-0.102
			c0,0,0,0,0,0c-0.005-0.029-0.012-0.057-0.021-0.084c-0.404-0.017-0.808-0.034-1.212-0.051c-0.076,0.015-0.152,0.031-0.228,0.046
			l0,0c-0.076-0.018-0.151-0.036-0.227-0.054c-0.11,0.018-0.221,0.036-0.331,0.054l0,0c-0.272-0.006-0.545-0.027-0.816-0.013
			c-0.246,0.012-0.315-0.122-0.335-0.324c-0.336,0.132-0.555,0.397-0.784,0.651c0.229-0.254,0.448-0.52,0.784-0.651
			c0.016-0.075,0.031-0.149,0.047-0.224c-0.008-0.148-0.016-0.296-0.024-0.445c-0.15,0.135-0.306,0.266-0.451,0.406
			c0.145-0.141,0.3-0.271,0.451-0.406c0.018-0.076,0.036-0.152,0.054-0.229c0.055-0.52,0.11-1.04,0.165-1.56
			c-0.128,0.008-0.221,0.065-0.302,0.14c0.081-0.074,0.174-0.132,0.302-0.14c0.047-0.148,0.093-0.296,0.14-0.444
			c0-0.111,0-0.223,0.001-0.334c0,0,0,0,0,0c0.049-0.112,0.097-0.225,0.146-0.337c0.17-0.634,0.34-1.267,0.51-1.901
			c-0.032,0.001-0.062,0.005-0.09,0.011c-0.085,0.02-0.153,0.064-0.214,0.118c0.061-0.054,0.129-0.099,0.214-0.118
			c0.028-0.007,0.058-0.011,0.09-0.011c0.113-0.223,0.226-0.445,0.339-0.668c0.006-0.075,0.012-0.151,0.018-0.226c0,0,0,0,0,0
			c0.128-0.225,0.257-0.45,0.385-0.675c0.048-0.076,0.096-0.152,0.144-0.227L4.61,14.342c0.495-1.198,1.268-2.216,2.075-3.212
			c0.116-0.143,0.222-0.294,0.333-0.442c0,0,0,0,0,0c0.4-0.402,0.801-0.804,1.201-1.206C8.195,9.28,8.302,9.158,8.423,9.048
			C8.302,9.158,8.195,9.28,8.219,9.482C8.83,9.018,9.442,8.554,10.054,8.09c0.146-0.111,0.284-0.238,0.487-0.223
			c0.477-0.504,1.123-0.735,1.714-1.055c0.175-0.095,0.353-0.183,0.53-0.274c0,0,0,0,0,0c0.298-0.113,0.597-0.227,0.895-0.34
			c0,0,0,0,0,0c0.781-0.227,1.562-0.454,2.343-0.681c0,0,0,0,0,0c0.26-0.06,0.521-0.121,0.781-0.181c0,0,0,0,0,0
			c0.596-0.056,1.192-0.113,1.788-0.169c0,0,0,0,0,0c0.192,0.016,0.389,0.075,0.563-0.067c0.226-0.341,0.534-0.605,0.824-0.885
			c-0.29,0.281-0.598,0.544-0.824,0.885c0.595-0.005,1.19-0.01,1.785-0.015c0,0,0,0,0,0c0.149,0.001,0.298,0.003,0.448,0.004
			c0.072-0.082,0.144-0.165,0.216-0.247c-0.072,0.082-0.144,0.165-0.216,0.247c0.596-0.001,1.191-0.002,1.787-0.003c0,0,0,0,0,0
			c0.149,0.003,0.298,0.007,0.446,0.01c0.291-0.394,0.658-0.715,1.004-1.056c-0.346,0.341-0.713,0.663-1.004,1.056
			c0.55,0.17,1.117,0.074,1.675,0.11c0.005-0.04,0.015-0.078,0.026-0.113C25.31,5.128,25.3,5.165,25.295,5.206
			c0.128,0.138,0.293,0.096,0.45,0.092c1.04,0.236,2.081,0.473,3.121,0.71c0.306-0.435,0.704-0.784,1.082-1.151
			c-0.378,0.367-0.776,0.716-1.082,1.151c0.132,0.108,0.28,0.179,0.454,0.189c0,0,0,0,0,0c0.412,0.148,0.784,0.397,1.223,0.477
			c0.063-0.329,0.305-0.515,0.53-0.713c-0.226,0.198-0.468,0.384-0.53,0.713c0.114,0.065,0.227,0.129,0.341,0.194c0,0,0,0,0,0
			c0.372,0.191,0.743,0.381,1.115,0.572c0.026-0.047,0.052-0.093,0.08-0.139c-0.028,0.045-0.054,0.091-0.08,0.139
			c0.112,0.073,0.224,0.146,0.336,0.219l0,0c0.041,0.069,0.082,0.139,0.123,0.208c0.277,0.018,0.457,0.21,0.659,0.364
			c0.117,0.094,0.234,0.188,0.351,0.282c0.336,0.178,0.636,0.402,0.887,0.69c0.114,0.105,0.229,0.209,0.343,0.314
			c0.357,0.207,0.627,0.506,0.874,0.829c0.125,0.058,0.207,0.154,0.25,0.283c0.287,0.279,0.597,0.539,0.778,0.91
			c0.111,0.078,0.195,0.178,0.232,0.311c0.335,0.339,0.61,0.718,0.797,1.159c0.034,0.057,0.069,0.114,0.103,0.171
			c0.304,0.343,0.509,0.742,0.663,1.171c0.041,0.092,0.083,0.183,0.124,0.275c0.284,0.386,0.447,0.825,0.57,1.283
			c0.052,0.119,0.104,0.238,0.156,0.358c0.141,0.4,0.282,0.8,0.423,1.199c0,0,0,0,0,0c-0.006,0.041-0.012,0.081-0.018,0.121
			c0.027,0.042,0.054,0.083,0.081,0.125c0.021,0.112,0.042,0.225,0.063,0.337c0.091,0.408,0.181,0.815,0.272,1.223c0,0,0,0,0,0
			c-0.006,0.076-0.013,0.151-0.019,0.227c0.037,0.075,0.075,0.149,0.112,0.224c-0.007,0.075-0.014,0.151-0.021,0.226
			c0.051,0.446,0.101,0.893,0.152,1.339c0.642-0.631,1.283-1.264,1.928-1.892c-0.645,0.628-1.286,1.261-1.928,1.892
			c-0.011,0.037-0.022,0.075-0.033,0.112c0.014,0.111,0.028,0.223,0.043,0.334c0.202-0.017,0.31-0.166,0.43-0.295
			c-0.12,0.129-0.228,0.279-0.43,0.295c-0.048,0.075-0.095,0.151-0.143,0.226c0,0,0,0,0,0c-0.009-0.001-0.018-0.003-0.027-0.004
			c0.009,0.001,0.018,0.003,0.027,0.004c0.048-0.075,0.095-0.151,0.143-0.226c-0.014-0.111-0.029-0.223-0.043-0.334
			c-0.187,0.134-0.378,0.264-0.439,0.507c0,0,0,0,0,0c-0.073,0.017-0.147,0.035-0.22,0.052c-0.483-0.015-0.965-0.029-1.448-0.044
			c-0.076,0.016-0.152,0.031-0.228,0.047c-0.113-0.012-0.226-0.024-0.339-0.036c-0.11,0.024-0.22,0.048-0.33,0.072
			c-1.892,0.312-3.419,1.822-3.575,3.536c-0.04,0.111-0.08,0.222-0.12,0.333c0.009,0.148,0.018,0.295,0.026,0.443
			c-0.012,0.039-0.024,0.079-0.035,0.118c0.012,0.52,0.024,1.039,0.036,1.559c0,0,0,0,0,0c-0.012,0.038-0.024,0.076-0.036,0.113
			c0.012,0.148,0.023,0.296,0.035,0.444c-0.012,0.041-0.023,0.081-0.035,0.122c0.012,0.52,0.023,1.039,0.035,1.559
			c-0.012,0.038-0.024,0.076-0.036,0.114c0.012,0.148,0.023,0.296,0.035,0.444c0.151-0.138,0.307-0.27,0.451-0.414
			c-0.144,0.144-0.3,0.276-0.451,0.414c-0.012,0.039-0.023,0.078-0.035,0.118c0.012,0.52,0.024,1.039,0.036,1.559
			c0.547-0.541,1.095-1.081,1.642-1.621c-0.547,0.54-1.095,1.08-1.642,1.621c-0.012,0.038-0.024,0.076-0.036,0.114
			c0.016,0.111,0.032,0.222,0.048,0.333c0.189-0.019,0.303-0.143,0.412-0.268c-0.11,0.125-0.223,0.249-0.412,0.268
			c-0.007,0.072-0.013,0.145-0.02,0.217c0.162,0.367,0.148,0.797,0.398,1.134c0.009,0.071,0.018,0.143,0.027,0.214
			c0.074,0.082,0.149,0.164,0.223,0.245c0.089-0.105,0.172-0.216,0.262-0.32c-0.091,0.104-0.174,0.215-0.262,0.32
			c-0.002,0.031-0.006,0.061-0.014,0.091c0.196,0.257,0.392,0.515,0.588,0.772c0.072,0.042,0.144,0.085,0.216,0.127c0,0,0,0,0,0
			c0.037,0.035,0.074,0.071,0.111,0.106c0.104-0.002,0.186-0.038,0.257-0.089c-0.071,0.051-0.152,0.087-0.257,0.089
			c0.005,0.032,0.009,0.063,0.012,0.095c0.332,0.198,0.664,0.397,0.996,0.596c0.075,0.022,0.15,0.043,0.226,0.065c0,0,0,0,0,0
			c0.148,0.047,0.295,0.094,0.443,0.142c0,0,0,0,0,0c-0.7,1.173-1.763,1.961-2.867,2.706c-0.198,0.134-0.398,0.265-0.597,0.397
			c-0.071,0.013-0.142,0.027-0.213,0.04c-0.226,0.141-0.451,0.283-0.677,0.424c0,0,0,0,0,0c-0.074,0.038-0.149,0.076-0.223,0.114
			l0,0l0,0c-0.684,0.199-1.302,0.59-2.018,0.696c-0.316,0.156-0.64,0.288-0.999,0.302c-0.453,0.121-0.906,0.241-1.359,0.362
			c0.217,0.542,0.279,1.107,0.261,1.685c0.478-0.089,0.955-0.179,1.433-0.268c0.149-0.067,0.297-0.134,0.446-0.201
			c0-0.029,0.002-0.057,0.007-0.083c-0.005,0.026-0.008,0.053-0.007,0.083c0.075,0.002,0.151,0.004,0.226,0.007
			c0.185-0.082,0.37-0.165,0.556-0.247c0.745-0.168,1.409-0.554,2.126-0.795c0.223-0.138,0.446-0.275,0.668-0.413c0,0,0,0,0,0
			c0.074-0.04,0.149-0.08,0.223-0.119c0,0,0,0,0,0.001c0.069-0.012,0.139-0.024,0.208-0.037c1.899-1.175,3.612-2.551,4.817-4.474
			c0.677-0.025,1.293-0.268,1.901-0.534c0.715-0.462,1.294-1.056,1.74-1.781c0.224-0.575,0.489-1.139,0.464-1.779
			c0.015-0.075,0.031-0.15,0.046-0.225c-0.012-0.148-0.023-0.296-0.035-0.445c-0.045,0.033-0.095,0.06-0.134,0.099
			c0.039-0.039,0.089-0.066,0.134-0.099c0.011-0.039,0.023-0.078,0.034-0.117c-0.012-0.518-0.024-1.037-0.035-1.555c0,0,0,0,0,0
			c0.023-0.112,0.046-0.224,0.069-0.336c-0.017-0.075-0.034-0.15-0.052-0.225c0.015-0.076,0.031-0.152,0.046-0.228
			c-0.015-0.482-0.031-0.965-0.046-1.447c0.018-0.11,0.036-0.22,0.054-0.33C42.982,27.805,42.964,27.729,42.946,27.653z M0.8,34.592
			c0.027-0.037,0.054-0.074,0.083-0.109C0.854,34.518,0.827,34.555,0.8,34.592z M6.296,22.275c-0.032,0.097-0.097,0.176-0.17,0.251
			C6.199,22.451,6.265,22.373,6.296,22.275z M5.692,22.409c0.056-0.057,0.107-0.119,0.139-0.192
			C5.799,22.29,5.749,22.351,5.692,22.409z M5.688,22.414c-0.019,0.02-0.039,0.039-0.06,0.057
			C5.648,22.452,5.668,22.433,5.688,22.414z M2.622,18.773c-0.431,0.421-0.861,0.843-1.291,1.265
			C1.761,19.615,2.191,19.193,2.622,18.773z M16.811,5.245c0.027-0.142,0.124-0.238,0.225-0.333
			C16.936,5.007,16.839,5.103,16.811,5.245z M22.588,3.831c-0.172,0.167-0.344,0.334-0.512,0.505
			C22.244,4.165,22.416,3.998,22.588,3.831z M25.534,4.772c0,0-0.001,0.001-0.001,0.001C25.533,4.773,25.534,4.772,25.534,4.772z
			 M25.537,4.77c0.029-0.028,0.058-0.055,0.089-0.082C25.595,4.715,25.565,4.742,25.537,4.77z M30.899,6.77
			c-0.003,0.012-0.004,0.025-0.006,0.038C30.895,6.795,30.895,6.782,30.899,6.77z M32.452,6.798
			c-0.069,0.078-0.135,0.158-0.197,0.242C32.317,6.957,32.383,6.876,32.452,6.798z M30.003,42.856
			c0.004-0.016,0.008-0.033,0.015-0.048C30.011,42.823,30.007,42.839,30.003,42.856z M36.934,36.413
			c1.001-0.999,2.003-1.996,3.006-2.993C38.937,34.417,37.934,35.414,36.934,36.413z"/>
		<path fill="#FBCE65" d="M10.558,4.794c0.076-0.048,0.151-0.097,0.227-0.145C10.676,4.645,10.585,4.67,10.558,4.794z"/>
		<path fill="#FBCE65" d="M4.622,14.349c-0.048,0.076-0.096,0.152-0.144,0.227C4.603,14.549,4.626,14.458,4.622,14.349z"/>
	</g>
</g>
</svg>
