<?xml version="1.0" encoding="utf-8"?>
<!-- Generator: Adobe Illustrator 17.0.0, SVG Export Plug-In . SVG Version: 6.00 Build 0)  -->
<!DOCTYPE svg PUBLIC "-//W3C//DTD SVG 1.1//EN" "http://www.w3.org/Graphics/SVG/1.1/DTD/svg11.dtd">
<svg version="1.1" id="Layer_1" xmlns="http://www.w3.org/2000/svg" xmlns:xlink="http://www.w3.org/1999/xlink" x="0px" y="0px"
	 width="43px" height="48px" viewBox="0 0 43 48" enable-background="new 0 0 43 48" xml:space="preserve">
<g>
	<path fill="#FF6243" d="M33.259,29.03c-0.077-0.111-0.153-0.222-0.23-0.333c-0.156-0.248-0.313-0.496-0.469-0.744
		c-0.085-0.063-0.137-0.148-0.166-0.249c-0.152-0.203-0.305-0.407-0.457-0.61c0,0,0,0,0,0c-0.013-0.051-0.026-0.102-0.039-0.153
		c-0.055-0.057-0.111-0.114-0.166-0.171c0,0,0,0,0,0c0.003-0.027,0.002-0.054-0.003-0.081c-0.151-0.202-0.301-0.403-0.452-0.605
		c-0.014-0.051-0.028-0.102-0.043-0.154c-0.056-0.056-0.112-0.113-0.167-0.169c0.001-0.027,0.001-0.055,0-0.082
		c-0.169-0.199-0.317-0.411-0.424-0.649c-0.025-0.008-0.051-0.017-0.076-0.025h0c-0.031-0.1-0.075-0.191-0.163-0.254
		c0-0.028,0-0.056,0-0.084c-0.173-0.198-0.32-0.414-0.429-0.654c-0.024-0.007-0.048-0.014-0.072-0.02l0,0
		c-0.054-0.085-0.109-0.169-0.163-0.254c0,0,0,0,0,0c-0.002-0.027-0.001-0.054,0-0.08c-0.166-0.226-0.331-0.451-0.497-0.677
		c-0.013-0.051-0.026-0.102-0.039-0.153c-0.043-0.033-0.085-0.067-0.128-0.1c-0.003-0.027-0.004-0.054-0.002-0.081
		c-0.165-0.226-0.33-0.452-0.495-0.678c-0.116,0.098-0.24,0.188-0.347,0.295c0.107-0.107,0.231-0.197,0.347-0.295
		c-0.012-0.051-0.023-0.103-0.035-0.154c-0.043-0.034-0.086-0.068-0.129-0.101c0,0,0,0,0,0c-0.006-0.024-0.007-0.048-0.004-0.072
		c-0.164-0.229-0.327-0.457-0.491-0.686c-0.006,0.002-0.012,0.005-0.018,0.008c0.006-0.003,0.011-0.006,0.017-0.008
		c-0.014-0.05-0.027-0.1-0.041-0.151c-0.035-0.028-0.069-0.056-0.104-0.084c-0.022-0.055-0.044-0.111-0.067-0.166
		c-0.168-0.201-0.319-0.413-0.425-0.654c-0.024-0.007-0.048-0.014-0.072-0.021c-0.034-0.056-0.067-0.112-0.101-0.167
		c-0.125,0.009-0.207,0.081-0.28,0.162c0.074-0.081,0.155-0.153,0.28-0.162c-0.022-0.056-0.044-0.112-0.066-0.168
		c-0.169-0.202-0.322-0.414-0.427-0.658c-0.024-0.008-0.048-0.016-0.073-0.023c-0.033-0.053-0.066-0.106-0.099-0.158
		c-0.022-0.056-0.043-0.112-0.065-0.169c-0.144-0.222-0.288-0.444-0.432-0.666c-0.023-0.008-0.047-0.016-0.071-0.022
		c-0.087,0.106-0.178,0.208-0.27,0.31c0.092-0.101,0.182-0.204,0.27-0.31c-0.02-0.108-0.079-0.19-0.169-0.251
		c0.001-0.023,0.004-0.046,0.008-0.069c-0.145-0.225-0.289-0.45-0.434-0.675c-0.025-0.007-0.049-0.015-0.073-0.023
		c-0.702,0.779-1.44,1.522-2.195,2.248c0.755-0.726,1.493-1.469,2.195-2.248c-0.021-0.106-0.082-0.187-0.167-0.25
		c-0.361,0.412-0.741,0.805-1.128,1.192c0.387-0.386,0.767-0.779,1.128-1.192c0.002-0.02,0.005-0.04,0.01-0.06
		c-0.144-0.197-0.287-0.393-0.431-0.59c-0.048,0-0.09,0.01-0.128,0.027c0.038-0.016,0.08-0.026,0.128-0.027
		c-0.014-0.051-0.027-0.102-0.041-0.152c-0.054-0.059-0.108-0.119-0.163-0.178c-0.597,0.59-1.193,1.181-1.791,1.769
		c0.598-0.588,1.194-1.179,1.791-1.769c0.006-0.024,0.005-0.048-0.001-0.072c-0.196-0.235-0.371-0.484-0.497-0.764
		c-0.089-0.061-0.142-0.146-0.168-0.25c-0.205-0.227-0.361-0.486-0.495-0.76c-0.056-0.084-0.113-0.167-0.169-0.251
		c-0.169-0.199-0.317-0.412-0.425-0.651c-0.115-0.097-0.182-0.225-0.238-0.36c-0.055-0.058-0.111-0.116-0.166-0.174
		c-0.011,0.197-0.022,0.394-0.033,0.59c0.002,0.114,0.003,0.228,0.005,0.343c-0.001,0.446-0.003,0.892-0.003,1.338
		c0.001,0.113,0.003,0.226,0.004,0.34c-0.001,0.447-0.003,0.893-0.004,1.34c0.001,0.113,0.003,0.226,0.004,0.34
		c0.008,0.336,0.015,0.671,0.022,1.007c-0.009,0.111-0.018,0.222-0.026,0.334c0.009,0.057,0.018,0.114,0.026,0.171
		c-0.007,0.056-0.015,0.112-0.022,0.168c0.008,0.336,0.015,0.671,0.022,1.007c-0.009,0.111-0.018,0.222-0.026,0.333
		c0.009,0.057,0.018,0.114,0.026,0.171c-0.007,0.056-0.015,0.112-0.022,0.168c0.008,0.336,0.015,0.671,0.022,1.007
		c-0.009,0.111-0.018,0.222-0.026,0.333c0.009,0.057,0.018,0.114,0.026,0.171c-0.007,0.056-0.015,0.112-0.022,0.168
		c0.008,0.336,0.015,0.671,0.022,1.007c0,0,0,0,0,0c-0.009,0.111-0.018,0.222-0.026,0.333c0.009,0.057,0.018,0.114,0.026,0.171
		c-0.007,0.056-0.015,0.112-0.022,0.168c0.008,0.336,0.015,0.671,0.022,1.007c0,0,0,0,0,0c-0.009,0.111-0.018,0.222-0.026,0.333
		c0.009,0.057,0.018,0.114,0.026,0.171c-0.007,0.056-0.015,0.112-0.022,0.168c0.008,0.336,0.015,0.671,0.022,1.007
		c0,0.084-0.001,0.168-0.001,0.252c0.055,0.001,0.11,0.002,0.166,0.003c0.054-0.002,0.101-0.016,0.143-0.036
		c-0.042,0.021-0.088,0.034-0.143,0.036c0.004,0.025,0.007,0.051,0.009,0.076c0.341,0.021,0.585,0.232,0.835,0.43
		c0.027-0.001,0.054,0.001,0.08,0.004c0.056,0.053,0.111,0.107,0.167,0.16c0,0,0,0,0,0c0.004,0.027,0.007,0.053,0.009,0.08
		c0.247,0.129,0.309,0.417,0.506,0.589c0.004,0.054,0.008,0.108,0.012,0.162c0.051,0.058,0.102,0.116,0.153,0.174
		c0.23-0.224,0.462-0.446,0.693-0.669c-0.231,0.223-0.463,0.445-0.693,0.669c-0.002,0.029-0.004,0.058-0.007,0.086
		c0.138,0.292,0.177,0.604,0.186,0.922c-0.007,0.083-0.015,0.167-0.023,0.25c0.004,0.084,0.007,0.169,0.011,0.253
		c-0.028,0.056-0.057,0.112-0.085,0.168c-0.16,0.995-1.032,1.908-2.013,2.107c-0.14,0.051-0.28,0.103-0.421,0.154c0,0,0,0,0,0
		c-0.029-0.008-0.058-0.015-0.088-0.023c-0.111,0.01-0.222,0.02-0.333,0.03v0c-0.28-0.06-0.559-0.12-0.839-0.18
		c-0.056-0.02-0.113-0.04-0.169-0.061c0,0,0,0,0,0c-0.056-0.033-0.111-0.066-0.167-0.1c-0.028,0.002-0.056,0.003-0.085,0.005l0,0
		c-0.231-0.19-0.523-0.308-0.681-0.584c-0.025-0.001-0.05-0.002-0.075-0.002c0,0.006-0.002,0.01-0.002,0.016
		c0-0.005,0.002-0.01,0.002-0.016c-0.029-0.029-0.057-0.059-0.086-0.088c-0.067,0-0.12,0.02-0.167,0.051
		c0.047-0.03,0.1-0.051,0.167-0.051c-0.027-0.056-0.055-0.112-0.082-0.167c-0.137-0.197-0.273-0.394-0.41-0.591
		c-0.024,0-0.047,0.003-0.068,0.007c0.021-0.005,0.044-0.007,0.068-0.007c-0.005-0.082-0.009-0.165-0.014-0.247
		c-0.03-0.056-0.061-0.113-0.091-0.169c-0.859,0.849-1.719,1.698-2.575,2.551c0.855-0.853,1.715-1.701,2.575-2.551
		c0.004-0.028,0.008-0.056,0.012-0.084c-0.161-0.324-0.049-0.673-0.091-1.008c0,0,0,0,0,0c0.033-0.111,0.066-0.223,0.1-0.334
		c-0.001-0.055-0.003-0.11-0.004-0.165c0,0,0,0,0,0l0,0c0,0,0,0,0,0c0,0,0,0,0,0l-0.002,0c-0.001-0.07,0.012-0.133,0.08-0.171
		c0.405-0.836,0.997-1.455,1.935-1.677c0.009-0.028,0.017-0.055,0.026-0.083c-0.001-0.114-0.002-0.229-0.002-0.343
		c-0.008-0.335-0.015-0.67-0.023-1.005c-0.015,0-0.028,0.002-0.041,0.004c0.013-0.002,0.026-0.004,0.041-0.004
		c0.009-0.111,0.018-0.222,0.027-0.333c-0.009-0.057-0.018-0.114-0.027-0.171c0,0,0,0,0,0c0.007-0.057,0.015-0.114,0.022-0.171
		c-0.008-0.335-0.015-0.67-0.023-1.005c-0.018,0-0.035,0.001-0.051,0.003c0.016-0.003,0.033-0.004,0.051-0.003
		c0.009-0.111,0.018-0.222,0.027-0.333c-0.009-0.057-0.018-0.114-0.027-0.171c0,0,0,0,0,0c0.007-0.057,0.015-0.114,0.022-0.171
		c-0.008-0.335-0.015-0.67-0.023-1.005c-0.025,0-0.047,0.003-0.069,0.008c0.022-0.005,0.044-0.008,0.069-0.008
		c0.009-0.111,0.018-0.222,0.027-0.333c-0.009-0.057-0.018-0.114-0.027-0.171c0,0,0,0,0,0c0.007-0.057,0.015-0.114,0.022-0.171
		c-0.008-0.335-0.015-0.67-0.023-1.005c-0.024-0.001-0.045,0.002-0.066,0.007c0.021-0.005,0.042-0.008,0.066-0.007
		c0.009-0.111,0.018-0.222,0.027-0.333c-0.009-0.057-0.018-0.114-0.027-0.171c0,0,0,0,0,0c0.007-0.057,0.015-0.114,0.022-0.171
		c-0.008-0.335-0.015-0.67-0.023-1.005c0.009-0.111,0.018-0.221,0.027-0.332c-0.009-0.057-0.018-0.114-0.027-0.172c0,0,0,0,0,0
		c0.007-0.057,0.015-0.114,0.022-0.171c-0.008-0.335-0.015-0.67-0.023-1.005c0.009-0.111,0.018-0.221,0.027-0.332
		c-0.009-0.057-0.018-0.114-0.027-0.172c0,0,0,0,0,0c0.007-0.057,0.015-0.114,0.022-0.171c-0.008-0.335-0.015-0.67-0.023-1.005
		c0,0,0,0,0,0c0.009-0.111,0.018-0.221,0.027-0.332c-0.009-0.057-0.018-0.114-0.026-0.172c0,0,0,0,0,0
		c0.007-0.057,0.015-0.114,0.022-0.17c0.001-0.446,0.003-0.892,0.004-1.338c-0.008-0.113-0.016-0.226-0.024-0.339
		c-0.028,0-0.056,0.001-0.083,0.002c-0.273,0.394-0.546,0.789-0.819,1.183c-0.222,0.407-0.476,0.794-0.756,1.164
		c-0.077,0.131-0.149,0.265-0.231,0.393c-0.471,0.735-0.944,1.469-1.416,2.203h0c-0.262,0.371-0.525,0.742-0.787,1.112
		c-0.014,0.051-0.027,0.102-0.04,0.152c-0.023,0.033-0.046,0.067-0.068,0.1c-0.003,0.032-0.009,0.061-0.022,0.087
		c0.013-0.026,0.019-0.056,0.022-0.087c-0.033,0.051-0.065,0.103-0.098,0.154c-0.183,0.251-0.366,0.503-0.549,0.754
		c-0.55,0.866-1.099,1.733-1.649,2.599c0.123,0.011,0.207-0.041,0.279-0.11c-0.072,0.069-0.156,0.121-0.279,0.11
		c-0.262,0.37-0.525,0.74-0.787,1.11c-0.014,0.051-0.027,0.102-0.041,0.153c0.054,0.002,0.1-0.008,0.142-0.025
		c-0.041,0.018-0.088,0.027-0.142,0.025c-0.022,0.033-0.045,0.066-0.067,0.099c-0.004,0.043-0.013,0.082-0.037,0.112
		c0.024-0.03,0.033-0.07,0.037-0.112c-0.033,0.052-0.066,0.103-0.099,0.155c-0.184,0.252-0.367,0.504-0.551,0.756
		c-0.549,0.866-1.098,1.732-1.646,2.598c-0.262,0.37-0.525,0.74-0.787,1.11c-0.014,0.051-0.027,0.102-0.041,0.153c0,0,0,0,0,0
		c-0.022,0.033-0.045,0.065-0.067,0.098c-0.007,0.068-0.026,0.128-0.099,0.155c-0.184,0.252-0.367,0.504-0.55,0.756
		C9.391,29.59,9.36,29.75,9.712,29.715c0.149-0.015,0.301,0.007,0.452,0.012c0.057-0.01,0.113-0.019,0.17-0.029
		c0.057,0.011,0.114,0.023,0.17,0.034c0.084-0.011,0.167-0.023,0.251-0.034c0.363,0.011,0.725,0.022,1.088,0.033
		c0.057-0.008,0.113-0.016,0.17-0.024c0.036-0.042,0.07-0.086,0.105-0.13c-0.035,0.043-0.069,0.087-0.105,0.13
		c0.057,0.025,0.113,0.051,0.17,0.076c0.083-0.004,0.166-0.007,0.249-0.011c0.283,0.084,0.587,0.1,0.847,0.258
		c0.027-0.003,0.055-0.006,0.082-0.01c0.866-0.87,1.73-1.74,2.596-2.61c-0.865,0.87-1.73,1.741-2.596,2.611
		c0.054,0.036,0.109,0.073,0.163,0.109c0.054,0.004,0.107,0.008,0.161,0.011c0.225,0.143,0.451,0.285,0.676,0.428
		c0.02-0.005,0.041-0.008,0.062-0.009c0.095-0.081,0.194-0.158,0.287-0.241c-0.093,0.083-0.192,0.16-0.287,0.241
		c0.066,0.072,0.132,0.144,0.198,0.215c0.05,0.019,0.1,0.038,0.15,0.056c0.17,0.188,0.341,0.376,0.511,0.564
		c0.025,0.005,0.05,0.01,0.074,0.016c0,0,0,0,0,0c0.036,0.047,0.072,0.094,0.108,0.142c0.026,0.056,0.051,0.112,0.077,0.169
		c0.201,0.217,0.346,0.467,0.443,0.746c0.02,0.001,0.04,0.004,0.059,0.01c0.025-0.055,0.039-0.121,0.068-0.173
		c-0.028,0.052-0.043,0.117-0.068,0.173c0,0.07,0.02,0.13,0.08,0.17c-0.004,0.028-0.008,0.056-0.011,0.083
		c0.155,0.259,0.184,0.561,0.286,0.839c-0.001,0.083-0.001,0.165-0.002,0.248c0.025,0.057,0.051,0.113,0.076,0.17
		c-0.008,0.029-0.016,0.058-0.025,0.087c0.017,0.336,0.033,0.671,0.05,1.007c0.013,0,0.025,0.001,0.037,0c-0.012,0-0.025,0-0.037,0
		c-0.014,0.111-0.027,0.223-0.041,0.334c0.013,0.056,0.026,0.112,0.039,0.169c-0.012,0.056-0.024,0.113-0.035,0.169
		c0.012,0.336,0.025,0.671,0.037,1.007c0.022,0.003,0.044,0.003,0.064,0.002c-0.02,0.001-0.041,0.001-0.064-0.002
		c-0.014,0.111-0.027,0.223-0.041,0.334c0.013,0.056,0.026,0.112,0.039,0.169c-0.012,0.056-0.024,0.113-0.035,0.169
		c0.014,0.052,0.028,0.103,0.042,0.155c0.044-0.005,0.089-0.009,0.134-0.014c0.356-0.125,0.724-0.023,1.085-0.061
		c0.002-0.12,0.071-0.197,0.146-0.269c-0.075,0.072-0.144,0.149-0.146,0.269c0.114,0,0.227,0,0.341,0c0.446,0,0.892,0,1.338,0
		c0.002-0.105,0.055-0.177,0.119-0.242c-0.064,0.065-0.117,0.137-0.119,0.242c0.114,0,0.228,0,0.341,0c0,0,0,0,0,0
		c0.446,0,0.892,0,1.338,0c0.114,0,0.228,0,0.341,0c0,0,0,0,0,0c0.446,0,0.892,0,1.338,0c0.002-0.104,0.055-0.177,0.119-0.241
		c-0.063,0.065-0.116,0.137-0.119,0.241c0.114,0,0.228,0,0.341,0c0.446,0,0.892,0,1.338,0c0.114,0,0.228,0,0.342,0
		c0.579-0.041,1.166,0.102,1.738-0.083c0.01-0.055,0.019-0.11,0.029-0.165c-0.001-0.113-0.003-0.225-0.004-0.338
		c-0.013-0.336-0.025-0.672-0.038-1.008c0,0,0,0,0,0c0.014-0.111,0.028-0.223,0.042-0.335c-0.013-0.056-0.026-0.113-0.04-0.169
		c0.012-0.056,0.024-0.112,0.036-0.169c-0.005-0.391-0.011-0.781-0.016-1.172c0.015-0.056,0.031-0.113,0.046-0.169
		c-0.006-0.057-0.012-0.114-0.018-0.171c0.041-0.113,0.082-0.227,0.124-0.34c0.102-0.658,0.447-1.206,0.786-1.758
		c0.255-0.27,0.511-0.54,0.766-0.809c-0.022-0.138,0.051-0.224,0.133-0.304c-0.083,0.079-0.155,0.165-0.133,0.304
		c0.618-0.423,1.237-0.844,2.004-0.953c0.131-0.081,0.273-0.097,0.422-0.078c0.441-0.126,0.891-0.09,1.34-0.072
		c0.141,0.002,0.283,0.003,0.424,0.005c0.391-0.004,0.782-0.007,1.172-0.011c0.017-0.015,0.037-0.022,0.06-0.021
		C33.523,29.476,33.391,29.253,33.259,29.03z M28.359,21.743c-0.019,0.009-0.037,0.02-0.051,0.034
		C28.322,21.763,28.34,21.753,28.359,21.743z M24.486,15.962c-0.02,0.009-0.039,0.021-0.056,0.033
		C24.447,15.983,24.466,15.972,24.486,15.962z M22.361,24.312c0.045-0.016,0.083-0.041,0.119-0.07
		C22.445,24.272,22.406,24.296,22.361,24.312z M20.621,14.787c-0.038,0.017-0.071,0.041-0.102,0.068
		C20.55,14.827,20.583,14.804,20.621,14.787z M21.758,32.092c0.038-0.046,0.069-0.096,0.078-0.159
		C21.827,31.996,21.796,32.046,21.758,32.092z M27.658,21.153c0.063-0.066,0.129-0.13,0.212-0.172
		C27.787,21.023,27.721,21.086,27.658,21.153z"/>
	<g>
		<path fill="#FE3401" d="M18.647,3.255c1.903,0,3.807,0,5.71,0c0.01,0.045,0.02,0.091,0.03,0.136
			c-0.004,0.106-0.007,0.212-0.011,0.318c0.001,0.158,0.002,0.315,0.003,0.473C24.381,4.59,24.381,5,24.382,5.409
			c-0.006,0.57-0.013,1.14-0.019,1.71c0.006,0.14,0.012,0.28,0.018,0.421c-0.001,0.419-0.003,0.837-0.004,1.256
			c-0.004,0.123-0.067,0.185-0.189,0.189c-0.447,0.002-0.893,0.003-1.34,0.005c-0.113,0-0.227,0.001-0.34,0.001
			c-0.447,0-0.893,0-1.34,0.001c-0.113-0.002-0.226-0.004-0.34-0.006c-0.447,0.001-0.893,0.003-1.34,0.004
			c-0.113-0.001-0.226-0.003-0.339-0.004c-0.408,0.06-0.583-0.113-0.524-0.522c-0.001-0.141-0.003-0.282-0.004-0.423
			c0.001-0.383,0.001-0.767,0.002-1.15c0-0.491,0-0.982,0.001-1.473c0-0.246,0-0.491-0.001-0.737
			c0.001-0.447,0.003-0.894,0.004-1.341C18.634,3.311,18.641,3.283,18.647,3.255z"/>
		<path fill="#FE3401" d="M41.741,23.984c0.42,0.004,0.839,0.008,1.259,0.012c0,1.903,0,3.807,0,5.71
			c-0.028,0.006-0.056,0.012-0.084,0.018c-0.167,0.002-0.335,0.003-0.502,0.005c-0.113-0.001-0.226-0.002-0.339-0.003
			c-0.447,0.001-0.893,0.003-1.34,0.004c-0.113-0.001-0.226-0.003-0.339-0.004c-0.447,0.001-0.893,0.003-1.34,0.004
			c-0.113-0.001-0.226-0.003-0.339-0.004c-0.387-0.004-0.774-0.021-1.161-0.008c-0.212,0.007-0.296-0.049-0.287-0.275
			c0.013-0.331-0.007-0.663-0.013-0.994c-0.002-0.114-0.003-0.228-0.005-0.342c0.002-0.446,0.003-0.892,0.005-1.338
			c-0.002-0.114-0.003-0.228-0.005-0.342c0.002-0.446,0.005-0.891,0.007-1.337c-0.002-0.143-0.003-0.285-0.005-0.428
			c0.052-0.643,0.052-0.643,0.707-0.683c0.141,0.001,0.281,0.002,0.422,0.004c0.333,0.002,0.667,0.003,1,0.005
			c0.483-0.002,0.966-0.003,1.449-0.005c0.163-0.001,0.325-0.002,0.488-0.004C41.46,23.982,41.601,23.983,41.741,23.984z"/>
		<path fill="#F2C19D" d="M4.458,8.518C3.937,8.813,3.382,8.988,2.778,8.987C2.665,8.981,2.553,8.974,2.44,8.968
			c-0.335-0.115-0.67-0.23-1.005-0.346c-0.083-0.057-0.167-0.113-0.25-0.17C0.262,7.673-0.191,6.71,0.083,5.493
			c0.252-1.121,0.969-1.819,2.059-2.148c0.075-0.023,0.173,0.009,0.215-0.091c0.364,0,0.728,0,1.092,0
			c0.677,0.259,1.314,0.576,1.763,1.176c0.057,0.084,0.114,0.168,0.171,0.251c0.106,0.25,0.212,0.5,0.318,0.75
			c0.011,0.476,0.071,0.954-0.06,1.424C5.521,7.138,5.4,7.419,5.28,7.7C5.033,8,4.763,8.277,4.458,8.518z"/>
		<path fill="#F2C19D" d="M42.294,8.028c-0.077,0.078-0.154,0.155-0.231,0.233c-0.313,0.223-0.639,0.423-0.992,0.578
			c-0.44,0.127-0.892,0.14-1.346,0.134c-0.113-0.027-0.225-0.054-0.338-0.081c-0.278-0.12-0.556-0.24-0.834-0.361
			c-0.081-0.061-0.161-0.122-0.242-0.182c-0.175-0.186-0.35-0.373-0.525-0.559c-0.077-0.122-0.153-0.243-0.23-0.365
			c-0.065-0.189-0.129-0.379-0.194-0.568c-0.131-0.47-0.069-0.949-0.06-1.425c0.254-0.651,0.603-1.236,1.166-1.672
			c0.363-0.169,0.725-0.337,1.088-0.506c0.364,0,0.728,0,1.092,0c0.596,0.215,1.168,0.455,1.615,0.942
			C42.64,4.608,42.794,5.116,43,5.606c0,0.392,0,0.784,0,1.176c-0.215,0.262-0.265,0.605-0.434,0.89
			C42.476,7.79,42.385,7.909,42.294,8.028z"/>
		<path fill="#E8EAEF" d="M42.916,29.725c0.028-0.006,0.056-0.012,0.084-0.018c0,0.028,0,0.056,0,0.084
			C42.972,29.769,42.944,29.747,42.916,29.725z"/>
		<path fill="#E8EAEF" d="M18.628,3.339c-0.021-0.028-0.043-0.056-0.064-0.084c0.028,0,0.056,0,0.084,0
			C18.641,3.283,18.634,3.311,18.628,3.339z"/>
		<path fill="#FF6243" d="M17.212,41.173c-0.163-0.009-0.328-0.032-0.49-0.023c-0.211,0.012-0.256-0.105-0.259-0.275
			c-0.003-0.14-0.005-0.281-0.008-0.421c0.003-0.42,0.005-0.839,0.008-1.259c-0.003-0.14-0.005-0.281-0.008-0.421
			c0.016-0.396,0.031-0.791,0.046-1.187c0.044-0.005,0.089-0.009,0.134-0.014c0.293,0.006,0.585,0.018,0.878,0.018
			c3,0.004,6,0.005,9,0.007c0.009,0.308,0.018,0.616,0.027,0.924c0.003,0.14,0.005,0.28,0.008,0.421
			c-0.003,0.42-0.005,0.839-0.008,1.259c0.003,0.14,0.005,0.28,0.008,0.421c0.046,0.381-0.103,0.585-0.506,0.56
			c-0.323-0.045-0.648-0.108-0.965,0.032c-2.386,0.001-4.771,0.003-7.157,0.004c-0.083-0.078-0.177-0.08-0.276-0.036
			C17.502,41.129,17.358,41.133,17.212,41.173z"/>
		<path fill="#FE3401" d="M5.751,29.542c-0.007,0.128-0.081,0.184-0.202,0.189c-0.141-0.001-0.282-0.003-0.423-0.004
			c-0.447,0.001-0.894,0.003-1.34,0.004c-0.113-0.001-0.226-0.003-0.339-0.004c-0.419,0.001-0.838,0.003-1.256,0.004
			c-0.141-0.001-0.282-0.003-0.423-0.004c-0.489-0.005-0.977-0.015-1.466-0.01C0.107,29.718-0.001,29.697,0,29.453
			c0.01-1.732,0.008-3.465,0.002-5.197c-0.001-0.196,0.05-0.274,0.257-0.264c0.25,0.013,0.502-0.006,0.753-0.011
			c0.141,0.001,0.282,0.002,0.423,0.004c0.25,0.002,0.499,0.003,0.749,0.005c0.478,0.001,0.957,0.001,1.435,0.002
			c0.251-0.004,0.502-0.007,0.752-0.011c0.141,0.001,0.281,0.002,0.422,0.004c0.306,0.005,0.612,0.01,0.918,0.014
			c0.014,0.14,0.028,0.281,0.042,0.421c-0.002,0.446-0.003,0.892-0.005,1.338c0.002,0.114,0.003,0.228,0.005,0.342
			c-0.002,0.446-0.003,0.892-0.005,1.338c0.002,0.114,0.003,0.228,0.005,0.341c-0.002,0.446-0.004,0.892-0.005,1.338
			C5.748,29.258,5.75,29.4,5.751,29.542z"/>
		<path fill="#FE3401" d="M17.921,41.22c2.386-0.001,4.771-0.003,7.157-0.004c0.012,0.278,0.025,0.557,0.037,0.835
			c-0.001,0.42-0.003,0.84-0.004,1.26c0.002,0.14,0.003,0.28,0.005,0.42c-0.007,0.055-0.019,0.11-0.021,0.166
			c-0.027,0.842-0.027,0.842-0.853,0.842c-1.981,0-3.963-0.007-5.944,0.008c-0.313,0.002-0.41-0.076-0.396-0.392
			c0.023-0.515-0.003-1.031-0.009-1.547c-0.002-0.14-0.003-0.28-0.005-0.42C17.899,41.997,17.91,41.609,17.921,41.22z"/>
		<path fill="#FF6243" d="M9.922,5.381c0.443,0.05,0.887,0.064,1.329-0.011c0.115,0.057,0.232,0.056,0.35,0.011
			c0.443,0.05,0.887,0.064,1.329-0.011c0.115,0.057,0.232,0.056,0.35,0.011c0.415,0.052,0.83,0.055,1.244-0.003
			c0.145,0.058,0.291,0.056,0.438,0.009c0.443,0.037,0.885,0.062,1.326-0.016c0.115,0.057,0.232,0.056,0.35,0.011
			c0.415,0.052,0.83,0.055,1.244-0.003c0.243,0.079,0.493,0.037,0.74,0.038c0,0.491,0,0.982-0.001,1.473
			c-0.104-0.008-0.208-0.015-0.312-0.023C18.2,6.864,18.089,6.862,17.978,6.86c-0.167-0.005-0.334-0.011-0.502-0.015
			c-0.303-0.007-0.604-0.06-0.678,0.389c-0.038,0.231-0.306,0.302-0.519,0.377c-0.222,0.078-0.442,0.162-0.663,0.244
			c-0.206,0.027-0.398,0.098-0.581,0.193c-0.294,0.023-0.569-0.013-0.775-0.256c-0.05-0.085-0.1-0.171-0.15-0.256
			c-0.024-0.227,0.051-0.437,0.13-0.664c-0.333-0.046-0.65-0.036-0.967-0.007c-0.111-0.002-0.222-0.004-0.334-0.006
			c-0.449,0.002-0.897,0.004-1.346,0.006c-0.111-0.002-0.223-0.004-0.334-0.006c-0.449,0.002-0.897,0.004-1.346,0.006
			C9.803,6.864,9.692,6.862,9.581,6.86C9.132,6.862,8.683,6.864,8.235,6.866C8.124,6.864,8.012,6.862,7.901,6.86
			C7.453,6.862,7.004,6.864,6.555,6.866C6.444,6.864,6.333,6.862,6.222,6.86C6.028,6.858,5.834,6.857,5.641,6.856
			c0.13-0.47,0.071-0.948,0.06-1.424c0.171-0.021,0.341-0.041,0.512-0.061c0.115,0.057,0.232,0.056,0.35,0.011
			c0.415,0.052,0.83,0.055,1.244-0.003c0.145,0.058,0.291,0.056,0.438,0.009C8.688,5.423,9.13,5.449,9.572,5.371
			C9.687,5.427,9.804,5.427,9.922,5.381z"/>
		<path fill="#FF6243" d="M7.251,12.65c-0.276-0.517-0.264-0.697,0.119-1.121c0.252-0.279,0.515-0.551,0.79-0.808
			c0.427-0.399,0.638-0.416,1.157-0.136c0.054,0.083,0.108,0.166,0.162,0.248c0.083,0.391-0.041,0.698-0.346,0.959
			c-0.242,0.206-0.47,0.434-0.675,0.677c-0.26,0.309-0.569,0.425-0.959,0.343C7.417,12.759,7.334,12.705,7.251,12.65z"/>
		<path fill="#FF6243" d="M4.786,18.287c-0.063,0.192-0.125,0.385-0.188,0.577c-0.076,0.207-0.16,0.413-0.227,0.623
			c-0.219,0.683-0.367,0.784-1.089,0.725c-0.048-0.03-0.095-0.061-0.143-0.091c-0.275-0.292-0.306-0.63-0.189-0.996
			c0.095-0.183,0.153-0.377,0.176-0.582c0.063-0.151,0.136-0.299,0.186-0.454c0.139-0.438,0.433-0.653,0.892-0.641
			c0.079,0.035,0.159,0.07,0.238,0.105C4.659,17.75,4.798,17.983,4.786,18.287z"/>
		<path fill="#FF6243" d="M5.042,16.283c-0.223-0.08-0.361-0.248-0.472-0.446c-0.013-0.136-0.025-0.271-0.037-0.407
			c0.247-0.415,0.504-0.824,0.739-1.246c0.23-0.415,0.557-0.597,1.028-0.498c0.047,0.026,0.095,0.052,0.142,0.078
			c0.255,0.261,0.355,0.562,0.237,0.919c-0.242,0.343-0.483,0.686-0.651,1.075c-0.148,0.184-0.26,0.401-0.479,0.52
			C5.38,16.279,5.211,16.281,5.042,16.283z"/>
		<path fill="#FF6243" d="M10.348,9.633c-0.1-0.471,0.069-0.804,0.489-1.041c0.423-0.239,0.81-0.54,1.258-0.738
			c0.139,0.01,0.278,0.021,0.417,0.031c0.192,0.122,0.349,0.274,0.434,0.49c-0.007,0.167-0.014,0.334-0.02,0.501
			c-0.139,0.136-0.277,0.272-0.416,0.408c-0.39,0.175-0.754,0.393-1.083,0.668c-0.376,0.188-0.7,0.081-0.998-0.176
			C10.403,9.728,10.375,9.68,10.348,9.633z"/>
		<path fill="#FF6243" d="M3.357,21.674c0.059,0.045,0.118,0.09,0.177,0.136c0.25,0.272,0.194,0.603,0.177,0.926
			c-0.006,0.14-0.012,0.28-0.019,0.42C3.6,23.428,3.611,23.71,3.618,23.991c-0.478-0.001-0.957-0.001-1.435-0.002
			c0.001-0.25,0.003-0.499,0.005-0.749c0.017-0.169,0.034-0.339,0.052-0.508c0.012-0.082,0.027-0.163,0.035-0.245
			C2.347,21.782,2.629,21.569,3.357,21.674z"/>
		<path fill="#FF6243" d="M36.769,15.093c0.091-0.366,0.329-0.579,0.689-0.667c0.112,0.025,0.224,0.05,0.337,0.076
			c0.267,0.149,0.378,0.431,0.558,0.653c0.036,0.065,0.071,0.129,0.107,0.194c0.131,0.256,0.261,0.513,0.392,0.769
			c0.02,0.136,0.041,0.272,0.061,0.407c-0.086,0.376-0.343,0.568-0.7,0.655c-0.11-0.027-0.221-0.053-0.331-0.08
			c-0.237-0.135-0.345-0.376-0.484-0.592c-0.061-0.112-0.122-0.225-0.183-0.337c-0.139-0.249-0.277-0.499-0.416-0.748
			C36.789,15.314,36.779,15.203,36.769,15.093z"/>
		<path fill="#FF6243" d="M38.578,18.783c0.113-0.14,0.221-0.284,0.386-0.369c0.357-0.119,0.654-0.014,0.912,0.242
			c0.025,0.046,0.05,0.093,0.075,0.139c0.112,0.379,0.224,0.758,0.335,1.136c0.014,0.068,0.028,0.135,0.041,0.203
			c0.033,0.865-0.193,1.085-1.019,0.99c-0.044-0.027-0.088-0.054-0.132-0.082c-0.224-0.233-0.239-0.556-0.359-0.834
			c-0.008-0.117-0.022-0.233-0.1-0.329C38.699,19.512,38.454,19.171,38.578,18.783z"/>
		<path fill="#FF6243" d="M39.401,22.992c0.119-0.147,0.229-0.303,0.405-0.39c0.325-0.097,0.598,0.009,0.845,0.218
			c0.048,0.087,0.097,0.173,0.145,0.26c0.012,0.302,0.023,0.603,0.035,0.905c-0.483,0.002-0.966,0.003-1.449,0.005
			C39.389,23.656,39.395,23.324,39.401,22.992z"/>
		<path fill="#FF6243" d="M30.076,5.381c0.415,0.052,0.83,0.055,1.244-0.003c0.145,0.058,0.291,0.056,0.438,0.009
			c0.443,0.037,0.885,0.062,1.326-0.016c0.115,0.057,0.232,0.056,0.35,0.011c0.443,0.05,0.887,0.064,1.329-0.011
			c0.115,0.057,0.232,0.056,0.35,0.011c0.443,0.05,0.887,0.063,1.329-0.01c0.281,0.098,0.575,0.017,0.86,0.061
			c-0.009,0.476-0.071,0.955,0.06,1.425c-0.192,0.003-0.385,0.006-0.577,0.008c-0.111-0.002-0.222-0.004-0.334-0.007
			c-0.449,0.002-0.897,0.004-1.346,0.006c-0.111-0.002-0.222-0.004-0.334-0.006c-0.449,0.002-0.897,0.004-1.346,0.006
			c-0.111-0.002-0.222-0.004-0.334-0.006c-0.449,0.002-0.897,0.004-1.346,0.006c-0.111-0.002-0.222-0.004-0.334-0.006
			c-0.449,0.002-0.897,0.004-1.346,0.006c-0.321,0-0.643,0-0.964,0c0.223,0.184,0.459,0.302,0.616,0.522
			c0.227,0.678-0.359,1.269-1.07,0.955c-0.067-0.027-0.134-0.054-0.202-0.081c-0.331-0.196-0.694-0.312-1.061-0.419
			c-0.059-0.045-0.118-0.09-0.177-0.135c-0.123-0.184-0.257-0.378-0.202-0.606c0.081-0.334-0.129-0.25-0.3-0.238
			c-0.111-0.002-0.222-0.004-0.333-0.006c-0.289,0.003-0.608-0.112-0.856,0.062c-0.235,0.164-0.47,0.226-0.739,0.228
			c-0.137-0.041-0.276-0.064-0.418-0.03c0.006-0.57,0.013-1.14,0.019-1.71c0.102-0.013,0.203-0.026,0.305-0.039
			c0.115,0.057,0.232,0.056,0.35,0.011c0.443,0.05,0.887,0.064,1.329-0.011c0.115,0.057,0.232,0.056,0.35,0.011
			c0.443,0.05,0.887,0.064,1.329-0.011c0.115,0.057,0.232,0.056,0.35,0.011c0.443,0.05,0.887,0.064,1.329-0.011
			C29.841,5.427,29.958,5.427,30.076,5.381z"/>
		<path fill="#F0D877" d="M26.519,37.431c-0.002,0.056-0.003,0.113-0.005,0.169c-3-0.002-6-0.004-9-0.007
			c-0.293,0-0.585-0.012-0.878-0.018c0.356-0.125,0.724-0.023,1.085-0.061c0.114,0,0.227,0,0.341,0c0.446,0,0.892,0,1.338,0
			c0.114,0,0.228,0,0.341,0c0.446,0,0.892,0,1.338,0c0.114,0,0.228,0,0.341,0c0.446,0,0.892,0,1.338,0c0.114,0,0.228,0,0.342,0
			c0.446,0,0.892,0,1.338,0c0.114,0,0.228,0,0.342,0C25.359,37.472,25.947,37.615,26.519,37.431z"/>
		<path fill="#E6C648" d="M10.071,28.613c0.033-0.052,0.066-0.103,0.099-0.155C10.162,28.526,10.143,28.586,10.071,28.613z"/>
		<path fill="#FF6243" d="M35.369,11.229c0.109,0.111,0.218,0.223,0.327,0.334c0.191,0.209,0.383,0.417,0.574,0.626
			c0.027,0.1,0.094,0.17,0.177,0.227c0.134,0.309,0.175,0.619-0.063,0.894c-0.251,0.29-0.572,0.294-0.91,0.174
			c-0.09-0.081-0.179-0.162-0.269-0.243c-0.162-0.255-0.353-0.484-0.589-0.674c-0.084-0.088-0.168-0.177-0.252-0.265
			c-0.225-0.314-0.254-0.64-0.055-0.978c0.046-0.044,0.092-0.087,0.138-0.13C34.762,11.006,35.069,11.024,35.369,11.229z"/>
		<path fill="#FF6243" d="M22.936,28.781c-0.081-0.31-0.243-0.579-0.43-0.835c-0.026-0.001-0.052-0.002-0.079-0.003
			c-0.031-0.051-0.061-0.102-0.092-0.153c-0.053-0.006-0.107-0.011-0.16-0.017c0,0,0,0,0,0c-0.237-0.253-0.556-0.135-0.839-0.185
			c-0.168,0.036-0.336,0.072-0.504,0.109c-0.272,0.173-0.453,0.435-0.662,0.67c-0.034,0.139-0.068,0.278-0.102,0.417
			c0.017,0.327-0.035,0.672,0.24,0.933c0.484-0.402,0.916-0.858,1.352-1.308c-0.437,0.45-0.868,0.906-1.352,1.308
			c0.007,0.052,0.013,0.105,0.02,0.157c0.053,0.03,0.105,0.06,0.158,0.09c0.003,0.026,0.005,0.053,0.007,0.079
			c0.228,0.133,0.455,0.265,0.683,0.398c0.137,0.008,0.274,0.015,0.411,0.023c0.731-0.165,1.243-0.551,1.353-1.343
			C22.939,29.007,22.937,28.894,22.936,28.781z M22.172,27.785c-0.015,0.045-0.023,0.098-0.043,0.138
			C22.148,27.883,22.157,27.831,22.172,27.785z"/>
		<path fill="#FFA192" d="M24.37,28.951c-0.009-0.318-0.049-0.63-0.186-0.922c0,0,0,0,0,0c0.002-0.029,0.004-0.058,0.007-0.086
			c-0.051-0.058-0.102-0.116-0.153-0.174l0,0c-0.004-0.054-0.008-0.108-0.011-0.162c-0.197-0.172-0.258-0.46-0.506-0.589
			c-0.002-0.027-0.005-0.054-0.009-0.08c-0.056-0.053-0.111-0.107-0.167-0.16c-0.027-0.003-0.053-0.004-0.08-0.004
			c-0.262,0.287-0.524,0.573-0.786,0.86c0.262-0.287,0.524-0.573,0.786-0.86c-0.25-0.199-0.493-0.409-0.835-0.43
			c-0.002-0.026-0.005-0.051-0.009-0.077c-0.055-0.001-0.11-0.002-0.166-0.003c0-0.084,0.001-0.168,0.001-0.252
			c-0.007-0.336-0.015-0.671-0.022-1.007c-0.318,0.156-0.534,0.424-0.768,0.674c0.234-0.249,0.45-0.518,0.768-0.674
			c0.007-0.056,0.015-0.112,0.022-0.168c-0.009-0.057-0.017-0.114-0.026-0.171c-0.162-0.017-0.256,0.077-0.35,0.173
			c0.094-0.096,0.188-0.19,0.35-0.173c0.009-0.111,0.018-0.222,0.027-0.333c-0.007-0.336-0.015-0.671-0.022-1.007
			c-0.37,0.182-0.602,0.516-0.886,0.795c0.283-0.278,0.515-0.613,0.885-0.795c0.007-0.056,0.015-0.112,0.022-0.168
			c-0.009-0.057-0.017-0.114-0.026-0.171c-0.189-0.02-0.286,0.111-0.397,0.221c0.111-0.11,0.208-0.241,0.397-0.221
			c0.009-0.111,0.018-0.222,0.027-0.333c-0.007-0.336-0.015-0.671-0.022-1.007c-0.37,0.182-0.602,0.516-0.886,0.795
			c0.283-0.278,0.515-0.613,0.885-0.795c0.007-0.056,0.015-0.112,0.022-0.168c-0.009-0.057-0.017-0.114-0.026-0.171
			c-0.189-0.02-0.286,0.111-0.397,0.221c0.111-0.11,0.208-0.241,0.397-0.221c0.009-0.111,0.018-0.222,0.027-0.333
			c-0.007-0.336-0.015-0.671-0.022-1.007c-0.37,0.182-0.602,0.517-0.886,0.795c0.283-0.278,0.515-0.613,0.885-0.795
			c0.007-0.056,0.015-0.112,0.022-0.168c-0.009-0.057-0.017-0.114-0.026-0.171c0,0,0,0,0,0c0.009-0.111,0.018-0.222,0.027-0.333
			c-0.007-0.336-0.015-0.671-0.022-1.007c-0.317,0.156-0.533,0.424-0.767,0.673c0.234-0.249,0.449-0.517,0.767-0.673
			c0.007-0.056,0.015-0.112,0.022-0.168c-0.009-0.057-0.017-0.114-0.026-0.171c0,0,0,0,0,0c0.009-0.111,0.018-0.222,0.027-0.334
			c-0.007-0.336-0.015-0.671-0.022-1.007c-0.317,0.156-0.534,0.424-0.767,0.673c0.234-0.249,0.45-0.517,0.767-0.673
			c-0.001-0.113-0.002-0.226-0.004-0.34c-0.189-0.02-0.286,0.111-0.397,0.221c0.111-0.11,0.208-0.241,0.397-0.221
			c0.002-0.447,0.003-0.893,0.004-1.34c-0.37,0.182-0.603,0.517-0.886,0.795c0.283-0.278,0.516-0.613,0.886-0.795
			c-0.001-0.113-0.002-0.226-0.004-0.34c-0.216-0.023-0.312,0.152-0.446,0.266c0.134-0.114,0.23-0.289,0.446-0.266
			c0.001-0.446,0.002-0.892,0.003-1.338c0,0,0,0,0,0c-0.001-0.114-0.003-0.228-0.005-0.343c0.011-0.197,0.022-0.394,0.033-0.59
			c0,0,0.004,0.004,0.004,0.004c-0.002-0.026-0.007-0.051-0.017-0.075c-0.009-0.227-0.017-0.454-0.025-0.681
			c0.011-0.083,0.021-0.166,0.032-0.249c-0.026-0.057-0.051-0.114-0.077-0.171c-0.449,0.421-0.897,0.842-1.346,1.262
			c0,0-0.023,0-0.034,0.001c0.011,0,0.034-0.001,0.034-0.001c-0.001-0.016-0.003-0.032-0.005-0.047
			c-0.002-0.014-0.005-0.027-0.009-0.039c0.004,0.013,0.007,0.026,0.009,0.039c0.002,0.015,0.004,0.031,0.005,0.047
			c0.449-0.421,0.897-0.841,1.346-1.262c0.018-0.078,0.036-0.156,0.055-0.233c-0.114-0.215-0.283-0.376-0.489-0.501
			c-0.137-0.007-0.274-0.015-0.411-0.022c-0.274,0.118-0.472,0.31-0.581,0.59c0,0.112,0,0.223-0.001,0.335
			c0.002,0.311,0.003,0.621,0.005,0.932c0,0,0,0,0,0c-0.029,0.054-0.058,0.109-0.087,0.163c0.028-0.001,0.056-0.002,0.083-0.002
			c0.008,0.113,0.017,0.226,0.025,0.339c0,0,0,0,0,0c-0.002,0.446-0.003,0.892-0.004,1.338c-0.007,0.057-0.015,0.114-0.022,0.17
			c0.009,0.057,0.018,0.114,0.026,0.172c-0.009,0.111-0.018,0.221-0.027,0.332c0.008,0.335,0.015,0.67,0.023,1.005
			c-0.007,0.057-0.015,0.114-0.022,0.171c0.009,0.057,0.018,0.114,0.026,0.172c-0.009,0.111-0.018,0.222-0.027,0.332
			c0.008,0.335,0.015,0.67,0.023,1.005c-0.007,0.057-0.015,0.114-0.022,0.171c0.009,0.057,0.018,0.114,0.026,0.172
			c-0.009,0.111-0.018,0.222-0.027,0.332c0.008,0.335,0.015,0.67,0.023,1.005c-0.007,0.057-0.015,0.114-0.022,0.171
			c0.009,0.057,0.018,0.114,0.027,0.171c-0.009,0.111-0.018,0.222-0.027,0.333c0.008,0.335,0.015,0.67,0.023,1.005
			c-0.007,0.057-0.015,0.114-0.022,0.171c0.009,0.057,0.018,0.114,0.027,0.171c-0.009,0.111-0.018,0.222-0.027,0.333
			c0.008,0.335,0.015,0.67,0.023,1.005c-0.007,0.057-0.015,0.114-0.022,0.171c0.009,0.057,0.018,0.114,0.027,0.171
			c-0.009,0.111-0.018,0.222-0.027,0.333c0.008,0.335,0.015,0.67,0.023,1.005c-0.007,0.057-0.015,0.114-0.022,0.171
			c0.009,0.057,0.018,0.114,0.027,0.171c-0.009,0.111-0.018,0.222-0.027,0.333c0.008,0.335,0.015,0.67,0.023,1.005
			c0.001,0.114,0.002,0.229,0.002,0.343c-0.008,0.028-0.017,0.056-0.026,0.083c-0.001,0.1-0.049,0.17-0.108,0.232
			c-0.036,0.037-0.076,0.072-0.112,0.108c0.036-0.036,0.076-0.071,0.112-0.108c0.059-0.062,0.107-0.132,0.108-0.232
			c-0.937,0.222-1.529,0.841-1.935,1.677c-0.068,0.038-0.081,0.101-0.08,0.171c0,0,0.003,0,0.003,0
			c0.001,0.055,0.003,0.11,0.004,0.165c-0.033,0.111-0.066,0.223-0.1,0.334c0.041,0.335-0.07,0.684,0.09,1.008
			c-0.004,0.028-0.008,0.056-0.011,0.084c0.031,0.056,0.061,0.113,0.091,0.169c0.005,0.082,0.009,0.165,0.014,0.247
			c0.137,0.197,0.273,0.394,0.41,0.591c0.027,0.056,0.055,0.112,0.082,0.167c0.029,0.029,0.057,0.059,0.086,0.088
			c0.025,0,0.05,0,0.076,0.002c0.339-0.31,0.677-0.619,1.016-0.929c-0.002-0.026-0.005-0.053-0.008-0.079
			c-0.053-0.03-0.105-0.06-0.158-0.09c-0.068,0.011-0.126,0.035-0.177,0.066c0.052-0.031,0.109-0.055,0.177-0.066
			c-0.007-0.053-0.013-0.105-0.02-0.157c-0.275-0.261-0.223-0.606-0.24-0.933c-0.113,0.104-0.223,0.213-0.338,0.315
			c0.115-0.102,0.224-0.211,0.337-0.315c0.034-0.139,0.068-0.278,0.102-0.417c0,0,0,0,0,0c0.209-0.235,0.39-0.497,0.662-0.67
			c0,0,0,0,0,0c0.168-0.036,0.336-0.073,0.504-0.109c0.13-0.334,0.429-0.52,0.665-0.762c-0.236,0.241-0.535,0.428-0.665,0.762
			c0.282,0.05,0.601-0.068,0.839,0.185c0.053,0.006,0.107,0.011,0.16,0.017l0,0c0.031,0.051,0.061,0.102,0.092,0.153
			c0.026,0.001,0.052,0.002,0.079,0.003c0,0,0,0,0,0c0.187,0.256,0.349,0.525,0.43,0.835c0,0,0,0,0,0
			c0.002,0.113,0.004,0.227,0.006,0.34c0.022-0.001,0.042-0.004,0.062-0.009c0.038-0.01,0.072-0.027,0.103-0.048
			c0.031-0.021,0.058-0.047,0.085-0.074c-0.027,0.027-0.054,0.053-0.085,0.074c-0.031,0.021-0.064,0.038-0.103,0.048
			c-0.019,0.005-0.04,0.008-0.062,0.009c-0.11,0.792-0.622,1.178-1.353,1.343c0,0,0,0,0,0c-0.137-0.008-0.274-0.015-0.411-0.023
			c0,0,0,0,0,0c-0.228-0.133-0.455-0.265-0.683-0.398c-0.339,0.31-0.677,0.619-1.016,0.929c0.157,0.275,0.449,0.394,0.681,0.584
			c0.028-0.002,0.056-0.003,0.085-0.005c0.056,0.033,0.112,0.066,0.167,0.099c0.056,0.02,0.113,0.04,0.169,0.061
			c0.28,0.06,0.559,0.12,0.839,0.18c0.111-0.01,0.222-0.02,0.333-0.03c0.029,0.007,0.058,0.015,0.088,0.022
			c0.14-0.051,0.28-0.103,0.421-0.154c0.981-0.198,1.853-1.111,2.013-2.107c0.028-0.056,0.057-0.112,0.085-0.168
			c-0.004-0.084-0.007-0.169-0.011-0.253C24.355,29.118,24.362,29.035,24.37,28.951z M19.928,30.145
			c-0.022,0.025-0.043,0.049-0.065,0.074C19.885,30.194,19.906,30.169,19.928,30.145z M22.153,19.628
			c-0.165,0.019-0.253,0.166-0.37,0.266C21.901,19.793,21.989,19.647,22.153,19.628z M22.153,17.948
			c-0.141,0.017-0.226,0.127-0.321,0.221C21.927,18.075,22.012,17.965,22.153,17.948z M21.466,13.922
			c-0.078,0.083-0.157,0.164-0.244,0.237C21.308,14.086,21.388,14.005,21.466,13.922z M20.814,12.31
			c-0.005-0.012-0.011-0.023-0.02-0.033C20.803,12.288,20.809,12.299,20.814,12.31z M21.137,30.563
			c-0.093,0.209-0.283,0.338-0.445,0.491C20.854,30.901,21.044,30.772,21.137,30.563z"/>
	</g>
</g>
</svg>
