<?xml version="1.0" encoding="utf-8"?>
<!-- Generator: Adobe Illustrator 16.0.0, SVG Export Plug-In . SVG Version: 6.00 Build 0)  -->
<!DOCTYPE svg PUBLIC "-//W3C//DTD SVG 1.1//EN" "http://www.w3.org/Graphics/SVG/1.1/DTD/svg11.dtd">
<svg version="1.1" id="Layer_1" xmlns="http://www.w3.org/2000/svg" xmlns:xlink="http://www.w3.org/1999/xlink" x="0px" y="0px"
	 width="250px" height="250px" viewBox="0 0 250 250" enable-background="new 0 0 250 250" xml:space="preserve">
<g id="h5w5A8.tif">
	<g>
		<path fill="#F38440" d="M0,180.2C0,129.582,0,78.963,0,28.345c0.097-0.128,0.241-0.243,0.282-0.387
			c3.535-12.383,10.328-17.52,23.18-17.523c21.156-0.004,42.314,0.009,63.471-0.04c2.433-0.006,4.369,0.693,6.1,2.451
			c5.593,5.684,11.308,11.248,16.905,16.926c1.114,1.13,2.231,1.595,3.825,1.593c31.084-0.043,62.168-0.033,93.254-0.03
			c13.24,0.001,21.989,8.488,22.047,21.688c0.093,20.831,0.027,41.663-0.004,62.493c-0.008,5.181-3.432,7.344-8.152,5.195
			c-12.977-5.904-26.493-7.454-40.502-5.076c-34.992,5.938-59.773,39.75-54.871,74.855c0.742,5.316-1.037,7.348-6.474,7.354
			c-10.903,0.012-21.808,0.018-32.711,0.016c-21.726-0.002-43.452,0.031-65.179-0.032c-10.508-0.031-18.256-6.325-20.683-16.543
			C0.397,180.905,0.166,180.561,0,180.2z"/>
		<path fill="#F38440" d="M250,187.523c-0.834,3.787-1.45,7.638-2.537,11.351c-7.184,24.55-30.936,41.608-56.501,40.694
			c-30.485-1.088-54.604-25.356-55.517-55.859c-0.871-29.195,21.394-54.945,50.305-58.179c31.111-3.479,58.438,17.239,63.575,48.198
			c0.196,1.186,0.448,2.36,0.675,3.541C250,180.688,250,184.105,250,187.523z M198.456,200.4c-0.187-0.104-0.37-0.207-0.556-0.311
			c0-2.752,0-5.503,0-8.254c0.002-13.335,0.01-26.671,0.002-40.006c-0.002-3.064-1.211-4.982-3.555-5.749
			c-3.676-1.203-6.898,1.492-6.902,5.815c-0.012,15.287-0.006,30.574-0.006,45.86c0,0.836,0,1.675,0,3.168
			c-4.242-4.276-7.922-8.058-11.687-11.751c-2.36-2.314-5.481-2.341-7.627-0.229c-2.173,2.143-2.192,5.23,0.151,7.604
			c6.803,6.883,13.645,13.725,20.524,20.526c2.358,2.332,5.259,2.389,7.595,0.092c7.074-6.953,14.093-13.965,21.074-21.011
			c1.875-1.891,1.815-4.896,0.104-6.893c-1.724-2.009-4.579-2.447-6.822-0.957c-0.803,0.532-1.494,1.248-2.183,1.936
			C205.189,193.62,201.826,197.014,198.456,200.4z"/>
	</g>
</g>
</svg>
