<?xml version="1.0" encoding="utf-8"?>
<!-- Generator: Adobe Illustrator 16.0.0, SVG Export Plug-In . SVG Version: 6.00 Build 0)  -->
<!DOCTYPE svg PUBLIC "-//W3C//DTD SVG 1.1//EN" "http://www.w3.org/Graphics/SVG/1.1/DTD/svg11.dtd">
<svg version="1.1" id="Layer_1" xmlns="http://www.w3.org/2000/svg" xmlns:xlink="http://www.w3.org/1999/xlink" x="0px" y="0px"
	 width="456.342px" height="155.714px" viewBox="0 0 456.342 155.714" enable-background="new 0 0 456.342 155.714"
	 xml:space="preserve">
<g>
	<g>
		<path fill="#45535F" d="M203.064,80.123c-17.822,0-28.739-11.661-28.739-31.056c0-19.104,10.917-30.683,28.45-30.683
			c13.935,0,24.438,8.229,26.216,20.304h-12.529c-1.819-6.244-6.906-9.966-13.646-9.966c-9.841,0-15.755,7.485-15.755,20.18
			c0,12.943,6.286,20.841,16.21,20.841c8.146,0,13.811-5.003,14.06-12.405l0.041-0.951h-12.984V47.29h25.142v6.74
			C229.529,70.281,219.688,80.123,203.064,80.123z"/>
		<path fill="#45535F" d="M237.221,16.565h11.868v25.142h0.248c2.564-5.748,7.774-8.808,14.721-8.808
			c10.089,0,16.417,6.533,16.417,17.078v29.111H268.4V52.5c0-5.955-3.474-9.552-9.221-9.552c-5.872,0-9.883,4.176-9.883,10.296
			v25.845h-12.074V16.565z"/>
		<path fill="#45535F" d="M286.76,56.305c0-14.556,8.767-23.529,22.454-23.529c13.729,0,22.454,8.932,22.454,23.529
			c0,14.762-8.643,23.57-22.454,23.57C295.403,79.875,286.76,71.025,286.76,56.305z M319.386,56.305
			c0-8.974-3.846-14.267-10.172-14.267c-6.368,0-10.214,5.334-10.214,14.267c0,9.056,3.846,14.266,10.214,14.266
			S319.386,65.36,319.386,56.305z"/>
		<path fill="#45535F" d="M356.396,32.775c11.248,0,18.732,5.748,18.897,14.432h-11.165c-0.248-3.598-3.267-5.872-7.898-5.872
			c-4.342,0-7.236,1.943-7.236,4.88c0,2.274,1.985,3.804,6.079,4.755l8.56,1.861c9.139,2.067,12.778,5.582,12.778,12.364
			c0,8.849-8.146,14.68-20.056,14.68c-11.992,0-19.518-5.79-20.138-14.556h11.785c0.579,3.845,3.681,5.995,8.684,5.995
			c4.796,0,7.732-1.86,7.732-4.838c0-2.356-1.571-3.598-5.707-4.59l-8.394-1.902c-8.56-1.943-12.984-6.368-12.984-13.025
			C337.333,38.399,344.859,32.775,356.396,32.775z"/>
		<path fill="#45535F" d="M397.996,23.43v10.132h8.436v9.138h-8.436v22.123c0,3.516,1.737,5.211,5.417,5.211
			c1.075,0,2.274-0.083,3.019-0.207v8.932c-1.241,0.248-3.391,0.496-5.831,0.496c-10.545,0-14.68-3.556-14.68-12.446V42.699h-6.162
			v-9.138h6.162V23.43H397.996z"/>
		<path fill="#45535F" d="M200.583,147.039h-11.785l-15.796-59.67h12.943l9.387,43.212h0.331l11.165-43.212h10.544l11.165,43.212
			h0.331l9.428-43.212h12.943l-15.837,59.67h-11.785l-11.33-40.772h-0.373L200.583,147.039z"/>
		<path fill="#45535F" d="M256.036,101.512h11.661v8.146h0.248c1.53-5.624,5.458-8.684,10.834-8.684
			c1.199,0,2.522,0.165,3.391,0.455v10.71c-0.993-0.455-2.854-0.744-4.342-0.744c-6.12,0-9.717,3.804-9.717,10.172v25.473h-12.075
			V101.512z"/>
		<path fill="#45535F" d="M287.174,90.223c0-3.598,2.936-6.286,6.492-6.286c3.598,0,6.533,2.688,6.533,6.286
			s-2.936,6.326-6.533,6.326C290.11,96.549,287.174,93.82,287.174,90.223z M287.629,101.512h12.074v45.527h-12.074V101.512z"/>
		<path fill="#45535F" d="M323.397,91.38v10.132h8.436v9.139h-8.436v22.122c0,3.516,1.737,5.211,5.417,5.211
			c1.075,0,2.274-0.083,3.019-0.207v8.932c-1.241,0.248-3.391,0.496-5.831,0.496c-10.545,0-14.68-3.556-14.68-12.446V110.65h-6.162
			v-9.139h6.162V91.38H323.397z"/>
		<path fill="#45535F" d="M379.388,133.145c-1.323,8.809-9.552,14.681-20.634,14.681c-13.853,0-22.33-8.891-22.33-23.364
			c0-14.473,8.519-23.735,21.875-23.735c13.108,0,21.461,8.767,21.461,22.619v3.722h-31.427v0.744c0,6.575,4.259,11,10.627,11
			c4.548,0,8.146-2.15,9.304-5.666H379.388z M348.457,119.582h19.642c-0.207-5.955-4.094-9.842-9.676-9.842
			C352.923,109.74,348.871,113.751,348.457,119.582z"/>
		<path fill="#45535F" d="M386.252,101.512h11.661v8.146h0.248c1.53-5.624,5.458-8.684,10.834-8.684
			c1.199,0,2.522,0.165,3.391,0.455v10.71c-0.993-0.455-2.854-0.744-4.342-0.744c-6.12,0-9.717,3.804-9.717,10.172v25.473h-12.075
			V101.512z"/>
		<path fill="#45535F" d="M435.915,100.726c11.248,0,18.732,5.748,18.897,14.432h-11.165c-0.248-3.598-3.267-5.872-7.898-5.872
			c-4.342,0-7.236,1.943-7.236,4.88c0,2.274,1.985,3.804,6.079,4.755l8.56,1.861c9.139,2.067,12.778,5.582,12.778,12.363
			c0,8.85-8.146,14.681-20.056,14.681c-11.992,0-19.518-5.79-20.138-14.556h11.785c0.579,3.846,3.681,5.995,8.684,5.995
			c4.796,0,7.732-1.86,7.732-4.838c0-2.356-1.571-3.598-5.707-4.59l-8.394-1.902c-8.56-1.943-12.984-6.368-12.984-13.025
			C416.852,106.35,424.378,100.726,435.915,100.726z"/>
	</g>
	<g>
		<path fill-rule="evenodd" clip-rule="evenodd" fill="#45535F" d="M143.999,49.04l-5.408,14.12
			c1.731,5.66,2.668,11.667,2.668,17.894c0,33.745-27.356,61.101-61.101,61.101c-16.35,0-31.188-6.435-42.154-16.894l-7.433,7.168
			c12.847,12.402,30.319,20.045,49.586,20.045c39.444,0,71.42-31.976,71.42-71.42C151.579,69.54,148.838,58.672,143.999,49.04z"/>
		<path fill-rule="evenodd" clip-rule="evenodd" fill="#45535F" d="M80.158,19.952c17.653,0,33.547,7.496,44.702,19.467l4.814-9.807
			C116.834,17.249,99.391,9.633,80.158,9.633c-39.444,0-71.42,31.977-71.42,71.421c0,15.627,5.033,30.07,13.547,41.829l7.833-6.788
			c-6.961-9.923-11.06-22-11.06-35.041C19.057,47.309,46.413,19.952,80.158,19.952z"/>
	</g>
	<path fill-rule="evenodd" clip-rule="evenodd" fill="#F2765B" d="M34.181,136.04c-4.774,4.395-10.051,8.365-14.197,13.289
		c-5.205,6.182-11.573,6.227-18.802,5.365c0.585-1.898,2.279-2.734,3.552-3.857c11.49-10.143,22.858-20.412,33.635-31.324
		c2.175-2.203,3.537-4.607,4.354-7.629c8.174-30.229,24.589-54.698,50.805-72.294c6.069-4.074,12.354-7.859,17.918-12.652
		c2.668-1.242,5.023-2.928,7.107-5.002c9.777-6.768,19.555-13.536,30.021-20.781c-5.388,33.938-14.903,64.918-39.581,89.14
		c-13.958,13.699-30.644,22.758-49.136,28.707c-0.548,0.178-1.136,0.23-2.608,0.516c17.062-17.416,36.509-31.501,46.09-50.091
		c-19.708,18.988-41.636,40.116-63.563,61.243C37.911,132.458,36.046,134.249,34.181,136.04z"/>
</g>
</svg>
