<?xml version="1.0" encoding="utf-8"?>
<!-- Generator: Adobe Illustrator 17.0.0, SVG Export Plug-In . SVG Version: 6.00 Build 0)  -->
<!DOCTYPE svg PUBLIC "-//W3C//DTD SVG 1.1//EN" "http://www.w3.org/Graphics/SVG/1.1/DTD/svg11.dtd">
<svg version="1.1" id="Layer_1" xmlns="http://www.w3.org/2000/svg" xmlns:xlink="http://www.w3.org/1999/xlink" x="0px" y="0px"
	 width="65px" height="65px" viewBox="0 0 65 65" enable-background="new 0 0 65 65" xml:space="preserve">
<g>
	<path fill="#20CB98" d="M36.192,32.464c0,1.297,0,2.575,0,3.875c-10.634,0-12.998,0-23.647,0c0-1.287,0-2.573,0-3.875
		C23.177,32.464,25.534,32.464,36.192,32.464z"/>
	<path fill="#20CB98" d="M31.106,40.389c0,1.297,0,2.575,0,3.875c-10.634,0-7.912,0-18.561,0c0-1.287,0-2.573,0-3.875
		C23.177,40.389,20.448,40.389,31.106,40.389z"/>
	<path fill="#666666" d="M52.468,0.512c0,1.331,0,2.63,0,3.972c-1.293,0-2.588,0-3.907,0c0,1.361,0,2.679,0,4.042
		c1.292,0,2.588,0,3.926,0c0,0.178,0,0.311,0,0.444c-0.002,6.568-0.003,13.136-0.005,19.705c0,0.798,0.074,0.889,0.808,1.205
		c5.891,2.54,9.579,6.945,10.858,13.22c1.929,9.465-4.175,18.762-13.592,20.901c-1.842,0.419-3.705,0.499-5.583,0.498
		C31.741,64.493,18.509,64.5,5.278,64.485c-0.733-0.001-1.476-0.113-2.198-0.255c-0.65-0.128-1.188-0.514-1.579-1.054
		c-0.603-0.832-1.006-1.71-1.005-2.8C0.516,42.315,0.495,24.253,0.53,6.19c0.005-2.32,1.141-4.082,3.312-5.057
		C4.771,0.717,5.743,0.499,6.788,0.5c15.075,0.018,30.15,0.012,45.225,0.012C52.16,0.512,52.305,0.512,52.468,0.512z M48.494,28.612
		c0-0.152,0-0.276,0-0.399c0-5.095,0-10.191,0-15.286c0-0.408-0.001-0.409-0.423-0.409c-13.04,0-26.081,0-39.121,0
		c-0.417,0-0.418,0.001-0.418,0.413c0,15.71,0,31.42,0,47.13c0,0.124,0,0.247,0,0.377c8.852,0,17.657,0,26.552,0
		c-4.079-3.608-6.463-8.006-6.52-13.432c-0.057-5.367,1.832-10.03,5.782-13.714C38.304,29.599,43.079,28.152,48.494,28.612z
		 M46.523,32.483c-7.716-0.008-14.038,6.304-14.041,14.02c-0.003,7.687,6.292,14.001,13.974,14.015
		c7.736,0.014,14.06-6.273,14.063-13.981C60.522,38.8,54.239,32.491,46.523,32.483z M44.481,4.488c-0.172,0-0.308,0-0.444,0
		c-12.385,0-24.769,0-37.154,0c-0.18,0-0.361-0.003-0.54,0.009C5.258,4.573,4.577,5.215,4.496,6.232
		c-0.095,1.21,0.39,1.956,1.444,2.199c0.235,0.054,0.482,0.083,0.723,0.083c12.491,0.004,24.981,0.003,37.472,0.002
		c0.112,0,0.224-0.011,0.346-0.017C44.481,7.155,44.481,5.845,44.481,4.488z"/>
	<path fill="#20CB98" d="M44.457,24.557c0,1.297,0,2.575,0,3.875c-10.634,0-21.263,0-31.912,0c0-1.287,0-2.573,0-3.875
		C23.177,24.557,33.798,24.557,44.457,24.557z"/>
	<path fill="#20CB98" d="M45.432,46.934c0.089-0.128,0.148-0.246,0.236-0.334c2.154-2.159,4.333-4.295,6.456-6.485
		c0.628-0.648,1.61-0.817,2.29-0.172c0.71,0.674,1.391,1.384,2.02,2.132c0.418,0.497,0.303,1.291-0.157,1.752
		c-3.301,3.305-6.605,6.606-9.906,9.91c-0.456,0.456-1.489,0.497-2.04-0.051c-1.922-1.912-3.839-3.83-5.751-5.752
		c-0.437-0.44-0.429-1.437,0.007-1.881c0.661-0.672,1.326-1.34,2-1.999c0.516-0.505,1.468-0.48,1.991,0.04
		c0.848,0.844,1.693,1.692,2.539,2.538C45.191,46.707,45.269,46.778,45.432,46.934z"/>
</g>
</svg>
