<?xml version="1.0" encoding="utf-8"?>
<!-- Generator: Adobe Illustrator 17.0.0, SVG Export Plug-In . SVG Version: 6.00 Build 0)  -->
<!DOCTYPE svg PUBLIC "-//W3C//DTD SVG 1.1//EN" "http://www.w3.org/Graphics/SVG/1.1/DTD/svg11.dtd">
<svg version="1.1" id="Layer_1" xmlns="http://www.w3.org/2000/svg" xmlns:xlink="http://www.w3.org/1999/xlink" x="0px" y="0px"
	 width="612px" height="792px" viewBox="0 0 612 792" enable-background="new 0 0 612 792" xml:space="preserve">
<linearGradient id="SVGID_1_" gradientUnits="userSpaceOnUse" x1="77.896" y1="594.8691" x2="479.8759" y2="228.8874">
	<stop  offset="0" style="stop-color:#00CAAA"/>
	<stop  offset="1" style="stop-color:#00CB9C"/>
</linearGradient>
<path fill="url(#SVGID_1_)" d="M582.601,348.772c-12.064-31.989-30.212-60.135-54.723-84.082l0,0
	c-0.402-0.684-0.685-1.483-1.223-2.034c-20.852-21.327-43.692-40.205-69.06-55.961c0,0,0,0,0,0c0,0,0,0,0,0
	c-18.497-13.169-38.239-24.214-58.536-34.313v0c-16.887-9.239-34.243-17.49-52.078-24.733c-9.277-4.74-18.962-8.509-28.732-12.076
	c0,0,0,0,0,0c-14.12-6.103-28.249-12.181-43.238-15.927v0c-18.263-6.133-37.084-6.853-56.09-5.796
	c-19.777,1.334-38.438,6.682-56.107,15.599c-10.336,4.675-19.952,10.536-28.888,17.519c-17.882,12.717-33.172,28.078-46.434,45.51
	c0,0,0,0,0,0c-4.235,4.505-7.715,9.605-11.11,14.723c-46.177,69.615-66.61,145.825-58.683,229.314
	c3.663,38.579,12.765,75.708,29.218,110.883c10.63,22.725,23.702,43.89,41.019,62.232c6.591,7.793,13.809,14.932,21.978,21.08
	c15.786,13.741,33.513,24.248,53.009,31.807c17.933,7.606,36.618,12.214,55.999,14.05c6.004,1.414,12.161,1.295,18.251,1.641
	c12.376,0.704,24.746,0.387,37.045-1.382c0,0,0,0,0,0c13.849-0.756,27.468-3.096,41.008-5.974c0.001,0,0.001,0,0.002,0
	c19.212-2.79,38.183-6.715,56.847-12.082c19.761-4.479,39.064-10.423,57.826-18.093c9.701-3.142,19.065-7.084,28.072-11.867
	c18.409-7.86,35.443-18.113,51.559-29.904c6.387-4.673,12.965-9.171,18.19-15.254c9.382-7.487,17.442-16.27,24.851-25.653
	c23.821-30.164,36.998-64.616,41.508-102.639C598.403,418.919,595.606,383.258,582.601,348.772z"/>
<g>
	<path fill="#373535" d="M231.9,517.022c-0.687,11.11-0.707,11.106-11.709,11.097c-21.385-0.017-42.77-0.006-64.156-0.007
		c-1.275,0-2.549,0-3.993,0c0-3.852,0-7.371,0-11.28c15.006,0,30.018,0,45.246,0c0-26.802,0-53.216,0-79.893
		c-15.036,0-29.962,0-45.159,0c0-3.853,0-7.456,0-11.344c1.124-0.059,2.27-0.17,3.417-0.171
		c43.483-0.005,86.966,0.042,130.449-0.072c3.793-0.01,6.458,1.222,9.046,3.872c9.13,9.349,18.49,18.473,27.651,27.792
		c1.601,1.629,3.082,2.155,5.311,1.762c36.109-6.362,72.227-12.669,108.348-18.959c9.398-1.637,16.894,1.558,21.111,8.871
		c3.845,6.667,3.25,15.01-1.823,20.97c-1.654,1.943-3.799,3.617-6.013,4.913c-40.87,23.921-81.789,47.759-122.686,71.633
		c-6.367,3.717-12.743,3.87-19.332,0.554c-17.061-8.587-34.167-17.087-51.244-25.643C246.878,516.363,243.203,515.716,231.9,517.022
		z M231.881,505.297c4.193,0,7.999,0.201,11.775-0.052c4.423-0.297,8.301,0.821,12.238,2.824
		c18.609,9.467,37.354,18.664,55.977,28.104c3.69,1.871,6.815,1.71,10.353-0.362c38.71-22.672,77.472-45.254,116.219-67.864
		c2.255-1.316,4.563-2.558,6.724-4.014c2.986-2.012,4.032-5.298,2.89-8.402c-1.222-3.322-4.207-5.134-7.87-4.722
		c-1.296,0.146-2.583,0.387-3.869,0.611c-23.963,4.171-47.925,8.343-71.887,12.52c-9.647,1.682-19.292,3.376-30.116,5.271
		c2.196,1.934,3.794,3.15,5.167,4.581c8.512,8.865,8.463,22.232-0.058,30.772c-8.521,8.54-21.94,8.655-30.77,0.123
		c-5.894-5.695-11.592-11.593-17.423-17.354c-4.041-3.993-8.159-7.908-11.799-11.43c2.847-3.166,5.266-5.858,7.886-8.771
		c9.632,9.665,19.081,19.182,28.574,28.656c4.824,4.814,11.181,5.059,15.496,0.694c4.308-4.358,3.992-10.648-0.85-15.498
		c-14.017-14.039-28.023-28.091-42.15-42.019c-1.178-1.161-3.225-2.015-4.878-2.031c-16.274-0.15-32.55-0.096-48.826-0.085
		c-0.909,0.001-1.817,0.135-2.803,0.214C231.881,459.813,231.881,482.338,231.881,505.297z M209.166,436.99
		c0,26.723,0,53.125,0,79.535c3.771,0,7.286,0,10.966,0c0-26.581,0-52.98,0-79.535C216.422,436.99,212.907,436.99,209.166,436.99z"
		/>
	<path fill="#373535" d="M257.397,322.707c0.103-44.21,35.958-79.915,80.169-79.834c43.878,0.081,79.684,36.119,79.562,80.079
		c-0.122,44.132-36.061,79.76-80.345,79.65C293.121,402.494,257.296,366.44,257.397,322.707z M268.819,322.571
		c0.065,38.015,30.754,68.703,68.63,68.627c37.663-0.075,68.358-30.936,68.273-68.644c-0.086-37.819-30.952-68.354-69-68.257
		C299.525,254.392,268.755,285.329,268.819,322.571z"/>
	<path fill="#373535" d="M354.555,345.681c3.724,0,7.253,0,11.213,0c-0.337,10.027-4.331,17.963-12.543,23.425
		c-9.758,6.491-20.104,6.875-30.258,1.046c-9.209-5.287-13.746-13.607-14.247-24.422c3.849,0,7.375,0,11.235,0
		c0.531,5.682,2.587,10.977,7.765,13.808c3.27,1.788,7.358,2.983,11.05,2.913C347.212,362.293,353.139,355.65,354.555,345.681z"/>
	<path fill="#373535" d="M308.796,328.455c-9.307,0.042-17.058-7.588-17.159-16.891c-0.103-9.525,7.552-17.311,17.047-17.338
		c9.335-0.026,17.085,7.582,17.182,16.869C325.965,320.569,318.252,328.413,308.796,328.455z M308.876,317.019
		c3.051-0.06,5.593-2.682,5.553-5.729c-0.04-3.084-2.576-5.619-5.646-5.643c-3.22-0.026-5.854,2.689-5.727,5.903
		C303.177,314.61,305.804,317.079,308.876,317.019z"/>
	<path fill="#373535" d="M382.912,311.144c0.076,9.471-7.659,17.293-17.118,17.312c-9.304,0.019-17.031-7.631-17.111-16.939
		c-0.081-9.52,7.596-17.284,17.095-17.289C375.109,294.222,382.838,301.852,382.912,311.144z M365.949,305.646
		c-3.076-0.09-5.706,2.352-5.846,5.429c-0.146,3.195,2.482,5.935,5.699,5.943c3.052,0.007,5.644-2.556,5.673-5.609
		C371.505,308.333,369.015,305.736,365.949,305.646z"/>
</g>
</svg>
