<?xml version="1.0" encoding="utf-8"?>
<!-- Generator: Adobe Illustrator 23.0.4, SVG Export Plug-In . SVG Version: 6.00 Build 0)  -->
<svg version="1.1" id="Layer_1" xmlns="http://www.w3.org/2000/svg" xmlns:xlink="http://www.w3.org/1999/xlink" x="0px" y="0px"
	 viewBox="0 0 198 73" style="enable-background:new 0 0 198 73;" xml:space="preserve">
<style type="text/css">
	.st0{fill-rule:evenodd;clip-rule:evenodd;fill:#EDAD0C;}
	.st1{fill-rule:evenodd;clip-rule:evenodd;fill:#C49102;}
	.st2{fill-rule:evenodd;clip-rule:evenodd;fill:#9E7416;}
	.st3{fill-rule:evenodd;clip-rule:evenodd;fill:#382D94;}
</style>
<g>
	<g id="ghY4u3.tif">
		<g>
			<path class="st0" d="M9.6,14.5c2.2-1.1,4.6-1.8,7-2.6c9.3-3.4,18.6-6.7,27.9-10c2.9-1,5.6,0.2,6.4,2.8c0.2,0.5,0.2,1.1,0.2,1.6
				c0,11.1,0,22.2,0,33.3c0,3.2-1.8,5.9-4.8,7c-4.7,1.7-9.4,3.3-14.1,4.9c0-0.5-0.1-0.9-0.1-1.4c0-5.2,0-10.4,0-15.6
				c0-3.9-1.9-6.6-5.6-7.9c-5.3-1.9-10.6-3.9-15.9-5.9c-2.2-0.8-3-3.2-1.8-5.3c0.1-0.2,0.5-0.4,0.4-0.8l0,0
				C9.4,14.8,9.6,14.8,9.6,14.5z"/>
			<path class="st1" d="M9.2,14.6C9.3,15,9,15.1,8.8,15.4c-1.2,2.1-0.4,4.4,1.8,5.3c5.3,2,10.6,3.9,15.9,5.9c3.7,1.3,5.6,4,5.6,7.9
				c0,5.2,0,10.4,0,15.6c0,0.5,0,0.9,0.1,1.4l-0.1,0.1C25,54,18,56.5,10.9,59c-1.2,0.4-2.1,1.1-2.5,2.4c-0.5,1.6,0.1,2.8,1,4
				C8.2,64.8,7,64,6.3,62.8c-0.1-0.1-0.1-0.2-0.2-0.3l0,0c0-0.2-0.1-0.4-0.2-0.5l0,0c0-0.2,0-0.4-0.2-0.5l0,0c0-0.3,0-0.6-0.3-0.7
				v-0.1c0-0.2,0-0.5-0.2-0.6c-0.1-0.1-0.1-0.2,0-0.3c0-7.8,0-15.6,0-23.4c0-5.5,0-11,0-16.6c-0.1-0.1-0.1-0.2,0-0.3
				c0.5-0.4,0.5-0.9,0.5-1.4C6.4,16.5,7.5,15.3,9.2,14.6z"/>
			<path class="st2" d="M9.4,65.4c-0.9-1.2-1.6-2.5-1-4c0.4-1.2,0.9-2,2.5-2.4c7.1-2.5,14.1-5,21.2-7.5c0,5.2,0.1,10.4,0,15.6
				c-0.1,3.3-3.2,5.3-6.3,4.2C20.4,69.4,14.9,67.6,9.4,65.4z"/>
			<path class="st1" d="M5.2,19.9c0,5.5,0,11,0,16.6c0,7.8,0,15.6,0,23.4c-0.4-0.5-0.2-1-0.2-1.5C5,46,5,33.8,5,21.5
				C5,21,4.9,20.4,5.2,19.9z"/>
			<path class="st1" d="M5.7,18.2c0,0.5,0,1-0.5,1.4C5.2,19.1,5.4,18.6,5.7,18.2z"/>
			<path class="st3" d="M6.2,62.5c0.1,0.1,0.1,0.2,0.2,0.3C6.3,62.7,6.3,62.6,6.2,62.5z"/>
		</g>
	</g>
</g>
<g>
	<path d="M81,23.6c0,5.4-3.8,8.7-8.8,8.7c-5.6,0-9.6-4.1-9.6-9.2c0-5.2,4.1-9.3,9.3-9.3c3.4,0,6.3,1.7,7.8,4.1l-3.5,2
		c-0.7-1.2-2.3-2.1-4.3-2.1c-3,0-5.2,2.2-5.2,5.3c0,3,2.1,5.2,5.6,5.2c2.4,0,3.9-1,4.5-2.7h-4.7V22H81V23.6z"/>
	<path d="M95.3,24.2V32h-3.8v-7.2c0-1.6-1-2.3-2.2-2.3c-1.4,0-2.4,0.8-2.4,2.6V32h-3.8V14.3h3.8v6.3c0.7-0.9,2-1.5,3.6-1.5
		C93.1,19,95.3,20.8,95.3,24.2z"/>
	<path d="M97.3,25.7c0-3.8,3-6.7,6.7-6.7s6.7,2.9,6.7,6.7s-3,6.7-6.7,6.7S97.3,29.5,97.3,25.7z M106.9,25.7c0-1.8-1.3-3-2.9-3
		s-2.9,1.2-2.9,3s1.3,3,2.9,3S106.9,27.5,106.9,25.7z"/>
	<path d="M122.5,28.2c0,2.9-2.5,4.2-5.3,4.2c-2.5,0-4.5-1-5.5-3l3.3-1.9c0.3,1,1,1.5,2.2,1.5c0.9,0,1.4-0.3,1.4-0.8
		c0-1.4-6.2-0.7-6.2-5c0-2.8,2.3-4.2,5-4.2c2.1,0,3.9,0.9,4.9,2.7l-3.2,1.8c-0.4-0.7-0.9-1.1-1.7-1.1c-0.7,0-1.1,0.3-1.1,0.7
		C116.3,24.5,122.5,23.5,122.5,28.2z"/>
	<path d="M128.8,23v4.5c0,1.1,0.9,1.2,2.6,1.1V32c-5,0.5-6.4-1-6.4-4.5V23h-2v-3.7h2v-2.4l3.8-1.1v3.6h2.6V23H128.8z"/>
	<path d="M147.3,25.7c0,3.8-2.7,6.7-6.1,6.7c-1.7,0-2.9-0.6-3.8-1.5V32h-3.8V14.3h3.8v6.3c0.8-1,2.1-1.5,3.8-1.5
		C144.5,19,147.3,21.9,147.3,25.7z M143.5,25.7c0-1.9-1.3-3.1-3-3.1s-3,1.2-3,3.1s1.3,3.1,3,3.1S143.5,27.6,143.5,25.7z"/>
	<path d="M148.8,25.7c0-3.8,3-6.7,6.7-6.7s6.7,2.9,6.7,6.7s-3,6.7-6.7,6.7S148.8,29.5,148.8,25.7z M158.4,25.7c0-1.8-1.3-3-2.9-3
		s-2.9,1.2-2.9,3s1.3,3,2.9,3S158.4,27.5,158.4,25.7z"/>
	<path d="M163.8,25.7c0-3.8,3-6.7,6.7-6.7s6.7,2.9,6.7,6.7s-3,6.7-6.7,6.7S163.8,29.5,163.8,25.7z M173.4,25.7c0-1.8-1.3-3-2.9-3
		s-2.9,1.2-2.9,3s1.3,3,2.9,3S173.4,27.5,173.4,25.7z"/>
	<path d="M187.2,32l-4.1-5.6V32h-3.8V14.3h3.8v10.6l3.8-5.6h4.4l-4.6,6.3l4.7,6.3L187.2,32L187.2,32z"/>
	<path d="M62.1,44.7h4.3l3.1,12.4l3.4-12.4h3.3l3.4,12.4l3.1-12.4H87l-5,17.8h-4.6L74.5,52l-2.9,10.5H67L62.1,44.7z"/>
	<path d="M95.2,49.5v4.3c-1.6-0.3-3.8,0.4-3.8,2.9v5.7h-3.8V49.8h3.8v2.3C91.9,50.4,93.6,49.5,95.2,49.5z"/>
	<path d="M96.6,46.4c0-1.2,1-2.3,2.3-2.3c1.2,0,2.3,1,2.3,2.3c0,1.2-1,2.3-2.3,2.3S96.6,47.6,96.6,46.4z M97,49.8h3.8v12.7H97V49.8z
		"/>
	<path d="M108.4,53.4v4.5c0,1.1,0.9,1.2,2.6,1.1v3.5c-5,0.5-6.4-1-6.4-4.5v-4.5h-2v-3.7h2v-2.4l3.8-1.1v3.6h2.6v3.7h-2.6V53.4z"/>
	<path d="M119.4,59.4c1,0,1.9-0.4,2.4-1l3,1.8c-1.2,1.7-3.1,2.6-5.5,2.6c-4.3,0-7-2.9-7-6.7s2.7-6.7,6.8-6.7c3.7,0,6.4,2.9,6.4,6.7
		c0,0.5-0.1,1-0.2,1.5h-9C116.8,59,118,59.4,119.4,59.4z M121.7,54.8c-0.4-1.5-1.5-2-2.7-2c-1.4,0-2.4,0.7-2.8,2H121.7z"/>
	<path d="M135.2,49.5v4.3c-1.6-0.3-3.8,0.4-3.8,2.9v5.7h-3.8V49.8h3.8v2.3C131.9,50.4,133.6,49.5,135.2,49.5z"/>
	<path d="M146.5,58.7c0,2.9-2.5,4.2-5.3,4.2c-2.5,0-4.5-1-5.5-3L139,58c0.3,1,1,1.5,2.2,1.5c0.9,0,1.4-0.3,1.4-0.8
		c0-1.4-6.2-0.7-6.2-5c0-2.8,2.3-4.2,5-4.2c2.1,0,3.9,0.9,4.9,2.7l-3.2,1.8c-0.4-0.7-0.9-1.1-1.7-1.1c-0.7,0-1.1,0.3-1.1,0.7
		C140.2,54.9,146.5,54,146.5,58.7z"/>
</g>
<polygon class="st0" points="10.7,14 9.2,14.6 9.5,15.2 10.3,14.7 "/>
<path class="st1" d="M5,21.5c0,0-0.3-2.5,1.5-4.8l1,2.4L5,21.5z"/>
<path class="st1" d="M5,57.6c0,0-0.7,5.8,4.4,7.8C9.4,65.4,5,62.7,5,57.6z"/>
</svg>
