<?xml version="1.0" encoding="utf-8"?>
<!-- Generator: Adobe Illustrator 16.0.4, SVG Export Plug-In . SVG Version: 6.00 Build 0)  -->
<!DOCTYPE svg PUBLIC "-//W3C//DTD SVG 1.1//EN" "http://www.w3.org/Graphics/SVG/1.1/DTD/svg11.dtd">
<svg version="1.1" id="Layer_1" xmlns="http://www.w3.org/2000/svg" xmlns:xlink="http://www.w3.org/1999/xlink" x="0px" y="0px"
	 width="50px" height="50px" viewBox="0 0 50 50" enable-background="new 0 0 50 50" xml:space="preserve">
<g id="dO9TbU.tif">
	<g>
		<path fill-rule="evenodd" clip-rule="evenodd" d="M28.317,47.498c0,0.188,0.005,0.362-0.002,0.537
			c-0.03,0.859-0.556,1.428-1.408,1.445c-1.26,0.027-2.521,0.025-3.781-0.001c-0.831-0.018-1.352-0.59-1.365-1.419
			c-0.002-0.177,0-0.355,0-0.567c-0.171-0.013-0.314-0.032-0.456-0.032c-3.616-0.001-7.232,0.001-10.849-0.007
			c-0.32,0-0.522,0.063-0.707,0.371c-0.763,1.275-2.249,1.854-3.638,1.465c-1.41-0.393-2.4-1.664-2.416-3.102
			c-0.016-1.438,0.908-2.729,2.267-3.167c1.407-0.453,2.912,0.067,3.733,1.329c0.187,0.286,0.38,0.38,0.706,0.376
			c1.423-0.015,2.847-0.007,4.271-0.01c0.023,0,0.047-0.028,0.103-0.064c-0.108-0.083-0.202-0.162-0.302-0.23
			c-4.839-3.216-7.716-7.703-8.687-13.42c-0.069-0.401-0.108-0.811-0.127-1.218c-0.012-0.272-0.114-0.356-0.384-0.368
			c-1.25-0.059-1.655-0.486-1.66-1.725c-0.003-1.081-0.004-2.161,0.004-3.241c0.008-1.018,0.527-1.55,1.54-1.562
			c1.161-0.012,2.323-0.016,3.485,0.001c1.027,0.015,1.518,0.531,1.52,1.559c0.005,1.13,0.002,2.259,0,3.389
			c0,1.078-0.443,1.536-1.533,1.585c-0.063,0.002-0.125,0.015-0.262,0.032c0.315,3.571,1.599,6.721,3.903,9.435
			c2.494,2.937,5.65,4.781,9.423,5.587c0.237-1.213,0.612-1.524,1.807-1.526c1-0.002,1.997,0.002,2.994,0.002
			c1.249,0.001,1.598,0.273,1.866,1.458c6.582-1.051,12.808-7.232,13.305-14.991c-0.195,0-0.387,0.008-0.577-0.001
			c-0.683-0.035-1.251-0.578-1.26-1.261c-0.017-1.326-0.017-2.651,0-3.976c0.007-0.656,0.488-1.229,1.15-1.251
			c1.405-0.047,2.813-0.045,4.217,0c0.676,0.022,1.157,0.621,1.168,1.351c0.021,1.244,0.026,2.489,0.002,3.731
			c-0.017,0.862-0.58,1.388-1.434,1.413c-0.146,0.005-0.291,0.001-0.481,0.001c-0.263,3.126-1.154,6.032-2.764,8.707
			c-1.612,2.677-3.778,4.812-6.369,6.589c1.22,0,2.44,0,3.658,0c0.165,0,0.331-0.027,0.491,0.001c0.46,0.079,0.723-0.11,0.985-0.499
			c0.817-1.21,2.422-1.668,3.79-1.15c1.335,0.505,2.255,1.928,2.112,3.271c-0.169,1.607-1.234,2.771-2.757,3.011
			c-1.342,0.21-2.598-0.389-3.344-1.567c-0.094-0.148-0.305-0.314-0.462-0.316c-3.748-0.015-7.495-0.01-11.243-0.008
			C28.491,47.465,28.427,47.481,28.317,47.498z"/>
		<path fill-rule="evenodd" clip-rule="evenodd" d="M23.694,39.755c-0.65-1.083-1.236-2.057-1.818-3.035
			c-2.868-4.816-5.726-9.636-8.6-14.447c-0.416-0.692-0.444-1.327-0.023-2.02c0.932-1.537,1.847-3.084,2.752-4.637
			c0.152-0.262,0.326-0.341,0.622-0.341c5.597,0.008,11.193,0.002,16.788,0.017c0.181,0,0.437,0.141,0.53,0.293
			c0.96,1.576,1.894,3.169,2.842,4.753c0.361,0.605,0.366,1.193,0.005,1.803c-3.431,5.754-6.857,11.511-10.285,17.267
			c-0.047,0.08-0.104,0.154-0.253,0.22c0-0.414,0-0.827,0-1.24c0-3.518,0.007-7.036-0.002-10.554
			c-0.002-0.331,0.087-0.513,0.396-0.681c1.471-0.798,2.124-2.507,1.593-4.07c-0.53-1.56-2.126-2.546-3.736-2.307
			c-1.633,0.243-2.921,1.66-2.931,3.317c-0.009,1.367,0.615,2.405,1.809,3.103c0.16,0.092,0.338,0.324,0.338,0.493
			c0.019,3.926,0.014,7.853,0.014,11.78C23.734,39.518,23.72,39.566,23.694,39.755z"/>
		<path fill-rule="evenodd" clip-rule="evenodd" d="M33.512,12.799c-5.7,0-11.341,0-17.034,0c-0.171-1.149-0.345-2.29-0.512-3.431
			c-0.345-2.327-0.673-4.654-1.03-6.979c-0.178-1.158,0.39-1.883,1.572-1.884c5.663-0.008,11.325-0.007,16.985,0
			c1.18,0.001,1.734,0.727,1.558,1.891c-0.425,2.793-0.819,5.591-1.228,8.386C33.728,11.443,33.62,12.103,33.512,12.799z"/>
	</g>
</g>
</svg>
