<?xml version="1.0" encoding="utf-8"?>
<!-- Generator: Adobe Illustrator 17.0.0, SVG Export Plug-In . SVG Version: 6.00 Build 0)  -->
<!DOCTYPE svg PUBLIC "-//W3C//DTD SVG 1.1//EN" "http://www.w3.org/Graphics/SVG/1.1/DTD/svg11.dtd">
<svg version="1.1" id="Layer_1" xmlns="http://www.w3.org/2000/svg" xmlns:xlink="http://www.w3.org/1999/xlink" x="0px" y="0px"
	 width="43px" height="48px" viewBox="0 0 43 48" enable-background="new 0 0 43 48" xml:space="preserve">
<g>
	<path fill="#FF6243" d="M10.193,26.458c0.001-0.484,0.002-0.967,0.003-1.451c-0.001-0.123-0.002-0.247-0.003-0.37
		c0.006-0.485,0.012-0.97,0.018-1.455c0.019-0.153,0.039-0.305,0.058-0.458c0.102-0.545,0.205-1.091,0.307-1.636
		c0.1-0.2,0.166-0.411,0.187-0.634c0.279-0.584,0.487-1.2,0.827-1.755c0.729,0.528,1.457,1.055,2.241,1.622
		c-0.211-1.348-0.409-2.615-0.608-3.882c0.147-0.144,0.293-0.289,0.44-0.434c0.063-0.01,0.126-0.019,0.189-0.029
		c0.455-0.001,0.909-0.001,1.364-0.002c0.152,0.001,0.304,0.001,0.457,0.002c1.82,0.09,2.997-0.882,3.29-2.717
		c0.075,0,0.154,0.014,0.226-0.003c1.105-0.264,2.22-0.155,3.332-0.085c0.567,0.036,1.106,0.269,1.681,0.269
		c0.144,0.18,0.368,0.168,0.56,0.233c0.098,0.037,0.195,0.075,0.292,0.112c0.327,0.142,0.654,0.283,0.982,0.425
		c0.095,0.048,0.19,0.097,0.285,0.145c0.263,0.156,0.527,0.313,0.79,0.469c0.072,0.087,0.158,0.154,0.27,0.181
		c0.281,0.217,0.562,0.434,0.842,0.651c0.094,0.084,0.187,0.167,0.28,0.251c0.183,0.18,0.365,0.36,0.548,0.539
		c0.118,0.129,0.237,0.259,0.355,0.388c0.162,0.203,0.324,0.407,0.485,0.61c0.073,0.096,0.145,0.192,0.218,0.288
		c0.169,0.268,0.338,0.536,0.506,0.805c0.056,0.092,0.113,0.183,0.169,0.275c0.144,0.306,0.289,0.613,0.433,0.919
		c0.008,0.083,0.017,0.167,0.025,0.25c-0.128,0.402-0.24,0.809-0.385,1.205c-0.881,2.405-2.07,4.657-3.486,6.784
		c-1.137,1.708-2.466,3.272-3.899,4.74c-0.747,0.765-1.556,1.468-2.338,2.199c-0.333,0.015-0.667,0.03-1,0.045
		c-1.076,0.128-1.636,0.809-1.915,1.79c-0.707,0.291-1.14,0.871-1.552,1.473c-0.058-0.006-0.115-0.012-0.173-0.018
		c-0.315-0.194-0.649-0.347-1.004-0.456c-0.068-0.095-0.175-0.117-0.277-0.149c-0.302-0.132-0.604-0.264-0.907-0.396
		c-0.101-0.102-0.225-0.155-0.365-0.174c-0.286-0.166-0.581-0.311-0.897-0.409c-0.071-0.031-0.142-0.061-0.213-0.092
		c-0.342-0.199-0.693-0.379-1.073-0.496c-0.088-0.04-0.176-0.08-0.264-0.12c-0.369-0.226-0.765-0.303-1.191-0.219
		c-0.034-0.012-0.068-0.025-0.102-0.037c-0.002-0.515-0.004-1.029-0.006-1.544c-0.001-0.123-0.002-0.247-0.003-0.37
		c0.001-0.484,0.002-0.967,0.003-1.451c-0.001-0.123-0.002-0.247-0.003-0.37c0.001-0.484,0.002-0.967,0.003-1.451
		c-0.001-0.123-0.002-0.247-0.003-0.37c0.001-0.484,0.002-0.967,0.003-1.451c-0.001-0.123-0.002-0.247-0.003-0.37
		c0.001-0.484,0.002-0.967,0.003-1.451C10.195,26.705,10.194,26.581,10.193,26.458z M21.841,21.089c0,0.001,0,0.001,0,0.002
		c0.379,0,0.758,0,1.138,0c1.155-0.001,1.147-0.001,1.075-1.156c-0.015-0.246-0.111-0.308-0.333-0.304
		c-0.5,0.009-1.002-0.011-1.501,0.007c-0.282,0.01-0.38-0.092-0.361-0.368c0.018-0.272,0-0.546,0.006-0.819
		c0.004-0.187-0.069-0.258-0.264-0.279c-1.158-0.123-1.179-0.109-1.195,1.029c0,0.015-0.002,0.031,0,0.045
		c0.041,0.293-0.078,0.386-0.379,0.393c-1.302,0.031-2.198,0.795-2.492,2.089c-0.237,1.042,0.359,2.192,1.424,2.729
		c1.232,0.621,2.469,1.231,3.701,1.853c0.508,0.257,0.756,0.746,0.645,1.228c-0.12,0.524-0.537,0.83-1.149,0.831
		c-0.956,0.003-1.911-0.001-2.867-0.001c-1.155,0.001-1.147,0.001-1.075,1.156c0.015,0.246,0.111,0.308,0.333,0.304
		c0.5-0.009,1.002,0.011,1.501-0.007c0.282-0.01,0.38,0.092,0.361,0.368c-0.018,0.272,0,0.546-0.006,0.819
		c-0.004,0.187,0.069,0.258,0.264,0.279c1.158,0.123,1.179,0.109,1.195-1.029c0-0.015,0.002-0.031,0-0.045
		c-0.041-0.293,0.078-0.386,0.379-0.393c1.302-0.031,2.198-0.795,2.492-2.089c0.237-1.042-0.359-2.192-1.424-2.729
		c-1.245-0.628-2.497-1.244-3.74-1.876c-0.478-0.243-0.712-0.74-0.606-1.205c0.117-0.511,0.529-0.826,1.104-0.831
		C20.658,21.085,21.25,21.089,21.841,21.089z"/>
	<path fill="#4396CE" d="M35.702,45.109c0.001-3.15,0.003-6.301,0.004-9.451c0.09-0.006,0.18-0.013,0.27-0.019
		c0.484-0.001,0.967-0.002,1.451-0.003c0.123,0.001,0.247,0.002,0.37,0.003c0.484-0.001,0.967-0.002,1.451-0.003
		c0.123,0.001,0.247,0.002,0.37,0.003c0.484-0.001,0.967-0.002,1.451-0.003c0.123,0.001,0.247,0.002,0.37,0.003
		c0.484-0.001,0.967-0.002,1.451-0.003c0.037,0.037,0.074,0.074,0.111,0.111c-0.001,0.484-0.002,0.967-0.003,1.451
		c0.001,0.123,0.002,0.247,0.003,0.37c-0.001,0.484-0.002,0.967-0.003,1.451c0.001,0.123,0.002,0.247,0.003,0.37
		c-0.001,0.484-0.002,0.967-0.003,1.451c0.001,0.123,0.002,0.247,0.003,0.37c-0.001,0.484-0.002,0.967-0.003,1.451
		c0.001,0.123,0.002,0.247,0.003,0.37c-0.001,0.484-0.002,0.967-0.003,1.451c0.001,0.123,0.002,0.247,0.003,0.37
		c0.012,0.205-0.084,0.301-0.289,0.289c-0.123-0.001-0.247-0.002-0.37-0.003c-0.484,0.001-0.967,0.002-1.451,0.003
		c-0.123-0.001-0.247-0.002-0.37-0.003c-0.484,0.001-0.967,0.002-1.451,0.003c-0.123-0.001-0.247-0.002-0.37-0.003
		c-0.484,0.001-0.967,0.002-1.451,0.003c-0.123-0.001-0.247-0.002-0.37-0.003C36.486,45.127,36.094,45.118,35.702,45.109z
		 M38.581,42.936c0.813-0.011,0.76,0.111,0.756-0.549c-0.006-0.983,0.113-0.901-0.49-0.906c-0.964-0.009-0.964-0.004-0.965,0.935
		C37.882,42.936,37.882,42.936,38.581,42.936z"/>
	<path fill="#FE3401" d="M21.135,34.911c0.781-0.731,1.591-1.434,2.338-2.199c1.433-1.468,2.762-3.032,3.899-4.74
		c1.416-2.126,2.605-4.379,3.486-6.784c0.145-0.396,0.258-0.803,0.385-1.205c0.042,0.04,0.084,0.08,0.126,0.12
		c0.114,0.357,0.228,0.715,0.341,1.072c0.029,0.093,0.059,0.186,0.088,0.279c0.062,0.393,0.125,0.787,0.187,1.18
		c0.026,0.122,0.053,0.245,0.079,0.367c0.002,0.484,0.005,0.968,0.007,1.452c0.001,0.123,0.002,0.246,0.003,0.37
		c-0.001,0.484-0.002,0.967-0.003,1.451c0.001,0.123,0.002,0.246,0.003,0.37c-0.001,0.484-0.002,0.967-0.003,1.451
		c0.001,0.123,0.002,0.246,0.003,0.37c-0.001,0.484-0.002,0.967-0.003,1.451c0.001,0.123,0.002,0.246,0.003,0.37
		c-0.001,0.484-0.002,0.967-0.003,1.451c0.001,0.123,0.002,0.246,0.003,0.37c-0.005,0.583-0.01,1.165-0.015,1.748
		c-0.094,0-0.187,0-0.281,0c-0.448-0.102-0.9-0.149-1.36-0.107c-0.122,0-0.244,0-0.366,0c-0.593-0.028-1.171,0.047-1.729,0.256
		c-0.229-0.004-0.437,0.069-0.635,0.177c-0.347,0.055-0.649,0.227-0.965,0.365c-0.366,0.16-0.692,0.437-1.129,0.398
		c-0.152-0.001-0.305-0.002-0.457-0.003c-0.454,0.001-0.909,0.002-1.363,0.003c-0.152-0.001-0.305-0.002-0.457-0.003
		c-0.454,0.001-0.909,0.002-1.363,0.003c-0.152-0.001-0.305-0.002-0.457-0.003C21.376,34.93,21.256,34.92,21.135,34.911z"/>
	<path fill="#FE3401" d="M24.202,13.441c-0.575,0-1.113-0.233-1.681-0.269c-1.112-0.071-2.227-0.18-3.332,0.085
		c-0.071,0.017-0.15,0.003-0.226,0.003c-0.009-0.182-0.018-0.364-0.028-0.545c-0.001-0.152-0.001-0.304-0.002-0.457
		c0.001-0.455,0.001-0.909,0.002-1.364c-0.001-0.152-0.001-0.304-0.002-0.457c0.001-0.455,0.001-0.909,0.002-1.364
		c-0.001-0.152-0.001-0.304-0.002-0.457c0.001-0.455,0.001-0.909,0.002-1.364c0.01-0.098,0.019-0.196,0.029-0.294
		c0.082,0.016,0.164,0.032,0.247,0.048c0.287,0.165,0.579,0.32,0.914,0.363c0.107,0.087,0.237,0.075,0.362,0.084
		c0.492,0.129,0.98,0.117,1.465-0.034c0.262-0.025,0.51-0.089,0.728-0.245c0.58-0.261,1.191-0.402,1.822-0.463
		c0.123,0.015,0.245,0.03,0.368,0.045c0.393,0.077,0.785,0.153,1.178,0.23c0.101,0.102,0.234,0.086,0.359,0.099
		c0.532,0.183,0.532,0.183,0.325,0.718c-0.137,0.258-0.273,0.516-0.342,0.803c-0.371,0.825-0.743,1.649-1.114,2.474
		c-0.137,0.258-0.273,0.516-0.342,0.803C24.689,12.404,24.445,12.923,24.202,13.441z"/>
	<path fill="#FCC04F" d="M21.841,21.089c-0.592,0-1.183-0.004-1.775,0.001c-0.575,0.005-0.987,0.32-1.104,0.831
		c-0.107,0.466,0.127,0.962,0.606,1.205c1.243,0.632,2.495,1.248,3.74,1.876c1.065,0.537,1.661,1.687,1.424,2.729
		c-0.294,1.294-1.19,2.058-2.492,2.089c-0.301,0.007-0.42,0.1-0.379,0.393c0.002,0.015,0,0.03,0,0.045
		c-0.015,1.139-0.037,1.152-1.195,1.029c-0.195-0.021-0.268-0.092-0.264-0.279c0.006-0.273-0.012-0.547,0.006-0.819
		c0.018-0.275-0.079-0.378-0.361-0.368c-0.5,0.018-1.001-0.002-1.501,0.007c-0.222,0.004-0.318-0.058-0.333-0.304
		c-0.072-1.155-0.08-1.155,1.075-1.156c0.956,0,1.911,0.003,2.867,0.001c0.612-0.002,1.029-0.307,1.149-0.831
		c0.11-0.481-0.137-0.971-0.645-1.228c-1.231-0.622-2.469-1.232-3.701-1.853c-1.065-0.537-1.661-1.687-1.424-2.729
		c0.294-1.294,1.191-2.058,2.492-2.089c0.301-0.007,0.42-0.1,0.379-0.393c-0.002-0.015,0-0.03,0-0.045
		c0.015-1.139,0.037-1.152,1.195-1.029c0.195,0.021,0.268,0.092,0.264,0.279c-0.006,0.273,0.012,0.547-0.006,0.819
		c-0.018,0.275,0.079,0.378,0.361,0.368c0.5-0.018,1.001,0.002,1.501-0.007c0.222-0.004,0.318,0.058,0.333,0.304
		c0.072,1.155,0.08,1.155-1.075,1.156c-0.379,0-0.758,0-1.138,0C21.841,21.09,21.841,21.089,21.841,21.089z"/>
	<path fill="#FF6243" d="M18.251,36.839c-0.139,0.435,0.04,0.819,0.199,1.205c0.052,0.13,0.104,0.261,0.22,0.352
		c0.199,0.313,0.47,0.539,0.816,0.672c0.059,0.026,0.118,0.052,0.177,0.078c0.003,0.047,0.007,0.094,0.01,0.141
		c-0.089,0.008-0.178,0.016-0.267,0.025c-0.152-0.002-0.305-0.005-0.457-0.007c-0.302-0.131-0.603-0.262-0.905-0.393
		c-0.073-0.033-0.147-0.067-0.22-0.1c-0.305-0.172-0.614-0.335-0.952-0.436c-0.068-0.052-0.137-0.104-0.205-0.156
		c0.412-0.602,0.845-1.182,1.552-1.473C18.23,36.777,18.24,36.808,18.251,36.839z"/>
	<path fill="#EDA588" d="M19.672,39.287c-0.003-0.047-0.007-0.094-0.01-0.141c0.12-0.305,0.305-0.535,0.654-0.582
		c0.484-0.001,0.969-0.002,1.453-0.003c0.123,0.001,0.245,0.002,0.368,0.003c0.484-0.001,0.969-0.002,1.453-0.003
		c0.123,0.001,0.245,0.002,0.368,0.003c0.484-0.001,0.969-0.002,1.453-0.003c0.123,0.001,0.245,0.002,0.368,0.003
		c0.406-0.075,0.746,0.108,1.09,0.278c0.002,0.074,0.018,0.142,0.092,0.18c-0.002,0.791-0.205,1.001-0.979,1.002
		c-1.827,0.002-3.655,0.003-5.482,0.004c-0.121-0.003-0.242-0.006-0.364-0.008C19.885,39.836,19.662,39.635,19.672,39.287z"/>
	<path fill="#136097" d="M38.581,42.936c-0.699,0-0.699,0-0.699-0.52c0-0.939,0.001-0.945,0.965-0.935
		c0.603,0.006,0.485-0.077,0.49,0.906C39.341,43.047,39.394,42.925,38.581,42.936z"/>
	<path fill="#FE3401" d="M15.3,12.076c-0.119,0.162-0.16,0.35-0.184,0.544c-0.282,0.381-0.613,0.712-0.994,0.994
		c-0.194,0.025-0.382,0.066-0.544,0.185c-0.428,0.037-0.849-0.011-1.267-0.098c-0.094-0.055-0.187-0.109-0.281-0.164
		c-0.213-0.183-0.425-0.366-0.638-0.548c-0.088-0.125-0.175-0.25-0.263-0.376c-0.061-0.361-0.239-0.701-0.2-1.08
		c0.004-0.122,0.008-0.243,0.012-0.365c0.284-0.866,0.86-1.441,1.726-1.726c0.123-0.004,0.245-0.008,0.368-0.012
		c0.379-0.04,0.717,0.14,1.078,0.199c0.125,0.088,0.25,0.175,0.376,0.263c0.208,0.222,0.415,0.443,0.623,0.665
		c0.008,0.091,0.002,0.187,0.088,0.251C15.29,11.225,15.337,11.648,15.3,12.076z M13.851,11.616
		c-0.002-0.403-0.307-0.711-0.711-0.719c-0.424-0.008-0.745,0.308-0.742,0.732c0.003,0.405,0.306,0.713,0.709,0.721
		C13.527,12.357,13.853,12.036,13.851,11.616z"/>
	<path fill="#FE3401" d="M6.113,5.061c0.122,0.031,0.244,0.061,0.366,0.091c0.243,0.124,0.486,0.247,0.729,0.371
		c0.091,0.15,0.212,0.271,0.362,0.362c0.124,0.243,0.247,0.486,0.371,0.729c0.03,0.122,0.061,0.244,0.091,0.366
		C8.142,8.424,7.01,9.554,5.569,9.445C5.447,9.414,5.325,9.384,5.203,9.353C4.96,9.23,4.717,9.106,4.474,8.982
		C4.383,8.832,4.262,8.711,4.111,8.62C3.988,8.377,3.864,8.134,3.74,7.89C3.71,7.768,3.679,7.646,3.649,7.524
		C3.54,6.082,4.67,4.952,6.113,5.061z M6.568,7.263c0.005-0.402-0.295-0.721-0.694-0.738c-0.421-0.018-0.754,0.296-0.76,0.717
		C5.108,7.644,5.409,7.963,5.808,7.98C6.229,7.998,6.563,7.684,6.568,7.263z"/>
	<path fill="#FE3401" d="M12.833,5.44c0.039,0.083,0.077,0.166,0.116,0.249c-0.01,0.226-0.193,0.335-0.329,0.471
		c-2.142,2.146-4.288,4.289-6.43,6.435c-0.128,0.128-0.239,0.271-0.358,0.407C5.716,12.931,5.6,12.86,5.484,12.789
		c-0.144-0.181-0.083-0.318,0.069-0.469c2.274-2.267,4.544-4.538,6.812-6.812C12.516,5.357,12.652,5.296,12.833,5.44z"/>
	<path fill="#FE3401" d="M5.832,13.002c0.119-0.136,0.231-0.279,0.358-0.407c2.143-2.146,4.288-4.289,6.43-6.435
		c0.136-0.136,0.318-0.245,0.329-0.471c0.056,0.011,0.111,0.022,0.167,0.033c0.116,0.258,0.507,0.342,0.449,0.709
		c-0.53,0.518-1.064,1.031-1.588,1.554c-1.725,1.721-3.447,3.444-5.168,5.168c-0.117,0.117-0.223,0.245-0.334,0.368
		c-0.345,0.043-0.449-0.266-0.645-0.442C5.833,13.054,5.833,13.028,5.832,13.002z"/>
	<path fill="#F2C19D" d="M35.61,35.554c-0.326-0.098-0.553-0.351-0.827-0.53c-0.059-0.062-0.119-0.124-0.178-0.186
		c-0.334-0.152-0.668-0.303-1.002-0.455c-0.091-0.04-0.182-0.08-0.273-0.12c-0.395-0.03-0.736-0.289-1.143-0.265
		c-0.155,0.061-0.257,0.186-0.366,0.301c0.109-0.115,0.211-0.24,0.366-0.301c-0.042-0.048-0.083-0.096-0.125-0.145
		c-0.094,0-0.187,0-0.281,0l0,0c-0.448-0.102-0.9-0.149-1.359-0.107c-0.002,0.052-0.014,0.098-0.033,0.138
		c0.019-0.041,0.031-0.086,0.033-0.138c-0.122,0-0.244,0-0.366,0c-0.593-0.028-1.171,0.047-1.729,0.255
		c0,0.005-0.001,0.008-0.001,0.013c0-0.005,0.001-0.008,0.001-0.013c-0.229-0.004-0.437,0.069-0.635,0.177
		c-0.347,0.055-0.649,0.227-0.965,0.365c-0.366,0.16-0.692,0.437-1.129,0.398c-0.006,0.077-0.034,0.139-0.074,0.193
		c0.039-0.054,0.067-0.115,0.074-0.193c-0.152-0.001-0.305-0.002-0.457-0.003c-0.001,0.024-0.004,0.046-0.009,0.067
		c0.005-0.021,0.008-0.043,0.009-0.067c-0.454,0.001-0.909,0.002-1.363,0.003c-0.152-0.001-0.305-0.002-0.457-0.003
		c-0.454,0.001-0.909,0.002-1.363,0.003c-0.152-0.001-0.305-0.002-0.457-0.003c-0.121-0.009-0.242-0.019-0.363-0.028
		c-0.333,0.015-0.667,0.03-1,0.045c-0.254,0.334-0.527,0.65-0.819,0.947c0.292-0.297,0.565-0.613,0.819-0.947
		c-1.076,0.128-1.636,0.809-1.915,1.79c0.01,0.031,0.021,0.062,0.031,0.092c-0.139,0.435,0.04,0.819,0.199,1.205
		c0.661-0.549,1.25-1.171,1.848-1.785c-0.598,0.614-1.187,1.236-1.847,1.785c0.052,0.13,0.104,0.261,0.22,0.352
		c0.199,0.313,0.47,0.539,0.816,0.672c0,0,0,0,0,0c0.059,0.026,0.118,0.052,0.177,0.078c0.12-0.305,0.305-0.535,0.654-0.582
		c0.484-0.001,0.969-0.002,1.453-0.003c0.123,0.001,0.245,0.002,0.368,0.003c0.484-0.001,0.969-0.002,1.453-0.003
		c0.123,0.001,0.245,0.002,0.368,0.003c0.484-0.001,0.969-0.002,1.453-0.003c0.123,0.001,0.245,0.002,0.368,0.003
		c0.406-0.075,0.746,0.108,1.09,0.278c0.002,0.074,0.018,0.142,0.092,0.18c0.023,0,0.045-0.004,0.065-0.008
		c-0.021,0.004-0.042,0.007-0.065,0.008c-0.002,0.791-0.205,1.001-0.979,1.002c-1.827,0.002-3.655,0.003-5.482,0.004c0,0,0,0,0,0
		c-0.121-0.003-0.242-0.006-0.364-0.009c-0.131,0.138-0.26,0.278-0.391,0.416c0.13-0.139,0.26-0.278,0.391-0.417
		c-0.25-0.184-0.473-0.384-0.462-0.733c-0.089,0.008-0.178,0.016-0.267,0.025c-0.005,0.014-0.009,0.029-0.013,0.044
		c0.004-0.015,0.008-0.03,0.012-0.044c-0.152-0.002-0.305-0.005-0.457-0.007c-0.302-0.131-0.603-0.262-0.905-0.393
		c-0.321,0.389-0.673,0.748-1.032,1.1c0.359-0.353,0.71-0.712,1.032-1.1c-0.073-0.033-0.147-0.067-0.22-0.1c0,0,0,0,0,0
		c-0.305-0.172-0.614-0.335-0.952-0.436c-0.246,0.212-0.483,0.433-0.716,0.659c0.233-0.226,0.47-0.447,0.716-0.659
		c-0.068-0.052-0.137-0.104-0.205-0.156c-0.058-0.006-0.115-0.012-0.173-0.018c-0.315-0.194-0.649-0.347-1.004-0.456
		c-0.001,0.052-0.012,0.098-0.031,0.138c-0.018,0.041-0.044,0.076-0.073,0.11c0.029-0.033,0.055-0.069,0.073-0.11
		c0.018-0.041,0.03-0.086,0.031-0.138c-0.068-0.095-0.175-0.117-0.277-0.15c-0.302-0.132-0.604-0.264-0.907-0.396
		c-0.256,0.275-0.515,0.548-0.776,0.819c0.261-0.271,0.52-0.543,0.776-0.819c-0.101-0.102-0.225-0.155-0.365-0.174
		c-0.286-0.166-0.581-0.311-0.897-0.409c0,0,0,0,0,0c-0.071-0.031-0.142-0.061-0.214-0.092c-0.342-0.199-0.693-0.379-1.073-0.496
		c-0.021,0.051-0.032,0.112-0.057,0.159c0.025-0.047,0.036-0.108,0.057-0.159c-0.088-0.04-0.176-0.08-0.265-0.12
		c-0.369-0.226-0.765-0.303-1.191-0.219c-0.034-0.012-0.068-0.025-0.102-0.037C9.399,35.898,8.82,36.378,8.563,37.2
		c0.003,0.092,0.006,0.183,0.009,0.275c-0.01,0.062-0.021,0.123-0.031,0.185c0.05,0.308-0.015,0.643,0.215,0.908
		c0.005,0.06,0.011,0.119,0.016,0.179c0.059,0.06,0.119,0.12,0.178,0.181c-0.001,0.028,0,0.056,0.004,0.084
		c0.237,0.187,0.473,0.374,0.709,0.561c0.031,0,0.061-0.001,0.092-0.001c0,0,0,0,0,0c0.061,0.059,0.123,0.118,0.184,0.176
		c0.058,0.008,0.116,0.016,0.174,0.023c0.214,0.148,0.429,0.296,0.643,0.443c0.061,0.026,0.122,0.053,0.184,0.079c0,0,0,0,0,0
		c0.06,0.032,0.12,0.064,0.18,0.097c0.004,0.027,0.009,0.054,0.015,0.08c0.302,0.098,0.554,0.281,0.804,0.468
		c0.031,0,0.061-0.001,0.092-0.001c0,0,0,0,0,0c0.061,0.059,0.123,0.117,0.184,0.176c0.058,0.008,0.116,0.016,0.174,0.023
		c0.214,0.148,0.429,0.296,0.643,0.443c0.061,0.026,0.122,0.053,0.184,0.079c0.004-0.138,0.08-0.226,0.166-0.306
		c-0.086,0.08-0.162,0.169-0.166,0.306c0.06,0.032,0.12,0.065,0.18,0.097c0.004,0.027,0.009,0.054,0.015,0.08
		c0.302,0.098,0.554,0.281,0.804,0.468c0.031,0,0.061-0.001,0.092-0.001c0,0,0,0,0,0c0.061,0.059,0.123,0.117,0.184,0.176
		c0.058,0.008,0.116,0.016,0.174,0.023c0-0.018,0.002-0.035,0.004-0.051c-0.002,0.016-0.004,0.033-0.004,0.051
		c0.214,0.148,0.429,0.296,0.643,0.443c0.061,0.026,0.122,0.053,0.184,0.079c0.003-0.098,0.042-0.172,0.096-0.235
		c-0.054,0.063-0.093,0.137-0.096,0.235c0.06,0.032,0.12,0.065,0.179,0.097c0.004,0.027,0.009,0.054,0.015,0.08
		c0.302,0.097,0.554,0.281,0.805,0.468c0.031,0,0.061,0,0.092-0.001c0.061,0.059,0.123,0.117,0.184,0.176
		c0.058,0.007,0.116,0.015,0.174,0.022c0.214,0.148,0.429,0.296,0.643,0.444c0.126,0.085,0.252,0.17,0.379,0.255
		c0.299,0.125,0.597,0.251,0.896,0.377c0.092,0.032,0.183,0.063,0.275,0.095c0.453,0.032,0.906,0.064,1.36,0.096
		c0.124,0.002,0.247,0.004,0.371,0.006c0.483-0.002,0.966-0.004,1.449-0.006c0.124,0.002,0.247,0.004,0.371,0.006
		c4.124-0.002,8.249-0.004,12.373-0.006c0.124,0.002,0.247,0.004,0.371,0.006c0.091-0.009,0.182-0.018,0.274-0.028
		c0.001-3.15,0.003-6.301,0.004-9.451C35.674,35.623,35.642,35.589,35.61,35.554z M10.966,40.165
		c0.025-0.056,0.064-0.103,0.108-0.146C11.03,40.062,10.99,40.108,10.966,40.165z M11.124,38.601
		c0.182-0.187,0.368-0.369,0.554-0.55C11.492,38.232,11.306,38.414,11.124,38.601z"/>
	<g>
		<path fill="#FCC04F" d="M4.473,2.898c-0.422-0.01-0.845-0.02-1.267-0.03c-0.032,0.01-0.064,0.02-0.096,0.03
			c-1.027,1.027-2.053,2.053-3.08,3.08C0.02,6.01,0.01,6.042,0,6.074c0.01,0.423,0.02,0.845,0.03,1.268
			C0.02,7.373,0.01,7.405,0,7.437c0.01,0.121,0.02,0.241,0.03,0.362c1.634-1.634,3.267-3.267,4.901-4.901
			c-0.121-0.01-0.241-0.02-0.362-0.03C4.536,2.878,4.505,2.888,4.473,2.898z"/>
		<path fill="#FCC04F" d="M2.564,2.919C1.227,3.071,0.203,4.095,0.05,5.432C0.034,5.493,0.018,5.555,0.001,5.616
			C0.011,5.737,0.02,5.857,0.03,5.978c1.027-1.027,2.053-2.053,3.08-3.08C2.989,2.889,2.868,2.879,2.748,2.87
			C2.686,2.886,2.625,2.902,2.564,2.919z"/>
		<path fill="#FCC04F" d="M18.963,6.96c-0.01-0.083-0.019-0.166-0.029-0.249c0.01-0.033,0.02-0.066,0.03-0.099
			c-0.01-0.451-0.021-0.902-0.031-1.353c-0.023-0.005-0.047-0.011-0.069-0.019c-0.001,0.052-0.013,0.098-0.031,0.138
			c0.018-0.041,0.03-0.086,0.031-0.138c-0.007-0.057-0.015-0.114-0.022-0.171c-0.005-0.055-0.009-0.11-0.014-0.165
			c-0.141-0.28-0.281-0.561-0.422-0.841c-0.026-0.007-0.052-0.014-0.079-0.02c0,0,0,0,0,0c-0.04-0.051-0.079-0.103-0.119-0.154
			c0.001-0.025,0.002-0.049,0.002-0.074c-0.239-0.189-0.478-0.378-0.717-0.567c-0.056-0.013-0.112-0.026-0.167-0.04
			c-0.045,0.141-0.149,0.235-0.252,0.327c0.103-0.093,0.207-0.186,0.252-0.327c-0.055-0.022-0.111-0.044-0.166-0.066
			c-0.01-0.026-0.021-0.051-0.031-0.077c-0.403-0.002-0.766-0.252-1.179-0.195c-0.032,0.01-0.064,0.02-0.096,0.03
			c-0.121-0.01-0.241-0.02-0.362-0.03c-0.032,0.01-0.064,0.02-0.096,0.03c-0.422-0.01-0.845-0.02-1.267-0.03
			c-0.032,0.01-0.064,0.02-0.096,0.03c-0.121-0.01-0.241-0.02-0.362-0.03c-0.032,0.01-0.064,0.02-0.095,0.029
			c-0.422-0.01-0.845-0.019-1.267-0.029c-0.032,0.01-0.064,0.02-0.096,0.03c-0.121-0.01-0.241-0.02-0.362-0.03
			c-0.032,0.01-0.064,0.02-0.096,0.03c-0.422-0.01-0.845-0.02-1.267-0.03c-0.032,0.01-0.064,0.02-0.096,0.03
			c-0.121-0.01-0.241-0.02-0.362-0.03c-0.032,0.01-0.064,0.02-0.096,0.03c-0.422-0.01-0.845-0.02-1.267-0.03
			c-0.032,0.01-0.064,0.02-0.096,0.03c-0.121-0.01-0.241-0.02-0.362-0.03c-0.032,0.01-0.064,0.02-0.096,0.03
			c-0.422-0.01-0.845-0.02-1.267-0.03c-0.032,0.01-0.064,0.02-0.096,0.03c-0.121-0.01-0.241-0.02-0.362-0.03
			c-0.032,0.01-0.064,0.02-0.096,0.03c-0.422-0.01-0.845-0.02-1.267-0.03c-0.032,0.01-0.064,0.02-0.096,0.03
			C3.297,4.532,1.663,6.165,0.03,7.799C0.02,7.831,0.01,7.862,0,7.894c0.01,0.423,0.02,0.845,0.03,1.268
			C0.02,9.194,0.01,9.225,0,9.257c0.01,0.121,0.02,0.241,0.03,0.362c0.458-0.453,0.917-0.905,1.376-1.357
			C0.947,8.715,0.488,9.166,0.03,9.619C0.02,9.651,0.01,9.683,0,9.715c0.01,0.423,0.02,0.845,0.03,1.268c0,0,0,0,0,0
			C0.02,11.014,0.01,11.046,0,11.078c0.01,0.121,0.02,0.241,0.03,0.362c0.546-0.541,1.093-1.083,1.639-1.624
			c-0.546,0.541-1.093,1.083-1.639,1.624C0.02,11.472,0.01,11.504,0,11.535c0.01,0.423,0.02,0.845,0.03,1.268
			C0.02,12.835,0.01,12.867,0,12.898c0.011,0.121,0.022,0.241,0.033,0.362c1.336-1.327,2.671-2.654,4.009-3.979
			c-1.338,1.324-2.673,2.652-4.009,3.979c-0.009,0.031-0.018,0.063-0.028,0.094c0.103,0.358,0.206,0.717,0.309,1.075
			c0.022,0.001,0.044,0.005,0.065,0.01c0.002-0.086,0.032-0.153,0.076-0.211c-0.043,0.058-0.074,0.125-0.076,0.211
			c0.035,0.061,0.069,0.122,0.104,0.182c-0.002,0.029-0.002,0.058,0,0.087c0.206,0.221,0.412,0.441,0.618,0.662
			c0.029-0.001,0.058,0.003,0.086,0.012c0.035,0.048,0.07,0.096,0.105,0.143c0.056,0.012,0.111,0.024,0.167,0.035
			c0.206,0.202,0.491,0.241,0.74,0.353c0.118,0.009,0.235,0.018,0.353,0.027c0,0,0,0,0,0c0.065,0.021,0.13,0.042,0.195,0.064
			c0.031-0.01,0.062-0.019,0.093-0.029c0.422,0.01,0.845,0.02,1.267,0.03c0.032-0.01,0.064-0.02,0.095-0.03c0,0,0,0,0,0
			c0.121,0.01,0.241,0.02,0.362,0.03c0.032-0.01,0.064-0.02,0.095-0.029c0.423,0.01,0.845,0.019,1.268,0.029
			c0.033-0.01,0.066-0.02,0.099-0.03c1.558-1.568,3.115-3.137,4.673-4.705c-1.557,1.569-3.115,3.137-4.673,4.705
			c0.121,0.01,0.241,0.02,0.362,0.03c0.031-0.01,0.062-0.02,0.093-0.03c0.422,0.01,0.845,0.02,1.267,0.03
			c0.033-0.01,0.066-0.02,0.099-0.03c0.975-0.986,1.951-1.972,2.924-2.96c-0.973,0.988-1.949,1.974-2.924,2.96
			c0.119,0.038,0.237,0.076,0.356,0.113c0.005,0.026,0.011,0.052,0.019,0.077c0.207,0.155,0.415,0.31,0.622,0.466
			c0.061,0.027,0.122,0.054,0.184,0.081c0.001-0.053,0.013-0.098,0.033-0.138c-0.019,0.041-0.031,0.086-0.033,0.138
			c0.052,0.037,0.104,0.074,0.156,0.112c0.006,0.026,0.012,0.052,0.018,0.078c0.267,0.154,0.512,0.336,0.733,0.55
			c0.029,0.001,0.058,0.002,0.087,0.005c0.035,0.049,0.069,0.097,0.104,0.146c0.054,0.018,0.107,0.035,0.161,0.053
			c0.216,0.179,0.432,0.358,0.649,0.538c0.095,0.077,0.19,0.153,0.285,0.23c0.152,0.052,0.268,0.153,0.368,0.274
			c0.729,0.528,1.457,1.055,2.241,1.622c-0.211-1.348-0.409-2.615-0.608-3.882c0.147-0.144,0.293-0.289,0.44-0.434
			c0.063-0.01,0.126-0.019,0.189-0.029c0.455-0.001,0.909-0.001,1.364-0.002c0.001-0.032,0.006-0.06,0.016-0.087
			c-0.009,0.026-0.015,0.055-0.016,0.087c0.152,0.001,0.304,0.001,0.457,0.002c1.82,0.09,2.997-0.882,3.29-2.717
			c-0.009-0.182-0.018-0.364-0.028-0.545c-0.001-0.152-0.001-0.304-0.002-0.457c0.001-0.455,0.001-0.909,0.002-1.364
			c-0.001-0.152-0.001-0.304-0.002-0.457c-0.02,0.01-0.041,0.019-0.062,0.027c0.021-0.009,0.042-0.017,0.062-0.027
			c0.001-0.455,0.001-0.909,0.002-1.364h0c-0.001-0.152-0.001-0.304-0.002-0.457c0.001-0.455,0.001-0.909,0.002-1.364
			C18.944,7.155,18.954,7.057,18.963,6.96z M3.74,7.89C3.603,7.895,3.514,7.971,3.434,8.058C3.514,7.971,3.603,7.895,3.74,7.89
			C3.71,7.768,3.679,7.646,3.649,7.524c-0.156,0.008-0.25,0.106-0.34,0.207c0.09-0.101,0.184-0.2,0.34-0.207
			C3.54,6.082,4.67,4.952,6.113,5.061c0.122,0.031,0.244,0.061,0.366,0.092c0,0,0,0,0,0c0.243,0.124,0.486,0.247,0.729,0.371
			c0.048-0.002,0.091-0.011,0.131-0.03c-0.04,0.018-0.084,0.028-0.131,0.03c0.091,0.15,0.212,0.271,0.362,0.362c0,0,0,0,0,0
			c0.124,0.243,0.247,0.486,0.371,0.729C7.996,6.613,8.044,6.6,8.087,6.576C8.044,6.6,7.996,6.613,7.942,6.615
			c0.03,0.122,0.061,0.244,0.091,0.366c0.06-0.028,0.13-0.047,0.186-0.079c-0.056,0.032-0.126,0.05-0.186,0.079
			C8.142,8.424,7.01,9.554,5.569,9.445c-0.028,0.06-0.046,0.13-0.078,0.186c0.032-0.056,0.05-0.126,0.078-0.186
			C5.447,9.414,5.325,9.384,5.203,9.353C4.96,9.23,4.717,9.106,4.474,8.982C4.369,8.985,4.292,9.029,4.226,9.088
			c0.066-0.059,0.143-0.103,0.248-0.105C4.383,8.832,4.262,8.711,4.111,8.62v0C3.988,8.377,3.864,8.134,3.74,7.89z M6.809,13.153
			c-0.117,0.117-0.223,0.245-0.334,0.368c0.006,0.163-0.093,0.258-0.195,0.35c0.102-0.092,0.201-0.187,0.195-0.35
			c-0.345,0.043-0.449-0.266-0.645-0.442c-0.045,0.002-0.085,0.012-0.122,0.029c0.037-0.017,0.077-0.027,0.122-0.029
			c0.002-0.026,0.003-0.051,0.001-0.077C5.716,12.931,5.6,12.86,5.484,12.789c-0.717,0.827-1.524,1.566-2.294,2.341
			c0.77-0.775,1.577-1.514,2.294-2.342c-0.144-0.181-0.083-0.318,0.069-0.469c2.274-2.267,4.544-4.538,6.812-6.812
			c0.151-0.151,0.288-0.213,0.469-0.069c0.039,0.083,0.077,0.166,0.116,0.249c0.056,0.011,0.111,0.022,0.167,0.033
			c0.088-0.102,0.173-0.208,0.262-0.308c-0.09,0.101-0.174,0.206-0.262,0.308c0.116,0.258,0.507,0.341,0.45,0.709c0,0,0,0,0,0
			c-0.53,0.518-1.064,1.031-1.588,1.554C10.253,9.705,8.531,11.429,6.809,13.153z M15.112,10.556
			c0.008,0.091,0.002,0.187,0.089,0.25c0,0,0,0,0,0c0.09,0.419,0.136,0.841,0.1,1.27c-0.119,0.162-0.16,0.35-0.184,0.544
			c0,0,0,0,0,0c-0.282,0.381-0.613,0.712-0.994,0.994c0.005,0.14-0.068,0.231-0.153,0.311c0.085-0.081,0.158-0.171,0.153-0.311
			c-0.194,0.025-0.382,0.066-0.544,0.185c-0.128,0.146-0.25,0.298-0.385,0.438c0.135-0.14,0.257-0.292,0.385-0.438
			c-0.428,0.037-0.849-0.011-1.267-0.098c0,0,0,0,0,0c-0.094-0.055-0.187-0.109-0.281-0.164c-0.213-0.183-0.425-0.366-0.638-0.548
			c-0.003,0.001-0.007,0.002-0.011,0.003c0.003-0.001,0.007-0.002,0.011-0.003c-0.088-0.125-0.175-0.25-0.263-0.376
			c-0.061-0.361-0.239-0.701-0.2-1.08c-1.136,1.088-2.251,2.195-3.352,3.318c1.101-1.122,2.217-2.23,3.352-3.318
			c0.004-0.122,0.008-0.243,0.012-0.365c-0.009,0-0.017,0.002-0.025,0.003c0.008-0.001,0.016-0.003,0.025-0.003
			c0.284-0.866,0.86-1.441,1.725-1.726c0-0.022,0.001-0.042,0.005-0.062c-0.003,0.019-0.005,0.04-0.005,0.062
			c0.123-0.004,0.245-0.008,0.368-0.012c0.379-0.04,0.717,0.14,1.078,0.199c0.273-0.232,0.532-0.478,0.787-0.729
			c-0.254,0.251-0.514,0.496-0.787,0.729c0.125,0.088,0.25,0.175,0.376,0.263C14.697,10.112,14.905,10.334,15.112,10.556
			c0.416-0.532,0.918-0.981,1.398-1.451C16.03,9.575,15.528,10.025,15.112,10.556z"/>
		<path fill="#FCC04F" d="M13.14,10.896c-0.424-0.008-0.745,0.308-0.742,0.732c0.003,0.405,0.306,0.713,0.709,0.721
			c0.42,0.008,0.746-0.314,0.744-0.734C13.848,11.212,13.544,10.904,13.14,10.896z"/>
		<path fill="#FCC04F" d="M5.808,7.98c0.421,0.018,0.754-0.296,0.76-0.717c0.005-0.402-0.295-0.721-0.694-0.738
			c-0.421-0.018-0.754,0.296-0.76,0.717C5.108,7.644,5.409,7.963,5.808,7.98z"/>
	</g>
</g>
</svg>
