<?xml version="1.0" encoding="utf-8"?>
<!-- Generator: Adobe Illustrator 17.0.0, SVG Export Plug-In . SVG Version: 6.00 Build 0)  -->
<!DOCTYPE svg PUBLIC "-//W3C//DTD SVG 1.1//EN" "http://www.w3.org/Graphics/SVG/1.1/DTD/svg11.dtd">
<svg version="1.1" id="Layer_1" xmlns="http://www.w3.org/2000/svg" xmlns:xlink="http://www.w3.org/1999/xlink" x="0px" y="0px"
	 width="210px" height="60px" viewBox="0 0 210 60" enable-background="new 0 0 210 60" xml:space="preserve">
<g id="tQkbhl.tif">
	<g>
		<path fill="#99ACC2" d="M205.677,30.064c0.063,10.795-8.647,19.286-19.755,19.416c-8.911,0.105-19.337-6.981-19.512-19.237
			c-0.16-10.919,9.119-19.354,18.949-19.729C196.521,10.09,205.916,19.492,205.677,30.064z M172.176,29.965
			c-0.204,8.44,7.033,14.219,13.63,14.195c8.016-0.029,14.193-6.159,14.19-14.15c-0.002-7.983-6.058-14.151-13.898-14.155
			C178.237,15.852,172.178,21.995,172.176,29.965z"/>
		<path fill="#99ACC2" d="M27.18,29.924c-0.394-10.183,8.965-19.723,20.268-19.414c9.858,0.27,19.221,8.928,18.972,20.039
			C66.188,40.853,57.354,49.486,46.631,49.5C37.355,49.512,26.876,42.019,27.18,29.924z M60.68,30.037
			c0.01-7.956-6.021-14.168-13.774-14.183c-7.908-0.013-14.086,6.176-14.086,14.08c0,8.879,7.32,14.213,13.57,14.22
			C54.517,44.163,60.668,38.095,60.68,30.037z"/>
		<path fill="#99ACC2" d="M165.588,19.885c-7.743-6.366-16.079-4.479-20.428,0.705c-4.735,5.648-4.599,13.911,0.228,19.192
			c4.155,4.545,12.577,6.932,20.119,0.198c0.03,0.215,0.077,0.382,0.077,0.548c0.004,1.867,0.021,3.733-0.017,5.601
			c-0.007,0.281-0.207,0.691-0.438,0.816c-9.95,5.386-22.558,2.109-27.542-8.998c-5.196-11.579,2.398-25.303,14.92-27.189
			c4.358-0.657,8.516,0.016,12.427,2.106c0.453,0.242,0.686,0.484,0.67,1.055C165.559,15.862,165.588,17.806,165.588,19.885z"/>
		<path fill="#99ACC2" d="M4.318,48.696c0-12.474,0-24.896,0-37.338c0.13-0.039,0.231-0.099,0.332-0.097
			c3.727,0.088,7.462,0.044,11.176,0.312c5.207,0.375,9.09,4.49,9.437,9.705c0.195,2.933-0.273,5.689-2.207,8.029
			c-2.175,2.633-5.092,3.824-8.4,4.103c-1.522,0.128-3.064,0.021-4.688,0.021c0,5.189,0,10.193,0,15.267
			C8.056,48.696,6.236,48.696,4.318,48.696z M9.954,28.336c0.714,0,1.34,0.021,1.965-0.003c1.865-0.072,3.724-0.188,5.399-1.155
			c3.14-1.81,3.519-7.021,0.606-9.159c-2.388-1.753-5.18-1.582-7.971-1.513C9.954,20.479,9.954,24.338,9.954,28.336z"/>
		<path fill="#99ACC2" d="M108.583,16.593c-0.428,0-0.723,0-1.019,0c-2.306,0-4.611-0.018-6.916,0.011
			c-0.584,0.008-0.756-0.187-0.739-0.754c0.034-1.316,0.021-2.634,0.004-3.95c-0.004-0.429,0.085-0.655,0.585-0.654
			c7.3,0.012,14.6,0.009,21.898,0.013c0.104,0,0.207,0.039,0.36,0.07c0,1.732,0,3.445,0,5.237c-2.832,0-5.62,0-8.525,0
			c0,10.757,0,21.434,0,32.154c-1.92,0-3.72,0-5.648,0C108.583,38.033,108.583,27.357,108.583,16.593z"/>
		<path fill="#99ACC2" d="M69.626,11.301c1.849,0,3.648,0,5.521,0c0,10.717,0,21.385,0,32.14c3.686,0,7.295,0,10.977,0
			c0,1.795,0,3.504,0,5.268c-5.475,0-10.953,0-16.499,0C69.626,36.271,69.626,23.823,69.626,11.301z"/>
		<path fill="#99ACC2" d="M90.351,11.293c1.857,0,3.654,0,5.501,0c0,12.487,0,24.932,0,37.422c-1.83,0-3.628,0-5.501,0
			C90.351,36.268,90.351,23.828,90.351,11.293z"/>
		<path fill="#99ACC2" d="M126.926,11.293c1.859,0,3.66,0,5.512,0c0,12.488,0,24.933,0,37.425c-1.835,0-3.636,0-5.512,0
			C126.926,36.268,126.926,23.825,126.926,11.293z"/>
	</g>
</g>
</svg>
