<?xml version="1.0" encoding="utf-8"?>
<!-- Generator: Adobe Illustrator 17.0.0, SVG Export Plug-In . SVG Version: 6.00 Build 0)  -->
<!DOCTYPE svg PUBLIC "-//W3C//DTD SVG 1.1//EN" "http://www.w3.org/Graphics/SVG/1.1/DTD/svg11.dtd">
<svg version="1.1" id="Layer_1" xmlns="http://www.w3.org/2000/svg" xmlns:xlink="http://www.w3.org/1999/xlink" x="0px" y="0px"
	 width="143px" height="150px" viewBox="0 0 143 150" enable-background="new 0 0 143 150" xml:space="preserve">
<g>
	<path fill="#11D874" d="M110.238,110.307c-3.333,1.789-6.629,3.641-9.83,5.66c-1.183,0.518-2.299,1.152-3.355,1.894
		c-3.33,1.801-6.633,3.649-9.836,5.672c-1.182,0.508-2.287,1.155-3.348,1.88c-3.326,1.817-6.641,3.654-9.843,5.685
		c-1.188,0.488-2.271,1.164-3.34,1.865c-3.319,1.84-6.646,3.664-9.852,5.699c-1.181,0.488-2.258,1.163-3.328,1.852
		c-2.396,1.175-4.555,2.788-7.031,3.816c0.017-1.026,0.751-1.827,0.884-2.817c0.207-0.186,0.457-0.341,0.615-0.562
		c4.657-6.505,9.294-13.024,13.956-19.526c6.45-8.996,12.923-17.975,19.373-26.971c5.204-7.258,10.371-14.543,15.602-21.782
		c0.681-0.942,1.077-2.167,2.275-2.685c0.006,2.804,0.016,5.608,0.017,8.412c0.001,7.899-0.006,15.797,0.001,23.696
		c0.001,1.529,1.257,2.285,2.548,1.544c5.663-3.25,11.316-6.519,16.986-9.757c0.986-0.563,1.262-1.381,1.262-2.448
		c-0.013-14.535-0.006-29.071-0.007-43.606c0-1.881-1.281-2.596-2.93-1.628c-0.402,0.236-0.757,0.56-1.27,0.501
		c-0.029-0.357,0.188-0.6,0.378-0.868c1.795-2.524,3.616-5.03,5.359-7.59c1.267-1.861,2.825-3.528,3.78-5.599
		c0.241-0.183,0.482-0.366,0.723-0.548c0.048,0.839,0.095,1.678,0.143,2.517c0.003,0.376,0.006,0.753,0.008,1.129
		c-0.003,1.494-0.006,2.988-0.008,4.482c0.003,0.376,0.006,0.753,0.008,1.129c-0.003,1.494-0.006,2.988-0.008,4.482
		c0.003,0.376,0.006,0.753,0.008,1.129c-0.003,1.494-0.006,2.988-0.009,4.482c0.003,0.377,0.006,0.753,0.008,1.13
		c-0.003,1.494-0.006,2.988-0.008,4.482c0.003,0.377,0.006,0.753,0.008,1.13c-0.003,1.494-0.006,2.988-0.008,4.482
		c0.003,0.377,0.006,0.753,0.008,1.13c-0.003,1.494-0.006,2.988-0.01,4.482c0.003,0.376,0.006,0.753,0.008,1.129
		c-0.003,1.494-0.006,2.988-0.008,4.483c0.003,0.376,0.006,0.753,0.008,1.129c-0.003,1.494-0.006,2.988-0.008,4.483
		c0.003,0.376,0.005,0.753,0.008,1.129c-0.003,1.494-0.006,2.988-0.009,4.483c0.003,0.376,0.006,0.753,0.009,1.129
		c-0.003,1.494-0.006,2.988-0.009,4.483c0.003,0.376,0.006,0.753,0.009,1.129c-0.003,1.494-0.006,2.989-0.009,4.483
		c-0.074,0.471-0.148,0.942-0.222,1.412c-0.451,1.647-2.003,2.142-3.176,3.034c-1.212,0.49-2.276,1.232-3.346,1.963
		c-3.336,1.779-6.624,3.64-9.825,5.653C112.413,108.92,111.293,109.557,110.238,110.307z"/>
	<path fill="#11BC87" d="M45.693,25.731c3.384-1.959,6.768-3.918,10.151-5.877c1.07-0.488,2.09-1.062,3.041-1.755
		c3.438-1.85,6.825-3.787,10.129-5.867c1.194-0.508,2.292-1.188,3.369-1.904c2.374-1.339,4.739-2.695,7.13-4.004
		c0.514-0.281,1.032-0.627,1.661-0.644c1.023-0.006,1.792,0.481,2.317,1.311c0.386,0.61,0.908,1.021,1.481,1.431
		c1.607,1.15,3.577,1.371,5.365,1.664c2.236,0.366,4.417,0.938,6.628,1.377c0.692,0.137,1.527-0.002,2.043,0.699
		c-3.565,1.27-6.834,3.12-10.085,5.033c-5.825,3.426-11.705,6.759-17.56,10.136c-5.693,3.284-11.355,6.621-17.08,9.847
		c-5.669,3.194-11.101,6.62-15.277,11.788c-3.034,3.755-5.65,7.728-7.67,12.102c-1.312,2.839-2.476,5.732-3.137,8.804
		c-0.157,0.727-0.369,0.985-1.188,0.476c-2.374-1.476-4.803-2.869-7.258-4.205c-1.992-1.084-3.807-2.506-6.008-3.196
		c0.019-0.361,0.039-0.721,0.058-1.082c0.654-2.071,1.309-4.142,1.963-6.213c0.342-0.841,0.685-1.682,1.027-2.523
		c0,0,0.003-0.008,0.003-0.008c0.197-0.129,0.288-0.31,0.266-0.546c1.7-3.298,3.58-6.487,5.72-9.52
		c2.799-3.501,5.86-6.738,9.489-9.402c3.358-2.009,6.716-4.017,10.074-6.026C43.529,27.115,44.631,26.459,45.693,25.731z"/>
	<path fill="#0FA3A3" d="M13.744,62.946c2.202,0.69,4.016,2.112,6.008,3.196c2.456,1.336,4.885,2.729,7.258,4.205
		c0.818,0.509,1.031,0.251,1.188-0.476c0.661-3.072,1.825-5.964,3.137-8.804c2.021-4.374,4.636-8.347,7.67-12.102
		c4.176-5.168,9.608-8.593,15.277-11.788c5.725-3.226,11.387-6.563,17.08-9.847c5.854-3.377,11.735-6.71,17.56-10.136
		c3.251-1.912,6.52-3.763,10.085-5.033c1.861-0.178,3.721-0.363,5.595-0.288c1.021,0.239,2.043,0.477,3.064,0.715
		c0.213,0.085,0.425,0.169,0.638,0.254c0.832,0.523,1.664,1.046,2.495,1.569c0.377,0.359,0.754,0.718,1.131,1.077
		c0.524,0.686,1.048,1.372,1.572,2.058c0.213,0.37,0.425,0.74,0.638,1.11c0.37,0.929,0.74,1.857,1.11,2.786
		c0.019,0.393,0.022,0.79,0.305,1.109c0.04,0.335,0.08,0.67,0.119,1.005c-0.221-0.058-0.442-0.116-0.663-0.174
		c-0.363-0.211-0.726-0.422-1.088-0.633c-0.312-0.236-0.625-0.471-0.937-0.707c0.351-0.214,0.334-0.508,0.213-0.851
		c-1.352-3.819-3.814-6.429-7.882-7.347c-3.216-0.726-6.253-0.023-9.061,1.419c-7.921,4.068-15.472,8.801-23.21,13.198
		c-6.36,3.614-12.628,7.395-19.03,10.933c-5.907,3.264-11.191,7.198-15.245,12.666c-2.818,3.8-5.242,7.809-6.819,12.293
		c-0.02,0.041-0.041,0.082-0.061,0.122c0.02-0.041,0.041-0.081,0.061-0.122c0.451,0.062,0.781-0.178,1.152-0.392
		c4.668-2.688,9.347-5.357,14.023-8.031c0.846,0.329,1.622,0.779,2.332,1.343c-2.093,1.242-4.186,2.485-6.279,3.727
		c-3.375,1.883-6.749,3.766-10.124,5.649c-0.421-0.19-0.86-0.347-1.258-0.576c-0.858-0.495-1.295-0.368-1.225,0.717
		c0.057,0.884-0.058,1.757-0.268,2.617c-0.995,2.478-1.403,5.095-1.411,7.722c-0.052,17.18-0.009,34.361-0.049,51.542
		c-0.005,2.353,0.305,4.632,0.894,6.889c1.287,4.933,5.806,8.452,10.39,8.105c1.192,0.106,2.062,0.88,3.027,1.457
		c-3.449,0.799-6.698,0.251-9.776-1.452c-0.131-0.094-0.262-0.189-0.393-0.283c-0.699-0.635-1.398-1.269-2.096-1.904
		c-0.253-0.506-0.674-0.816-1.188-1.016c-0.906-0.548-1.777-1.162-2.788-1.518c-0.084-0.244-0.293-0.261-0.503-0.277
		c-0.871-0.702-1.853-1.211-2.874-1.651c-0.207-0.125-0.414-0.251-0.621-0.376c-0.962-0.623-1.922-1.251-2.996-1.674
		c-0.285-0.171-0.569-0.342-0.854-0.512c-0.659-0.55-1.319-1.099-1.978-1.649c-0.271-0.284-0.542-0.568-0.813-0.852
		c-0.542-0.853-1.083-1.705-1.625-2.558c-0.072-0.293-0.116-0.601-0.391-0.794c-0.29-1.028-0.58-2.057-0.87-3.085
		c-0.095-0.47-0.191-0.94-0.286-1.41c-0.091-1.398-0.183-2.796-0.274-4.194c-0.002-0.379-0.004-0.758-0.006-1.137
		c0.002-1.491,0.004-2.983,0.006-4.474c-0.002-0.379-0.004-0.758-0.006-1.137c0.002-1.491,0.004-2.983,0.006-4.474
		c-0.002-0.379-0.004-0.758-0.006-1.137c0.002-1.491,0.004-2.983,0.006-4.474c-0.002-0.379-0.004-0.758-0.006-1.137
		c0.002-1.491,0.004-2.983,0.006-4.474c-0.002-0.379-0.004-0.758-0.006-1.137c0.002-1.491,0.004-2.983,0.006-4.474
		c-0.002-0.379-0.004-0.758-0.006-1.137c0.002-1.491,0.004-2.983,0.006-4.474c-0.002-0.379-0.004-0.758-0.006-1.137
		c0.002-1.491,0.004-2.983,0.006-4.474c-0.002-0.379-0.004-0.758-0.006-1.137c0.002-1.491,0.004-2.983,0.006-4.474
		c-0.002-0.379-0.004-0.758-0.006-1.137c0.002-1.491,0.005-2.983,0.007-4.474c-0.001-0.379-0.001-0.758-0.002-1.137
		c0.196-1.588,0.393-3.176,0.589-4.765C13.526,63.325,13.635,63.136,13.744,62.946z"/>
	<path fill="#084B66" d="M30.306,69.411c0.211-0.86,0.325-1.733,0.268-2.617c-0.069-1.085,0.367-1.212,1.225-0.717
		c0.398,0.229,0.837,0.386,1.258,0.576c0.046,0.157,0.092,0.315,0.137,0.472c-0.103,1.332-0.13,2.664,0.05,3.992
		c-0.032,1.96-0.089,3.921-0.092,5.881c-0.031,17.203-0.118,34.406-0.035,51.609c0.023,4.869,2.322,8.752,6.363,11.541
		c0.375,0.455,0.884,0.695,1.424,0.885c0.223,0.276,0.51,0.441,0.861,0.496c0.445,0.427,1.003,0.652,1.56,0.881
		c3.095,1.274,5.549-0.232,5.743-3.578c0.083-1.441,0.025-2.891,0.031-4.337c0.153-0.563,0.231-1.126-0.002-1.689
		c0.006-1.308,0.012-2.617,0.018-3.925c0.16-0.564,0.233-1.128-0.002-1.691c0.007-1.308,0.014-2.615,0.022-3.923
		c0.125-0.564,0.301-1.13-0.067-1.675c0.244-1.309,0.132-2.626,0.088-3.941c0.137-0.566,0.255-1.132-0.042-1.687
		c0.193-1.307,0.115-2.619,0.064-3.93c0.136-0.567,0.216-1.132-0.025-1.693c0.017-1.309,0.033-2.617,0.05-3.926
		c0.141-0.554,0.14-1.109,0.015-1.666c0.006-1.303,0.012-2.606,0.018-3.91c0.101-0.578,0.132-1.155-0.021-1.73
		c0.008-1.312,0.016-2.623,0.024-3.935c0.107-0.559,0.13-1.119-0.007-1.677c0.006-1.314,0.012-2.628,0.018-3.942
		c0.001-0.546,0.003-1.092,0.004-1.639c0.005-1.398,0.01-2.796,0.015-4.194c-0.002-0.472-0.003-0.945-0.005-1.417
		c0.005-1.398,0.009-2.797,0.014-4.195c-0.002-0.472-0.004-0.943-0.006-1.415c0.032-0.108,0.064-0.217,0.096-0.325
		c0.65,0.3,1.3,0.6,1.95,0.9c0.013,0.561,0.036,1.121,0.036,1.682c0.004,20.853,0.005,41.706,0.006,62.559
		c-0.133,0.99-0.867,1.791-0.884,2.817c0,0,0.007-0.008,0.007-0.008c-0.229-0.034-0.333,0.119-0.428,0.285
		c0,0,0.009-0.007,0.009-0.007c-0.132,0.096-0.263,0.192-0.394,0.289c-2.11,1.74-4.306,1.131-6.512,0.237
		c-0.965-0.578-1.836-1.351-3.028-1.456c-0.174-0.551-0.709-0.713-1.113-1.001c-5.416-3.859-8.373-9.153-8.416-15.751
		c-0.123-18.632-0.042-37.264-0.053-55.897C30.546,70.482,30.746,69.892,30.306,69.411z"/>
	<path fill="#0FA3A3" d="M51.317,77.271c-0.65-0.3-1.3-0.6-1.95-0.899c0.013-0.133,0.026-0.266,0.038-0.399
		c0.647-0.383,1.294-0.766,1.942-1.148c1.12-0.632,2.24-1.265,3.361-1.897c3.298-1.86,6.623-3.672,9.808-5.723
		c1.203-0.498,2.304-1.176,3.371-1.912c3.318-1.81,6.614-3.659,9.805-5.69c1.187-0.519,2.305-1.16,3.357-1.916
		c3.443-1.844,6.819-3.805,10.145-5.853c1.071-0.489,2.093-1.064,3.044-1.761c3.435-1.85,6.824-3.78,10.124-5.863
		c1.199-0.503,2.297-1.184,3.369-1.911c3.315-1.818,6.617-3.659,9.805-5.696c1.189-0.529,2.32-1.157,3.372-1.925
		c1.682-0.831,3.309-1.758,4.856-2.821c0.68-0.294,1.384-0.551,1.869-1.159c0.142,0.014,0.284,0.029,0.426,0.043
		c0.28,0.316,0.643,0.488,1.038,0.606c0.309,0.25,0.618,0.501,0.927,0.75c-0.241,0.182-0.482,0.365-0.723,0.548
		c-0.471,0.194-0.972,0.338-1.41,0.59c-7.313,4.204-14.621,8.415-21.923,12.638C96.571,51.308,87.177,56.754,77.783,62.2
		c-6.37,3.693-12.696,7.463-19.121,11.058C56.23,74.619,53.953,76.279,51.317,77.271z"/>
	<path fill="#11D874" d="M104.603,11.874c-1.874-0.076-3.734,0.109-5.595,0.288c-0.516-0.701-1.351-0.561-2.043-0.699
		c-2.212-0.439-4.392-1.011-6.628-1.377c-1.787-0.293-3.758-0.514-5.365-1.664c-0.574-0.41-1.096-0.821-1.481-1.431
		c-0.525-0.83-1.294-1.317-2.317-1.311c4.522-2.08,9-2.511,13.405,0.329c0.503,0.324,1.057,0.568,1.588,0.849
		c0.417,0.382,0.896,0.659,1.435,0.83c0.785,0.572,1.607,1.079,2.521,1.422c0.214,0.287,0.511,0.435,0.851,0.512
		c0.786,0.573,1.609,1.078,2.522,1.426c0.209,0.126,0.418,0.251,0.627,0.377C104.284,11.576,104.444,11.725,104.603,11.874z"/>
	<path fill="#F7F6E4" d="M115.013,23.385c0.221,0.058,0.442,0.116,0.663,0.174c0.496,0.45,1.416,0.361,1.572,1.241
		c0.001,0.596-0.473,0.883-0.825,1.236c-2.529,2.542-5.077,5.065-7.6,7.612c-2.16,2.18-4.296,4.385-6.443,6.578
		c-0.467,0.282-0.934,0.563-1.401,0.845c-1.707,0.256-3.193,1.278-4.987,1.611c0.127-0.756,0.612-1.019,0.959-1.367
		c5.565-5.582,11.14-11.154,16.718-16.723C114.093,24.168,114.563,23.787,115.013,23.385z"/>
	<path fill="#F7F6E4" d="M102.378,40.227c2.147-2.194,4.283-4.398,6.443-6.578c2.524-2.547,5.071-5.071,7.6-7.612
		c0.352-0.354,0.826-0.641,0.825-1.236c0.278-0.005,0.556-0.01,0.834-0.015c0.119,0.231,0.329,0.286,0.563,0.297
		c0.004,0.09,0.01,0.181,0.018,0.271c-0.187,0.137-0.395,0.252-0.557,0.414c-4.329,4.322-8.655,8.647-12.976,12.977
		c-0.144,0.144-0.396,0.27-0.204,0.632c1.766-0.647,3.54-1.296,5.313-1.946c-0.011,0.584-0.474,0.872-0.823,1.224
		c-1.427,1.442-2.87,2.868-4.298,4.309c-0.348,0.351-0.815,0.643-0.756,1.247c-3.3,2.083-6.689,4.013-10.124,5.863
		c0.373-1.29,1.542-1.918,2.386-2.802c1.952-2.043,3.987-4.006,5.976-6.013C103.019,40.836,103.701,40.299,102.378,40.227z"/>
	<path fill="#F7F6E4" d="M110.238,37.43c-1.773,0.649-3.547,1.299-5.313,1.946c-0.192-0.362,0.061-0.488,0.204-0.632
		c4.321-4.33,8.647-8.655,12.976-12.977c0.162-0.162,0.37-0.277,0.557-0.414c0.735,0.483,1.697,0.599,2.241,1.389
		c-0.014,0.649-0.54,0.955-0.922,1.346c-2.775,2.837-5.559,5.664-8.34,8.494C111.124,36.783,110.882,37.438,110.238,37.43z"/>
	<path fill="#F7F6E4" d="M111.641,36.582c2.781-2.83,5.566-5.658,8.34-8.494c0.382-0.39,0.908-0.697,0.922-1.346
		c0.182,0.004,0.365,0.008,0.547,0.012c0.194,0.329,0.522,0.281,0.828,0.294c0.002,0.093,0.009,0.185,0.021,0.276
		c-2.625,2.781-5.251,5.561-7.911,8.379c1.676-0.226,3.134-1.328,4.827-1.641c-0.12,1.138-1.601,1.375-1.681,2.54
		c-3.188,2.037-6.489,3.879-9.805,5.696c-0.079-0.601,0.364-0.911,0.716-1.265c1.169-1.177,2.344-2.349,3.518-3.521
		C112.503,36.975,112.664,36.574,111.641,36.582z"/>
	<path fill="#F7F6E4" d="M119.217,34.063c-1.693,0.313-3.151,1.415-4.827,1.641c2.66-2.818,5.285-5.598,7.911-8.379
		c0.595,0.548,1.494,0.661,1.97,1.379c0.08,0.629-0.302,1.016-0.699,1.422c-0.997,1.017-1.97,2.058-2.953,3.089
		C120.151,33.498,119.684,33.78,119.217,34.063z"/>
	<path fill="#F7F6E4" d="M124.817,28.727c0.282,0.19,0.565,0.38,0.847,0.57c-0.654,1.083-1.924,1.662-2.491,2.943
		c0.988,0.219,1.698-0.742,2.591-0.383c-1.548,1.063-3.174,1.99-4.856,2.821c-0.475-0.413,1.475-1.305-0.29-1.462
		c0.983-1.031,1.956-2.072,2.953-3.089c0.397-0.405,0.779-0.793,0.699-1.422C124.453,28.711,124.635,28.719,124.817,28.727z"/>
	<path fill="#F7F6E4" d="M125.765,31.856c-0.894-0.359-1.603,0.602-2.591,0.383c0.567-1.281,1.837-1.859,2.491-2.943
		c0.093-0.006,0.186-0.009,0.279-0.008c0.324,0.757,1.385,0.629,1.691,1.408C127.149,31.305,126.445,31.562,125.765,31.856z"/>
	<path fill="#F3F4F4" d="M17.061,52.574c0.022,0.236-0.069,0.417-0.266,0.546C16.793,52.895,16.852,52.698,17.061,52.574z"/>
	<path fill="#11D874" d="M50.054,144.607c0.095-0.166,0.199-0.319,0.428-0.285C50.441,144.57,50.259,144.605,50.054,144.607z"/>
	<path fill="#11D874" d="M49.669,144.889c0.131-0.096,0.263-0.192,0.394-0.289C49.932,144.696,49.8,144.793,49.669,144.889z"/>
	<path fill="#11BC87" d="M51.317,77.271c2.636-0.992,4.913-2.652,7.345-4.013c6.425-3.595,12.751-7.365,19.121-11.058
		c9.393-5.446,18.787-10.892,28.186-16.328c7.302-4.223,14.611-8.434,21.923-12.638c0.438-0.252,0.939-0.396,1.41-0.59
		c-0.955,2.071-2.513,3.738-3.78,5.599c-1.742,2.56-3.564,5.066-5.359,7.59c-0.19,0.267-0.407,0.511-0.378,0.867
		c0,0-0.003-0.015-0.003-0.015c-0.097,0.104-0.194,0.208-0.291,0.312c-0.122,0.138-0.219,0.321-0.371,0.407
		c-4.858,2.77-9.714,5.544-14.591,8.28c-0.704,0.395-1.256,0.835-1.305,1.666c-0.104,1.764-0.254,3.574-0.129,5.289
		c0.179,2.462-0.199,4.906,0.082,7.347c-1.198,0.518-1.595,1.743-2.275,2.685c-5.231,7.239-10.398,14.524-15.602,21.782
		c-6.45,8.996-12.923,17.975-19.373,26.971c-4.661,6.502-9.299,13.021-13.956,19.526c-0.158,0.221-0.408,0.376-0.615,0.562
		c-0.001-20.853-0.003-41.706-0.006-62.559C51.353,78.393,51.33,77.832,51.317,77.271z"/>
	<path fill="#128A8C" d="M103.18,69.987c-0.281-2.441,0.097-4.885-0.082-7.347c-0.125-1.715,0.025-3.525,0.129-5.289
		c0.049-0.831,0.601-1.271,1.305-1.666c4.877-2.736,9.733-5.509,14.591-8.28c0.152-0.086,0.248-0.269,0.371-0.408
		c0.097-0.104,0.194-0.208,0.29-0.312c0,0,0.003,0.015,0.003,0.015c0.513,0.059,0.868-0.264,1.27-0.5
		c1.649-0.968,2.93-0.253,2.93,1.628c0,14.535-0.006,29.071,0.007,43.606c0.001,1.067-0.275,1.885-1.262,2.448
		c-5.67,3.239-11.322,6.507-16.986,9.757c-1.291,0.741-2.547-0.015-2.548-1.544c-0.007-7.899,0-15.797-0.001-23.696
		C103.196,75.595,103.186,72.791,103.18,69.987z M121.55,51.177c0.176-0.769,0.102-1.53,0.055-2.395
		c-0.307,0.116-0.486,0.158-0.639,0.246c-4.969,2.867-9.928,5.749-14.909,8.594c-0.641,0.366-0.575,0.873-0.575,1.426
		c-0.001,4.346-0.011,8.692-0.005,13.037c0.011,9.018,0.029,18.035,0.044,27.053c0,0.547,0,1.095,0,1.806
		c0.543-0.281,0.994-0.493,1.424-0.741c4.321-2.493,8.609-5.046,12.974-7.457c1.266-0.699,1.727-1.483,1.722-2.927
		c-0.044-12.371-0.006-24.741,0.001-37.112C121.643,52.196,121.583,51.686,121.55,51.177z"/>
	<path fill="#076C83" d="M47.128,55.934c-4.676,2.674-9.355,5.342-14.023,8.031c-0.371,0.214-0.701,0.453-1.152,0.392l0,0
		c1.577-4.484,4.001-8.493,6.819-12.293c4.055-5.467,9.338-9.401,15.245-12.666c6.402-3.538,12.669-7.318,19.03-10.933
		c7.738-4.398,15.288-9.131,23.21-13.198c2.808-1.442,5.845-2.145,9.061-1.419c4.068,0.918,6.53,3.528,7.882,7.347
		c0.121,0.343,0.138,0.637-0.213,0.851c-0.453-0.209-0.906-0.419-1.358-0.628c-0.983-0.408-1.618-1.793-3.035-0.972
		c-7.249,4.2-14.514,8.375-21.77,12.563c-9.03,5.212-18.057,10.43-27.085,15.645c-1.366-0.735-2.732-1.47-4.175-2.246
		c-0.254,1.166-0.61,2.201-0.68,3.254c-0.117,1.732-1.057,2.218-2.637,2.401c-2.965,0.344-5.905,0.902-9.118,1.413
		C44.627,54.396,45.877,55.165,47.128,55.934z"/>
	<path fill="#FC9C01" d="M47.128,55.934c-1.251-0.769-2.502-1.539-4-2.46c3.214-0.511,6.154-1.069,9.118-1.413
		c1.581-0.183,2.521-0.669,2.637-2.401c0.071-1.053,0.426-2.087,0.68-3.254c1.443,0.776,2.809,1.511,4.175,2.246
		c0.732,0.591,1.547,1.04,2.413,1.402c0.631,0.53,1.341,0.925,2.106,1.223c0.917,0.528,1.834,1.057,2.751,1.585
		c1.24,0.862,2.556,1.592,3.91,2.258c0.907,0.534,1.061,0.931-0.04,1.53c-3.154,1.715-6.292,3.468-9.356,5.339
		c-1.225,0.748-2.273,1.17-3.487,0.155c-0.898-0.496-1.796-0.992-2.694-1.488c-0.342-0.358-0.769-0.575-1.227-0.74
		c-1.062-0.605-2.124-1.21-3.186-1.815c-0.489-0.275-0.979-0.549-1.468-0.824C48.75,56.713,47.974,56.263,47.128,55.934z"/>
	<path fill="#076C83" d="M30.306,69.411c0.44,0.481,0.24,1.071,0.241,1.609c0.011,18.632-0.07,37.265,0.053,55.897
		c0.044,6.599,3,11.892,8.416,15.751c0.404,0.288,0.94,0.45,1.113,1.001c-4.583,0.347-9.103-3.173-10.389-8.106
		c-0.589-2.257-0.899-4.536-0.894-6.889c0.039-17.181-0.003-34.361,0.049-51.542C28.903,74.506,29.311,71.889,30.306,69.411z"/>
	<path fill="#F7F6E4" d="M111.628,21.417c0.453,0.209,0.905,0.419,1.358,0.628c0.313,0.236,0.625,0.471,0.938,0.707
		c-0.363,0.422-0.7,0.869-1.092,1.262c-6.136,6.147-12.281,12.286-18.419,18.433c-0.36,0.36-0.675,0.765-1.011,1.149
		c-0.376,0.279-0.751,0.559-1.127,0.838c-1.55,0.186-2.913,0.926-4.343,1.469c-0.257,0.098-0.549,0.325-0.771,0.081
		c-0.335-0.37,0.111-0.562,0.294-0.786c0.206-0.252,0.456-0.467,0.687-0.698c6.666-6.666,13.335-13.33,19.994-20.005
		c0.411-0.412,1.015-0.729,0.945-1.464C109.931,22.493,110.78,21.955,111.628,21.417z"/>
	<path fill="#F7F6E4" d="M93.403,43.596c0.336-0.384,0.651-0.789,1.011-1.149c6.138-6.146,12.282-12.285,18.419-18.433
		c0.392-0.393,0.729-0.84,1.092-1.262c0.363,0.211,0.726,0.422,1.088,0.633c-0.45,0.402-0.92,0.783-1.346,1.209
		c-5.578,5.569-11.152,11.142-16.718,16.723c-0.347,0.348-0.832,0.61-0.959,1.367c1.794-0.333,3.281-1.355,4.987-1.611
		c-0.015,0.644-0.541,0.945-0.922,1.328c-2.678,2.695-5.372,5.374-8.052,8.068c-0.378,0.38-0.916,0.689-0.81,1.365
		c-3.325,2.048-6.701,4.009-10.145,5.853c-0.019-0.657,0.5-0.973,0.885-1.359c3.757-3.768,7.522-7.529,11.285-11.292
		c0.231-0.231,0.484-0.445,0.684-0.701C94.48,43.6,93.905,43.616,93.403,43.596z"/>
	<path fill="#F0F0D2" d="M33.195,67.125c-0.046-0.158-0.091-0.315-0.137-0.472c3.374-1.883,6.749-3.766,10.123-5.649
		c-0.182,1.095-1.413,1.412-1.858,2.563c1.928-0.703,3.717-1.355,5.507-2.008c-0.012,0.587-0.477,0.875-0.827,1.228
		c-2.056,2.069-4.126,4.124-6.181,6.194c-0.351,0.353-0.817,0.637-0.864,1.212c-0.993-0.562-2.097-0.955-2.849-1.883
		c1.387-1.07,2.517-2.384,3.592-3.77c-2.068,0.408-3.062,2.138-4.381,3.458C34.531,67.903,34.038,67.088,33.195,67.125z"/>
	<path fill="#F0F0D2" d="M46.829,61.559c-1.789,0.652-3.579,1.305-5.507,2.008c0.445-1.151,1.677-1.468,1.858-2.563
		c2.093-1.242,4.186-2.485,6.279-3.727c0.49,0.275,0.979,0.549,1.468,0.824c-1.085,0.678-1.914,1.62-2.697,2.61
		C47.715,60.912,47.472,61.566,46.829,61.559z"/>
	<path fill="#076C83" d="M31.953,64.356c-0.02,0.041-0.041,0.081-0.061,0.122C31.913,64.438,31.933,64.397,31.953,64.356
		C31.953,64.356,31.953,64.356,31.953,64.356z"/>
	<path fill="#DEDEB2" d="M39.48,140.148c-4.041-2.789-6.34-6.672-6.363-11.541c-0.083-17.203,0.004-34.406,0.035-51.609
		c0.004-1.96,0.06-3.921,0.092-5.881c0.65,1.037,0.551,2.224,0.672,3.366c0.178,1.677,0.153,3.376,0.565,5.026
		c0.001,0.559,0.001,1.118,0.002,1.676c0.099,1.22,0.198,2.441,0.298,3.661c0.016,0.388-0.137,0.814,0.248,1.12
		c-0.064,1.322,0.086,2.628,0.306,3.928c-0.003,0.464-0.006,0.928-0.009,1.392c0.674,1.142-0.157,2.515,0.558,3.651
		c0.001,0.56,0.001,1.119,0.002,1.679c0.306,2.901,0.344,5.827,0.849,8.709c-0.002,0.464-0.005,0.929-0.007,1.394
		c0.479,1.269-0.019,2.676,0.552,3.932c0.003,0.279,0.006,0.558,0.009,0.837c-0.182,1.426,0.393,2.8,0.295,4.22
		c-0.002,0.369-0.005,0.739-0.007,1.108c0.186,1.313,0.372,2.626,0.558,3.939c0.001,0.308-0.063,0.635,0.263,0.841
		c-0.246,1.425-0.089,2.822,0.286,4.205c0.001,0.373,0.002,0.747,0.004,1.12c-0.175,1.425,0.394,2.798,0.298,4.218
		c-0.003,0.37-0.006,0.739-0.008,1.109c0.186,1.312,0.372,2.625,0.558,3.937c0,0.557,0,1.115,0,1.672
		C39.4,138.619,40.285,139.404,39.48,140.148z"/>
	<path fill="#CDCB98" d="M36.736,105.326c-0.506-2.881-0.544-5.808-0.85-8.709c0.384-0.338,0.787-0.656,1.148-1.016
		c3.675-3.665,7.34-7.339,11.017-11.002c0.354-0.353,0.63-0.838,1.218-0.876c-0.005,1.398-0.01,2.796-0.015,4.194
		c-0.399,0.02-0.468,0.413-0.703,0.618c-4.047,3.52-7.616,7.527-11.473,11.241c-0.101,0.097-0.201,0.195-0.293,0.3
		c-0.162,0.186-0.289,0.386-0.024,0.585c0.164,0.123,0.356,0.131,0.51-0.005c0.28-0.245,0.548-0.505,0.811-0.768
		c3.132-3.13,6.268-6.256,9.388-9.397c0.505-0.508,0.994-0.988,1.779-0.936c-0.006,1.314-0.012,2.628-0.018,3.942
		c-1.12,1.031-2.269,2.031-3.352,3.099c-2.619,2.582-5.204,5.2-7.813,7.792C37.681,104.772,37.379,105.298,36.736,105.326z"/>
	<path fill="#CDCB98" d="M35.884,94.939c-0.715-1.136,0.117-2.509-0.558-3.651c1.105-0.129,1.326-1.211,1.962-1.841
		c3.5-3.467,6.976-6.958,10.456-10.445c0.436-0.437,0.903-0.799,1.533-0.891c-0.005,1.398-0.009,2.797-0.014,4.195
		c-0.574,0.059-0.852,0.534-1.204,0.885c-3.618,3.605-7.224,7.222-10.844,10.827C36.833,94.399,36.532,94.928,35.884,94.939z"/>
	<path fill="#CDCB98" d="M34.482,79.51c-0.412-1.65-0.387-3.35-0.565-5.026c-0.121-1.142-0.022-2.329-0.672-3.366
		c-0.18-1.329-0.152-2.66-0.05-3.992c0.843-0.037,1.336,0.778,2.125,0.875c0.181,0.311,0.495,0.286,0.789,0.311
		c0.751,0.928,1.856,1.32,2.849,1.883c0.277,0.121,0.553,0.241,0.83,0.362c0.67,0.597,1.462,0.993,2.261,1.379
		c0.01,0.084,0.014,0.169,0.014,0.254c-2.163,2.508-4.63,4.718-6.951,7.071C34.967,79.407,34.695,79.429,34.482,79.51z"/>
	<path fill="#CDCB98" d="M35.335,89.895c-0.22-1.3-0.371-2.605-0.306-3.928c0.213-0.079,0.486-0.1,0.631-0.246
		c3.636-3.659,7.4-7.191,10.89-10.994c0.176,0.016,0.353,0.032,0.529,0.047c0.695,0.554,1.409,1.072,2.325,1.198
		c-0.013,0.133-0.026,0.266-0.038,0.399c-0.032,0.108-0.064,0.216-0.096,0.324c-0.734,0.622-1.513,1.198-2.194,1.873
		c-3.482,3.449-6.936,6.927-10.409,10.385C36.282,89.338,35.979,89.865,35.335,89.895z"/>
	<path fill="#CDCB98" d="M37.281,110.652c-0.571-1.256-0.073-2.663-0.552-3.932c0.477,0.009,0.768-0.311,1.034-0.629
		c3.043-3.644,6.646-6.743,9.901-10.18c0.443-0.467,0.923-0.762,1.575-0.735c-0.008,1.312-0.016,2.623-0.025,3.935
		c-1.638,1.303-3.059,2.834-4.546,4.297C42.209,105.826,39.744,108.237,37.281,110.652z"/>
	<path fill="#CDCB98" d="M37.584,115.709c0.098-1.42-0.477-2.794-0.295-4.22c0.652-0.013,0.953-0.547,1.339-0.931
		c2.984-2.967,5.96-5.942,8.927-8.926c0.474-0.477,0.925-0.939,1.68-0.792c-0.006,1.303-0.012,2.606-0.018,3.91
		c-3.673,3.092-6.841,6.703-10.3,10.014C38.523,115.142,38.226,115.674,37.584,115.709z"/>
	<path fill="#CDCB98" d="M38.136,120.757c-0.186-1.313-0.372-2.626-0.559-3.939c0.446,0.041,0.824-0.08,1.118-0.437
		c2.695-3.284,5.932-6.041,8.843-9.115c0.46-0.486,0.924-0.929,1.664-0.849c-0.017,1.309-0.033,2.617-0.05,3.926
		c-3.517,3.131-6.707,6.594-10.072,9.879C38.811,120.484,38.553,120.757,38.136,120.757z"/>
	<path fill="#CDCB98" d="M38.685,125.803c-0.375-1.383-0.532-2.78-0.286-4.205c0.645-0.015,0.95-0.539,1.335-0.921
		c2.604-2.588,5.2-5.185,7.789-7.787c0.466-0.468,0.906-0.949,1.654-0.854c0.051,1.311,0.129,2.623-0.065,3.93
		c-3.193,3.137-6.387,6.273-9.578,9.411C39.295,125.613,39.042,125.808,38.685,125.803z"/>
	<path fill="#CDCB98" d="M38.987,131.141c0.096-1.42-0.473-2.793-0.298-4.218c0.647-0.012,0.948-0.541,1.332-0.922
		c2.504-2.487,4.998-4.984,7.489-7.485c0.462-0.464,0.891-0.968,1.646-0.864c0.044,1.315,0.156,2.632-0.088,3.941
		c-3.149,3.097-6.295,6.197-9.454,9.284C39.463,131.025,39.198,131.056,38.987,131.141z"/>
	<path fill="#CDCB98" d="M39.537,136.187c-0.186-1.312-0.372-2.625-0.559-3.937c0.512,0.058,0.896-0.149,1.214-0.545
		c2.32-2.885,5.162-5.265,7.689-7.95c0.351-0.373,0.758-0.523,1.253-0.487c-0.007,1.308-0.014,2.615-0.022,3.923
		c-2.913,2.522-5.466,5.412-8.246,8.07C40.475,135.635,40.18,136.166,39.537,136.187z"/>
	<path fill="#CDCB98" d="M39.48,140.148c0.804-0.744-0.08-1.529,0.056-2.289c2.743-2.697,5.483-5.396,8.231-8.087
		c0.388-0.379,0.696-0.899,1.346-0.89c-0.006,1.308-0.012,2.617-0.018,3.925c-2.858,2.615-5.625,5.321-8.192,8.226
		C40.365,140.843,39.856,140.603,39.48,140.148z"/>
	<path fill="#CDCB98" d="M49.099,134.496c-0.006,1.446,0.053,2.895-0.031,4.337c-0.194,3.346-2.647,4.851-5.743,3.578
		c-0.557-0.229-1.115-0.455-1.56-0.881c2.09-2.41,4.454-4.551,6.701-6.806C48.609,134.579,48.885,134.568,49.099,134.496z"/>
	<path fill="#CDCB98" d="M35.884,94.939c0.648-0.011,0.948-0.54,1.331-0.921c3.619-3.604,7.225-7.221,10.844-10.827
		c0.353-0.351,0.631-0.825,1.204-0.885c0.002,0.472,0.003,0.945,0.005,1.417c-0.587,0.038-0.864,0.524-1.218,0.876
		c-3.677,3.663-7.342,7.337-11.017,11.002c-0.361,0.36-0.765,0.678-1.148,1.016C35.886,96.058,35.885,95.498,35.884,94.939z"/>
	<path fill="#CDCB98" d="M35.335,89.895c0.643-0.031,0.947-0.558,1.333-0.942c3.473-3.458,6.927-6.936,10.409-10.385
		c0.681-0.675,1.46-1.251,2.194-1.873c0.002,0.472,0.004,0.943,0.006,1.415c-0.63,0.092-1.097,0.454-1.533,0.891
		c-3.48,3.487-6.956,6.978-10.456,10.445c-0.636,0.63-0.857,1.711-1.962,1.841C35.329,90.824,35.332,90.36,35.335,89.895z"/>
	<path fill="#CDCB98" d="M49.239,95.175c-0.653-0.027-1.133,0.268-1.575,0.735c-3.255,3.437-6.857,6.536-9.901,10.18
		c-0.266,0.318-0.557,0.638-1.034,0.629c0.002-0.465,0.005-0.929,0.007-1.394c0.643-0.028,0.946-0.554,1.331-0.937
		c2.609-2.592,5.194-5.21,7.813-7.792c1.083-1.068,2.232-2.068,3.352-3.099C49.369,94.057,49.346,94.616,49.239,95.175z"/>
	<path fill="#CDCB98" d="M49.25,89.556c-0.785-0.052-1.274,0.428-1.779,0.936c-3.121,3.141-6.256,6.267-9.388,9.397
		c-0.263,0.263-0.531,0.523-0.811,0.768c-0.155,0.136-0.347,0.128-0.51,0.005c-0.265-0.199-0.138-0.399,0.024-0.585
		c0.092-0.105,0.192-0.203,0.293-0.3c3.857-3.714,7.426-7.721,11.473-11.241c0.235-0.205,0.304-0.598,0.703-0.618
		C49.253,88.464,49.251,89.01,49.25,89.556z"/>
	<path fill="#CDCB98" d="M49.115,128.882c-0.65-0.009-0.959,0.511-1.346,0.89c-2.749,2.691-5.489,5.391-8.231,8.087
		c0-0.557,0-1.115,0-1.672c0.643-0.021,0.938-0.552,1.33-0.926c2.78-2.658,5.333-5.548,8.246-8.07
		C49.348,127.754,49.275,128.318,49.115,128.882z"/>
	<path fill="#CDCB98" d="M49.235,100.84c-0.755-0.147-1.206,0.315-1.68,0.792c-2.967,2.984-5.943,5.959-8.927,8.926
		c-0.386,0.384-0.687,0.918-1.339,0.931c-0.003-0.279-0.006-0.558-0.009-0.838c2.462-2.415,4.928-4.826,7.386-7.245
		c1.487-1.463,2.908-2.994,4.546-4.297C49.367,99.685,49.337,100.262,49.235,100.84z"/>
	<path fill="#CDCB98" d="M49.202,106.416c-0.741-0.08-1.204,0.363-1.664,0.849c-2.911,3.074-6.148,5.831-8.843,9.115
		c-0.294,0.358-0.672,0.479-1.118,0.437c0.002-0.369,0.004-0.739,0.007-1.108c0.641-0.036,0.938-0.568,1.332-0.945
		c3.459-3.311,6.627-6.922,10.3-10.014C49.342,105.307,49.342,105.862,49.202,106.416z"/>
	<path fill="#CDCB98" d="M49.177,112.035c-0.748-0.095-1.188,0.386-1.654,0.854c-2.59,2.602-5.185,5.199-7.789,7.787
		c-0.385,0.382-0.69,0.906-1.335,0.921c-0.326-0.206-0.262-0.534-0.263-0.841c0.417,0.001,0.675-0.273,0.944-0.536
		c3.365-3.285,6.555-6.748,10.072-9.879C49.394,110.903,49.313,111.469,49.177,112.035z"/>
	<path fill="#CDCB98" d="M49.156,117.652c-0.755-0.104-1.183,0.4-1.646,0.864c-2.491,2.5-4.985,4.998-7.489,7.485
		c-0.384,0.381-0.685,0.91-1.332,0.922c-0.001-0.373-0.002-0.747-0.004-1.12c0.357,0.005,0.609-0.19,0.85-0.426
		c3.191-3.138,6.385-6.274,9.578-9.411C49.41,116.521,49.292,117.086,49.156,117.652z"/>
	<path fill="#CDCB98" d="M49.134,123.268c-0.495-0.036-0.902,0.114-1.253,0.487c-2.527,2.685-5.369,5.065-7.689,7.95
		c-0.319,0.396-0.702,0.603-1.214,0.545c0.003-0.37,0.005-0.74,0.008-1.109c0.212-0.085,0.476-0.116,0.627-0.263
		c3.159-3.087,6.305-6.187,9.454-9.284C49.435,122.138,49.26,122.704,49.134,123.268z"/>
	<path fill="#CDCB98" d="M49.099,134.496c-0.214,0.073-0.49,0.084-0.633,0.227c-2.247,2.255-4.611,4.396-6.701,6.806
		c-0.351-0.055-0.638-0.22-0.861-0.496c2.567-2.905,5.334-5.611,8.192-8.226C49.33,133.37,49.251,133.933,49.099,134.496z"/>
	<path fill="#F7F6E4" d="M109.082,23.031c0.069,0.734-0.534,1.052-0.945,1.464c-6.659,6.674-13.327,13.338-19.994,20.005
		c-0.231,0.231-0.481,0.447-0.687,0.698c-0.183,0.224-0.63,0.416-0.294,0.786c0.222,0.244,0.514,0.016,0.771-0.081
		c1.43-0.543,2.793-1.283,4.343-1.469c-0.336,0.384-0.652,0.788-1.011,1.148c-4.218,4.228-8.446,8.447-12.662,12.677
		c-0.383,0.384-0.918,0.686-0.91,1.343c-3.19,2.031-6.486,3.88-9.805,5.69c-0.065-0.73,0.528-1.053,0.94-1.466
		C73.96,58.678,79.103,53.54,84.243,48.4c0.231-0.231,0.484-0.444,0.683-0.7c0.575-0.735-0.002-0.716-0.502-0.737
		c0.335-0.384,0.649-0.788,1.009-1.148c6.46-6.469,12.927-12.93,19.386-19.4c0.414-0.414,0.998-0.75,0.892-1.486
		C106.835,24.296,107.959,23.663,109.082,23.031z"/>
	<path fill="#F0F0D2" d="M64.516,67.205c-3.186,2.051-6.511,3.863-9.808,5.723c-0.1-0.729,0.473-1.067,0.886-1.481
		c2.847-2.861,5.708-5.708,8.554-8.57c0.38-0.383,0.911-0.683,0.91-1.334c3.247-2.176,6.674-4.043,10.108-5.897
		c-0.006,0.648-0.531,0.953-0.913,1.337c-2.948,2.963-5.911,5.912-8.859,8.876C65.013,66.239,64.476,66.541,64.516,67.205z"/>
	<path fill="#F0F0D2" d="M49.405,75.973c-0.916-0.126-1.63-0.644-2.325-1.199c0.109-0.251,0.155-0.564,0.335-0.742
		c2.508-2.491,5.034-4.964,7.555-7.441c0.666,0.061,1.232-0.113,1.838-0.455c1.614-0.911,3.122-2.024,4.878-2.675
		c0.029,0.663-0.502,0.972-0.885,1.358c-2.868,2.883-5.751,5.752-8.619,8.635c-0.381,0.383-0.926,0.69-0.837,1.37
		C50.7,75.207,50.053,75.59,49.405,75.973z"/>
	<path fill="#F7F6E4" d="M64.516,67.205c-0.04-0.664,0.497-0.966,0.877-1.348c2.948-2.964,5.911-5.913,8.859-8.876
		c0.382-0.384,0.907-0.689,0.913-1.337c0.718-0.78,2.285-0.702,2.256-2.235c0.928-0.138,1.363-0.936,1.903-1.528
		c1.235-1.355,2.878-2.343,3.699-4.07c0.467-0.283,0.934-0.565,1.402-0.848c0.5,0.021,1.076,0.002,0.502,0.737
		c-0.199,0.255-0.453,0.469-0.683,0.7c-5.14,5.14-10.283,10.278-15.416,15.426c-0.412,0.413-1.005,0.736-0.94,1.466
		C66.82,66.028,65.719,66.707,64.516,67.205z"/>
	<path fill="#F7F6E4" d="M77.692,59.603c-0.007-0.657,0.527-0.959,0.91-1.343c4.216-4.23,8.444-8.449,12.662-12.677
		c0.359-0.36,0.675-0.764,1.011-1.148c0.376-0.279,0.751-0.559,1.127-0.838c0.503,0.02,1.078,0.004,0.501,0.739
		c-0.2,0.255-0.453,0.47-0.684,0.701c-3.762,3.763-7.528,7.524-11.285,11.292c-0.385,0.386-0.904,0.702-0.885,1.359
		C79.997,58.442,78.879,59.084,77.692,59.603z"/>
	<path fill="#F0F0D2" d="M51.347,74.824c-0.089-0.681,0.456-0.987,0.837-1.37c2.868-2.883,5.75-5.752,8.619-8.635
		c0.384-0.386,0.914-0.695,0.885-1.357c1.051-0.767,2.116-1.509,3.369-1.921c0.002,0.651-0.529,0.952-0.91,1.334
		c-2.846,2.862-5.707,5.709-8.554,8.57c-0.412,0.414-0.985,0.752-0.886,1.481C53.587,73.56,52.467,74.192,51.347,74.824z"/>
	<path fill="#F7F6E4" d="M91.194,51.834c-0.106-0.677,0.431-0.985,0.81-1.365c2.679-2.694,5.373-5.373,8.052-8.068
		c0.381-0.383,0.906-0.684,0.922-1.328c0.467-0.282,0.934-0.563,1.402-0.845c1.323,0.072,0.64,0.609,0.222,1.031
		c-1.99,2.007-4.025,3.97-5.976,6.013c-0.844,0.883-2.013,1.512-2.386,2.802C93.287,50.77,92.265,51.344,91.194,51.834z"/>
	<path fill="#F7F6E4" d="M111.641,36.582c1.023-0.008,0.861,0.393,0.324,0.93c-1.174,1.172-2.349,2.344-3.518,3.521
		c-0.352,0.354-0.795,0.663-0.716,1.265c-1.072,0.728-2.17,1.409-3.369,1.911c-0.06-0.604,0.408-0.896,0.756-1.247
		c1.428-1.441,2.87-2.867,4.298-4.309c0.349-0.352,0.812-0.64,0.823-1.224C110.882,37.438,111.124,36.783,111.641,36.582z"/>
	<path fill="#F7F6E4" d="M120.619,33.215c1.764,0.157-0.185,1.05,0.29,1.462c-1.052,0.768-2.184,1.397-3.372,1.925
		c0.08-1.165,1.561-1.402,1.681-2.54C119.684,33.78,120.151,33.498,120.619,33.215z"/>
	<path fill="#11D874" d="M119.783,46.685c-0.097,0.104-0.194,0.208-0.29,0.312C119.589,46.893,119.686,46.789,119.783,46.685z"/>
	<path fill="#FEBB00" d="M121.55,51.177c0.032,0.509,0.093,1.019,0.093,1.528c-0.007,12.371-0.045,24.742-0.001,37.112
		c0.005,1.444-0.456,2.228-1.722,2.927c-4.366,2.411-8.654,4.964-12.974,7.457c-0.43,0.248-0.881,0.46-1.424,0.741
		c0-0.711,0-1.258,0-1.806c0.072-0.117,0.171-0.226,0.212-0.354c2.049-6.235,4.098-12.471,6.137-18.709
		c3.049-9.329,6.087-18.66,9.147-27.985C121.123,51.767,121.079,51.305,121.55,51.177z"/>
	<path fill="#FC9C01" d="M121.55,51.177c-0.472,0.129-0.428,0.59-0.534,0.912c-3.06,9.325-6.098,18.657-9.147,27.985
		c-2.039,6.239-4.088,12.474-6.137,18.709c-0.042,0.127-0.14,0.236-0.212,0.354c-0.015-9.018-0.033-18.035-0.044-27.053
		c-0.005-4.346,0.004-8.692,0.005-13.037c0-0.552-0.066-1.06,0.575-1.426c4.981-2.844,9.94-5.727,14.909-8.594
		c0.153-0.088,0.332-0.13,0.639-0.246C121.652,49.646,121.726,50.408,121.55,51.177z"/>
	<path fill="#0FA3A3" d="M109.082,23.031c-1.124,0.633-2.247,1.265-3.371,1.898c-3.303,1.843-6.616,3.67-9.81,5.702
		c-1.178,0.517-2.29,1.147-3.33,1.905c-3.344,1.789-6.641,3.66-9.846,5.689c-1.179,0.513-2.28,1.165-3.343,1.886
		c-3.324,1.826-6.638,3.672-9.84,5.709c-2.542,1.276-4.994,2.708-7.392,4.234c-0.866-0.362-1.68-0.811-2.412-1.402
		c9.028-5.215,18.055-10.432,27.085-15.645c7.256-4.189,14.52-8.363,21.77-12.563c1.417-0.821,2.052,0.564,3.035,0.972
		C110.78,21.955,109.931,22.493,109.082,23.031z"/>
	<path fill="#F0F0D2" d="M42.049,71.935c-0.799-0.385-1.591-0.782-2.261-1.379c1.218-1.266,2.423-2.545,3.656-3.795
		c1.691-1.715,3.403-3.41,5.106-5.113c0.53-0.529,0.726-0.942-0.318-0.936c0.783-0.99,1.612-1.932,2.697-2.61
		c1.062,0.605,2.124,1.21,3.186,1.815c0.001,0.42-0.291,0.666-0.554,0.929c-3.489,3.489-6.978,6.979-10.468,10.468
		C42.798,71.609,42.524,71.941,42.049,71.935z"/>
	<path fill="#F0F0D2" d="M55.342,60.656c0.898,0.496,1.796,0.992,2.694,1.488c-0.332,1.16-1.524,1.251-2.324,1.81
		c-0.77,0.539-1.459,1.018-1.319,2.085c-0.211,0.079-0.481,0.101-0.625,0.247c-2.605,2.621-5.194,5.258-7.787,7.891
		c-0.095,0.004-0.19,0.007-0.285,0.011c-0.746-0.473-1.491-0.946-2.237-1.419c-0.002-0.597,0.473-0.884,0.826-1.238
		c2.169-2.183,4.329-4.375,6.531-6.524C52.313,63.546,53.658,61.924,55.342,60.656z"/>
	<path fill="#CDCB98" d="M54.393,66.039c-0.14-1.067,0.549-1.546,1.319-2.085c0.8-0.56,1.992-0.65,2.324-1.81
		c1.214,1.015,2.262,0.593,3.487-0.155c3.063-1.871,6.201-3.624,9.356-5.339c1.101-0.599,0.947-0.996,0.04-1.53
		c0.108-0.095,0.217-0.19,0.325-0.285c1.157-0.313,2.136-0.953,3.069-1.677c0.327-0.163,0.663-0.31,0.98-0.49
		c0.998-0.567,1.773-0.524,2.128,0.741c0.028,1.533-1.539,1.456-2.256,2.235c-3.434,1.855-6.861,3.721-10.108,5.897
		c-1.253,0.412-2.319,1.154-3.369,1.92c-1.757,0.65-3.265,1.763-4.878,2.674c-0.607,0.343-1.172,0.516-1.838,0.455
		C54.778,66.407,54.586,66.223,54.393,66.039z"/>
	<path fill="#F7F6E4" d="M69.543,45.82c3.202-2.037,6.515-3.883,9.839-5.709c-0.154,1.145-1.15,1.653-1.852,2.349
		c-3.504,3.471-6.865,7.086-10.522,10.402c-0.917-0.528-1.834-1.057-2.751-1.585c1.567-0.98,2.654-2.475,3.97-3.724
		C68.748,47.06,69.483,46.681,69.543,45.82z"/>
	<path fill="#F7F6E4" d="M67.009,52.862c3.657-3.316,7.018-6.931,10.522-10.402c0.702-0.695,1.698-1.204,1.852-2.349
		c1.062-0.721,2.163-1.373,3.343-1.886c0.028,0.664-0.509,0.968-0.892,1.353c-4.058,4.072-8.129,8.131-12.184,12.206
		c-0.328,0.33-0.844,0.577-0.817,1.282c1.856-0.329,3.343-1.607,5.205-1.619c-0.335,0.384-0.69,0.752-1.001,1.154
		c-0.586,0.755-1.615,1.154-1.793,2.235c-0.108,0.095-0.217,0.19-0.325,0.285C69.565,54.454,68.249,53.724,67.009,52.862z"/>
	<path fill="#F0F0D2" d="M55.342,60.656c-1.684,1.267-3.028,2.889-4.526,4.351c-2.202,2.149-4.362,4.342-6.531,6.524
		c-0.352,0.354-0.828,0.641-0.826,1.238c-0.189-0.086-0.377-0.171-0.565-0.257c-0.277-0.108-0.554-0.216-0.831-0.324
		c0-0.085-0.004-0.17-0.014-0.254c0.475,0.007,0.749-0.326,1.045-0.621c3.489-3.489,6.978-6.978,10.468-10.468
		c0.263-0.263,0.555-0.509,0.554-0.929C54.573,60.081,55,60.298,55.342,60.656z"/>
	<path fill="#F7F6E4" d="M69.543,45.82c-0.06,0.861-0.796,1.24-1.315,1.733c-1.315,1.249-2.402,2.744-3.97,3.724
		c-0.766-0.298-1.476-0.693-2.106-1.223C64.549,48.527,67.001,47.095,69.543,45.82z"/>
	<path fill="#F0F0D2" d="M48.232,60.711c1.044-0.006,0.847,0.407,0.318,0.936c-1.704,1.703-3.415,3.398-5.106,5.113
		c-1.233,1.251-2.438,2.529-3.656,3.795c-0.277-0.12-0.554-0.241-0.83-0.361c0.047-0.576,0.513-0.86,0.864-1.213
		c2.055-2.069,4.125-4.125,6.181-6.194c0.351-0.353,0.816-0.642,0.827-1.228C47.472,61.566,47.715,60.912,48.232,60.711z"/>
	<path fill="#F0F0D2" d="M36.108,68.311c-0.294-0.026-0.608-0.001-0.789-0.311c1.319-1.321,2.314-3.05,4.381-3.459
		C38.625,65.927,37.496,67.241,36.108,68.311z"/>
	<path fill="#CDCB98" d="M42.894,72.512c0.188,0.086,0.377,0.171,0.565,0.257c0.746,0.473,1.491,0.946,2.237,1.419
		c-3.428,3.467-6.853,6.937-10.291,10.395c-0.147,0.148-0.413,0.179-0.624,0.265c-0.099-1.22-0.198-2.441-0.298-3.661
		c2.72-2.679,5.444-5.356,8.153-8.047C42.784,72.993,42.811,72.724,42.894,72.512z"/>
	<path fill="#CDCB98" d="M34.781,84.847c0.211-0.086,0.476-0.116,0.624-0.265c3.438-3.457,6.863-6.927,10.291-10.395
		c0.095-0.004,0.19-0.007,0.285-0.011c0.19,0.183,0.38,0.367,0.57,0.55c-3.491,3.803-7.254,7.335-10.89,10.994
		c-0.146,0.146-0.418,0.167-0.631,0.246C34.644,85.661,34.798,85.235,34.781,84.847z"/>
	<path fill="#CDCB98" d="M42.894,72.512c-0.083,0.212-0.109,0.48-0.257,0.627c-2.709,2.691-5.433,5.367-8.153,8.047
		c-0.001-0.559-0.001-1.118-0.002-1.676c0.213-0.08,0.485-0.102,0.63-0.25c2.321-2.353,4.787-4.563,6.951-7.071
		C42.34,72.296,42.617,72.404,42.894,72.512z"/>
	<path fill="#F0F0D2" d="M46.551,74.727c-0.19-0.183-0.38-0.367-0.57-0.55c2.593-2.633,5.182-5.27,7.787-7.891
		c0.145-0.146,0.414-0.167,0.625-0.247c0.193,0.184,0.385,0.368,0.578,0.552c-2.521,2.477-5.047,4.95-7.555,7.441
		c-0.18,0.179-0.226,0.491-0.335,0.742C46.904,74.759,46.727,74.743,46.551,74.727z"/>
	<path fill="#F7F6E4" d="M95.901,30.631c3.194-2.032,6.506-3.859,9.81-5.702c0.106,0.736-0.478,1.072-0.892,1.486
		c-6.459,6.47-12.926,12.931-19.386,19.4c-0.359,0.36-0.674,0.764-1.009,1.148c-0.467,0.283-0.934,0.565-1.402,0.848
		c-1.398,0.509-2.796,1.018-4.194,1.525c-0.257,0.093-0.553,0.254-0.724-0.088c-0.127-0.254,0.124-0.423,0.275-0.588
		c0.221-0.241,0.459-0.467,0.69-0.698c5.289-5.289,10.581-10.575,15.861-15.873C95.343,31.675,95.947,31.361,95.901,30.631z"/>
	<path fill="#F7F6E4" d="M95.901,30.631c0.045,0.73-0.558,1.044-0.97,1.458c-5.28,5.298-10.572,10.584-15.861,15.873
		c-0.231,0.231-0.469,0.457-0.69,0.698c-0.151,0.165-0.402,0.334-0.275,0.588c0.171,0.342,0.468,0.181,0.724,0.088
		c1.398-0.507,2.796-1.017,4.194-1.525c-0.821,1.728-2.464,2.716-3.699,4.07c-0.54,0.592-0.975,1.39-1.903,1.528
		c-0.355-1.265-1.131-1.307-2.128-0.741c-0.317,0.18-0.653,0.328-0.98,0.49c0.236-1.229,1.584-1.611,2.094-2.756
		c-0.352-0.026-0.655-0.049-0.959-0.072c0.336-0.385,0.65-0.79,1.01-1.151c5.05-5.059,10.107-10.11,15.157-15.17
		c0.418-0.419,0.98-0.761,0.958-1.474C93.611,31.778,94.724,31.148,95.901,30.631z"/>
	<path fill="#F7F6E4" d="M92.571,32.536c0.023,0.713-0.54,1.055-0.958,1.474c-5.049,5.06-10.107,10.111-15.157,15.17
		c-0.36,0.36-0.674,0.766-1.01,1.151c-0.47,0.372-0.94,0.744-1.41,1.117c-1.862,0.012-3.349,1.291-5.205,1.619
		c-0.027-0.704,0.489-0.952,0.817-1.282c4.055-4.075,8.126-8.134,12.184-12.206c0.383-0.384,0.92-0.689,0.892-1.353
		C85.931,36.196,89.227,34.325,92.571,32.536z"/>
	<path fill="#F7F6E4" d="M74.038,51.447c0.47-0.372,0.94-0.744,1.41-1.117c0.304,0.023,0.608,0.045,0.959,0.072
		c-0.51,1.145-1.858,1.528-2.094,2.756c-0.933,0.724-1.912,1.364-3.069,1.677c0.178-1.08,1.207-1.48,1.793-2.234
		C73.348,52.199,73.702,51.83,74.038,51.447z"/>
</g>
<g>
	<path fill="#FEFEFE" d="M86.545,84.837c0.017,0.878,0.12,1.761-0.122,2.627c-0.366,0.141-0.651,0.389-0.926,0.664
		c-8.587,8.593-17.178,17.182-25.766,25.774c-0.208,0.208-0.487,0.376-0.496,0.724c-0.086-0.103-0.171-0.207-0.257-0.31
		c0.002-0.82,0.005-1.641,0.007-2.461c0.209-0.015,0.251-0.168,0.279-0.334c0.398-0.05,0.588-0.385,0.834-0.63
		c8.483-8.476,16.962-16.957,25.445-25.433C85.823,85.177,86.045,84.775,86.545,84.837z"/>
	<path fill="#FEFEFE" d="M86.545,88.131c-0.002,0.822-0.003,1.644-0.005,2.466c-0.344,0.02-0.51,0.3-0.718,0.508
		c-8.686,8.681-17.369,17.364-26.051,26.049c-0.23,0.231-0.501,0.433-0.601,0.768c-0.403-0.902-0.183-1.844-0.185-2.773
		c0.209-0.015,0.251-0.168,0.279-0.334c0.398-0.05,0.588-0.385,0.834-0.63c8.483-8.476,16.962-16.957,25.445-25.433
		C85.823,88.47,86.045,88.068,86.545,88.131z"/>
	<path fill="#FEFEFE" d="M58.978,111.023c-0.038-0.823-0.076-1.646,0.023-2.468c0.459,0.022,0.659-0.356,0.921-0.618
		c8.597-8.589,17.189-17.184,25.787-25.773c0.244-0.244,0.428-0.588,0.836-0.62c0.017,0.878,0.12,1.76-0.122,2.627
		c-0.366,0.141-0.651,0.389-0.926,0.664c-8.587,8.593-17.178,17.182-25.766,25.774c-0.208,0.208-0.487,0.376-0.496,0.724
		C59.149,111.23,59.064,111.126,58.978,111.023z"/>
	<path fill="#FEFEFE" d="M58.978,107.73c-0.038-0.823-0.076-1.646,0.023-2.468c0.39,0.03,0.579-0.272,0.806-0.499
		c7.445-7.441,14.888-14.884,22.329-22.33c0.208-0.208,0.486-0.378,0.48-0.73c0.77-0.462,1.523-0.958,2.317-1.376
		c0.566-0.297,1.164-0.403,1.483,0.389c-0.149,0.119-0.31,0.225-0.444,0.359c-8.769,8.764-17.535,17.531-26.3,26.299
		c-0.19,0.19-0.435,0.35-0.435,0.667C59.15,107.937,59.064,107.833,58.978,107.73z"/>
	<path fill="#FEFEFE" d="M86.597,93.397c-0.019,0.114-0.038,0.228-0.057,0.342c-0.205,0.271-0.41,0.542-0.614,0.813
		c-0.352-0.009-0.525,0.266-0.733,0.473c-6.74,6.736-13.478,13.475-20.215,20.215c-0.207,0.207-0.486,0.379-0.468,0.734
		c-1.3,0.767-2.598,1.538-3.903,2.297c-0.339,0.198-0.702,0.265-1.062,0.028c0.136-0.169,0.258-0.353,0.411-0.506
		c8.64-8.644,17.282-17.287,25.926-25.927c0.189-0.189,0.347-0.437,0.663-0.442C86.562,92.082,86.58,92.739,86.597,93.397z"/>
	<path fill="#FEFEFE" d="M74.695,86.27c1.943-1.21,3.923-2.354,5.942-3.432c0.007,0.421-0.341,0.608-0.584,0.851
		c-6.784,6.792-13.571,13.579-20.362,20.363c-0.208,0.208-0.37,0.488-0.703,0.538c-0.06-0.875-0.081-1.749,0.013-2.623
		c0.353,0.03,0.537-0.229,0.748-0.439c4.838-4.837,9.677-9.675,14.513-14.514C74.468,86.808,74.745,86.632,74.695,86.27z"/>
	<path fill="#FEFEFE" d="M72.244,111.514c-1.876,1.183-3.8,2.281-5.754,3.33c-0.029-0.392,0.284-0.574,0.509-0.799
		c5.674-5.68,11.352-11.357,17.031-17.032c0.208-0.208,0.378-0.485,0.728-0.485c-0.02,0.285-0.184,0.503-0.322,0.738
		c-0.689,1.167-1.417,2.312-1.988,3.545c-0.469,0.399-0.508,1.083-0.979,1.481c-0.316-0.006-0.481,0.233-0.671,0.423
		c-2.711,2.708-5.421,5.418-8.129,8.129C72.478,111.033,72.238,111.197,72.244,111.514z"/>
	<path fill="#FEFEFE" d="M66.644,90.928c2.041-1.288,4.136-2.481,6.26-3.627c-0.005,0.382-0.316,0.561-0.541,0.787
		c-4.221,4.227-8.445,8.451-12.672,12.672c-0.208,0.208-0.37,0.488-0.702,0.538c-0.054-0.876-0.09-1.751,0.02-2.626
		c0.277,0.022,0.453-0.144,0.631-0.322c2.278-2.281,4.56-4.558,6.833-6.845C66.612,91.363,66.96,91.229,66.644,90.928z"/>
	<path fill="#FEFEFE" d="M59.236,108.04c0-0.316,0.246-0.477,0.435-0.667c8.765-8.768,17.532-17.535,26.3-26.299
		c0.134-0.134,0.295-0.24,0.444-0.359c0.259,0.243,0.132,0.545,0.129,0.828c-0.408,0.031-0.592,0.376-0.836,0.62
		c-8.598,8.589-17.19,17.184-25.787,25.773c-0.262,0.261-0.462,0.639-0.921,0.618c-0.007-0.109-0.014-0.217-0.021-0.326
		C59.108,108.224,59.202,108.171,59.236,108.04z"/>
	<path fill="#FEFEFE" d="M86.545,91.424c-0.316,0.005-0.473,0.253-0.663,0.442c-8.644,8.641-17.286,17.283-25.926,25.927
		c-0.153,0.153-0.275,0.337-0.411,0.506c-0.214-0.038-0.315-0.188-0.375-0.379c0.1-0.334,0.371-0.537,0.601-0.767
		c8.682-8.685,17.365-17.368,26.051-26.049c0.208-0.208,0.374-0.488,0.718-0.508C86.541,90.873,86.543,91.148,86.545,91.424z"/>
	<path fill="#FEFEFE" d="M58.988,104.591c0.333-0.05,0.495-0.33,0.703-0.538c6.791-6.784,13.578-13.572,20.362-20.363
		c0.243-0.243,0.591-0.43,0.584-0.851c0.619-0.45,1.28-0.827,1.979-1.136c0.005,0.352-0.273,0.522-0.48,0.73
		c-7.441,7.445-14.884,14.888-22.329,22.33c-0.227,0.227-0.416,0.529-0.806,0.499C58.924,105.04,58.93,104.816,58.988,104.591z"/>
	<path fill="#FEFEFE" d="M59.235,111.333c0.008-0.348,0.288-0.516,0.496-0.724c8.588-8.592,17.179-17.182,25.766-25.774
		c0.275-0.275,0.56-0.523,0.926-0.664c0.267,0.181,0.116,0.438,0.122,0.667c-0.5-0.062-0.722,0.34-1.002,0.62
		c-8.483,8.476-16.961,16.957-25.445,25.433c-0.246,0.245-0.435,0.581-0.834,0.63C59.254,111.458,59.244,111.395,59.235,111.333z"/>
	<path fill="#FEFEFE" d="M86.545,88.131c-0.5-0.062-0.722,0.34-1.002,0.62c-8.483,8.476-16.961,16.957-25.445,25.433
		c-0.246,0.245-0.435,0.581-0.834,0.63c-0.01-0.063-0.019-0.125-0.029-0.187c0.008-0.348,0.288-0.516,0.496-0.724
		c8.588-8.592,17.179-17.182,25.766-25.774c0.275-0.275,0.56-0.523,0.926-0.664C86.689,87.645,86.538,87.902,86.545,88.131z"/>
	<path fill="#FEFEFE" d="M84.758,96.527c-0.35,0-0.52,0.278-0.728,0.485c-5.679,5.675-11.357,11.352-17.031,17.032
		c-0.225,0.225-0.538,0.407-0.509,0.799c-0.621,0.445-1.276,0.831-1.979,1.131c-0.017-0.355,0.261-0.526,0.468-0.734
		c6.736-6.74,13.475-13.479,20.215-20.215c0.208-0.208,0.381-0.482,0.733-0.473C85.707,95.311,85.155,95.873,84.758,96.527z"/>
	<path fill="#FEFEFE" d="M88.407,91.585c-0.018-0.33-0.035-0.659-0.053-0.989c0.018-0.109,0.037-0.219,0.055-0.328
		c0.228-0.365,0.442-0.739,0.686-1.092c0.471-0.681,0.714-1.522,1.423-2.037c1.407-1.207,2.631-2.602,3.971-3.878
		c0.23-0.219,0.398-0.535,0.77-0.564c-0.002,0.821-0.004,1.642-0.006,2.463c-0.34,0.031-0.504,0.312-0.712,0.519
		c-1.807,1.799-3.607,3.605-5.414,5.404C88.92,91.291,88.755,91.575,88.407,91.585z"/>
	<path fill="#FEFEFE" d="M66.644,90.928c0.316,0.301-0.032,0.435-0.173,0.577c-2.272,2.287-4.555,4.564-6.833,6.845
		c-0.178,0.178-0.354,0.345-0.631,0.322c-0.29-2.12,0.381-3.738,2.351-4.776C63.145,92.954,64.884,91.921,66.644,90.928z"/>
	<path fill="#FEFEFE" d="M58.988,101.298c0.333-0.049,0.494-0.33,0.702-0.538c4.227-4.221,8.452-8.445,12.672-12.672
		c0.225-0.226,0.536-0.405,0.541-0.787c0.561-0.406,1.154-0.757,1.791-1.031c0.051,0.361-0.226,0.537-0.434,0.745
		c-4.836,4.84-9.674,9.677-14.513,14.514c-0.21,0.21-0.395,0.469-0.748,0.439C58.924,101.746,58.93,101.523,58.988,101.298z"/>
	<path fill="#FEFEFE" d="M90.518,87.139c-0.709,0.515-0.952,1.355-1.423,2.037c-0.244,0.353-0.458,0.728-0.686,1.092
		c-0.167-1.609,0.352-3.034,1.282-4.295c1.251-1.696,2.576-3.337,3.869-5.001c0.142,0.464-0.198,0.765-0.382,1.115
		c-0.544,1.035-1.244,1.984-1.678,3.079C91.023,85.749,90.618,86.368,90.518,87.139z"/>
	<path fill="#FEFEFE" d="M72.244,111.514c-0.006-0.317,0.234-0.48,0.424-0.671c2.708-2.711,5.418-5.421,8.129-8.129
		c0.19-0.19,0.355-0.429,0.671-0.423c-0.002,0.11-0.003,0.219-0.005,0.329c-0.54,0.44-0.681,1.16-1.156,1.645
		c-0.245-0.002-0.398,0.157-0.554,0.313c-1.744,1.745-3.489,3.49-5.234,5.234c-0.157,0.157-0.311,0.314-0.291,0.562
		c0,0,0.008-0.008,0.008-0.008c-0.059,0.043-0.117,0.085-0.176,0.127C73.475,110.869,72.892,111.25,72.244,111.514z"/>
	<path fill="#FEFEFE" d="M74.228,110.374c-0.02-0.248,0.134-0.404,0.291-0.562c1.745-1.744,3.49-3.489,5.234-5.234
		c0.156-0.156,0.309-0.316,0.554-0.313c-0.288,0.541-0.621,1.064-0.852,1.628c-0.266,0.648-0.987,1.097-0.843,1.921l-0.07-0.003
		c0,0-0.007-0.069-0.007-0.069c-0.063,0.081-0.126,0.162-0.19,0.243c-0.122,0.103-0.244,0.206-0.366,0.309
		C76.729,108.986,75.478,109.68,74.228,110.374z"/>
	<path fill="#FEFEFE" d="M91.5,85.166c0.434-1.095,1.134-2.045,1.678-3.079c0.184-0.35,0.524-0.652,0.382-1.115
		c0,0,0.007-0.004,0.008-0.003c0.223,0.042,0.233-0.109,0.238-0.263c0,0-0.006,0.008-0.006,0.008
		c0.054-0.068,0.108-0.137,0.163-0.205c0.11-0.358,0.448-0.503,0.69-0.738c0.523,0.017,0.606,0.403,0.622,0.794
		c0.02,0.488-0.012,0.979-0.022,1.469c-0.346-0.042-0.55,0.183-0.764,0.398c-0.635,0.64-1.26,1.29-1.916,1.907
		C92.245,84.646,92.026,85.111,91.5,85.166z"/>
	<path fill="#D9C6D0" d="M59.235,111.333c0.01,0.062,0.019,0.125,0.029,0.187c-0.027,0.166-0.07,0.319-0.278,0.334
		c-0.077-0.277-0.08-0.554-0.007-0.832C59.064,111.126,59.149,111.23,59.235,111.333z"/>
	<path fill="#D9C6D0" d="M59.235,114.626c0.01,0.062,0.019,0.125,0.029,0.187c-0.027,0.166-0.07,0.319-0.278,0.334
		c-0.077-0.277-0.08-0.554-0.007-0.832C59.064,114.42,59.149,114.523,59.235,114.626z"/>
	<path fill="#D9C6D0" d="M59.236,108.04c-0.035,0.131-0.128,0.183-0.255,0.189c-0.001-0.166-0.002-0.333-0.003-0.499
		C59.064,107.833,59.15,107.937,59.236,108.04z"/>
	<path fill="#E1E5EE" d="M93.805,80.705c-0.005,0.155-0.015,0.305-0.238,0.263C93.647,80.881,93.726,80.793,93.805,80.705z"/>
	<path fill="#E1E5EE" d="M74.06,110.493c0.059-0.042,0.117-0.085,0.176-0.127C74.177,110.408,74.119,110.451,74.06,110.493z"/>
	<path fill="#E1E5EE" d="M93.962,80.508c-0.054,0.068-0.108,0.137-0.163,0.205C93.854,80.645,93.908,80.577,93.962,80.508z"/>
	<path fill="#FEFEFE" d="M78.612,107.814c-0.143-0.823,0.578-1.273,0.843-1.921c0.231-0.564,0.564-1.087,0.852-1.628
		c0.475-0.486,0.616-1.206,1.156-1.645c0.349,0.004,0.517-0.273,0.724-0.479c1.216-1.209,2.424-2.425,3.641-3.633
		c0.207-0.205,0.37-0.486,0.716-0.497c-0.002,0.822-0.003,1.644-0.005,2.466c-0.209,0.006-0.348,0.134-0.485,0.271
		c-1.868,1.87-3.737,3.739-5.607,5.607c-0.156,0.156-0.309,0.312-0.296,0.557C79.676,107.277,79.159,107.572,78.612,107.814z"/>
	<path fill="#FEFEFE" d="M95.26,85.992c-0.003,0.876-0.006,1.752-0.008,2.627c-0.196-0.004-0.383,0.021-0.528,0.171
		c-1.614,1.666-3.347,3.215-4.871,4.969c-0.729-0.25-1.179-0.746-1.326-1.509c0.381-0.004,0.563-0.309,0.79-0.534
		c1.745-1.737,3.482-3.482,5.228-5.219C94.752,86.292,94.915,86.009,95.26,85.992z"/>
	<path fill="#FEFEFE" d="M92.658,94.233c-0.731-0.01-1.447-0.122-2.153-0.309c1.39-1.603,2.966-3.023,4.454-4.53
		c0.067-0.068,0.198-0.075,0.299-0.11c-0.002,0.821-0.004,1.642-0.006,2.463C94.215,92.396,93.466,93.345,92.658,94.233z"/>
	<path fill="#FEFEFE" d="M84.758,96.527c0.397-0.654,0.949-1.216,1.168-1.975c0.205-0.271,0.41-0.542,0.614-0.813
		c0,1.148-0.001,2.296-0.001,3.444c-0.341,0.02-0.505,0.298-0.712,0.503c-0.889,0.879-1.767,1.768-2.655,2.647
		c-0.207,0.205-0.377,0.479-0.725,0.476c0.571-1.233,1.299-2.378,1.988-3.545C84.574,97.03,84.738,96.812,84.758,96.527z"/>
	<path fill="#FEFEFE" d="M95.26,85.992c-0.346,0.017-0.508,0.3-0.716,0.506c-1.745,1.737-3.483,3.481-5.228,5.219
		c-0.227,0.225-0.409,0.531-0.79,0.534c-0.188-0.195-0.146-0.432-0.12-0.666c0.348-0.01,0.513-0.294,0.72-0.501
		c1.807-1.799,3.607-3.605,5.414-5.404c0.208-0.207,0.372-0.488,0.712-0.519C95.256,85.438,95.258,85.715,95.26,85.992z"/>
	<path fill="#FEFEFE" d="M80.151,106.911c-0.013-0.245,0.14-0.4,0.296-0.557c1.87-1.868,3.739-3.737,5.607-5.607
		c0.137-0.137,0.277-0.265,0.485-0.271c0.002,0.276,0.003,0.552,0.005,0.827c-0.174,0.006-0.309,0.086-0.429,0.207
		c-1.253,1.255-2.506,2.508-3.761,3.761c-0.141,0.141-0.238,0.297-0.221,0.505C81.512,106.225,80.855,106.609,80.151,106.911z"/>
	<path fill="#FEFEFE" d="M82.133,105.778c-0.016-0.208,0.08-0.364,0.221-0.505c1.255-1.253,2.508-2.506,3.761-3.761
		c0.121-0.121,0.256-0.201,0.429-0.207c-0.03,1.199-0.565,2.164-1.526,2.819C84.105,104.745,83.098,105.231,82.133,105.778z"/>
	<path fill="#FEFEFE" d="M95.258,89.284c-0.101,0.035-0.231,0.042-0.299,0.11c-1.488,1.507-3.064,2.927-4.454,4.53
		c-0.233,0.005-0.47,0.026-0.653-0.164c1.523-1.755,3.257-3.303,4.871-4.969c0.146-0.15,0.332-0.176,0.528-0.171
		C95.254,88.841,95.256,89.063,95.258,89.284z"/>
	<path fill="#FEFEFE" d="M82.447,100.81c0.347,0.003,0.517-0.271,0.725-0.476c0.888-0.88,1.766-1.769,2.655-2.647
		c0.207-0.205,0.371-0.483,0.712-0.503c0.002,0.276,0.004,0.551,0.005,0.827c-0.345,0.011-0.509,0.292-0.716,0.497
		c-1.217,1.208-2.425,2.425-3.641,3.633c-0.207,0.206-0.376,0.482-0.724,0.479c0.002-0.11,0.003-0.219,0.005-0.329
		C81.939,101.892,81.978,101.209,82.447,100.81z"/>
	<path fill="#FEFEFE" d="M91.5,85.166c0.526-0.056,0.745-0.521,1.073-0.829c0.656-0.617,1.282-1.267,1.916-1.907
		c0.214-0.216,0.417-0.441,0.764-0.398c0.002,0.222,0.004,0.443,0.007,0.665c-0.373,0.029-0.54,0.345-0.77,0.564
		c-1.34,1.275-2.564,2.67-3.971,3.878C90.618,86.368,91.023,85.749,91.5,85.166z"/>
	<path fill="#FEFEFE" d="M92.658,94.233c0.808-0.888,1.557-1.837,2.594-2.486c0.003,0.276,0.006,0.553,0.01,0.829
		c-0.827,0.397-1.323,1.155-1.937,1.784C93.091,94.379,92.861,94.377,92.658,94.233z"/>
	<path fill="#FEFEFE" d="M93.325,94.361c0.614-0.629,1.109-1.387,1.937-1.784C95.211,93.855,94.595,94.423,93.325,94.361z"/>
	<path fill="#FEFEFE" d="M78.346,107.984c0.063-0.081,0.126-0.162,0.19-0.243C78.586,107.911,78.442,107.928,78.346,107.984z"/>
</g>
</svg>
