<?xml version="1.0" encoding="utf-8"?>
<!-- Generator: Adobe Illustrator 17.0.0, SVG Export Plug-In . SVG Version: 6.00 Build 0)  -->
<!DOCTYPE svg PUBLIC "-//W3C//DTD SVG 1.1//EN" "http://www.w3.org/Graphics/SVG/1.1/DTD/svg11.dtd">
<svg version="1.1" id="Layer_1" xmlns="http://www.w3.org/2000/svg" xmlns:xlink="http://www.w3.org/1999/xlink" x="0px" y="0px"
	 width="143px" height="150px" viewBox="0 0 143 150" enable-background="new 0 0 143 150" xml:space="preserve">
<g>
	<path fill="#F3F3F4" d="M140.515,87.129c0.589,0.248,1.116,0.644,1.67,0.974c-1.035,0.872-2.244,1.468-3.408,2.133
		c-6.614,3.78-13.237,7.545-19.84,11.345c-7.293,4.197-14.567,8.425-21.849,12.642c-4.481,2.595-8.959,5.195-13.438,7.792
		c-1.942-1.007-3.851-2.07-5.669-3.289c3.172-2.408,6.184-4.988,8.695-8.105c0.122-0.088,0.243-0.175,0.365-0.263
		c0,0-0.018,0.021-0.018,0.021c0.111-0.059,0.221-0.118,0.332-0.177c0.055,0.003,0.1-0.016,0.134-0.06
		c4.844-2.766,9.694-5.52,14.53-8.3c7.084-4.073,14.156-8.166,21.233-12.251c0.684-0.395,1.542-0.719,0.794-1.762
		c-1.108-0.985-2.366-1.707-3.777-2.162l0.02,0.022c-0.104-0.092-0.208-0.184-0.311-0.275c-0.248-0.806-0.264-1.636-0.338-2.469
		c-0.191-2.145,0.538-4.182,0.618-6.288c0.299-0.359,0.691-0.561,1.136-0.675c1.329,0.803,2.657,1.606,3.986,2.41
		c2.587,1.436,5.174,2.872,7.761,4.309c1.528,0.918,3.061,1.827,4.58,2.76C138.032,85.651,139.362,86.642,140.515,87.129z"/>
	<path fill="#F3F3F4" d="M89.275,14.003c0.845-0.111,1.305-0.802,2.01-1.207c1.519-0.874,2.044-0.705,2.452-0.574
		c0.417,0.134,0.621,0.251,0.941,0.231c0.764-0.048,1.484,0.121,2.203,0.328c-0.053,0.674-0.633,0.975-1.006,1.422
		c-0.273,0.326-0.782,0.665-0.304,1.11c0.377,0.352,0.724-0.046,1.008-0.317c0.395-0.377,0.737-0.821,1.17-1.145
		c0.867-0.65,0.006-0.776-0.287-1.081c1.063,0,1.122-0.117,1.394,0.156c0.823,0.693,2.036,0.528,2.808,1.301
		c-0.531,0.591-1.034,1.211-1.602,1.763c-0.569,0.553-0.46,0.857,0.215,1.2c3.473,1.763,6.59,4.039,9.442,6.683
		c0.368,0.401,0.725,0.813,1.107,1.201c1.671,1.697,3.424,3.322,4.664,5.392c-1.686,1.748-3.363,3.505-5.063,5.239
		c-0.375,0.382-0.751,0.818-1.367,0.825c-1.589-0.805-1.588-0.805-1.601,0.918c-0.002,0.3,0.019,0.603-0.018,0.898
		c-0.047,0.369,0.084,0.899-0.456,0.968c-0.407,0.052-0.753-0.235-0.982-0.589c-0.554-0.86-0.472-1.839-0.385-2.769
		c0.111-1.2-0.314-1.873-1.565-2.076c-0.043,0.882-0.084,1.725-0.125,2.567c-0.525,0.061-0.781,0.713-1.374,0.627
		c-0.015-2.249-0.092-4.499-0.022-6.745c0.039-1.246-0.458-1.812-1.723-1.963c0,2.776,0.04,5.47-0.025,8.162
		c-0.019,0.772,0.463,1.022,0.91,1.387c-0.109,0.269-0.148,0.609-0.338,0.796c-1.91,1.875-3.672,3.9-5.74,5.613
		c-0.756-0.628-1.511-1.257-2.267-1.885c-0.352-0.473-0.72-0.929-1.256-1.212l0.031-0.017c-1.977-2.249-3.827-4.571-5.438-7.125
		c-0.944-1.496-1.253-3.297-2.48-4.607c-0.349-1.276-0.698-2.552-1.047-3.827c-0.832-2.603-0.349-5.077,0.738-7.491
		c0.889-1.352,2.107-2.295,3.573-2.963C88.124,14.899,88.846,14.661,89.275,14.003z M91.77,25.43
		c0.819-0.656,0.777-1.312-0.012-1.952c-0.579-0.47-1.14-0.974-1.766-1.374c-0.56-0.359-1.21-0.544-1.809-0.033
		c-0.551,0.47-0.646,1.097-0.508,1.774c0.26,1.274,1.066,2.228,1.843,3.212c0.522,0.661,1.765,1.537,1.069,2.136
		c-0.863,0.744-1.459-0.691-2.14-1.244c-0.254-0.207-0.366-0.878-0.889-0.383c-0.359,0.339-0.689,0.713-0.24,1.272
		c0.921,1.147,1.959,2.142,3.348,2.685c1.284,0.502,2.004-0.023,2.045-1.433c0.042-1.418-0.898-2.382-1.591-3.461
		C91.262,26.189,91.765,25.944,91.77,25.43z M99.26,33.647c0-0.549-0.068-1.109,0.015-1.646c0.142-0.922-0.311-1.476-1.089-1.673
		c-0.67-0.17-1.117-0.549-1.595-0.979c-0.608-0.547-1.339-1.038-2.16-0.583c-0.807,0.447-0.857,1.333-0.704,2.131
		c0.384,1.997,1.1,3.727,3.462,4.132c0.727,0.125,1.175,1.518,1.88,1.023C99.661,35.638,99.18,34.474,99.26,33.647z"/>
	<path fill="#C0C8CC" d="M136.042,97.629c-2.51,0.947-4.642,2.588-6.992,3.829c-0.869,0.459-1.677,1.033-2.513,1.554
		c-2.361,1.201-4.65,2.525-6.876,3.961c-0.143,0.042-0.301,0.057-0.426,0.129c-9.12,5.273-18.226,10.569-27.36,15.815
		c-2.719,1.561-5.332,3.321-8.236,4.549c0.004-1.817,0.008-3.635,0.012-5.452c4.479-2.598,8.958-5.197,13.438-7.792
		c7.281-4.217,14.556-8.445,21.849-12.642c6.603-3.8,13.226-7.565,19.84-11.345c1.165-0.666,2.373-1.261,3.408-2.133
		c0,0-0.004,0.005-0.004,0.005c0.106,0.195,0.212,0.389,0.319,0.584c-0.009,1.598-0.018,3.197-0.027,4.795
		c-0.326,0.611-1.027,0.748-1.493,1.182C139.252,95.518,137.524,96.369,136.042,97.629z"/>
	<linearGradient id="SVGID_1_" gradientUnits="userSpaceOnUse" x1="4.7728" y1="87.9101" x2="88.4956" y2="87.9101">
		<stop  offset="0" style="stop-color:#000000"/>
		<stop  offset="1" style="stop-color:#67747C"/>
	</linearGradient>
	<path fill="url(#SVGID_1_)" d="M5.663,101.891c0.266-1.009,0.907-1.83,1.367-2.742c0.164-0.252,0.327-0.505,0.491-0.757
		c1.402-1.675,3.201-2.658,5.333-3.059c0.85-0.094,1.762,0.295,2.49-0.583c1.207-1.457,2.512-2.833,3.776-4.243
		c1.309-1.206,2.618-2.413,3.927-3.619c0.295-0.215,0.59-0.43,0.885-0.645c0.495,0.59,0.923,0.66,1.617,0.134
		c2.25-1.704,4.558-3.333,6.876-4.944c2.785-1.935,5.953-3.158,8.939-4.722c2.851-1.08,5.711-2.132,8.699-2.781
		c0.265,1.9,0.127,3.85,0.95,5.683c0.374,0.832,0.569,1.793,0.522,2.752c-0.636,0.102-1.273,0.196-1.907,0.308
		c-3.969,0.703-7.888,1.588-11.611,3.186c-3.336,1.095-6.499,2.541-9.356,4.608c-1.638,0.732-3.041,1.807-4.367,2.993
		c-0.968,0.568-1.789,1.308-2.518,2.156c-1.158,0.121-2.376-0.03-3.385,0.757c-0.321-0.014-0.551,0.153-0.75,0.381
		c-1,0.028-1.626,0.796-2.423,1.225c-1.228-0.03-2.497,0.121-3.671-0.145c-1.023-0.231-1.618,0.063-2.14,0.79
		c-0.399,0.556-0.726,1.163-1.085,1.748c-0.627,0.304-0.553,1.027-0.898,1.5C6.837,101.878,6.25,101.885,5.663,101.891z"/>
	<path fill="#B0B9BD" d="M23.047,86.888c-1.309,1.206-2.618,2.413-3.927,3.619c-2.491-1.415-4.981-2.83-7.472-4.245
		c-2.246-1.424-4.48-2.869-6.936-3.921c-0.164-0.099-0.328-0.197-0.493-0.296c-1.044-0.598-1.641-1.507-1.863-2.676
		c-0.069-0.381-0.25-0.688-0.582-0.898c-0.384-1.117-0.769-2.233-1.154-3.35C0.58,74.739,0.54,74.357,0.5,73.975
		c0.219-2.481,0.778-3.276,3.132-3.791c0.886-0.194,1.096-0.947,1.707-1.319c1.014-0.826,2.096-1.454,3.481-1.147
		c0.607,0.134,0.813-0.296,0.925-0.722c0.201-0.766,0.643-1.314,1.295-1.723c0.591-0.035,1.189-0.139,1.772-0.085
		c0.481,0.045,0.889,0.141,1.083-0.436c0.745-2.211,2.401-2.375,4.33-1.925c0.202,0.323,0.533,0.312,0.853,0.326
		c0.486,0.695,1.103,1.238,1.868,1.61c0.352,0.875,0.995,1.636,1.813,1.885c1.326,0.404,0.399,0.891,0.094,1.15
		c-0.629,0.536-1.677,0.117-1.944-0.688c-0.62-1.871-0.671-1.891-2.365-0.929c-0.087-0.385-0.263-0.775-0.245-1.155
		c0.051-1.106-0.711-1.365-1.522-1.439c-0.947-0.086-1.546,0.48-1.956,1.319c-0.451,0.924,0.218,1.238,0.79,1.635
		c0.363,0.252,0.649,0.629,1.131,0.684c0.246,1.247,1.012,2.002,2.24,2.316c-0.826,0.993-1.094,1.218-1.478,1.079
		c-0.544-0.198-0.857-0.67-1.045-1.179c-0.614-1.661-0.6-1.666-2.28-0.809c-0.116-0.43-0.308-0.856-0.333-1.292
		c-0.053-0.914-0.585-1.139-1.379-1.189c-0.997-0.064-1.583,0.414-1.956,1.275c-0.329,0.759,0.052,1.216,0.64,1.61
		c0.369,0.248,0.719,0.523,1.078,0.786c0.297,0.847,0.917,1.349,1.699,1.743c0.085,0.043,0.958-0.004,0.48,0.552
		c-0.309,0.36-0.315,1.06-1.114,1.002c-0.643-0.047-0.84-0.42-1.033-0.886c-0.845-2.036-0.844-2.036-2.606-0.916
		c-0.024-0.345-0.074-0.69-0.066-1.034c0.017-0.764-0.184-1.349-1.015-1.581c-0.863-0.241-1.556-0.031-2.111,0.662
		c-0.949,1.184-0.546,1.924,1.582,2.903c0.429,0.856,0.427,2.047,1.937,1.965c0.536-0.029,0.547,0.685,0.124,0.999
		c-0.451,0.335-0.939,0.435-1.613,0.227c-0.645-0.199-0.761-0.435-0.736-0.971c0.035-0.749-0.44-1.162-1.005-1.514
		c-0.554-0.391-0.724-1.697-1.831-0.769c-0.14-0.91-0.767-0.992-1.526-0.953c-0.982,0.052-1.456,0.7-1.588,1.504
		c-0.242,1.472-0.203,2.948,0.651,4.31c0.427-0.448-0.091-1.118,0.434-1.477c0.437,0.167,0.845,0.322,1.252,0.478
		c4.344,2.528,8.675,5.08,13.039,7.575C19.121,84.75,20.954,86.056,23.047,86.888z"/>
	<path fill="#B0B9BD" d="M18.391,96.372c1.009-0.786,2.228-0.636,3.386-0.757c2.336,0.763,4.167,2.105,5.123,4.455
		c-0.384-0.013-0.622-0.271-0.882-0.508c-2.782-2.536-5.563-2.481-8.232,0.198c-2.349,2.358-3.353,5.379-3.956,8.535
		c-0.885,4.632-0.483,9.112,2.153,13.167c2.081,3.203,4.746,3.86,8.131,2.164c0.212-0.106,0.482-0.1,0.724-0.146
		c-0.325,0.753-1.301,0.947-1.533,1.781c-0.774-0.031-1.347,0.531-2.055,0.696c-0.608,0.099-1.215,0.199-1.823,0.299
		c-0.509-0.13-1.019-0.26-1.528-0.391c-1.236-1.039-2.636-1.899-3.575-3.264c-0.377-0.666-0.754-1.333-1.131-1.998
		c-0.011-0.872-0.475-1.616-0.698-2.429c-0.149-0.544-0.37-1.069-1.117-0.918c-0.151-0.569,0.429-0.839,0.531-1.305
		c0.05-0.94-0.008-1.861-0.194-2.795c-0.129-0.649-0.446-0.811-1.004-0.793c-0.104-0.749,1.244-0.587,0.925-1.473
		c0.113-0.503,0.227-1.005,0.34-1.508c2.105-0.514,1.137-2.539,1.83-3.753c0.356-0.624,0.406-1.234-0.595-1.403
		c-0.419-0.071-0.24-0.448-0.128-0.724c0.265-0.654,0.662-1.206,1.171-1.703c1.347-1.314,2.67-2.653,3.996-3.989
		C18.681,97.38,19.18,96.933,18.391,96.372z"/>
	<path fill="#C0C8CC" d="M115.49,30.466c-1.24-2.069-2.993-3.695-4.664-5.392c-0.382-0.388-0.739-0.8-1.107-1.201
		c1.413-0.456,2.119-1.707,3.047-2.709c0.384,0.22,0.767,0.44,1.151,0.661c0.702,0.694,1.404,1.389,2.106,2.083
		c0.203,0.188,0.405,0.377,0.607,0.566c0.389,1.155,1.491,1.743,2.14,2.692c0.194,0.202,0.389,0.403,0.583,0.605
		c0.418,1.026,1.151,1.839,1.82,2.696c0.09,0.204,0.18,0.408,0.27,0.613c-0.941,0.113-1.314,0.966-1.923,1.503
		c-0.52,0.459-0.961,1.001-1.752,0.904c-0.566-0.716-1.133-1.431-1.699-2.147C116.061,30.926,115.852,30.645,115.49,30.466z"/>
	<path fill="#B0B9BD" d="M117.768,33.487c0.792,0.097,1.233-0.446,1.753-0.904c0.608-0.537,0.982-1.39,1.923-1.503
		c0.107,0.097,0.215,0.194,0.322,0.291c0.513,0.997,1.026,1.994,1.538,2.991c0.18,0.304,0.36,0.608,0.54,0.913
		c0.084,0.962,0.646,1.757,0.926,2.65c0.227,1.803,0.781,3.571,0.583,5.42c-1.505-0.03-2.385,1.482-3.845,1.562
		c-0.083-1.846-0.363-3.655-0.982-5.404c-0.194-0.407-0.176-0.91-0.557-1.232C119.545,36.533,118.432,35.113,117.768,33.487z"/>
	<path fill="#D3D7DA" d="M112.766,21.165c-0.928,1.002-1.634,2.252-3.047,2.709c-2.853-2.644-5.969-4.92-9.443-6.683
		c-0.675-0.343-0.784-0.647-0.215-1.2c0.568-0.552,1.071-1.172,1.602-1.763c0.198,0.007,0.396,0.014,0.594,0.021
		c0.297,0.111,0.594,0.221,0.891,0.332c0.919,0.67,1.917,1.181,3.013,1.495c0.298,0.2,0.595,0.4,0.893,0.599
		c0.838,0.695,1.726,1.312,2.711,1.782c0.293,0.209,0.586,0.418,0.88,0.627c0.518,0.814,1.437,1.156,2.108,1.791
		C112.762,20.971,112.766,21.068,112.766,21.165z"/>
	<path fill="#474E54" d="M13.194,120.603c0.377,0.666,0.754,1.333,1.131,1.999c-0.534,1.069-1.352,0.966-2.351,0.722
		c-1.19-0.291-2.466,0.044-3.675-0.359c-0.338-0.113-0.487,0.254-0.574,0.552c-0.287-0.212-0.573-0.425-0.86-0.637
		c-0.084-0.376-0.231-0.711-0.602-0.895c-0.432-0.995-0.863-1.99-1.295-2.986c-0.151-0.411-0.303-0.821-0.454-1.232
		c-0.225-1.192-0.451-2.384-0.676-3.576c-0.032-0.502-0.063-1.004-0.095-1.506c0.035-1.499,0.069-2.997,0.104-4.496
		c0.216-0.582,0.32-1.18,0.263-1.801c0.554-1.486,0.633-3.137,1.552-4.497c0.587-0.007,1.174-0.014,1.761-0.02
		c-0.181,0.862-0.828,1.579-0.785,2.511c-0.211,0.973-0.67,1.892-0.653,2.917c-0.722,3.745-0.628,7.446,0.588,11.088
		c0.117,0.774,0.33,1.509,0.861,2.114c0.117,0.906,0.693,1.22,1.537,1.213c0.882-0.008,1.769-0.052,2.645,0.02
		C12.512,121.807,13.012,121.46,13.194,120.603z"/>
	<path fill="#1B2128" d="M15.243,125.967c-0.502-0.01-1.004-0.02-1.506-0.03c-1.299-0.199-2.598-0.398-3.897-0.597
		c-0.302-0.192-0.605-0.384-0.907-0.576c-0.403-0.415-0.805-0.831-1.208-1.246c0.087-0.298,0.235-0.665,0.574-0.552
		c1.209,0.403,2.485,0.068,3.675,0.359c0.998,0.244,1.817,0.347,2.351-0.722c0.939,1.365,2.339,2.225,3.575,3.264
		C17.014,125.9,16.128,125.934,15.243,125.967z"/>
	<path fill="#F3F3F4" d="M97.462,12.77c0.293,0.305,1.154,0.431,0.287,1.081c-0.433,0.325-0.775,0.768-1.17,1.145
		c-0.283,0.271-0.631,0.669-1.008,0.317c-0.478-0.446,0.032-0.784,0.304-1.11c0.374-0.447,0.953-0.748,1.006-1.422
		C97.075,12.777,97.268,12.773,97.462,12.77z"/>
	<path fill="#1B2128" d="M49.118,136.601c-2.67,1.074-5.356,2.088-8.126,0.335c-1.303-0.824-2.563-1.72-3.812-2.625
		c-1.328-0.963-2.619-1.976-3.927-2.968c-0.104-0.118-0.208-0.235-0.312-0.352c0,0,0.009,0.01,0.009,0.01
		c-0.015-0.182-0.09-0.308-0.294-0.311c0,0-0.002-0.005-0.002-0.005c0.023-0.765-0.719-1.299-0.63-2.084
		c0.606-0.054,0.692,0.469,0.918,0.832c0.4,0.644,0.887,1.187,1.588,1.525c1.039,0.501,1.944,1.192,2.697,2.068
		c0.29,0.337,0.512,0.822,1.067,0.556c0.531-0.255,0.401-0.835,0.294-1.199c-0.377-1.289-0.155-2.55,0.005-3.823
		c0.662-3.784,2.541-7.017,4.6-10.169c1.759-1.943,3.674-3.719,5.82-5.279c-0.433-0.564-1.428-0.4-1.36-1.316
		c0.208-0.191,0.417-0.383,0.625-0.574c0.888,0.021,1.562-0.597,2.379-0.798c1.21-0.298,1.019-0.871,0.227-1.476
		c-0.656-0.501-1.537-0.815-1.39-1.897c0.294-0.055,0.64,0.068,0.855-0.253c3.181,1.463,5.878,3.663,8.64,5.749
		c0.869,0.657,1.412,1.672,1.618,2.798c-0.119,0.48-1.006,0.794-0.443,1.381c0.4,0.418,0.946,0.036,1.374-0.188
		c2.63-1.381,5.299-2.696,7.715-4.448c4.515-2.559,8.38-5.954,12.013-9.596c1.082-1.085,2.321-2.129,3.009-3.584
		c2.554-3.537,4.631-7.272,4.875-11.766c0.596,1.76,0.463,3.632,0.831,5.426c0.007,0.423-0.128,0.875,0.248,1.224
		c-0.041,1.114-0.009,2.221,0.318,3.299c0.035,0.501,0.07,1.003,0.106,1.504c-0.056,1.541,0.043,3.094-0.335,4.612
		c-0.266,0.855-0.533,1.71-0.799,2.565c-0.153,0.263-0.307,0.527-0.46,0.789c-0.314,0.64-0.627,1.281-0.941,1.922
		c-0.31,0.514-1.033,0.871-0.629,1.656c-0.035,0.043-0.079,0.063-0.135,0.059c-0.212-0.13-0.3-0.03-0.332,0.177
		c0,0,0.018-0.021,0.018-0.021c-0.122,0.088-0.243,0.175-0.365,0.263c-2.511,3.118-5.523,5.697-8.695,8.105
		c-1.529,0.998-3.058,1.997-4.587,2.995c-3.283,1.685-6.567,3.37-9.851,5.054c-1.605,0.615-3.184,1.312-4.822,1.818
		c-1.362,0.42-2.338,1.177-2.964,2.429C53.808,133.195,51.649,135.119,49.118,136.601z"/>
	<path fill="#D3D7DA" d="M89.059,106.564c0.153-0.263,0.307-0.527,0.46-0.79c0.383-0.039,0.614-0.314,0.86-0.56
		c8.239-8.237,16.477-16.475,24.714-24.713c0.353-0.353,0.756-0.685,0.601-1.278c1.497-0.898,2.945-1.884,4.563-2.567
		c-0.079,2.107-0.808,4.143-0.618,6.288c0.074,0.833,0.09,1.663,0.338,2.469c0.051,0.152,0.056,0.355,0.311,0.275
		c0,0-0.02-0.022-0.02-0.022c-0.023,0.203-0.046,0.407-0.068,0.61c-2.013,1.207-3.332,3.159-5.042,4.692
		c-0.237,0.213-0.286,0.507-0.249,0.815c-0.117,0.092-0.224,0.199-0.351,0.273c-8.13,4.7-16.261,9.399-24.397,14.088
		C89.825,106.338,89.428,106.427,89.059,106.564z"/>
	<path fill="#025B9C" d="M120.2,86.276c0.023-0.203,0.046-0.407,0.068-0.61c1.411,0.455,2.669,1.177,3.777,2.162
		c-1.153,0.684-2.299,1.38-3.461,2.05c-6.243,3.6-12.486,7.2-18.737,10.787c-4.568,2.621-9.037,5.418-13.73,7.82
		c0.314-0.641,0.627-1.282,0.941-1.922c0.369-0.137,0.766-0.226,1.103-0.42c8.137-4.688,16.267-9.388,24.397-14.088
		c0.127-0.073,0.234-0.181,0.351-0.273c1.421-0.786,2.848-1.561,4.261-2.36C121.172,88.293,121.168,88.285,120.2,86.276z"/>
	<path fill="#253C7A" d="M88.117,108.485c4.693-2.402,9.162-5.199,13.73-7.82c6.251-3.587,12.494-7.187,18.737-10.787
		c1.161-0.67,2.307-1.366,3.461-2.05c0.748,1.043-0.11,1.367-0.794,1.762c-7.077,4.085-14.149,8.178-21.233,12.251
		c-4.835,2.781-9.686,5.535-14.53,8.3C87.084,109.357,87.807,108.999,88.117,108.485z"/>
	<path fill="#B0B9BD" d="M73.393,121.72c1.529-0.998,3.058-1.997,4.588-2.995c1.818,1.219,3.728,2.282,5.67,3.289
		c-0.004,1.818-0.008,3.635-0.012,5.452c-0.476-0.133-0.953-0.265-1.429-0.397c-0.326-0.474-0.87-0.627-1.328-0.908
		C78.407,124.644,75.76,123.419,73.393,121.72z"/>
	<path fill="#253C7A" d="M124.116,73.123c0.226,0.82-0.153,1.283-0.863,1.651c-0.653,0.339-1.243,0.8-1.861,1.207
		c-0.445,0.113-0.837,0.316-1.136,0.675c-1.618,0.683-3.066,1.669-4.563,2.567c-1.071,0.622-2.143,1.243-3.214,1.864
		c-3.623,2.096-7.245,4.191-10.868,6.287c-1.192,0.674-2.384,1.348-3.576,2.022c-2.603,1.466-5.205,2.932-7.808,4.398
		c-0.376-0.348-0.241-0.801-0.248-1.224c3.122-1.442,6.009-3.309,8.991-5.002C107.379,82.797,115.738,77.944,124.116,73.123z"/>
	<path fill="#253C7A" d="M87.022,110.379c0.031-0.207,0.12-0.307,0.332-0.177C87.244,110.26,87.133,110.319,87.022,110.379z"/>
	<path fill="#025B9C" d="M120.288,85.688c-0.255,0.08-0.261-0.124-0.311-0.275C120.081,85.505,120.184,85.597,120.288,85.688z"/>
	<path fill="#253C7A" d="M86.676,110.62c0.121-0.088,0.243-0.175,0.365-0.263C86.919,110.445,86.797,110.532,86.676,110.62z"/>
	<path fill="#B0B9BD" d="M60.607,115.344c-0.206-1.126-0.749-2.142-1.618-2.798c-2.762-2.086-5.459-4.286-8.64-5.749
		c-1.1-0.898-2.371-0.436-3.532-0.303c-0.592,0.068-0.123,0.561,0.178,0.795c-0.522,0.272-1.043,0.544-1.565,0.816
		c-0.262,0.026-0.525,0.051-0.787,0.077c0.015-0.631-0.146-1.001-0.856-0.592c-1.028,0.592-2.173,1.036-2.975,1.933
		c-0.472,0.529-1.905,0.695-1.285,1.622c0.695,1.04,1.22-0.554,1.95-0.573c0.255,0.38,0.685,0.495,1.04,0.727
		c0.925,0.605,2.176,0.916,2.397,2.275c-0.985,0.961-1.774,2.136-3.037,2.795c-0.535-0.359-1.166-0.63-1.583-1.095
		c-0.846-0.943-1.409-0.63-2.168,0.136c-0.751,0.758-1.301,1.802-2.469,2.079c0.004-0.307,0.009-0.614,0.013-0.921
		c0.328-0.092,0.568-0.26,0.557-0.645c0.996-0.498,1.367-1.524,1.994-2.336c0.323-0.418,0.714-0.816,0.173-1.263
		c-0.505-0.417-0.908-0.02-1.25,0.354c-0.2,0.219-0.376,0.46-0.562,0.692c-0.793,0.005-0.94,0.49-0.854,1.148l-0.042,0.059
		c-0.263-0.035-0.516,0.013-0.663,0.238c-1.467,2.24-2.753,4.561-3.549,7.145c-0.585,1.9-0.3,3.913-0.888,5.8
		c-0.359-1.197-0.351-2.431-0.375-3.662c0.326-1.497,0.652-2.993,0.977-4.49c1.111-2.647,2.532-5.12,4.203-7.451
		c1.365-1.749,3.18-3.02,4.789-4.51c1.154-0.688,2.355-1.278,3.616-1.746c0.26-0.097,0.658-0.049,0.729-0.413
		c0.071-0.369-0.281-0.476-0.53-0.618c-2.98-1.697-5.963-3.391-8.945-5.085c-3.586-2.108-7.172-4.216-10.757-6.324
		c1.327-1.186,2.73-2.261,4.367-2.993c0.933,0.472,1.891,0.901,2.795,1.423c8.025,4.637,16.057,9.263,24.051,13.952
		c3.691,2.165,7.513,4.113,11.058,6.526C64.659,113.519,62.845,114.856,60.607,115.344z"/>
	<path fill="#67747C" d="M24.838,123.481c-0.243,0.046-0.512,0.039-0.724,0.146c-3.385,1.696-6.05,1.039-8.131-2.164
		c-2.635-4.055-3.037-8.535-2.153-13.167c0.603-3.156,1.606-6.177,3.956-8.535c2.669-2.679,5.45-2.733,8.232-0.198
		c0.26,0.237,0.497,0.495,0.882,0.508c1.219,1.514,1.362,3.466,2.109,5.172c0.616,4.019,0.31,7.99-0.629,11.926
		c-0.678,1.509-1.355,3.018-2.033,4.527c-0.273,0.302-0.547,0.603-0.82,0.905c-0.273,0.094-0.356,0.32-0.399,0.574
		c0,0-0.006,0.01-0.006,0.01c-0.097,0.104-0.194,0.209-0.292,0.313C24.83,123.498,24.838,123.481,24.838,123.481z M25.174,110.397
		c0.002-2.774-0.649-4.996-1.851-6.325c-1.626-1.797-3.704-1.768-5.281,0.074c-2.673,3.122-3.047,9.557-0.756,12.999
		c1.636,2.457,4.122,2.538,5.872,0.16C24.666,115.256,25.261,112.921,25.174,110.397z"/>
	<path fill="#67747C" d="M30.586,127.76c0.588-1.887,0.303-3.9,0.888-5.8c0.796-2.584,2.082-4.905,3.549-7.145
		c0.147-0.225,0.401-0.273,0.663-0.238c-0.152,0.582,0.329,0.911,0.542,1.346c0.011,0.385-0.228,0.553-0.557,0.645
		c-0.563-0.477-0.962-0.293-1.266,0.308c-0.442,0.874-1.001,1.699-1.134,2.702c0.053,1.103,0.62,2.182,0.159,3.31
		c-0.343,0.705-0.832,1.425-0.037,2.128c0.703,0.622,1.438,1.208,2.177,1.787c0.805,0.631,1.264,0.693,1.583-0.562
		c0.784-3.09,2.049-5.986,4.154-8.447c0.614,0.245,1.16,0.704,1.886,0.595c-2.059,3.152-3.938,6.385-4.6,10.169
		c-0.556,0.315-1.278-0.609-1.723,0.167c-0.411,0.717-0.918,0.513-1.366,0.216c-0.901-0.598-1.737-1.294-2.619-1.922
		c-0.384-0.273-0.059-1.258-0.785-1c-0.67,0.238-0.28,1.04-0.344,1.593c-0.028,0.241,0.03,0.492,0.049,0.739
		c0.08,0.087,0.16,0.174,0.24,0.261l-0.022-0.014c-0.089,0.785,0.653,1.319,0.63,2.084C31.201,130.249,31.035,128.905,30.586,127.76
		z"/>
	<path fill="#B0B9BD" d="M25.128,123.175c0.042-0.254,0.125-0.48,0.399-0.574C25.394,122.792,25.261,122.984,25.128,123.175z"/>
	<path fill="#B0B9BD" d="M24.83,123.498c0.097-0.104,0.194-0.208,0.292-0.313C25.024,123.29,24.927,123.394,24.83,123.498z"/>
	<path fill="#67747C" d="M32.656,130.689c0.204,0.003,0.279,0.129,0.294,0.311C32.759,130.985,32.646,130.895,32.656,130.689z"/>
	<path fill="#67747C" d="M32.941,130.99c0.104,0.117,0.208,0.235,0.312,0.352C33.15,131.225,33.045,131.108,32.941,130.99z"/>
	<path fill="#253C7A" d="M91.12,26.629c0.693,1.079,1.633,2.043,1.591,3.461c-0.041,1.41-0.761,1.935-2.045,1.433
		c-1.389-0.543-2.427-1.538-3.348-2.685c-0.449-0.559-0.119-0.933,0.24-1.272c0.524-0.494,0.635,0.177,0.889,0.383
		c0.68,0.553,1.276,1.989,2.14,1.244c0.696-0.6-0.547-1.475-1.069-2.136c-0.777-0.984-1.583-1.938-1.843-3.212
		c-0.138-0.678-0.043-1.304,0.508-1.774c0.598-0.511,1.248-0.326,1.809,0.033c0.626,0.4,1.187,0.904,1.766,1.374
		c0.789,0.64,0.831,1.296,0.012,1.952c-0.47-0.437-0.932-0.885-1.414-1.308c-0.227-0.2-0.542-0.376-0.809-0.174
		c-0.343,0.26-0.207,0.613-0.006,0.926C89.973,25.545,90.494,26.134,91.12,26.629z"/>
	<path fill="#253C7A" d="M99.26,33.647c-0.08,0.827,0.401,1.991-0.191,2.406c-0.705,0.495-1.153-0.898-1.88-1.023
		c-2.361-0.405-3.078-2.135-3.462-4.132c-0.153-0.798-0.103-1.684,0.704-2.131c0.821-0.455,1.551,0.036,2.16,0.583
		c0.478,0.43,0.925,0.809,1.595,0.979c0.778,0.197,1.231,0.751,1.089,1.673C99.192,32.538,99.26,33.098,99.26,33.647z
		 M96.255,30.737c-0.584-0.047-0.846,0.264-0.813,0.704c0.071,0.948,0.464,1.745,1.451,2.033c0.518,0.151,0.758-0.256,0.724-0.685
		C97.542,31.849,97.154,31.076,96.255,30.737z"/>
	<path fill="#253C7A" d="M103.928,36.448c0.041-0.843,0.082-1.685,0.125-2.567c1.25,0.203,1.676,0.876,1.565,2.076
		c-0.086,0.93-0.169,1.909,0.385,2.769c0.229,0.355,0.575,0.641,0.982,0.589c0.54-0.069,0.409-0.599,0.456-0.968
		c0.038-0.295,0.016-0.599,0.018-0.898c0.013-1.723,0.013-1.723,1.601-0.918c0.046,0.483,0.092,0.967,0.138,1.45
		c-0.018,0.591-0.027,1.183-0.056,1.774c-0.079,1.582-0.659,1.957-2.075,1.307c-1.393-0.639-2.48-1.597-3.011-3.087
		C104.013,37.464,103.971,36.956,103.928,36.448z"/>
	<path fill="#253C7A" d="M101.693,37.915c-0.447-0.365-0.928-0.615-0.91-1.387c0.066-2.692,0.025-5.386,0.025-8.162
		c1.265,0.151,1.762,0.716,1.723,1.963c-0.07,2.246,0.006,4.496,0.022,6.745C102.454,37.546,102.57,38.239,101.693,37.915z"/>
	<path fill="#F3F3F4" d="M101.693,37.915c0.877,0.323,0.76-0.37,0.86-0.841c0.593,0.087,0.849-0.566,1.374-0.627
		c0.043,0.508,0.085,1.017,0.128,1.525c-0.228,0.082-0.521,0.099-0.676,0.254c-2.283,2.3-4.548,4.618-6.817,6.931
		c-0.406-0.175-0.699-0.48-0.947-0.834c2.067-1.713,3.83-3.739,5.74-5.613C101.546,38.525,101.584,38.184,101.693,37.915z"/>
	<path fill="#F3F3F4" d="M109.198,37.979c-0.046-0.483-0.092-0.967-0.138-1.45c0.617-0.006,0.993-0.443,1.367-0.825
		c1.7-1.734,3.377-3.49,5.063-5.239c0.362,0.18,0.571,0.46,0.58,0.874c-0.57,0.623-1.166,1.224-1.703,1.875
		c-0.811,0.984-2.07,1.583-2.491,2.901c-0.313,0.054-0.962-0.597-0.882,0.074c0.111,0.933-0.71,1.148-0.911,1.776
		C109.788,37.971,109.493,37.975,109.198,37.979z"/>
	<path fill="#D3D7DA" d="M91.12,26.629c-0.626-0.495-1.147-1.084-1.578-1.754c-0.201-0.314-0.337-0.667,0.006-0.926
		c0.267-0.203,0.582-0.026,0.809,0.174c0.482,0.424,0.944,0.871,1.414,1.308C91.765,25.944,91.262,26.189,91.12,26.629z"/>
	<path fill="#253C7A" d="M38.017,85.858c3.723-1.598,7.642-2.483,11.611-3.186c0.634-0.112,1.271-0.206,1.907-0.308
		c2.592-0.155,5.18-0.414,7.782-0.296c0.438,0.322,0.85,0.688,1.318,0.959c6.373,3.7,12.717,7.453,19.159,11.029
		c1.619,0.898,3.048,2.796,5.357,1.792c-0.086,1.077-1.388,1.383-1.536,2.421c-0.075,0.117-0.15,0.235-0.225,0.352
		c-0.044,0.094-0.089,0.187-0.133,0.281c-0.396,0.372-0.85,0.7-1.18,1.124c-2.12,2.732-4.75,4.913-7.475,6.995
		c-0.812-0.483-1.618-0.975-2.436-1.448C60.784,99,49.401,92.429,38.017,85.858z"/>
	<path fill="#F3F3F4" d="M60.287,41.959c0.854-0.527,1.616-0.418,2.469,0.129c1.118,0.717,2.339,1.275,3.515,1.901
		c-1.748,1.503-3.854,2.431-5.82,3.577c-10.072,5.869-20.168,11.698-30.255,17.542c-0.167,0.104-0.419,0.167-0.489,0.316
		c-1.583,3.364-2.241,6.911-1.787,10.597c0.236,1.916,0.783,3.792,2.235,5.233c-0.079,0.729-0.768,0.837-1.226,1.138
		c-1.764,1.159-3.452,2.411-4.996,3.851c-0.295,0.215-0.59,0.43-0.885,0.645c-2.093-0.832-3.926-2.138-5.865-3.247
		c-4.364-2.494-8.695-5.046-13.039-7.575c0.413-0.951,1.729-1.259,1.763-2.479c0.282-0.205,0.564-0.41,0.846-0.615
		c0.565,0.352,1.04,0.765,1.005,1.514c-0.025,0.536,0.091,0.772,0.736,0.971c0.675,0.208,1.162,0.108,1.613-0.227
		c0.423-0.314,0.412-1.028-0.124-0.999c-1.51,0.082-1.508-1.109-1.937-1.966c0.537-0.317,1.073-0.634,1.609-0.95
		c1.762-1.12,1.761-1.12,2.606,0.916c0.193,0.465,0.39,0.838,1.033,0.886c0.798,0.059,0.804-0.641,1.114-1.002
		c0.478-0.557-0.395-0.51-0.48-0.552c-0.782-0.394-1.402-0.896-1.699-1.744c0.65-0.396,1.3-0.793,1.95-1.189
		c1.68-0.857,1.666-0.851,2.28,0.809c0.188,0.509,0.502,0.982,1.045,1.179c0.384,0.139,0.652-0.086,1.478-1.079
		c-1.228-0.313-1.994-1.069-2.24-2.316c0.601-0.348,1.202-0.696,1.803-1.044c1.694-0.962,1.745-0.942,2.365,0.929
		c0.267,0.804,1.315,1.223,1.944,0.688c0.304-0.259,1.231-0.746-0.094-1.15c-0.818-0.249-1.461-1.01-1.813-1.885
		c0.606-0.328,1.212-0.656,1.817-0.984c1.134-0.532,2.341-1.407,2.486,0.93c0.028,0.458,0.676,0.914,1.387,0.873
		c0.668-0.038,0.739-0.68,0.927-1.022c0.162-0.294-0.419-0.664-0.864-0.811c-0.712-0.236-1.129-0.754-1.302-1.476
		c0.623-0.415,1.246-0.831,1.869-1.246c0.511-0.051,0.6-0.554,0.895-0.836c0.669,0.328,1.471,0.584,1.465,1.499
		c-0.005,0.69,0.327,1.016,0.902,1.167c0.702,0.184,1.243-0.056,1.564-0.755c-1.131-0.486-1.97-1.27-2.423-2.435
		c0.755-0.319,1.479-0.691,2.095-1.244c0.472-0.003,0.531-0.482,0.811-0.705c0.48,0.052,0.882,0.272,1.083,0.702
		c0.185,0.396,0.28,0.836,0.387,1.264c0.161,0.644,0.554,0.834,1.205,0.813c0.514-0.017,0.706-0.49,1.127-0.589
		c-0.265-0.44-0.419-0.982-0.929-1.213c-0.672-0.306-1.147-0.76-1.33-1.489c0.619-0.403,1.238-0.805,1.856-1.208
		c0.476,0.022,0.511-0.492,0.821-0.673c0.814,0.065,1.538,0.342,1.538,1.273c0,0.735,0.397,1.192,0.926,1.351
		c0.702,0.21,1.248-0.265,1.723-0.84c-1.235-0.54-2.187-1.181-2.317-2.546c0.523-0.344,1.046-0.687,1.569-1.031
		c0.517-0.095,0.836-0.443,1.101-0.86c0.709,0.291,1.354,0.586,1.193,1.582c-0.153,0.948,0.782,0.819,1.271,1.082
		c0.269,0.145,0.843,0.164,0.934-0.159c0.171-0.604-0.14-1.214-0.674-1.501c-0.664-0.357-1.047-0.847-1.228-1.544
		c0.642-0.387,1.283-0.773,1.925-1.16c0.335-0.257,0.67-0.515,1.006-0.772c0.844,0.174,1.285,0.651,1.294,1.554
		c0.007,0.7,0.534,1.038,1.133,1.178c0.421,0.099,0.797-0.101,0.911-0.57c0.165-0.684-0.074-1.066-0.776-1.351
		c-0.52-0.211-0.953-0.718-1.071-1.361c0.51-0.472,1.276-0.579,1.69-1.186c0.492-0.004,0.693-0.445,1.03-0.683
		c0.835,0.123,1.726,0.364,1.439,1.419c-0.261,0.96,0.55,0.712,0.857,0.95c0.335,0.26,0.964,0.31,1.21-0.087
		c0.246-0.397-0.162-0.825-0.43-1.177c-0.459-0.602-1.37-0.91-1.231-1.9c0.542-0.338,1.084-0.676,1.625-1.015
		c0.436-0.289,0.873-0.578,1.309-0.867c0.748,0.388,0.884,1.096,1.092,1.834c0.152,0.54,0.599,1.014,1.333,0.946
		c0.425-0.04,0.628-0.244,0.667-0.645c0.058-0.587,0.003-1.031-0.737-1.218c-0.666-0.167-0.952-0.803-1.125-1.445
		c1.037-0.608,2.073-1.217,3.11-1.825c0.682,0.109,1.153,0.536,1.121,1.19c-0.041,0.858,0.519,1.209,1.098,1.378
		c0.648,0.189,1.077-0.344,1.378-0.904C61.535,43.948,60.766,43.095,60.287,41.959z"/>
	<path fill="#F3F3F4" d="M38.017,85.858C49.401,92.429,60.784,99,72.166,105.573c0.818,0.472,1.625,0.965,2.436,1.448
		c-1.7,1.626-3.877,2.593-5.664,4.098c-0.791,0.416-1.583,0.833-2.374,1.249c-3.545-2.413-7.366-4.36-11.058-6.526
		c-7.994-4.689-16.026-9.315-24.051-13.952c-0.904-0.522-1.862-0.951-2.795-1.423C31.518,88.399,34.682,86.953,38.017,85.858z"/>
	<linearGradient id="SVGID_2_" gradientUnits="userSpaceOnUse" x1="4.7728" y1="78.0557" x2="88.4956" y2="78.0557">
		<stop  offset="0" style="stop-color:#000000"/>
		<stop  offset="1" style="stop-color:#67747C"/>
	</linearGradient>
	<path fill="url(#SVGID_2_)" d="M59.317,82.068c-2.602-0.118-5.19,0.141-7.782,0.296c0.047-0.96-0.149-1.92-0.522-2.752
		c-0.823-1.833-0.684-3.783-0.95-5.683c0.17-0.084,0.332-0.192,0.511-0.249c2.386-0.771,4.903-0.924,7.322-1.538
		c4.915-0.492,9.805-0.425,14.645,0.688c0.098,0.227,0.262,0.447,0.284,0.681c0.174,1.813-0.488,3.801,1.161,5.307
		c0.115,0.105,0.063,0.506-0.034,0.711c-0.481,1.009,0.014,1.946,0.166,2.906c0.108,0.677,1.037,0.996,0.811,1.827
		c-0.437-0.092-0.88-0.164-1.311-0.28C68.933,82.728,64.19,81.916,59.317,82.068z"/>
	<path fill="#474E54" d="M23.932,86.243c1.545-1.441,3.232-2.693,4.996-3.851c0.459-0.301,1.147-0.409,1.226-1.138
		c0.449-0.047,0.847-0.182,1.245-0.435c3.07-1.952,6.294-3.613,9.653-5.01c-0.011,0.341-0.038,0.687,0.312,0.903
		c-2.985,1.564-6.154,2.787-8.939,4.722c-2.318,1.611-4.627,3.24-6.876,4.944C24.855,86.902,24.427,86.833,23.932,86.243z"/>
	<path fill="#67747C" d="M6.639,104.382c-0.043-0.932,0.604-1.649,0.785-2.511c0.344-0.473,0.27-1.197,0.898-1.5
		c0.738,0.008,1.484-0.047,2.212,0.039c0.88,0.104,1.869-0.425,2.631,0.418c-0.502,1.556-1.427,2.974-1.525,4.662
		c-0.358-0.67-0.699-1.121-1.644-1.289C8.804,103.989,7.749,104.201,6.639,104.382z"/>
	<path fill="#67747C" d="M41.365,76.71c-0.35-0.216-0.323-0.562-0.312-0.903c1.404-0.589,2.809-1.178,4.214-1.766
		c2.898-0.789,5.795-1.579,8.692-2.368c0.309-0.03,0.618-0.06,0.927-0.09c0.974-0.19,1.94-0.45,2.949-0.323
		c0.021,0.294,0.041,0.588,0.062,0.881c-2.42,0.615-4.936,0.768-7.322,1.538c-0.179,0.058-0.341,0.165-0.511,0.249
		C47.075,74.578,44.215,75.63,41.365,76.71z"/>
	<path fill="#C0C8CC" d="M11.64,105.49c0.099-1.688,1.024-3.106,1.525-4.663c0.187-0.249,0.373-0.497,0.56-0.746
		c0.389-0.017,0.817,0.123,1.131-0.223c0.934-1.03,1.858-2.069,2.786-3.105c0.199-0.228,0.429-0.395,0.75-0.381
		c0.789,0.56,0.29,1.007-0.14,1.44c-1.325,1.336-2.649,2.675-3.996,3.989c-0.509,0.496-0.906,1.048-1.171,1.703
		c-0.112,0.276-0.292,0.654,0.128,0.724c1.001,0.169,0.951,0.779,0.595,1.403c-0.693,1.214,0.275,3.239-1.83,3.753
		c-0.03-0.729-0.098-1.459,0.122-2.174C12.012,106.62,13.429,105.627,11.64,105.49z"/>
	<path fill="#474E54" d="M13.725,100.082c-0.187,0.248-0.373,0.497-0.56,0.746c-0.761-0.842-1.751-0.313-2.631-0.417
		c-0.729-0.086-1.474-0.031-2.212-0.039c0.359-0.585,0.686-1.192,1.085-1.748c0.522-0.727,1.117-1.021,2.14-0.79
		c1.175,0.266,2.443,0.115,3.671,0.145C14.721,98.679,14.223,99.38,13.725,100.082z"/>
	<path fill="#B0B9BD" d="M13.725,100.082c0.498-0.701,0.996-1.402,1.493-2.104c0.797-0.429,1.423-1.197,2.423-1.225
		c-0.928,1.035-1.852,2.074-2.786,3.105C14.542,100.204,14.114,100.064,13.725,100.082z"/>
	<path fill="#67747C" d="M124.73,46.896c-1.254,1.685-2.612,3.227-4.866,3.536c1.15-1.663,1.835-3.464,1.644-5.526
		c1.461-0.08,2.34-1.591,3.845-1.562C125.328,44.56,125.067,45.735,124.73,46.896z"/>
	<path fill="#FEFEFE" d="M5.905,73.587c-0.034,1.22-1.35,1.528-1.763,2.479c-0.407-0.156-0.814-0.311-1.252-0.478
		c-0.524,0.359-0.006,1.029-0.434,1.477c-0.854-1.362-0.894-2.838-0.651-4.31c0.132-0.804,0.606-1.452,1.588-1.504
		c0.759-0.04,1.386,0.042,1.525,0.953C4.944,72.882,4.646,73.79,5.905,73.587z"/>
	<path fill="#B0B9BD" d="M5.905,73.587c-1.259,0.203-0.961-0.706-0.986-1.383c1.108-0.928,1.278,0.377,1.832,0.768
		C6.469,73.177,6.187,73.382,5.905,73.587z"/>
	<path fill="#B0B9BD" d="M19.745,61.48c-0.342,0.51-0.631,1.041-0.667,1.673c-0.321-0.014-0.651-0.003-0.853-0.326
		c0.112-0.463,0.225-0.926,0.338-1.389c0.379-0.317,0.759-0.635,1.138-0.952C19.716,60.817,19.731,61.149,19.745,61.48z"/>
	<path fill="#C0C8CC" d="M6.574,118.387c-1.216-3.642-1.31-7.343-0.588-11.088c1.645-0.368,3.155,1.418,4.847,0.307
		c-0.047,1.096-0.094,2.193-0.14,3.289c-0.378,0.943-0.211,1.897-0.057,2.85c0.262,0.83-0.152,2.051,1.275,2.209
		c-0.102,0.465-0.682,0.736-0.531,1.304c0.074,0.476,0.149,0.952,0.224,1.428C9.961,118.023,8.212,119.136,6.574,118.387z"/>
	<path fill="#67747C" d="M11.603,118.685c-0.075-0.476-0.15-0.952-0.224-1.428c0.747-0.151,0.968,0.375,1.117,0.918
		c0.223,0.813,0.687,1.558,0.698,2.429c-0.182,0.855-0.682,1.202-1.577,1.128c-0.876-0.072-1.763-0.027-2.645-0.02
		c-0.844,0.007-1.42-0.307-1.537-1.213c1.625-0.278,3.193,0.397,4.808,0.286c0.035,0.023,0.071,0.046,0.106,0.069
		c-0.039-0.019-0.078-0.039-0.117-0.058C12.179,120.047,11.949,119.349,11.603,118.685z"/>
	<path fill="#474E54" d="M10.693,110.894c0.047-1.096,0.094-2.193,0.14-3.289c0.349-0.367,0.798-0.411,1.267-0.394
		c-0.219,0.715-0.152,1.445-0.122,2.174c-0.113,0.503-0.227,1.005-0.34,1.508C11.323,110.893,11.008,110.894,10.693,110.894z"/>
	<path fill="#F3F3F4" d="M11.911,115.953c-1.427-0.158-1.013-1.378-1.275-2.208c0.026-0.46,0.051-0.92,0.077-1.38
		c0.558-0.018,0.875,0.144,1.004,0.793C11.902,114.092,11.961,115.014,11.911,115.953z"/>
	<path fill="#67747C" d="M10.713,112.365c-0.026,0.46-0.051,0.92-0.077,1.38c-0.154-0.954-0.321-1.908,0.057-2.851
		c0.315-0.001,0.63-0.001,0.945-0.002C11.957,111.778,10.609,111.616,10.713,112.365z"/>
	<path fill="#F3F3F4" d="M121.508,44.906c0.192,2.062-0.494,3.863-1.644,5.526c-0.001-0.001,0.065,0.071,0.065,0.072
		c-0.202-0.013-0.302,0.103-0.355,0.279c0,0,0.022-0.016,0.023-0.015c-0.157,0.114-0.314,0.226-0.471,0.339
		c-0.434,0.287-0.869,0.573-1.303,0.859c-1.152,0.408-2.324,0.731-3.546,0.848c-3.709-0.735-7.145,0.326-10.546,1.607
		c-1.402,0.016-2.633,0.842-4.203,0.937c0.513-1.35,0.863-2.612,1.799-3.602c0.583,0.036,0.883-0.402,1.231-0.747
		c2.826-2.804,5.648-5.612,8.472-8.418c0.61,0.943,1.209,1.904,2.621,1.914c-0.189-0.754-0.261-1.346-0.809-1.919
		c-0.571-0.598-0.742-2.035-0.006-2.217c1.253-0.311,0.738-1.078,0.437-1.257c-0.829-0.49-0.852-1.156-0.78-1.912
		c0.051-0.53-0.199-0.844-0.616-1.085c0.42-1.317,1.679-1.917,2.491-2.901c0.536-0.651,1.133-1.251,1.703-1.875
		c0.567,0.715,1.133,1.431,1.699,2.147c0.663,1.627,1.777,3.047,2.2,4.784c-1.32,0.815-1.998,2.379-3.492,2.99
		c0.033-0.894-0.007-1.799,0.117-2.68c0.172-1.217-0.283-1.871-1.427-2.053c0,1.945-0.048,3.862,0.023,5.775
		c0.029,0.796,0.625,0.975,1.246,0.483c0.807-0.16,1.138-0.919,1.719-1.363c0.808-0.618,1.233-1.709,2.371-1.919
		C121.145,41.251,121.425,43.061,121.508,44.906z M115.485,43.583c-0.563-0.027-0.787,0.286-0.749,0.732
		c0.076,0.897,0.464,1.649,1.382,1.909c0.5,0.142,0.726-0.305,0.69-0.725C116.731,44.614,116.362,43.887,115.485,43.583z"/>
	<path fill="#F3F3F4" d="M120.526,39.503c-1.137,0.21-1.562,1.302-2.371,1.919c-0.581,0.444-0.912,1.203-1.719,1.363
		c0.014-0.508,0.027-1.016,0.041-1.525c1.494-0.611,2.173-2.175,3.492-2.99C120.35,38.593,120.331,39.096,120.526,39.503z"/>
	<path fill="#B0B9BD" d="M12.1,107.211c-0.468-0.017-0.918,0.028-1.267,0.394c-1.692,1.111-3.201-0.675-4.847-0.307
		c-0.017-1.025,0.441-1.943,0.653-2.917c1.11-0.181,2.165-0.394,3.357-0.182c0.945,0.168,1.286,0.619,1.644,1.289
		C13.429,105.627,12.012,106.62,12.1,107.211z"/>
	<path fill="#B0B9BD" d="M12.242,120.787c-1.615,0.11-3.183-0.565-4.808-0.286c-0.531-0.605-0.744-1.34-0.861-2.114
		c1.638,0.749,3.387-0.364,5.03,0.298c0.346,0.664,0.575,1.362,0.628,2.113L12.242,120.787z"/>
	<path fill="#025B9C" d="M53.959,71.673c-2.898,0.789-5.795,1.579-8.693,2.367c-3.584-2.036-7.186-4.042-10.745-6.12
		c-1.483-0.866-3.174-1.431-4.325-2.813c10.087-5.843,20.183-11.673,30.255-17.542c1.966-1.146,4.072-2.074,5.82-3.577
		c1.22-0.219,2.121-1.074,3.167-1.632c0.709-0.378,1.192-0.348,1.892,0.06c10.339,6.02,20.697,12.007,31.061,17.984
		c2.538,1.464,5.112,2.863,7.67,4.292c2.69,1.782,5.523,3.313,8.378,4.807c1.738,1.45,4.017,2.052,5.678,3.623
		c-8.378,4.821-16.738,9.675-25.145,14.446c-2.982,1.692-5.869,3.56-8.991,5.002c-0.367-1.795-0.234-3.667-0.831-5.426
		c0.236-4.768-1.874-8.355-5.599-11.133c-2.437-1.817-5.199-2.931-8.075-3.834c-2.327-0.731-4.77-0.865-7.116-1.482
		c1.302-0.793,2.604-1.586,3.906-2.38c5.193-2.94,10.387-5.88,15.574-8.817c-0.11-0.228-0.128-0.356-0.197-0.396
		c-4.483-2.609-8.973-5.206-13.453-7.82c-0.452-0.264-0.815-0.21-1.239,0.043c-2.436,1.455-4.882,2.893-7.324,4.337
		c-3.302,1.888-6.604,3.776-9.906,5.664c-3.223,1.826-6.445,3.653-9.863,5.59C48.73,68.604,51.345,70.138,53.959,71.673z"/>
	<path fill="#D3D7DA" d="M101.612,87.374c3.623-2.096,7.245-4.191,10.868-6.287c0.025,0.702-0.52,1.049-0.934,1.465
		c-6.538,6.546-13.083,13.086-19.622,19.632c-0.463,0.464-0.908,0.937-1.606,1.025c0.378-1.518,0.279-3.071,0.335-4.612
		c0.219-0.107,0.486-0.165,0.65-0.328c3.295-3.275,6.578-6.562,9.866-9.844C101.462,88.132,101.7,87.824,101.612,87.374z"/>
	<path fill="#B0B9BD" d="M68.36,70.696c2.346,0.617,4.789,0.75,7.116,1.482c2.875,0.904,5.638,2.018,8.075,3.834
		c3.725,2.777,5.835,6.365,5.599,11.133c-0.244,4.493-2.321,8.228-4.875,11.765c-0.339-0.003-0.679-0.005-1.018-0.008
		c0.044-0.094,0.089-0.187,0.133-0.281c0.075-0.117,0.15-0.235,0.225-0.352c0.148-1.038,1.45-1.343,1.536-2.42
		c0.974-1.223,1.526-2.65,1.987-4.121c1.917-4.335,0.997-9.54-2.35-12.845c-3.405-3.362-7.627-5.123-12.247-6.052
		c-4.84-1.113-9.729-1.18-14.645-0.688c-0.02-0.294-0.041-0.588-0.062-0.882c2.664-0.483,5.353-0.603,8.053-0.532
		c0.657,0.017,1.293-0.007,1.893-0.305C67.888,70.695,68.153,70.635,68.36,70.696z"/>
	<path fill="#C0C8CC" d="M90.318,103.209c0.698-0.088,1.143-0.561,1.606-1.025c6.539-6.546,13.084-13.086,19.622-19.632
		c0.415-0.415,0.959-0.762,0.934-1.465c1.071-0.622,2.143-1.243,3.214-1.865c0.155,0.593-0.247,0.925-0.601,1.278
		c-8.238,8.238-16.476,16.476-24.714,24.713c-0.246,0.246-0.477,0.52-0.86,0.56C89.785,104.919,90.051,104.064,90.318,103.209z"/>
	<path fill="#474E54" d="M31.805,128.353c-0.019-0.247-0.077-0.498-0.049-0.739c0.065-0.553-0.326-1.355,0.344-1.593
		c0.726-0.258,0.401,0.727,0.785,1c0.882,0.628,1.718,1.324,2.619,1.922c0.448,0.297,0.955,0.5,1.366-0.216
		c0.445-0.776,1.167,0.148,1.723-0.167c-0.16,1.272-0.382,2.534-0.005,3.823c0.106,0.364,0.237,0.944-0.294,1.199
		c-0.554,0.266-0.777-0.219-1.067-0.556c-0.753-0.876-1.657-1.566-2.697-2.068c-0.701-0.338-1.188-0.881-1.588-1.525
		c-0.226-0.363-0.312-0.886-0.918-0.832c0,0,0.021,0.014,0.021,0.013C31.965,128.527,31.885,128.44,31.805,128.353z"/>
	<path fill="#67747C" d="M83.258,98.901c0.339,0.003,0.679,0.005,1.018,0.008c-0.688,1.455-1.927,2.499-3.009,3.584
		c-3.634,3.642-7.499,7.037-12.013,9.596c-0.35-0.244-0.278-0.625-0.314-0.97c1.787-1.506,3.963-2.473,5.664-4.098
		c2.725-2.082,5.355-4.263,7.475-6.995C82.407,99.601,82.861,99.274,83.258,98.901z"/>
	<path fill="#67747C" d="M44.644,108.181c0.262-0.026,0.525-0.051,0.788-0.076c0.12,0.862,0.901,1.1,1.473,1.509
		c0.602,0.43,1.227,0.802,1.373,1.607c-0.208,0.191-0.417,0.383-0.625,0.574c-0.913,0.593-1.825,1.186-2.738,1.779
		c-0.22-1.359-1.472-1.67-2.397-2.275c-0.355-0.232-0.785-0.347-1.038-0.727C42.535,109.775,43.59,108.978,44.644,108.181z"/>
	<path fill="#D3D7DA" d="M90.229,93.794c2.603-1.466,5.205-2.932,7.808-4.397c0.083,0.562-0.247,0.92-0.606,1.278
		c-1.962,1.954-3.918,3.913-5.875,5.872c-0.283,0.284-0.567,0.558-1.008,0.546C90.22,96.015,90.188,94.908,90.229,93.794z"/>
	<path fill="#474E54" d="M44.915,113.574c0.913-0.593,1.825-1.186,2.738-1.779c-0.068,0.915,0.927,0.752,1.36,1.316
		c-2.146,1.56-4.061,3.337-5.82,5.279c-0.725,0.109-1.272-0.35-1.886-0.596c0.174-0.369,0.347-0.738,0.52-1.107
		c0.017-0.106,0.033-0.212,0.05-0.318C43.141,115.71,43.929,114.535,44.915,113.574z"/>
	<path fill="#C0C8CC" d="M90.547,97.093c0.442,0.013,0.725-0.262,1.008-0.546c1.956-1.959,3.913-3.919,5.875-5.872
		c0.36-0.358,0.69-0.716,0.606-1.278c1.192-0.674,2.384-1.348,3.576-2.022c0.087,0.45-0.15,0.757-0.444,1.05
		c-3.288,3.282-6.57,6.57-9.866,9.844c-0.164,0.163-0.431,0.221-0.65,0.328C90.617,98.096,90.582,97.594,90.547,97.093z"/>
	<path fill="#474E54" d="M48.278,111.22c-0.145-0.805-0.771-1.177-1.373-1.607c-0.572-0.408-1.353-0.647-1.473-1.509
		c0.521-0.272,1.043-0.544,1.564-0.816c0.833-0.08,1.665-0.159,2.498-0.239c-0.147,1.081,0.734,1.396,1.39,1.897
		c0.792,0.604,0.982,1.177-0.227,1.476C49.84,110.623,49.166,111.241,48.278,111.22z"/>
	<path fill="#474E54" d="M68.939,111.119c0.036,0.346-0.036,0.726,0.314,0.97c-2.416,1.752-5.085,3.067-7.715,4.448
		c-0.428,0.225-0.973,0.606-1.374,0.188c-0.563-0.587,0.324-0.901,0.443-1.381c2.238-0.488,4.051-1.825,5.958-2.976
		C67.357,111.952,68.148,111.535,68.939,111.119z"/>
	<path fill="#67747C" d="M49.494,107.05c-0.833,0.08-1.665,0.159-2.498,0.239c-0.302-0.234-0.77-0.727-0.178-0.795
		c1.16-0.133,2.432-0.595,3.532,0.303C50.134,107.118,49.788,106.995,49.494,107.05z"/>
	<path fill="#67747C" d="M119.126,51.107c0.157-0.113,0.314-0.225,0.471-0.339C119.567,51.057,119.381,51.13,119.126,51.107z"/>
	<path fill="#67747C" d="M119.575,50.783c0.053-0.176,0.153-0.292,0.355-0.279C119.901,50.71,119.789,50.813,119.575,50.783z"/>
	<path fill="#C0C8CC" d="M120.2,86.276c0.967,2.009,0.972,2.017-1.03,3.148c-1.413,0.799-2.84,1.574-4.261,2.36
		c-0.037-0.308,0.012-0.603,0.249-0.815C116.868,89.435,118.187,87.483,120.2,86.276z"/>
	<path fill="#C0C8CC" d="M41.877,116.369c-0.017,0.106-0.033,0.212-0.052,0.317c-0.606-0.059-0.852,0.452-1.189,0.783
		c-1.489,1.462-3.004,2.902-4.415,4.438c-0.799,0.869-1.588,1.424-2.792,0.982c0.461-1.128-0.107-2.206-0.159-3.31
		c0.777,0.306,1.353,0.297,1.593-0.723c0.116-0.491,0.52-0.914,0.794-1.367c1.168-0.276,1.718-1.32,2.469-2.079
		c0.759-0.766,1.322-1.079,2.168-0.136C40.711,115.739,41.343,116.011,41.877,116.369z"/>
	<path fill="#C0C8CC" d="M44.644,108.181c-1.054,0.797-2.108,1.594-3.164,2.391c-0.732,0.019-1.257,1.613-1.952,0.573
		c-0.62-0.927,0.812-1.093,1.285-1.622c0.802-0.898,1.947-1.341,2.975-1.933C44.497,107.18,44.658,107.55,44.644,108.181z"/>
	<path fill="#474E54" d="M36.228,115.924c-0.214-0.436-0.694-0.764-0.542-1.346c0,0.001,0.043-0.059,0.042-0.059
		c0.391-0.303,0.756-0.627,0.854-1.148c0.187-0.231,0.362-0.473,0.562-0.692c0.342-0.374,0.745-0.771,1.25-0.354
		c0.541,0.447,0.15,0.845-0.173,1.263C37.595,114.4,37.224,115.426,36.228,115.924z"/>
	<path fill="#F3F3F4" d="M35.658,117.489c-0.274,0.454-0.678,0.876-0.794,1.367c-0.241,1.019-0.816,1.029-1.593,0.723
		c0.134-1.003,0.693-1.828,1.135-2.702c0.304-0.601,0.703-0.785,1.266-0.308C35.667,116.876,35.662,117.183,35.658,117.489z"/>
	<path fill="#67747C" d="M36.582,113.371c-0.098,0.522-0.463,0.845-0.854,1.148C35.642,113.861,35.789,113.375,36.582,113.371z"/>
	<path fill="#1B2128" d="M25.173,110.396c0.088,2.525-0.507,4.86-2.015,6.909c-1.75,2.378-4.236,2.296-5.872-0.16
		c-2.292-3.442-1.918-9.877,0.756-12.999c1.577-1.842,3.656-1.871,5.281-0.074C24.525,105.401,25.176,107.623,25.173,110.396z"/>
	<path fill="#B0B9BD" d="M33.43,122.889c1.203,0.442,1.993-0.113,2.792-0.982c1.411-1.535,2.925-2.976,4.415-4.438
		c0.338-0.331,0.583-0.842,1.189-0.783c-0.172,0.37-0.345,0.739-0.519,1.108c-2.105,2.461-3.37,5.357-4.155,8.447
		c-0.319,1.255-0.778,1.193-1.583,0.562c-0.739-0.579-1.474-1.166-2.177-1.787C32.599,124.314,33.087,123.593,33.43,122.889z"/>
	<path fill="#1B2128" d="M31.805,128.353c0.08,0.087,0.16,0.174,0.24,0.261C31.965,128.527,31.885,128.44,31.805,128.353z"/>
	<path fill="#B0B9BD" d="M19.745,61.48c-0.015-0.332-0.029-0.664-0.044-0.995c0.072-0.064,0.145-0.185,0.218-0.185
		c1.491,0.001,2.81-0.038,3.444-1.896c0.251-0.735,1.56-1.047,2.517-0.797c0.765,0.2,1.062,0.025,1.255-0.701
		c0.199-0.745,0.903-1.152,1.349-1.737c0.886-0.041,1.772-0.083,2.658-0.125c0.22,0.482,0.636,0.6,1.116,0.599
		c0.523,0.637,1.033,1.289,1.862,1.56c0.183,0.729,0.658,1.183,1.33,1.489c0.509,0.231,0.663,0.774,0.929,1.213
		c-0.421,0.1-0.613,0.573-1.127,0.589c-0.651,0.021-1.044-0.169-1.205-0.813c-0.107-0.428-0.202-0.868-0.387-1.264
		c-0.201-0.43-0.604-0.65-1.083-0.702c-0.299-0.556-0.66-1.036-1.35-1.12c-0.851-0.734-1.732-0.896-2.621-0.086
		c-1.272,1.159-1.009,1.922,1.065,3.155c0.453,1.165,1.292,1.949,2.423,2.435c-0.321,0.698-0.863,0.939-1.564,0.755
		c-0.574-0.15-0.906-0.476-0.902-1.167c0.006-0.915-0.796-1.172-1.465-1.499c-0.322-0.469-0.587-1-1.22-1.135
		c-1.024-0.528-2.082-0.84-2.964,0.172c-0.983,1.128-0.583,1.927,1.42,3.045c0.173,0.722,0.59,1.24,1.302,1.476
		c0.446,0.148,1.026,0.517,0.864,0.811c-0.188,0.342-0.259,0.984-0.927,1.022c-0.712,0.04-1.359-0.416-1.387-0.873
		c-0.145-2.337-1.352-1.462-2.486-0.93C22.598,61.104,21.938,60.601,19.745,61.48z"/>
	<path fill="#B0B9BD" d="M55.986,44.574c0.172,0.643,0.459,1.278,1.125,1.445c0.74,0.186,0.795,0.631,0.737,1.218
		c-0.04,0.402-0.243,0.606-0.667,0.645c-0.734,0.069-1.181-0.406-1.333-0.946c-0.208-0.739-0.344-1.446-1.092-1.834
		c-0.476-0.483-0.972-0.936-1.663-1.093c-0.33-0.429-0.796-0.589-1.305-0.61c-0.956-0.04-1.614,0.401-1.96,1.299
		c-0.333,0.863,0.208,1.294,0.831,1.68c0.372,0.231,0.654,0.637,1.162,0.607c-0.139,0.99,0.772,1.298,1.231,1.9
		c0.268,0.352,0.676,0.78,0.43,1.177c-0.246,0.397-0.875,0.348-1.21,0.087c-0.307-0.238-1.119,0.01-0.857-0.95
		c0.287-1.055-0.604-1.296-1.439-1.419c-0.177-0.726-0.61-1.196-1.355-1.352c-0.759-0.671-1.631-0.341-2.473-0.282
		c-0.256-0.131-0.312-0.376-0.36-0.626c0.84-0.728,1.9-0.337,2.771-0.571c0.687-0.185,0.723-1.908,1.679-2.047
		c1.955-0.283,3.242-1.301,4.59-2.666c1.129-1.143,2.606,0.009,3.888,0.457c0.524,0.422,1.048,0.843,1.572,1.265
		c0.479,1.136,1.248,1.989,2.406,2.455c-0.301,0.56-0.73,1.093-1.378,0.904c-0.579-0.168-1.139-0.52-1.098-1.378
		c0.031-0.654-0.439-1.082-1.122-1.19c-0.319-1.032-1.248-1.392-2.101-1.67c-0.947-0.308-1.961-0.327-2.601,0.752
		C53.708,42.987,53.993,43.497,55.986,44.574z"/>
	<path fill="#B0B9BD" d="M38.667,54.56c0.131,1.365,1.082,2.006,2.317,2.546c-0.475,0.576-1.022,1.051-1.723,0.84
		c-0.528-0.158-0.925-0.616-0.926-1.351c-0.001-0.931-0.724-1.208-1.538-1.273c-0.101-0.681-0.583-1.046-1.129-1.356
		c-0.607-0.552-1.608-0.258-2.132-0.99c1.36-0.25,2.5-0.737,3.102-2.166c0.162-0.384,0.965-0.801,1.382-0.721
		c1.622,0.31,2.317-0.596,3.083-1.78c0.777-1.201,2.132-0.726,3.292-0.693c0.267,0.323,0.648,0.425,1.029,0.524
		c0.57,0.551,1.003,1.267,1.829,1.507c0.118,0.643,0.552,1.15,1.071,1.361c0.702,0.285,0.941,0.666,0.776,1.351
		c-0.113,0.469-0.489,0.668-0.911,0.57c-0.599-0.141-1.126-0.479-1.133-1.178c-0.009-0.903-0.45-1.38-1.294-1.554
		c-0.417-0.486-0.783-1.025-1.375-1.331c-0.92-0.491-1.87-0.721-2.724,0.059c-1.194,1.09-0.8,2.126,1.168,3.204
		c0.18,0.697,0.564,1.186,1.228,1.544c0.534,0.287,0.845,0.897,0.674,1.501c-0.091,0.323-0.665,0.304-0.934,0.159
		c-0.489-0.263-1.424-0.134-1.271-1.082c0.161-0.996-0.483-1.292-1.193-1.582c-0.398-0.469-0.695-1.064-1.413-1.137
		c-1.421-0.792-2.336-0.658-3.035,0.394c-0.939,1.412,0.38,1.753,1.106,2.362C38.17,54.437,38.44,54.473,38.667,54.56z"/>
	<path fill="#B0B9BD" d="M33.181,52.996c0.156,1.044-1.021,1.624-0.923,2.647c-0.48,0-0.896-0.117-1.116-0.599
		C31.712,54.253,31.811,52.992,33.181,52.996z"/>
	<path fill="#B0B9BD" d="M45.424,48.141c-0.382-0.1-0.762-0.201-1.029-0.524c0.262-0.833,0.547-1.651,1.392-2.097
		c0.047,0.251,0.104,0.496,0.36,0.625C45.695,46.734,45.484,47.41,45.424,48.141z"/>
	<path fill="#F3F3F4" d="M109.198,37.979c0.295-0.004,0.59-0.009,0.885-0.013c0.756,1.091,0.909,2.311,0.764,3.594
		c-0.599,0.099-0.895,0.604-1.275,0.98c-1.911,1.89-3.81,3.793-5.704,5.7c-0.462,0.465-0.898,0.947-1.641,0.867
		c-2.035-1.106-3.917-2.431-5.664-3.95c2.269-2.314,4.534-4.632,6.817-6.931c0.154-0.155,0.447-0.173,0.676-0.254
		c0.531,1.49,1.618,2.448,3.011,3.087c1.416,0.65,1.996,0.275,2.075-1.307C109.171,39.162,109.18,38.57,109.198,37.979z"/>
	<path fill="#F3F3F4" d="M102.227,49.108c0.743,0.08,1.179-0.402,1.641-0.867c1.894-1.907,3.793-3.81,5.704-5.7
		c0.38-0.376,0.676-0.881,1.275-0.98c0.061,0.344,0.122,0.687,0.183,1.031c-2.823,2.807-5.645,5.615-8.472,8.418
		c-0.348,0.345-0.648,0.783-1.231,0.747C101.431,50.807,102.411,50.155,102.227,49.108z"/>
	<path fill="#F3F3F4" d="M96.255,30.737c0.899,0.34,1.287,1.112,1.362,2.052c0.034,0.428-0.206,0.836-0.724,0.685
		c-0.988-0.289-1.38-1.085-1.451-2.033C95.409,31.001,95.671,30.69,96.255,30.737z"/>
	<path fill="#253C7A" d="M111.03,42.591c-0.061-0.344-0.122-0.687-0.183-1.031c0.145-1.283-0.008-2.503-0.764-3.594
		c0.201-0.628,1.022-0.843,0.911-1.776c-0.08-0.671,0.568-0.02,0.882-0.074c0.418,0.241,0.667,0.555,0.616,1.085
		c-0.072,0.756-0.049,1.422,0.78,1.912c0.301,0.178,0.816,0.946-0.437,1.257c-0.736,0.183-0.565,1.619,0.006,2.217
		c0.548,0.573,0.62,1.165,0.809,1.919C112.239,44.495,111.641,43.535,111.03,42.591z"/>
	<path fill="#025B9C" d="M87.138,91.727c-0.461,1.471-1.014,2.898-1.987,4.121c-2.308,1.004-3.738-0.894-5.356-1.792
		c-6.442-3.575-12.786-7.329-19.159-11.029c-0.467-0.271-0.879-0.637-1.318-0.959c4.872-0.152,9.615,0.66,14.3,1.914
		c0.431,0.115,0.874,0.188,1.311,0.279c0.404,0.183,0.796,0.4,1.213,0.546C80.338,86.273,84.124,88.386,87.138,91.727z"/>
	<path fill="#67747C" d="M83.615,98.268c-0.075,0.117-0.15,0.234-0.225,0.352C83.465,98.503,83.54,98.386,83.615,98.268z"/>
	<path fill="#253C7A" d="M30.196,65.107c1.151,1.382,2.842,1.947,4.325,2.813c3.559,2.078,7.161,4.084,10.745,6.12
		c-1.405,0.589-2.809,1.178-4.214,1.767c-3.359,1.397-6.583,3.058-9.653,5.01c-0.398,0.253-0.796,0.389-1.245,0.435
		c-1.451-1.441-1.998-3.317-2.234-5.233c-0.454-3.685,0.204-7.233,1.787-10.597C29.777,65.274,30.029,65.21,30.196,65.107z"/>
	<path fill="#B0B9BD" d="M53.445,45.97c-0.295-0.622-0.429-1.273-0.353-1.961c0.691,0.158,1.187,0.611,1.663,1.094
		C54.318,45.392,53.882,45.681,53.445,45.97z"/>
	<path fill="#B0B9BD" d="M40.235,53.529c-0.104-0.666-0.209-1.332-0.312-1.997c0.718,0.073,1.015,0.668,1.413,1.137
		C41.072,53.086,40.753,53.435,40.235,53.529z"/>
	<path fill="#B0B9BD" d="M48.944,48.463c-0.109-0.678-0.218-1.357-0.326-2.035c0.746,0.157,1.179,0.626,1.356,1.352
		C49.637,48.017,49.436,48.459,48.944,48.463z"/>
	<path fill="#B0B9BD" d="M44.758,50.969c-0.227-0.683-0.486-1.361-0.369-2.104c0.592,0.307,0.958,0.845,1.375,1.332
		C45.428,50.454,45.093,50.712,44.758,50.969z"/>
	<path fill="#B0B9BD" d="M27.267,61.026c-0.235-0.636-0.413-1.282-0.325-1.971c0.633,0.135,0.898,0.666,1.22,1.135
		C27.866,60.472,27.777,60.975,27.267,61.026z"/>
	<path fill="#B0B9BD" d="M35.976,55.995c-0.383-0.634-0.343-1.332-0.309-2.029c0.547,0.311,1.028,0.675,1.129,1.357
		C36.487,55.503,36.451,56.017,35.976,55.995z"/>
	<path fill="#B0B9BD" d="M31.764,58.422c-0.447-0.53-0.407-1.203-0.539-1.825c0.691,0.084,1.052,0.564,1.351,1.12
		C32.295,57.94,32.236,58.418,31.764,58.422z"/>
	<linearGradient id="SVGID_3_" gradientUnits="userSpaceOnUse" x1="4.7728" y1="82.2782" x2="88.4956" y2="82.2782">
		<stop  offset="0" style="stop-color:#000000"/>
		<stop  offset="1" style="stop-color:#67747C"/>
	</linearGradient>
	<path fill="url(#SVGID_3_)" d="M87.138,91.727c-3.014-3.341-6.801-5.454-10.996-6.92c-0.417-0.146-0.809-0.362-1.213-0.546
		c0.227-0.83-0.703-1.15-0.811-1.827c-0.153-0.96-0.647-1.897-0.166-2.906c0.098-0.205,0.149-0.606,0.034-0.711
		c-1.649-1.507-0.987-3.494-1.161-5.307c-0.022-0.234-0.186-0.454-0.284-0.681c4.62,0.93,8.842,2.69,12.247,6.052
		C88.135,82.187,89.055,87.392,87.138,91.727z"/>
	<path fill="#253C7A" d="M67.78,70.423c-0.6,0.298-1.236,0.322-1.893,0.305c-2.7-0.071-5.389,0.049-8.053,0.532
		c-1.009-0.127-1.975,0.132-2.949,0.323c-2.561-1.538-5.121-3.076-7.774-4.669c2.973-1.721,5.814-3.366,8.655-5.011
		c0.921,0.484,1.841,0.969,2.762,1.452c0.315,0.168,0.63,0.337,0.945,0.506c0.989,0.707,2.026,1.331,3.144,1.815
		c0.248,0.279,0.548,0.469,0.922,0.528c0.811,0.621,1.681,1.138,2.631,1.518c0.263,0.3,0.589,0.489,0.983,0.559
		c0.621,0.426,1.242,0.853,1.944,1.335C68.596,69.922,68.188,70.173,67.78,70.423z"/>
	<path fill="#D3D7DA" d="M55.768,61.902c-2.841,1.645-5.682,3.29-8.655,5.011c2.652,1.593,5.213,3.131,7.774,4.669
		c-0.309,0.03-0.618,0.06-0.927,0.09c-2.614-1.534-5.228-3.069-8.101-4.755c3.418-1.937,6.64-3.763,9.863-5.59
		C55.737,61.519,55.752,61.711,55.768,61.902z"/>
	<path fill="#B0B9BD" d="M12.232,120.798c0.039,0.019,0.078,0.039,0.117,0.058c-0.035-0.023-0.071-0.046-0.106-0.069
		C12.242,120.787,12.232,120.798,12.232,120.798z"/>
	<path fill="#253C7A" d="M116.477,41.26c-0.014,0.508-0.027,1.016-0.041,1.525c-0.621,0.491-1.217,0.312-1.246-0.483
		c-0.07-1.913-0.023-3.83-0.023-5.775c1.144,0.182,1.598,0.836,1.427,2.053C116.47,39.462,116.51,40.366,116.477,41.26z"/>
	<path fill="#253C7A" d="M115.485,43.583c0.877,0.304,1.246,1.03,1.322,1.916c0.036,0.42-0.19,0.867-0.69,0.725
		c-0.917-0.26-1.305-1.012-1.382-1.909C114.698,43.869,114.922,43.556,115.485,43.583z"/>
	<path fill="#F3F3F4" d="M65.628,55.664c2.442-1.444,4.888-2.882,7.324-4.337c0.424-0.254,0.787-0.307,1.239-0.043
		c4.48,2.614,8.97,5.211,13.453,7.82c0.069,0.04,0.087,0.168,0.197,0.396c-5.187,2.937-10.381,5.877-15.574,8.817
		c-0.038-0.636,0.464-0.94,0.828-1.322c1.114-1.171,2.238-2.334,3.357-3.5c0.733,0.077,1.25,1.118,1.997,0.71
		c2.81-1.534,5.561-3.175,8.547-4.899c-4.44-2.561-8.626-4.96-12.791-7.396c-0.612-0.358-1.022-0.086-1.499,0.186
		c-2.25,1.278-4.504,2.551-6.756,3.825C65.842,55.835,65.735,55.75,65.628,55.664z"/>
	<path fill="#FEFEFE" d="M76.451,63.495c-1.12,1.166-2.243,2.329-3.358,3.5c-0.364,0.382-0.865,0.685-0.828,1.322
		c-1.302,0.793-2.604,1.586-3.906,2.38c-0.208-0.061-0.472-0.001-0.58-0.273c0.408-0.25,0.816-0.5,1.319-0.809
		c-0.702-0.482-1.323-0.908-1.944-1.335c1.309-1.26,2.659-2.481,3.914-3.793c0.835-0.873,1.947-1.52,2.39-2.739
		C74.456,62.33,75.454,62.913,76.451,63.495z"/>
	<path fill="#FEFEFE" d="M65.628,55.664c0.107,0.086,0.214,0.171,0.321,0.257c-0.243,0.378-0.969,0.307-0.901,0.972
		c-2.063,2.264-4.18,4.475-6.518,6.462c-0.921-0.484-1.841-0.969-2.762-1.453c-0.016-0.191-0.031-0.383-0.047-0.574
		C59.023,59.44,62.325,57.552,65.628,55.664z"/>
	<path fill="#FEFEFE" d="M66.172,67.721c-0.95-0.38-1.82-0.897-2.631-1.518c1.688-1.742,3.379-3.479,5.06-5.228
		c0.402-0.418,0.96-0.744,0.965-1.434c1.098,0.421,2.07,1.067,3.044,1.708C70.656,63.598,68.468,65.713,66.172,67.721z"/>
	<path fill="#FEFEFE" d="M62.619,65.675c-1.118-0.483-2.155-1.108-3.144-1.815c2.369-1.926,4.453-4.141,6.485-6.408
		c0.977,0.372,1.852,0.92,2.692,1.533c-0.013,0.694-0.595,0.999-0.988,1.426C66.016,62.199,64.098,63.727,62.619,65.675z"/>
	<path fill="#F3F3F4" d="M62.619,65.675c1.479-1.948,3.397-3.476,5.045-5.263c0.393-0.427,0.975-0.732,0.988-1.426
		c0.364,0.088,0.689,0.238,0.914,0.555c-0.005,0.69-0.563,1.016-0.965,1.434c-1.68,1.749-3.372,3.486-5.06,5.228
		C63.166,66.144,62.867,65.954,62.619,65.675z"/>
	<path fill="#F3F3F4" d="M66.172,67.721c2.296-2.007,4.484-4.123,6.437-6.472c0.283,0.166,0.566,0.333,0.849,0.499
		c-0.443,1.219-1.555,1.865-2.39,2.739c-1.255,1.312-2.604,2.533-3.914,3.793C66.761,68.21,66.435,68.021,66.172,67.721z"/>
	<path fill="#F3F3F4" d="M65.96,57.453c-2.032,2.267-4.116,4.482-6.485,6.408c-0.315-0.169-0.63-0.338-0.945-0.506
		c2.337-1.987,4.454-4.198,6.517-6.462C65.396,57.007,65.735,57.137,65.96,57.453z"/>
	<path fill="#B52429" d="M65.96,57.453c-0.225-0.316-0.564-0.446-0.913-0.56c-0.067-0.665,0.659-0.594,0.901-0.972
		c2.252-1.274,4.506-2.547,6.756-3.825c0.478-0.271,0.888-0.543,1.499-0.186c4.165,2.436,8.351,4.834,12.791,7.396
		c-2.986,1.724-5.737,3.366-8.547,4.899c-0.746,0.407-1.264-0.634-1.997-0.71c-0.998-0.582-1.996-1.164-2.993-1.746
		c-0.283-0.166-0.566-0.333-0.849-0.499c-0.975-0.641-1.946-1.287-3.044-1.708c-0.224-0.317-0.55-0.467-0.914-0.555
		C67.812,58.373,66.937,57.824,65.96,57.453z"/>
</g>
</svg>
