<?xml version="1.0" encoding="utf-8"?>
<!-- Generator: Adobe Illustrator 16.0.0, SVG Export Plug-In . SVG Version: 6.00 Build 0)  -->
<!DOCTYPE svg PUBLIC "-//W3C//DTD SVG 1.1//EN" "http://www.w3.org/Graphics/SVG/1.1/DTD/svg11.dtd">
<svg version="1.1" id="Layer_1" xmlns="http://www.w3.org/2000/svg" xmlns:xlink="http://www.w3.org/1999/xlink" x="0px" y="0px"
	 width="250px" height="250px" viewBox="0 0 250 250" enable-background="new 0 0 250 250" xml:space="preserve">
<g>
	<g>
		<path fill="#F38440" d="M3.912,249.426c-2.792-1.693-3.461-4.201-3.458-7.376c0.069-67.832,0.052-135.664,0.053-203.495
			c0-5.536,1.503-7.053,7.076-7.059c9.401-0.012,18.801-0.019,28.202,0.02c2.885,0.011,4.835,1.688,5.305,4.355
			c0.402,2.285-0.815,4.639-3.044,5.491c-0.947,0.362-2.048,0.436-3.081,0.441c-7.05,0.036-14.101,0.018-21.151,0.017
			c-0.872,0-1.743,0-2.839,0c-0.052,1.105-0.129,1.968-0.129,2.831c-0.005,63.86,0.008,127.721-0.057,191.582
			c-0.002,2.408,0.746,2.9,3.023,2.896c34.847-0.069,69.695,0.013,104.542-0.106c5.154-0.02,7.191,3.705,6.104,6.516
			c-0.58,1.501-2.182,2.605-3.323,3.89C82.06,249.426,42.986,249.426,3.912,249.426z"/>
		<path fill="#F38440" d="M72.346,21.34C73.25,9.343,82.617,0.479,93.27,0.575c11.728,0.105,20.259,10.087,20.759,20.763
			c1.554,0,3.135-0.016,4.716,0.002c8.33,0.097,15.978,7.543,15.989,15.559c0.016,8.044-7.607,15.539-15.939,15.557
			c-17.023,0.035-34.047,0.038-51.071-0.004c-7.976-0.019-15.619-6.851-16.087-14.724c-0.438-7.37,6.351-15.945,15.454-16.377
			C68.782,21.271,70.478,21.34,72.346,21.34z M93.119,42.147c8.505,0,17.011,0.01,25.516-0.006c2.266-0.004,4.461-0.28,5.367-2.831
			c1.553-4.375-0.545-7.471-5.154-7.572c-3.319-0.072-6.644,0.054-9.962-0.054c-3.322-0.107-5.177-2.084-5.265-5.419
			c-0.052-2.023,0.077-4.058-0.074-6.072c-0.405-5.398-4.055-8.947-9.224-9.104c-6.747-0.204-10.447,2.479-11.279,8.374
			c-0.28,1.99-0.185,4.036-0.218,6.057c-0.072,4.378-1.827,6.146-6.226,6.207c-3.482,0.049-6.972-0.052-10.441,0.169
			c-2.736,0.174-3.801,1.556-3.872,4.301c-0.12,4.605,1.133,5.928,5.802,5.943C76.432,42.169,84.775,42.148,93.119,42.147z"/>
		<path fill="#F38440" d="M176.941,41.819c-8.957,0-17.452,0.021-25.948-0.011c-3.009-0.011-5.052-1.588-5.517-4.097
			c-0.609-3.297,1.664-6.169,5.119-6.188c10.445-0.059,20.895-0.049,31.338-0.006c3.404,0.014,5.349,2.185,5.353,5.838
			c0.017,13.199,0.006,26.399,0.004,39.598c0,7.046,0.011,14.091-0.013,21.135c-0.01,3.684-2.06,5.97-5.25,5.937
			c-3.116-0.033-5.069-2.198-5.075-5.828c-0.022-17.33-0.011-34.659-0.011-51.989C176.941,44.854,176.941,43.5,176.941,41.819z"/>
		<path fill="#F38440" d="M30.995,202.957c0.001-3.316-0.049-6.637,0.014-9.952c0.068-3.603,1.951-5.573,5.569-5.621
			c6.634-0.085,13.27-0.073,19.904-0.003c3.606,0.037,5.799,2.428,5.782,6.083c-0.028,6.228-0.068,12.457-0.128,18.685
			c-0.043,4.51-1.85,6.326-6.366,6.349c-6.312,0.032-12.623,0.035-18.935-0.008c-3.919-0.026-5.777-1.929-5.841-5.821
			c-0.001-0.081,0-0.162,0-0.241C30.994,209.27,30.994,206.113,30.995,202.957z M51.511,208.027c0-3.5,0-6.77,0-10.065
			c-3.441,0-6.711,0-10.002,0c0,3.438,0,6.709,0,10.065C44.878,208.027,48.093,208.027,51.511,208.027z"/>
		<path fill="#F38440" d="M119.655,93.861c9.96-0.003,19.918-0.013,29.878,0.001c3.723,0.006,6.083,2,6.136,5.116
			c0.054,3.225-2.313,5.324-6.164,5.335c-9.879,0.029-19.758,0.01-29.636,0.01c-10.041-0.001-20.081,0.014-30.121-0.014
			c-3.661-0.01-5.828-1.644-6.174-4.509c-0.423-3.507,1.946-5.915,5.96-5.926C99.575,93.845,109.615,93.864,119.655,93.861z"/>
		<path fill="#F38440" d="M45.309,100.899c5.841-7.311,11.447-14.333,17.059-21.351c0.759-0.948,1.475-1.947,2.34-2.789
			c1.88-1.827,4.634-1.953,6.66-0.41c2.121,1.615,2.971,4.615,1.333,6.705c-7.839,10.007-15.778,19.938-23.841,29.767
			c-1.753,2.137-5.011,1.949-6.955-0.129c-3.208-3.429-6.308-6.965-9.309-10.576c-1.782-2.145-1.388-5.249,0.605-7.022
			c2.114-1.878,5.123-1.798,7.213,0.336C42.045,97.094,43.531,98.901,45.309,100.899z"/>
		<path fill="#F38440" d="M45.296,152.792c4.86-6.077,9.552-11.944,14.243-17.813c1.467-1.834,2.911-3.688,4.405-5.498
			c2.097-2.545,5.157-3,7.498-1.157c2.407,1.894,2.742,4.88,0.649,7.524c-7.439,9.397-14.908,18.773-22.43,28.105
			c-2.307,2.861-5.707,2.927-8.198,0.21c-2.955-3.224-5.836-6.519-8.652-9.864c-1.975-2.349-1.69-5.552,0.483-7.394
			c2.177-1.847,5.284-1.584,7.39,0.684C42.172,149.189,43.586,150.855,45.296,152.792z"/>
		<path fill="#F38440" d="M93.46,156.107c-1.861,0.002-3.726,0.086-5.58-0.019c-2.813-0.157-4.794-2.332-4.792-5.101
			c0.002-2.766,1.965-5.037,4.762-5.139c3.798-0.135,7.605-0.119,11.404-0.016c2.824,0.078,4.867,2.277,4.912,4.997
			c0.05,2.901-1.93,5.097-4.883,5.255C97.348,156.191,95.402,156.107,93.46,156.107z"/>
		<path fill="#F38440" d="M93.642,197.746c1.779,0.001,3.564-0.094,5.336,0.021c2.77,0.178,4.652,2.181,4.749,4.868
			c0.099,2.757-1.78,5.2-4.539,5.345c-3.71,0.192-7.446,0.195-11.155-0.008c-2.772-0.152-4.628-2.601-4.511-5.367
			c0.114-2.685,2.006-4.67,4.784-4.842C90.078,197.654,91.862,197.744,93.642,197.746z"/>
	</g>
	<g>
		<path fill="#F38440" d="M172.986,131.4c-26.078,4.66-45.277,30.457-41.854,56.772c2.75,21.123,18.695,38.876,39.36,43.767
			c2.444,0.58,4.938,0.963,7.407,1.437c2.719,0,5.437,0,8.154,0c4.31-0.994,8.819-1.47,12.891-3.067
			c19.531-7.666,31.093-21.896,34.214-42.778c0.079-0.536,0.224-1.063,0.338-1.597c0-2.717,0-5.435,0-8.152
			c-0.149-0.838-0.329-1.672-0.448-2.516C229.135,147.418,202.225,126.173,172.986,131.4z M201.868,187.174
			c-6.316,0.006-12.632,0.016-18.946-0.004c-4.052-0.013-5.962-1.895-5.97-5.945c-0.021-13.359-0.021-16.316,0-29.677
			c0.006-3.519,2.058-5.841,5.075-5.883c3.123-0.045,5.246,2.335,5.252,5.981c0.019,10.931,0.011,11.457,0.013,22.389
			c0,0.805,0,1.607,0,2.789c5.067,0,9.831-0.008,14.592,0.003c3.726,0.01,6.097,1.955,6.171,5.036
			C208.134,185.041,205.666,187.169,201.868,187.174z"/>
		<path fill="#F38440" d="M248.958,173.164c-5.136-36.545-40.453-64.426-78.823-57.567c-34.226,6.118-59.42,39.973-54.926,74.506
			c3.608,27.724,24.534,51.021,51.652,57.438c3.211,0.76,6.479,1.263,9.724,1.883c3.567,0,7.133,0,10.702,0
			c5.654-1.304,11.574-1.928,16.918-4.024c25.631-10.061,40.801-28.733,44.896-56.144c0.104-0.702,0.293-1.394,0.444-2.091
			c0-3.566,0-7.134,0-10.702C249.348,175.365,249.114,174.271,248.958,173.164z M240.791,186.495
			c-0.13,0.604-0.295,1.208-0.387,1.819c-3.564,23.851-16.766,40.101-39.067,48.854c-4.649,1.824-9.803,2.368-14.723,3.503
			c-3.104,0-6.207,0-9.312,0c-2.821-0.541-5.665-0.979-8.459-1.64c-23.6-5.585-41.808-25.858-44.948-49.979
			c-3.911-30.053,18.014-59.513,47.794-64.836c33.389-5.969,64.121,18.292,68.591,50.094c0.137,0.963,0.338,1.916,0.511,2.873
			C240.791,180.287,240.791,183.391,240.791,186.495z"/>
	</g>
</g>
</svg>
