<?xml version="1.0" encoding="utf-8"?>
<!-- Generator: Adobe Illustrator 17.0.0, SVG Export Plug-In . SVG Version: 6.00 Build 0)  -->
<!DOCTYPE svg PUBLIC "-//W3C//DTD SVG 1.1//EN" "http://www.w3.org/Graphics/SVG/1.1/DTD/svg11.dtd">
<svg version="1.1" id="Layer_1" xmlns="http://www.w3.org/2000/svg" xmlns:xlink="http://www.w3.org/1999/xlink" x="0px" y="0px"
	 width="43px" height="48px" viewBox="0 0 43 48" enable-background="new 0 0 43 48" xml:space="preserve">
<g>
	<path fill="#FE3401" d="M36.67,43.187c-0.305-0.193-0.63-0.344-0.974-0.454c-0.116-0.096-0.248-0.159-0.397-0.185
		c-0.323-0.205-0.67-0.361-1.033-0.478c-0.096-0.049-0.192-0.099-0.288-0.148c-0.297-0.165-0.597-0.325-0.925-0.422
		c-0.063-0.068-0.141-0.094-0.233-0.08c-0.327-0.253-0.705-0.401-1.091-0.533c-0.067-0.087-0.166-0.111-0.266-0.131
		c-0.293-0.2-0.629-0.306-0.952-0.439c-0.293-0.272-0.472-0.202-0.568,0.177c-0.041,0.162-0.11,0.318-0.167,0.476
		c-0.371,0.761-0.69,1.543-0.986,2.335c-0.152,0.268-0.276,0.548-0.341,0.851c-0.397,0.79-0.723,1.61-1.031,2.437
		c-0.14,0.231-0.245,0.476-0.305,0.74c-0.125,0.266-0.33,0.468-0.539,0.666c-0.312,0-0.625,0-0.937,0
		c-0.448-0.36-0.504-0.904-0.662-1.401c-0.051-0.161-0.115-0.319-0.173-0.478c-0.002-0.102,0.002-0.206-0.088-0.28
		c-0.048-0.389-0.187-0.753-0.311-1.12c-0.04-0.13-0.08-0.26-0.119-0.39c-0.104-0.343-0.207-0.685-0.311-1.028
		c-0.011-0.131-0.028-0.26-0.119-0.366c-0.036-0.36-0.17-0.693-0.289-1.03c-0.013-0.171-0.066-0.33-0.152-0.478
		c-0.056-0.385-0.187-0.749-0.32-1.113c-0.031-0.095-0.062-0.191-0.093-0.286c-0.073-0.398-0.181-0.786-0.345-1.157
		c-0.012-0.122-0.005-0.249-0.105-0.344c-0.063-0.411-0.187-0.804-0.348-1.186c-0.018-0.073-0.036-0.146-0.054-0.22
		c-0.083-0.386-0.186-0.765-0.345-1.128c-0.003-0.102,0.002-0.206-0.088-0.28c-0.042-0.391-0.19-0.752-0.312-1.12
		c-0.04-0.13-0.08-0.26-0.119-0.39c-0.075-0.351-0.164-0.698-0.311-1.027c-0.018-0.129-0.013-0.265-0.118-0.365
		c-0.071-0.278-0.142-0.556-0.213-0.834c0.547-0.037,1.077-0.13,1.526-0.479c0.383-0.148,0.676-0.417,0.942-0.717
		c0.104-0.117,0.181-0.255,0.37-0.218c0.3,0.245,0.644,0.37,1.032,0.377c0.132,0.15,0.31,0.069,0.468,0.093
		c0.478,0.088,0.936,0.007,1.379-0.177c1.015-0.421,1.732-1.148,2.122-2.167c0.12-0.312,0.282-0.395,0.586-0.381
		c0.449,0.022,0.908,0.048,1.334-0.136c0.354-0.153,0.693-0.341,1.039-0.514c0.063,0.094,0.126,0.188,0.189,0.282
		c0.102,0.339,0.27,0.647,0.452,0.948c0.065,0.131,0.13,0.262,0.195,0.394c0.121,0.333,0.258,0.658,0.464,0.95
		c0.013,0.091,0.03,0.18,0.115,0.237c0.105,0.338,0.264,0.649,0.455,0.945c0.029,0.147,0.089,0.278,0.189,0.39
		c0.089,0.293,0.234,0.56,0.393,0.82c0.048,0.097,0.095,0.194,0.143,0.29c0.132,0.359,0.289,0.707,0.502,1.026
		c0.025,0.146,0.086,0.275,0.187,0.385c0.087,0.297,0.237,0.565,0.393,0.829c0.05,0.096,0.101,0.192,0.151,0.289
		c0.128,0.359,0.287,0.704,0.494,1.026c0.023,0.145,0.085,0.272,0.185,0.381c0.132,0.278,0.263,0.557,0.395,0.835
		c0.052,0.096,0.104,0.191,0.156,0.287c0.128,0.396,0.326,0.76,0.536,1.117c0.032,0.068,0.063,0.136,0.095,0.205
		c0.146,0.307,0.292,0.615,0.438,0.922c0.053,0.095,0.107,0.19,0.16,0.285c0.123,0.396,0.32,0.756,0.53,1.109
		c0.035,0.07,0.069,0.14,0.103,0.211c0.145,0.358,0.313,0.711,0.214,1.116c-0.167,0.251-0.356,0.478-0.643,0.6
		c-0.396,0.131-0.687-0.177-1.035-0.246C36.817,43.257,36.743,43.222,36.67,43.187z"/>
	<path fill="#FE3401" d="M6.131,39.857c-0.235-0.323-0.254-0.677-0.144-1.047c0.175-0.297,0.339-0.599,0.438-0.931
		c0.506-0.88,0.916-1.807,1.345-2.725c0.174-0.297,0.338-0.598,0.437-0.931c0.507-0.88,0.916-1.808,1.346-2.726
		c0.173-0.297,0.337-0.598,0.437-0.929c0.422-0.725,0.772-1.485,1.109-2.251c0.2,0,0.402,0.018,0.599-0.004
		c0.381-0.043,0.589,0.062,0.663,0.487c0.046,0.266,0.166,0.562,0.43,0.737c0.002,0.134,0.067,0.225,0.187,0.281
		c0.22,0.253,0.399,0.554,0.752,0.655c0.065,0.108,0.174,0.091,0.276,0.096c0.301,0.34,0.725,0.377,1.13,0.462
		c0.156,0.002,0.313,0.004,0.469,0.006c0.686,0.08,1.288-0.166,1.874-0.477c0.063,0.033,0.126,0.067,0.19,0.1
		c0.249,0.286,0.45,0.625,0.843,0.749c0.039,0.076,0.108,0.093,0.185,0.096c0.327,0.269,0.706,0.387,1.126,0.378
		c0.07,0.071,0.14,0.142,0.21,0.213c-0.152,0.556-0.304,1.113-0.455,1.669c-0.089,0.241-0.188,0.479-0.206,0.74
		c-0.231,0.645-0.43,1.299-0.579,1.967c-0.104,0.207-0.174,0.423-0.184,0.657c-0.25,0.641-0.435,1.302-0.591,1.971
		c-0.102,0.203-0.167,0.417-0.182,0.645c-0.258,0.637-0.413,1.305-0.599,1.964c-0.07,0.255-0.14,0.509-0.211,0.764
		c-0.046,0.131-0.096,0.26-0.137,0.392c-0.222,0.713-0.443,0.888-1.187,0.934c-0.066-0.019-0.131-0.037-0.197-0.056
		c-0.346-0.166-0.465-0.507-0.631-0.812c-0.012-0.102-0.025-0.203-0.115-0.272c-0.131-0.343-0.262-0.686-0.393-1.029
		c-0.045-0.097-0.09-0.194-0.134-0.29c-0.119-0.405-0.269-0.797-0.474-1.167c-0.032-0.08-0.063-0.16-0.095-0.24
		c-0.08-0.331-0.213-0.641-0.373-0.941c-0.034-0.174-0.091-0.338-0.2-0.48c-0.089-0.245-0.183-0.488-0.266-0.735
		c-0.087-0.262-0.228-0.252-0.408-0.095c-0.301,0.082-0.575,0.225-0.84,0.386c-0.924,0.399-1.839,0.817-2.724,1.298
		c-0.298,0.089-0.579,0.214-0.838,0.386c-0.508,0.164-0.965,0.554-1.556,0.355C6.349,40.022,6.24,39.94,6.131,39.857z"/>
	<path fill="#EB7B72" d="M14.856,1.044c-0.001,0.118-0.067,0.2-0.146,0.279c-0.733,0.732-1.465,1.464-2.196,2.196
		c-0.079,0.079-0.162,0.143-0.28,0.144C12.634,2.315,13.468,1.402,14.856,1.044z"/>
	<path fill="#F3F2F2" d="M26.022,7.404c-0.876,0.764-1.656,1.626-2.48,2.442c-0.039,0.038-0.041,0.113-0.061,0.171
		c-0.098-0.074-0.196-0.148-0.294-0.222c0.634-0.806,1.429-1.457,2.125-2.204c0.123-0.132,0.305-0.225,0.32-0.438
		C25.762,7.236,25.892,7.32,26.022,7.404z"/>
	<path fill="#FF6243" d="M36.393,15.847c0.009-0.094,0.017-0.187,0.026-0.281c-0.027-0.032-0.054-0.063-0.081-0.095
		c-0.031,0.001-0.061,0.005-0.088,0.011c0.028-0.006,0.057-0.01,0.088-0.011c-0.001-0.094-0.003-0.187-0.004-0.281
		c-0.092-0.265-0.159-0.543-0.356-0.759c0,0,0,0,0,0c-0.012-0.09-0.025-0.179-0.037-0.269c-0.038-0.031-0.076-0.063-0.114-0.094
		c-0.026-0.061-0.052-0.122-0.078-0.183c-0.183-0.195-0.366-0.389-0.549-0.584c-0.024,0.003-0.048,0.005-0.073,0.004
		c-0.117,0.088-0.228,0.181-0.336,0.278c0.108-0.097,0.219-0.191,0.336-0.278c-0.062-0.058-0.123-0.116-0.185-0.174
		c0.11-0.218,0.219-0.437,0.329-0.655c0.093-0.434,0.274-0.855,0.196-1.315h0c0.01-0.093,0.019-0.186,0.029-0.279
		c-0.014-0.032-0.028-0.063-0.042-0.095c-0.017-0.126-0.034-0.251-0.051-0.377c-0.103-0.261-0.162-0.542-0.346-0.767
		c-0.021,0.007-0.041,0.016-0.06,0.026c0.019-0.01,0.039-0.019,0.06-0.026c-0.013-0.057-0.027-0.113-0.04-0.17
		c-0.039-0.031-0.077-0.061-0.116-0.092c-0.027-0.062-0.054-0.124-0.08-0.187c-0.193-0.208-0.385-0.416-0.578-0.624
		c-0.027-0.006-0.054-0.009-0.082-0.009c-1.251,1.26-2.501,2.519-3.751,3.779c1.25-1.26,2.501-2.52,3.751-3.78
		c-0.056-0.041-0.112-0.082-0.167-0.124c-0.007-0.026-0.013-0.052-0.018-0.079c-0.285-0.147-0.571-0.294-0.856-0.441
		c-0.16-0.06-0.406-0.026-0.351-0.321c-0.046-0.373,0.078-0.762-0.097-1.124c0.001-0.093,0.001-0.186,0.002-0.279
		c-0.032-0.032-0.063-0.064-0.094-0.096c-0.015-0.087-0.029-0.175-0.044-0.262c-0.146-0.252-0.291-0.503-0.437-0.755
		c-0.027-0.008-0.054-0.016-0.081-0.023c-0.261,0.291-0.529,0.576-0.8,0.856c0.272-0.28,0.539-0.565,0.8-0.856
		c-0.057-0.062-0.115-0.125-0.172-0.187c-0.006-0.028-0.012-0.057-0.016-0.085c-0.221-0.184-0.442-0.369-0.664-0.553
		c-0.062-0.024-0.123-0.048-0.185-0.072c-0.032-0.035-0.065-0.071-0.097-0.106C30.82,4.046,30.76,4.039,30.7,4.032
		c-0.27-0.237-0.64-0.213-0.945-0.361c-0.124-0.01-0.248-0.019-0.371-0.029c-0.876,0.02-0.726,0.189-0.948-0.632
		c-0.036-0.077-0.073-0.154-0.109-0.231c-0.215-0.266-0.365-0.585-0.648-0.796l0,0c-0.003-0.029-0.007-0.058-0.014-0.087
		c-0.074-0.04-0.147-0.08-0.221-0.12c0,0,0,0,0,0c-0.009-0.028-0.017-0.057-0.024-0.085c-0.308-0.167-0.579-0.407-0.939-0.47
		c-0.102-0.11-0.238-0.099-0.369-0.106c-0.463-0.151-0.93-0.236-1.412-0.092c0,0.036-0.006,0.068-0.014,0.099
		C24.694,1.092,24.7,1.06,24.7,1.023c-0.198-0.008-0.389,0.013-0.563,0.118c-0.129,0.041-0.281,0.052-0.384,0.129
		c-0.314,0.236-0.551,0.149-0.762-0.135c-0.069-0.153-0.188-0.252-0.341-0.316c-1.314-1.176-3.498-1.082-4.758,0.244
		c-0.292,0.307-0.521,0.435-0.88,0.177C17.01,1.287,17,1.326,16.984,1.361C17,1.326,17.01,1.287,17.011,1.242
		c-0.11-0.08-0.232-0.127-0.37-0.123c-0.388-0.199-0.803-0.202-1.223-0.17c0,0.019-0.002,0.036-0.005,0.053
		c0.003-0.017,0.005-0.035,0.005-0.053c-0.196-0.02-0.387-0.006-0.562,0.095c-0.001,0.118-0.067,0.2-0.146,0.279
		c-0.733,0.732-1.465,1.464-2.196,2.196c-0.079,0.079-0.162,0.143-0.28,0.144c0,0-0.002,0.003-0.002,0.003
		c-0.407-0.002-0.813-0.005-1.22-0.007c-0.157,0.033-0.314,0.065-0.47,0.098C9.412,4.186,8.675,5.009,8.212,6.103
		C8.175,6.258,8.137,6.414,8.1,6.569C8.092,6.975,8.002,7.38,8.106,7.785C7.987,7.822,7.865,7.85,7.752,7.898
		C6.603,8.38,5.775,9.156,5.468,10.406c-0.05,0.156-0.099,0.312-0.149,0.468c0.017,0.033,0.033,0.067,0.05,0.1c0,0,0,0,0,0
		c-0.023,0.093-0.047,0.186-0.07,0.279c0.077,0.35,0.069,0.72,0.241,1.048c0.005,0.057,0.01,0.114,0.015,0.171
		c0.043,0.063,0.086,0.125,0.129,0.188c0.049-0.038,0.103-0.072,0.146-0.115c-0.044,0.044-0.097,0.077-0.146,0.115
		c-0.005,0.03-0.008,0.061-0.009,0.091c0.25,0.227,0.173,0.389-0.064,0.592c-0.542,0.463-0.918,1.042-1.057,1.756
		c-0.041,0.124-0.081,0.248-0.122,0.372c0.008,0.063,0.015,0.126,0.023,0.19c0.022,0,0.044-0.002,0.064-0.006
		C4.5,15.658,4.479,15.66,4.456,15.66c-0.018,0.096-0.037,0.192-0.055,0.287c0.068,0.34,0.004,0.7,0.163,1.025c0,0,0,0,0,0
		c0.002,0.06,0.004,0.119,0.006,0.179c0.043,0.069,0.085,0.139,0.128,0.208c0,0,0,0,0,0c0.01,0.058,0.021,0.117,0.031,0.175
		c0.157,0.25,0.315,0.5,0.472,0.75c0.028,0.007,0.056,0.014,0.083,0.02c0,0,0,0,0,0c0.057,0.061,0.113,0.121,0.17,0.182
		c0.006,0.028,0.012,0.057,0.016,0.085c0.353,0.179,0.479,0.409,0.203,0.764c-0.071,0.092-0.08,0.232-0.118,0.349c0,0,0,0,0,0
		C5.494,19.843,5.432,20,5.371,20.158c0.006,0.063,0.012,0.126,0.018,0.19c-0.029,0.093-0.059,0.186-0.088,0.278
		c0.042,0.348,0.016,0.707,0.181,1.034c0.009,0.091,0.018,0.183,0.027,0.274c0.03,0.033,0.059,0.067,0.089,0.1
		c0.018,0.063,0.036,0.127,0.054,0.19c0.16,0.252,0.32,0.504,0.481,0.757c0.027,0.006,0.055,0.013,0.082,0.019c0,0,0,0,0,0
		c0.044,0.052,0.088,0.103,0.132,0.155c-0.001,0.023-0.003,0.046-0.005,0.068c0.293,0.22,0.585,0.44,0.878,0.66
		c0.087,0.019,0.178,0.029,0.232,0.115c0.482,0.06,0.775,0.255,0.588,0.806c-0.024,0.071-0.015,0.153-0.022,0.23
		c0.061,0.119,0.088,0.244,0.069,0.377c0.104,0.342,0.207,0.684,0.311,1.025c0.059,0.095,0.118,0.19,0.177,0.285
		c0.189,0.215,0.378,0.43,0.568,0.645c0.061,0.034,0.122,0.068,0.183,0.101c0.014-0.036,0.022-0.076,0.034-0.114
		c-0.011,0.038-0.02,0.078-0.034,0.114c0.037,0.031,0.074,0.062,0.111,0.093c0.001,0.022,0.001,0.044,0,0.066
		c0.279,0.158,0.558,0.316,0.837,0.474c0.088,0.014,0.176,0.029,0.265,0.043c0.033,0.03,0.067,0.061,0.1,0.091
		c0.091,0.003,0.181,0.006,0.272,0.009c0.063,0.025,0.126,0.049,0.189,0.074c0.2,0,0.402,0.018,0.599-0.004
		c0.381-0.043,0.589,0.062,0.663,0.487c0.046,0.266,0.166,0.562,0.43,0.737c0,0,0,0,0,0c0.002,0.134,0.067,0.225,0.187,0.28
		c0.22,0.253,0.398,0.554,0.752,0.655c0.065,0.108,0.174,0.091,0.276,0.096c0.301,0.34,0.724,0.377,1.129,0.462
		c0.156,0.002,0.313,0.004,0.469,0.006c0.686,0.081,1.288-0.166,1.874-0.477c0.063,0.033,0.126,0.067,0.19,0.1
		c0.249,0.286,0.45,0.625,0.843,0.749c0.039,0.076,0.108,0.093,0.185,0.096c0.327,0.269,0.706,0.387,1.126,0.378
		c0.07,0.071,0.14,0.142,0.21,0.213c0.086-0.042,0.173-0.085,0.259-0.127v0c0.116,0.004,0.232,0.008,0.349,0.013
		c0.547-0.037,1.077-0.13,1.526-0.479c0.001-0.099,0.041-0.173,0.095-0.237c-0.054,0.064-0.094,0.138-0.095,0.237
		c0.383-0.148,0.676-0.417,0.942-0.717c0.104-0.117,0.181-0.255,0.37-0.218c0.3,0.245,0.644,0.37,1.032,0.377
		c0.132,0.15,0.31,0.069,0.468,0.093c0.478,0.088,0.936,0.007,1.379-0.177c1.015-0.421,1.732-1.148,2.122-2.167
		c0.12-0.312,0.282-0.395,0.586-0.381c0.449,0.022,0.908,0.048,1.334-0.136c0.354-0.153,0.693-0.341,1.039-0.514
		c0.154-0.3,0.408-0.515,0.638-0.75c0.401-0.631,0.657-1.31,0.703-2.062c-0.113-0.443-0.006-0.741,0.499-0.821
		c0.179-0.028,0.345-0.132,0.518-0.201c0.524-0.351,0.943-0.804,1.276-1.337c0.1-0.245,0.201-0.49,0.301-0.736
		c0.072-0.404,0.161-0.806,0.091-1.221c0.006-0.094,0.013-0.187,0.019-0.281c-0.028-0.032-0.056-0.063-0.085-0.095
		c-0.03,0-0.057,0.003-0.083,0.009c0.026-0.006,0.054-0.009,0.083-0.009c0.001-0.064,0.003-0.128,0.004-0.192
		c-0.122-0.284-0.17-0.601-0.389-0.84c-0.026-0.133-0.055-0.254,0.077-0.368c0.204-0.176,0.387-0.376,0.579-0.567
		c0.005-0.061,0.01-0.123,0.015-0.184c0,0,0,0,0,0c0.318-0.196,0.367-0.565,0.55-0.849C36.315,16.725,36.47,16.3,36.393,15.847
		C36.393,15.847,36.393,15.847,36.393,15.847z M5.607,19.686c0.102-0.007,0.177-0.058,0.243-0.122
		C5.784,19.628,5.71,19.679,5.607,19.686z M21.878,5.396c-0.082,0.077-0.155,0.16-0.176,0.276
		C21.724,5.555,21.797,5.472,21.878,5.396z M21.964,5.317c-0.024,0.022-0.048,0.043-0.071,0.065
		C21.916,5.36,21.94,5.339,21.964,5.317z M14.493,27.812c0.572-0.58,1.144-1.161,1.714-1.742
		C15.636,26.651,15.065,27.232,14.493,27.812z M19.817,26.686c0.017-0.016,0.034-0.032,0.05-0.048
		C19.851,26.654,19.834,26.67,19.817,26.686z M17.676,26.961c0.053-0.051,0.106-0.102,0.159-0.154
		C17.783,26.858,17.73,26.91,17.676,26.961z M17.589,26.574c0.154-0.131,0.31-0.262,0.357-0.476
		C17.899,26.312,17.743,26.443,17.589,26.574z M21.879,26.25c0.108,0.075,0.078,0.15,0.017,0.222
		C21.957,26.4,21.987,26.325,21.879,26.25z M30.715,15.66c-0.009,0.064-0.019,0.127-0.028,0.191c0.001,0.405,0.002,0.81,0.003,1.215
		c-0.034,0.124-0.068,0.249-0.102,0.373c0.007,0.063,0.014,0.126,0.021,0.189c-0.034,0.094-0.069,0.188-0.103,0.283
		c-0.009,0.558-0.284,1.053-0.372,1.592c0.019,0,0.036-0.002,0.053-0.005c-0.017,0.003-0.035,0.004-0.053,0.005
		c-0.096,0.187-0.191,0.374-0.287,0.562c-0.009,0.06-0.019,0.119-0.028,0.179c0,0,0,0,0,0c-0.11,0.191-0.22,0.382-0.33,0.573
		c-0.034,0.063-0.069,0.125-0.103,0.188c-0.02,0.034-0.04,0.068-0.06,0.102c-0.921,1.655-2.207,2.942-3.874,3.846
		c-0.252,0.15-0.503,0.3-0.755,0.45c0.001,0.02,0,0.039-0.003,0.057c0.003-0.018,0.003-0.037,0.003-0.057
		c-0.062,0.002-0.125,0.003-0.187,0.005c-0.187,0.099-0.374,0.198-0.561,0.297c0,0,0,0,0,0c-0.534,0.118-1.038,0.359-1.594,0.387
		c-0.145,0.1-0.309,0.069-0.469,0.068c-0.011,0.025-0.024,0.049-0.037,0.072c0,0,0,0,0,0c-0.112,0.012-0.225,0.023-0.337,0.035
		c0,0,0,0,0,0c-0.409,0.001-0.817,0.002-1.226,0.004c-0.091,0.019-0.182,0.038-0.273,0.057c0,0,0,0,0,0
		c-0.032-0.024-0.064-0.048-0.096-0.073c-0.124,0.008-0.249,0.017-0.373,0.025c0.004,0.03,0.004,0.059,0.002,0.085
		c0.002-0.027,0.002-0.055-0.002-0.085c-0.312-0.048-0.624-0.095-0.936-0.143c-0.062,0.002-0.124,0.004-0.185,0.006
		c-0.175,0.24-0.376,0.455-0.585,0.662c0.21-0.207,0.411-0.422,0.586-0.662c-0.065-0.031-0.129-0.062-0.194-0.094
		c-0.091-0.004-0.182-0.008-0.273-0.011c0,0,0,0,0,0c-0.252-0.088-0.504-0.176-0.756-0.264c-0.094-0.021-0.188-0.042-0.283-0.063
		c0,0,0,0,0,0c-0.034-0.028-0.067-0.056-0.101-0.085c-0.09-0.013-0.181-0.026-0.271-0.039c0,0,0,0,0,0
		c-0.25-0.129-0.5-0.258-0.75-0.388c-0.152-0.052-0.296-0.118-0.406-0.241c-0.296-0.122-0.567-0.287-0.81-0.496
		c-0.031,0-0.062-0.002-0.093-0.008c-0.677,0.776-1.426,1.482-2.156,2.207c0.729-0.725,1.478-1.431,2.156-2.207
		c-0.035-0.051-0.071-0.102-0.106-0.152c-0.056-0.019-0.113-0.038-0.169-0.057c-0.042,0.128-0.134,0.217-0.227,0.304
		c0.093-0.087,0.185-0.176,0.227-0.304c-0.202-0.228-0.505-0.346-0.67-0.614c-0.03-0.004-0.059-0.008-0.089-0.013
		c-0.064-0.059-0.128-0.118-0.192-0.177c-0.005-0.028-0.011-0.055-0.018-0.083c-0.247-0.191-0.455-0.419-0.634-0.674
		c-0.146-0.082-0.221-0.223-0.294-0.364c-0.231-0.254-0.46-0.51-0.58-0.841c-0.03-0.05-0.059-0.1-0.089-0.15
		c-0.235-0.297-0.44-0.611-0.541-0.981c-0.105-0.104-0.16-0.232-0.178-0.377c-0.122-0.284-0.244-0.567-0.366-0.851
		c-0.199,0.164-0.389,0.336-0.575,0.514c0.186-0.177,0.376-0.35,0.575-0.514c0-0.059,0-0.119,0.001-0.178
		c-0.027-0.035-0.055-0.071-0.082-0.106c-0.054,0.001-0.101,0.012-0.143,0.03c0.043-0.018,0.09-0.029,0.143-0.03
		c-0.003-0.061-0.006-0.122-0.009-0.183c-0.122-0.393-0.224-0.79-0.222-1.206c-0.025-0.004-0.049-0.012-0.071-0.023c0,0,0,0,0,0
		c-0.005-0.057-0.01-0.114-0.014-0.171c-0.081,0.003-0.145,0.03-0.201,0.069c-0.037,0.026-0.071,0.057-0.102,0.091
		c0.032-0.033,0.065-0.065,0.102-0.091c0.056-0.039,0.12-0.066,0.201-0.069c0.007-0.064,0.014-0.128,0.021-0.192
		c-0.035-0.374-0.069-0.747-0.103-1.121c0,0,0,0,0,0c0.027-0.125,0.053-0.25,0.08-0.375c-0.013-0.031-0.026-0.062-0.04-0.093
		c-0.027-0.003-0.052-0.003-0.076-0.001c0.024-0.002,0.049-0.002,0.076,0.001c0.018-0.094,0.035-0.189,0.053-0.283
		c-0.039-0.479,0.114-0.937,0.163-1.406c0.043-0.124,0.087-0.248,0.13-0.372c-0.002-0.063-0.004-0.127-0.006-0.19
		c0.077-0.189,0.153-0.379,0.23-0.568c0.175-0.663,0.506-1.257,0.815-1.861c0.404-0.563,0.807-1.127,1.211-1.69c0,0,0,0,0,0
		c0.416-0.327,0.774-0.712,1.115-1.114c0,0,0,0,0,0c0.536-0.204,0.919-0.644,1.413-0.914c0.611-0.289,1.19-0.652,1.861-0.799
		c0.157-0.064,0.314-0.129,0.47-0.193c0,0,0,0,0,0c0.062,0.002,0.124,0.003,0.186,0.005c0.156-0.06,0.313-0.121,0.469-0.181v0
		c0.437-0.052,0.873-0.104,1.31-0.157c0.126-0.015,0.252-0.03,0.378-0.046c0,0,0,0,0,0c0.032,0.011,0.063,0.022,0.095,0.033
		c0.093-0.015,0.186-0.03,0.279-0.045c0,0,0,0,0,0c0.374,0.023,0.747,0.047,1.121,0.07c0.094-0.003,0.189-0.005,0.283-0.008
		c0,0,0,0,0,0c0.056,0.025,0.112,0.05,0.169,0.075c0.038-0.009,0.077-0.017,0.115-0.026c0,0,0,0,0,0
		c0.312,0.073,0.624,0.146,0.936,0.219c0.094,0.017,0.189,0.034,0.283,0.052c0,0,0,0,0,0c0.064,0.034,0.128,0.068,0.192,0.102
		c0.061,0,0.121,0,0.182,0.001l0,0c0.285,0.123,0.571,0.247,0.856,0.37c0.09,0.041,0.18,0.082,0.27,0.123
		c0.351,0.083,0.639,0.289,0.933,0.483c0.13,0.084,0.259,0.167,0.389,0.251c0.292,0.125,0.526,0.33,0.754,0.543
		c0.026,0.006,0.053,0.007,0.08,0.004c0,0,0,0,0,0c0.092,0.073,0.184,0.146,0.277,0.218c0,0,0,0,0,0
		c0.004,0.027,0.008,0.054,0.013,0.081c0.248,0.19,0.488,0.389,0.669,0.649c0.025,0,0.049,0.001,0.074,0.002c0,0,0,0,0,0
		c0.032,0.034,0.064,0.068,0.095,0.102c0.035,0.061,0.069,0.122,0.104,0.183c0.236,0.179,0.403,0.414,0.545,0.669
		c0.028,0.007,0.055,0.015,0.082,0.024c0.324-0.412,0.697-0.778,1.072-1.141c-0.375,0.363-0.748,0.729-1.072,1.141
		c0.037,0.052,0.074,0.104,0.111,0.156c0.027-0.001,0.053-0.004,0.076-0.009c-0.024,0.006-0.049,0.009-0.076,0.009
		c0.028,0.063,0.057,0.127,0.085,0.19c0.203,0.255,0.379,0.527,0.499,0.832c0.092,0.076,0.154,0.168,0.163,0.29
		c0.148,0.285,0.296,0.57,0.443,0.855c0.52-0.417,0.974-0.902,1.437-1.378c-0.463,0.476-0.917,0.961-1.437,1.378
		c0.004,0.058,0.007,0.116,0.011,0.175c0.032,0.033,0.064,0.066,0.095,0.1c0.04-0.001,0.077-0.01,0.111-0.022
		c-0.035,0.012-0.071,0.021-0.111,0.022c0.012,0.089,0.024,0.177,0.036,0.266c0.151,0.329,0.249,0.672,0.277,1.033
		c0.024,0.003,0.048,0.009,0.07,0.019c0,0,0,0,0,0c0.007,0.059,0.014,0.118,0.021,0.176c0.04-0.003,0.076-0.011,0.109-0.024
		c-0.033,0.013-0.069,0.021-0.109,0.024c-0.004,0.062-0.008,0.124-0.012,0.186c0.154,0.328,0.065,0.701,0.192,1.033
		c0.076-0.004,0.137-0.028,0.19-0.063c-0.053,0.035-0.115,0.06-0.19,0.063c-0.009,0.093-0.018,0.186-0.027,0.279
		C30.691,15.534,30.703,15.597,30.715,15.66c0.1-0.007,0.175-0.05,0.239-0.107C30.89,15.61,30.815,15.653,30.715,15.66z
		 M19.87,26.636c0.065-0.065,0.119-0.137,0.137-0.232C19.989,26.499,19.934,26.571,19.87,26.636z M16.426,25.864
		c0.042-0.047,0.076-0.1,0.098-0.161C16.502,25.764,16.468,25.817,16.426,25.864z M10.062,17.687
		c0.024-0.027,0.046-0.056,0.064-0.087C10.108,17.63,10.086,17.659,10.062,17.687z M35.649,14.592
		c0.07-0.069,0.146-0.128,0.247-0.151C35.795,14.464,35.719,14.523,35.649,14.592z"/>
	<path fill="#4396CE" d="M17.311,20.634c0.022,0.36-0.155,0.489-0.504,0.471c-0.305-0.016-0.612,0.008-0.918,0.015
		c-0.157-0.002-0.314-0.003-0.472-0.005c-0.468-0.006-0.937-0.011-1.405-0.017c-0.031-0.031-0.063-0.063-0.094-0.094
		c-0.006-0.468-0.011-0.937-0.017-1.405c-0.002-0.157-0.004-0.314-0.005-0.472c0.002-0.468,0.003-0.935,0.005-1.403
		c-0.002-0.157-0.003-0.314-0.005-0.472c0.002-0.468,0.003-0.935,0.005-1.403c-0.002-0.157-0.003-0.314-0.005-0.472
		c0.007-0.234,0.018-0.467,0.019-0.701c0.004-0.683,0.002-0.681,0.663-0.685c0.249-0.001,0.498-0.016,0.747-0.024
		c0.156,0.002,0.313,0.004,0.469,0.007c0.436,0.007,0.871,0.014,1.307,0.021c0.065,0.063,0.13,0.127,0.196,0.19
		C17.3,16.335,17.306,18.484,17.311,20.634z"/>
	<path fill="#136097" d="M17.311,20.634c-0.005-2.149-0.011-4.299-0.016-6.448c0.031,0.002,0.061-0.004,0.09-0.016
		c0.346,0.039,0.758-0.045,0.856,0.458c-0.007,1.77-0.02,3.54-0.016,5.31c0.001,0.355-0.085,0.611-0.464,0.692
		C17.611,20.631,17.461,20.632,17.311,20.634z"/>
	<path fill="#FFFFFF" d="M30.69,17.066c-0.001-0.405-0.002-0.81-0.003-1.215c0.009-0.064,0.019-0.127,0.028-0.191
		c-0.012-0.063-0.024-0.126-0.036-0.189c0.009-0.093,0.018-0.186,0.027-0.279c-0.127-0.333-0.038-0.706-0.192-1.033
		c0.004-0.062,0.008-0.124,0.012-0.186c-0.007-0.059-0.014-0.118-0.021-0.176c-0.023-0.01-0.046-0.016-0.07-0.019
		c-0.028-0.362-0.126-0.705-0.277-1.033c-0.012-0.089-0.024-0.177-0.036-0.266c-0.032-0.033-0.064-0.066-0.095-0.1
		c-0.004-0.058-0.007-0.116-0.011-0.175c-0.148-0.285-0.296-0.57-0.443-0.855c-0.009-0.122-0.071-0.215-0.163-0.29
		c-0.12-0.305-0.296-0.577-0.499-0.832c-0.028-0.063-0.057-0.127-0.085-0.19c-0.037-0.052-0.074-0.104-0.111-0.156
		c-0.027-0.009-0.055-0.017-0.082-0.024c-1.283,1.297-2.567,2.594-3.849,3.893c1.281-1.299,2.565-2.596,3.849-3.894
		c-0.143-0.255-0.31-0.49-0.545-0.669c-0.034-0.061-0.069-0.122-0.104-0.183c-0.032-0.034-0.064-0.068-0.095-0.102
		c-0.025-0.001-0.049-0.002-0.074-0.002c-0.181-0.259-0.421-0.459-0.669-0.649c-0.005-0.027-0.009-0.054-0.013-0.081
		c-0.092-0.073-0.184-0.146-0.277-0.218c-0.027,0.003-0.053,0.002-0.08-0.004c-0.228-0.213-0.462-0.419-0.754-0.543
		c-0.876,0.764-1.656,1.626-2.48,2.442c-0.039,0.038-0.041,0.113-0.061,0.171c0.234,0.191,0.477,0.375,0.59,0.672
		c0.685-0.677,1.387-1.337,2.053-2.033c-0.666,0.696-1.368,1.356-2.053,2.033c-0.007,0.029-0.012,0.058-0.014,0.088
		c0.04,0.068,0.08,0.137,0.119,0.205c0,0,0,0,0,0c-0.004,0.035-0.009,0.069-0.013,0.104c0.183,0.487-0.035,0.932-0.144,1.389
		c0.027,0.001,0.053-0.002,0.077-0.006c-0.024,0.004-0.05,0.007-0.077,0.006c-0.241,0.342-0.483,0.685-0.724,1.027
		c-0.007,0.061-0.014,0.122-0.022,0.183c0,0,0,0,0,0c-0.087,0.079-0.058,0.179-0.051,0.276c0.233,0.342,0.619,0.148,0.917,0.263
		c0.092-0.019,0.184-0.037,0.276-0.056c0.061-0.07,0.12-0.142,0.181-0.213c-0.06,0.071-0.12,0.143-0.181,0.213
		c0.096,0.024,0.191,0.048,0.287,0.073c0.062-0.023,0.123-0.046,0.185-0.069c0.025-0.039,0.044-0.083,0.071-0.121
		c-0.026,0.038-0.046,0.082-0.071,0.121c0.436,0.033,0.879-0.043,1.308,0.09c0.111-0.119,0.222-0.238,0.334-0.357
		c-0.112,0.119-0.223,0.238-0.334,0.357c0.005,0.027,0.011,0.053,0.017,0.079c0.076,0.008,0.137,0.039,0.168,0.114
		c0.029,0.001,0.058,0.005,0.086,0.012c0.738-0.818,1.513-1.599,2.307-2.362c-0.794,0.763-1.569,1.544-2.307,2.362
		c0.193,0.417,0.174,0.795-0.154,1.152c-0.228,0.248,0.036,0.206,0.164,0.234c0,0,0,0,0,0c0.006,0.027,0.013,0.053,0.019,0.08
		c0.075,0.008,0.136,0.035,0.168,0.109c0.03,0.001,0.059,0.006,0.088,0.013c0.755-0.851,1.572-1.641,2.384-2.436
		c-0.812,0.795-1.629,1.585-2.384,2.436c0.329,0.715,0.204,0.927-0.732,1.198c0.123,0.162,0.24,0.317,0.357,0.471c0,0,0,0,0,0
		c0.015,0.125,0.03,0.25,0.045,0.375c0.135-0.022,0.223-0.105,0.305-0.196c-0.082,0.09-0.171,0.173-0.305,0.196
		c-0.054,0.493-0.43,0.642-0.867,0.761c0.298,0.376,0.477,0.755,0.259,1.207c0.002,0,0.004-0.001,0.007-0.001
		c-0.002,0-0.004,0.001-0.007,0.001c-0.093,0.083-0.186,0.166-0.279,0.249c0.015,0.186-0.097,0.294-0.213,0.396
		c0.115-0.102,0.228-0.209,0.213-0.396c-0.484,0.2-0.997,0.057-1.493,0.125c-0.125-0.002-0.25-0.004-0.375-0.005
		c-0.406-0.016-0.812-0.033-1.218-0.049c-0.094,0.018-0.188,0.036-0.282,0.054c-0.062-0.016-0.124-0.032-0.186-0.048
		c-0.063,0.014-0.125,0.029-0.188,0.043c-0.053,0.061-0.105,0.124-0.157,0.186c0.052-0.062,0.104-0.125,0.157-0.186
		c-0.406-0.016-0.812-0.033-1.218-0.049c-0.094,0.018-0.188,0.036-0.282,0.054c-0.062-0.016-0.124-0.032-0.186-0.048
		c-0.063,0.014-0.125,0.029-0.188,0.043c-0.391,0.435-0.796,0.856-1.208,1.27c0.412-0.414,0.817-0.835,1.208-1.27
		c-0.406-0.016-0.812-0.033-1.218-0.049c-0.094,0.018-0.188,0.035-0.282,0.053c-0.106-0.071-0.102-0.175-0.082-0.282
		c-0.001-0.469-0.002-0.938-0.003-1.407c0.001-0.156,0.002-0.312,0.003-0.468c-0.001-0.469-0.002-0.938-0.003-1.407
		c0.001-0.156,0.002-0.312,0.003-0.468c-0.009-0.594-0.019-1.188-0.028-1.782c-0.022,0-0.045,0.001-0.067,0.001
		c-0.007,1.77-0.02,3.54-0.016,5.31c0.001,0.355-0.085,0.611-0.464,0.692c-0.15,0.001-0.301,0.003-0.451,0.004
		c0.022,0.36-0.155,0.489-0.504,0.471c-0.305-0.016-0.612,0.008-0.918,0.015c-0.157-0.002-0.314-0.003-0.472-0.005
		c-0.468-0.006-0.937-0.011-1.405-0.017c-0.031-0.031-0.063-0.063-0.094-0.094c-0.006-0.468-0.011-0.937-0.017-1.405
		c-0.002-0.157-0.004-0.314-0.005-0.472c0.002-0.468,0.003-0.935,0.005-1.403c-0.002-0.157-0.003-0.314-0.005-0.472
		c0.002-0.468,0.003-0.935,0.005-1.403c-0.002-0.157-0.003-0.314-0.005-0.472c0.007-0.234,0.018-0.467,0.019-0.701
		c0.004-0.683,0.002-0.681,0.663-0.685c0.249-0.001,0.498-0.016,0.747-0.024c0.156,0.002,0.313,0.004,0.469,0.007
		c0.436,0.007,0.871,0.014,1.307,0.021c0.027-0.068,0.066-0.127,0.111-0.179c-0.045,0.053-0.084,0.111-0.111,0.179
		c0.065,0.063,0.13,0.127,0.196,0.19c0.031,0.002,0.061-0.004,0.09-0.016c0.055-0.063,0.108-0.128,0.162-0.192
		c-0.054,0.064-0.107,0.129-0.162,0.192c0.346,0.039,0.758-0.045,0.856,0.458c0.022-0.001,0.044-0.001,0.067-0.001
		c0.258-0.21,0.517-0.42,0.775-0.63c0,0,0,0,0,0c0.473-0.262,0.896-0.595,1.306-0.944c0.042-0.034,0.085-0.069,0.128-0.103
		c0.115-0.011,0.191-0.08,0.251-0.171c-0.01-0.279,0.229-0.391,0.385-0.55c0.357-0.364,0.733-0.711,1.101-1.065
		c0.062-0.189,0.124-0.378,0.186-0.567c0.188-0.324,0.18-0.831,0.748-0.801c0.634-0.806,1.429-1.457,2.125-2.204
		c0.123-0.132,0.305-0.225,0.32-0.438c-0.294-0.194-0.582-0.4-0.933-0.483c-0.09-0.041-0.18-0.082-0.271-0.123
		c-0.285-0.123-0.571-0.247-0.856-0.37c-0.061,0-0.121,0-0.182-0.001c0,0,0,0,0,0c-0.064-0.034-0.128-0.068-0.192-0.102
		c-0.094-0.017-0.189-0.034-0.283-0.052c-0.312-0.073-0.624-0.146-0.936-0.219c-0.038,0.009-0.077,0.017-0.115,0.026
		c-0.056-0.025-0.112-0.05-0.169-0.075c-0.094,0.003-0.189,0.005-0.283,0.008c-0.374-0.023-0.747-0.047-1.121-0.07
		c-0.093,0.015-0.186,0.03-0.279,0.045c-0.004,0.077-0.03,0.138-0.068,0.191c0.038-0.053,0.064-0.114,0.068-0.191
		c-0.032-0.011-0.063-0.022-0.095-0.033c-0.126,0.015-0.252,0.03-0.378,0.046c-0.437,0.052-0.873,0.104-1.31,0.157
		c-0.156,0.06-0.313,0.121-0.469,0.181c0,0.021-0.001,0.04-0.003,0.059c0.003-0.019,0.004-0.038,0.003-0.059
		c-0.062-0.002-0.124-0.003-0.186-0.005c-0.157,0.064-0.314,0.129-0.47,0.193c-0.671,0.148-1.25,0.51-1.861,0.799
		c-0.494,0.269-0.877,0.709-1.413,0.914c-0.34,0.402-0.698,0.787-1.115,1.114c-0.404,0.563-0.807,1.127-1.211,1.69
		c-0.309,0.604-0.639,1.199-0.815,1.861c-0.077,0.189-0.153,0.379-0.23,0.568c0.002,0.063,0.004,0.127,0.006,0.19c0,0,0,0,0,0
		c-0.043,0.124-0.087,0.248-0.13,0.372c-0.049,0.469-0.202,0.926-0.163,1.406c-0.018,0.094-0.035,0.189-0.053,0.283
		c0.013,0.031,0.026,0.062,0.04,0.093c-0.027,0.125-0.053,0.25-0.08,0.375c0.034,0.374,0.069,0.747,0.103,1.121
		c-0.007,0.064-0.014,0.128-0.021,0.192c0.005,0.057,0.01,0.114,0.014,0.171c0.023,0.011,0.047,0.018,0.071,0.023
		c-0.001,0.416,0.101,0.812,0.222,1.206c0.003,0.061,0.006,0.122,0.009,0.183c0.027,0.035,0.055,0.071,0.082,0.106
		c0,0.059,0,0.119,0,0.178c0.122,0.284,0.244,0.567,0.366,0.851c0,0,0,0,0,0c0.018,0.145,0.073,0.273,0.178,0.377
		c0.102,0.371,0.307,0.684,0.541,0.982c0,0,0,0,0,0c0.03,0.05,0.059,0.1,0.089,0.149c0.12,0.331,0.349,0.587,0.58,0.841
		c0.074,0.141,0.148,0.281,0.294,0.364c0.178,0.256,0.387,0.483,0.633,0.674c0.071-0.066,0.142-0.132,0.213-0.197
		c-0.071,0.066-0.142,0.131-0.213,0.197c0.007,0.027,0.013,0.055,0.018,0.083c0.064,0.059,0.128,0.118,0.192,0.177
		c0.03,0.005,0.059,0.01,0.089,0.013c0.165,0.268,0.468,0.386,0.67,0.614c0.056,0.019,0.113,0.038,0.169,0.057
		c0.035,0.051,0.071,0.102,0.106,0.152c0.031,0.006,0.062,0.009,0.093,0.008c0.243,0.21,0.513,0.374,0.81,0.496
		c0.11,0.123,0.254,0.19,0.406,0.242c0.25,0.129,0.5,0.258,0.75,0.387c0.09,0.013,0.181,0.026,0.271,0.039
		c0-0.029,0.003-0.057,0.009-0.083c-0.005,0.026-0.009,0.053-0.009,0.082c0.034,0.028,0.067,0.056,0.101,0.084
		c0.094,0.021,0.188,0.042,0.283,0.063c0.252,0.088,0.504,0.176,0.756,0.264c0.091,0.004,0.182,0.008,0.273,0.011
		c0.065,0.031,0.129,0.062,0.194,0.094c0.062-0.002,0.124-0.004,0.185-0.006c0.312,0.048,0.624,0.095,0.936,0.143
		c0.124-0.008,0.249-0.017,0.373-0.025c0.032,0.024,0.064,0.048,0.096,0.073c0.091-0.019,0.182-0.038,0.273-0.057
		c0.409-0.001,0.817-0.002,1.226-0.003c0.112-0.012,0.225-0.023,0.337-0.035c0.013-0.023,0.026-0.047,0.037-0.072
		c0.16,0,0.324,0.031,0.469-0.068c0.556-0.028,1.06-0.269,1.594-0.387c0.187-0.099,0.374-0.198,0.561-0.297
		c0.062-0.002,0.125-0.003,0.187-0.005c0.252-0.15,0.503-0.3,0.755-0.45c1.667-0.904,2.953-2.191,3.874-3.846
		c0.02-0.034,0.04-0.068,0.06-0.102c0.034-0.063,0.069-0.125,0.103-0.188c0.11-0.191,0.22-0.382,0.331-0.573
		c0.009-0.06,0.019-0.119,0.028-0.179c0.096-0.187,0.191-0.374,0.287-0.562c0.089-0.539,0.363-1.034,0.372-1.592
		c0.034-0.094,0.069-0.188,0.103-0.283c-0.007-0.063-0.014-0.126-0.021-0.189c0,0,0,0,0,0C30.622,17.315,30.656,17.19,30.69,17.066z
		"/>
	<path fill="#F2C19D" d="M26.752,16.055c-0.029-0.008-0.058-0.012-0.088-0.013c-0.032-0.074-0.093-0.102-0.168-0.109
		c-0.006-0.027-0.013-0.053-0.019-0.08c-0.128-0.028-0.393,0.015-0.164-0.234c0.328-0.357,0.347-0.736,0.154-1.152
		c-0.028-0.007-0.057-0.011-0.086-0.012c-0.031-0.075-0.091-0.106-0.168-0.114c-0.006-0.026-0.012-0.053-0.017-0.079
		c-0.429-0.133-0.872-0.057-1.308-0.09c-0.062,0.023-0.123,0.046-0.185,0.069c-0.028,0.032-0.055,0.065-0.082,0.098
		c0.027-0.033,0.054-0.066,0.082-0.098c-0.096-0.024-0.191-0.048-0.287-0.073c-0.092,0.019-0.184,0.037-0.276,0.056
		c-0.298-0.115-0.684,0.079-0.917-0.263c-0.007-0.096-0.036-0.197,0.051-0.276c0.007-0.061,0.014-0.122,0.022-0.183
		c0.241-0.342,0.483-0.685,0.724-1.027c0.109-0.457,0.327-0.902,0.144-1.389c0.004-0.034,0.008-0.069,0.013-0.104
		c-0.04-0.068-0.079-0.137-0.119-0.205c0.002-0.03,0.007-0.059,0.014-0.088c-0.113-0.298-0.356-0.481-0.59-0.672
		c-0.098-0.074-0.196-0.148-0.294-0.222c-0.568-0.03-0.56,0.476-0.748,0.801c-0.062,0.189-0.124,0.378-0.186,0.567c0,0,0,0,0,0
		c-0.368,0.354-0.743,0.701-1.101,1.065c-0.156,0.159-0.395,0.271-0.385,0.55c-0.061,0.091-0.136,0.16-0.251,0.171
		c-0.043,0.034-0.085,0.069-0.128,0.103c-0.41,0.349-0.832,0.682-1.306,0.944c-0.258,0.21-0.517,0.42-0.775,0.63
		c0.009,0.594,0.019,1.188,0.028,1.782l0,0c-0.001,0.156-0.002,0.312-0.003,0.468c0.001,0.469,0.002,0.938,0.003,1.407c0,0,0,0,0,0
		c-0.001,0.156-0.002,0.312-0.003,0.468c0.001,0.469,0.002,0.938,0.003,1.407c-0.019,0.108-0.024,0.211,0.082,0.282
		c0.094-0.018,0.188-0.035,0.282-0.053c0.406,0.016,0.812,0.032,1.218,0.049c0.063-0.015,0.126-0.029,0.188-0.044
		c0.022-0.15,0.133-0.235,0.232-0.326c-0.099,0.091-0.211,0.176-0.232,0.326c0.062,0.016,0.124,0.032,0.186,0.048
		c0.094-0.018,0.188-0.036,0.282-0.053c0.406,0.016,0.812,0.032,1.218,0.049c0.063-0.015,0.126-0.029,0.188-0.044
		c0.017-0.135,0.114-0.214,0.203-0.296c-0.089,0.083-0.186,0.161-0.203,0.297c0.062,0.016,0.124,0.032,0.186,0.048
		c0.094-0.018,0.188-0.036,0.282-0.053c0.406,0.016,0.812,0.032,1.218,0.049c0.125,0.002,0.25,0.004,0.375,0.005
		c0.495-0.068,1.008,0.075,1.493-0.125c0.093-0.083,0.186-0.166,0.279-0.249c0.218-0.451,0.039-0.831-0.259-1.207
		c0.437-0.118,0.812-0.268,0.867-0.761c-0.015-0.125-0.03-0.25-0.045-0.375c-0.117-0.155-0.234-0.309-0.357-0.471
		C26.956,16.982,27.081,16.771,26.752,16.055z"/>
</g>
</svg>
