<?xml version="1.0" encoding="utf-8"?>
<!-- Generator: Adobe Illustrator 17.0.0, SVG Export Plug-In . SVG Version: 6.00 Build 0)  -->
<!DOCTYPE svg PUBLIC "-//W3C//DTD SVG 1.1//EN" "http://www.w3.org/Graphics/SVG/1.1/DTD/svg11.dtd">
<svg version="1.1" id="Layer_1" xmlns="http://www.w3.org/2000/svg" xmlns:xlink="http://www.w3.org/1999/xlink" x="0px" y="0px"
	 width="143px" height="150px" viewBox="0 0 143 150" enable-background="new 0 0 143 150" xml:space="preserve">
<g>
	<path fill="#6E6EAA" d="M22.504,126.399c-0.684-0.986-1.367-1.971-2.051-2.956c-0.121-0.209-0.241-0.418-0.361-0.628
		c-0.09-0.29-0.18-0.581-0.271-0.871c0.358-0.342,0.735-0.667,1.071-1.029c6.435-6.924,13.813-12.606,22.288-16.818
		c5.045-2.507,10.298-4.48,15.782-5.812c0.549-0.133,1.292-0.118,1.051-1.057c-0.347-1.354-0.5-2.729-0.541-4.127
		c-0.021-0.719-0.281-1.125-1.239-0.954c-11.808,2.115-22.529,6.693-32.131,13.912c-3.428,2.577-6.52,5.52-9.673,8.403
		c-0.09-0.121-0.18-0.242-0.27-0.363c0.023-0.788-0.569-1.499-0.292-2.319c4.926-4.767,10.309-8.947,16.133-12.562
		c1.093-0.595,2.187-1.19,3.28-1.785c2.693-1.222,5.386-2.443,8.079-3.665c0.8-0.286,1.599-0.572,2.399-0.858
		c2.092-0.625,4.185-1.25,6.277-1.875c0.707-0.147,1.455-0.123,2.103-0.512c0.917-0.161,1.832-0.442,2.751-0.457
		c1.82-0.03,2.57-0.779,2.471-2.659c-0.051-0.97-0.093-2.317,1.54-2.367c0.824,0.435,0.968,1.087,0.874,1.997
		c-0.501,4.82,0.123,9.511,1.7,14.096c1.316,3.827,3.959,6.745,6.467,9.771c1.963,2.369,1.945,2.384,3.995,0.058
		c0.066-0.075,0.134-0.148,0.2-0.223c2.877-3.26,5.515-6.636,6.815-10.918c1.267-4.17,1.492-8.401,1.301-12.697
		c-0.035-0.787-0.212-1.633,0.728-2.082c0.264,0.014,0.528,0.028,0.793,0.042c0.955,0.563,0.793,1.558,0.941,2.433
		c0.03,0.504,0.06,1.009,0.089,1.513c-0.206,0.638,0.105,0.91,0.694,1.006c1.018,0.167,2.034,0.345,3.051,0.519
		c0.339,0.333,0.78,0.268,1.196,0.305c1.075,0.378,2.154,0.742,3.294,0.875c0.305,0.33,0.721,0.283,1.11,0.328
		c1.175,0.554,2.404,0.946,3.668,1.232c0.308,0.145,0.617,0.29,0.925,0.435c1.093,0.417,2.187,0.834,3.28,1.251
		c0.283,0.136,0.566,0.273,0.849,0.409c1.014,0.473,2.027,0.945,3.041,1.418c0.172,0.275,0.46,0.317,0.741,0.372
		c1.049,0.575,2.099,1.15,3.148,1.725c0.231,0.13,0.462,0.261,0.692,0.391c0.936,0.584,1.872,1.168,2.808,1.752
		c0.429,0.283,0.858,0.567,1.286,0.85c0.839,0.7,1.695,1.375,2.678,1.866c0.21,0.166,0.42,0.332,0.629,0.499
		c0.782,0.613,1.564,1.225,2.346,1.838c0.266,0.213,0.532,0.427,0.797,0.64c0.87,0.888,1.745,1.771,2.801,2.445
		c0.19,0.192,0.381,0.384,0.571,0.576c0.698,0.679,1.396,1.359,2.094,2.038c0.301,0.316,0.602,0.632,0.903,0.948
		c0.612,0.672,1.224,1.344,1.836,2.015c0.279,0.307,0.557,0.613,0.836,0.92c0.811,1.009,1.622,2.018,2.433,3.027
		c-0.025,0.073-0.027,0.146-0.005,0.219c-0.394,0.593-0.788,1.185-1.182,1.778c-0.651-0.234-0.955-0.834-1.358-1.318
		c-1.357-1.626-2.591-3.364-4.288-4.678c-0.498-0.521-0.997-1.042-1.495-1.563c-0.788-1.337-1.749-1.411-3.222-0.908
		c-2.57,0.879-4.938,2.093-7.216,3.51c-6.377,3.965-12.401,8.427-18.203,13.186c-1.241,1.018-2.737,1.799-3.498,3.332
		c-0.864,0.023-1.715-0.317-2.586-0.095c-0.601,0.082-1.201,0.164-1.802,0.246c-2.221,0.149-4.309,0.775-6.301,1.749
		c-1.141,0.227-2.022,0.956-2.977,1.542c-0.135,0.09-0.271,0.18-0.406,0.27c-0.078,0.055-0.157,0.11-0.235,0.166
		c-2.818,1.566-5.637,3.133-8.68,4.239c-0.71,0.153-1.421,0.3-2.049,0.696c-1.895,0.412-3.789,0.824-5.684,1.236
		c-0.627-0.129-1.212,0.047-1.795,0.243c-1.496,0.03-2.992,0.059-4.488,0.089c-0.502-0.008-1.004-0.015-1.506-0.023
		c-1.394-0.102-2.789-0.205-4.183-0.307c-0.256-0.032-0.511-0.064-0.767-0.096c-0.636-0.184-1.272-0.369-1.908-0.553
		c0.148-1.1,1.224-1.371,1.859-2.022c5.396-5.531,11.35-10.431,17.574-14.977c7.161-5.23,14.749-9.785,22.928-13.276
		c8.113-3.463,16.442-5.928,25.417-5.19c0.303,0.025,0.637,0.151,0.721-0.257c0.072-0.351,0.012-0.711-0.456-0.792
		c-0.191-0.214-0.394-0.399-0.716-0.291l0.005-0.002c-0.966-1.377-2.519-1.929-3.874-2.759c-0.231-0.184-0.443-0.399-0.695-0.547
		c-6.562-3.847-13.51-6.736-20.924-8.492c-4.081-0.967-4.195-0.892-4.145,3.443c-0.027,0.035-0.054,0.071-0.081,0.106
		c0.023-0.039,0.047-0.079,0.07-0.118c4.718,0.204,9.276,1.252,13.789,2.579c-0.499,0.123-0.992,0.183-1.466,0.114
		c-3.971-0.578-7.96-0.242-11.942-0.281c-0.826-0.008-1.196,0.23-1.433,1.072c-0.623,2.207-1.501,4.319-2.746,6.27
		c-2.205,3.454-5.148,6.316-7.636,9.543c-0.671,0.871-1.418,0.443-1.996-0.255c-2.729-3.289-5.758-6.346-7.933-10.064
		c-0.491-0.838-0.926-0.946-1.788-0.563c-2.73,1.213-5.43,2.483-8.061,3.899c-6.92,3.721-13.227,8.312-19.016,13.603
		c-2.79,2.55-5.424,5.272-8.129,7.916c-0.067-0.067-0.147-0.111-0.24-0.132c-0.089-0.264-0.265-0.44-0.527-0.532
		c-0.694-0.804-1.389-1.608-2.083-2.412C23.041,126.89,22.843,126.591,22.504,126.399z"/>
	<path fill="#BBC0D1" d="M114.72,105.158c0.468,0.081,0.528,0.442,0.456,0.792c-0.084,0.408-0.418,0.282-0.721,0.257
		c-8.975-0.738-17.305,1.727-25.417,5.19c-8.179,3.491-15.768,8.046-22.928,13.276c-6.224,4.546-12.178,9.446-17.574,14.977
		c-0.635,0.651-1.711,0.922-1.859,2.022c-0.804-0.102-1.608-0.204-2.412-0.306c-0.213-0.342-0.573-0.244-0.883-0.294
		c-1.039-0.572-2.178-0.862-3.311-1.169c-0.204-0.344-0.549-0.297-0.871-0.314c-1.003-0.498-2.006-0.995-3.01-1.493
		c-0.317-0.358-0.723-0.544-1.188-0.615c-1.003-0.597-1.886-1.395-3.007-1.796c-0.167-0.108-0.335-0.216-0.502-0.324
		c-0.824-0.688-1.649-1.376-2.473-2.063c-0.186-0.354-0.46-0.58-0.875-0.6c-0.714-0.789-1.428-1.578-2.142-2.367
		c2.705-2.644,5.339-5.366,8.129-7.916c5.789-5.291,12.095-9.881,19.016-13.603c2.632-1.415,5.331-2.685,8.061-3.899
		c0.862-0.383,1.297-0.275,1.788,0.563c2.175,3.717,5.205,6.774,7.933,10.064c0.579,0.698,1.325,1.125,1.996,0.255
		c2.489-3.227,5.431-6.088,7.636-9.543c1.245-1.95,2.123-4.063,2.746-6.27c0.238-0.842,0.607-1.081,1.433-1.072
		c3.982,0.04,7.971-0.296,11.942,0.281c0.474,0.069,0.967,0.009,1.466-0.114c-4.513-1.327-9.071-2.376-13.789-2.579l0.011,0.012
		c-0.051-4.336,0.063-4.41,4.145-3.443c7.413,1.756,14.362,4.645,20.924,8.492c0.252,0.148,0.464,0.363,0.695,0.547
		c-0.228,0.195-0.456,0.389-0.826,0.705c1.814,0.375,3.029,1.701,4.701,2.054c0,0-0.005,0.002-0.004,0.002
		C114.154,105.182,114.437,105.17,114.72,105.158z"/>
	<path fill="#6F6FA9" d="M72.992,5.821c0.672,0.614,1.345,1.229,2.017,1.843c0.31,0.311,0.619,0.621,0.929,0.932
		c0.601,0.678,1.202,1.356,1.802,2.034c0.26,0.31,0.521,0.62,0.781,0.93c0.147,0.185,0.294,0.37,0.441,0.555
		c1.227,1.89,2.454,3.78,3.682,5.67c0.126,0.327,0.178,0.694,0.501,0.912c0.433,1.242,1.057,2.392,1.706,3.531
		c0.089,0.232,0.177,0.465,0.266,0.697c0.359,0.982,0.719,1.965,1.078,2.947c0.078,0.539,0.221,1.055,0.541,1.508
		c0.278,1.108,0.557,2.215,0.835,3.323c0.107,0.493-0.012,1.036,0.331,1.475c0.166,1.213,0.332,2.427,0.498,3.64
		c0.068,0.479,0.137,0.957,0.205,1.436c0.095,1.394,0.19,2.787,0.285,4.181c0.01,0.502,0.021,1.005,0.031,1.507
		c-0.019,1.494-0.039,2.988-0.058,4.482c-0.011,0.498-0.022,0.997-0.033,1.495c-0.369,1.581-0.282,3.192-0.302,4.795
		c-0.045,0.601-0.09,1.202-0.135,1.803c-0.028,0.397-0.055,0.794-0.083,1.19c-0.024,0.185,0.071,0.274,0.243,0.301
		c0.694,0.408,1.389,0.817,2.083,1.225c0.291,0.208,0.582,0.416,0.872,0.624c0.801,0.705,1.602,1.409,2.403,2.114
		c0.215,0.264,0.429,0.528,0.644,0.792c0.585,0.812,1.171,1.623,1.756,2.435c0.171,0.308,0.342,0.615,0.512,0.923
		c0.349,0.983,0.698,1.967,1.047,2.95c0.106,0.502,0.212,1.004,0.318,1.506c0.097,1.393,0.195,2.786,0.292,4.178
		c-0.022,0.518-0.111,1.043,0.176,1.525c0.049,1.414-0.039,2.836,0.247,4.235c0.043,0.376,0.085,0.753,0.127,1.13
		c-0.243,1.755-1.318,2.692-2.989,3.043c-0.491-0.038-0.982-0.076-1.473-0.114c-0.84-0.412-1.549-0.979-2.079-1.758
		c-0.075-0.372-0.262-0.673-0.567-0.9c-0.495-1.096-1.249-2.003-2.09-2.845c-0.216-0.259-0.431-0.517-0.647-0.776
		c-0.578-0.799-1.265-1.489-2.048-2.086c-0.218-0.185-0.436-0.371-0.654-0.556c-0.492-0.627-0.959-1.268-1.924-0.777
		c-0.95,0.484-1.925,0.919-2.889,1.376c-0.147,0.009-0.299-0.006-0.439,0.03c-1.18,0.304-2.697,0.276-3.444,1.019
		c-0.838,0.834-0.179,2.42-0.333,3.668c-0.53,1.308-1.27,2.467-2.38,3.365c-2.133,1.147-4.221,1.091-6.262-0.233
		c-1.048-0.907-1.686-2.069-2.103-3.37c0.002-3.39,0.002-3.391-3.255-4.216c-0.381-0.096-0.768-0.167-1.153-0.25
		c-0.145-0.044-0.29-0.088-0.434-0.131c-0.582-0.274-1.242-0.449-1.731-0.84c-1.19-0.952-2.025-0.44-2.943,0.438
		c-2.129,2.036-4.119,4.185-5.595,6.747c-0.788,1.368-1.843,2.176-3.441,2.216c-0.404-0.099-0.807-0.198-1.211-0.296
		c-0.875-0.353-1.405-1.043-1.813-1.853c-0.02-0.503-0.041-1.005-0.061-1.508c0.113-1.592,0.226-3.183,0.339-4.775
		c0.008-0.501,0.017-1.003,0.026-1.504c0.162-1.608,0.325-3.216,0.486-4.823c0.162-0.678,0.325-1.356,0.488-2.035
		c1.747-4.168,4.591-7.362,8.538-9.56c0.485-0.27,0.762-0.57,0.714-1.157c-0.083-1.035,0.037-2.086-0.263-3.103
		c-0.028-0.39-0.055-0.779-0.083-1.169c0.075-1.408,0.042-2.809-0.223-4.199c-0.029-0.496-0.058-0.992-0.087-1.488
		c0.003-1.495,0.006-2.989,0.009-4.484c0.004-0.5,0.009-1,0.013-1.5c0.167-1.616,0.334-3.233,0.501-4.849
		c0.06-0.573,0.121-1.146,0.181-1.72c0.465-1.999,0.929-3.999,1.394-5.998c0.207-0.699,0.415-1.398,0.622-2.097
		c1.228-2.696,2.456-5.393,3.684-8.089c0.803-1.279,1.606-2.557,2.409-3.836c0.872-1.108,1.743-2.216,2.615-3.324
		c1.773-1.653,3.194-3.688,5.348-4.927C72.187,5.539,72.589,5.68,72.992,5.821z M82.993,24.369c-0.26-1.173-0.94-2.169-1.378-3.267
		c-0.178-0.553-0.356-1.057-1.115-0.617c-0.587,0.34-1.214,0.612-1.823,0.914c-0.096,0-0.192,0.005-0.288,0.015
		c-0.131,0.038-0.261,0.075-0.392,0.113c-1.469,0.272-2.938,0.544-4.407,0.816c-0.9-0.004-1.8-0.008-2.701-0.011
		c-0.994-0.097-1.989-0.194-2.983-0.29c-1.409-0.459-2.891-0.71-4.218-1.396c-0.696-0.36-1.055-0.174-1.381,0.502
		c-1.204,2.501-2.311,5.035-2.929,7.754c-0.265,0.662-0.522,1.325-0.467,2.06c-0.566,1.755-0.883,3.554-0.931,5.398
		c-0.28,0.573-0.27,1.18-0.206,1.793c-0.215,1.584-0.421,3.168-0.276,4.773c0.006,0.505,0.011,1.011,0.017,1.516
		c-0.117,1.403-0.023,2.796,0.211,4.181c0.02,0.501,0.041,1.001,0.061,1.502c-0.14,1.407,0.168,2.788,0.25,4.182
		c0.019,0.502,0.039,1.003,0.058,1.505c0.143,1.3,0.008,2.638,0.52,3.888c0.237,0.511,0.725,0.7,1.184,0.927
		c1.743,1.213,3.797,1.55,5.792,2.044c0.772,0.191,1.21-0.029,1.134-0.954c-0.097-1.181-0.002-2.36,0.278-3.518
		c0.728-1.268,1.685-2.307,2.997-2.991c0.666-0.127,1.332-0.255,1.998-0.382c3.405,0.397,5.452,2.452,5.496,5.517
		c0.039,2.682,0.039,2.682,2.687,1.864c0.19-0.059,0.375-0.131,0.562-0.198c0.121-0.047,0.243-0.093,0.364-0.14
		c3.665-0.856,4.685-1.854,4.682-4.583c0.098-1.584,0.195-3.169,0.293-4.753c0.01-0.509,0.019-1.018,0.029-1.528
		c0.099-1.588,0.199-3.176,0.298-4.764c0.001-0.507,0.002-1.014,0.002-1.521c-0.007-1.487-0.013-2.974-0.02-4.461
		c0.103-0.429,0-0.825-0.195-1.205c0.1-1.416-0.207-2.797-0.365-4.191c-0.113-0.623-0.073-1.292-0.533-1.813
		c0.105-0.954-0.121-1.84-0.559-2.681c0.443-0.7-0.071-1.232-0.316-1.811c-0.147-1.146-0.644-2.185-0.998-3.268
		C83.281,24.982,83.137,24.675,82.993,24.369z M48.166,71.666c-0.436,2.785-0.408,5.606-0.638,8.407
		c-0.037,0.451-0.049,0.921,0.506,1.096c0.497,0.157,0.877-0.09,1.16-0.456c0.207-0.267,0.336-0.595,0.5-0.895
		c1.937-2.712,4.09-5.233,6.583-7.455c0.251-0.223,0.61-0.446,0.46-0.856c-0.942-2.577-0.234-5.334-0.881-7.941
		c0.012-1.041,0.032-2.082,0.034-3.124c0.002-0.671-0.279-0.771-0.82-0.401c-3.532,2.412-6.2,5.411-6.747,9.862
		C48.068,70.473,48.12,71.07,48.166,71.666z M66.401,19.007c1.533,0.631,3.128,0.904,4.783,0.841
		c2.264,0.229,4.451-0.113,6.582-0.88c0.577,0.003,1.011-0.372,1.513-0.57c0.488-0.193,0.559-0.519,0.276-0.931
		c-1.281-1.868-2.389-3.871-4.142-5.375c-0.7-1.216-1.744-2.134-2.721-3.107c-0.333-0.332-0.693-0.829-1.186-0.163
		c-1.197,0.91-2.144,2.052-3.012,3.266c-1.674,1.496-2.789,3.414-3.986,5.271c-0.36,0.558-0.227,0.897,0.372,1.132
		C65.379,18.687,65.824,19.038,66.401,19.007z M65.247,73.394c1.082,0.473,1.596,0.277,1.485-1.057
		c-0.107-1.279-0.023-2.573-0.023-3.861c0.001-3.209,0.002-3.209-3.281-3.676c-1.565-0.543-3.13-1.086-4.753-1.649
		c-0.162,1.833,0.222,3.555,0.171,5.258c-0.06,1.981,0.849,2.996,2.474,3.747C62.583,72.739,63.859,73.229,65.247,73.394z
		 M94.501,80.107c0.235,0.747,0.678,1.294,1.52,1.041c0.875-0.262,0.386-1.007,0.355-1.534c-0.176-2.977-0.356-5.954-0.602-8.926
		c-0.415-5.003-3.314-8.324-7.427-10.948c-0.327,1.361-0.484,2.581-0.337,3.828c-0.288,2.601-0.161,5.238-0.668,7.82
		c-0.074,0.378,0.047,0.662,0.35,0.909C90.407,74.511,92.461,77.303,94.501,80.107z M75.028,62.659
		c0.018-0.844,0.095-1.691,0.042-2.531c-0.101-1.612-1.353-2.797-2.905-2.836c-1.612-0.04-2.941,1.161-3.048,2.836
		c-0.054,0.839,0.022,1.687,0.039,2.531c-0.019,1.146-0.051,2.291-0.053,3.437c-0.006,4.137-0.025,8.275,0.009,12.412
		c0.015,1.872,1.36,3.291,2.985,3.286c1.553-0.005,2.977-1.442,2.979-3.136C75.084,73.325,75.047,67.992,75.028,62.659z
		 M85.289,63.022c-2.334,1.158-4.579,1.73-6.879,2.115c-0.603,0.101-0.94,0.442-0.931,1.129c0.027,2.091,0.026,4.184-0.001,6.275
		c-0.009,0.719,0.272,1.027,0.977,0.909c2.085-0.35,4.04-1.024,5.715-2.361c0.478-0.381,0.688-0.88,0.825-1.513
		C85.448,67.498,85.125,65.415,85.289,63.022z"/>
	<path fill="#BBC0D1" d="M125.678,114.716c1.697,1.314,2.93,3.052,4.288,4.678c0.404,0.484,0.708,1.084,1.358,1.318
		c-0.655,1.295-1.486,2.45-2.657,3.333c-0.934-2.236-1.859-4.476-2.812-6.703c-0.123-0.286-0.203-0.725-0.675-0.674
		c-0.397,0.043-0.34,0.436-0.451,0.689c-2.137,4.884-5.095,9.277-8.17,13.594c-0.352,0.494-0.425,0.979-0.47,1.519
		c-1.336,0.97-3.021,0.89-4.481,1.487c-0.544-0.103-1.055-0.036-1.518,0.287c-1.707-0.203-3.364,0.432-5.066,0.309
		c-0.405-0.007-0.811-0.014-1.216-0.02c-1.361-0.406-2.776-0.418-4.171-0.577c-0.27-0.031-0.54-0.061-0.81-0.092
		c-1.263-0.597-2.631-0.813-3.979-1.105c-0.28-0.025-0.559-0.05-0.839-0.075c-0.574-0.524-1.351-0.08-1.965-0.412
		c0.761-1.533,2.257-2.314,3.498-3.332c5.802-4.759,11.826-9.221,18.203-13.186c2.278-1.417,4.646-2.631,7.216-3.51
		c1.473-0.504,2.434-0.429,3.222,0.909c0.114,0.515,0.157,1.059,0.356,1.538C124.852,115.439,125.28,115.495,125.678,114.716z"/>
	<path fill="#BBC0D1" d="M16.428,114.463c3.153-2.882,6.245-5.826,9.673-8.403c9.602-7.219,20.323-11.797,32.131-13.912
		c0.958-0.172,1.218,0.234,1.239,0.954c0.041,1.399,0.194,2.773,0.541,4.127c0.241,0.939-0.502,0.924-1.051,1.057
		c-5.484,1.332-10.737,3.304-15.782,5.812c-8.475,4.212-15.852,9.894-22.288,16.818c-0.337,0.362-0.713,0.687-1.071,1.029
		c-0.8-0.513-1.005-1.464-1.576-2.145c-0.094-0.185-0.188-0.371-0.281-0.556c-0.137-1.29-1.064-2.3-1.268-3.567
		C16.606,115.272,16.517,114.867,16.428,114.463z"/>
	<path fill="#EEECFB" d="M66.436,10.326c-0.872,1.108-1.743,2.216-2.615,3.324c-0.86-0.104-1.206,0.62-1.675,1.089
		C43.66,33.207,25.184,51.687,6.699,70.157c-0.478,0.477-0.837,1.153-1.636,1.213c-0.408-1.071-0.299-2.189-0.308-3.297
		c0-0.199,0.001-0.399,0.001-0.598c0.374-0.325,0.77-0.627,1.12-0.977c18.06-18.053,36.116-36.109,54.169-54.169
		c0.349-0.349,0.652-0.746,0.976-1.121c0.13-0.241,0.355-0.292,0.601-0.3C63.227,10.718,64.791,10.187,66.436,10.326z"/>
	<path fill="#EEECFB" d="M61.412,17.486c-1.228,2.696-2.456,5.393-3.684,8.089c-0.637,0-0.946,0.505-1.324,0.882
		c-9.341,9.333-18.679,18.67-28.012,28.012c-0.378,0.378-0.88,0.688-0.9,1.318c-1.882,0.717-3.059,2.137-3.886,3.904
		c-0.69,0.017-1.012,0.581-1.422,0.989c-3.414,3.398-6.825,6.799-10.22,10.217c-1.922,1.935-3.81,3.903-5.713,5.855
		c-0.098,0-0.196-0.001-0.294-0.002c-0.073-1.253-0.372-2.45-0.901-3.588c0.001-0.101,0.001-0.202,0.002-0.303
		c0.804-0.045,1.16-0.726,1.636-1.202C24.383,53.986,42.06,36.304,59.747,18.631C60.223,18.155,60.592,17.48,61.412,17.486z"/>
	<path fill="#EEECFB" d="M4.764,65.684c-0.111-1.412,0.092-2.802,0.289-4.192c0.014-0.328-0.052-0.681,0.296-0.899
		c0.636,0.001,0.947-0.502,1.325-0.879c8.35-8.342,16.696-16.688,25.038-25.038c0.378-0.378,0.88-0.689,0.879-1.325
		c0.962-0.836,2.427-1.044,2.984-2.387c2.103-0.751,3.331-2.442,4.503-4.193c1.288-1.314,2.047-3.081,3.582-4.183
		c1.817-1.58,3.516-3.279,5.096-5.096c1.1-1.323,2.577-2.201,3.882-3.283c2.04-0.691,3.853-1.953,5.994-2.392
		c-0.013,0.631-0.514,0.942-0.892,1.32C40.525,30.36,23.307,47.578,6.084,64.793C5.706,65.171,5.396,65.672,4.764,65.684z"/>
	<path fill="#EEECFB" d="M55.017,41.739c-0.003,1.495-0.006,2.989-0.009,4.484c-0.741,0.051-1.079,0.673-1.522,1.115
		c-13.31,13.295-26.61,26.6-39.917,39.898c-0.419,0.419-0.884,0.792-1.328,1.187c-0.5-0.798-1-1.596-1.5-2.394
		c0-0.101,0-0.201,0-0.302c0.36-0.409,0.7-0.839,1.084-1.223c5.492-5.502,10.993-10.995,16.483-16.499
		c0.409-0.411,0.978-0.733,0.989-1.428c2.731-0.661,4.653-2.135,5.111-5.081c0.686-0.037,1.008-0.601,1.42-1.011
		c5.926-5.912,11.84-11.835,17.766-17.747C54.004,42.329,54.323,41.758,55.017,41.739z"/>
	<path fill="#EEECFB" d="M96.041,83.686c1.671-0.352,2.747-1.288,2.989-3.043c0.75-0.029,1.088-0.654,1.531-1.096
		c10.11-10.094,20.211-20.197,30.309-30.303c0.384-0.384,0.722-0.814,1.081-1.223c0.098,0,0.196,0.001,0.294,0.002
		c0.5,0.898,1,1.795,1.499,2.693c-0.395,0.444-0.767,0.91-1.187,1.33c-12.78,12.787-25.565,25.57-38.344,38.357
		c-0.419,0.419-0.786,0.889-1.178,1.336c-1.14-0.133-2.219-0.497-3.294-0.875c0.317-1.318,1.561-1.868,2.335-2.807
		C93.327,86.537,95.104,85.493,96.041,83.686z"/>
	<path fill="#EEECFB" d="M97.815,93.298c-1.264-0.287-2.494-0.679-3.668-1.233c0.507-0.542,0.998-1.1,1.522-1.624
		c12.48-12.485,24.962-24.968,37.448-37.447c0.385-0.385,0.815-0.724,1.225-1.084c0.099,0.001,0.198,0.001,0.297,0.002
		c0.613,0.834,0.636,1.997,1.499,2.692c0,0.1-0.001,0.201-0.001,0.301c-0.637-0.001-0.946,0.505-1.324,0.882
		c-12.022,12.014-24.041,24.033-36.056,36.055C98.344,92.257,97.803,92.603,97.815,93.298z"/>
	<path fill="#EEECFB" d="M14.009,99.483c0.872,0.463,1.142-0.381,1.541-0.779c9.572-9.54,19.123-19.101,28.684-28.653
		c0.483-0.483,0.883-1.116,1.69-1.119c-0.162,1.608-0.325,3.216-0.487,4.824c-0.744,0.046-1.082,0.67-1.526,1.113
		c-9.35,9.334-18.688,18.679-28.037,28.013c-0.445,0.444-0.786,1.064-1.529,1.11c0-1.192,0-2.384,0-3.647"/>
	<path fill="#EEECFB" d="M102.02,94.984c-1.093-0.417-2.187-0.834-3.28-1.251c0.018-0.574,0.478-0.853,0.821-1.196
		c11.845-11.853,23.694-23.701,35.546-35.546c0.379-0.378,0.689-0.88,1.321-0.895c0.303,0.9,0.606,1.8,0.908,2.7
		c0,0.198,0.001,0.396,0.001,0.594c-0.268,0.219-0.558,0.417-0.801,0.66c-11.245,11.238-22.486,22.479-33.724,33.723
		C102.467,94.118,102.024,94.411,102.02,94.984z"/>
	<path fill="#EEECFB" d="M105.91,96.811c-1.014-0.473-2.027-0.945-3.041-1.418c0.388-0.45,0.749-0.926,1.167-1.344
		c10.802-10.812,21.611-21.617,32.414-32.428c0.419-0.419,0.792-0.885,1.187-1.329c0.098,0,0.196,0.001,0.294,0.002
		c-0.006,1.327,0.176,2.626,0.602,3.886c0,0.201-0.001,0.401-0.001,0.602c-0.836-0.125-1.248,0.505-1.731,0.988
		c-9.975,9.97-19.948,19.943-29.917,29.92C106.534,96.039,106.233,96.436,105.91,96.811z"/>
	<path fill="#EEECFB" d="M126.249,41.737c-0.99-0.167-1.663,0.303-2.343,0.985c-8.09,8.127-16.204,16.23-24.316,24.334
		c-0.48,0.479-0.876,1.135-1.719,1.012c-0.349-0.983-0.698-1.967-1.046-2.95c0.545-0.193,0.87-0.656,1.254-1.039
		c3.036-3.026,6.056-6.068,9.102-9.083c0.703-0.695,1.288-1.531,2.213-1.982c0.662,0.617,1.095,0.29,1.312-0.395
		c0.552-1.742,1.679-2.855,3.418-3.405c0.713-0.225,0.965-0.68,0.367-1.32c0.266-0.613,0.797-1.002,1.244-1.461
		c2.208-2.267,4.424-4.528,6.637-6.791l0.149,0l0.149,0c0.192,0.153,0.375,0.317,0.576,0.456"/>
	<path fill="#EEECFB" d="M98.902,79.514c-0.285-1.4-0.198-2.822-0.246-4.236c0.581-0.232,0.932-0.739,1.351-1.157
		c9.309-9.299,18.611-18.605,27.919-27.905c0.42-0.42,0.886-0.792,1.331-1.187c0.928,0.427,1.271,1.63,2.39,1.804
		c0,0.197,0,0.395,0,0.592c-0.75,0.027-1.087,0.652-1.529,1.094c-9.924,9.908-19.837,19.827-29.757,29.739
		C99.907,78.709,99.519,79.246,98.902,79.514z"/>
	<path fill="#EEECFB" d="M45.411,75.261c-0.113,1.592-0.226,3.183-0.339,4.775c-0.667,0.082-0.986,0.643-1.398,1.054
		c-9.162,9.149-18.317,18.305-27.469,27.465c-0.349,0.349-0.652,0.744-0.976,1.118c-0.098,0-0.196-0.001-0.294-0.002
		c0.01-1.328-0.081-2.641-0.602-3.886c0-0.201,0.001-0.402,0.001-0.603c0.837,0.126,1.248-0.505,1.732-0.988
		c9.275-9.27,18.544-18.545,27.825-27.808C44.336,75.943,44.669,75.314,45.411,75.261z"/>
	<path fill="#EEECFB" d="M98.481,73.753c-0.097-1.393-0.195-2.786-0.292-4.178c0.677-0.058,0.996-0.621,1.407-1.031
		c8.381-8.367,16.751-16.745,25.133-25.11c0.443-0.442,0.78-1.067,1.529-1.098c0.895,0.371,1.585,0.981,2.102,1.795
		c-0.148,0.198-0.275,0.417-0.447,0.59c-9.441,9.448-18.885,18.892-28.331,28.335C99.268,73.367,98.996,73.755,98.481,73.753z"/>
	<path fill="#EEECFB" d="M109.799,98.908c-1.049-0.575-2.099-1.15-3.148-1.725c0.628-0.254,1.016-0.795,1.47-1.248
		c9.625-9.616,19.243-19.24,28.871-28.853c0.444-0.444,0.786-1.063,1.528-1.111c0.003,1.3,0.007,2.599,0.01,3.899
		c-0.496,0.426-0.23,0.997-0.286,1.507c-0.04,0.661-0.149,1.298-0.65,1.791c-0.613-0.366-0.675-1.05-0.965-1.61
		c-0.252-0.488-0.257-1.335-1.003-1.29c-0.603,0.036-0.717,0.778-0.877,1.262c-0.608,1.835-1.905,2.948-3.619,3.67
		c-0.479,0.202-1.196,0.184-1.226,0.868c-0.03,0.681,0.73,0.7,1.144,1.008c-0.023,0.69-0.591,1.008-0.999,1.417
		c-6.388,6.402-12.786,12.793-19.176,19.192C110.491,98.068,110.157,98.499,109.799,98.908z"/>
	<path fill="#D2D2E4" d="M128.945,15.105c0.902,0.697,1.803,1.395,2.705,2.092c0.194,0.2,0.388,0.401,0.582,0.601
		c0.359,1.015,1.091,1.876,1.227,2.982c0.106,0.405,0.213,0.809,0.319,1.214c0.162,2.172-0.51,4.123-1.577,5.97
		c-0.586,0.583-1.173,1.167-1.76,1.75c-1.841,1.08-3.793,1.737-5.962,1.579c-0.405-0.106-0.809-0.212-1.214-0.318
		c-1.106-0.136-1.968-0.868-2.982-1.227c-0.206-0.389-0.504-0.687-0.893-0.892c-0.6-0.798-1.2-1.596-1.8-2.395
		c-0.01-0.239-0.054-0.461-0.291-0.588c-0.257-1.485-0.393-2.979-0.298-4.487c0.469-0.424,0.214-0.991,0.295-1.491
		c1.19-2.199,2.884-3.894,5.083-5.083c0.499-0.082,1.066,0.175,1.488-0.296c1.51-0.093,3.004,0.041,4.491,0.299
		C128.484,15.051,128.705,15.096,128.945,15.105z M126.563,17.194c-0.219-0.348-0.572-0.286-0.902-0.294
		c-3.842,0.063-6.224,2.445-6.274,6.273c0.1,0.303,0.2,0.607,0.3,0.91c0.234,1.388,0.707,2.623,2.087,3.283
		c0.111,0.289,0.312,0.489,0.599,0.604c1.229,0.638,2.456,1.292,3.891,0.598c2.956-0.203,4.586-1.832,4.788-4.788
		c0.623-1.848,0.245-3.262-1.2-4.489C129.193,17.905,127.95,17.437,126.563,17.194z"/>
	<path fill="#EEECFB" d="M45.133,81.544c0.408,0.81,0.938,1.5,1.813,1.853c-0.04,0.685-0.614,0.997-1.022,1.407
		c-4.315,4.333-8.645,8.651-12.962,12.983c-0.407,0.409-0.98,0.73-0.964,1.433c-5.824,3.614-11.207,7.795-16.133,12.562
		c-0.262-0.121-0.327-0.351-0.337-0.611c-0.099-0.2-0.198-0.399-0.297-0.599c0.75-0.028,1.089-0.654,1.532-1.096
		c8.952-8.936,17.893-17.885,26.846-26.821C44.052,82.212,44.387,81.584,45.133,81.544z"/>
	<path fill="#EEECFB" d="M5.664,58.802c0.496-1.698,0.992-3.396,1.487-5.094c0,0-0.002,0.002-0.002,0.002
		c0.242-0.129,0.293-0.353,0.299-0.6c0.2-0.299,0.4-0.599,0.6-0.898c0.101-0.1,0.201-0.2,0.302-0.301
		c0.097-0.097,0.194-0.195,0.291-0.292c2.067-2.018,4.156-4.014,6.196-6.059c2.744-2.751,5.451-5.54,8.173-8.313l-0.002,0.002
		c0.1-0.1,0.2-0.199,0.301-0.299c0.3-0.2,0.599-0.4,0.899-0.601c0.247-0.005,0.47-0.057,0.6-0.299l-0.002,0.002
		c1.83-0.374,3.477-1.408,5.385-1.502c-0.146,0.198-0.27,0.419-0.442,0.591c-7.656,7.664-15.317,15.324-22.977,22.984
		C6.459,58.438,6.171,58.801,5.664,58.802z"/>
	<path fill="#E4E2F0" d="M61.412,17.486c-0.82-0.006-1.189,0.668-1.666,1.145C42.06,36.304,24.383,53.986,6.695,71.657
		c-0.476,0.476-0.832,1.157-1.636,1.202c-0.004-0.201-0.009-0.402-0.013-0.603c0.006-0.295,0.012-0.591,0.018-0.886
		c0.799-0.06,1.158-0.736,1.636-1.213c18.486-18.47,36.961-36.95,55.448-55.418c0.469-0.469,0.815-1.193,1.675-1.089
		C63.018,14.929,62.215,16.207,61.412,17.486z"/>
	<path fill="#EEECFB" d="M117.265,103.767c-0.983-0.492-1.839-1.167-2.678-1.867c0.012-0.692,0.574-1.018,0.983-1.428
		c5.054-5.068,10.113-10.131,15.182-15.185c1.37-1.366,2.779-2.693,4.17-4.037c0.114,0.271,0.228,0.543,0.341,0.814
		c-0.218,1.112-0.422,2.225-0.321,3.367c-0.099,0.199-0.199,0.398-0.298,0.597c-0.125,0.079-0.271,0.139-0.374,0.241
		c-5.461,5.451-10.918,10.906-16.378,16.359C117.57,102.95,117.257,103.268,117.265,103.767z"/>
	<path fill="#E4E2F0" d="M4.764,65.684c0.632-0.012,0.942-0.513,1.32-0.891C23.307,47.578,40.525,30.36,57.74,13.138
		c0.378-0.378,0.879-0.689,0.892-1.32c0.511,0.021,0.78-0.432,1.191-0.607c0.399-0.001,0.798-0.001,1.198-0.002
		c-0.324,0.375-0.627,0.771-0.976,1.121C41.992,30.389,23.936,48.445,5.876,66.498c-0.35,0.349-0.746,0.652-1.12,0.977
		c-0.003-0.4-0.006-0.801-0.009-1.201C4.752,66.077,4.758,65.881,4.764,65.684z"/>
	<path fill="#EEECFB" d="M9.846,84.832c-0.512-0.865-0.578-2.063-1.795-2.401c0-0.198,0.001-0.396,0.001-0.593
		c0.694-0.01,1.014-0.579,1.424-0.986c2.855-2.837,5.706-5.678,8.54-8.536c2.376-2.397,4.728-4.818,7.09-7.228
		c1.024,0.114,1.569,1.298,2.687,1.204c0.127,0.767-0.426,1.167-0.878,1.619c-3.863,3.864-7.734,7.72-11.586,11.594
		c-1.748,1.758-3.46,3.552-5.188,5.329C10.043,84.833,9.944,84.832,9.846,84.832z"/>
	<path fill="#EEECFB" d="M7.747,81.24c-0.044-1.225-0.92-2.148-1.197-3.289c0.001-0.101,0.001-0.201,0.002-0.302
		c2.559-2.509,5.12-5.016,7.677-7.528c3.125-3.071,6.246-6.146,9.368-9.219c-0.16,1.313,0.608,2.387,0.925,3.577
		c-0.127,0.078-0.275,0.134-0.377,0.236c-5.181,5.17-10.359,10.345-15.537,15.518c-0.285,0.285-0.569,0.565-0.563,1.01
		C7.946,81.241,7.846,81.241,7.747,81.24z"/>
	<path fill="#6F6FA9" d="M116.087,132.47c0.045-0.54,0.118-1.025,0.47-1.519c3.075-4.318,6.034-8.71,8.17-13.594
		c0.111-0.253,0.054-0.646,0.451-0.689c0.472-0.051,0.553,0.387,0.675,0.674c0.953,2.228,1.878,4.467,2.812,6.703
		c-2.15,2.717-4.979,4.613-7.83,6.483c-0.886,0.433-1.771,0.866-2.657,1.299c-0.186-0.003-0.307,0.079-0.347,0.266l-0.014-0.041
		C117.242,132.192,116.664,132.331,116.087,132.47z"/>
	<path fill="#EEECFB" d="M120.24,106.104c-0.782-0.613-1.564-1.225-2.346-1.838c0.08-0.124,0.142-0.268,0.244-0.371
		c5.162-5.171,10.328-10.339,15.492-15.508c0.284-0.284,0.562-0.57,1.006-0.566c0.239,1.085,0.383,2.179,0.308,3.293
		c-0.001,0.101-0.001,0.202-0.002,0.303c-2.95,2.999-5.876,6.023-8.859,8.99C124.156,102.326,122.346,104.368,120.24,106.104z"/>
	<path fill="#EEECFB" d="M88.864,47.422c0.019-1.494,0.039-2.988,0.058-4.482c0.184-0.067,0.419-0.083,0.544-0.209
		c4.093-4.117,8.176-8.244,12.26-12.369c0.1,0,0.199,0,0.299-0.001c0.772,0.632,1.774,0.957,2.392,1.793
		c-0.078,0.126-0.136,0.272-0.238,0.374c-4.768,4.779-9.54,9.553-14.311,14.329C89.585,47.141,89.31,47.432,88.864,47.422z"/>
	<path fill="#E4E2F0" d="M12.241,88.423c0.444-0.395,0.909-0.768,1.328-1.187c13.306-13.299,26.607-26.603,39.917-39.898
		c0.443-0.443,0.781-1.064,1.522-1.115c0.029,0.496,0.058,0.992,0.087,1.488c-0.812,0.02-1.178,0.694-1.655,1.17
		c-13.181,13.166-26.354,26.34-39.524,39.518c-0.384,0.384-0.72,0.816-1.079,1.226c-0.1,0-0.2-0.001-0.299-0.001
		c-0.101-0.301-0.203-0.602-0.304-0.902C12.235,88.622,12.238,88.523,12.241,88.423z"/>
	<path fill="#96D4FB" d="M14.009,99.483c-0.937,0.43-1.943,0.756-2.795,1.317c-1.069,0.704-1.932,1.628-2.364,2.931
		c-0.225,0.679-0.315,1.623-1.353,1.734c-0.655-0.922-0.708-2.15-1.52-2.992c-0.259-0.421-0.408-0.933-0.929-1.14
		c-0.88-0.721-1.861-1.243-2.976-1.495c-0.189-0.12-0.378-0.239-0.568-0.359c-0.054-0.727,0.53-0.917,1.015-1.102
		c2.145-0.818,3.761-2.128,4.446-4.422c0.149-0.499,0.383-1.055,1.084-1.057c0.176,0.216,0.351,0.431,0.527,0.646
		c0.266,1.12,0.652,2.178,1.543,2.973c0.176,0.338,0.425,0.58,0.825,0.621c0.768,1.043,2.125,1.052,3.084,1.758
		C14.022,99.093,14.015,99.288,14.009,99.483z"/>
	<path fill="#EEECFB" d="M123.839,109.19c-1.057-0.674-1.932-1.557-2.801-2.445c1.022-0.562,1.707-1.498,2.506-2.3
		c3.915-3.929,7.803-7.885,11.701-11.832c0.098,0,0.196,0.001,0.294,0.002c0.043,1.167,0.709,2.163,0.901,3.289
		c0,0.1-0.001,0.2-0.001,0.299c-4.065,4.018-8.13,8.037-12.196,12.054C123.98,108.516,123.856,108.827,123.839,109.19z"/>
	<path fill="#E4E2F0" d="M134.342,51.911c-0.409,0.36-0.84,0.699-1.225,1.084c-12.486,12.479-24.969,24.961-37.448,37.447
		c-0.524,0.525-1.015,1.082-1.522,1.624c-0.389-0.045-0.805,0.002-1.11-0.328c0.391-0.446,0.759-0.917,1.178-1.336
		c12.779-12.788,25.564-25.57,38.344-38.357c0.419-0.42,0.792-0.885,1.187-1.33c0.1,0.001,0.199,0.001,0.299,0.001
		C134.143,51.115,134.243,51.513,134.342,51.911z"/>
	<path fill="#E4E2F0" d="M136.429,56.096c-0.632,0.014-0.943,0.516-1.321,0.895c-11.853,11.845-23.701,23.694-35.546,35.546
		c-0.343,0.344-0.803,0.623-0.821,1.196c-0.308-0.145-0.617-0.29-0.925-0.435c-0.012-0.695,0.529-1.041,0.943-1.455
		c12.015-12.022,24.033-24.04,36.056-36.055c0.378-0.378,0.687-0.883,1.324-0.882c0.008,0.244,0.058,0.468,0.297,0.598
		C136.433,55.701,136.431,55.898,136.429,56.096z"/>
	<path fill="#96D4FB" d="M135.263,82.065c-0.114-0.271-0.228-0.543-0.341-0.815c-0.174-0.31-0.348-0.619-0.522-0.929
		c-0.284-1.38-1.234-2.159-2.439-2.709c-0.304-0.179-0.607-0.359-0.911-0.538c-0.414-0.308-1.174-0.326-1.144-1.008
		c0.03-0.684,0.747-0.666,1.226-0.868c1.713-0.722,3.011-1.835,3.619-3.67c0.16-0.483,0.274-1.226,0.877-1.262
		c0.746-0.044,0.75,0.802,1.003,1.29c0.289,0.56,0.352,1.244,0.965,1.61c0.439,1.053,1.274,1.524,2.37,1.61
		c0.141,0.486,0.583,0.569,0.97,0.726c0.728,0.445,0.795,0.97-0.047,1.246c-2.352,0.772-3.861,2.305-4.595,4.658
		C136.159,81.837,135.814,82.173,135.263,82.065z"/>
	<path fill="#EEECFB" d="M126.504,111.803c-0.698-0.679-1.396-1.359-2.093-2.039c0.421-0.483,0.819-0.989,1.268-1.445
		c3.682-3.745,7.374-7.48,11.063-11.218c0.098,0,0.196,0.001,0.294,0.002c0.2,1.196,0.401,2.393,0.601,3.59
		c-0.001,0.101-0.002,0.201-0.003,0.302c-0.973,0.923-1.95,1.841-2.917,2.769C131.952,106.417,129.406,109.292,126.504,111.803z"/>
	<path fill="#EEECFB" d="M88.891,41.433c-0.095-1.394-0.19-2.787-0.285-4.181c0.222-0.095,0.5-0.135,0.658-0.294
		c3.065-3.088,6.117-6.19,9.171-9.289c0.196,0.001,0.392,0.002,0.587,0.004c0.599,0.717,1.081,1.572,2.101,1.796
		c0.001,0.098,0.001,0.196,0.002,0.294c-3.605,3.556-7.207,7.116-10.821,10.663C89.891,40.83,89.58,41.405,88.891,41.433z"/>
	<path fill="#E4E2F0" d="M138.521,65.971c-0.742,0.048-1.084,0.667-1.528,1.111c-9.628,9.613-19.246,19.237-28.871,28.853
		c-0.454,0.454-0.842,0.995-1.47,1.248c-0.282-0.055-0.57-0.097-0.742-0.372c0.323-0.375,0.624-0.772,0.973-1.121
		c9.969-9.977,19.942-19.95,29.917-29.92c0.484-0.483,0.895-1.113,1.731-0.988c0.003,0.101,0.006,0.202,0.01,0.303
		C138.534,65.38,138.527,65.676,138.521,65.971z"/>
	<path fill="#E4E2F0" d="M45.411,75.261c-0.742,0.053-1.075,0.682-1.519,1.124c-9.281,9.264-18.55,18.538-27.825,27.808
		c-0.484,0.483-0.895,1.114-1.732,0.988c-0.002-0.199-0.004-0.399-0.005-0.599c0.005-0.197,0.009-0.394,0.014-0.59
		c0.743-0.046,1.085-0.666,1.529-1.11c9.349-9.334,18.687-18.68,28.037-28.013c0.444-0.443,0.782-1.067,1.526-1.113
		C45.428,74.258,45.42,74.76,45.411,75.261z"/>
	<path fill="#E4E2F0" d="M98.481,73.753c0.515,0.001,0.787-0.386,1.099-0.698c9.446-9.443,18.89-18.887,28.331-28.335
		c0.173-0.173,0.299-0.393,0.447-0.59c0.1,0,0.199,0,0.299,0c0.113,0.286,0.313,0.486,0.599,0.599c0,0.1,0,0.199,0.001,0.299
		c-0.445,0.395-0.911,0.767-1.331,1.187c-9.308,9.3-18.61,18.606-27.919,27.905c-0.419,0.418-0.769,0.925-1.351,1.157
		C98.37,74.796,98.458,74.271,98.481,73.753z"/>
	<path fill="#E4E2F0" d="M126.257,42.335c-0.748,0.031-1.086,0.656-1.529,1.098c-8.382,8.366-16.752,16.743-25.133,25.11
		c-0.411,0.41-0.729,0.974-1.407,1.031c-0.106-0.502-0.212-1.004-0.318-1.506c0.843,0.123,1.239-0.533,1.719-1.012
		c8.113-8.104,16.227-16.207,24.316-24.334c0.68-0.683,1.352-1.152,2.343-0.985C126.251,41.936,126.254,42.136,126.257,42.335z"/>
	<path fill="#EEECFB" d="M129.242,114.766c-0.612-0.672-1.224-1.344-1.835-2.016c3.048-3.435,6.422-6.549,9.666-9.789
		c0.122-0.122,0.364-0.122,0.551-0.179c-0.195,1.498-0.391,2.997-0.586,4.495c-0.1,0.201-0.201,0.401-0.301,0.602
		c-2.021,1.971-4.038,3.946-6.067,5.909C130.253,114.191,129.931,114.753,129.242,114.766z"/>
	<path fill="#E4E2F0" d="M5.664,58.802c0.507-0.001,0.794-0.363,1.109-0.678c7.661-7.66,15.321-15.32,22.977-22.984
		c0.172-0.172,0.296-0.393,0.442-0.591c0.5-0.396,1.001-0.792,1.501-1.189c0.299-0.003,0.598-0.006,0.898-0.009
		c0.001,0.636-0.502,0.947-0.879,1.325c-8.342,8.35-16.688,16.696-25.038,25.038c-0.378,0.378-0.689,0.88-1.325,0.879
		c-0.002-0.203-0.004-0.405-0.006-0.608C5.45,59.591,5.557,59.196,5.664,58.802z"/>
	<path fill="#EEECFB" d="M97.832,26.773c0.001,0.098,0.001,0.197,0.001,0.295c-2.62,2.571-5.239,5.142-7.86,7.711
		c-0.456,0.447-0.847,0.997-1.573,1.037c-0.166-1.213-0.332-2.427-0.498-3.64c2.314-1.888,4.237-4.178,6.407-6.214
		c0.423-0.397,0.733-0.973,1.425-0.986C96.433,25.575,97.132,26.174,97.832,26.773z"/>
	<path fill="#C6BEF1" d="M22.089,20.197c0.695,1.11,1.743,1.646,2.999,1.842c0.108,0.182,0.215,0.364,0.322,0.547
		c-0.198,0.207-0.397,0.413-0.595,0.62c-1.892,0.49-3.219,1.552-3.606,3.565c-0.193,0.215-0.387,0.431-0.58,0.646
		c-0.197-0.017-0.395-0.034-0.592-0.051c-0.388-1.127-0.642-2.333-1.786-3.011c-0.273-0.481-0.765-0.647-1.228-0.854
		c-0.351-0.321-1.117-0.173-1.144-0.791c-0.03-0.686,0.689-0.773,1.154-0.995c1.068-0.51,1.89-1.257,2.462-2.288
		c0.3-0.539,0.277-1.453,1.045-1.474c0.707-0.02,0.484,0.994,0.967,1.348C21.524,19.712,21.716,20.014,22.089,20.197z"/>
	<path fill="#6E6EAA" d="M123.786,140.505c-0.024-0.688,0.477-0.953,0.995-1.112c1.274-0.391,2.072-1.208,2.474-2.47
		c0.166-0.52,0.422-1.02,1.109-0.997c0.637,0.631,0.653,1.659,1.411,2.213c0.234,0.592,0.769,0.825,1.285,1.08
		c0.34,0.542,1.481,0.162,1.401,1.022c-0.065,0.698-0.954,0.729-1.481,1.034c-0.784,0.453-1.408,1.016-1.819,1.831
		c-0.277,0.549-0.318,1.43-1.024,1.492c-0.823,0.072-0.536-1.04-1.058-1.397c-0.167-0.485-0.349-0.959-0.865-1.189
		C125.69,141.051,124.474,141.203,123.786,140.505z"/>
	<path fill="#EEECFB" d="M87.571,30.701c-0.278-1.108-0.557-2.215-0.835-3.323c2.14-1.862,4.129-3.875,6.012-5.994
		c0.098,0,0.196,0.001,0.295,0.002c0.599,0.798,1.198,1.595,1.797,2.393c-2.152,2.198-4.298,4.401-6.467,6.582
		C88.183,30.552,87.842,30.591,87.571,30.701z"/>
	<path fill="#E4E2F0" d="M21.819,37.253c0.398-0.002,0.796-0.005,1.194-0.007c-2.723,2.773-5.429,5.562-8.173,8.313
		c-2.04,2.045-4.129,4.041-6.196,6.059c0.002-0.4,0.005-0.8,0.007-1.201C12.122,45.111,16.614,40.825,21.819,37.253z"/>
	<path fill="#E4E2F0" d="M134.637,87.821c-0.444-0.004-0.723,0.282-1.006,0.566c-5.164,5.169-10.33,10.337-15.492,15.508
		c-0.102,0.103-0.164,0.246-0.244,0.371c-0.21-0.166-0.42-0.333-0.629-0.499c-0.008-0.499,0.306-0.817,0.627-1.138
		c5.46-5.453,10.917-10.908,16.378-16.359c0.103-0.102,0.248-0.162,0.374-0.241c0.005,0.302,0.009,0.605,0.014,0.907
		C134.651,87.231,134.644,87.526,134.637,87.821z"/>
	<path fill="#EEECFB" d="M89.751,18.095c0.197,0.001,0.394,0.001,0.591,0.002c0.359,1.041,1.059,1.74,2.099,2.099
		c0.001,0.197,0.002,0.393,0.003,0.589c-0.627,0.001-0.932,0.498-1.309,0.868c-1.156,1.139-2.301,2.289-3.445,3.441
		c-0.418,0.421-0.807,0.883-1.496,0.776c-0.359-0.982-0.719-1.965-1.077-2.947C86.851,21.495,88.597,20.079,89.751,18.095z"/>
	<path fill="#E4E2F0" d="M88.864,47.422c0.446,0.01,0.721-0.281,1.004-0.564c4.771-4.776,9.543-9.551,14.311-14.329
		c0.102-0.102,0.16-0.248,0.238-0.374c0.199-0.001,0.397-0.001,0.596-0.002c0.125,0.246,0.348,0.301,0.596,0.308
		c0.001,0.099,0.001,0.199,0.001,0.298c-0.408,0.359-0.836,0.697-1.22,1.08c-4.711,4.702-9.414,9.413-14.128,14.112
		c-0.409,0.408-0.733,0.974-1.432,0.967C88.842,48.418,88.853,47.92,88.864,47.422z"/>
	<path fill="#EEECFB" d="M134.338,115.963c-1.03,0.637-1.05,1.946-1.827,2.751c-0.811-1.009-1.622-2.018-2.433-3.027
		c1.37-0.933,2.334-2.297,3.575-3.363c0.814-0.699,1.317-1.777,2.475-2.059c-0.382,1.417-0.781,2.83-1.466,4.138
		C134.402,114.9,134.307,115.414,134.338,115.963z"/>
	<path fill="#F4F4F4" d="M84.851,22.227c-0.648-1.138-1.272-2.288-1.705-3.531c0.754-0.016,1.05-0.688,1.547-1.075
		c0.691-0.538,1.067-1.476,2.064-1.623c0.886,0.238,1.494,0.865,2.096,1.5c-0.011,0.679-0.588,0.972-0.961,1.403
		C86.908,20.037,85.602,20.878,84.851,22.227z"/>
	<path fill="#F4F4F4" d="M32.591,33.352c-0.299,0.003-0.598,0.006-0.898,0.009c3.863-4.119,7.85-8.113,11.975-11.97
		c-0.003,0.399-0.006,0.799-0.008,1.199c-1.535,1.102-2.294,2.869-3.582,4.183c-1.901,0.968-3.079,2.713-4.503,4.193
		C35.018,32.307,33.553,32.515,32.591,33.352z"/>
	<path fill="#E4E2F0" d="M137.624,102.782c-0.186,0.057-0.429,0.057-0.551,0.179c-3.245,3.241-6.618,6.355-9.666,9.789
		c-0.301-0.316-0.602-0.632-0.903-0.948c2.902-2.511,5.449-5.386,8.213-8.038c0.967-0.928,1.945-1.847,2.917-2.769
		c0.004,0.301,0.008,0.602,0.012,0.903C137.639,102.193,137.631,102.488,137.624,102.782z"/>
	<path fill="#EEECFB" d="M81.963,12.999c0.302,0.102,0.604,0.205,0.906,0.307c0.874,0.743,1.776,1.431,2.988,1.503
		c0.002,0.195,0.003,0.39,0.005,0.586c-0.622,0.006-0.9,0.53-1.311,0.859c-0.636,0.51-0.997,1.363-1.907,1.53
		c-1.227-1.89-2.454-3.78-3.682-5.67C80.065,12.063,80.93,12.814,81.963,12.999z"/>
	<path fill="#E4E2F0" d="M87.571,30.701c0.271-0.11,0.612-0.15,0.801-0.34c2.169-2.181,4.315-4.385,6.467-6.582
		c0.1,0.001,0.199,0.001,0.299,0.001c0.113,0.284,0.31,0.484,0.594,0.598c0.001,0.199,0.001,0.399,0.002,0.598
		c-0.693,0.013-1.003,0.589-1.425,0.986c-2.169,2.036-4.093,4.326-6.407,6.214C87.559,31.737,87.678,31.194,87.571,30.701z"/>
	<path fill="#E4E2F0" d="M136.736,107.879c-0.001,0.397-0.002,0.795-0.003,1.192c-0.168,0.415-0.627,0.683-0.605,1.194
		c-1.159,0.282-1.662,1.36-2.476,2.059c-1.241,1.066-2.205,2.43-3.575,3.363c-0.279-0.307-0.557-0.613-0.836-0.92
		c0.689-0.013,1.011-0.576,1.427-0.978C132.699,111.825,134.715,109.85,136.736,107.879z"/>
	<path fill="#E4E2F0" d="M84.851,22.227c0.751-1.349,2.057-2.19,3.041-3.326c0.373-0.43,0.95-0.724,0.961-1.403
		c0.199,0.002,0.398,0.004,0.597,0.005c0.005,0.245,0.063,0.464,0.3,0.591c-1.154,1.984-2.899,3.4-4.633,4.829
		C85.028,22.692,84.94,22.459,84.851,22.227z"/>
	<path fill="#F4F4F4" d="M8.576,93.546C8.4,93.33,8.224,93.115,8.049,92.899c1.283-1.504,2.67-2.905,4.184-4.178
		c0.101,0.301,0.203,0.602,0.304,0.902C11.335,91.05,10.049,92.393,8.576,93.546z"/>
	<path fill="#E4E2F0" d="M43.66,22.589c0.003-0.4,0.006-0.799,0.008-1.199c1.511-1.082,2.807-2.379,3.89-3.89
		c0.399-0.003,0.799-0.006,1.198-0.008C47.176,19.31,45.477,21.009,43.66,22.589z"/>
	<path fill="#E4E2F0" d="M82.644,17.784c0.91-0.167,1.271-1.021,1.907-1.53c0.411-0.33,0.689-0.854,1.311-0.859
		c0.296,0.002,0.591,0.005,0.886,0.007c0.003,0.199,0.006,0.398,0.009,0.597c-0.997,0.147-1.374,1.085-2.064,1.623
		c-0.497,0.387-0.793,1.059-1.547,1.075C82.823,18.478,82.77,18.111,82.644,17.784z"/>
	<path fill="#FA9695" d="M62.301,75.264c0.384,0.083,0.771,0.153,1.152,0.25c3.258,0.825,3.257,0.826,3.255,4.216
		c-1.095,3.256-1.629,6.629-1.751,10.036c-0.223,6.226,2.374,11.461,6.054,16.269c0.588,0.768,1.139,1.072,1.8,0.088
		c0.192-0.287,0.463-0.519,0.679-0.791c6.13-7.703,6.596-16.291,3.963-25.364c0.154-1.248-0.506-2.834,0.333-3.668
		c0.748-0.743,2.265-0.715,3.444-1.019c0.14-0.036,0.292-0.021,0.439-0.03c0.184,1.009,0.369,2.019,0.553,3.028
		c0.036,0.392,0.072,0.784,0.108,1.175c0.191,1.39,0.382,2.779,0.573,4.169c0.025,0.474,0.05,0.948,0.075,1.422
		c-0.941,0.45-0.764,1.295-0.728,2.082c0.192,4.296-0.034,8.527-1.301,12.697c-1.3,4.282-3.939,7.657-6.815,10.918
		c-0.066,0.075-0.134,0.148-0.2,0.223c-2.05,2.326-2.031,2.311-3.995-0.058c-2.508-3.026-5.151-5.944-6.467-9.771
		c-1.577-4.585-2.2-9.276-1.7-14.096c0.095-0.911-0.05-1.563-0.873-1.997c0.038-0.568,0.075-1.135,0.113-1.703
		c0.259-0.472,0.339-0.975,0.259-1.506c0.376-1.684,0.671-3.379,0.753-5.106C62.117,76.239,62.209,75.752,62.301,75.264z"/>
	<path fill="#EEECFB" d="M131.96,77.613c1.205,0.55,2.156,1.329,2.439,2.709c-0.45,0.388-0.925,0.75-1.344,1.169
		c-6.139,6.127-12.269,12.264-18.408,18.392c-0.42,0.419-0.896,0.78-1.346,1.168c-0.936-0.584-1.872-1.168-2.808-1.752
		c0.284-0.198,0.603-0.359,0.844-0.6c6.663-6.649,13.317-13.306,19.973-19.961C131.628,78.421,131.969,78.118,131.96,77.613z"/>
	<path fill="#EEECFB" d="M48.157,83.693c1.598-0.04,2.653-0.848,3.441-2.216c1.475-2.562,3.466-4.711,5.595-6.747
		c0.918-0.878,1.753-1.39,2.943-0.438c0.488,0.391,1.149,0.566,1.729,0.841c-0.356,0.265-0.75,0.49-1.06,0.799
		c-5.589,5.574-11.169,11.157-16.749,16.74c-0.312,0.312-0.688,0.59-0.697,1.097c-2.693,1.222-5.386,2.443-8.079,3.665
		c-0.003-0.698,0.559-1.027,0.969-1.438c3.621-3.636,7.256-7.257,10.876-10.895C47.534,84.689,48.099,84.371,48.157,83.693z"/>
	<path fill="#EEECFB" d="M62.025,76.726c-0.082,1.727-0.377,3.422-0.753,5.106c-0.501,0.017-0.778,0.386-1.089,0.697
		c-2.478,2.475-4.955,4.951-7.428,7.43c-0.309,0.31-0.691,0.578-0.721,1.077c-2.092,0.625-4.185,1.25-6.277,1.875
		c-0.008-0.575,0.429-0.872,0.774-1.217c4.711-4.716,9.425-9.429,14.138-14.142C61.054,77.168,61.401,76.718,62.025,76.726z"/>
	<path fill="#E4E2F0" d="M137.338,59.39c0.349,0.218,0.287,0.572,0.298,0.902c-0.394,0.444-0.767,0.91-1.187,1.329
		c-10.803,10.811-21.612,21.616-32.414,32.428c-0.418,0.419-0.779,0.895-1.167,1.344c-0.283-0.136-0.566-0.272-0.849-0.409
		c0.004-0.574,0.447-0.866,0.793-1.212c11.239-11.244,22.48-22.485,33.724-33.723C136.78,59.806,137.07,59.609,137.338,59.39z"/>
	<path fill="#EEECFB" d="M92.489,81.814c0.53,0.779,1.239,1.346,2.079,1.758c-0.011,0.621-0.476,0.955-0.856,1.337
		c-1.435,1.441-2.878,2.874-4.31,4.318c-0.376,0.38-0.865,0.698-0.855,1.331c-1.017-0.174-2.033-0.352-3.051-0.519
		c-0.59-0.097-0.901-0.369-0.695-1.007c0.645-0.127,0.955-0.687,1.381-1.088C88.314,85.933,90.229,83.696,92.489,81.814z"/>
	<path fill="#E4E2F0" d="M131.96,77.613c0.009,0.505-0.332,0.808-0.65,1.126c-6.656,6.655-13.311,13.312-19.973,19.961
		c-0.241,0.24-0.56,0.401-0.844,0.6c-0.232-0.13-0.463-0.26-0.693-0.391c0.357-0.409,0.692-0.84,1.075-1.224
		c6.39-6.399,12.788-12.791,19.176-19.192c0.408-0.409,0.977-0.728,0.999-1.417C131.353,77.254,131.656,77.433,131.96,77.613z"/>
	<path fill="#E4E2F0" d="M113.3,101.051c0.45-0.388,0.927-0.75,1.346-1.168c6.139-6.127,12.269-12.264,18.408-18.392
		c0.419-0.418,0.895-0.78,1.344-1.169c0.175,0.309,0.349,0.619,0.523,0.929c-1.391,1.345-2.8,2.672-4.17,4.038
		c-5.069,5.053-10.128,10.117-15.182,15.185c-0.409,0.41-0.97,0.736-0.983,1.428C114.158,101.617,113.729,101.334,113.3,101.051z"/>
	<path fill="#EEECFB" d="M89.831,78.069c0.841,0.843,1.595,1.749,2.09,2.845c-2.014,1.563-3.611,3.559-5.481,5.27
		c-0.536,0.49-0.888,1.236-1.729,1.336c-0.148-0.875,0.014-1.87-0.941-2.433c-0.116-0.761,0.459-1.134,0.886-1.597
		C86.35,81.653,88.35,80.109,89.831,78.069z"/>
	<path fill="#E4E2F0" d="M62.025,76.726c-0.624-0.008-0.971,0.441-1.355,0.826c-4.714,4.713-9.428,9.425-14.138,14.142
		c-0.345,0.346-0.783,0.642-0.774,1.217c-0.8,0.286-1.599,0.572-2.399,0.858c0.009-0.507,0.385-0.785,0.697-1.097
		c5.58-5.583,11.16-11.166,16.749-16.74c0.31-0.309,0.704-0.534,1.06-0.799c0.146,0.043,0.291,0.087,0.436,0.131
		C62.209,75.752,62.117,76.239,62.025,76.726z"/>
	<path fill="#E4E2F0" d="M48.157,83.693c-0.058,0.678-0.623,0.996-1.033,1.408c-3.619,3.637-7.255,7.259-10.876,10.895
		c-0.41,0.411-0.972,0.74-0.969,1.438c-1.094,0.595-2.187,1.19-3.28,1.785c-0.016-0.703,0.557-1.024,0.964-1.433
		c4.316-4.332,8.647-8.65,12.962-12.983c0.408-0.409,0.981-0.721,1.022-1.407C47.35,83.496,47.753,83.594,48.157,83.693z"/>
	<path fill="#E4E2F0" d="M134.943,91.417c0.439,0.313,0.255,0.783,0.302,1.195c-3.898,3.947-7.786,7.903-11.701,11.832
		c-0.799,0.801-1.484,1.737-2.506,2.3c-0.266-0.213-0.532-0.427-0.798-0.64c2.106-1.736,3.916-3.779,5.844-5.697
		C129.066,97.44,131.993,94.417,134.943,91.417z"/>
	<path fill="#E4E2F0" d="M136.439,96.203c0.351,0.216,0.288,0.571,0.301,0.899c-3.689,3.738-7.38,7.473-11.063,11.218
		c-0.448,0.456-0.846,0.962-1.268,1.445c-0.19-0.192-0.381-0.384-0.571-0.576c0.016-0.362,0.141-0.673,0.403-0.933
		C128.309,104.24,132.374,100.221,136.439,96.203z"/>
	<path fill="#EEECFB" d="M61.013,83.338c-0.037,0.568-0.074,1.136-0.113,1.703c-1.634,0.05-1.591,1.397-1.54,2.367
		c0.099,1.88-0.651,2.629-2.471,2.659c-0.919,0.015-1.834,0.296-2.751,0.457c0.082-0.226,0.1-0.515,0.254-0.669
		C56.588,87.672,58.803,85.507,61.013,83.338z"/>
	<path fill="#E4E2F0" d="M61.013,83.338c-2.21,2.169-4.425,4.334-6.621,6.518c-0.154,0.153-0.173,0.443-0.254,0.669
		c-0.648,0.388-1.397,0.365-2.103,0.512c0.03-0.499,0.412-0.768,0.721-1.077c2.474-2.479,4.95-4.955,7.428-7.43
		c0.311-0.31,0.588-0.68,1.089-0.697C61.352,82.363,61.272,82.866,61.013,83.338z"/>
	<path fill="#E4E2F0" d="M84.711,87.52c0.841-0.1,1.193-0.846,1.729-1.336c1.87-1.711,3.467-3.707,5.481-5.27
		c0.306,0.227,0.493,0.528,0.568,0.9c-2.26,1.882-4.175,4.118-6.307,6.131c-0.426,0.402-0.736,0.961-1.381,1.088
		C84.771,88.529,84.741,88.025,84.711,87.52z"/>
	<path fill="#E4E2F0" d="M88.547,90.559c-0.011-0.633,0.478-0.951,0.855-1.331c1.432-1.444,2.876-2.877,4.31-4.318
		c0.38-0.382,0.845-0.716,0.856-1.337c0.491,0.038,0.982,0.076,1.473,0.114c-0.937,1.807-2.714,2.85-3.964,4.369
		c-0.774,0.94-2.018,1.49-2.335,2.807C89.327,90.827,88.886,90.892,88.547,90.559z"/>
	<path fill="#E4E2F0" d="M89.831,78.069c-1.481,2.04-3.481,3.584-5.175,5.421c-0.427,0.463-1.002,0.836-0.886,1.597
		c-0.265-0.014-0.529-0.028-0.793-0.042c-0.024-0.474-0.049-0.948-0.075-1.423c2.193-2.011,4.34-4.068,6.282-6.329
		C89.4,77.552,89.615,77.811,89.831,78.069z"/>
	<path fill="#D2D2E4" d="M114.009,104.864c-1.672-0.353-2.886-1.678-4.701-2.054c0.37-0.315,0.598-0.51,0.826-0.705
		C111.489,102.936,113.043,103.487,114.009,104.864z"/>
	<path fill="#FA9695" d="M125.678,114.716c-0.397,0.779-0.826,0.723-1.138-0.025c-0.2-0.478-0.243-1.022-0.356-1.538
		C124.681,113.673,125.179,114.194,125.678,114.716z"/>
	<path fill="#D2D2E4" d="M114.72,105.158c-0.283,0.012-0.566,0.025-0.716-0.291C114.326,104.759,114.529,104.944,114.72,105.158z"/>
	<path fill="#BBC0D1" d="M84.36,96.498c-0.023,0.039-0.047,0.079-0.07,0.118c0.027-0.035,0.054-0.071,0.081-0.106
		C84.371,96.51,84.36,96.498,84.36,96.498z"/>
	<path fill="#FEFEFE" d="M78.377,135.714c-0.135,0.09-0.271,0.18-0.406,0.27C78.106,135.894,78.241,135.804,78.377,135.714z"/>
	<path fill="#FBED7D" d="M77.453,79.967c2.633,9.072,2.167,17.661-3.963,25.364c-0.216,0.272-0.487,0.505-0.679,0.791
		c-0.661,0.984-1.212,0.68-1.8-0.088c-3.68-4.808-6.277-10.043-6.054-16.269c0.122-3.407,0.656-6.78,1.751-10.036
		c0.417,1.3,1.055,2.463,2.103,3.37c-0.496,2.698-0.67,5.382,0.363,8.01c0.148,0.494,0.352,0.956,0.751,1.306
		c0.137,0.987,0.895,1.626,1.372,2.42c0.383,0.637,0.783,0.569,1.24-0.033c1.776-2.336,3.044-4.841,2.86-7.882
		c-0.014-0.496-0.027-0.992-0.041-1.488c0.151-0.734-0.245-1.393-0.283-2.101C76.183,82.434,76.923,81.275,77.453,79.967z"/>
	<path fill="#EEECFB" d="M12.836,89.625c0.359-0.41,0.695-0.842,1.079-1.226c13.17-13.178,26.343-26.352,39.524-39.518
		c0.477-0.477,0.843-1.15,1.655-1.17c0.265,1.389,0.298,2.791,0.223,4.199c-0.746,0.042-1.084,0.667-1.528,1.11
		C40.947,65.847,28.116,78.684,15.274,91.511c-0.444,0.444-0.785,1.065-1.53,1.109C13.442,91.622,13.139,90.624,12.836,89.625z"/>
	<path fill="#EEECFB" d="M10.944,97.141c-0.4-0.042-0.648-0.284-0.824-0.622c1.205-1.102,2.409-2.204,3.614-3.306
		c0.674,1.545,1.15,0.159,1.491-0.18c12.958-12.914,25.89-25.854,38.831-38.786c0.419-0.419,0.895-0.78,1.345-1.168
		c0.299,1.017,0.18,2.068,0.263,3.103c0.047,0.587-0.229,0.886-0.714,1.157c-3.947,2.198-6.79,5.392-8.538,9.56
		c-0.778-0.046-1.112,0.599-1.552,1.039c-9.666,9.65-19.32,19.311-28.985,28.961c-0.444,0.444-0.785,1.064-1.529,1.11
		c-0.006-0.794,0.022-1.59-0.033-2.38c-0.023-0.326-0.135-0.776-0.365-0.927c-0.365-0.24-0.562,0.251-0.805,0.457
		C12.387,95.795,11.844,96.665,10.944,97.141z"/>
	<path fill="#EEECFB" d="M57.106,27.672c-0.465,1.999-0.929,3.999-1.394,5.998c-0.775-0.049-1.116,0.586-1.556,1.025
		c-6.829,6.813-13.648,13.634-20.464,20.459c-0.489,0.49-0.936,1.022-1.403,1.534c-1.035-0.515-2.08-0.991-3.28-0.912
		c-0.001-0.639,0.515-0.94,0.891-1.317c8.625-8.635,17.256-17.265,25.891-25.891C56.167,28.192,56.471,27.681,57.106,27.672z"/>
	<path fill="#C6BEF1" d="M75.028,62.659c0.019,5.333,0.056,10.666,0.048,15.999c-0.003,1.695-1.427,3.131-2.979,3.136
		c-1.625,0.005-2.97-1.414-2.985-3.286c-0.034-4.137-0.015-8.275-0.009-12.412c0.002-1.146,0.035-2.291,0.053-3.437
		C71.113,61.327,73.07,61.502,75.028,62.659z"/>
	<path fill="#EEECFB" d="M93.912,60.969c-0.801-0.705-1.602-1.409-2.402-2.114c0.39-0.447,0.754-0.918,1.172-1.337
		c6.637-6.647,13.283-13.285,19.917-19.936c0.441-0.442,1.066-0.779,1.093-1.529c0.1,0,0.201-0.001,0.301-0.001
		c1.065,0.793,2.357,0.904,3.589,1.194c0.001,0.099,0.001,0.199,0.002,0.298c-0.685,0.015-0.994,0.584-1.416,0.975
		c-1.91,1.772-3.558,3.816-5.638,5.412c-0.797-0.643-1.093,0.02-1.275,0.574c-0.542,1.642-1.61,2.696-3.242,3.235
		c-0.611,0.202-1.141,0.525-0.592,1.296c-1.114,1.593-2.65,2.787-3.969,4.186C98.981,55.845,96.229,58.195,93.912,60.969z"/>
	<path fill="#EEECFB" d="M90.637,58.231c-0.694-0.408-1.389-0.817-2.083-1.225c-0.081-0.1-0.162-0.2-0.243-0.301
		c0.028-0.397,0.055-0.794,0.083-1.19c0.644-0.129,0.966-0.679,1.38-1.092c5.962-5.947,11.911-11.905,17.871-17.854
		c0.596-0.595,1.238-1.145,1.858-1.716c0.1-0.001,0.201-0.001,0.301-0.002c1.027,0.201,1.896,0.926,2.99,0.902
		c0.001,0.098,0.001,0.196,0.002,0.295c-0.233,0.184-0.487,0.346-0.696,0.554c-6.943,6.936-13.883,13.875-20.818,20.819
		C91.04,57.663,90.851,57.959,90.637,58.231z"/>
	<path fill="#EEECFB" d="M55.531,35.39c-0.167,1.616-0.334,3.233-0.501,4.849c-0.691,0.015-1.012,0.58-1.421,0.988
		c-5.726,5.713-11.441,11.437-17.167,17.15c-0.664,0.663-1.374,1.28-2.063,1.918c-0.398-0.897-0.797-1.795-1.195-2.692
		c-0.005-0.574,0.428-0.874,0.774-1.221c6.729-6.733,13.461-13.462,20.188-20.197C54.541,35.79,54.932,35.417,55.531,35.39z"/>
	<path fill="#EEECFB" d="M88.831,48.917c0.698,0.007,1.022-0.559,1.432-0.967c4.714-4.7,9.416-9.41,14.128-14.112
		c0.384-0.383,0.812-0.721,1.22-1.08c0.888,0.518,1.913,0.787,2.696,1.493c-0.112,0.162-0.202,0.346-0.339,0.483
		c-6.104,6.112-12.211,12.219-18.318,18.327c-0.316,0.316-0.612,0.665-1.119,0.65C88.549,52.108,88.462,50.498,88.831,48.917z"/>
	<path fill="#EDF4FC" d="M58.616,59.699c-0.512-1.251-0.377-2.588-0.52-3.888c0.616-0.051,0.906-0.563,1.292-0.927
		c1.149-1.084,2.285-2.181,3.426-3.274c0.229,0.764,0.346,1.537,0.316,2.341c-0.014,0.365-0.215,0.884,0.24,1.073
		c0.449,0.186,0.672-0.318,0.939-0.575c2.102-2.036,4.191-4.085,6.284-6.131c0.06,0.323-0.126,0.69,0.241,1.042
		c0.39-0.367,0.788-0.727,1.171-1.103c3.021-2.967,6.04-5.937,9.059-8.907c0.024,1.303,0.047,2.605,0.07,3.908
		c-0.022,0.291-0.043,0.583-0.064,0.874c-0.694,0.013-1.012,0.584-1.426,0.99c-3.021,2.956-6.03,5.925-9.043,8.89
		c-0.001-0.891,0.016-1.783-0.013-2.673c-0.012-0.367,0.206-0.892-0.271-1.052c-0.43-0.145-0.663,0.343-0.933,0.606
		c-2.094,2.031-4.177,4.073-6.264,6.112c-0.055-0.323,0.117-0.685-0.52-1.342c-0.367,0.539-0.642,1.164-1.105,1.577
		C60.553,58.077,59.95,59.322,58.616,59.699z"/>
	<path fill="#EDF4FC" d="M80.743,62.007c-0.187,0.066-0.372,0.139-0.562,0.198c-2.648,0.819-2.648,0.818-2.687-1.864
		c-0.045-3.065-2.091-5.119-5.496-5.518c0.087-0.39,0.187-0.764,0.489-1.061c2.863-2.808,5.722-5.621,8.582-8.433
		c0.012,1.302,0.025,2.604,0.036,3.906c-0.012,0.594-0.025,1.188-0.037,1.781c0.191,1.518-0.484,2.989-0.242,4.51
		c-0.014,0.587-0.028,1.174-0.041,1.761C80.772,58.86,80.757,60.433,80.743,62.007z"/>
	<path fill="#9CAFC9" d="M85.289,63.022c-0.164,2.393,0.159,4.476-0.293,6.554c-0.138,0.633-0.347,1.132-0.825,1.513
		c-1.675,1.336-3.63,2.011-5.715,2.361c-0.705,0.118-0.987-0.19-0.977-0.909c0.026-2.091,0.028-4.184,0.001-6.275
		c-0.009-0.687,0.328-1.028,0.931-1.129C80.711,64.753,82.956,64.18,85.289,63.022z"/>
	<path fill="#E4E2F0" d="M55.4,53.079c-0.45,0.388-0.926,0.749-1.345,1.168C41.114,67.178,28.182,80.118,15.224,93.032
		c-0.34,0.339-0.816,1.726-1.491,0.18c0.004-0.197,0.008-0.395,0.012-0.592c0.744-0.044,1.085-0.665,1.53-1.109
		C28.116,78.684,40.947,65.847,53.789,53.02c0.444-0.443,0.782-1.068,1.528-1.11C55.345,52.299,55.372,52.689,55.4,53.079z"/>
	<path fill="#C6BEF1" d="M94.501,80.107c-2.04-2.804-4.094-5.596-6.81-7.809c-0.303-0.247-0.424-0.53-0.35-0.909
		c0.507-2.582,0.379-5.219,0.667-7.82c2.321,1.413,3.888,3.495,5.025,5.891C94.637,72.839,94.368,76.508,94.501,80.107z"/>
	<path fill="#C6BEF1" d="M55.855,63.566c0.647,2.607-0.061,5.364,0.881,7.941c0.15,0.41-0.209,0.633-0.46,0.856
		c-2.493,2.222-4.646,4.743-6.583,7.455c-0.26-3.264,0.364-6.45,0.856-9.647l-0.001,0c0.245-0.128,0.291-0.358,0.307-0.603
		c0.369-0.811,1.053-1.465,1.188-2.392C53.382,66.045,54.037,64.191,55.855,63.566z"/>
	<path fill="#EEECFB" d="M96.312,64.196c-0.585-0.812-1.171-1.623-1.756-2.435c3.545-3.591,7.093-7.179,10.63-10.777
		c0.439-0.446,1.044-0.799,1.041-1.55c1.386,0.295,2.266,1.144,2.707,2.473c-0.483,0.425-0.985,0.831-1.446,1.279
		C103.733,56.825,100.194,60.684,96.312,64.196z"/>
	<path fill="#DFDBF5" d="M94.501,80.107c-0.132-3.599,0.137-7.268-1.467-10.647c-1.137-2.396-2.705-4.478-5.025-5.891
		c-0.147-1.248,0.011-2.467,0.338-3.828c4.113,2.624,7.013,5.945,7.427,10.948c0.246,2.972,0.426,5.949,0.602,8.926
		c0.031,0.527,0.52,1.272-0.355,1.534C95.179,81.401,94.736,80.854,94.501,80.107z"/>
	<path fill="#E4E2F0" d="M131.647,47.424c0.101,0.199,0.203,0.398,0.304,0.597c-0.359,0.409-0.697,0.839-1.081,1.223
		c-10.098,10.106-20.199,20.209-30.309,30.303c-0.443,0.442-0.781,1.067-1.531,1.096c-0.042-0.377-0.085-0.754-0.127-1.13
		c0.616-0.267,1.004-0.804,1.458-1.257c9.92-9.912,19.833-19.83,29.757-29.739C130.56,48.076,130.898,47.451,131.647,47.424z"/>
	<path fill="#E4E2F0" d="M14.344,98.008c0.743-0.046,1.084-0.666,1.529-1.11c9.665-9.65,19.319-19.311,28.985-28.961
		c0.44-0.439,0.774-1.085,1.552-1.039c-0.163,0.678-0.326,1.357-0.487,2.035c-0.806,0.002-1.206,0.636-1.689,1.119
		c-9.56,9.552-19.112,19.112-28.684,28.653c-0.399,0.397-0.669,1.242-1.541,0.779c0.006-0.195,0.013-0.39,0.02-0.584
		C14.134,98.602,14.239,98.305,14.344,98.008z"/>
	<path fill="#C6BEF1" d="M71.505,8.822c0.492-0.666,0.852-0.169,1.186,0.163c0.977,0.973,2.021,1.89,2.721,3.107
		c0.501,2.389,1.645,4.559,2.354,6.877c-2.131,0.766-4.318,1.109-6.582,0.88c0.005-3.17,0.203-6.328,0.576-9.477
		C71.821,9.858,71.985,9.271,71.505,8.822z"/>
	<path fill="#EDF4FC" d="M58.038,54.305c-0.081-1.394-0.39-2.775-0.25-4.182c0.616-0.044,0.908-0.554,1.293-0.919
		c1.251-1.187,2.488-2.387,3.731-3.582c0.002,0.938-0.01,1.877,0.012,2.815c0.007,0.321-0.159,0.765,0.261,0.915
		c0.388,0.138,0.6-0.262,0.831-0.494c1.876-1.885,3.741-3.78,5.61-5.672c2.149,0.617,4.21,0.431,6.172-0.673
		c0.003,0.367-0.119,0.68-0.386,0.938c-1.571,1.523-3.141,3.049-4.711,4.574c0-1.312,0-2.625,0-4.255
		c-2.76,2.678-5.27,5.112-7.779,7.546c0.002-1.022-0.345-0.934-0.997-0.374C60.543,52.042,59.688,53.623,58.038,54.305z"/>
	<path fill="#E4E2F0" d="M15.232,110.571c-0.001-0.299-0.001-0.599-0.002-0.898c0.324-0.374,0.627-0.769,0.976-1.118
		c9.152-9.16,18.306-18.316,27.469-27.465c0.412-0.411,0.73-0.971,1.398-1.054c0.02,0.503,0.041,1.005,0.061,1.508
		c-0.746,0.04-1.081,0.668-1.524,1.11c-8.953,8.936-17.893,17.885-26.846,26.821C16.32,109.917,15.982,110.542,15.232,110.571z"/>
	<path fill="#E4E2F0" d="M57.106,27.672c-0.635,0.009-0.939,0.519-1.316,0.896c-8.635,8.625-17.265,17.256-25.891,25.891
		c-0.376,0.376-0.892,0.677-0.891,1.317c-0.505,0.003-1.011,0.007-1.516,0.01c0.02-0.63,0.522-0.939,0.9-1.318
		c9.333-9.341,18.67-18.679,28.012-28.012c0.378-0.377,0.687-0.883,1.324-0.882C57.521,26.274,57.314,26.973,57.106,27.672z"/>
	<path fill="#9CAFC9" d="M65.247,73.394c-1.388-0.165-2.664-0.655-3.928-1.239c-1.625-0.75-2.534-1.766-2.474-3.747
		c0.052-1.703-0.332-3.425-0.171-5.258c1.623,0.563,3.188,1.106,4.753,1.649C63.533,67.771,62.669,70.946,65.247,73.394z"/>
	<path fill="#DFDBF5" d="M71.505,8.822c0.48,0.449,0.316,1.036,0.255,1.549c-0.373,3.149-0.571,6.307-0.576,9.477
		c-1.655,0.062-3.25-0.211-4.783-0.842c-0.064-0.877,0.344-1.629,0.604-2.428c0.487-1.5,1.337-2.881,1.489-4.49
		C69.362,10.874,70.308,9.733,71.505,8.822z"/>
	<path fill="#E4E2F0" d="M55.531,35.39c-0.599,0.026-0.99,0.4-1.384,0.795c-6.727,6.735-13.46,13.464-20.188,20.197
		c-0.347,0.347-0.779,0.648-0.774,1.221c-0.396-0.209-0.698-0.511-0.896-0.914c0.467-0.512,0.914-1.044,1.403-1.534
		c6.816-6.825,13.636-13.647,20.464-20.459c0.44-0.439,0.781-1.075,1.556-1.025C55.652,34.244,55.592,34.817,55.531,35.39z"/>
	<path fill="#FEFEFE" d="M63.12,57.003c2.087-2.039,4.17-4.081,6.264-6.112c0.271-0.262,0.504-0.75,0.933-0.606
		c0.477,0.16,0.259,0.685,0.271,1.052c0.029,0.89,0.012,1.782,0.013,2.673c-0.168,0.415-0.644,0.675-0.6,1.196
		c-1.312,0.684-2.269,1.723-2.997,2.991c-1.206,0.303-1.707,1.458-2.594,2.147c-0.304,0.237-0.546,0.651-1.014,0.426
		c-0.4-0.192-0.267-0.606-0.274-0.935c-0.019-0.846-0.009-1.693-0.011-2.54C63.114,57.198,63.116,57.1,63.12,57.003z"/>
	<path fill="#E4E2F0" d="M90.637,58.231c0.214-0.271,0.403-0.568,0.646-0.81c6.935-6.944,13.875-13.883,20.818-20.819
		c0.208-0.208,0.463-0.37,0.696-0.554c0.299,0.002,0.597,0.003,0.896,0.005c-0.027,0.749-0.652,1.086-1.093,1.529
		c-6.633,6.651-13.28,13.289-19.917,19.936c-0.418,0.418-0.783,0.89-1.172,1.337C91.219,58.647,90.928,58.439,90.637,58.231z"/>
	<path fill="#FEFEFE" d="M75.073,83.332c0.038,0.708,0.434,1.368,0.284,2.101c-1.033,0.992-2.035,2.019-3.108,2.966
		c-1.024,0.904-1.722,2.18-3.074,2.71c-1.033-2.629-0.86-5.312-0.364-8.01C70.852,84.423,72.94,84.479,75.073,83.332z"/>
	<path fill="#E4E2F0" d="M88.529,53.712c0.507,0.014,0.804-0.334,1.119-0.65c6.107-6.108,12.215-12.216,18.318-18.327
		c0.137-0.137,0.227-0.321,0.339-0.483c0.099-0.001,0.198-0.002,0.297-0.005c0.3,0.202,0.6,0.404,0.9,0.606
		c-0.621,0.571-1.262,1.121-1.858,1.716c-5.96,5.949-11.909,11.907-17.871,17.854c-0.414,0.413-0.736,0.962-1.38,1.092
		C88.439,54.914,88.484,54.313,88.529,53.712z"/>
	<path fill="#E4E2F0" d="M34.379,60.295c0.689-0.638,1.399-1.255,2.063-1.918c5.725-5.714,11.44-11.438,17.167-17.15
		c0.409-0.408,0.73-0.973,1.421-0.988c-0.004,0.5-0.009,1-0.013,1.5c-0.693,0.019-1.012,0.59-1.422,1
		c-5.926,5.911-11.841,11.835-17.766,17.747c-0.411,0.41-0.734,0.974-1.42,1.011c-0.012-0.297-0.024-0.595-0.037-0.892
		C34.374,60.501,34.376,60.398,34.379,60.295z"/>
	<path fill="#DFDBF5" d="M55.855,63.566c-1.818,0.625-2.473,2.479-3.812,3.61c-0.848,0.069-1.171,0.845-1.737,1.292
		c-0.642,0.507-1.017,1.382-1.986,1.435c0.549-4.452,3.218-7.45,6.749-9.863c0.542-0.37,0.822-0.27,0.82,0.401
		C55.887,61.484,55.868,62.525,55.855,63.566z"/>
	<path fill="#EDF4FC" d="M59.377,28.901c0.62-2.72,1.727-5.254,2.931-7.755c0.326-0.677,0.685-0.862,1.381-0.502
		c1.328,0.687,2.809,0.938,4.218,1.396c-0.739,1.513-2.099,2.448-3.292,3.538c-0.032-0.521-0.005-1.17-0.788-0.539
		c-0.425,0.342-0.754,0.805-1.181,1.144C61.535,27.064,60.912,28.533,59.377,28.901z"/>
	<path fill="#FEFEFE" d="M64.615,25.578c1.193-1.09,2.553-2.025,3.292-3.538c0.994,0.097,1.989,0.194,2.983,0.291
		c-0.052,0.673,0.209,1.402-0.378,1.976c-2.268,2.218-4.532,4.438-6.798,6.657c-0.11-1.636,0.41-3.194,0.595-4.794
		C64.411,25.973,64.513,25.775,64.615,25.578z"/>
	<path fill="#EDF4FC" d="M73.591,22.342c1.469-0.272,2.938-0.544,4.407-0.815c0.131-0.037,0.261-0.076,0.392-0.114
		c0.096-0.01,0.192-0.014,0.288-0.015c-0.002,0.394-0.004,0.789-0.006,1.183c-1.535,0.62-2.41,2.007-3.505,3.112
		c-1.275,1.286-2.83,2.333-3.678,4.014c-0.297,0.022-0.594,0.044-0.891,0.066c-0.182-1.418,0.288-2.789,0.297-4.194
		C71.597,24.337,73.099,23.76,73.591,22.342z"/>
	<path fill="#EDF4FC" d="M64.309,26.17c-0.185,1.599-0.705,3.157-0.595,4.794c-0.1,0.2-0.2,0.401-0.3,0.601
		c-1.025,0.975-2.022,1.981-3.085,2.914c-0.752,0.66-1.212,1.698-2.348,1.879c0.049-1.845,0.365-3.643,0.931-5.398
		c0.638,0.011,0.94-0.499,1.326-0.868C61.6,28.79,62.953,27.478,64.309,26.17z"/>
	<path fill="#C7D4E3" d="M65.247,73.394c-2.578-2.447-1.714-5.623-1.819-8.594c3.283,0.468,3.283,0.468,3.281,3.676
		c-0.001,1.288-0.084,2.582,0.023,3.861C66.843,73.67,66.329,73.867,65.247,73.394z"/>
	<path fill="#EEECFB" d="M89.184,77.293c-1.941,2.261-4.089,4.318-6.282,6.329c-0.191-1.39-0.382-2.779-0.573-4.169
		c0.612-0.045,0.897-0.556,1.288-0.911c1.198-1.085,2.182-2.395,3.518-3.335C87.919,75.804,88.607,76.495,89.184,77.293z"/>
	<path fill="#EDF4FC" d="M57.499,42.924c-0.145-1.605,0.061-3.189,0.276-4.773c0.619-0.035,0.912-0.542,1.296-0.908
		c1.354-1.29,2.695-2.592,4.042-3.89c0.173,1.514-0.244,2.99-0.294,4.489c-0.001,0.102-0.002,0.203-0.003,0.305
		c-0.682,0.632-1.342,1.289-2.05,1.89C59.658,40.979,58.917,42.335,57.499,42.924z"/>
	<path fill="#DFDBF5" d="M75.028,62.659c-1.958-1.157-3.915-1.332-5.872,0.001c-0.017-0.844-0.093-1.692-0.039-2.531
		c0.108-1.675,1.436-2.876,3.048-2.836c1.552,0.039,2.804,1.224,2.905,2.836C75.123,60.968,75.046,61.815,75.028,62.659z"/>
	<path fill="#C7D4E3" d="M81.107,49.235c-0.012-1.302-0.025-2.604-0.037-3.906c0.011-0.207,0.021-0.415,0.032-0.622
		c0.796-0.035,1.095-0.756,1.609-1.177c1.27-1.041,2.112-2.565,3.68-3.272c0.007,1.487,0.013,2.974,0.02,4.461
		c-1.149,0.366-1.673,1.468-2.545,2.16C82.918,47.631,82.347,48.825,81.107,49.235z"/>
	<path fill="#C7D4E3" d="M80.828,55.526c-0.242-1.521,0.432-2.992,0.242-4.51c0.823-0.774,1.617-1.582,2.476-2.314
		c0.958-0.816,1.562-2.047,2.862-2.463c-0.099,1.588-0.199,3.176-0.298,4.764c-0.811,0.128-1.151,0.865-1.704,1.325
		C83.175,53.35,82.334,54.809,80.828,55.526z"/>
	<path fill="#EDF4FC" d="M57.727,48.621c-0.234-1.386-0.328-2.778-0.211-4.181c0.605-0.063,0.894-0.568,1.276-0.932
		c1.347-1.283,2.681-2.58,4.021-3.871c0.002,1.401,0.003,2.802,0.005,4.202C61.202,45.52,59.812,47.44,57.727,48.621z"/>
	<path fill="#C7D4E3" d="M80.743,62.007c0.014-1.573,0.029-3.147,0.043-4.72c0.748-0.7,1.469-1.431,2.25-2.092
		c1.03-0.872,1.693-2.163,3.045-2.664c-0.098,1.584-0.195,3.169-0.292,4.753c-1.851,1.231-3.328,2.844-4.682,4.583
		C80.986,61.914,80.864,61.96,80.743,62.007z"/>
	<path fill="#C7D4E3" d="M81.134,43.257c-0.024-1.303-0.047-2.605-0.071-3.908c0.01-0.108,0.02-0.215,0.03-0.322
		c0.546-0.499,1.073-1.021,1.641-1.493c1.05-0.871,1.72-2.181,3.096-2.673c0.158,1.394,0.465,2.775,0.365,4.191
		c-0.762-0.007-1.063,0.659-1.545,1.058C83.439,41.115,82.627,42.566,81.134,43.257z"/>
	<path fill="#DFDBF5" d="M50.549,70.171c-0.492,3.197-1.116,6.383-0.856,9.647c-0.164,0.301-0.293,0.628-0.5,0.895
		c-0.283,0.366-0.663,0.614-1.16,0.456c-0.555-0.175-0.543-0.646-0.506-1.096c0.23-2.801,0.202-5.622,0.638-8.407
		C49.233,71.603,49.463,70.204,50.549,70.171z"/>
	<path fill="#E4E2F0" d="M101.124,29.763c0.201,0.2,0.401,0.4,0.602,0.6c-4.084,4.125-8.167,8.253-12.26,12.369
		c-0.125,0.126-0.36,0.141-0.544,0.209c-0.01-0.502-0.021-1.005-0.031-1.507c0.689-0.028,1.001-0.603,1.413-1.007
		C93.918,36.878,97.519,33.319,101.124,29.763z"/>
	<path fill="#E4E2F0" d="M96.312,64.196c3.882-3.511,7.421-7.37,11.176-11.01c0.462-0.447,0.963-0.854,1.446-1.279
		c0.153,0.369,0.307,0.739,0.46,1.108c-0.925,0.451-1.511,1.286-2.213,1.982c-3.046,3.015-6.066,6.058-9.102,9.083
		c-0.384,0.383-0.709,0.846-1.254,1.039C96.653,64.811,96.483,64.503,96.312,64.196z"/>
	<path fill="#EDF4FC" d="M63.112,57.295c0.002,0.847-0.008,1.694,0.011,2.54c0.007,0.33-0.126,0.743,0.274,0.935
		c0.467,0.225,0.71-0.19,1.014-0.426c0.886-0.69,1.388-1.844,2.594-2.147c-0.28,1.158-0.375,2.338-0.278,3.518
		c0.076,0.926-0.362,1.146-1.134,0.954c-1.995-0.494-4.049-0.831-5.792-2.044C60.768,59.381,61.89,58.289,63.112,57.295z"/>
	<path fill="#E4E2F0" d="M106.227,49.434c0.003,0.751-0.602,1.104-1.041,1.55c-3.537,3.598-7.085,7.186-10.63,10.777
		c-0.214-0.264-0.429-0.528-0.644-0.792c2.317-2.774,5.069-5.124,7.541-7.747c1.319-1.399,2.855-2.593,3.968-4.186
		C105.69,49.169,105.959,49.301,106.227,49.434z"/>
	<path fill="#C7D4E3" d="M84.74,30.367c0.438,0.841,0.663,1.727,0.558,2.681c-1.238,1.369-2.469,2.746-3.919,3.902
		c-0.104,0.002-0.207,0.004-0.311,0.006c-0.54-1.162-0.196-2.398-0.301-3.596C82.166,32.461,82.942,30.736,84.74,30.367z"/>
	<path fill="#EEECFB" d="M63.414,31.565c0.1-0.2,0.2-0.401,0.3-0.601c2.266-2.219,4.531-4.44,6.798-6.657
		c0.587-0.574,0.326-1.303,0.378-1.976c0.9,0.004,1.8,0.008,2.701,0.011c-0.492,1.418-1.994,1.995-2.696,3.238
		c-0.442,0.391-0.9,0.766-1.323,1.177c-2.057,1.996-4.104,4.001-6.155,6.003C63.416,32.361,63.415,31.963,63.414,31.565z"/>
	<path fill="#E4E2F0" d="M81.102,44.707c-0.011,0.207-0.021,0.415-0.032,0.622c-2.86,2.812-5.718,5.625-8.582,8.433
		c-0.303,0.297-0.403,0.672-0.489,1.061c-0.667,0.128-1.332,0.256-1.998,0.383c-0.044-0.521,0.432-0.781,0.6-1.196
		c3.013-2.965,6.022-5.933,9.043-8.889c0.414-0.405,0.732-0.977,1.426-0.99C81.081,44.323,81.091,44.515,81.102,44.707z"/>
	<path fill="#C7D4E3" d="M83.424,25.288c0.355,1.083,0.852,2.121,0.998,3.268c-0.413,0.349-0.82,0.704-1.238,1.045
		c-0.907,0.74-1.475,1.876-2.67,2.278c-0.21-1.306-0.419-2.611-0.628-3.917c0.739-0.026,1.024-0.692,1.514-1.07
		C82.083,26.367,82.447,25.44,83.424,25.288z"/>
	<path fill="#E4E2F0" d="M88.4,35.816c0.725-0.04,1.117-0.59,1.573-1.037c2.621-2.569,5.24-5.141,7.86-7.711
		c0.2,0.2,0.401,0.4,0.601,0.601c-3.054,3.099-6.106,6.201-9.171,9.289c-0.158,0.159-0.436,0.199-0.658,0.294
		C88.537,36.774,88.468,36.295,88.4,35.816z"/>
	<path fill="#E4E2F0" d="M57.727,48.621c2.085-1.181,3.476-3.101,5.09-4.782c1.239-1.007,2.377-2.113,3.354-3.379
		c0.276,0.206,0.497,0.45,0.561,0.804c-1.003,1.726-2.797,2.74-3.921,4.358c-1.243,1.195-2.481,2.395-3.731,3.582
		c-0.385,0.365-0.677,0.874-1.293,0.919C57.768,49.623,57.747,49.122,57.727,48.621z"/>
	<path fill="#C7D4E3" d="M81.615,21.102c0.438,1.098,1.118,2.093,1.377,3.266c-1.476,0.237-1.918,1.818-3.125,2.404
		c-0.299-1.095-0.599-2.19-0.898-3.285c0.007-0.106,0.013-0.211,0.02-0.317C80.004,22.66,80.411,21.375,81.615,21.102z"/>
	<path fill="#9CAFC9" d="M77.766,18.969c-0.71-2.318-1.853-4.487-2.354-6.877c1.754,1.504,2.861,3.507,4.143,5.375
		c0.283,0.412,0.212,0.739-0.276,0.931C78.777,18.597,78.343,18.972,77.766,18.969z"/>
	<path fill="#C6BEF1" d="M68.494,12.088c-0.153,1.61-1.003,2.99-1.489,4.49c-0.259,0.799-0.668,1.552-0.604,2.428
		c-0.576,0.031-1.022-0.32-1.522-0.516c-0.599-0.235-0.731-0.574-0.372-1.132C65.705,15.502,66.82,13.584,68.494,12.088z"/>
	<path fill="#EEECFB" d="M82.222,78.278c-0.184-1.009-0.369-2.019-0.553-3.028c0.964-0.457,1.939-0.892,2.889-1.376
		c0.965-0.491,1.432,0.15,1.924,0.777c-0.636-0.006-0.935,0.508-1.333,0.868C84.154,76.418,83.347,77.517,82.222,78.278z"/>
	<path fill="#E4E2F0" d="M86.195,25.871c0.689,0.107,1.078-0.356,1.496-0.776c1.144-1.151,2.288-2.302,3.445-3.441
		c0.376-0.371,0.682-0.868,1.309-0.868c0.239,0.13,0.294,0.353,0.303,0.599c-1.883,2.119-3.872,4.133-6.012,5.994
		C86.416,26.926,86.273,26.41,86.195,25.871z"/>
	<path fill="#E4E2F0" d="M63.414,31.565c0.001,0.398,0.002,0.796,0.003,1.194c-0.101,0.198-0.202,0.396-0.303,0.594
		c-1.346,1.298-2.688,2.6-4.042,3.89c-0.383,0.365-0.677,0.873-1.296,0.908c-0.064-0.613-0.074-1.219,0.205-1.793
		c1.136-0.181,1.596-1.219,2.348-1.879C61.392,33.546,62.389,32.54,63.414,31.565z"/>
	<path fill="#E4E2F0" d="M64.309,26.17c-1.356,1.308-2.709,2.62-4.071,3.922c-0.386,0.368-0.688,0.879-1.326,0.868
		c-0.055-0.734,0.202-1.398,0.466-2.059c1.534-0.368,2.157-1.837,3.268-2.718c0.427-0.339,0.756-0.801,1.181-1.144
		c0.783-0.631,0.757,0.017,0.788,0.539C64.513,25.775,64.411,25.973,64.309,26.17z"/>
	<path fill="#BBC0D1" d="M81.38,36.95c1.45-1.156,2.681-2.533,3.919-3.902c0.46,0.521,0.42,1.19,0.533,1.813
		c-1.376,0.492-2.046,1.802-3.096,2.673c-0.569,0.472-1.096,0.994-1.642,1.493c-0.014-0.296-0.028-0.592-0.042-0.888
		c0.009-0.295,0.018-0.591,0.027-0.886C81.179,37.152,81.279,37.051,81.38,36.95z"/>
	<path fill="#BBC0D1" d="M86.408,46.239c-1.301,0.415-1.904,1.646-2.862,2.463c-0.859,0.732-1.653,1.54-2.476,2.314
		c0.012-0.594,0.024-1.188,0.037-1.781c1.241-0.41,1.811-1.604,2.76-2.357c0.872-0.692,1.396-1.794,2.545-2.16
		C86.41,45.225,86.409,45.732,86.408,46.239z"/>
	<path fill="#BBC0D1" d="M86.081,52.53c-1.352,0.501-2.015,1.793-3.045,2.664c-0.781,0.661-1.502,1.392-2.25,2.092
		c0.014-0.587,0.027-1.174,0.041-1.761c1.506-0.716,2.347-2.176,3.579-3.198c0.553-0.46,0.893-1.197,1.704-1.325
		C86.101,51.512,86.091,52.021,86.081,52.53z"/>
	<path fill="#E4E2F0" d="M62.812,39.637c-1.339,1.292-2.673,2.588-4.021,3.871c-0.382,0.364-0.671,0.869-1.276,0.932
		c-0.005-0.505-0.011-1.011-0.016-1.516c1.417-0.589,2.158-1.945,3.266-2.886c0.708-0.601,1.368-1.258,2.05-1.89
		c0.002,0.399,0.003,0.798,0.005,1.197C62.817,39.441,62.814,39.539,62.812,39.637z"/>
	<path fill="#BBC0D1" d="M81.102,44.707c-0.011-0.192-0.021-0.384-0.032-0.575c0.021-0.291,0.042-0.583,0.064-0.874
		c1.493-0.691,2.305-2.142,3.516-3.147c0.482-0.4,0.784-1.066,1.545-1.058c0.196,0.381,0.299,0.776,0.195,1.205
		c-1.568,0.708-2.41,2.231-3.68,3.273C82.197,43.951,81.898,44.671,81.102,44.707z"/>
	<path fill="#BBC0D1" d="M81.107,61.867c1.354-1.739,2.831-3.353,4.682-4.583C85.791,60.013,84.772,61.011,81.107,61.867z"/>
	<path fill="#E4E2F0" d="M58.038,54.305c1.65-0.682,2.505-2.263,3.787-3.363c0.652-0.56,0.999-0.647,0.997,0.374
		c-0.003,0.098-0.006,0.195-0.008,0.293c-1.141,1.092-2.276,2.19-3.426,3.274c-0.387,0.365-0.677,0.877-1.292,0.927
		C58.076,55.309,58.057,54.807,58.038,54.305z"/>
	<path fill="#BBC0D1" d="M80.515,31.879c1.194-0.402,1.763-1.538,2.67-2.278c0.418-0.341,0.826-0.696,1.238-1.045
		c0.245,0.579,0.76,1.112,0.317,1.811c-1.798,0.369-2.574,2.094-3.972,2.993C80.683,32.866,80.599,32.373,80.515,31.879z"/>
	<path fill="#E4E2F0" d="M82.222,78.278c1.125-0.761,1.932-1.86,2.927-2.759c0.398-0.359,0.697-0.874,1.333-0.868
		c0.218,0.185,0.436,0.371,0.654,0.556c-1.336,0.939-2.32,2.25-3.518,3.335c-0.392,0.355-0.677,0.866-1.288,0.911
		C82.294,79.062,82.258,78.67,82.222,78.278z"/>
	<path fill="#E4E2F0" d="M63.112,57.295c-1.221,0.994-2.344,2.085-3.312,3.331c-0.459-0.227-0.947-0.417-1.184-0.927
		c1.334-0.376,1.937-1.622,2.878-2.461c0.463-0.413,0.738-1.038,1.105-1.577c0.638,0.657,0.465,1.019,0.52,1.342
		C63.116,57.1,63.114,57.198,63.112,57.295z"/>
	<path fill="#D2D2E4" d="M50.549,70.171c-1.087,0.033-1.316,1.432-2.384,1.496c-0.046-0.596-0.097-1.193,0.155-1.763
		c0.969-0.053,1.344-0.928,1.985-1.435c0.567-0.447,0.889-1.224,1.737-1.292c-0.135,0.927-0.819,1.581-1.188,2.392
		c-0.253,0.124-0.308,0.349-0.307,0.603L50.549,70.171z"/>
	<path fill="#BBC0D1" d="M79.867,26.772c1.207-0.586,1.649-2.166,3.125-2.404c0.145,0.307,0.289,0.613,0.433,0.919
		c-0.977,0.152-1.342,1.079-2.024,1.604c-0.491,0.378-0.775,1.044-1.515,1.07C79.879,27.566,79.873,27.169,79.867,26.772z"/>
	<path fill="#BBC0D1" d="M81.615,21.102c-1.204,0.273-1.61,1.558-2.627,2.069c-0.106-0.196-0.211-0.393-0.317-0.59
		c0.002-0.394,0.004-0.789,0.006-1.183c0.609-0.302,1.236-0.574,1.823-0.914C81.258,20.046,81.437,20.55,81.615,21.102z"/>
	<path fill="#BBC0D1" d="M78.389,21.413c-0.13,0.038-0.261,0.076-0.392,0.114C78.128,21.489,78.259,21.451,78.389,21.413z"/>
	<path fill="#E4E2F0" d="M88.311,56.705c0.081,0.1,0.162,0.2,0.243,0.301C88.382,56.979,88.287,56.89,88.311,56.705z"/>
	<path fill="#C7D4E3" d="M34.379,60.295c-0.002,0.103-0.005,0.206-0.007,0.308c-1.04,0.503-1.435,1.839-2.681,2.077
		c0.046-0.291,0.074-0.585,0.142-0.871c0.374-1.572-0.191-2.812-1.569-3.417c-1.307-0.574-2.894-0.167-3.736,0.957
		c-0.861,1.15-0.668,2.59,0.355,3.779c1.197,1.393,2.537,0.906,3.908,0.461c0.001,0.636-0.541,0.91-0.876,1.325
		c-0.423,0.526-1.159,0.825-1.199,1.632c-0.308-0.085-0.616-0.171-0.924-0.256c-1.118,0.094-1.662-1.09-2.687-1.204
		c-0.108-0.287-0.303-0.489-0.585-0.608c-0.318-1.19-1.085-2.263-0.925-3.577c0.003-0.404,0.007-0.807,0.01-1.211
		c0.827-1.767,2.004-3.187,3.886-3.904c0.505-0.003,1.01-0.007,1.516-0.01c1.2-0.079,2.245,0.397,3.28,0.912
		c0.197,0.404,0.499,0.705,0.895,0.914C33.582,58.501,33.98,59.398,34.379,60.295z"/>
	<path fill="#E4E2F0" d="M23.607,59.691c-0.003,0.404-0.006,0.807-0.01,1.211c-3.123,3.073-6.243,6.149-9.368,9.22
		c-2.556,2.512-5.118,5.019-7.677,7.528c-0.1-0.299-0.2-0.598-0.301-0.898c1.903-1.953,3.792-3.921,5.713-5.855
		c3.394-3.418,6.805-6.819,10.22-10.217C22.594,60.272,22.916,59.708,23.607,59.691z"/>
	<path fill="#FEFEFE" d="M35.575,30.965c1.425-1.48,2.602-3.224,4.503-4.193C38.905,28.523,37.677,30.213,35.575,30.965z"/>
	<path fill="#E4E2F0" d="M27.793,66.291c0.308,0.085,0.616,0.171,0.923,0.257c0.193,0.01,0.387,0.02,0.58,0.029
		c-0.011,0.695-0.58,1.018-0.989,1.428c-5.49,5.504-10.991,10.997-16.483,16.499c-0.384,0.385-0.724,0.815-1.084,1.223
		c-0.399-0.164-0.595-0.465-0.6-0.894c1.728-1.778,3.44-3.572,5.188-5.329c3.853-3.874,7.724-7.73,11.586-11.594
		C27.367,67.458,27.921,67.059,27.793,66.291z"/>
	<path fill="#BBC0D1" d="M29.297,66.577c-0.193-0.01-0.387-0.019-0.58-0.029c0.04-0.808,0.776-1.107,1.199-1.633
		c0.334-0.415,0.876-0.689,0.876-1.325c0.206-0.396,0.505-0.7,0.9-0.91c1.246-0.237,1.641-1.574,2.681-2.077
		c0.012,0.297,0.024,0.595,0.036,0.892C33.95,64.442,32.028,65.916,29.297,66.577z"/>
	<path fill="#6F6FA9" d="M106.227,49.434c-0.269-0.132-0.537-0.265-0.806-0.397c-0.549-0.772-0.018-1.095,0.592-1.297
		c1.632-0.54,2.7-1.594,3.242-3.235c0.183-0.554,0.478-1.217,1.276-0.574c0.136,0.27,0.271,0.541,0.406,0.812
		c0.306,1.362,1.167,2.222,2.445,2.706c0.369,0.149,0.739,0.298,1.108,0.446c0.598,0.64,0.346,1.095-0.367,1.32
		c-1.739,0.55-2.866,1.663-3.418,3.405c-0.217,0.685-0.65,1.012-1.312,0.395c-0.153-0.37-0.306-0.739-0.459-1.108
		C108.493,50.577,107.613,49.728,106.227,49.434z"/>
	<path fill="#E4E2F0" d="M114.49,47.894c-0.369-0.149-0.739-0.298-1.108-0.446c2.414-2.771,5.141-5.235,7.72-7.844
		c0.155-0.156,0.445-0.179,0.672-0.264c0.199,0.101,0.398,0.202,0.597,0.303c-2.213,2.263-4.429,4.524-6.637,6.791
		C115.288,46.892,114.757,47.281,114.49,47.894z"/>
	<path fill="#EEECFB" d="M129.851,19.291c1.445,1.227,1.823,2.641,1.2,4.489c-1.719,1.473-3.315,3.069-4.788,4.788
		c-1.434,0.694-2.661,0.04-3.891-0.598c1.96-2.01,3.923-4.016,5.877-6.032c0.427-0.44,1.139-0.889,0.109-1.451
		C128.731,19.933,129.093,19.365,129.851,19.291z"/>
	<path fill="#EEECFB" d="M121.773,27.366c-1.38-0.659-1.853-1.895-2.087-3.283c0.621-0.007,0.918-0.506,1.301-0.867
		c1.064-1.004,2.119-2.018,3.178-3.028c1.199,0.114,2.441-0.275,3.6,0.305c-1.138,2.098-3.188,3.361-4.685,5.129
		C122.612,26.176,121.846,26.513,121.773,27.366z"/>
	<path fill="#EDF4FC" d="M119.387,23.172c0.049-3.828,2.431-6.21,6.273-6.273C123.698,19.119,121.6,21.203,119.387,23.172z"/>
	<path fill="#EDF4FC" d="M127.766,20.493c-1.16-0.581-2.401-0.191-3.6-0.305c0.605-1.154,2.053-1.632,2.397-2.994
		c1.387,0.243,2.63,0.711,3.288,2.097c-0.758,0.074-1.12,0.642-1.493,1.196C128.16,20.489,127.963,20.491,127.766,20.493z"/>
	<path fill="#E4E2F0" d="M127.766,20.493c0.197-0.002,0.394-0.004,0.592-0.006c1.03,0.562,0.318,1.011-0.109,1.451
		c-1.954,2.015-3.917,4.022-5.877,6.032c-0.287-0.115-0.488-0.315-0.599-0.604c0.072-0.853,0.838-1.19,1.308-1.744
		C124.578,23.854,126.628,22.591,127.766,20.493z"/>
	<path fill="#E4E2F0" d="M126.563,17.194c-0.344,1.362-1.792,1.841-2.397,2.994c-1.059,1.01-2.114,2.024-3.178,3.028
		c-0.383,0.361-0.68,0.861-1.301,0.867c-0.1-0.303-0.2-0.607-0.3-0.91c2.213-1.969,4.311-4.053,6.274-6.273
		C125.99,16.907,126.343,16.846,126.563,17.194z"/>
	<path fill="#E4E2F0" d="M126.263,28.568c1.473-1.719,3.07-3.315,4.788-4.788C130.849,26.736,129.219,28.365,126.263,28.568z"/>
	<path fill="#FEFEFE" d="M24.21,36.348c0.129-0.241,0.353-0.294,0.6-0.299C24.68,36.291,24.457,36.343,24.21,36.348z"/>
	<path fill="#FEFEFE" d="M7.15,53.709c0.005-0.248,0.058-0.471,0.299-0.6C7.443,53.356,7.392,53.58,7.15,53.709z"/>
	<path fill="#E4E2F0" d="M8.05,52.211c0.101-0.1,0.201-0.2,0.302-0.301C8.251,52.01,8.15,52.111,8.05,52.211z"/>
	<path fill="#E4E2F0" d="M23.01,37.248c0.1-0.1,0.2-0.199,0.301-0.299C23.211,37.049,23.111,37.148,23.01,37.248z"/>
	<path fill="#E4E2F0" d="M24.522,64.479c0.282,0.119,0.477,0.321,0.585,0.608c-2.362,2.41-4.714,4.832-7.09,7.228
		c-2.834,2.858-5.685,5.7-8.54,8.536c-0.41,0.407-0.73,0.976-1.424,0.986c-0.002-0.198-0.005-0.397-0.007-0.595
		c-0.006-0.445,0.278-0.725,0.563-1.01c5.179-5.173,10.356-10.347,15.537-15.518C24.247,64.612,24.395,64.556,24.522,64.479z"/>
	<path fill="#FEFEFE" d="M118.18,131.828c-0.115,0.089-0.231,0.178-0.346,0.266C117.873,131.907,117.994,131.825,118.18,131.828z"/>
	<path fill="#FEFEFE" d="M13.745,92.62c-0.004,0.197-0.008,0.395-0.012,0.592c-1.204,1.102-2.409,2.204-3.614,3.306
		c-0.892-0.795-1.277-1.853-1.544-2.973c1.473-1.153,2.758-2.495,3.961-3.922c0.1,0,0.2,0.001,0.299,0.001
		C13.139,90.624,13.442,91.622,13.745,92.62z"/>
	<path fill="#FEFEFE" d="M14.344,98.008c-0.105,0.297-0.21,0.594-0.316,0.891c-0.959-0.706-2.316-0.715-3.084-1.758
		c0.899-0.476,1.442-1.346,2.196-1.982c0.244-0.206,0.44-0.697,0.805-0.457c0.23,0.151,0.343,0.601,0.365,0.927
		C14.367,96.418,14.339,97.214,14.344,98.008z"/>
	<path fill="#EEECFB" d="M118.182,37.548c0.101,0,0.201,0,0.302,0c0.949,0.823,2.154,1.081,3.289,1.494
		c0,0.099,0.001,0.199,0.001,0.298c-0.227,0.085-0.517,0.107-0.672,0.264c-2.579,2.609-5.306,5.073-7.72,7.844
		c-1.278-0.484-2.139-1.344-2.445-2.706c0.5,0.014,0.81-0.309,1.128-0.628c1.852-1.856,3.706-3.709,5.561-5.562
		C117.909,38.27,118.192,37.991,118.182,37.548z"/>
	<path fill="#FEFEFE" d="M75.397,86.921c0.184,3.04-1.083,5.546-2.86,7.882c-0.458,0.602-0.858,0.669-1.24,0.033
		c-0.477-0.794-1.235-1.434-1.371-2.421C71.602,90.436,73.449,88.628,75.397,86.921z"/>
	<path fill="#F4F4F4" d="M75.397,86.921c-1.948,1.707-3.795,3.515-5.471,5.494c-0.4-0.349-0.604-0.811-0.752-1.305
		c1.352-0.53,2.05-1.806,3.074-2.71c1.073-0.947,2.075-1.974,3.108-2.966C75.37,85.929,75.384,86.425,75.397,86.921z"/>
	<path fill="#E4E2F0" d="M118.182,37.548c0.011,0.443-0.272,0.722-0.555,1.004c-1.855,1.853-3.709,3.706-5.561,5.562
		c-0.318,0.318-0.627,0.641-1.128,0.628c-0.135-0.271-0.27-0.542-0.406-0.812c2.079-1.595,3.727-3.639,5.637-5.411
		c0.422-0.392,0.731-0.96,1.416-0.975C117.784,37.545,117.983,37.546,118.182,37.548z"/>
	<path fill="#FEFEFE" d="M62.814,51.609c0.002-0.098,0.005-0.195,0.008-0.293c2.509-2.434,5.019-4.868,7.779-7.546
		c0,1.63,0,2.942,0,4.254c-0.002,0.097-0.005,0.195-0.008,0.292c-2.093,2.045-4.182,4.095-6.284,6.131
		c-0.266,0.258-0.49,0.762-0.939,0.575c-0.455-0.189-0.254-0.708-0.24-1.073C63.16,53.146,63.043,52.373,62.814,51.609z"/>
	<path fill="#E4E2F0" d="M70.593,48.317c0.003-0.097,0.006-0.195,0.008-0.292c1.57-1.525,3.14-3.05,4.711-4.574
		c0.267-0.258,0.388-0.572,0.386-0.938c0.877-0.641,1.569-1.463,2.244-2.303c0.719,0.103,1.034-0.482,1.48-0.855
		c0.52-0.435,0.84-1.143,1.63-1.216c0.014,0.296,0.028,0.592,0.043,0.888c-0.01,0.107-0.02,0.215-0.03,0.322
		c-3.019,2.969-6.038,5.94-9.059,8.907c-0.383,0.376-0.781,0.737-1.171,1.103C70.467,49.007,70.653,48.64,70.593,48.317z"/>
	<path fill="#DFDBF5" d="M50.548,70.171c-0.001-0.253,0.054-0.478,0.307-0.603C50.84,69.813,50.793,70.043,50.548,70.171z"/>
	<path fill="#6F6FA9" d="M77.94,40.21c-0.674,0.84-1.366,1.662-2.243,2.303c-1.961,1.103-4.023,1.289-6.172,0.672
		c-0.931-0.64-1.862-1.281-2.792-1.922c-0.064-0.354-0.285-0.598-0.561-0.804c-0.408-0.876-0.816-1.752-1.224-2.629
		c-0.034-0.496-0.068-0.992-0.102-1.488c0.697-3.258,2.481-5.566,5.752-6.571c0.297-0.022,0.594-0.044,0.891-0.066
		c0.501,0.018,1.002,0.037,1.503,0.055C78.318,31.409,80.132,35.239,77.94,40.21z M75.393,33.914
		c-0.743-1.04-1.719-1.67-3.027-1.716c-2.252-0.032-3.85,0.976-4.579,2.889c-0.726,1.905-0.151,3.728,1.618,5.138
		c0.849,0.755,1.847,0.987,2.952,0.84C76.193,40.366,77.719,36.772,75.393,33.914z"/>
	<path fill="#FEFEFE" d="M66.733,41.264c0.931,0.641,1.861,1.281,2.792,1.922c-1.868,1.892-3.734,3.787-5.61,5.672
		c-0.231,0.232-0.442,0.632-0.831,0.494c-0.419-0.149-0.253-0.593-0.261-0.915c-0.022-0.938-0.01-1.876-0.012-2.815
		C63.935,44.004,65.73,42.99,66.733,41.264z"/>
	<path fill="#FEFEFE" d="M70.598,29.773c-3.271,1.005-5.055,3.312-5.752,6.571c-0.94,0.141-1.234,1.158-2.027,1.498
		c0.05-1.499,0.467-2.975,0.294-4.489c0.101-0.198,0.202-0.396,0.303-0.594c2.051-2.002,4.098-4.007,6.155-6.003
		c0.423-0.411,0.881-0.785,1.323-1.177C70.885,26.984,70.416,28.355,70.598,29.773z"/>
	<path fill="#E4E2F0" d="M72.991,29.762c-0.501-0.018-1.002-0.037-1.503-0.055c0.848-1.681,2.404-2.728,3.678-4.014
		c1.095-1.105,1.97-2.492,3.505-3.112c0.105,0.197,0.211,0.393,0.317,0.59c-0.006,0.105-0.013,0.211-0.02,0.316
		c-1.527,1.477-3.075,2.933-4.57,4.442C73.861,28.473,73.08,28.862,72.991,29.762z"/>
	<path fill="#F4F4F4" d="M62.819,37.842c0.793-0.341,1.086-1.357,2.027-1.498c0.034,0.496,0.068,0.992,0.102,1.488
		c-1.011,0.079-1.314,1.155-2.127,1.512c-0.002-0.399-0.003-0.798-0.005-1.197C62.817,38.045,62.818,37.944,62.819,37.842z"/>
	<path fill="#FEFEFE" d="M62.821,39.344c0.813-0.357,1.116-1.433,2.127-1.512c0.408,0.876,0.816,1.752,1.224,2.629
		c-0.977,1.266-2.116,2.372-3.354,3.379c-0.002-1.401-0.003-2.801-0.005-4.202C62.814,39.539,62.817,39.441,62.821,39.344z"/>
	<path fill="#EDF4FC" d="M72.991,29.762c0.089-0.9,0.87-1.29,1.408-1.833c1.495-1.509,3.043-2.965,4.57-4.442
		c0.299,1.095,0.599,2.19,0.898,3.285c0.006,0.397,0.013,0.793,0.019,1.19c0.209,1.305,0.419,2.611,0.629,3.917
		c0.085,0.494,0.169,0.987,0.253,1.481c0.106,1.198-0.238,2.434,0.301,3.596c0.001,0.099,0.004,0.199,0.01,0.298
		c-0.009,0.295-0.018,0.591-0.027,0.886c-0.791,0.073-1.111,0.781-1.631,1.216c-0.445,0.373-0.761,0.958-1.48,0.855
		C80.132,35.239,78.318,31.409,72.991,29.762z"/>
	<path fill="#E4E2F0" d="M81.079,37.253c-0.006-0.099-0.009-0.199-0.01-0.298c0.104-0.002,0.207-0.004,0.311-0.005
		C81.279,37.051,81.179,37.152,81.079,37.253z"/>
	<path fill="#E4E2F0" d="M31.691,62.68c-0.394,0.21-0.694,0.514-0.9,0.91c-1.371,0.445-2.711,0.931-3.908-0.461
		c-1.023-1.189-1.216-2.629-0.355-3.779c0.842-1.124,2.429-1.531,3.736-0.957c1.378,0.605,1.943,1.845,1.569,3.417
		C31.765,62.095,31.737,62.39,31.691,62.68z"/>
	<path fill="#C7D4E3" d="M69.406,40.225c-1.77-1.41-2.344-3.234-1.619-5.138c0.729-1.913,2.327-2.921,4.579-2.889
		c0.009,0.774,0.018,1.549,0.026,2.323c-0.013,0.515-0.025,1.031-0.038,1.546C71.229,37.351,69.235,38.02,69.406,40.225z"/>
	<path fill="#96D4FB" d="M72.355,36.066c0.013-0.515,0.025-1.031,0.038-1.546c1-0.202,2-0.405,3-0.607
		c2.325,2.859,0.8,6.453-3.035,7.151C72.357,39.399,72.356,37.732,72.355,36.066z"/>
	<path fill="#DFDBF5" d="M72.355,36.066c0.001,1.666,0.002,3.332,0.003,4.998c-1.106,0.147-2.103-0.085-2.952-0.84
		C69.235,38.02,71.229,37.351,72.355,36.066z"/>
	<path fill="#9CAFC9" d="M75.393,33.914c-1,0.203-2,0.405-3,0.607c-0.009-0.775-0.018-1.549-0.026-2.324
		C73.674,32.243,74.65,32.873,75.393,33.914z"/>
</g>
</svg>
