<?xml version="1.0" encoding="utf-8"?>
<!-- Generator: Adobe Illustrator 16.0.0, SVG Export Plug-In . SVG Version: 6.00 Build 0)  -->
<!DOCTYPE svg PUBLIC "-//W3C//DTD SVG 1.1//EN" "http://www.w3.org/Graphics/SVG/1.1/DTD/svg11.dtd">
<svg version="1.1" id="Layer_1" xmlns="http://www.w3.org/2000/svg" xmlns:xlink="http://www.w3.org/1999/xlink" x="0px" y="0px"
	 width="250px" height="250px" viewBox="0 0 250 250" enable-background="new 0 0 250 250" xml:space="preserve">
<g id="EWkoIx.tif">
	<g>
		<path fill="#F38440" d="M109.863,244.97c-0.451-0.168-0.887-0.393-1.352-0.493c-10.889-2.377-18.592-11.709-18.646-22.604
			c-0.055-11.129,7.325-20.663,17.957-23.196c10.765-2.564,21.77,2.691,26.518,12.889c0.848,1.816,1.814,2.216,3.639,2.209
			c19.854-0.061,39.707,0.002,59.562-0.078c3.479-0.014,6.983-0.34,10.422-0.879c4.604-0.721,7.869-3.557,8.838-8.031
			c1.074-4.96,1.429-10.087,1.929-15.157c0.223-2.249,0.037-4.537,0.037-6.846c-2.566-0.427-5.058-0.671-7.457-1.271
			c-14.134-3.546-23.679-15.659-23.775-30.177c-0.07-10.252-0.025-20.504-0.029-30.757c-0.006-13.897,7.934-25.19,21.104-30.035
			c0.445-0.163,0.873-0.374,1.459-0.629c-1.424-7.161-3.76-13.974-6.989-20.438c-12.688-25.378-32.662-42.043-60.494-47.913
			c-30.277-6.385-57.371,1.456-80.857,21.402C48.08,54.547,38.66,69.081,33.474,86.277c-0.226,0.747-0.386,1.512-0.466,1.831
			c4.387,1.486,8.859,2.386,12.727,4.43c10.806,5.71,16.463,14.966,16.699,27.221c0.202,10.494,0.069,20.993,0.037,31.49
			c-0.05,16.104-12.375,29.66-28.254,31.126c-15.976,1.475-30.555-9.443-33.683-25.212c-0.105-0.53-0.354-1.033-0.534-1.548
			c0-13.348,0-26.692,0-40.04c0.174-0.432,0.423-0.849,0.514-1.298c1.754-8.634,6.234-15.524,13.666-20.206
			c2.496-1.574,3.609-3.379,4.281-6.135c6.374-26.131,20.793-46.973,42.688-62.337c27.719-19.452,58.43-25.75,91.031-16.125
			c38.967,11.503,62.359,38.462,71.861,77.721c0.35,1.444,0.9,2.147,2.387,2.557c11.393,3.139,18.814,10.452,22.398,21.687
			c0.434,1.365,0.785,2.757,1.174,4.136c0,13.185,0,26.368,0,39.552c-0.17,0.534-0.395,1.061-0.5,1.605
			c-1.672,8.563-6.104,15.338-13.342,20.179c-1.428,0.955-1.822,1.938-1.826,3.547c-0.023,8.364,0.465,16.758-1.457,25.021
			c-2.535,10.914-8.203,19.143-19.547,22.088c-4.125,1.072-8.492,1.584-12.762,1.664c-12.039,0.224-24.084,0.093-36.129,0.098
			c-9.674,0.003-19.349,0.001-29.047,0.001c-2.617,6.543-6.966,11.282-13.392,13.946c-1.707,0.707-3.531,1.138-5.301,1.694
			C114.42,244.97,112.141,244.97,109.863,244.97z"/>
	</g>
</g>
</svg>
