<?xml version="1.0" encoding="utf-8"?>
<!-- Generator: Adobe Illustrator 17.0.0, SVG Export Plug-In . SVG Version: 6.00 Build 0)  -->
<!DOCTYPE svg PUBLIC "-//W3C//DTD SVG 1.1//EN" "http://www.w3.org/Graphics/SVG/1.1/DTD/svg11.dtd">
<svg version="1.1" id="Layer_1" xmlns="http://www.w3.org/2000/svg" xmlns:xlink="http://www.w3.org/1999/xlink" x="0px" y="0px"
	 width="43px" height="48px" viewBox="0 0 43 48" enable-background="new 0 0 43 48" xml:space="preserve">
<g>
	<path fill="#FE3401" d="M21.411,20.285c0.453-0.388,0.727-0.92,1.1-1.372c1.109-1.347,2.142-2.765,3.621-3.753
		c0.314-0.21,0.632-0.415,0.948-0.622c0.304-0.145,0.608-0.289,0.912-0.434c0.672-0.217,1.345-0.434,2.017-0.652
		c0.155-0.01,0.314,0.013,0.457-0.073c0.518-0.047,1.035-0.095,1.553-0.142c0.153,0.002,0.307,0.004,0.46,0.006
		c0.426,0.031,0.852,0.061,1.279,0.092c0.153,0.03,0.307,0.06,0.46,0.091c0.333,0.073,0.665,0.147,0.998,0.22
		c0.125,0.046,0.251,0.091,0.376,0.137c0.294,0.105,0.588,0.21,0.882,0.314c0.13,0.059,0.26,0.119,0.39,0.178
		c0.277,0.148,0.554,0.296,0.831,0.444c0.116,0.072,0.232,0.145,0.347,0.217c0.248,0.173,0.496,0.346,0.744,0.519
		c0.062,0.094,0.143,0.162,0.254,0.191c0.227,0.208,0.454,0.415,0.681,0.623c0.119,0.12,0.237,0.241,0.356,0.361
		c0.205,0.233,0.409,0.467,0.614,0.7c0.063,0.084,0.127,0.168,0.19,0.251c0.159,0.235,0.317,0.47,0.476,0.704
		c0.033,0.109,0.082,0.208,0.178,0.276c0.155,0.305,0.31,0.609,0.465,0.914c0.022,0.14,0.073,0.265,0.172,0.369
		c0.12,0.337,0.241,0.674,0.361,1.01c0.006,0.098,0,0.2,0.085,0.272c0.072,0.364,0.145,0.728,0.217,1.093
		c0.029,0.153,0.057,0.307,0.086,0.46c0.027,0.457,0.053,0.914,0.08,1.371c0,0.122,0.001,0.244,0.001,0.366
		c-0.063,0.519-0.125,1.037-0.188,1.556c-0.051,0.214-0.101,0.428-0.152,0.642c-0.2,0.72-0.474,1.414-0.762,2.102
		c-0.184,0.335-0.367,0.67-0.551,1.004c-0.931,1.381-2.091,2.532-3.487,3.442c-0.3,0.164-0.6,0.328-0.9,0.491
		c-0.716,0.314-1.456,0.565-2.199,0.806c-0.186,0.016-0.377,0.006-0.546,0.107c-0.518,0.063-1.037,0.126-1.555,0.189
		c-0.153,0.002-0.306,0.003-0.459,0.005c-0.274-0.035-0.548-0.071-0.821-0.106c-0.006-0.102-0.072-0.152-0.153-0.205
		c-1.259-0.824-1.278-2.448-0.048-3.313c0.114-0.08,0.289-0.125,0.291-0.317c0.426-0.012,0.852-0.024,1.278-0.035
		c0.192,0.04,0.369-0.042,0.553-0.066c0.75-0.097,1.461-0.309,2.106-0.716c1.278-0.615,2.224-1.563,2.841-2.84
		c0.406-0.645,0.618-1.356,0.715-2.106c0.026-0.184,0.106-0.361,0.067-0.553c0.044-0.46,0.084-0.919-0.05-1.372
		c-0.016-0.125-0.032-0.25-0.048-0.375c-0.051-0.38-0.124-0.754-0.305-1.097c-0.015-0.097-0.017-0.2-0.111-0.264
		c-0.099-0.387-0.285-0.73-0.534-1.04c-0.033-0.05-0.066-0.101-0.099-0.151c-0.15-0.325-0.377-0.589-0.641-0.826
		c-0.065-0.121-0.159-0.212-0.277-0.28c-0.165-0.235-0.392-0.397-0.631-0.546c-0.1-0.128-0.235-0.206-0.382-0.265
		c-0.272-0.218-0.57-0.388-0.903-0.495c-0.072-0.03-0.144-0.06-0.216-0.09c-0.361-0.203-0.749-0.317-1.159-0.363
		c-0.113-0.082-0.244-0.068-0.372-0.067c-0.452-0.143-0.913-0.108-1.374-0.076c-0.154,0.004-0.307,0.009-0.461,0.013
		c-0.666,0.078-1.32,0.204-1.917,0.531c-0.371,0.107-0.709,0.277-1.005,0.526c-1.022,0.574-1.701,1.495-2.403,2.391
		c-0.511,0.569-0.977,1.172-1.372,1.828c-0.219,0.301-0.451,0.592-0.651,0.905c-0.147,0.23-0.396,0.424-0.336,0.75
		c-0.097,0.003-0.182,0.033-0.234,0.118c-0.684,1.144-1.368,2.288-2.051,3.432c-0.508,0.661-1.022,1.317-1.524,1.983
		c-1.26,1.67-2.711,3.119-4.618,4.05c-0.241,0.1-0.481,0.2-0.722,0.301c-0.64,0.184-1.28,0.369-1.92,0.553
		c-0.157-0.003-0.317-0.028-0.459,0.07c-0.518,0.037-1.036,0.073-1.554,0.11c-0.121-0.004-0.242-0.008-0.364-0.012
		c-0.424-0.046-0.849-0.091-1.273-0.137c-0.122-0.019-0.245-0.038-0.367-0.057c-0.368-0.091-0.735-0.182-1.103-0.273
		c-0.125-0.048-0.249-0.097-0.374-0.145c-0.335-0.128-0.669-0.256-1.004-0.385c-0.092-0.053-0.185-0.106-0.277-0.159
		c-0.303-0.163-0.607-0.326-0.91-0.489c-0.091-0.062-0.181-0.124-0.272-0.186c-0.209-0.152-0.418-0.305-0.627-0.457
		c-0.122-0.099-0.244-0.198-0.366-0.297c-0.218-0.204-0.436-0.408-0.654-0.611c-0.091-0.094-0.182-0.188-0.272-0.282
		c-0.18-0.213-0.36-0.425-0.54-0.638c-0.094-0.124-0.187-0.249-0.281-0.373c-0.157-0.239-0.313-0.479-0.47-0.718
		c-0.031-0.109-0.079-0.207-0.173-0.276c-0.174-0.357-0.348-0.714-0.522-1.071c-0.029-0.073-0.057-0.147-0.086-0.22
		c-0.11-0.331-0.22-0.662-0.33-0.993c-0.036-0.127-0.072-0.253-0.108-0.38c-0.079-0.393-0.158-0.786-0.238-1.179
		c-0.01-0.122-0.019-0.245-0.029-0.367C0.042,24.599,0.021,24.142,0,23.685c0.077-0.15,0.069-0.305,0.029-0.462
		c0.078-0.517,0.155-1.033,0.233-1.55c0.039-0.181,0.078-0.362,0.118-0.543c0.287-0.773,0.556-1.554,0.942-2.286
		c0.267-0.427,0.535-0.853,0.802-1.28c0.651-0.805,1.382-1.532,2.181-2.189c0.424-0.27,0.847-0.539,1.271-0.809
		c0.741-0.371,1.51-0.673,2.29-0.95c0.223-0.001,0.429-0.074,0.636-0.145c0.52-0.075,1.04-0.151,1.559-0.226
		c0.153-0.001,0.307-0.002,0.46-0.003c0.333,0.019,0.666,0.039,0.999,0.058c0.035,0.046,0.062,0.107,0.108,0.137
		c1.477,0.954,1.464,2.632-0.031,3.534c-0.082,0.049-0.155,0.093-0.158,0.2c-0.489,0.016-0.977,0.033-1.466,0.049
		c-0.216,0.036-0.433,0.072-0.649,0.108c-0.903,0.156-1.715,0.53-2.454,1.058c-1.459,1.042-2.429,2.414-2.766,4.2
		c-0.116,0.171-0.081,0.363-0.082,0.551c-0.142,0.482-0.101,0.971-0.054,1.46c0.022,0.124,0.044,0.247,0.065,0.371
		c-0.002,0.387,0.103,0.75,0.25,1.103c0.013,0.178,0.077,0.338,0.178,0.484c0.089,0.338,0.238,0.646,0.46,0.918
		c0.031,0.05,0.062,0.101,0.094,0.151C5.145,27.942,5.37,28.193,5.6,28.44c0.085,0.151,0.199,0.273,0.345,0.365
		c0.169,0.233,0.395,0.402,0.633,0.556c0.124,0.091,0.247,0.181,0.371,0.272c0.249,0.198,0.51,0.376,0.821,0.465
		c0.054,0.085,0.144,0.093,0.231,0.107c0.347,0.22,0.736,0.321,1.133,0.401c0.157,0.035,0.313,0.071,0.47,0.106
		c0.393,0.061,0.784,0.148,1.186,0.091c0.154-0.003,0.308-0.006,0.462-0.008c0.629-0.059,1.256-0.128,1.833-0.417
		c0.304-0.048,0.572-0.184,0.827-0.348c0.186-0.1,0.381-0.187,0.557-0.303c1.283-0.844,2.14-2.082,3.031-3.289
		c0.42-0.478,0.761-1.011,1.078-1.56c0.233-0.31,0.504-0.6,0.552-1.011c0.13-0.001,0.17-0.104,0.224-0.195
		c0.232-0.387,0.479-0.766,0.698-1.16C20.476,21.751,21.028,21.069,21.411,20.285z"/>
	<path fill="#FF6243" d="M31.471,30.822c-0.002,0.192-0.176,0.237-0.291,0.317c-1.23,0.865-1.211,2.489,0.048,3.313
		c0.081,0.053,0.147,0.103,0.153,0.205c-0.152,0.007-0.305,0.014-0.457,0.021c-0.154-0.029-0.307-0.058-0.461-0.087
		c-0.365-0.07-0.729-0.14-1.094-0.21c-0.071-0.091-0.174-0.083-0.273-0.088c-0.336-0.12-0.673-0.24-1.009-0.36
		c-0.122-0.059-0.245-0.117-0.367-0.176c-0.263-0.131-0.526-0.263-0.789-0.394c-0.133-0.083-0.267-0.166-0.4-0.249
		c-0.236-0.159-0.472-0.318-0.709-0.477c-0.085-0.063-0.17-0.126-0.254-0.189c-0.231-0.206-0.461-0.411-0.692-0.617
		c-0.12-0.121-0.24-0.242-0.36-0.363c-0.18-0.251-0.39-0.475-0.624-0.676c-0.03-0.11-0.098-0.19-0.197-0.244
		c-0.18-0.215-0.36-0.43-0.54-0.645c-0.096-0.118-0.192-0.237-0.287-0.355C22.683,29.27,22.492,29,22.249,28.77
		c-0.029-0.11-0.097-0.193-0.187-0.259c-0.187-0.273-0.374-0.545-0.562-0.818c0.683-1.144,1.367-2.289,2.051-3.432
		c0.051-0.086,0.137-0.116,0.234-0.118c0.122,0.153,0.244,0.305,0.367,0.458c0.065,0.145,0.136,0.286,0.263,0.389
		c0.14,0.28,0.323,0.529,0.538,0.755c0.034,0.046,0.068,0.093,0.102,0.139c0.153,0.32,0.386,0.58,0.62,0.84
		c0.068,0.148,0.167,0.271,0.294,0.372c0.162,0.204,0.325,0.409,0.487,0.613c0.113,0.13,0.226,0.259,0.339,0.389
		c0.165,0.225,0.322,0.457,0.553,0.624c0.063,0.121,0.156,0.213,0.277,0.277c0.235,0.265,0.499,0.494,0.825,0.642
		c0.051,0.033,0.102,0.066,0.153,0.1c0.306,0.256,0.653,0.433,1.038,0.535c0.062,0.096,0.167,0.093,0.262,0.112
		c0.346,0.178,0.718,0.257,1.101,0.298c0.124,0.017,0.249,0.035,0.373,0.053C31.408,30.766,31.439,30.794,31.471,30.822z"/>
	<path fill="#FF6243" d="M21.411,20.285c-0.383,0.785-0.934,1.467-1.357,2.228c-0.219,0.394-0.466,0.773-0.698,1.16
		c-0.054,0.091-0.094,0.194-0.224,0.195c-0.13-0.182-0.259-0.364-0.389-0.546c-0.086-0.125-0.173-0.249-0.259-0.374
		c-0.16-0.241-0.321-0.482-0.481-0.723c-0.087-0.121-0.173-0.242-0.26-0.362c-0.167-0.292-0.376-0.552-0.613-0.789
		c-0.062-0.084-0.125-0.169-0.187-0.253c-0.141-0.272-0.346-0.494-0.566-0.704c-0.087-0.1-0.173-0.2-0.26-0.299
		c-0.18-0.276-0.385-0.53-0.648-0.731c-0.092-0.088-0.184-0.176-0.276-0.264c-0.205-0.235-0.457-0.408-0.737-0.543
		c-0.092-0.059-0.184-0.117-0.276-0.176c-0.307-0.217-0.631-0.395-1.006-0.466c-0.065-0.093-0.169-0.085-0.263-0.104
		c-0.353-0.158-0.719-0.259-1.109-0.26c-0.113-0.097-0.247-0.075-0.378-0.068l0.015-0.034c0.002-0.107,0.076-0.151,0.158-0.2
		c1.495-0.902,1.508-2.58,0.031-3.534c-0.046-0.03-0.072-0.091-0.108-0.137c0.092-0.011,0.185-0.022,0.277-0.034
		c0.113,0.091,0.245,0.071,0.375,0.063c0.424,0.075,0.847,0.15,1.271,0.225c0.075,0.079,0.176,0.071,0.271,0.079
		c0.367,0.124,0.734,0.249,1.101,0.373c0.094,0.048,0.188,0.096,0.281,0.144c0.272,0.129,0.544,0.259,0.816,0.388
		c0.119,0.068,0.238,0.135,0.357,0.203c0.277,0.181,0.554,0.362,0.831,0.543c0.095,0.079,0.189,0.157,0.284,0.236
		c0.24,0.198,0.48,0.396,0.72,0.594c0.057,0.056,0.115,0.112,0.172,0.168c0.218,0.243,0.436,0.486,0.654,0.728
		c0.088,0.1,0.175,0.199,0.263,0.299c0.149,0.268,0.37,0.477,0.574,0.7c0.084,0.101,0.167,0.203,0.251,0.304
		c0.144,0.268,0.345,0.493,0.549,0.716c0.093,0.126,0.186,0.252,0.279,0.379C21.034,19.7,21.222,19.992,21.411,20.285z"/>
</g>
</svg>
