<?xml version="1.0" encoding="utf-8"?>
<!-- Generator: Adobe Illustrator 16.0.4, SVG Export Plug-In . SVG Version: 6.00 Build 0)  -->
<!DOCTYPE svg PUBLIC "-//W3C//DTD SVG 1.1//EN" "http://www.w3.org/Graphics/SVG/1.1/DTD/svg11.dtd">
<svg version="1.1" id="Layer_1" xmlns="http://www.w3.org/2000/svg" xmlns:xlink="http://www.w3.org/1999/xlink" x="0px" y="0px"
	 width="50px" height="50px" viewBox="0 0 50 50" enable-background="new 0 0 50 50" xml:space="preserve">
<g id="gbNsr6.tif">
	<g>
		<path fill-rule="evenodd" clip-rule="evenodd" d="M49.659,40.955c-0.294,0.536-0.741,0.745-1.352,0.703
			c-0.543-0.036-1.091,0.002-1.635-0.012c-0.664-0.017-1.069-0.431-1.059-1.051c0.011-0.591,0.421-0.979,1.062-0.996
			c0.285-0.007,0.571-0.001,0.884-0.001c0-9.605,0-19.162,0-28.744c-15.051,0-30.067,0-45.119,0c0,9.572,0,19.129,0,28.743
			c0.191,0,0.361,0,0.533,0c4.719-0.001,9.438-0.002,14.156-0.003c0.177,0,0.354-0.001,0.529,0.006
			c0.612,0.022,1.058,0.448,1.065,1.013c0.006,0.558-0.44,1.024-1.046,1.03c-1.558,0.017-3.115,0.012-4.671,0.012
			c-3.772,0.001-7.543-0.01-11.315,0.009c-0.605,0.002-1.058-0.169-1.35-0.708c0-13.228,0-26.457,0-39.684
			C0.539,0.859,0.874,0.619,1.306,0.5c15.828,0,31.657,0,47.485,0c0.29,0.257,0.578,0.514,0.868,0.771
			C49.659,14.499,49.659,27.727,49.659,40.955z M2.438,8.754c15.053,0,30.072,0,45.123,0c0-2.049,0-4.077,0-6.122
			c-15.054,0-30.074,0-45.123,0C2.438,4.68,2.438,6.708,2.438,8.754z"/>
		<path fill-rule="evenodd" clip-rule="evenodd" d="M38.802,27.594c-0.161,0.624-0.328,1.359-0.543,2.078
			c-0.095,0.314,0.025,0.473,0.197,0.713c0.515,0.711,1.116,0.818,1.889,0.476c0.361-0.161,0.769-0.219,1.155-0.322
			c0.575-0.15,1.058-0.007,1.301,0.519c0.458,0.984,0.881,1.987,1.25,3.006c0.217,0.602,0.003,0.993-0.556,1.326
			c-0.564,0.337-1.13,0.673-1.704,0.99c-0.228,0.125-0.349,0.269-0.278,0.533c0.008,0.03,0.015,0.065,0.008,0.096
			c-0.245,0.954,0.333,1.37,1.081,1.706c0.364,0.165,0.706,0.381,1.042,0.596c0.423,0.27,0.633,0.673,0.453,1.153
			c-0.385,1.033-0.786,2.06-1.239,3.062c-0.26,0.575-0.707,0.727-1.326,0.571c-0.635-0.161-1.263-0.362-1.903-0.497
			c-0.175-0.036-0.413,0.06-0.578,0.165c-0.799,0.509-0.909,1.194-0.512,2.029c0.156,0.328,0.215,0.701,0.301,1.06
			c0.146,0.61-0.009,1.038-0.598,1.315c-0.938,0.443-1.896,0.851-2.868,1.211c-0.646,0.239-1.056,0.035-1.409-0.562
			c-0.336-0.567-0.648-1.146-1.006-1.697c-0.089-0.137-0.307-0.231-0.482-0.266c-0.907-0.181-1.495,0.175-1.809,1.061
			c-0.131,0.372-0.376,0.705-0.586,1.046c-0.277,0.448-0.693,0.654-1.19,0.473c-1.048-0.383-2.088-0.796-3.105-1.258
			c-0.523-0.237-0.661-0.693-0.52-1.255c0.169-0.666,0.361-1.328,0.509-1.999c0.031-0.146-0.045-0.347-0.135-0.482
			c-0.515-0.792-1.194-0.976-2.062-0.563c-0.34,0.162-0.732,0.221-1.105,0.314c-0.538,0.135-0.984-0.005-1.221-0.507
			c-0.475-1.011-0.908-2.045-1.306-3.088c-0.19-0.505,0.026-0.938,0.501-1.226c0.576-0.349,1.173-0.665,1.735-1.033
			c0.153-0.099,0.299-0.333,0.306-0.51c0.047-1.191,0.035-1.192-1.012-1.79c-0.333-0.19-0.671-0.375-1.001-0.573
			c-0.531-0.318-0.75-0.722-0.542-1.295c0.376-1.036,0.801-2.054,1.263-3.054c0.241-0.521,0.745-0.664,1.311-0.502
			c0.354,0.101,0.707,0.201,1.063,0.295c1.196,0.314,1.202,0.318,2.042-0.62c0.094-0.104,0.138-0.318,0.105-0.458
			c-0.158-0.668-0.355-1.329-0.53-1.995c-0.147-0.562-0.009-1.007,0.517-1.253c0.997-0.467,2.013-0.9,3.046-1.282
			c0.577-0.214,1.013,0.045,1.348,0.631c0.31,0.542,0.635,1.076,0.931,1.626c0.122,0.227,0.271,0.277,0.521,0.313
			c0.902,0.138,1.481-0.18,1.793-1.049c0.123-0.342,0.352-0.646,0.539-0.964c0.33-0.561,0.771-0.797,1.374-0.578
			c1.004,0.367,1.984,0.802,2.962,1.237C38.611,26.69,38.809,27.039,38.802,27.594z M41.862,33.942
			c-0.125-0.307-0.252-0.582-0.347-0.866c-0.1-0.292-0.253-0.342-0.548-0.247c-0.562,0.181-1.142,0.313-1.711,0.471
			c-0.538,0.149-0.947,0.005-1.32-0.429c-0.446-0.521-0.932-1.018-1.458-1.456c-0.473-0.392-0.624-0.819-0.46-1.394
			c0.191-0.673,0.361-1.353,0.548-2.059c-0.43-0.172-0.822-0.33-1.221-0.491c-0.386,0.675-0.746,1.301-1.101,1.926
			c-0.246,0.437-0.604,0.61-1.113,0.595c-0.781-0.028-1.566-0.009-2.35,0.016c-0.444,0.015-0.785-0.134-1.016-0.508
			c-0.218-0.355-0.419-0.72-0.629-1.079c-0.611-1.051-0.611-1.051-1.685-0.423c-0.012,0.005-0.019,0.023-0.054,0.074
			c0.178,0.649,0.362,1.326,0.549,2.001c0.135,0.487,0.07,0.902-0.322,1.269c-0.57,0.535-1.117,1.097-1.659,1.663
			c-0.326,0.341-0.676,0.512-1.157,0.371c-0.598-0.178-1.202-0.338-1.811-0.47c-0.144-0.032-0.402,0.032-0.463,0.139
			c-0.172,0.295-0.27,0.636-0.403,0.976c0.654,0.376,1.262,0.731,1.875,1.075c0.488,0.272,0.675,0.651,0.631,1.228
			c-0.054,0.716-0.036,1.441,0.017,2.157c0.037,0.508-0.107,0.881-0.532,1.141c-0.41,0.25-0.829,0.486-1.244,0.729
			c-0.77,0.449-0.757,0.443-0.392,1.263c0.131,0.294,0.281,0.37,0.588,0.273c0.58-0.182,1.173-0.32,1.757-0.492
			c0.493-0.144,0.87,0.031,1.21,0.379c0.535,0.548,1.068,1.097,1.625,1.624c0.349,0.33,0.497,0.694,0.365,1.164
			c-0.102,0.37-0.196,0.741-0.296,1.113c-0.312,1.158-0.312,1.158,0.854,1.524c0.026,0.008,0.061-0.012,0.124-0.025
			c0.331-0.578,0.691-1.165,1.009-1.774c0.286-0.543,0.713-0.72,1.304-0.691c0.684,0.036,1.374,0.047,2.055-0.002
			c0.63-0.045,1.038,0.189,1.328,0.732c0.314,0.591,0.665,1.166,1.019,1.78c0.42-0.181,0.812-0.346,1.209-0.515
			c-0.196-0.734-0.36-1.418-0.567-2.09c-0.178-0.576,0.006-0.973,0.442-1.353c0.492-0.429,0.959-0.896,1.387-1.391
			c0.478-0.558,0.795-0.69,1.512-0.494c0.646,0.178,1.292,0.349,1.983,0.535c0.171-0.417,0.333-0.807,0.5-1.218
			c-0.687-0.394-1.326-0.758-1.964-1.124c-0.434-0.251-0.593-0.628-0.574-1.127c0.028-0.717,0.042-1.438-0.001-2.153
			c-0.034-0.579,0.143-0.99,0.656-1.272C40.626,34.677,41.228,34.312,41.862,33.942z"/>
		<path fill-rule="evenodd" clip-rule="evenodd" d="M6.508,20.084c0-1.333-0.002-2.666,0.001-3.997c0-0.773,0.369-1.145,1.152-1.146
			c2.648-0.003,5.298-0.003,7.947,0c0.798,0.001,1.202,0.42,1.201,1.223c-0.003,2.586-0.007,5.17-0.01,7.754
			c-0.001,0.925-0.389,1.313-1.315,1.313c-2.537,0.001-5.073,0.002-7.61,0c-1.025-0.001-1.364-0.34-1.366-1.344
			C6.508,22.618,6.508,21.351,6.508,20.084z M8.609,17.021c0,2.041,0,4.056,0,6.093c2.029,0,4.042,0,6.066,0
			c0-2.041,0-4.053,0-6.093C12.644,17.021,10.645,17.021,8.609,17.021z"/>
		<path fill-rule="evenodd" clip-rule="evenodd" d="M31.242,21.111c-3.017,0-6.031-0.004-9.047,0.002
			c-0.502,0-0.875-0.188-1.071-0.653c-0.164-0.387-0.13-0.809,0.193-1.058c0.269-0.207,0.657-0.36,0.995-0.362
			c3.928-0.022,7.859-0.014,11.788-0.013c2.021,0,4.042,0.002,6.062,0c0.477,0,0.895,0.11,1.132,0.572
			c0.375,0.728-0.137,1.505-1.007,1.507c-2.293,0.007-4.587,0.003-6.881,0.003C32.685,21.111,31.963,21.11,31.242,21.111z"/>
		<path fill-rule="evenodd" clip-rule="evenodd" d="M31.236,14.942c3.016,0,6.03-0.005,9.045,0.002
			c0.811,0.001,1.288,0.591,1.089,1.313c-0.129,0.468-0.506,0.73-1.105,0.731c-2.196,0.007-4.394,0.006-6.59,0.006
			c-3.688,0-7.377-0.001-11.065-0.001c-0.161,0-0.321,0.006-0.481-0.001c-0.673-0.032-1.081-0.428-1.076-1.034
			c0.006-0.609,0.423-1.012,1.093-1.014c2.133-0.008,4.266-0.004,6.398-0.006c0.898-0.001,1.796,0,2.693,0
			C31.236,14.939,31.236,14.939,31.236,14.942z"/>
		<path fill-rule="evenodd" clip-rule="evenodd" d="M22.974,23.143c0.305,0,0.611-0.012,0.915,0.002
			c0.535,0.024,0.964,0.42,1.013,0.916c0.055,0.553-0.258,1.062-0.823,1.118c-0.729,0.072-1.474,0.07-2.205,0.006
			c-0.554-0.05-0.874-0.567-0.822-1.12c0.046-0.499,0.471-0.895,1.007-0.919C22.363,23.13,22.668,23.143,22.974,23.143z"/>
		<path fill-rule="evenodd" clip-rule="evenodd" d="M32.057,32.92c2.32-0.078,4.304,1.925,4.395,4.436
			c0.086,2.343-1.924,4.352-4.445,4.446c-2.371,0.086-4.351-1.925-4.425-4.495C27.514,34.944,29.493,33.004,32.057,32.92z
			 M34.446,37.21c0-1.254-1.209-2.332-2.594-2.309c-1.242,0.019-2.273,1.179-2.291,2.572c-0.016,1.254,1.185,2.338,2.577,2.326
			C33.412,39.79,34.446,38.629,34.446,37.21z"/>
	</g>
</g>
</svg>
